<svg xmlns="http://www.w3.org/2000/svg" viewBox="0 0 75.46 79.49"><defs><style>.cls-1{fill:#3d4e68;}.cls-2{fill:#f45b44;}.cls-3{fill:#fff;}.cls-4{fill:#d4e9e5;}.cls-5{fill:#fa8573;}.cls-6{fill:#bad3ce;}</style></defs><g id="Layer_2" data-name="Layer 2"><g id="Map_with_elements" data-name="Map with elements"><path class="cls-1" d="M40.54,77.74c.7-.52,2.18-1.62,2.22-1.63l.52-10.39.45,0L43.2,76.16a26.75,26.75,0,0,1,2,2.32c.32.48-.47.89-.79.42a12.68,12.68,0,0,0-1.07-1.35c0,.51-.08,1-.16,1.54s-1,.52-.89,0,.12-1.07.16-1.6l-1.28.94C40.69,78.73,40.08,78.08,40.54,77.74Z"/><path class="cls-1" d="M50.93,74.55l-3.6-9.93.42-.15,3.59,9.9c.09,0,.86.42,1,.48a7,7,0,0,0,1.25.33c.56.1.52,1,0,.9A9.54,9.54,0,0,1,52,75.66c.18.5.38,1,.59,1.49s-.54.94-.79.42c0,0-.47-1.14-.63-1.58a12.38,12.38,0,0,1-.82,1.22c-.35.46-1.1,0-.75-.48C50.06,76.12,50.88,74.61,50.93,74.55Z"/><path class="cls-2" d="M19.83,51c5.62-.41,12.76-5.47,14.88-8.08,2.26-2.77,4-7.8,6.92-12.19,3.29,4,9.21,10.21,16.16,13.12a35,35,0,0,0,12.87,3,32.76,32.76,0,0,1-5.44,11.81,24.19,24.19,0,0,1-20,10.44c-8.12,0-16-1.87-21.55-6.27C16.34,57,11.57,52.51,9.58,47.21,9.54,47.13,13.91,51.42,19.83,51Z"/><path class="cls-1" d="M6.31,34a3.84,3.84,0,0,1,1.9,1.19,6.65,6.65,0,0,1,1.28,2.94,10,10,0,0,1,.3,2.3c0,.52-.39,6.43-.39,6.43A17.42,17.42,0,0,0,7,44.66a13.82,13.82,0,0,1-3.54-4.94c-.3-.67-1.23-3.56-.27-4.73A3.09,3.09,0,0,1,6.31,34Z"/><path class="cls-1" d="M1.91,44.39a5.22,5.22,0,0,1,2.26-.09,9.58,9.58,0,0,1,5.21,2.57,19.53,19.53,0,0,1-6.31,1.54,3.37,3.37,0,0,1-2.57-.5,1.88,1.88,0,0,1-.31-2.12A2.75,2.75,0,0,1,1.91,44.39Z"/><path class="cls-1" d="M73.38,33.38a1.55,1.55,0,0,1,.38,2c-.54.91-1.79,1.3-2.78,1.69a5.67,5.67,0,0,1,3.29.6c.75.43,1.53,1.25,1,2.17a1.38,1.38,0,0,1-2.06.34A8.58,8.58,0,0,1,70.45,37a5.06,5.06,0,0,1,.81-3.31A1.54,1.54,0,0,1,73.38,33.38Z"/><path class="cls-1" d="M41.63,30.71c2.74-4.2,6.48-7.82,12.59-8.34,11-.92,16.65,11.34,17,17.15a25.73,25.73,0,0,1-.61,7.32,35,35,0,0,1-12.87-3C50.84,40.92,44.92,34.7,41.63,30.71Z"/><path class="cls-3" d="M62.62,58.34c-.7.56-1.5.73-1.79.37s0-1.1.74-1.67,1.51-.73,1.79-.37S63.32,57.77,62.62,58.34Z"/><path class="cls-3" d="M58.61,62.39c-.83.55-1.75.62-2,.15s.11-1.28.94-1.83,1.75-.62,2.06-.16S59.44,61.84,58.61,62.39Z"/><path class="cls-3" d="M52.71,64.55c-.79.44-1.57.55-1.74.24s.33-.92,1.12-1.36,1.58-.55,1.75-.24S53.51,64.11,52.71,64.55Z"/><path class="cls-3" d="M63.55,55.33c-.24-.16-.09-.8.34-1.41s1-1,1.21-.81.08.8-.34,1.41S63.79,55.5,63.55,55.33Z"/><path class="cls-3" d="M48,66.68c-.11-.35.55-.76,1.48-.9s1.75,0,1.85.36-.56,1.09-1.48,1.23A1.81,1.81,0,0,1,48,66.68Z"/><path class="cls-3" d="M59.73,59.08a.83.83,0,1,1,.16-1.29A.93.93,0,0,1,59.73,59.08Z"/><path class="cls-3" d="M55.73,65a2.2,2.2,0,0,1-1.67.67c-.44-.09-.4-.55.09-1A2.21,2.21,0,0,1,55.83,64C56.26,64.1,56.22,64.56,55.73,65Z"/><path class="cls-3" d="M55.37,62a.5.5,0,1,1,.42-.65A.56.56,0,0,1,55.37,62Z"/><path class="cls-3" d="M65.57,53.23a.45.45,0,0,1,.46-.74.39.39,0,0,1,0,.54A.4.4,0,0,1,65.57,53.23Z"/><path class="cls-3" d="M19.56,42.83c5.63-1.84,10.35-4.95,15.91-5.77,7.59-1.12,13.08.34,14.6,7.19.7,3.18-1.94,6.68-6.28,9.22A18.87,18.87,0,0,1,32,56.08C21.3,54.64,12.57,42.43,12.9,41.84S16.75,43.75,19.56,42.83Z"/><path class="cls-4" d="M45.43,49.23a10.53,10.53,0,0,0-1-1.79A6.48,6.48,0,0,1,43,43.86,9.67,9.67,0,0,0,43.1,42a4.61,4.61,0,0,0-.7-1.51,13.14,13.14,0,0,1-1.52-3.77c.49,0,1,.08,1.43.15a5.18,5.18,0,0,0,1.15,3.31c.22.24.48.44.68.69.79,1,.47,2.44.6,3.71a5,5,0,0,0,.8,2.21c.36.54.82,1,1.16,1.54a5,5,0,0,1,.7,2.5,15.11,15.11,0,0,1-1.59,1.33A6.34,6.34,0,0,0,45.43,49.23Z"/><path class="cls-4" d="M33.76,45c-.13-.85-.25-1.7-.38-2.55-.23-1.58-.47-3.15-.7-4.73A23.64,23.64,0,0,1,35.57,37l.72-.1c.44,2.07.9,4.13,1.4,6.19.7,2.91,1.47,5.81,2.14,8.74a26.87,26.87,0,0,1,.59,3.2,19.24,19.24,0,0,1-5.12,1.09Q34.71,51.5,34,46.86C34,46.23,33.85,45.59,33.76,45Z"/><path class="cls-4" d="M18.08,43a5.43,5.43,0,0,0,.57,0c-.86,1.08-1.78,2.13-2.75,3.13l-.29-.33C16.47,44.92,17.3,44,18.08,43Z"/><path class="cls-4" d="M23.13,47.59l.06-1.69c.06-1.51.11-3,.31-4.57l.95-.41a44.27,44.27,0,0,0-.38,5L24,47.63a28.28,28.28,0,0,1-.64,5l-.79-.53A27,27,0,0,0,23.13,47.59Z"/><path class="cls-5" d="M23.14,58.84a2.43,2.43,0,0,1,2.28-.3,6.4,6.4,0,0,1,2,1.29L26,58.56c-.38-.33-1-1.18-.82-1.71s1-.56,1.51-.39c1.7.5,2.8,2.13,3.62,3.7a16.24,16.24,0,0,1,1.2,3.73,2.61,2.61,0,0,0-1.53-1.57,9.77,9.77,0,0,0-2.2-.51A21.25,21.25,0,0,1,24,60.9c-.58-.2-1.24-.55-1.27-1.16A1.13,1.13,0,0,1,23.14,58.84Z"/><path class="cls-4" d="M60.4,36.11h1.13l-.9-.69a.19.19,0,0,1,.23-.3l1,.74a2.94,2.94,0,0,1,.1-1.23,2,2,0,0,1,3-1.19,3.69,3.69,0,0,1,1.33,1.38.19.19,0,0,1-.07.26A.2.2,0,0,1,66,35a3.18,3.18,0,0,0-1.18-1.25,1.83,1.83,0,0,0-1.6-.13,1.77,1.77,0,0,0-.91,1.11,3.37,3.37,0,0,0,0,1.52c.07.31-.24.23-.24.23H60.4a.19.19,0,0,1,0-.38Z"/><path class="cls-2" d="M62.74,13.42c-1.27-1.59-6.22-7.73-16.86-3.35s-5.42,19.29-5.42,19.29,8.44-3.09,12.68-2.73,12.71-5.74,12.71-5.74S64,15,62.74,13.42Z"/><path class="cls-5" d="M61.77,14.32c-.5-.47-.9.15-.78.65s.55,1.23,1,1.29a.31.31,0,0,0,.3-.12.39.39,0,0,0,.06-.19A2.06,2.06,0,0,0,61.77,14.32Z"/><path class="cls-5" d="M58.88,12c-.44.13-.17.33.06.47a6.72,6.72,0,0,1,.69.5.84.84,0,0,0,.64.22.25.25,0,0,0,.09,0,.17.17,0,0,0,0-.14,1.18,1.18,0,0,0-.51-.85A1.2,1.2,0,0,0,58.88,12Z"/><path class="cls-5" d="M57.44,11.58c.34-.39-.32-.92-.65-1s-1.24-.06-1.33.34.48.43.7.51S57.17,11.88,57.44,11.58Z"/><path class="cls-5" d="M53.57,10.77a.38.38,0,0,0,.25-.23.41.41,0,0,0-.26-.42A1.29,1.29,0,0,0,53,10a2.52,2.52,0,0,0-1.43.35.15.15,0,0,0,0,.22.47.47,0,0,0,.26.05l1.3.13A1,1,0,0,0,53.57,10.77Z"/><path class="cls-5" d="M54.75,11.3a1.18,1.18,0,0,0-.67-.21.49.49,0,0,0-.46.45.24.24,0,0,0,.05.14.32.32,0,0,0,.2.1c.17.05.53.15.74.23s.57.14.66,0S55,11.47,54.75,11.3Z"/><path class="cls-5" d="M57.27,12.37c-.29-.12-.67,0-.66.36s.21.3.43.39.63.39.84.3-.06-.6-.22-.76A1.2,1.2,0,0,0,57.27,12.37Z"/><path class="cls-5" d="M59.27,13.87a.35.35,0,0,0-.31.63c.14.11.3.14.44.27s.31.43.61.37c.08,0,.12-.11.12-.14a1.24,1.24,0,0,0-.51-.93A.82.82,0,0,0,59.27,13.87Z"/><path class="cls-3" d="M43.09,9c-.38-.52-1-.86-1.33-1.4a2.82,2.82,0,0,1,.1-2.78,14.61,14.61,0,0,1,1.82-2.27A3.9,3.9,0,0,1,45,1.36c.54-.21,1.19-.15,1.65-.51.3-.24.47-.63.82-.78a1.31,1.31,0,0,1,.71,0,7.11,7.11,0,0,1,5.87,5.06,4.06,4.06,0,0,1,.09,1.1c0,1.24-1.35,5.4-4.23,5.75-.84.11-1.6.69-2.41.44-.38-.11-.74-.32-1.12-.43s-.66-.12-1-.18c-.5-.09-2-.45-2.2-1-.06-.24.18-.45.21-.67A1.47,1.47,0,0,0,43.09,9Z"/><path class="cls-4" d="M42.87,6.94c.09,0,.16.06.21.12a1.08,1.08,0,0,1,.12.24,1.13,1.13,0,0,1,.08.24.84.84,0,0,1,0,.29.41.41,0,0,1-.07.27c-.14.17-.32.06-.41-.1a2.05,2.05,0,0,1-.11-.59.82.82,0,0,1,0-.32C42.78,7,42.81,7,42.87,6.94Z"/><path class="cls-4" d="M43.14,5.19c0,.14,0,.28,0,.42a.79.79,0,0,1,0,.3.2.2,0,0,1-.24.14c-.16,0-.19-.16-.18-.31a1.37,1.37,0,0,1,0-.28l0-.14,0-.14A.26.26,0,0,1,42.9,5,.14.14,0,0,1,43,5C43.06,5,43.12,5.05,43.14,5.19Z"/><path class="cls-4" d="M43.77,3.09a.18.18,0,0,1,.06.18,1.38,1.38,0,0,1-.1.4.87.87,0,0,1-.1.19.31.31,0,0,1-.18.14c-.16,0-.22-.1-.2-.25a1.46,1.46,0,0,1,.21-.42C43.57,3.17,43.69,3.05,43.77,3.09Z"/><path class="cls-4" d="M45.15,5.6c.07,0,.11.08.13.15a1.46,1.46,0,0,1,0,.42,1,1,0,0,1-.06.23.29.29,0,0,1-.14.18c-.15.07-.24-.06-.25-.21a2.47,2.47,0,0,1,.09-.45C45,5.74,45.07,5.59,45.15,5.6Z"/><path class="cls-4" d="M44.66,4.11c.09,0,.12.13.13.23a1.58,1.58,0,0,1,0,.57c-.05.17-.15.45-.34.52s-.33-.13-.32-.33S44.42,4,44.66,4.11Z"/><path class="cls-4" d="M44,6.13c.06,0,.11.06.14.12a1.19,1.19,0,0,1,.11.41.57.57,0,0,1-.1.44c-.13.1-.25,0-.29-.15S43.83,6.14,44,6.13Z"/><path class="cls-6" d="M40.39,24.92c4.69-2.52,8.64-5.06,14-6.19,5-1.07,8.5-.67,10.54.67.89.59,3.35.82,4.12,3.11.68,2-.27,4.48-1.24,5-2.12,1.19-5.67-1.43-13.4.45C46,30,45.86,31,43,32.66c-2.65,1.57-4.75.22-5.19-1.51A5.68,5.68,0,0,1,40.39,24.92Z"/><path class="cls-3" d="M40.22,24.25C45,21.63,49,19,54.39,17.83c5.12-1.11,8.65-.7,10.72.7.91.62,3.41.87,4.2,3.24C70,23.89,69,26.44,68.06,27c-2.16,1.23-5.55-1.24-13.64.45C46.1,29.19,45.9,30.25,43,32c-2.69,1.63-4.85.3-5.29-1.51A5.54,5.54,0,0,1,40.22,24.25Z"/><path class="cls-4" d="M60.53,18.82a14.28,14.28,0,0,1,3,.36,8.42,8.42,0,0,1,3,1.09,1.65,1.65,0,0,1,.78,1,.36.36,0,0,1,0,.25.47.47,0,0,1-.44.2,6,6,0,0,1-2.65-1,9.11,9.11,0,0,0-4.87-.89c-.3,0-2.32.29-1.5-.41A4.41,4.41,0,0,1,60.53,18.82Z"/><path class="cls-4" d="M41.67,31.69a3.12,3.12,0,0,0,.9-.48c.15-.1.31-.28.23-.44s-.3-.14-.46-.1a6.68,6.68,0,0,0-1.57.56.41.41,0,0,0-.23.2C40.42,31.8,41.5,31.73,41.67,31.69Z"/><path class="cls-4" d="M43.9,30.46a.42.42,0,0,0,.34-.31.12.12,0,0,0,0-.1c0-.07-.15-.07-.23-.06s-.25.05-.3.15S43.74,30.49,43.9,30.46Z"/></g></g></svg>