<svg xmlns="http://www.w3.org/2000/svg" viewBox="0 0 139.78 80.26"><defs><style>.cls-1{fill:#f45b44;}.cls-2{fill:#c86e29;}.cls-3{fill:#fde8ca;}.cls-4{fill:#fa8573;}.cls-5{fill:#d4e9e5;}.cls-6{fill:#bad3ce;}.cls-7{fill:#f2b669;}</style></defs><g id="Layer_2" data-name="Layer 2"><g id="Image"><path class="cls-1" d="M99.08,8.88C92.27,2.3,82.56,0,73.61,0,61.23,0,51.53,5.05,44.4,16.32,36.92,28.17,37.09,29,15.14,37.75,4.42,42,3.25,51.07,3.18,56.83c-.1,7.86,1.5,9.8,9.36,10.23,5.55.31,17.29.71,35.22.61,29-.14,66.3-1.21,71.55-1.1,4,.08-.39-16-5.36-29.85C110.3,26.55,106.76,16.29,99.08,8.88Z"/><path class="cls-2" d="M40.82,51.15a14.56,14.56,0,1,0,14.6,14.52A14.55,14.55,0,0,0,40.82,51.15Zm.06,22.39a7.84,7.84,0,1,1,7.81-7.85A7.83,7.83,0,0,1,40.88,73.54Z"/><path class="cls-3" d="M40.84,57.87a7.84,7.84,0,1,0,7.85,7.82A7.84,7.84,0,0,0,40.84,57.87Z"/><path class="cls-2" d="M40.86,63.87A1.84,1.84,0,1,0,42.7,65.7,1.83,1.83,0,0,0,40.86,63.87Z"/><path class="cls-4" d="M40.8,45.44A21.2,21.2,0,0,0,19.67,66.69a5.42,5.42,0,0,0,.07,1.67c1.41,2.54,7.43,2.13,8.36.46a7,7,0,0,0,.09-2.15,12.67,12.67,0,1,1,25.34-.08A4.91,4.91,0,0,0,54,69.11c.93,1.32,6.43,2,8-.61a5.57,5.57,0,0,0,.08-1.93A21.17,21.17,0,0,0,40.8,45.44Z"/><path class="cls-2" d="M90.6,51a14.56,14.56,0,1,0,14.6,14.51A14.55,14.55,0,0,0,90.6,51Zm.06,22.39a7.84,7.84,0,1,1,7.82-7.86A7.84,7.84,0,0,1,90.66,73.4Z"/><path class="cls-3" d="M90.62,57.73a7.84,7.84,0,1,0,7.86,7.81A7.83,7.83,0,0,0,90.62,57.73Z"/><path class="cls-2" d="M90.64,63.73a1.84,1.84,0,0,0,0,3.67,1.84,1.84,0,1,0,0-3.67Z"/><path class="cls-4" d="M90.58,45.29A21.2,21.2,0,0,0,69.45,66.54a5.38,5.38,0,0,0,.07,1.67c1.41,2.55,7.43,2.13,8.36.46A7,7,0,0,0,78,66.52a12.68,12.68,0,1,1,25.35-.07,4.92,4.92,0,0,0,.43,2.52c.93,1.31,6.43,2,8-.62a5.55,5.55,0,0,0,.08-1.93A21.17,21.17,0,0,0,90.58,45.29Z"/><path class="cls-3" d="M67.09,34.82c-2,0-3.68-.8-3.67-.38S65,36,67,36s3.53-1.19,3.53-1.61S69.05,34.82,67.09,34.82Z"/><path class="cls-5" d="M55.06,9C47.48,14,44.37,29.29,44.37,29.29l28.28.32,0-15.59L58.15,7.24A23.07,23.07,0,0,0,55.06,9Z"/><polygon class="cls-5" points="76.62 29.6 104.79 29.11 76.58 15.88 76.62 29.6"/><path class="cls-6" d="M58.15,7.24,72.61,14l0-9.81A35.57,35.57,0,0,0,58.15,7.24Z"/><path class="cls-6" d="M94.09,8.85c-7.61-5-17.55-4.65-17.55-4.65l0,11.68,28.21,13.23h.11S101.7,13.87,94.09,8.85Z"/><path class="cls-2" d="M54.91,23.87l0,0a.68.68,0,0,1-.37.07l-.14,0L54.69,26l.14,0a1.62,1.62,0,0,0,1-.09l.13-.07.12-.08c-.37-.75-.79-1.58-1.05-2Z"/><path class="cls-2" d="M54.63,19.22a3.62,3.62,0,0,0-.65-.33l-.14-.05.21,3.23a.28.28,0,0,1,.13,0,.73.73,0,0,1,.41.07l.12.06c.15-.35.6-1.26.95-2l-.09-.12A5.08,5.08,0,0,0,54.63,19.22Z"/><path class="cls-2" d="M53.68,23.38l0-.06a1.1,1.1,0,0,1-.1-.58.17.17,0,0,1,0-.07c-.42-.18-1.6-.7-1.92-.8a.77.77,0,0,0,0,.15,6,6,0,0,0,.42,1.35l.15.31.06.12c.23-.05.65-.15,1.4-.36v-.06Z"/><path class="cls-2" d="M50.56,24.25l-.05-.12c-4.25,2.71-5.44,3.51-5.78,3.75l-.3,1.45h.37c.14-.14,3.76-2.54,6.24-4.18L51,25C50.83,24.78,50.69,24.52,50.56,24.25Z"/><path class="cls-2" d="M51.65,16.57c-2.07.91-2.59,4.28-1.17,7.51a8.54,8.54,0,0,0,2.9,3.63,4.17,4.17,0,0,0,2.32.79,2.7,2.7,0,0,0,1.13-.24c2.07-.91,2.6-4.28,1.17-7.51S53.73,15.65,51.65,16.57Zm4.41,9.23-.12.08-.13.07a1.62,1.62,0,0,1-1,.09l-.14,0a2.7,2.7,0,0,1-.83-.39,5.1,5.1,0,0,1-1.57-1.81l-.06-.12-.15-.31A6,6,0,0,1,51.66,22a.77.77,0,0,1,0-.15c-.22-1.39.16-2.6,1-3a1.54,1.54,0,0,1,.61-.12,2.15,2.15,0,0,1,.55.08l.14.05a3.62,3.62,0,0,1,.65.33,5.08,5.08,0,0,1,.94.87l.09.12a5.73,5.73,0,0,1,.74,1.25C57.2,23.26,57,25.12,56.06,25.8Z"/><path class="cls-2" d="M54.71,22.17l-.12-.06a.73.73,0,0,0-.41-.07.28.28,0,0,0-.13,0l-.11,0a.75.75,0,0,0-.38.56.17.17,0,0,0,0,.07,1.1,1.1,0,0,0,.1.58l0,.06h0a1.05,1.05,0,0,0,.68.57l.14,0a.68.68,0,0,0,.37-.07l0,0,.1-.07a1,1,0,0,0,.12-1.17A1.18,1.18,0,0,0,54.71,22.17Z"/><path class="cls-2" d="M121.2,54.41s-1-.55-2,1.18-2.19,2-3,2c-.49,0-2-1-2.28,4.86s4.59,5.39,6.19,4.62,2.63-1.6,2.75-7.15S121.2,54.41,121.2,54.41Z"/><path class="cls-4" d="M115.06,55.21c-1.1.17-1.79-3.81-.87-4.09S116.17,55,115.06,55.21Z"/><path class="cls-4" d="M114.59,48c-1.08.42-1.59-3.15-.83-3.53S115.67,47.53,114.59,48Z"/><path class="cls-4" d="M112.69,40.47c-.69.39-1.62-2.37-1.12-2.65S113.38,40.08,112.69,40.47Z"/><path class="cls-4" d="M109.47,35.29c-.77.34-2.07-1.31-1.52-1.93S110.24,35,109.47,35.29Z"/><path class="cls-4" d="M112.64,50.44c-.85.19-1.49-3.13-.65-3.31S113.49,50.25,112.64,50.44Z"/><path class="cls-4" d="M111.84,44.16c-.65.38-1.3-1.78-.74-2.1S112.48,43.78,111.84,44.16Z"/><path class="cls-4" d="M109.57,39.67c-.78.43-1.52-1.58-.95-1.93S110.36,39.24,109.57,39.67Z"/><path class="cls-4" d="M111.52,35.52c-.61.2-.85-.65-.26-.75S112.13,35.32,111.52,35.52Z"/><path class="cls-4" d="M109.52,46.16c-.49-.83.11-1.43.51-.6S110,47,109.52,46.16Z"/><path class="cls-4" d="M109.1,42.23c-.49-.83.11-1.43.51-.6S109.59,43.06,109.1,42.23Z"/><path class="cls-4" d="M115.5,50.56c-.49-.83.11-1.42.51-.6S116,51.4,115.5,50.56Z"/><path class="cls-4" d="M112.84,55.64c-.37-.89.31-1.4.59-.53S113.21,56.53,112.84,55.64Z"/><path class="cls-4" d="M32.43,33.13c.42,1-3.32,2.57-3.79,1.73S32,32.09,32.43,33.13Z"/><path class="cls-4" d="M25.45,35.16c.64,1-2.73,2.24-3.26,1.58S24.81,34.2,25.45,35.16Z"/><path class="cls-4" d="M18.56,38.65c.53.58-2,2.09-2.34,1.66S18,38.06,18.56,38.65Z"/><path class="cls-4" d="M14.21,42.91c.5.68-.83,2.31-1.56,1.9S13.7,42.24,14.21,42.91Z"/><path class="cls-4" d="M28.31,36.53c.37.79-2.74,2.13-3.09,1.35S27.94,35.73,28.31,36.53Z"/><path class="cls-4" d="M22.35,38.67c.52.55-1.46,1.66-1.89,1.18S21.84,38.12,22.35,38.67Z"/><path class="cls-4" d="M18.46,41.86c.59.67-1.21,1.83-1.67,1.35S17.87,41.18,18.46,41.86Z"/><path class="cls-4" d="M14,40.86c.33.55-.44,1-.67.42S13.66,40.31,14,40.86Z"/><path class="cls-4" d="M24.81,40.5c-.71.66-1.42.2-.7-.36S25.51,39.84,24.81,40.5Z"/><path class="cls-4" d="M21.06,41.77c-.71.66-1.42.2-.7-.37S21.77,41.11,21.06,41.77Z"/><path class="cls-4" d="M27.81,33.71c-.71.66-1.42.2-.7-.37S28.51,33.05,27.81,33.71Z"/><path class="cls-4" d="M33.34,35.2c-.79.56-1.44,0-.65-.46S34.13,34.64,33.34,35.2Z"/><path class="cls-7" d="M0,54.49l0-.26c0-.26,0-.51.05-.76Z"/><path class="cls-7" d="M6.5,53.1a6.09,6.09,0,0,0-.84-2.34,2.9,2.9,0,0,0-2-1.33A3.05,3.05,0,0,0,.85,51.15a8.45,8.45,0,0,0-.8,3.08A12.8,12.8,0,0,0,.45,59c.57,1.76,1.74,3.67,3.73,3.76S7.05,56.21,6.5,53.1Z"/><path class="cls-7" d="M132.65,60.63c-3.46-.45-6.82-.7-6.82-1.13a.39.39,0,0,1,.39-.37,32.79,32.79,0,0,1,6.12.36c1.86.27,6.74,1.12,6.74,1.63S134.5,60.87,132.65,60.63Z"/><path class="cls-7" d="M131.17,67.56c-1.91-1.31-6.3-3.19-6.16-3.57s4.44,1.24,6,2.12c3.23,1.76,5.26,3.56,5.09,3.87S132.57,68.52,131.17,67.56Z"/><path class="cls-7" d="M125.27,57a.26.26,0,0,1,0-.43c1.29-1.23,8.82-3.31,14.14-3.62.23,0,.42.11.42.28s-.19.3-.4.34C134.07,54.63,125.72,57.37,125.27,57Z"/></g></g></svg>