<svg xmlns="http://www.w3.org/2000/svg" viewBox="0 0 84.28 54.49"><defs><style>.cls-1{fill:#bad3ce;}.cls-2{fill:#d4e9e5;}</style></defs><g id="Layer_2" data-name="Layer 2"><g id="Image"><path class="cls-1" d="M77.29,28.66s5.65-3.67,4-7.72-11.42-1.4-11.42-1.4S77,14.76,73.71,10s-12.36,1.34-12.36,1.34,3.36-10-3.43-11.21S45.48,8.26,45.48,8.26,46,.17,37.9,1.07s-9.15,11.51-9.15,11.51A8.68,8.68,0,0,0,16.86,9.69c-7.8,4-3.11,15.06-3.11,15.06S3.2,19,.37,29.49s11.7,10.17,11.7,10.17-1.81,7.47,3.84,9.54S28,42.76,28,42.76s-2.46,10.6,5.13,11.66,10.38-9.71,10.38-9.71c1,4,4.58,7.33,7.92,6.88C56.19,51,58,45,58,44.69s3.88,5.22,9.89,3.91,4.91-8.44,4.91-8.44,11.49,2.45,11.52-4.95C84.3,28.75,77.29,28.66,77.29,28.66Z"/><circle class="cls-2" cx="21.99" cy="29.49" r="1.48"/><path class="cls-2" d="M27.88,19.63A1.61,1.61,0,1,1,26.28,18,1.6,1.6,0,0,1,27.88,19.63Z"/><path class="cls-2" d="M42.24,13.58a2,2,0,1,1-2-2A2,2,0,0,1,42.24,13.58Z"/><path class="cls-2" d="M61.21,18.25a2,2,0,1,1-2-2A2,2,0,0,1,61.21,18.25Z"/><path class="cls-2" d="M48.81,20.76a1.14,1.14,0,1,1-1.14-1.13A1.13,1.13,0,0,1,48.81,20.76Z"/><circle class="cls-2" cx="36.63" cy="27.18" r="2.3"/><path class="cls-2" d="M69.56,29.78a2.1,2.1,0,1,1-2.1-2.1A2.1,2.1,0,0,1,69.56,29.78Z"/><path class="cls-2" d="M58.84,40.22A1.81,1.81,0,1,1,57,38.41,1.81,1.81,0,0,1,58.84,40.22Z"/><path class="cls-2" d="M56.62,29.24a2.06,2.06,0,1,1-2.06-2.06A2.05,2.05,0,0,1,56.62,29.24Z"/><path class="cls-2" d="M46.3,35.64a1.76,1.76,0,1,1-1.76-1.76A1.76,1.76,0,0,1,46.3,35.64Z"/><path class="cls-2" d="M28,37.64a1.85,1.85,0,1,1-1.84-1.85A1.84,1.84,0,0,1,28,37.64Z"/><path class="cls-2" d="M10.46,31.16A1.48,1.48,0,1,1,9,29.68,1.48,1.48,0,0,1,10.46,31.16Z"/><path class="cls-2" d="M37.19,43.34a1.56,1.56,0,1,1-1.55-1.55A1.55,1.55,0,0,1,37.19,43.34Z"/></g></g></svg>