<svg xmlns="http://www.w3.org/2000/svg" viewBox="0 0 132.57 132.75"><defs><style>.cls-1{fill:#c86e29;}.cls-2{fill:#3f5b42;}.cls-3{fill:#f2b669;}.cls-4{fill:#f45b44;}</style></defs><g id="Layer_2" data-name="Layer 2"><g id="Image"><path class="cls-1" d="M62.86,96.24c-.89,0-1.79,0-2.71-.06A31.51,31.51,0,0,1,34.27,81.31c-3.71-5.85-6.12-11.72-6.62-16.1a31.42,31.42,0,0,1,1.4-13.91c2.33-6.42,5.57-11.54,9.65-15.23a35.26,35.26,0,0,1,15.39-8.31,41,41,0,0,1,16.12-.44c3.7.58,10.48,1.95,14.38,4.6,12.44,8.44,13.94,18,15,24.92.07.46.15.92.22,1.37h0a28.41,28.41,0,0,1-3.63,19.2C88.47,90.06,77.54,96.24,62.86,96.24ZM63,31.29a30.36,30.36,0,0,0-21.19,8.16c-3.52,3.18-6.35,7.69-8.42,13.4a26.61,26.61,0,0,0-1.16,11.84c.41,3.67,2.64,9,5.94,14.18C41.6,84.36,48.29,91,60.38,91.63,74.81,92.34,85,87.06,92.33,75a24.14,24.14,0,0,0,3-16.07h0c-.08-.46-.15-.94-.23-1.41C94.06,50.74,92.84,43,82,35.69c-2.28-1.55-7-3-12.52-3.87A43.12,43.12,0,0,0,63,31.29Z"/><path class="cls-2" d="M62.56,118.18c-1,0-2,0-3-.06a66.35,66.35,0,0,1-22.58-5,29.25,29.25,0,0,1-9.64-5.91c-.28-.28-.74-.69-1.32-1.22-4.2-3.82-14-12.77-17-22.16-5-16.06-3-35.49.5-48.32,1.7-6.21,6-12.6,12.91-19a79.08,79.08,0,0,1,13.1-9.89A45.22,45.22,0,0,1,47.39,2.33C58.1-.26,74-2,89.1,4.46a61,61,0,0,1,22,15.81,46.59,46.59,0,0,1,8.67,13.53h0a85.43,85.43,0,0,1,4.72,17.88,67.77,67.77,0,0,1,.25,18.46,41.63,41.63,0,0,1-2.18,9.25,43.09,43.09,0,0,1-4,7.87,66.08,66.08,0,0,1-56,30.92ZM66.14,2.08A78.15,78.15,0,0,0,47.88,4.36,43.42,43.42,0,0,0,36.65,8.47c-5.76,3.29-21.49,14.69-25,27.63-3.43,12.55-5.38,31.52-.52,47.15,2.76,8.85,12.3,17.53,16.38,21.24.6.54,1.07,1,1.38,1.27a27.36,27.36,0,0,0,9,5.47,65.26,65.26,0,0,0,44.07,1.9,65.16,65.16,0,0,0,34.9-27,40.35,40.35,0,0,0,3.83-7.49,39.88,39.88,0,0,0,2.06-8.79c1.43-11-.25-23.2-4.85-35.33h0a46,46,0,0,0-8.28-12.9A59.14,59.14,0,0,0,88.28,6.37,56,56,0,0,0,66.14,2.08Z"/><polygon class="cls-2" points="63.77 59.22 44.94 4.08 45.92 3.74 63.82 56.13 83.73 3.13 84.71 3.5 63.77 59.22"/><path class="cls-2" d="M63,58.25l.28-.76c.08-.21.12-.32,7.69-6,4-3,9.47-7.06,16.36-12.18C99.1,30.62,111,21.87,111.09,21.78l.62.84c-11.6,8.56-40.08,29.61-46.32,34.43l58.3-3.93.07,1Z"/><path class="cls-2" d="M65.67,58.55,8.09,48.08l.19-1,53.65,9.75C46.72,44.25,20.15,22.36,19.09,21.71a.51.51,0,0,0,.62-.1l-.77-.71a.59.59,0,0,1,.83,0l.4.3c.33.25.81.64,1.44,1.14,1.17.93,2.87,2.31,5.07,4.1,3.69,3,8.83,7.23,15.28,12.53,11,9,22.06,18.19,22.17,18.28Z"/><path class="cls-2" d="M24.28,102.94l-.78-.7L62,59C45.73,65.39,9.72,79.72,8.49,80.48l.08-.06-.76-.72c.16-.17.43-.45,28.2-11.54,13.67-5.46,27.46-10.91,27.6-11l2-.8Z"/><polygon class="cls-2" points="58.66 117.05 57.62 116.95 63.41 56.93 98.37 105.43 97.52 106.04 64.18 59.78 58.66 117.05"/><rect class="cls-2" x="91.07" y="40.29" width="1.04" height="61.82" transform="translate(-12.49 122.42) rotate(-64.06)"/><path class="cls-3" d="M90.5,127.9c-.76-3.39-1.81-6.9-2.85-10.37-5-16.71-10.11-33.72-16.61-49.65a57.84,57.84,0,0,0-4.6-9.45C65.5,57,64.48,56,63.8,56s-1.71,1-2.65,2.41a57.85,57.85,0,0,0-4.59,9.45c-6.51,15.93-11.62,32.94-16.62,49.65-1,3.47-2.09,7-2.85,10.37-.34,1.53-.6,3.25-.19,3.62.22.2.57,0,.93-.36,2.41-2.2,4.9-8.09,7-13.39,5.53-14,16.88-43.47,18.88-54.3l.09-.5.09.5c2,10.83,13.34,40.28,18.88,54.3,2.09,5.3,4.59,11.19,7,13.39.35.33.71.56.92.36C91.11,131.15,90.84,129.43,90.5,127.9Z"/><path class="cls-4" d="M53.23,8c0,2-3.29,2.09-7.14,2.09S39,10.07,39,8s4.59-4.72,7.13-4.72S53.23,6,53.23,8Z"/><path class="cls-4" d="M41.57,9.86a4.69,4.69,0,0,0-.44-1.23c-.15-.24-.36-.41-.5-.29s-.17.53-.19.89a37.75,37.75,0,0,0,1.15,7A3.74,3.74,0,0,0,42.31,18s.1.08.15.06.12-.26.12-.46a9.84,9.84,0,0,0-.08-1.32A42.28,42.28,0,0,0,41.57,9.86Z"/><path class="cls-4" d="M50.62,9.86a4.69,4.69,0,0,1,.44-1.23c.15-.24.35-.41.5-.29s.17.53.19.89a37.75,37.75,0,0,1-1.15,7A3.74,3.74,0,0,1,49.88,18c-.05,0-.11.08-.15.06s-.12-.26-.12-.46a9.84,9.84,0,0,1,.08-1.32A42.28,42.28,0,0,1,50.62,9.86Z"/><path class="cls-4" d="M51.62,16.63c0,2.2-1.5,4-5.52,4-4.52,0-5.39-1.8-5.52-4-.18-3,2.67-2.26,5.51-2.28S51.62,13.48,51.62,16.63Z"/><path class="cls-4" d="M27.51,26.92c0,2-3.29,2.09-7.13,2.09s-7.14-.06-7.14-2.09,4.59-4.72,7.14-4.72S27.51,24.9,27.51,26.92Z"/><path class="cls-4" d="M15.85,28.75a4.76,4.76,0,0,0-.44-1.24c-.15-.24-.35-.41-.5-.29s-.16.54-.19.89a37.75,37.75,0,0,0,1.15,7,3.74,3.74,0,0,0,.72,1.75c.05,0,.11.08.16.06s.11-.26.12-.46c0-.43,0-.88-.08-1.32A43.27,43.27,0,0,0,15.85,28.75Z"/><path class="cls-4" d="M24.9,28.75a4.76,4.76,0,0,1,.45-1.24c.14-.24.35-.41.49-.29s.17.54.19.89a37.75,37.75,0,0,1-1.15,7,3.64,3.64,0,0,1-.72,1.75c-.05,0-.1.08-.15.06s-.12-.26-.12-.46A11.83,11.83,0,0,1,24,35.12,43.26,43.26,0,0,1,24.9,28.75Z"/><path class="cls-4" d="M25.91,35.51c0,2.2-1.5,4-5.53,4-4.51,0-5.39-1.79-5.52-4-.18-3,2.67-2.26,5.52-2.28S25.91,32.36,25.91,35.51Z"/><path class="cls-4" d="M90.39,7.61c0,2-3.29,2.08-7.14,2.08s-7.13-.06-7.13-2.08,4.58-4.73,7.13-4.73S90.39,5.58,90.39,7.61Z"/><path class="cls-4" d="M78.73,9.43a4.56,4.56,0,0,0-.45-1.23c-.14-.25-.35-.42-.49-.3s-.17.54-.19.89a37.75,37.75,0,0,0,1.15,7,3.6,3.6,0,0,0,.72,1.75c0,.05.1.08.15.06s.12-.26.12-.46a11.83,11.83,0,0,0-.08-1.32A43.46,43.46,0,0,0,78.73,9.43Z"/><path class="cls-4" d="M87.78,9.43a4.56,4.56,0,0,1,.44-1.23c.15-.25.35-.42.5-.3s.16.54.19.89a37.75,37.75,0,0,1-1.15,7A3.7,3.7,0,0,1,87,17.52a.16.16,0,0,1-.16.06c-.09,0-.11-.26-.12-.46,0-.43,0-.88.08-1.32A43.47,43.47,0,0,1,87.78,9.43Z"/><path class="cls-4" d="M88.78,16.19c0,2.2-1.5,4-5.52,4-4.52,0-5.39-1.79-5.53-4-.18-3,2.68-2.26,5.52-2.28S88.78,13,88.78,16.19Z"/><path class="cls-4" d="M118.9,26c0,2-3.29,2.09-7.14,2.09S104.62,28,104.62,26s4.59-4.73,7.14-4.73S118.9,24,118.9,26Z"/><path class="cls-4" d="M107.24,27.8a5.08,5.08,0,0,0-.45-1.23c-.15-.25-.35-.41-.5-.29s-.16.53-.19.89a38.69,38.69,0,0,0,1.16,7A3.69,3.69,0,0,0,108,35.9c.06,0,.11.08.16.05s.12-.25.12-.45a11.83,11.83,0,0,0-.08-1.32A45,45,0,0,0,107.24,27.8Z"/><path class="cls-4" d="M116.29,27.8a4.69,4.69,0,0,1,.44-1.23c.15-.25.35-.41.5-.29s.16.53.19.89a37.75,37.75,0,0,1-1.15,7,3.79,3.79,0,0,1-.72,1.75s-.11.08-.16.05-.11-.25-.12-.45c0-.43,0-.88.08-1.32A43.6,43.6,0,0,1,116.29,27.8Z"/><path class="cls-4" d="M117.29,34.56c0,2.21-1.5,4-5.52,4-4.52,0-5.4-1.8-5.53-4-.18-3,2.67-2.25,5.52-2.28S117.29,31.42,117.29,34.56Z"/><path class="cls-4" d="M132.57,57.42c0,2-3.29,2.08-7.14,2.08s-7.14-.06-7.14-2.08,4.59-4.73,7.14-4.73S132.57,55.4,132.57,57.42Z"/><path class="cls-4" d="M120.9,59.24a4.56,4.56,0,0,0-.44-1.23c-.15-.25-.35-.42-.5-.29s-.16.53-.19.88c-.1,1.37.74,5.17,1.15,7a3.79,3.79,0,0,0,.72,1.76.17.17,0,0,0,.16,0c.09,0,.12-.26.12-.45,0-.43,0-.88-.08-1.33A43.67,43.67,0,0,0,120.9,59.24Z"/><path class="cls-4" d="M130,59.24A4.92,4.92,0,0,1,130.4,58c.15-.25.35-.42.5-.29s.16.53.19.88a38.69,38.69,0,0,1-1.16,7,3.68,3.68,0,0,1-.71,1.76.17.17,0,0,1-.16,0c-.09,0-.12-.26-.12-.45a12.16,12.16,0,0,1,.08-1.33A45.06,45.06,0,0,1,130,59.24Z"/><path class="cls-4" d="M131,66c0,2.21-1.5,4-5.53,4-4.51,0-5.39-1.8-5.52-4-.18-3,2.67-2.25,5.52-2.28S131,62.86,131,66Z"/><path class="cls-4" d="M126.52,89.44c0,2-3.29,2.09-7.13,2.09s-7.14-.07-7.14-2.09,4.59-4.73,7.14-4.73S126.52,87.42,126.52,89.44Z"/><path class="cls-4" d="M114.86,91.26a4.69,4.69,0,0,0-.44-1.23c-.15-.24-.35-.41-.5-.29s-.17.53-.19.89a37.75,37.75,0,0,0,1.15,7,3.79,3.79,0,0,0,.72,1.75c.05,0,.11.08.15,0s.12-.25.13-.45c0-.43,0-.88-.08-1.32A43.6,43.6,0,0,0,114.86,91.26Z"/><path class="cls-4" d="M123.91,91.26a5.07,5.07,0,0,1,.44-1.23c.15-.24.36-.41.5-.29s.17.53.19.89a37.75,37.75,0,0,1-1.15,7,3.79,3.79,0,0,1-.72,1.75s-.1.08-.15,0-.12-.25-.12-.45a9.84,9.84,0,0,1,.08-1.32A42.28,42.28,0,0,1,123.91,91.26Z"/><path class="cls-4" d="M124.91,98c0,2.21-1.49,4-5.52,4-4.52,0-5.39-1.8-5.52-4-.18-3,2.67-2.25,5.52-2.27S124.91,94.88,124.91,98Z"/><path class="cls-4" d="M107.09,109.32c0,2-3.29,2.08-7.14,2.08s-7.13-.06-7.13-2.08,4.59-4.73,7.13-4.73S107.09,107.29,107.09,109.32Z"/><path class="cls-4" d="M95.43,111.14a4.92,4.92,0,0,0-.44-1.23c-.15-.25-.36-.42-.5-.3s-.17.54-.19.89a37.75,37.75,0,0,0,1.15,7,3.74,3.74,0,0,0,.72,1.75s.1.08.15.06.12-.26.12-.46a9.84,9.84,0,0,0-.08-1.32A42.15,42.15,0,0,0,95.43,111.14Z"/><path class="cls-4" d="M104.48,111.14a4.56,4.56,0,0,1,.44-1.23c.15-.25.35-.42.5-.3s.17.54.19.89a37.75,37.75,0,0,1-1.15,7,3.74,3.74,0,0,1-.72,1.75s-.11.08-.15.06-.12-.26-.12-.46a11.8,11.8,0,0,1,.07-1.32A43.47,43.47,0,0,1,104.48,111.14Z"/><path class="cls-4" d="M105.48,117.9c0,2.2-1.5,4-5.52,4-4.52,0-5.39-1.79-5.53-4-.17-3,2.68-2.26,5.52-2.28S105.48,114.75,105.48,117.9Z"/><path class="cls-4" d="M31.14,107.06c0,2-3.29,2.08-7.14,2.08s-7.13-.06-7.13-2.08,4.58-4.73,7.13-4.73S31.14,105,31.14,107.06Z"/><path class="cls-4" d="M19.48,108.88a4.92,4.92,0,0,0-.44-1.23c-.15-.25-.36-.42-.5-.29s-.17.53-.19.88a37.75,37.75,0,0,0,1.15,7,3.7,3.7,0,0,0,.72,1.75c.05,0,.1.08.15.06s.12-.26.12-.45a10.09,10.09,0,0,0-.08-1.33A42.15,42.15,0,0,0,19.48,108.88Z"/><path class="cls-4" d="M28.53,108.88a4.56,4.56,0,0,1,.44-1.23c.15-.25.35-.42.5-.29s.17.53.19.88a37.75,37.75,0,0,1-1.15,7,3.7,3.7,0,0,1-.72,1.75c-.05,0-.11.08-.15.06s-.12-.26-.13-.45c0-.43,0-.88.08-1.33A43.47,43.47,0,0,1,28.53,108.88Z"/><path class="cls-4" d="M29.53,115.64c0,2.21-1.5,4-5.52,4-4.52,0-5.39-1.8-5.53-4-.17-3,2.68-2.25,5.52-2.28S29.53,112.5,29.53,115.64Z"/><path class="cls-4" d="M65.28,120.17c0,2-3.29,2.08-7.14,2.08S51,122.19,51,120.17s4.59-4.73,7.14-4.73S65.28,118.14,65.28,120.17Z"/><path class="cls-4" d="M53.62,122a4.92,4.92,0,0,0-.45-1.23c-.14-.25-.35-.42-.5-.29s-.16.53-.19.88a38.69,38.69,0,0,0,1.16,7,3.7,3.7,0,0,0,.71,1.75c.06,0,.11.08.16.06s.12-.26.12-.45a12.16,12.16,0,0,0-.08-1.33A43.46,43.46,0,0,0,53.62,122Z"/><path class="cls-4" d="M62.67,122a4.56,4.56,0,0,1,.44-1.23c.15-.25.35-.42.5-.29s.16.53.19.88a37.75,37.75,0,0,1-1.15,7,3.7,3.7,0,0,1-.72,1.75.16.16,0,0,1-.16.06c-.09,0-.11-.26-.12-.45,0-.43,0-.88.08-1.33A43.47,43.47,0,0,1,62.67,122Z"/><path class="cls-4" d="M63.67,128.75c0,2.21-1.5,4-5.52,4-4.52,0-5.4-1.8-5.53-4-.18-3,2.67-2.25,5.52-2.28S63.67,125.61,63.67,128.75Z"/><path class="cls-4" d="M14.27,52.17c0,2-3.29,2.09-7.13,2.09S0,54.19,0,52.17s4.59-4.73,7.14-4.73S14.27,50.15,14.27,52.17Z"/><path class="cls-4" d="M2.61,54a4.69,4.69,0,0,0-.44-1.23c-.15-.25-.35-.41-.5-.29s-.17.53-.19.89a37.75,37.75,0,0,0,1.15,7,3.79,3.79,0,0,0,.72,1.75s.11.08.15,0,.12-.25.13-.45c0-.43,0-.88-.08-1.32A43.6,43.6,0,0,0,2.61,54Z"/><path class="cls-4" d="M11.66,54a5.07,5.07,0,0,1,.44-1.23c.15-.25.36-.41.5-.29s.17.53.19.89a37.75,37.75,0,0,1-1.15,7,3.79,3.79,0,0,1-.72,1.75c-.05,0-.1.08-.15,0s-.12-.25-.12-.45a9.84,9.84,0,0,1,.08-1.32A42.28,42.28,0,0,1,11.66,54Z"/><path class="cls-4" d="M12.66,60.75c0,2.21-1.49,4-5.52,4-4.52,0-5.39-1.8-5.52-4-.18-3,2.67-2.25,5.52-2.28S12.66,57.61,12.66,60.75Z"/><path class="cls-4" d="M15.88,84.2c0,2-3.29,2.08-7.13,2.08s-7.14-.06-7.14-2.08,4.59-4.73,7.14-4.73S15.88,82.17,15.88,84.2Z"/><path class="cls-4" d="M4.22,86a4.56,4.56,0,0,0-.44-1.23c-.15-.25-.35-.42-.5-.3s-.17.54-.19.89a37.75,37.75,0,0,0,1.15,7A3.7,3.7,0,0,0,5,94.11s.11.08.15.06.12-.26.12-.45a12,12,0,0,0-.07-1.33A43.47,43.47,0,0,0,4.22,86Z"/><path class="cls-4" d="M13.27,86a4.92,4.92,0,0,1,.44-1.23c.15-.25.36-.42.5-.3s.17.54.19.89a37.75,37.75,0,0,1-1.15,7,3.7,3.7,0,0,1-.72,1.75s-.1.08-.15.06-.12-.26-.12-.45a10,10,0,0,1,.08-1.33A42.15,42.15,0,0,1,13.27,86Z"/><path class="cls-4" d="M14.27,92.78c0,2.2-1.49,4-5.52,4-4.52,0-5.39-1.79-5.52-4-.18-3,2.67-2.26,5.52-2.28S14.27,89.63,14.27,92.78Z"/></g></g></svg>