<svg xmlns="http://www.w3.org/2000/svg" xmlns:xlink="http://www.w3.org/1999/xlink" viewBox="0 0 70.42 41.11"><defs><style>.cls-1{fill:none;}.cls-2{fill:#f2b669;}.cls-3{clip-path:url(#clip-path);}.cls-4{clip-path:url(#clip-path-2);}.cls-5{fill:#fbf2d6;}.cls-6{clip-path:url(#clip-path-4);}.cls-7{clip-path:url(#clip-path-6);}.cls-8{clip-path:url(#clip-path-8);}.cls-9{fill:#4c6b51;}.cls-10{fill:#f45b44;}</style><clipPath id="clip-path" transform="translate(7.93 2.65)"><path class="cls-1" d="M38,.06C36.81-.41.91,1.94.18,2.79s1,27,2,27.69S39.26,28.68,40,27.75,39.19.54,38,.06Z"/></clipPath><clipPath id="clip-path-2" transform="translate(7.93 2.65)"><rect class="cls-1" x="27.02" y="-13.32" width="32.95" height="32.95"/></clipPath><clipPath id="clip-path-4" transform="translate(7.93 2.65)"><rect class="cls-1" x="27.02" y="19.63" width="32.95" height="32.95"/></clipPath><clipPath id="clip-path-6" transform="translate(7.93 2.65)"><rect class="cls-1" x="-5.93" y="-13.32" width="32.95" height="32.95"/></clipPath><clipPath id="clip-path-8" transform="translate(7.93 2.65)"><rect class="cls-1" x="-5.93" y="19.63" width="32.95" height="32.95"/></clipPath></defs><g id="Layer_2" data-name="Layer 2"><g id="Image"><path class="cls-2" d="M38,.1C36.81-.38.91,2,.18,2.82s1,27,2,27.69S39.26,28.72,40,27.79,39.19.58,38,.1Z" transform="translate(7.93 2.65)"/><g class="cls-3"><g class="cls-4"><g class="cls-4"><path class="cls-5" d="M28.24,1.23c.27,0,.6-.11.68-.38s-.24-.57-.54-.69C27.77-.06,26-.41,25.83.52,25.6,1.68,27.64,1.31,28.24,1.23Z" transform="translate(7.93 2.65)"/><path class="cls-5" d="M34.56,2.08a.49.49,0,0,0-.22.43c0,.56,1.19.56,1.65.37.27-.11.74-.22.61-.6S35.51,1.85,35,1.93A1,1,0,0,0,34.56,2.08Z" transform="translate(7.93 2.65)"/><path class="cls-5" d="M40.6,6.31a.48.48,0,0,0,.31-.26c.09-.26-.17-.54-.41-.65s-.26-.12-.81-.09a1.32,1.32,0,0,0-1,.54.44.44,0,0,0,.15.41.88.88,0,0,0,.4.17A2.61,2.61,0,0,0,40.6,6.31Z" transform="translate(7.93 2.65)"/><path class="cls-5" d="M35.52-2.22a2.39,2.39,0,0,0-1.74-.42c-1.73.14-.44,1.55,1.26,1.08C35.41-1.66,35.73-1.89,35.52-2.22Z" transform="translate(7.93 2.65)"/><path class="cls-5" d="M49.21,19.33a2.39,2.39,0,0,0-1.74-.42c-1.73.14-.44,1.55,1.26,1.08C49.1,19.89,49.42,19.66,49.21,19.33Z" transform="translate(7.93 2.65)"/><path class="cls-5" d="M28.4,6.79c0-1.09,2.33-1.08,2.5-.23C31.14,7.83,28.41,7.58,28.4,6.79Z" transform="translate(7.93 2.65)"/><path class="cls-5" d="M33.24,9.6c.21-.43.94-.49,1.45-.39,1.53.31.62,2-.93,1.25C33.43,10.31,33.11,10,33.24,9.6Z" transform="translate(7.93 2.65)"/><path class="cls-5" d="M43.69.24c0-.71-2.7-1.4-2.76-.22S43.7,1,43.69.24Z" transform="translate(7.93 2.65)"/><path class="cls-5" d="M61.19,1.23c.27,0,.6-.11.68-.38s-.24-.57-.54-.69C60.72-.06,59-.41,58.78.52,58.55,1.68,60.59,1.31,61.19,1.23Z" transform="translate(7.93 2.65)"/><path class="cls-5" d="M58.67,5c0-.19-.3-.49-.66-.54s-1.85-.08-1.92.59c0,.37.69.53,1.33.51C57.84,5.5,58.64,5.45,58.67,5Z" transform="translate(7.93 2.65)"/><path class="cls-5" d="M54-.37c-.19-.64-1.22-.7-1.94-.68-1.07,0-1.62.3-1.56.74s.79.83,2.38.68C53.39.33,54.09.19,54-.37Z" transform="translate(7.93 2.65)"/><path class="cls-5" d="M50.74,3.68a.76.76,0,0,0-.54-.44,8.9,8.9,0,0,0-2.87.11c-.18.07-.39.17-.38.39s.28.4.51.46a6.55,6.55,0,0,0,2.64.1,1.05,1.05,0,0,0,.46-.16A.45.45,0,0,0,50.74,3.68Z" transform="translate(7.93 2.65)"/><path class="cls-5" d="M52.11,8.66c-.11.84,3.61,1.27,3.46.13S52.23,7.82,52.11,8.66Z" transform="translate(7.93 2.65)"/><path class="cls-5" d="M43.58,8.21c-.46-.88,2.26-1.18,2.8-.52C47.19,8.69,43.92,8.85,43.58,8.21Z" transform="translate(7.93 2.65)"/><path class="cls-5" d="M40.25,13.5a.72.72,0,0,1-.53.44,8.62,8.62,0,0,1-2.87-.1c-.18-.06-.39-.16-.39-.38s.28-.4.51-.46a6.38,6.38,0,0,1,2.64-.12.93.93,0,0,1,.46.15A.44.44,0,0,1,40.25,13.5Z" transform="translate(7.93 2.65)"/><path class="cls-5" d="M28.57,14.73a1.27,1.27,0,0,1,.9-.43c.34,0,1.66.18,1.33.84-.18.35-.92.4-1.46.3C29,15.36,28.3,15.21,28.57,14.73Z" transform="translate(7.93 2.65)"/><path class="cls-5" d="M36,19.06c0-.72-2.67-1.45-2.76-.28S36,19.78,36,19.06Z" transform="translate(7.93 2.65)"/><path class="cls-5" d="M43.64,16.16a.8.8,0,0,1,.46.62c.11.87-1.7,1.19-2.48,1-.44-.1-1.2-.14-1.11-.77s1.59-1,2.38-1A1.76,1.76,0,0,1,43.64,16.16Z" transform="translate(7.93 2.65)"/><path class="cls-5" d="M59,12.28c0,.25-.26.41-.5.49A5.38,5.38,0,0,1,57,12.9a3.13,3.13,0,0,1-.75-.08.74.74,0,0,1-.5-.26.5.5,0,0,1,.17-.62,1.4,1.4,0,0,1,.67-.18,8.16,8.16,0,0,1,1.78.06C58.68,11.86,59,12,59,12.28Z" transform="translate(7.93 2.65)"/><path class="cls-5" d="M52.39,15.11c.23,0,.52.08.57.34s-.23.58-.5.71c-.54.25-2.1.67-2.21-.25C50.11,14.77,51.87,15.05,52.39,15.11Z" transform="translate(7.93 2.65)"/><path class="cls-5" d="M54.17,18.59a1,1,0,0,1,.91-.87c1.43-.11,1.66.57,1.63.75a.72.72,0,0,1-.6.49C54.43,19.28,54.15,18.74,54.17,18.59Z" transform="translate(7.93 2.65)"/><path class="cls-5" d="M47,12.76a.72.72,0,0,1-.33-.5c-.09-.66,1.07-.79,1.59-.61a1.24,1.24,0,0,1,.74.65.33.33,0,0,1,0,.19.23.23,0,0,1-.1.15,2.17,2.17,0,0,1-1.45.25A1,1,0,0,1,47,12.76Z" transform="translate(7.93 2.65)"/></g></g><g class="cls-6"><g class="cls-6"><path class="cls-5" d="M28.24,34.18c.27,0,.6-.11.68-.38s-.24-.57-.54-.69c-.61-.22-2.37-.57-2.55.36C25.6,34.63,27.64,34.26,28.24,34.18Z" transform="translate(7.93 2.65)"/><path class="cls-5" d="M28.39,28.82a1.12,1.12,0,0,0-1.15-.89c-1.89-.09-2.25.62-2.22.81s.41.44.76.49C28,29.55,28.41,29,28.39,28.82Z" transform="translate(7.93 2.65)"/><path class="cls-5" d="M34.56,35a.52.52,0,0,0-.22.44c0,.56,1.19.56,1.65.37.27-.11.74-.22.61-.61s-1.09-.42-1.59-.34A1.07,1.07,0,0,0,34.56,35Z" transform="translate(7.93 2.65)"/><path class="cls-5" d="M37.88,22.21c-.28-1-1.79-.92-2.31-.83a.85.85,0,0,0-.54.75C35.1,23.1,38.12,23.11,37.88,22.21Z" transform="translate(7.93 2.65)"/><path class="cls-5" d="M41.72,26.26c-.19-.52-2.22-.53-2.73-.14s-.23,1.05.87,1.07S42.07,27.24,41.72,26.26Z" transform="translate(7.93 2.65)"/><path class="cls-5" d="M35.52,30.73a2.34,2.34,0,0,0-1.74-.42c-1.73.14-.44,1.55,1.26,1.08C35.41,31.29,35.73,31.06,35.52,30.73Z" transform="translate(7.93 2.65)"/><path class="cls-5" d="M49.21,19.33a2.39,2.39,0,0,0-1.74-.42c-1.73.14-.44,1.55,1.26,1.08C49.1,19.89,49.42,19.66,49.21,19.33Z" transform="translate(7.93 2.65)"/><path class="cls-5" d="M29.23,21.71a.68.68,0,0,0,.3-.62c-.1-.78-1.91-.72-2.62-.43a1.4,1.4,0,0,0-.89.87.32.32,0,0,0,0,.22.34.34,0,0,0,.2.15,4.37,4.37,0,0,0,2.3,0A1.8,1.8,0,0,0,29.23,21.71Z" transform="translate(7.93 2.65)"/><path class="cls-5" d="M32.85,25.22a3.05,3.05,0,0,0-1.07.2c-.28.12-.6.4-.49.69a.54.54,0,0,0,.22.23,1.86,1.86,0,0,0,1.11.17c.76-.05,1.48-.25,1.47-.75S33.17,25.22,32.85,25.22Z" transform="translate(7.93 2.65)"/><path class="cls-5" d="M55.38,27.33c0-.58-2.17-1.18-2.24-.22S55.38,27.92,55.38,27.33Z" transform="translate(7.93 2.65)"/><path class="cls-5" d="M43.69,33.19c0-.71-2.7-1.4-2.76-.22S43.7,33.91,43.69,33.19Z" transform="translate(7.93 2.65)"/><path class="cls-5" d="M61.19,34.18c.27,0,.6-.11.68-.38s-.24-.57-.54-.69c-.61-.22-2.37-.57-2.55.36C58.55,34.63,60.59,34.26,61.19,34.18Z" transform="translate(7.93 2.65)"/><path class="cls-5" d="M58.67,37.9c0-.19-.3-.49-.66-.54s-1.85-.09-1.92.59c0,.37.69.53,1.33.51C57.84,38.44,58.64,38.4,58.67,37.9Z" transform="translate(7.93 2.65)"/><path class="cls-5" d="M54,32.58c-.19-.64-1.22-.7-1.94-.68-1.07,0-1.62.3-1.56.74s.79.82,2.38.68C53.39,33.28,54.09,33.14,54,32.58Z" transform="translate(7.93 2.65)"/><path class="cls-5" d="M61.34,28.82a1.12,1.12,0,0,0-1.15-.89c-1.89-.09-2.25.62-2.22.81s.41.44.76.49C61,29.55,61.35,29,61.34,28.82Z" transform="translate(7.93 2.65)"/><path class="cls-5" d="M44.21,28.56c-.11.84,3.61,1.27,3.46.13S44.33,27.72,44.21,28.56Z" transform="translate(7.93 2.65)"/><path class="cls-5" d="M50.74,36.63a.73.73,0,0,0-.54-.44,8.9,8.9,0,0,0-2.87.11c-.18.07-.39.17-.38.39s.28.4.51.46a6.55,6.55,0,0,0,2.64.1,1.05,1.05,0,0,0,.46-.16A.45.45,0,0,0,50.74,36.63Z" transform="translate(7.93 2.65)"/><path class="cls-5" d="M55.87,22.31c0-.4-.54-.62-1-.65-1.24-.1-1.09,1.46.3,1.23A.72.72,0,0,0,55.87,22.31Z" transform="translate(7.93 2.65)"/><path class="cls-5" d="M62.18,21.71a.68.68,0,0,0,.3-.62c-.1-.78-1.92-.72-2.62-.43a1.4,1.4,0,0,0-.89.87.33.33,0,0,0,0,.22.39.39,0,0,0,.21.15,4.37,4.37,0,0,0,2.3,0A1.8,1.8,0,0,0,62.18,21.71Z" transform="translate(7.93 2.65)"/><path class="cls-5" d="M50.7,24.53c1.08-1-2.25-1.62-2.29-.25C48.39,25,50.28,24.76,50.7,24.53Z" transform="translate(7.93 2.65)"/><path class="cls-5" d="M44.78,22.46c.76-.38.42-.74,0-.92a3.17,3.17,0,0,0-2.08.06c-.22.07-.54.17-.54.47s.4.4.66.52A2.34,2.34,0,0,0,44.78,22.46Z" transform="translate(7.93 2.65)"/></g></g><g class="cls-7"><g class="cls-7"><path class="cls-5" d="M-4.71,1.23c.27,0,.6-.11.68-.38S-4.27.28-4.57.16c-.6-.22-2.37-.57-2.55.36C-7.35,1.68-5.31,1.31-4.71,1.23Z" transform="translate(7.93 2.65)"/><path class="cls-5" d="M1.61,2.08a.49.49,0,0,0-.22.43c0,.56,1.19.56,1.66.37.26-.11.73-.22.61-.6s-1.1-.43-1.6-.35A1,1,0,0,0,1.61,2.08Z" transform="translate(7.93 2.65)"/><path class="cls-5" d="M7.65,6.31A.45.45,0,0,0,8,6.05c.09-.26-.17-.54-.41-.65s-.26-.12-.81-.09a1.28,1.28,0,0,0-1,.54.4.4,0,0,0,.15.41.84.84,0,0,0,.4.17A2.58,2.58,0,0,0,7.65,6.31Z" transform="translate(7.93 2.65)"/><path class="cls-5" d="M2.57-2.22A2.39,2.39,0,0,0,.83-2.64C-.9-2.5.39-1.09,2.1-1.56,2.46-1.66,2.78-1.89,2.57-2.22Z" transform="translate(7.93 2.65)"/><path class="cls-5" d="M16.26,19.33a2.39,2.39,0,0,0-1.74-.42c-1.73.14-.44,1.55,1.26,1.08C16.15,19.89,16.47,19.66,16.26,19.33Z" transform="translate(7.93 2.65)"/><path class="cls-5" d="M-4.55,6.79c0-1.09,2.33-1.08,2.5-.23C-1.81,7.83-4.54,7.58-4.55,6.79Z" transform="translate(7.93 2.65)"/><path class="cls-5" d="M.29,9.6c.21-.43.94-.49,1.45-.39,1.53.31.62,2-.93,1.25C.48,10.31.16,10,.29,9.6Z" transform="translate(7.93 2.65)"/><path class="cls-5" d="M10.74.24C10.72-.47,8-1.16,8,0S10.75,1,10.74.24Z" transform="translate(7.93 2.65)"/><path class="cls-5" d="M28.24,1.23c.27,0,.6-.11.68-.38s-.24-.57-.54-.69C27.77-.06,26-.41,25.83.52,25.6,1.68,27.64,1.31,28.24,1.23Z" transform="translate(7.93 2.65)"/><path class="cls-5" d="M25.72,5c0-.19-.3-.49-.66-.54s-1.85-.08-1.92.59c0,.37.69.53,1.33.51C24.89,5.5,25.69,5.45,25.72,5Z" transform="translate(7.93 2.65)"/><path class="cls-5" d="M21.06-.37c-.19-.64-1.22-.7-1.94-.68-1.07,0-1.62.3-1.56.74s.79.83,2.38.68C20.44.33,21.14.19,21.06-.37Z" transform="translate(7.93 2.65)"/><path class="cls-5" d="M17.79,3.68a.76.76,0,0,0-.53-.44,8.87,8.87,0,0,0-2.87.11c-.18.07-.39.17-.39.39s.28.4.51.46a6.55,6.55,0,0,0,2.64.1,1.05,1.05,0,0,0,.46-.16A.45.45,0,0,0,17.79,3.68Z" transform="translate(7.93 2.65)"/><path class="cls-5" d="M19.17,8.66c-.12.84,3.6,1.27,3.45.13S19.28,7.82,19.17,8.66Z" transform="translate(7.93 2.65)"/><path class="cls-5" d="M10.63,8.21c-.46-.88,2.26-1.18,2.8-.52C14.25,8.69,11,8.85,10.63,8.21Z" transform="translate(7.93 2.65)"/><path class="cls-5" d="M7.3,13.5a.72.72,0,0,1-.53.44,8.63,8.63,0,0,1-2.87-.1c-.18-.06-.39-.16-.39-.38s.28-.4.51-.46a6.38,6.38,0,0,1,2.64-.12.93.93,0,0,1,.46.15A.44.44,0,0,1,7.3,13.5Z" transform="translate(7.93 2.65)"/><path class="cls-5" d="M-4.38,14.73a1.27,1.27,0,0,1,.9-.43c.35,0,1.66.18,1.33.84-.18.35-.92.4-1.46.3C-4,15.36-4.64,15.21-4.38,14.73Z" transform="translate(7.93 2.65)"/><path class="cls-5" d="M3,19.06c0-.72-2.67-1.45-2.75-.28S3,19.78,3,19.06Z" transform="translate(7.93 2.65)"/><path class="cls-5" d="M10.69,16.16a.8.8,0,0,1,.46.62c.11.87-1.7,1.19-2.48,1-.43-.1-1.19-.14-1.11-.77s1.59-1,2.38-1A1.76,1.76,0,0,1,10.69,16.16Z" transform="translate(7.93 2.65)"/><path class="cls-5" d="M26.09,12.28c0,.25-.26.41-.5.49a5.38,5.38,0,0,1-1.52.13,3.19,3.19,0,0,1-.75-.08.74.74,0,0,1-.5-.26.51.51,0,0,1,.17-.62,1.4,1.4,0,0,1,.67-.18,8.14,8.14,0,0,1,1.78.06C25.73,11.86,26.08,12,26.09,12.28Z" transform="translate(7.93 2.65)"/><path class="cls-5" d="M19.44,15.11c.24,0,.52.08.58.34s-.24.58-.51.71c-.54.25-2.1.67-2.21-.25C17.16,14.77,18.92,15.05,19.44,15.11Z" transform="translate(7.93 2.65)"/><path class="cls-5" d="M21.22,18.59a1,1,0,0,1,.91-.87c1.43-.11,1.66.57,1.63.75a.72.72,0,0,1-.6.49C21.48,19.28,21.2,18.74,21.22,18.59Z" transform="translate(7.93 2.65)"/><path class="cls-5" d="M14,12.76a.75.75,0,0,1-.33-.5c-.09-.66,1.08-.79,1.59-.61a1.25,1.25,0,0,1,.75.65.42.42,0,0,1,0,.19.23.23,0,0,1-.1.15,2.16,2.16,0,0,1-1.45.25A1,1,0,0,1,14,12.76Z" transform="translate(7.93 2.65)"/></g></g><g class="cls-8"><g class="cls-8"><path class="cls-5" d="M-4.71,34.18c.27,0,.6-.11.68-.38s-.24-.57-.54-.69c-.6-.22-2.37-.57-2.55.36C-7.35,34.63-5.31,34.26-4.71,34.18Z" transform="translate(7.93 2.65)"/><path class="cls-5" d="M-4.56,28.82a1.12,1.12,0,0,0-1.15-.89c-1.89-.09-2.25.62-2.22.81s.41.44.76.49C-4.95,29.55-4.54,29-4.56,28.82Z" transform="translate(7.93 2.65)"/><path class="cls-5" d="M1.61,35a.52.52,0,0,0-.22.44c0,.56,1.19.56,1.66.37.26-.11.73-.22.61-.61s-1.1-.42-1.6-.34A1.07,1.07,0,0,0,1.61,35Z" transform="translate(7.93 2.65)"/><path class="cls-5" d="M4.93,22.21c-.28-1-1.79-.92-2.31-.83a.87.87,0,0,0-.54.75C2.15,23.1,5.17,23.11,4.93,22.21Z" transform="translate(7.93 2.65)"/><path class="cls-5" d="M8.77,26.26c-.19-.52-2.22-.53-2.73-.14s-.23,1.05.87,1.07S9.12,27.24,8.77,26.26Z" transform="translate(7.93 2.65)"/><path class="cls-5" d="M2.57,30.73a2.34,2.34,0,0,0-1.74-.42c-1.73.14-.44,1.55,1.27,1.08C2.46,31.29,2.78,31.06,2.57,30.73Z" transform="translate(7.93 2.65)"/><path class="cls-5" d="M16.26,19.33a2.39,2.39,0,0,0-1.74-.42c-1.73.14-.44,1.55,1.26,1.08C16.15,19.89,16.47,19.66,16.26,19.33Z" transform="translate(7.93 2.65)"/><path class="cls-5" d="M-3.72,21.71a.66.66,0,0,0,.3-.62c-.1-.78-1.91-.72-2.62-.43a1.4,1.4,0,0,0-.89.87.32.32,0,0,0,0,.22.34.34,0,0,0,.2.15,4.37,4.37,0,0,0,2.3,0A1.8,1.8,0,0,0-3.72,21.71Z" transform="translate(7.93 2.65)"/><path class="cls-5" d="M-.1,25.22a3.05,3.05,0,0,0-1.07.2c-.28.12-.6.4-.48.69a.49.49,0,0,0,.22.23,1.81,1.81,0,0,0,1.1.17c.76-.05,1.48-.25,1.47-.75S.22,25.22-.1,25.22Z" transform="translate(7.93 2.65)"/><path class="cls-5" d="M22.43,27.33c0-.58-2.17-1.18-2.24-.22S22.43,27.92,22.43,27.33Z" transform="translate(7.93 2.65)"/><path class="cls-5" d="M10.74,33.19c0-.71-2.7-1.4-2.76-.22S10.75,33.91,10.74,33.19Z" transform="translate(7.93 2.65)"/><path class="cls-5" d="M28.24,34.18c.27,0,.6-.11.68-.38s-.24-.57-.54-.69c-.61-.22-2.37-.57-2.55.36C25.6,34.63,27.64,34.26,28.24,34.18Z" transform="translate(7.93 2.65)"/><path class="cls-5" d="M25.72,37.9c0-.19-.3-.49-.66-.54s-1.85-.09-1.92.59c0,.37.69.53,1.33.51C24.89,38.44,25.69,38.4,25.72,37.9Z" transform="translate(7.93 2.65)"/><path class="cls-5" d="M21.06,32.58c-.19-.64-1.22-.7-1.94-.68-1.07,0-1.62.3-1.56.74s.79.82,2.38.68C20.44,33.28,21.14,33.14,21.06,32.58Z" transform="translate(7.93 2.65)"/><path class="cls-5" d="M28.39,28.82a1.12,1.12,0,0,0-1.15-.89c-1.89-.09-2.25.62-2.22.81s.41.44.76.49C28,29.55,28.41,29,28.39,28.82Z" transform="translate(7.93 2.65)"/><path class="cls-5" d="M11.26,28.56c-.11.84,3.61,1.27,3.46.13S11.38,27.72,11.26,28.56Z" transform="translate(7.93 2.65)"/><path class="cls-5" d="M17.79,36.63a.74.74,0,0,0-.53-.44,8.87,8.87,0,0,0-2.87.11c-.18.07-.39.17-.39.39s.28.4.51.46a6.55,6.55,0,0,0,2.64.1,1.05,1.05,0,0,0,.46-.16A.45.45,0,0,0,17.79,36.63Z" transform="translate(7.93 2.65)"/><path class="cls-5" d="M22.92,22.31c0-.4-.54-.62-1-.65-1.24-.1-1.09,1.46.3,1.23A.71.71,0,0,0,22.92,22.31Z" transform="translate(7.93 2.65)"/><path class="cls-5" d="M29.23,21.71a.68.68,0,0,0,.3-.62c-.1-.78-1.91-.72-2.62-.43a1.4,1.4,0,0,0-.89.87.32.32,0,0,0,0,.22.34.34,0,0,0,.2.15,4.37,4.37,0,0,0,2.3,0A1.8,1.8,0,0,0,29.23,21.71Z" transform="translate(7.93 2.65)"/><path class="cls-5" d="M17.75,24.53c1.08-1-2.24-1.62-2.29-.25C15.44,25,17.33,24.76,17.75,24.53Z" transform="translate(7.93 2.65)"/><path class="cls-5" d="M11.83,22.46c.76-.38.42-.74,0-.92a3.17,3.17,0,0,0-2.08.06c-.22.07-.54.17-.54.47s.4.4.66.52A2.34,2.34,0,0,0,11.83,22.46Z" transform="translate(7.93 2.65)"/></g></g></g><path class="cls-9" d="M24.49,12.77l0,.31.07.93,15.09-1.09c0-.31-.05-.61-.07-.92,0-.11,0-.21,0-.31Z" transform="translate(7.93 2.65)"/><path class="cls-9" d="M22.39,15.2l1,14.46.31,0,.93-.07-1-14.46-.93.07Z" transform="translate(7.93 2.65)"/><path class="cls-9" d="M21.36.85l.87,12.09L.39,14.51l0,.31.06.93,21.85-1.58.31,0,.93-.07-.07-.92,0-.31L22.6.77l-.93.06Z" transform="translate(7.93 2.65)"/><path class="cls-10" d="M24.67,29.57l1-.08L24.65,15l-1,.07Z" transform="translate(7.93 2.65)"/><path class="cls-10" d="M23.47,12.85l0,.31.07.92,1-.07-.07-.93,0-.31L23.62.71l-1,.06Z" transform="translate(7.93 2.65)"/><path class="cls-10" d="M23.56,14.08l-.93.07-.31,0L.47,15.75c0,.34.05.68.07,1L22.39,15.2l.31,0,.93-.07,1-.07L39.73,14l-.06-1L24.58,14Z" transform="translate(7.93 2.65)"/><path class="cls-10" d="M30.75,7.74l-.41-.09a2.83,2.83,0,0,0-.41,0,2.67,2.67,0,0,0-.4,0l-.41,0a4.8,4.8,0,0,0-2.63,1.51,11.29,11.29,0,0,0-1.64,2.35c-.21.4-.41.81-.59,1.23a8.45,8.45,0,0,0,.06-1.23,6.29,6.29,0,0,0-.23-1.41,3.89,3.89,0,0,0-.62-1.34A5.64,5.64,0,0,0,21.08,7.1,3.62,3.62,0,0,0,18.17,7a2.28,2.28,0,0,0-.65.57,2.77,2.77,0,0,0-.42.7A3.13,3.13,0,0,0,16.87,10a4,4,0,0,0,1.65,2.71,8.3,8.3,0,0,0,1.2.74A11.11,11.11,0,0,0,21,14a7.26,7.26,0,0,0,2.18.47,2.11,2.11,0,0,0-.36.31,2,2,0,0,0-.38,1.2,4.41,4.41,0,0,0,0,.53c0,.17,0,.33,0,.48l.12.87a3.33,3.33,0,0,1,0,.7,3.66,3.66,0,0,1-.14.72,1.31,1.31,0,0,1-.32.59,1.35,1.35,0,0,1-.81.34,1.24,1.24,0,0,0,1.07.38,1.81,1.81,0,0,0,1.11-.63,3.12,3.12,0,0,0,.59-1.05,2.81,2.81,0,0,0,.13-1.21,5,5,0,0,0-.2-1c-.05-.16-.09-.31-.15-.46s-.11-.32-.15-.41a2,2,0,0,1-.17-.69,1.46,1.46,0,0,1,.15-.67h0v0l0-.1c.32.48.64.85.91,1.2a5.77,5.77,0,0,1,.37.51,2.58,2.58,0,0,1,.22.44,8.56,8.56,0,0,0,.63,1.39,2.08,2.08,0,0,0,.72.69,1.13,1.13,0,0,0,1,.06,1.68,1.68,0,0,1-.46-1.24,4.93,4.93,0,0,0-.31-1.53,2.47,2.47,0,0,0-.58-.86,2.55,2.55,0,0,0-.39-.3l.8,0a8.68,8.68,0,0,0,2.95-.4,4.57,4.57,0,0,0,2.51-2.09,4.34,4.34,0,0,0,.49-1.64,2.93,2.93,0,0,0-.4-1.76A2.53,2.53,0,0,0,30.75,7.74ZM21.6,12.8l-1-.77c-.32-.26-.7-.53-1-.76a3.31,3.31,0,0,1-1.2-1.59,2.24,2.24,0,0,1-.05-1,2,2,0,0,1,.32-.92,1.5,1.5,0,0,1,1-.45,2,2,0,0,1,1.16.25,3.62,3.62,0,0,1,1.41,1.88A16.8,16.8,0,0,1,23,11.71c.23.79.4,1.62.65,2.48A23.51,23.51,0,0,1,21.6,12.8Zm9.54-2.41a2.65,2.65,0,0,1-.44,1A4.35,4.35,0,0,1,29,12.74a7.69,7.69,0,0,1-1.17.45c-.42.14-.85.23-1.28.34s-.89.19-1.34.27l-.68.13-.35.06L24,14h0v0l.08-.15.16-.31c.11-.2.22-.4.34-.6.22-.4.47-.78.73-1.16a10.43,10.43,0,0,1,1.77-2,3.83,3.83,0,0,1,2.19-1l.29,0,.29,0,.28,0,.26.09a1.24,1.24,0,0,1,.69.59A1.53,1.53,0,0,1,31.14,10.39Z" transform="translate(7.93 2.65)"/></g></g></svg>