<svg xmlns="http://www.w3.org/2000/svg" viewBox="0 0 62.72 45.03"><defs><style>.cls-1{fill:#4c6b51;}.cls-2{fill:#f2b669;}.cls-3{fill:#fde8ca;}.cls-4{fill:#f45b44;}</style></defs><g id="Layer_2" data-name="Layer 2"><g id="Image"><path class="cls-1" d="M62.16,21.55c-.4-.4-11.91-.57-24.86-.57-16.68,0-35.75.28-36.53.69-1.38.74-.62,21.55.09,22.64.54.82,34.34.88,51.56.45,5.61-.14,9.47-.34,9.83-.57.73-.48.42-5.85.33-11.25S62.61,22,62.16,21.55Z"/><path class="cls-2" d="M62.55,30.16c-4.36-.09-14.86.09-26.84.15H33.49c0-2,0-3.93,0-5.86,0-1.18,0-2.33,0-3.48l-4.11,0c0,2.23,0,4.54.05,6.92v.92c0,.5,0,1,0,1.5-12.62,0-25.31-.05-29.42,0,0,1.28,0,2.61.07,3.91,4.07.1,16.48.14,29.36.14V45h4.06c0-3.38,0-7,0-10.61h5.67c10.23,0,19.43-.09,23.44-.18l0-1.27C62.57,32,62.56,31.07,62.55,30.16Z"/><path class="cls-3" d="M5.22,25.6l-.28.28a1.26,1.26,0,0,0,0,1.77,1.28,1.28,0,0,0,1.77,0L7,27.37A1.25,1.25,0,1,0,5.22,25.6Z"/><path class="cls-3" d="M12.48,25.76a1.19,1.19,0,0,0,0-2.37,1.19,1.19,0,0,0,0,2.37Z"/><path class="cls-3" d="M5.45,42.24a1.19,1.19,0,0,0,0-2.38,1.19,1.19,0,0,0,0,2.38Z"/><path class="cls-3" d="M24.86,39.51l.19.14a1,1,0,0,0,1.21-1.71l-.19-.14a1,1,0,1,0-1.21,1.71Z"/><path class="cls-3" d="M41.44,27.2a1.2,1.2,0,0,0,0-2.39,1.2,1.2,0,0,0,0,2.39Z"/><path class="cls-3" d="M14.56,40.27a1,1,0,0,0,0-2,1,1,0,0,0,0,2Z"/><path class="cls-3" d="M51.79,38.72a1.23,1.23,0,0,0,0-2.45,1.23,1.23,0,0,0,0,2.45Z"/><path class="cls-3" d="M58.2,41.12a.81.81,0,0,0,0-1.61.81.81,0,0,0,0,1.61Z"/><path class="cls-3" d="M59.56,29.19a.81.81,0,0,0,0-1.61.81.81,0,0,0,0,1.61Z"/><path class="cls-3" d="M25.56,27.36a.81.81,0,0,0,0-1.62.81.81,0,0,0,0,1.62Z"/><path class="cls-3" d="M20.92,25.61a.81.81,0,0,0,0-1.62.81.81,0,0,0,0,1.62Z"/><path class="cls-3" d="M20.14,43.33a.81.81,0,0,0,0-1.61.81.81,0,0,0,0,1.61Z"/><path class="cls-3" d="M42.13,40.06a.81.81,0,0,0,0-1.62.81.81,0,0,0,0,1.62Z"/><path class="cls-3" d="M54.21,26.41a.81.81,0,0,0,0-1.61.81.81,0,0,0,0,1.61Z"/><path class="cls-3" d="M47.41,42.53a.81.81,0,0,0,0-1.62.81.81,0,0,0,0,1.62Z"/><path class="cls-4" d="M46.26,16A8.46,8.46,0,0,0,45,15.7a9.46,9.46,0,0,0,1.51-1.92c.74-1.31,1-3.14-.2-4.09-.7-.55-1.68-.5-3-.25a11.38,11.38,0,0,0-2.81,1C42,8.81,43,7.21,43,5.79a2.87,2.87,0,0,0-1-2.24,2.29,2.29,0,0,0-2-.69c-2,.39-3.63,3.72-5.36,7.49,1.39-4.37,2.15-9-1.34-8.88-4.43.15-3,5.61-2.81,9.62.09,1.48.17,3,.19,4.37C28.92,10.74,24.12,4.2,23.45,3.29c-1.5-2-4.75-4.88-7.39-2.2C14.2,3,15.72,6.51,20,10.45c.2.19.49.44.83.74-3.72-1.63-7.19-2.4-8-.75-2.93,6.2,12.54,8.55,17,9.25a30,30,0,0,1-5,1.52c-4,.79-7.71.07-10.09-2a.47.47,0,1,0-.61.72c2.61,2.22,6.58,3,10.89,2.17a32.37,32.37,0,0,0,5.45-1.67,30.1,30.1,0,0,1-3.63,3.6c-3.19,2.58-6.78,3.68-9.83,3a.48.48,0,1,0-.21.93c3.35.74,7.23-.41,10.64-3.18a27.82,27.82,0,0,0,3.25-3.17c.68,4.67,2.51,13.28,5.34,16.39a.31.31,0,0,0,.11.09.47.47,0,0,0,.56-.06.47.47,0,0,0,0-.67C33.92,34.28,32.09,25,31.54,20.74h0c2.43,3.5,8.76,11.41,13.09,13l.14,0a.47.47,0,0,0,.18-.92c-4-1.45-10.11-9-12.5-12.43a63.05,63.05,0,0,0,6.09,2.08,11.37,11.37,0,0,0,8.52-1.15c1.27-.8,2.35-2.3,1.73-3.7C48.43,16.8,47.55,16.38,46.26,16ZM14,10.87c.81-1.48,6.34,1.06,10.88,3.73,1.6,1.35,3.22,2.7,4.3,3.64C24.53,17.3,11.68,15.07,14,10.87Zm12.44,3.31c-2.33-2-4.88-4.22-5.88-5.15-4.91-4.54-3.83-6.34-2.72-7.19,2.1-1.63,4,.88,4.87,2a68.16,68.16,0,0,1,7.78,13.52A21,21,0,0,0,26.42,14.18Zm17.19-3.83a4.23,4.23,0,0,1,1.26-.19,1.51,1.51,0,0,1,.88.28c.81.64.42,2.06,0,2.86a8.31,8.31,0,0,1-2,2.26,24.06,24.06,0,0,0-9.36,1.85c.21-.26.43-.52.65-.77C37.08,14.28,39.93,11.44,43.61,10.35Zm-1.67,6.42a12.63,12.63,0,0,1-2.64,1.09,18,18,0,0,1-3.7.56A26.47,26.47,0,0,1,41.94,16.77Zm-9.78-2.29c-.17.42-.33.83-.49,1.24,0-1.49-.11-3.1-.2-4.69-.23-4-1.15-8.7,2.11-8.7S33.88,10.12,32.16,14.48ZM35,11.84c1.65-3.61,3.52-7.71,5.19-8A1,1,0,0,1,41,4a1.7,1.7,0,0,1,.39.3,1.93,1.93,0,0,1,.68,1.52C42,8.37,37.59,12.16,34,15.2l-1,.87C33.7,14.75,34.37,13.28,35,11.84Zm11.52,8.67a10.46,10.46,0,0,1-7.8,1A20.24,20.24,0,0,1,34,19.69a51.41,51.41,0,0,0,5.59-.91,12.8,12.8,0,0,0,4.33-2.08,11.81,11.81,0,0,1,2.2.22,4.3,4.3,0,0,1,1.2.41,1.55,1.55,0,0,1,.64.66C48.34,18.94,47.33,20,46.55,20.51Z"/></g></g></svg>