<svg xmlns="http://www.w3.org/2000/svg" viewBox="0 0 10.48 11.24"><defs><style>.cls-1{fill:#f45b44;}.cls-2{fill:#f2b669;}.cls-3{fill:#739b68;}</style></defs><g id="Layer_2" data-name="Layer 2"><g id="Image"><path class="cls-1" d="M10.05,4.55c-.11-.07-2.46.16-4.9.16s-5-.23-5.06-.09a3.54,3.54,0,0,0,0,1.59c0,.11,2.34,0,4.72-.06s5,0,5.25,0C10.46,6.12,10.29,4.67,10.05,4.55Z"/><path class="cls-2" d="M.68,6.19C.35,6.36.41,10.34.72,11s8.61.07,9-.06.24-4.41,0-4.77S1,6,.68,6.19Z"/><path class="cls-3" d="M7.65,7A6.82,6.82,0,0,1,5.6,4.55,13.17,13.17,0,0,1,2.78,5c-1.35,0-2.1-.87-2-1.51S1.5,2,3,2.55A10.8,10.8,0,0,1,5.18,3.77c-.45-.4-1-.92-1.51-1.4C2.48,1.2,3.38.21,3.77.06S5-.06,5.59,1.15A6.29,6.29,0,0,1,6,3.94,14.53,14.53,0,0,1,7.89,2.29c1.1-.79,2.23-.44,2.47.17s.23,1.6-1.34,2a10.62,10.62,0,0,1-2.48.19c.6.08,1.36.2,2,.33,1.64.31,1.44,1.64,1.19,2S8.81,7.68,7.65,7Z"/></g></g></svg>