<svg xmlns="http://www.w3.org/2000/svg" viewBox="0 0 98.43 99.79"><defs><style>.cls-1{fill:#d4e9e5;}.cls-2{fill:#739b68;}.cls-3{fill:#fde8ca;}.cls-4{fill:#f2b669;}.cls-5{fill:#f45b44;}.cls-6{fill:#fff;}.cls-7{fill:#fa8573;}.cls-8{fill:#c86e29;}.cls-9{fill:#4c6b51;}</style></defs><g id="Layer_2" data-name="Layer 2"><g id="Image"><path class="cls-1" d="M51.41,41.22c.05,0,.15-.22.29-.61,1.21-3.27,5.37-18.79,7.2-24.27C61,10.21,62.34,3.73,64.29,1.1S78.81.73,85.53,6.19,98.29,18.56,98,24.81,60.38,45.27,60.38,45.27L51.56,41"/><path class="cls-1" d="M46.87,41.26s-.15-.22-.3-.61C45.3,37.4,40.88,22,39,16.51,36.8,10.42,35.3,4,33.3,1.36S18.78,1.24,12.15,6.82-.39,19.41,0,25.65,38,45.47,38,45.47L46.72,41"/><path class="cls-1" d="M51.55,58.53c.05,0,.16.21.31.6,1.26,3.25,5.69,18.7,7.61,24.14,2.16,6.1,3.66,12.56,5.66,15.15s14.52.13,21.15-5.45S98.82,80.38,98.41,74.13,60.46,54.32,60.46,54.32l-8.75,4.42"/><path class="cls-1" d="M47,58.56c-.05,0-.15.22-.3.62-1.2,3.27-5.36,18.79-7.2,24.26-2.05,6.13-3.44,12.62-5.39,15.25s-14.52.37-21.24-5.09S.14,81.22.44,75,38,54.51,38,54.51l8.83,4.27"/><path class="cls-2" d="M79.06,73.85c-.56-.68-2.21-.18-2.83.1a20.52,20.52,0,0,0-2.47,1.88,97.92,97.92,0,0,0-3.88-10,26.6,26.6,0,0,0-7-8.57l-27,.23a26.77,26.77,0,0,0-6.9,8.69,97.27,97.27,0,0,0-3.71,10.11,21.88,21.88,0,0,0-2.5-1.85c-.63-.27-2.29-.74-2.83,0s2.58,3.64,4.18,4.52,2.63,1.15,3.52.73a103.52,103.52,0,0,0,11.74-7.69c3.16-2.46,7.72-6.65,10-8.8,2.36,2.11,7,6.22,10.19,8.62a103,103,0,0,0,11.87,7.49c.9.41,1.93.13,3.51-.78S79.62,74.54,79.06,73.85Z"/><path class="cls-3" d="M67.62,64.56c-.18-.44-.59-.16-.65.18s0,.91.29,1.08a.2.2,0,0,0,.21,0,.31.31,0,0,0,.09-.11A1.34,1.34,0,0,0,67.62,64.56Z"/><path class="cls-3" d="M66.46,62.36c-.3,0-.19.15-.09.3s.19.33.29.5a.52.52,0,0,0,.34.31h.06a.14.14,0,0,0,0-.08.83.83,0,0,0-.08-.67A.81.81,0,0,0,66.46,62.36Z"/><path class="cls-3" d="M65.69,61.68c.32-.15.06-.66-.12-.81s-.75-.37-.92-.15.19.4.3.51S65.45,61.79,65.69,61.68Z"/><path class="cls-3" d="M63.52,60.12a.25.25,0,0,0,.22-.08.28.28,0,0,0-.05-.33,1,1,0,0,0-.29-.19,1.7,1.7,0,0,0-1-.17s0,.1,0,.15.09.07.14.1l.77.43A.68.68,0,0,0,63.52,60.12Z"/><path class="cls-3" d="M64.11,60.77a.82.82,0,0,0-.36-.31.31.31,0,0,0-.4.15.11.11,0,0,0,0,.1s0,.08.09.12.29.23.4.34.31.24.4.19S64.23,60.94,64.11,60.77Z"/><path class="cls-3" d="M65.37,62.12a.29.29,0,0,0-.5,0c-.07.17,0,.25.16.36s.28.41.44.41.12-.39.07-.53A.81.81,0,0,0,65.37,62.12Z"/><path class="cls-3" d="M66.2,63.59a.24.24,0,0,0-.36.31,2.11,2.11,0,0,1,.2.29c.06.15.07.35.27.39s.1,0,.11,0a.83.83,0,0,0-.06-.72A.57.57,0,0,0,66.2,63.59Z"/><path class="cls-3" d="M31.17,64.87c.17-.44.59-.17.66.17s0,.91-.27,1.09a.25.25,0,0,1-.22,0,.48.48,0,0,1-.09-.11A1.37,1.37,0,0,1,31.17,64.87Z"/><path class="cls-3" d="M32.3,62.65c.3,0,.19.15.09.3s-.18.34-.28.51a.53.53,0,0,1-.33.31h-.07a.13.13,0,0,1-.05-.07.82.82,0,0,1,.08-.68A.78.78,0,0,1,32.3,62.65Z"/><path class="cls-3" d="M33.05,62c-.32-.15-.07-.66.11-.81s.75-.39.92-.17-.18.41-.3.51S33.3,62.07,33.05,62Z"/><path class="cls-3" d="M35.19,60.36a.25.25,0,0,1-.22-.07A.28.28,0,0,1,35,60a.84.84,0,0,1,.29-.2,1.7,1.7,0,0,1,1-.19c.05,0,.06.1,0,.15a.38.38,0,0,1-.14.11l-.77.44A.6.6,0,0,1,35.19,60.36Z"/><path class="cls-3" d="M34.62,61A.83.83,0,0,1,35,60.7a.33.33,0,0,1,.41.15.16.16,0,0,1,0,.1s0,.08-.09.12a4.1,4.1,0,0,0-.39.35c-.11.11-.31.24-.4.19S34.51,61.2,34.62,61Z"/><path class="cls-3" d="M33.38,62.39a.29.29,0,0,1,.5,0c.08.17,0,.25-.15.37s-.28.41-.43.42-.13-.39-.08-.53A.83.83,0,0,1,33.38,62.39Z"/><path class="cls-3" d="M32.58,63.88a.24.24,0,0,1,.37.3c-.06.11-.15.17-.2.29s-.06.35-.27.4c0,0-.1,0-.11-.05a.83.83,0,0,1,.05-.72A.48.48,0,0,1,32.58,63.88Z"/><path class="cls-4" d="M69.05,24.07s-3.14,1.16-6,2.06-6.83,2.48-7.3,2.38-1.54-.19-2.73-.28-6.84-.05-8,.06-2.26.23-2.73.34S37.81,27.22,35,26.37s-6-2-6-2-2.8,4.52-2.64,4.36S31.51,31.09,33,31.9a19.18,19.18,0,0,1,4.48,3.72,12.31,12.31,0,0,1,1.05,5.3c-.09,1.44-3.25,17-3.25,17a22.81,22.81,0,0,0,14.09,3.92,27,27,0,0,0,14-4.16s-3.43-15.53-3.55-17a12.62,12.62,0,0,1,1-5.32,19.18,19.18,0,0,1,4.43-3.79c1.43-.84,6.41-3.41,6.56-3.25S69.05,24.07,69.05,24.07Z"/><path class="cls-3" d="M56,38.29a10.7,10.7,0,0,1,2.39-5.45,15.13,15.13,0,0,1,3.19-2.57A44.49,44.49,0,0,1,70.27,26l-.06-.09a44,44,0,0,0-8.7,4.29,15,15,0,0,0-3.21,2.58,10.85,10.85,0,0,0-2.42,5.5,25.38,25.38,0,0,0-.06,6,96.08,96.08,0,0,0,2.57,15.88l.1,0a97.06,97.06,0,0,1-2.56-15.86A25.11,25.11,0,0,1,56,38.29Z"/><path class="cls-3" d="M54.23,52.53c-.44-4.6-.89-9.35.07-14a13,13,0,0,1,4.14-7.65,16.66,16.66,0,0,1,2.26-1.5,66.9,66.9,0,0,1,9-4.36L69.61,25a68.75,68.75,0,0,0-9,4.36,16.85,16.85,0,0,0-2.27,1.51,13.1,13.1,0,0,0-4.17,7.71c-1,4.63-.52,9.39-.08,14l.48,5a19.66,19.66,0,0,0,.57,3.56l.1,0a19.66,19.66,0,0,1-.56-3.55Z"/><path class="cls-3" d="M53.08,34.86a20.93,20.93,0,0,1,4.26-6.75l-.2.07A21,21,0,0,0,53,34.82C51,40,51.12,45.85,51.25,51l.26,10.7h.11L51.35,51C51.23,45.85,51.08,40,53.08,34.86Z"/><path class="cls-3" d="M46.79,34.16a49.94,49.94,0,0,0-1.41-5.89h-.11a49.67,49.67,0,0,1,1.42,5.9A98.71,98.71,0,0,1,47.79,47l.63,14.91h.11L47.89,47A97.28,97.28,0,0,0,46.79,34.16Z"/><path class="cls-3" d="M38.6,35.08a12.29,12.29,0,0,0-5-5.14,35.91,35.91,0,0,0-6.31-2.73l-.06.09A35.27,35.27,0,0,1,33.51,30a12.16,12.16,0,0,1,5,5.1c1.27,2.71,1.06,5.85.74,8.84C38.7,49,37.91,54,36.9,59l.1.05c1-5,1.8-10,2.35-15.08C39.67,41,39.88,37.82,38.6,35.08Z"/><path class="cls-3" d="M41.6,40.33a17.52,17.52,0,0,0-.37-3.08,13.44,13.44,0,0,0-5.59-7.55,34.51,34.51,0,0,0-7.59-3.79L28,26a34.11,34.11,0,0,1,7.57,3.78,13.29,13.29,0,0,1,5.55,7.49,17.07,17.07,0,0,1,.37,3.06A123,123,0,0,1,41,60.74l.1,0A122.56,122.56,0,0,0,41.6,40.33Z"/><path class="cls-3" d="M44,58.75a130.83,130.83,0,0,0,0-17.82,14.66,14.66,0,0,0-.46-3.11,17.1,17.1,0,0,0-1.06-2.53,16.38,16.38,0,0,0-1.68-2.88,15.89,15.89,0,0,0-3.16-2.86,32.45,32.45,0,0,0-2.83-1.91C33.7,27,32.53,26.47,31.4,26l-2.63-1.2-.06.09,2.64,1.2a36.64,36.64,0,0,1,3.38,1.68,28.35,28.35,0,0,1,2.82,1.91,15.37,15.37,0,0,1,3.14,2.83,15.85,15.85,0,0,1,1.66,2.87,15,15,0,0,1,1.06,2.51,14.38,14.38,0,0,1,.46,3.09,130.69,130.69,0,0,1,0,17.81l0,.3c0,.79-.11,1.6-.1,2.4l.11,0c0-.81.05-1.62.1-2.41Z"/><path class="cls-3" d="M69.42,27.53l-4.16,2.12a16.63,16.63,0,0,0-3,1.8,14,14,0,0,0-1.86,1.91,11.38,11.38,0,0,0-2,2.93,10.59,10.59,0,0,0-.26,5.64,81.58,81.58,0,0,0,4.26,16.36l.11-.06A80.35,80.35,0,0,1,58.3,41.91a10.4,10.4,0,0,1,.25-5.59,11.77,11.77,0,0,1,2-2.9,14.44,14.44,0,0,1,1.85-1.9,16.92,16.92,0,0,1,3-1.77l4.16-2.13A11.17,11.17,0,0,1,70.91,27l-.06-.09A11.17,11.17,0,0,0,69.42,27.53Z"/><path class="cls-3" d="M45.38,38.08a24.28,24.28,0,0,0-2.07-5c-.9-1.65-1.87-3.28-2.88-4.88l-.16,0c1,1.63,2,3.29,2.95,5a23.87,23.87,0,0,1,2.06,5c1.11,4,1,16.63,1,23.68h.1C46.4,54.74,46.5,42.06,45.38,38.08Z"/><path class="cls-3" d="M49.73,44.45a48.67,48.67,0,0,1,.85-8.57c.21-.93,1.17-4.69,2.09-7.67h-.11c-.91,3-1.87,6.69-2.08,7.66a48.75,48.75,0,0,0-.86,8.58,138.46,138.46,0,0,0,.62,17.38h.1A138.14,138.14,0,0,1,49.73,44.45Z"/><path class="cls-5" d="M19.29,22.39c.89-1.88,3.26-1.14,5-.2-.64-.66-1.9-1.78-1.52-2.31s1.34-.06,2.39.63a10.71,10.71,0,0,1,3,4l-1.7,3.17A6.6,6.6,0,0,1,22.12,27C19.91,25.86,18.4,24.29,19.29,22.39Z"/><path class="cls-6" d="M27.48,29a.91.91,0,0,1-1.12,0,1.15,1.15,0,0,1-.22-1,5.41,5.41,0,0,1,1-2.06c.65-.89,1.15-2.27,2-1.79s.43,1.43.25,2A6.83,6.83,0,0,1,27.48,29Z"/><path class="cls-5" d="M78.66,21.88c-.92-1.87-3.27-1.08-5-.12.63-.66,1.87-1.8,1.48-2.33s-1.34,0-2.37.68a10.56,10.56,0,0,0-3,4l1.75,3.15a6.64,6.64,0,0,0,4.35-.72C78.1,25.37,79.59,23.77,78.66,21.88Z"/><path class="cls-6" d="M70.58,28.61a.93.93,0,0,0,1.13,0,1.15,1.15,0,0,0,.19-1.05,5.23,5.23,0,0,0-1-2c-.66-.89-1.19-2.25-2-1.76s-.4,1.44-.22,2A6.79,6.79,0,0,0,70.58,28.61Z"/><path class="cls-7" d="M59.65,53a3.53,3.53,0,0,1-.15,1.37,2.71,2.71,0,0,1-2.12,1.54,1.72,1.72,0,0,1-.75,0c-.58-.19-.85-.84-1.05-1.42-.34-1-.46-1.84-.78-3l2.42-.58c1-.25,2-.42,2-.42S59.63,52.32,59.65,53Z"/><path class="cls-3" d="M54.51,51.5a8.66,8.66,0,0,1,2.38-.77,14.18,14.18,0,0,1,2.51-.4,11,11,0,0,1-2.36.83A8.08,8.08,0,0,1,54.51,51.5Z"/><path class="cls-3" d="M58.26,53.65a1.18,1.18,0,0,0-.49-.15,2.15,2.15,0,0,1-.06-.25L57.64,53c.11.08.25.2.38.28s.48.25.52.17-.17-.27-.27-.34a6.17,6.17,0,0,0-.69-.42c0-.16-.08-.29-.11-.39.11.09.27.18.36.24a.21.21,0,0,0,.15,0v0s0,0,0,0a.3.3,0,0,0-.08-.08,1.86,1.86,0,0,0-.41-.33.29.29,0,0,0-.1,0s-.07,0-.15.09a2.11,2.11,0,0,0-.24.45.15.15,0,0,0,0,.13c0,.07.16,0,.19-.1a1.55,1.55,0,0,0,.15-.28c0,.12.05.25.09.4a.27.27,0,0,0-.07.08,3.59,3.59,0,0,0-.42.67s-.09.21,0,.24.28-.14.33-.22a2.14,2.14,0,0,0,.29-.43c0,.11,0,.13.06.22s0,.14,0,.23a.48.48,0,0,0-.11.09,3,3,0,0,0-.43.64.91.91,0,0,0-.07.14s0,.05,0,.06.38-.24.44-.31.16-.25.23-.35c.1.44.24,1,.32.94s0-.55-.16-1a3.81,3.81,0,0,0,.62.29c.08,0,.25.08.28,0S58.38,53.72,58.26,53.65Z"/><path class="cls-7" d="M38,53.14a3.47,3.47,0,0,0,.18,1.36A2.64,2.64,0,0,0,40.31,56a1.58,1.58,0,0,0,.75,0c.58-.2.84-.86,1-1.44.32-1,.42-1.84.72-3-.59-.12-1.55-.34-2.42-.54-1-.23-2-.38-2-.38S38,52.5,38,53.14Z"/><path class="cls-3" d="M43.11,51.6a8.72,8.72,0,0,0-2.4-.73,13.38,13.38,0,0,0-2.51-.36,10.74,10.74,0,0,0,2.37.8A8.67,8.67,0,0,0,43.11,51.6Z"/><path class="cls-3" d="M39.4,53.81a1,1,0,0,1,.48-.15,2.23,2.23,0,0,0,.06-.26c0-.07,0-.14.06-.27l-.38.29c-.14.1-.47.26-.51.17s.16-.26.26-.34a7,7,0,0,1,.69-.43,3.59,3.59,0,0,1,.1-.39,2.76,2.76,0,0,1-.35.24.2.2,0,0,1-.16,0h0s0,0,0-.05l.08-.08a2.13,2.13,0,0,1,.4-.33.19.19,0,0,1,.1,0s.08,0,.15.09a2,2,0,0,1,.26.44s0,.1,0,.13-.16,0-.19-.1a1.12,1.12,0,0,1-.16-.27c0,.11,0,.25-.08.39l.07.09a3.26,3.26,0,0,1,.43.66s.09.2.05.24-.28-.14-.33-.21a2.25,2.25,0,0,1-.3-.44c0,.12,0,.14,0,.23l-.05.23a.48.48,0,0,1,.11.09,3,3,0,0,1,.45.63.84.84,0,0,1,.06.14.06.06,0,0,1,0,.06c-.11.09-.38-.23-.45-.31A3.39,3.39,0,0,1,40,54c-.1.44-.22,1-.31.95s0-.55.15-1a4.48,4.48,0,0,1-.62.31c-.08,0-.25.08-.28,0S39.28,53.88,39.4,53.81Z"/><path class="cls-3" d="M54.09,21.7a5.86,5.86,0,0,1-5.54,6.14,5.86,5.86,0,0,1-5.64-6.05,5.86,5.86,0,0,1,5.54-6.14A5.86,5.86,0,0,1,54.09,21.7Z"/><path class="cls-8" d="M52.09,20.58a.09.09,0,0,0-.1,0c-.15.16-.31.32-.42.42,0-.11.07-.29.11-.44a.07.07,0,0,0,0-.08.06.06,0,0,0-.08.05,3.45,3.45,0,0,0-.11.46,1.11,1.11,0,0,0-.78-.32.88.88,0,0,0-.88.71.07.07,0,0,0,.07.09,0,0,0,0,0,0,0,.1.1,0,0,0,.09-.07.68.68,0,0,1,.68-.57h0a.89.89,0,0,1,.82.49.08.08,0,0,0,.11,0,.08.08,0,0,0,.05-.11l-.05-.09a5.37,5.37,0,0,0,.51-.49A.09.09,0,0,0,52.09,20.58Z"/><path class="cls-8" d="M44.89,20.64a.09.09,0,0,1,.1,0c.15.16.32.32.43.42,0-.12-.07-.29-.12-.44a.07.07,0,0,1,.05-.09.06.06,0,0,1,.08,0c.06.22.1.36.12.46a1.09,1.09,0,0,1,.77-.33.88.88,0,0,1,.89.69.09.09,0,0,1-.06.1h0a.08.08,0,0,1-.08-.07.72.72,0,0,0-.69-.56h0a.92.92,0,0,0-.81.51.08.08,0,0,1-.11,0,.1.1,0,0,1,0-.11s0,0,0-.08a6.33,6.33,0,0,1-.52-.49A.09.09,0,0,1,44.89,20.64Z"/><path class="cls-8" d="M51,22.27c0,.06.13.08.18,0S51,22.14,51,22.27Z"/><path class="cls-8" d="M51.54,22.08c0,.11.1.23.2.1S51.57,22,51.54,22.08Z"/><path class="cls-8" d="M51.89,22.61c0-.13-.18-.06-.18,0S51.92,22.74,51.89,22.61Z"/><path class="cls-8" d="M51.3,22.64a.09.09,0,0,0,.09-.15C51.29,22.4,51.18,22.55,51.3,22.64Z"/><path class="cls-8" d="M52,22.27c0,.07.16.07.15-.05S52,22.13,52,22.27Z"/><path class="cls-8" d="M46,22.31c0,.06-.13.08-.19,0S46,22.18,46,22.31Z"/><path class="cls-8" d="M45.47,22.13c0,.11-.1.23-.2.11S45.44,22,45.47,22.13Z"/><path class="cls-8" d="M45.13,22.67c0-.13.17-.06.17,0S45.1,22.79,45.13,22.67Z"/><path class="cls-8" d="M45.71,22.69a.09.09,0,0,1-.09-.15C45.72,22.45,45.83,22.6,45.71,22.69Z"/><path class="cls-8" d="M45,22.33c0,.07-.16.08-.15,0S45.06,22.19,45,22.33Z"/><path class="cls-8" d="M48.51,20.82a6.46,6.46,0,0,1,.2,1,4.86,4.86,0,0,1,.17,1.09c0,.25-.18.48-.4.47s-.41-.22-.33-.68c0-.16.11-.55.18-.94A5.17,5.17,0,0,1,48.51,20.82Z"/><path class="cls-8" d="M48.64,25.63a1.59,1.59,0,0,1-1.2-.56.09.09,0,0,1,.14-.11,1.36,1.36,0,0,0,1.06.49,1,1,0,0,0,.83-.53.08.08,0,0,1,.11-.05.1.1,0,0,1,0,.12A1.14,1.14,0,0,1,48.64,25.63Z"/><path class="cls-8" d="M54.07,27.67a5,5,0,0,0,2.15,1.66c.22.09,1.5.92,2.19.44s.34-1,.31-1.38A4.5,4.5,0,0,0,57.61,26a11,11,0,0,1-1.54-2.2,17.62,17.62,0,0,1-.62-2.15,3.13,3.13,0,0,0-1.22-1.82c-.24-.14-.51-.23-.74-.39a5.4,5.4,0,0,1-.79-.92,5,5,0,0,0-2-1.17A3.82,3.82,0,0,0,48.32,17c-.43.12-1.28.75-.67,1.19.33.24.81,0,1.18.12s.43.41.71.48.57-.08.8.07.23.41.4.58a1.09,1.09,0,0,0,.72.23.71.71,0,0,1,.64.37c.08.24-.09.55.07.76s.46.13.67.25a.71.71,0,0,1,.26.73,2,2,0,0,0,0,.81,4.69,4.69,0,0,1,.21.46,1.5,1.5,0,0,1-.05.63A5,5,0,0,0,54.07,27.67Z"/><path class="cls-8" d="M42.94,28.49c0,.26-.73.8-.92,1-.35.3-1,1-1.79.66A2.41,2.41,0,0,1,39,28.32a2.07,2.07,0,0,1,.3-1.59.78.78,0,0,0,.14-.27.91.91,0,0,0,0-.23,2.28,2.28,0,0,1,.15-1.12,4.24,4.24,0,0,1,1-1.45c.25-.26.74-.6,1-.87.65-.74.07-1.78.69-2.55a2,2,0,0,1,.6-.49,1.63,1.63,0,0,0,.35-.23,1.41,1.41,0,0,0,.24-.36,2.77,2.77,0,0,1,1.2-1.44,2,2,0,0,1,1.1-.08,1.15,1.15,0,0,1,.45.16c.42.3.25.94-.07,1.24s-.58.34-.75.62-.11.74-.33,1-.58.3-.85.5c-.45.33-.22,1.15-.43,1.54s-.52.28-.61.55a1.61,1.61,0,0,0,0,.87,1.42,1.42,0,0,1,.12.67c-.07.37-.48.63-.51,1s.23.61.38.91A1.83,1.83,0,0,1,42.94,28.49Z"/><path class="cls-5" d="M55.16,18.93c-.09-1.68-1-5.54-4.14-7.27a4.81,4.81,0,0,0-2.24-.36,5.16,5.16,0,0,0-2.31.29,5.08,5.08,0,0,0-1.06.72,10.1,10.1,0,0,0-1.29,1.24,11.75,11.75,0,0,0-1.93,4.09,9.42,9.42,0,0,0-.49,2,8.34,8.34,0,0,0,.21,2.16,7.41,7.41,0,0,1,3.37-3.27A7.52,7.52,0,0,1,50,17.94a11.73,11.73,0,0,1,5,2.65,2.65,2.65,0,0,1,.26.27S55.2,19.67,55.16,18.93Z"/><path class="cls-6" d="M44.78,17.39l-.72-.22,0,0,.08-.1a2.38,2.38,0,0,0,.44-.69.1.1,0,0,0-.06-.13.1.1,0,0,0-.13.06,2.52,2.52,0,0,1-.41.63l-.08.1-.08.1L43,16.84a.1.1,0,0,0-.13.07.12.12,0,0,0,.07.13l.78.24a6.89,6.89,0,0,0-.71,1.2.11.11,0,0,0,.05.14h0a.13.13,0,0,0,.1-.06,7,7,0,0,1,.73-1.23l.79.25h0a.12.12,0,0,0,.1-.07A.11.11,0,0,0,44.78,17.39Z"/><path class="cls-6" d="M46.72,16.54l-.51-.3a2.81,2.81,0,0,0,.21-.47.1.1,0,0,0-.06-.13.1.1,0,0,0-.13.06,2.48,2.48,0,0,1-.2.44l-.44-.26a.12.12,0,0,0-.13,0,.11.11,0,0,0-.06.14.1.1,0,0,0,.12.08h0l.39.23-.26.37-.05,0a1.41,1.41,0,0,0-.26.42.1.1,0,0,0,.07.13h0a.13.13,0,0,0,.1-.08,1,1,0,0,1,.22-.35l0-.05c.1-.13.19-.26.28-.4l.5.3h.06a.12.12,0,0,0,.09-.05A.11.11,0,0,0,46.72,16.54Z"/><path class="cls-6" d="M48.9,16.18a4.19,4.19,0,0,1-.62-.34c.15-.16.31-.31.48-.46a.11.11,0,0,0,0-.14.1.1,0,0,0-.15,0c-.18.15-.34.32-.51.49a3.42,3.42,0,0,1-.4-.36.11.11,0,0,0-.15,0,.1.1,0,0,0,0,.14,4.72,4.72,0,0,0,.41.37c-.16.18-.32.36-.47.56a.11.11,0,0,0,0,.14.08.08,0,0,0,.07,0,.09.09,0,0,0,.08,0,6.06,6.06,0,0,1,.47-.56,3.48,3.48,0,0,0,.68.38h0a.1.1,0,0,0,0-.2Z"/><path class="cls-6" d="M51,15.44l-.6.37a2.64,2.64,0,0,1-.25-.47.1.1,0,1,0-.19.07,2.49,2.49,0,0,0,.27.51L50,16l-.27.16a.11.11,0,0,0,0,.14.11.11,0,0,0,.09.06l0,0,.28-.16.21-.13a2.62,2.62,0,0,0,.48.46l.06,0a.1.1,0,0,0,.08-.05.09.09,0,0,0,0-.14,2,2,0,0,1-.42-.4l.58-.36a.1.1,0,0,0,0-.14A.1.1,0,0,0,51,15.44Z"/><path class="cls-6" d="M52.47,16.75l.51-.29a.11.11,0,0,0,0-.15.11.11,0,0,0-.14,0l-.42.25a4.17,4.17,0,0,1,0-.5.11.11,0,0,0-.1-.11.13.13,0,0,0-.11.1c0,.21,0,.41,0,.61-.17.09-.34.16-.51.23a.1.1,0,0,0-.06.13.1.1,0,0,0,.1.07h0l.47-.2a2.93,2.93,0,0,0,.07.41.1.1,0,0,0,.1.08h0a.11.11,0,0,0,.08-.13A3.4,3.4,0,0,1,52.47,16.75Z"/><path class="cls-6" d="M54.69,17.53a.11.11,0,0,0-.12-.08l-.34.06c0-.2-.07-.39-.09-.59a.1.1,0,1,0-.2,0c0,.2.05.4.08.6l-.73.13a.1.1,0,0,0-.08.12.1.1,0,0,0,.08.09h0l.73-.13c0,.2.1.39.16.59a.1.1,0,0,0,.08.07h.05a.1.1,0,0,0,.06-.13c0-.19-.1-.38-.14-.57l.33-.06A.1.1,0,0,0,54.69,17.53Z"/><path class="cls-7" d="M51.38,9.28a2.61,2.61,0,1,0-5.15.82C46.91,12.22,51.59,12,51.38,9.28Z"/><path class="cls-6" d="M50.81,8.57s0,0,0,.08a.3.3,0,0,0,0,.1l0,.09a.47.47,0,0,0,.05.1s0,.06.09.06.11-.05.1-.12a.73.73,0,0,0-.1-.2l-.09-.09A.07.07,0,0,0,50.81,8.57Z"/><path class="cls-6" d="M50.33,8.11l.08.13a.24.24,0,0,0,.09.08.08.08,0,0,0,.1,0c0-.05,0-.09,0-.14L50.5,8.1l0,0,0,0-.06,0h0S50.3,8.06,50.33,8.11Z"/><path class="cls-6" d="M49.65,7.63a.07.07,0,0,0,0,.07l.12.09a.19.19,0,0,0,.08,0,.12.12,0,0,0,.08,0c.06,0,0-.09,0-.13l-.16-.07C49.73,7.6,49.66,7.6,49.65,7.63Z"/><path class="cls-6" d="M49.82,8.7s0,.05,0,.07a.3.3,0,0,0,.09.13L50,9a.1.1,0,0,0,.09,0c.06,0,0-.08,0-.12A.88.88,0,0,0,50,8.75C49.9,8.71,49.84,8.68,49.82,8.7Z"/><path class="cls-6" d="M49.62,8.14a.09.09,0,0,0,0,.1.75.75,0,0,0,.15.16c.06,0,.15.1.23.07s.06-.11,0-.17S49.67,8.06,49.62,8.14Z"/><path class="cls-6" d="M50.29,8.59a.1.1,0,0,0,0,.07.94.94,0,0,0,.06.15s.08.1.14.1.07-.05.05-.11S50.34,8.55,50.29,8.59Z"/><path class="cls-2" d="M43.81,25.91c.62-.44,1.9.59,4.57.64s3.7-.95,4.28-.61.66,1.12.76,1.46a2.72,2.72,0,0,1-.28,1.94c-.45.82-3.3,1.38-4.72,1.39-1.13,0-4.55-.54-5-1.48a2.92,2.92,0,0,1-.37-1.66C43.2,26.59,43.41,26.2,43.81,25.91Z"/><path class="cls-9" d="M44.14,28.09a5.24,5.24,0,0,1,.65-2.2,2.65,2.65,0,0,0-.43-.08,5.57,5.57,0,0,0-.63,2.26A4.29,4.29,0,0,0,44,29.72a4.72,4.72,0,0,0,.55.26A4,4,0,0,1,44.14,28.09Z"/><path class="cls-9" d="M45.81,26.17l-.41-.11a5.1,5.1,0,0,0-.14,4.17l.51.14A4.67,4.67,0,0,1,45.81,26.17Z"/><path class="cls-9" d="M46.75,26.38l-.41-.08a6.12,6.12,0,0,0,.17,4.22l.5.08A5.57,5.57,0,0,1,46.75,26.38Z"/><path class="cls-9" d="M52.21,26.91a3.92,3.92,0,0,0-.36-.93l-.4.13a3.25,3.25,0,0,1,.36.9,6.71,6.71,0,0,1,0,3.12l.46-.18A7.25,7.25,0,0,0,52.21,26.91Z"/><path class="cls-9" d="M51.2,27.49a4.22,4.22,0,0,0-.39-1.2l-.41.09a4,4,0,0,1,.39,1.18,7.71,7.71,0,0,1-.21,2.91l.45-.1A7.93,7.93,0,0,0,51.2,27.49Z"/><path class="cls-9" d="M49.5,26.51l-.44,0a5.9,5.9,0,0,1,0,4.16l.44-.05A6.32,6.32,0,0,0,49.5,26.51Z"/><path class="cls-9" d="M48,28.18v-.12c0-.44.05-1.12.09-1.52l-.42,0c0,.42-.08,1.09-.08,1.56v.11a18.31,18.31,0,0,0,.15,2.52l.42,0A18.81,18.81,0,0,1,48,28.18Z"/></g></g></svg>