<svg xmlns="http://www.w3.org/2000/svg" viewBox="0 0 52.42 28.65"><defs><style>.cls-1{fill:#d4e9e5;}.cls-2{fill:#bad3ce;}.cls-3{fill:#4c6b51;}</style></defs><g id="Layer_2" data-name="Layer 2"><g id="Image"><path class="cls-1" d="M3.26,20.93c-7.61-9-.88-17.93,9.81-18.31C18.1,2.44,22.43,0,27.59,0c2.47,0,4.19.84,6.4,1.81,2.67,1.18,4.87,1,7.7.59,5.12-.73,8.48.91,10.22,6,1.62,4.77-.89,10.45-3.57,14.41C46.2,26,42.58,26.64,39,27.22a96.24,96.24,0,0,1-13.54,1.42A70.28,70.28,0,0,1,12,27.57C7.53,26.77,6.1,24.3,3.26,20.93Z"/><path class="cls-2" d="M8.57,22.43C2.45,15.16,7.86,8,16.48,7.69,20.53,7.55,24,5.55,28.17,5.58A12.12,12.12,0,0,1,33.32,7c2.15,1,3.92.79,6.2.47,4.12-.59,6.83.73,8.23,4.85C49.06,16.2,47,20.78,44.88,24c-1.72,2.55-4.65,3.06-7.52,3.53a76.74,76.74,0,0,1-10.9,1.14,55.93,55.93,0,0,1-10.81-.86C12,27.13,10.86,25.15,8.57,22.43Z"/><path class="cls-3" d="M42.32,20c2.43-2.91,3.44-6.65,2.83-6.54s-.88,3.4-3.23,6.2a25.52,25.52,0,0,1-8.11,6.11A21.38,21.38,0,0,0,30.22,28a25.37,25.37,0,0,1,3.21-5.87c.22-.29,1.53-1.87,1.9-2.43,1.89-2.88,2.39-8.93,1.88-9s-.51,5.92-2.31,8.67c-.36.54-1.66,2.11-1.89,2.4a26.18,26.18,0,0,0-3.29,6,37,37,0,0,0,1.05-12.3c-.32-3-2-7.68-2.3-7.27s.84,3.54,1.28,5.71c.89,4.44.59,8.7-.82,14.16-2.52-.37-5.55-6.16-5.55-6.16-1.53-3.06-2.51-10.28-2.94-10s.91,7.16,2.48,10.28c0,0,2.28,4.57,4,5.94a17.1,17.1,0,0,1-1.88-.44,19.18,19.18,0,0,1-2.64-1.12,26.51,26.51,0,0,1-6.25-3.78A21.06,21.06,0,0,1,13.71,20C12.4,18.4,10.46,14,10.08,14.37s1.88,4.32,3.22,6a22.75,22.75,0,0,0,2.55,2.79A26.82,26.82,0,0,0,22.22,27a19.29,19.29,0,0,0,2.72,1.15,19.2,19.2,0,0,0,2,.46c1.19,0,2.39-.11,3.6-.22a19.59,19.59,0,0,1,3.56-2.23A26.06,26.06,0,0,0,42.32,20Z"/><path class="cls-1" d="M24.39,8.2A.38.38,0,1,1,24,7.82.38.38,0,0,1,24.39,8.2Z"/><path class="cls-1" d="M27.76,10.6a.5.5,0,1,1-.49-.49A.49.49,0,0,1,27.76,10.6Z"/><circle class="cls-1" cx="23.49" cy="13.2" r="0.44"/><circle class="cls-1" cx="28.84" cy="16.67" r="0.45"/><circle class="cls-1" cx="25.13" cy="20.12" r="0.53"/><circle class="cls-1" cx="28.39" cy="21.33" r="0.55"/><circle class="cls-1" cx="19.21" cy="9.29" r="0.44"/><path class="cls-1" d="M14.38,10.68A.36.36,0,0,1,14,11a.36.36,0,0,1,0-.71A.36.36,0,0,1,14.38,10.68Z"/><path class="cls-1" d="M18.42,12.85a.53.53,0,0,1-.53.53.53.53,0,1,1,0-1.06A.53.53,0,0,1,18.42,12.85Z"/><path class="cls-1" d="M14.72,14.77a.49.49,0,1,1-.48-.49A.49.49,0,0,1,14.72,14.77Z"/><path class="cls-1" d="M20.09,19.36a.34.34,0,1,1-.34-.34A.34.34,0,0,1,20.09,19.36Z"/><path class="cls-1" d="M17.06,18.66a.56.56,0,1,1-.56-.56A.56.56,0,0,1,17.06,18.66Z"/><path class="cls-1" d="M21.7,23.84a.47.47,0,1,1-.47-.46A.47.47,0,0,1,21.7,23.84Z"/><circle class="cls-1" cx="18.52" cy="27.25" r="0.46"/><path class="cls-1" d="M15.23,23.85a.36.36,0,1,1-.36-.35A.36.36,0,0,1,15.23,23.85Z"/><path class="cls-1" d="M11.66,23.69a.43.43,0,1,1-.43-.43A.44.44,0,0,1,11.66,23.69Z"/><path class="cls-1" d="M11.26,19.36a.34.34,0,1,1-.34-.34A.34.34,0,0,1,11.26,19.36Z"/><path class="cls-1" d="M8.39,17.81a.57.57,0,0,1-.57.56.56.56,0,1,1,0-1.12A.57.57,0,0,1,8.39,17.81Z"/><path class="cls-1" d="M8.6,13.08a.38.38,0,0,1-.39.39.39.39,0,0,1-.39-.39.4.4,0,0,1,.39-.39A.39.39,0,0,1,8.6,13.08Z"/><circle class="cls-1" cx="30.75" cy="7.66" r="0.43"/><circle class="cls-1" cx="34.55" cy="9.13" r="0.51"/><path class="cls-1" d="M32.14,12a.46.46,0,1,1-.46-.46A.47.47,0,0,1,32.14,12Z"/><path class="cls-1" d="M35,14.48a.57.57,0,0,1-.58.57.56.56,0,0,1-.57-.57.57.57,0,0,1,.57-.58A.58.58,0,0,1,35,14.48Z"/><path class="cls-1" d="M32.8,18a.35.35,0,1,1-.34-.35A.35.35,0,0,1,32.8,18Z"/><path class="cls-1" d="M28.12,25.9a.35.35,0,1,1-.35-.35A.35.35,0,0,1,28.12,25.9Z"/><path class="cls-1" d="M26.21,15.6a.35.35,0,1,1-.7,0,.35.35,0,0,1,.7,0Z"/><path class="cls-1" d="M34.66,23.46a.42.42,0,1,1-.84,0,.42.42,0,1,1,.84,0Z"/><circle class="cls-1" cx="38.11" cy="21.99" r="0.44"/><path class="cls-1" d="M37.67,18.42a.47.47,0,0,1-.48.48.48.48,0,0,1,0-1A.47.47,0,0,1,37.67,18.42Z"/><path class="cls-1" d="M42.31,17.65a.64.64,0,0,1-.64.64.64.64,0,0,1-.63-.64.63.63,0,0,1,.63-.63A.64.64,0,0,1,42.31,17.65Z"/><path class="cls-1" d="M40.05,14.71a.47.47,0,0,1-.93,0,.47.47,0,1,1,.93,0Z"/><path class="cls-1" d="M39.1,10a.52.52,0,0,1-.52.53.53.53,0,1,1,0-1A.52.52,0,0,1,39.1,10Z"/><path class="cls-1" d="M43.45,9.13a.38.38,0,1,1-.38-.38A.38.38,0,0,1,43.45,9.13Z"/><circle class="cls-1" cx="42.54" cy="12.68" r="0.52"/><path class="cls-1" d="M47.51,16a.49.49,0,1,1-.49-.49A.49.49,0,0,1,47.51,16Z"/><path class="cls-1" d="M44.42,19.82a.29.29,0,0,1-.3.3.3.3,0,0,1-.3-.3.31.31,0,0,1,.3-.3A.3.3,0,0,1,44.42,19.82Z"/><path class="cls-1" d="M43.13,24.16a.45.45,0,1,1-.45-.45A.45.45,0,0,1,43.13,24.16Z"/><path class="cls-1" d="M39.28,24.78a.39.39,0,0,1-.39.4.4.4,0,0,1,0-.8A.39.39,0,0,1,39.28,24.78Z"/><path class="cls-1" d="M35.54,26.66a.55.55,0,0,1-1.1,0,.55.55,0,0,1,1.1,0Z"/></g></g></svg>