<svg xmlns="http://www.w3.org/2000/svg" viewBox="0 0 31.09 58.73"><defs><style>.cls-1{fill:#d4e9e5;}.cls-2{fill:#bad3ce;}.cls-3{fill:#4c6b51;}</style></defs><g id="Layer_2" data-name="Layer 2"><g id="Image"><path class="cls-1" d="M.17,25.74C.87,16.9.83,10.07,1.91,7.05c2.54-7,10-6.94,12.84-7a16,16,0,0,1,10.62,4.2C28.63,7.26,30,17.07,30.42,22.52S32.31,41.35,29,45.24s-12.14,4.3-14.2,4.31C8.61,49.59-1.43,45.94.17,25.74Z"/><path class="cls-2" d="M3,28.07c.57-7.23.54-12.82,1.43-15.29C6.53,7,12.63,7.1,15,7a13.14,13.14,0,0,1,8.69,3.45c2.67,2.49,3.82,10.51,4.14,15S29.33,40.84,26.58,44,16.65,47.55,15,47.56C9.94,47.59,1.72,44.6,3,28.07Z"/><path class="cls-3" d="M15.23,43.08c0-1.17-.05-2.39-.07-3.64a89.23,89.23,0,0,0,10.67-3.18c1.72-.6,3.48-1.2,5.26-1.75v-.4c-1.82.56-3.62,1.18-5.38,1.79a92.41,92.41,0,0,1-10.56,3.16c0-1.29-.05-2.58-.07-3.85L31,30.72c0-.13,0-.26,0-.39L15.07,34.81c0-1.25,0-2.47-.06-3.63,1.54-.39,3.09-.84,4.59-1.35s3-1.06,4.5-1.61l1.41-.52c1.71-.63,3.44-1.24,5.17-1.83l0-.39q-2.66.9-5.27,1.86L24,27.86c-1.47.55-3,1.11-4.49,1.61s-3,.93-4.47,1.32c0-1.37,0-2.64,0-3.74A5.58,5.58,0,0,1,16,26.64c4.76-1.51,9.58-3,14.39-4.4l0-.39c-4.84,1.43-9.69,2.91-14.47,4.43a6.74,6.74,0,0,0-1,.34c0-1,0-1.85,0-2.47V22.86A86.67,86.67,0,0,0,30,18l-.06-.4A85.36,85.36,0,0,1,15,22.47c0-1.06,0-2.43,0-4l0-.13a85.52,85.52,0,0,0,14.11-5.27c0-.13-.05-.25-.08-.38A85,85,0,0,1,15,18c0-1.09,0-2.25,0-3.43a51.94,51.94,0,0,0,7.41-3.42L27.76,8.3l-.14-.36-5.36,2.83A52.89,52.89,0,0,1,15,14.12c0-1.17,0-2.36,0-3.52A57.41,57.41,0,0,0,25.6,4.45l-.23-.24,0,0a56.9,56.9,0,0,1-10.29,6V7c2.26-1.68,4.47-3.48,6.58-5.35l-.37-.18c-2,1.77-4.09,3.46-6.22,5.06a27.3,27.3,0,0,0-.23-5.15c-.4,0-.34,2.32-.35,2.82l0,2.36c-1.81-1.07-3.61-2.2-5.35-3.36A6.35,6.35,0,0,1,7.66,2.06a3.14,3.14,0,0,1-.47-.73l-.35.16a4,4,0,0,0,.53.82A6.44,6.44,0,0,0,8.86,3.52C10.67,4.73,12.54,5.9,14.41,7c0,1.13,0,2.25,0,3.38A23.59,23.59,0,0,0,10.73,8.2l-.62-.26A11,11,0,0,1,8.77,7.3a11.72,11.72,0,0,1-1.22-.87l-.34-.27A32,32,0,0,0,3.73,3.88a3.47,3.47,0,0,0-.25.29A33.26,33.26,0,0,1,7,6.46l.34.27a12.51,12.51,0,0,0,1.26.9A13.5,13.5,0,0,0,10,8.29l.61.26a23.63,23.63,0,0,1,3.79,2.3l0,3.11A67.63,67.63,0,0,1,1.56,8.33c0,.13-.05.26-.08.39a67.19,67.19,0,0,0,12.85,5.64c0,.67,0,1.33,0,2s0,1.18,0,1.76a38.86,38.86,0,0,1-9.78-3.34c-1-.46-2.12-.94-3.13-1.51L1,13l0,.42.25.15c1,.57,2.12,1.05,3.17,1.52a39.48,39.48,0,0,0,9.93,3.38c0,1.32,0,2.65,0,4A32.73,32.73,0,0,1,8.11,20l-2-1c-.88-.4-1.77-.78-2.63-1.15L.75,16.7l0,.4,2.57,1.09c.86.37,1.75.75,2.62,1.15.68.31,1.37.65,2,1a32.61,32.61,0,0,0,6.34,2.56v.45c0,1.07,0,2.21,0,3.39A67.83,67.83,0,0,1,.5,21.05l0,.41A67.68,67.68,0,0,0,14.24,27.1c0,1.11,0,2.24-.05,3.4a32.94,32.94,0,0,0-4.61-1.82l-.95-.33a83.5,83.5,0,0,1-8.4-3.42l0,.41a84.82,84.82,0,0,0,8.3,3.37l1,.33a33.75,33.75,0,0,1,4.73,1.88c0,1.17,0,2.35,0,3.52C9.42,33,4.65,31.37,0,29.55V30c4.66,1.82,9.42,3.46,14.2,4.88,0,.71,0,2.22,0,4.16L9.1,37.11c-1.71-.63-3.49-1.29-5.18-2-.85-.39-1.72-.81-2.55-1.22L.14,33.23c0,.15,0,.3,0,.45l1,.5c.84.41,1.7.84,2.57,1.23,1.7.76,3.48,1.42,5.2,2.05l5.25,1.94c0,1.09,0,2.3,0,3.56-.61-.2-1.21-.44-1.8-.68L7.69,40.34c-2.28-.92-4.61-1.87-6.91-2.88,0,.15.07.31.11.46,2.22,1,4.46,1.88,6.65,2.78l4.77,1.93c.63.26,1.28.52,1.94.73,0,1,0,2,0,3-2.44-1.06-4.95-2-7.47-2.85L6,43.24c-1.2-.38-2.42-.78-3.59-1.28.09.18.18.36.28.53,1,.42,2.13.77,3.19,1.11l.87.29c2.57.84,5.12,1.81,7.59,2.9.1,6,.29,11.94.73,11.94s.42-5.81.36-8.15c0-.89,0-2.11-.07-3.54,5-1.87,10-3.61,15.13-5.19,0-.14.07-.28.1-.42C25.41,43,20.3,44.76,15.3,46.64c0-1,0-2-.07-3.16A105,105,0,0,1,26,39.92c1.63-.48,3.3-1,5-1.49L31,38c-1.71.54-3.42,1-5.1,1.53A103.72,103.72,0,0,0,15.23,43.08Z"/><circle class="cls-1" cx="13.22" cy="7.51" r="0.39"/><path class="cls-1" d="M9.62,9.79a.34.34,0,1,1-.33-.33A.34.34,0,0,1,9.62,9.79Z"/><path class="cls-1" d="M13,11.88a.46.46,0,0,1-.46.45.45.45,0,0,1-.45-.45.46.46,0,0,1,.45-.46A.47.47,0,0,1,13,11.88Z"/><path class="cls-1" d="M6.16,14a.29.29,0,1,1-.29-.29A.29.29,0,0,1,6.16,14Z"/><circle class="cls-1" cx="11.13" cy="15.88" r="0.31"/><path class="cls-1" d="M7.49,18.16a.68.68,0,1,1-.67-.68A.68.68,0,0,1,7.49,18.16Z"/><path class="cls-1" d="M11.74,19.49a.49.49,0,1,1-.49-.49A.49.49,0,0,1,11.74,19.49Z"/><path class="cls-1" d="M18.16,19.65a.49.49,0,1,1-1,0,.49.49,0,0,1,1,0Z"/><circle class="cls-1" cx="16.58" cy="14.74" r="0.52"/><path class="cls-1" d="M20.84,12.07a.4.4,0,1,1-.4-.4A.4.4,0,0,1,20.84,12.07Z"/><path class="cls-1" d="M19.3,8.64A.31.31,0,1,1,19,8.33.31.31,0,0,1,19.3,8.64Z"/><circle class="cls-1" cx="24.41" cy="12.78" r="0.37"/><path class="cls-1" d="M24.21,15.12a.67.67,0,1,1-.67-.67A.67.67,0,0,1,24.21,15.12Z"/><circle class="cls-1" cx="22.15" cy="19.49" r="0.39"/><path class="cls-1" d="M24.82,20.12a.64.64,0,0,1-1.28,0,.64.64,0,0,1,.64-.64A.64.64,0,0,1,24.82,20.12Z"/><path class="cls-1" d="M25.22,22.66a.34.34,0,1,1-.34-.34A.34.34,0,0,1,25.22,22.66Z"/><path class="cls-1" d="M19.84,23.86a.41.41,0,0,1-.82,0,.41.41,0,0,1,.82,0Z"/><path class="cls-1" d="M16.47,26.33a.41.41,0,0,1-.41.42.42.42,0,0,1-.42-.42.41.41,0,0,1,.42-.41A.41.41,0,0,1,16.47,26.33Z"/><path class="cls-1" d="M19.48,27.77a.48.48,0,0,1-.49.48.47.47,0,0,1-.48-.48.48.48,0,0,1,.48-.49A.49.49,0,0,1,19.48,27.77Z"/><path class="cls-1" d="M24.85,27.86a.35.35,0,0,1-.35.35.36.36,0,0,1,0-.71A.36.36,0,0,1,24.85,27.86Z"/><path class="cls-1" d="M23,31a.46.46,0,0,1-.92,0A.46.46,0,0,1,23,31Z"/><path class="cls-1" d="M19,33.24a.32.32,0,0,1-.32.33.33.33,0,0,1-.33-.33.32.32,0,0,1,.33-.32A.32.32,0,0,1,19,33.24Z"/><path class="cls-1" d="M17.68,36.79a.41.41,0,0,1-.41.41.41.41,0,0,1-.41-.41.42.42,0,0,1,.41-.41A.41.41,0,0,1,17.68,36.79Z"/><circle class="cls-1" cx="25.76" cy="36.38" r="0.54"/><path class="cls-1" d="M23.14,39.58a.49.49,0,0,1-.48.48.48.48,0,0,1-.47-.48.47.47,0,0,1,.47-.47A.48.48,0,0,1,23.14,39.58Z"/><circle class="cls-1" cx="22.54" cy="34.89" r="0.47"/><path class="cls-1" d="M12.06,28.24a.3.3,0,1,1-.6,0,.3.3,0,1,1,.6,0Z"/><circle class="cls-1" cx="11.19" cy="24.62" r="0.45"/><circle class="cls-1" cx="5.87" cy="21.96" r="0.41"/><path class="cls-1" d="M7.81,26.33a.68.68,0,1,1-.68-.67A.67.67,0,0,1,7.81,26.33Z"/><path class="cls-1" d="M5.56,28.74A.58.58,0,1,1,5,28.16.58.58,0,0,1,5.56,28.74Z"/><path class="cls-1" d="M9.63,31.47a.46.46,0,0,1-.47.46.45.45,0,0,1-.46-.46A.46.46,0,0,1,9.16,31,.47.47,0,0,1,9.63,31.47Z"/><path class="cls-1" d="M12.66,36a.6.6,0,1,1-.6-.61A.6.6,0,0,1,12.66,36Z"/><path class="cls-1" d="M6.51,34.32a.58.58,0,1,1-.58-.58A.58.58,0,0,1,6.51,34.32Z"/><circle class="cls-1" cx="12.96" cy="32.8" r="0.42"/><path class="cls-1" d="M5.89,38.31a.41.41,0,1,1-.81,0,.41.41,0,1,1,.81,0Z"/><path class="cls-1" d="M10.07,37.47a.29.29,0,0,1-.28.28.28.28,0,0,1-.27-.28.27.27,0,0,1,.27-.27A.28.28,0,0,1,10.07,37.47Z"/><path class="cls-1" d="M13.92,41.42a.32.32,0,0,1-.32.32.32.32,0,1,1,0-.64A.32.32,0,0,1,13.92,41.42Z"/><path class="cls-1" d="M9.67,43.26a.51.51,0,1,1-.51-.51A.51.51,0,0,1,9.67,43.26Z"/><path class="cls-1" d="M12.82,44.59a.43.43,0,1,1-.43-.43A.43.43,0,0,1,12.82,44.59Z"/><path class="cls-1" d="M20.34,44.15a.53.53,0,1,1-.53-.53A.52.52,0,0,1,20.34,44.15Z"/><path class="cls-1" d="M25.29,42.3a.42.42,0,1,1-.42-.41A.41.41,0,0,1,25.29,42.3Z"/><path class="cls-1" d="M10.24,39.9a.45.45,0,1,1-.45-.44A.45.45,0,0,1,10.24,39.9Z"/><path class="cls-1" d="M18,41a.32.32,0,0,1-.63,0A.32.32,0,1,1,18,41Z"/></g></g></svg>