<svg xmlns="http://www.w3.org/2000/svg" viewBox="0 0 25.43 33.83"><defs><style>.cls-1{fill:#d4e9e5;}.cls-2{fill:#bad3ce;}.cls-3{fill:#4c6b51;}</style></defs><g id="Layer_2" data-name="Layer 2"><g id="Image"><path class="cls-1" d="M24.33,9.23A14.71,14.71,0,0,0,15.17.39c-2.64-.85-5.55-.2-8.08.93C2.12,3.54.22,9.83,0,12.79c-.32,5.29,1.07,14.81,4.69,18.7,2.16,2.32,9,3.14,12.23,1.42,4.25-2.27,6.47-6.6,7.42-9.59a20.14,20.14,0,0,0,.79-3.84C25.57,16.05,25.65,12.42,24.33,9.23Z"/><path class="cls-2" d="M22.87,13.48a12.5,12.5,0,0,0-8-7.32,10.59,10.59,0,0,0-7.07.78c-4.33,1.83-6,7-6.15,9.48-.28,4.38.93,12.26,4.09,15.47,1.89,1.93,7.87,2.6,10.69,1.17a13.77,13.77,0,0,0,6.5-7.93A16.43,16.43,0,0,0,23.6,22C24,19.12,24,16.12,22.87,13.48Z"/><path class="cls-3" d="M14.1,33c3.81-2.85,6.5-7.61,7.56-13.41a13.72,13.72,0,0,0,.18-4.68.28.28,0,1,0-.56.09,13.13,13.13,0,0,1-.19,4.49c-1,5.66-3.64,10.29-7.33,13.05l-.81.57-.49.35.39-1.2c.34-1.08.7-2.19,1.12-3.26.15-.39.32-.78.48-1.16.26-.6.52-1.22.74-1.85a29.27,29.27,0,0,0,1.09-4.39,52.82,52.82,0,0,0,1.07-9.88.28.28,0,0,0-.29-.28h0a.28.28,0,0,0-.28.29,52.46,52.46,0,0,1-1.06,9.76,29.47,29.47,0,0,1-1.07,4.31c-.22.61-.48,1.22-.73,1.82l-.49,1.17C13,29.9,12.65,31,12.3,32.12c-.06.17-.11.35-.17.53-.12-1.27-.19-2.55-.26-3.81a131.77,131.77,0,0,1-.15-19.27.29.29,0,0,0-.58-.05,135.72,135.72,0,0,0,.15,19.35c.08,1.37.16,2.75.3,4.13a45.76,45.76,0,0,1-4-8.25,27.14,27.14,0,0,1-1.43-8,.29.29,0,0,0-.28-.28h0a.3.3,0,0,0-.28.3,27.94,27.94,0,0,0,1.45,8.2,40.37,40.37,0,0,0,3.13,6.77c-.14-.16-.29-.31-.43-.46a16.28,16.28,0,0,0-1.33-1.18c-.39-.33-.8-.67-1.17-1a10,10,0,0,1-2.89-6,.3.3,0,0,0-.32-.26.29.29,0,0,0-.25.32,10.57,10.57,0,0,0,3.06,6.31c.39.37.8.72,1.21,1.05s.88.74,1.28,1.14a17.59,17.59,0,0,1,1.31,1.55l.48.58a14.34,14.34,0,0,0,1.85,0l.29-.21Z"/><path class="cls-1" d="M7.31,11.17c.07.15.19.32.36.32s.3-.22.34-.41a3,3,0,0,0,0-1,1.21,1.21,0,0,0-.48-.94.22.22,0,0,0-.34.14A4,4,0,0,0,7.31,11.17Z"/><path class="cls-1" d="M9.43,12.05a1.43,1.43,0,0,0,.15,1.3c.13.15.37.27.5.12a.47.47,0,0,0,.06-.2c0-.11,0-.23,0-.34a3.07,3.07,0,0,0-.23-1.08C9.73,11.41,9.53,11.79,9.43,12.05Z"/><path class="cls-1" d="M5.57,14.2c.17,0,.16-1.13-.09-1.56a.38.38,0,0,0-.31-.24c-.13,0-.26,0-.28.24a3.38,3.38,0,0,0,.3,1.21C5.26,14,5.39,14.21,5.57,14.2Z"/><path class="cls-1" d="M8.7,15.17c-.22.12-.24.51-.25.72s.14,1.06.53.59C9.15,16.25,9.31,14.81,8.7,15.17Z"/><path class="cls-1" d="M7.58,17.22a2.72,2.72,0,0,1,.06.75,2.18,2.18,0,0,1,.06.84.26.26,0,0,1-.21.2.36.36,0,0,1-.25-.11,1.45,1.45,0,0,1-.4-1.16C6.87,17.37,7.33,16.61,7.58,17.22Z"/><path class="cls-1" d="M9.62,19c-.32.13-.29.85-.26,1.09s.16.27.23.26C9.89,20.3,9.91,18.87,9.62,19Z"/><path class="cls-1" d="M12.64,7.27c-.18-.06-.28.18-.28.18a5.34,5.34,0,0,0,0,1.13.5.5,0,0,0,.24.48.2.2,0,0,0,.13,0c.09,0,.12-.1.14-.17a2.35,2.35,0,0,0,0-1.26A.51.51,0,0,0,12.64,7.27Z"/><path class="cls-1" d="M15.58,9a3.08,3.08,0,0,0-.34,1.72.22.22,0,0,0,.23.17.31.31,0,0,0,.14-.09,1.54,1.54,0,0,0,.3-.49C16,10.07,16.06,8.64,15.58,9Z"/><path class="cls-1" d="M13.22,12.59c-.38,0-.54.54-.54.85s-.06.82.33.94.52-.32.57-.83S13.48,12.59,13.22,12.59Z"/><path class="cls-1" d="M14.51,15.9a.38.38,0,0,0-.29.23,4.68,4.68,0,0,0-.28,1.51c0,.1,0,.23.15.25s.24-.1.3-.21a3.59,3.59,0,0,0,.37-1.37.57.57,0,0,0,0-.26A.26.26,0,0,0,14.51,15.9Z"/><path class="cls-1" d="M18.87,12.12c-.13,0-.22.14-.27.26a2.93,2.93,0,0,0-.08.82,2.71,2.71,0,0,0,0,.4.4.4,0,0,0,.14.27.26.26,0,0,0,.33-.09.72.72,0,0,0,.1-.36,4.33,4.33,0,0,0,0-.95C19.09,12.32,19,12.13,18.87,12.12Z"/><path class="cls-1" d="M20.59,14.88a.46.46,0,0,0-.08-.3c-.14-.13-.38,0-.51.12s-.15.15-.26.56a1.15,1.15,0,0,0,.08.9.25.25,0,0,0,.3,0,.7.7,0,0,0,.21-.24A2.24,2.24,0,0,0,20.59,14.88Z"/><path class="cls-1" d="M17.36,23.85a.23.23,0,0,0-.06-.21.34.34,0,0,0-.41.08c-.11.11-.11.11-.2.39a.67.67,0,0,0,.07.62.21.21,0,0,0,.23,0,.44.44,0,0,0,.16-.17A1.28,1.28,0,0,0,17.36,23.85Z"/><path class="cls-1" d="M18.49,18.53c0-.12,0-.27-.06-.33s-.27,0-.36.12-.55.89-.2,1.09S18.44,18.78,18.49,18.53Z"/><path class="cls-1" d="M17.84,30c-.07.09-.15.21-.1.32s.24.11.37.05.91-.51.7-.85S18,29.75,17.84,30Z"/><path class="cls-1" d="M14.63,20c-.09,0-.24.11-.29.25s-.18.72.1.77.28-.26.33-.51S14.84,20,14.63,20Z"/><path class="cls-1" d="M19,23c-.15-.08-.32.07-.4.21-.25.44.34.72.49.16A.34.34,0,0,0,19,23Z"/><path class="cls-1" d="M20.45,18.52a.45.45,0,0,0-.34.3,1.17,1.17,0,0,0,0,.46c0,.34.23,1,.46.38a1.67,1.67,0,0,0,0-1.06.15.15,0,0,0-.05-.07Z"/><path class="cls-1" d="M22.77,21.77a.54.54,0,0,0-.55.4c-.21.74.12.93.22.93a.37.37,0,0,0,.32-.27C23.11,22,22.85,21.77,22.77,21.77Z"/><path class="cls-1" d="M13,21.23a.56.56,0,0,0-.45.51c0,.78.32.89.42.87a.38.38,0,0,0,.25-.34C13.33,21.36,13,21.22,13,21.23Z"/><path class="cls-1" d="M3.75,16.25a.36.36,0,0,0-.34-.14c-.41.08-.33,1.05-.15,1.42a.75.75,0,0,0,.5.45.2.2,0,0,0,.11,0A.23.23,0,0,0,4,17.85a2.45,2.45,0,0,0-.05-1.23A1,1,0,0,0,3.75,16.25Z"/><path class="cls-1" d="M16.41,28.12a.25.25,0,0,0-.11-.24c-.24-.17-.63.31-.7.57a.53.53,0,0,0,0,.46.13.13,0,0,0,.07.06s.06,0,.09,0a1.36,1.36,0,0,0,.52-.59A.63.63,0,0,0,16.41,28.12Z"/><path class="cls-1" d="M20.65,27a.31.31,0,0,0,.12.24c.26.16.62-.35.68-.62s.13-.39-.08-.45-.53.35-.64.59A.53.53,0,0,0,20.65,27Z"/><path class="cls-1" d="M6,24.4c-.27-.25-.33,0-.3.26a1.83,1.83,0,0,0,.42.94c.07.09.17.17.26.13a1.15,1.15,0,0,0,0-.45A1.27,1.27,0,0,0,6,24.4Z"/><path class="cls-1" d="M13.82,25.08c-.07-.31-.23-.22-.34-.07a1.19,1.19,0,0,0-.14.76c0,.09,0,.22.13.24s.18-.12.24-.2A.86.86,0,0,0,13.82,25.08Z"/><path class="cls-1" d="M9.83,27.81s0,.05,0,.08v0a1.18,1.18,0,0,0,.18.45c.07.11.22.22.33.14a.24.24,0,0,0,.07-.12.87.87,0,0,0-.36-1,.2.2,0,0,0-.11,0,.15.15,0,0,0-.06.09,1,1,0,0,0-.06.35v0Z"/><path class="cls-1" d="M8.88,24.42s.07,0,.11,0,.09-.05.12-.09a.82.82,0,0,0-.29-1.14s-.23-.18-.29.21A.93.93,0,0,0,8.88,24.42Z"/><path class="cls-1" d="M5.24,20.73a.46.46,0,0,0-.3-.25c-.13,0-.36,0-.33.28a.81.81,0,0,0,.45.64.17.17,0,0,0,.12,0A.52.52,0,0,0,5.24,20.73Z"/><path class="cls-1" d="M8.14,31.93c-.19-.25-.75-.64-.86-.51s.26.79.57.94a.35.35,0,0,0,.28,0,.24.24,0,0,0,.12-.23A.44.44,0,0,0,8.14,31.93Z"/></g></g></svg>