<svg xmlns="http://www.w3.org/2000/svg" viewBox="0 0 43.12 26.63"><defs><style>.cls-1{fill:#d4e9e5;}.cls-2{fill:#bad3ce;}.cls-3{fill:#4c6b51;}</style></defs><g id="Layer_2" data-name="Layer 2"><g id="Image"><path class="cls-1" d="M33.19,26.08A12.55,12.55,0,0,0,40,22.26a13.3,13.3,0,0,0,2.26-4,11.59,11.59,0,0,0,.85-4.17,9.82,9.82,0,0,0-1.31-4.5,17.15,17.15,0,0,0-8.36-7.21A32.22,32.22,0,0,0,22.51,0C17-.29,10.33,2.81,8,4a15.43,15.43,0,0,0-6,5.07A11.73,11.73,0,0,0,0,15.72a6.71,6.71,0,0,0,.56,2.73,8,8,0,0,0,3.27,3.14c6.36,3.83,14,4.79,21.44,5A31.82,31.82,0,0,0,33.19,26.08Z"/><path class="cls-2" d="M29.79,25.23a11.33,11.33,0,0,0,6.12-3.43,11.91,11.91,0,0,0,2-3.61,10.09,10.09,0,0,0,.76-3.75,8.87,8.87,0,0,0-1.17-4A15.29,15.29,0,0,0,30,3.94a28.92,28.92,0,0,0-9.82-2.1c-5-.28-10.93,2.5-13.06,3.57A13.85,13.85,0,0,0,1.72,10a10.47,10.47,0,0,0-1.72,6,6,6,0,0,0,.51,2.45A7.12,7.12,0,0,0,3.44,21.2c5.7,3.44,12.58,4.29,19.24,4.49A28.19,28.19,0,0,0,29.79,25.23Z"/><path class="cls-3" d="M33,21c2.42-2.06,3.77-5,3.25-5s-1.2,2.67-3.53,4.66a21.6,21.6,0,0,1-7.55,3.91A17.14,17.14,0,0,0,21.92,26a21.44,21.44,0,0,1,3.47-4.4c.22-.21,1.53-1.33,1.91-1.74,2-2.11,3.22-7,2.81-7.13S28.86,17.5,27,19.52c-.37.39-1.66,1.51-1.89,1.72a21.57,21.57,0,0,0-3.56,4.52,30.9,30.9,0,0,0,2.59-10c.15-2.55-.56-6.62-.89-6.32s.2,3,.26,4.88a25.23,25.23,0,0,1-2.65,11.58c-2-.66-3.72-5.86-3.72-5.86-.84-2.74-.64-8.84-1-8.7s-.26,6,.6,8.83c0,0,1.25,4.09,2.52,5.47A15.12,15.12,0,0,1,17.73,25a16.64,16.64,0,0,1-2-1.3,22.06,22.06,0,0,1-4.63-4,18.42,18.42,0,0,1-1.67-2.6c-.85-1.54-1.84-5.46-2.2-5.18s1,3.82,1.82,5.39A18.72,18.72,0,0,0,10.73,20a22.3,22.3,0,0,0,4.72,4.07,17.11,17.11,0,0,0,2.08,1.33c.5.25,1,.46,1.55.66,1,.14,2,.24,3,.32A16.33,16.33,0,0,1,25.34,25,22,22,0,0,0,33,21Z"/><path class="cls-1" d="M19.11,8.83a.3.3,0,0,1-.36.26.32.32,0,0,1-.26-.36.31.31,0,0,1,.62.1Z"/><path class="cls-1" d="M22.32,11.29a.43.43,0,0,1-.48.34.42.42,0,0,1-.34-.48.41.41,0,0,1,.48-.34A.42.42,0,0,1,22.32,11.29Z"/><path class="cls-1" d="M18.8,12.9a.38.38,0,0,1-.43.3.37.37,0,0,1,.12-.73A.37.37,0,0,1,18.8,12.9Z"/><path class="cls-1" d="M22.73,16.5a.38.38,0,0,1-.43.31.37.37,0,0,1-.31-.43.38.38,0,0,1,.43-.31A.39.39,0,0,1,22.73,16.5Z"/><path class="cls-1" d="M19.25,18.85a.44.44,0,0,1-.51.36.44.44,0,1,1,.15-.87A.44.44,0,0,1,19.25,18.85Z"/><path class="cls-1" d="M21.79,20.31a.46.46,0,0,1-.53.38.47.47,0,0,1-.38-.54.46.46,0,0,1,.91.16Z"/><path class="cls-1" d="M15.81,9.06a.37.37,0,1,1-.73-.12.37.37,0,0,1,.73.12Z"/><path class="cls-1" d="M10.49,10a.29.29,0,0,1-.34.24.29.29,0,1,1,.34-.24Z"/><path class="cls-1" d="M14.3,11.83a.45.45,0,0,1-.52.37.45.45,0,0,1,.15-.88A.45.45,0,0,1,14.3,11.83Z"/><path class="cls-1" d="M11,12.9a.4.4,0,0,1-.47.33.4.4,0,0,1-.33-.47.41.41,0,1,1,.8.14Z"/><path class="cls-1" d="M14.76,17.44a.28.28,0,0,1-.32.23.28.28,0,0,1-.23-.33.28.28,0,1,1,.55.1Z"/><path class="cls-1" d="M12.36,16.44A.47.47,0,1,1,12,15.9.47.47,0,0,1,12.36,16.44Z"/><path class="cls-1" d="M15.46,21.37a.39.39,0,1,1-.32-.46A.4.4,0,0,1,15.46,21.37Z"/><path class="cls-1" d="M12.74,23.8a.38.38,0,0,1-.44.31.38.38,0,1,1,.44-.31Z"/><path class="cls-1" d="M10.12,20.47a.29.29,0,1,1-.58-.1.29.29,0,0,1,.58.1Z"/><path class="cls-1" d="M7.56,20.75a.36.36,0,0,1-.42.3.37.37,0,0,1-.29-.42.35.35,0,0,1,.41-.29A.36.36,0,0,1,7.56,20.75Z"/><path class="cls-1" d="M7.47,16.2a.28.28,0,1,1-.55-.09.27.27,0,0,1,.32-.23A.28.28,0,0,1,7.47,16.2Z"/><path class="cls-1" d="M5.32,14.52a.47.47,0,1,1-.93-.15.47.47,0,1,1,.93.15Z"/><path class="cls-1" d="M6.81,9.78a.33.33,0,1,1-.27-.38A.33.33,0,0,1,6.81,9.78Z"/><path class="cls-1" d="M4.36,20.07a.37.37,0,0,1-.42.3.37.37,0,0,1,.12-.72A.37.37,0,0,1,4.36,20.07Z"/><path class="cls-1" d="M3.27,17.16a.28.28,0,1,1-.56-.1A.3.3,0,0,1,3,16.83.29.29,0,0,1,3.27,17.16Z"/><path class="cls-1" d="M2.47,14.75a.47.47,0,1,1-.38-.54A.46.46,0,0,1,2.47,14.75Z"/><path class="cls-1" d="M3.31,10.88a.32.32,0,0,1-.37.27.32.32,0,1,1,.11-.64A.32.32,0,0,1,3.31,10.88Z"/><path class="cls-1" d="M25.55,9.33a.36.36,0,0,1-.41.3.36.36,0,0,1,.12-.71A.36.36,0,0,1,25.55,9.33Z"/><path class="cls-1" d="M28.55,11.09a.43.43,0,0,1-.5.35A.43.43,0,0,1,27.7,11a.43.43,0,0,1,.5-.35A.43.43,0,0,1,28.55,11.09Z"/><path class="cls-1" d="M25.74,13.05a.38.38,0,0,1-.44.31.39.39,0,0,1-.32-.44.38.38,0,0,1,.44-.31A.39.39,0,0,1,25.74,13.05Z"/><path class="cls-1" d="M27.73,15.49a.49.49,0,1,1-.4-.56A.5.5,0,0,1,27.73,15.49Z"/><path class="cls-1" d="M25.44,18.13a.3.3,0,0,1-.33.24.29.29,0,0,1-.24-.34.29.29,0,0,1,.33-.24A.29.29,0,0,1,25.44,18.13Z"/><path class="cls-1" d="M20.47,24a.28.28,0,0,1-.33.24.29.29,0,0,1,.09-.57A.28.28,0,0,1,20.47,24Z"/><path class="cls-1" d="M20.34,15.19a.29.29,0,0,1-.34.24.29.29,0,0,1-.24-.33.29.29,0,0,1,.34-.24A.3.3,0,0,1,20.34,15.19Z"/><path class="cls-1" d="M26.21,22.86a.34.34,0,0,1-.4.29.35.35,0,1,1,.12-.69A.34.34,0,0,1,26.21,22.86Z"/><path class="cls-1" d="M29.63,22.19a.36.36,0,0,1-.72-.12.36.36,0,0,1,.42-.3A.37.37,0,0,1,29.63,22.19Z"/><path class="cls-1" d="M29.41,19.12a.41.41,0,0,1-.47.33.39.39,0,0,1-.33-.46.41.41,0,0,1,.47-.33A.39.39,0,0,1,29.41,19.12Z"/><path class="cls-1" d="M33.34,19.14a.52.52,0,0,1-.61.43.53.53,0,1,1,.18-1A.53.53,0,0,1,33.34,19.14Z"/><path class="cls-1" d="M31.89,16.39a.39.39,0,0,1-.45.32.38.38,0,0,1-.32-.45.39.39,0,0,1,.45-.32A.4.4,0,0,1,31.89,16.39Z"/><path class="cls-1" d="M31.77,12.36a.44.44,0,1,1-.36-.51A.45.45,0,0,1,31.77,12.36Z"/><path class="cls-1" d="M20.28,3.34a.42.42,0,1,1-.82-.14.42.42,0,1,1,.82.14Z"/><path class="cls-1" d="M16.76,5a.37.37,0,0,1-.43.3.36.36,0,0,1-.3-.42.36.36,0,0,1,.42-.31A.38.38,0,0,1,16.76,5Z"/><path class="cls-1" d="M22.35,7.55a.37.37,0,1,1-.3-.43A.37.37,0,0,1,22.35,7.55Z"/><path class="cls-1" d="M30.22,8.68a.38.38,0,0,1-.43.3.37.37,0,0,1,.12-.73A.38.38,0,0,1,30.22,8.68Z"/><path class="cls-1" d="M5.15,8.37a.3.3,0,0,1-.35.24.29.29,0,0,1-.24-.34.3.3,0,1,1,.59.1Z"/><path class="cls-1" d="M13,4.73a.44.44,0,1,1-.36-.51A.44.44,0,0,1,13,4.73Z"/><path class="cls-1" d="M8.69,6.21a.41.41,0,0,1-.47.34.41.41,0,0,1-.33-.47.4.4,0,0,1,.47-.34A.41.41,0,0,1,8.69,6.21Z"/><path class="cls-1" d="M13.68,7.46a.28.28,0,0,1-.55-.09.27.27,0,0,1,.32-.23A.27.27,0,0,1,13.68,7.46Z"/><path class="cls-1" d="M11.44,7.49a.47.47,0,0,1-.54.39.46.46,0,0,1-.38-.54A.47.47,0,0,1,11.06,7,.48.48,0,0,1,11.44,7.49Z"/><path class="cls-1" d="M26.44,3.57a.43.43,0,1,1-.35-.5A.43.43,0,0,1,26.44,3.57Z"/><path class="cls-1" d="M23.7,5.1a.4.4,0,0,1-.44.32A.4.4,0,0,1,22.94,5a.39.39,0,0,1,.76.13Z"/><path class="cls-1" d="M27.73,6.63a.49.49,0,0,1-1-.16.49.49,0,0,1,1,.16Z"/><path class="cls-1" d="M19.53,6.12a.3.3,0,0,1-.34.24A.29.29,0,0,1,19,6a.29.29,0,0,1,.33-.24A.29.29,0,0,1,19.53,6.12Z"/><path class="cls-1" d="M37.46,14.5a.31.31,0,1,1-.62-.11.31.31,0,0,1,.36-.26A.32.32,0,0,1,37.46,14.5Z"/><path class="cls-1" d="M35.85,9.09A.38.38,0,0,1,35.11,9a.38.38,0,0,1,.43-.31A.39.39,0,0,1,35.85,9.09Z"/><path class="cls-1" d="M37.43,11.92a.29.29,0,0,1-.33.24.3.3,0,0,1-.24-.34.29.29,0,0,1,.34-.23A.28.28,0,0,1,37.43,11.92Z"/><path class="cls-1" d="M32.75,8.7A.4.4,0,0,1,32.3,9,.39.39,0,0,1,32,8.57a.39.39,0,0,1,.45-.32A.4.4,0,0,1,32.75,8.7Z"/><path class="cls-1" d="M31.33,5.5a.45.45,0,0,1-.51.36.44.44,0,0,1-.36-.51A.43.43,0,0,1,31,5,.45.45,0,0,1,31.33,5.5Z"/><path class="cls-1" d="M34.54,12a.32.32,0,0,1-.37.26.32.32,0,1,1,.11-.63A.32.32,0,0,1,34.54,12Z"/><path class="cls-1" d="M34.66,15.14A.44.44,0,1,1,33.8,15a.44.44,0,0,1,.86.15Z"/><path class="cls-1" d="M37.47,18.39a.41.41,0,1,1-.34-.47A.41.41,0,0,1,37.47,18.39Z"/><path class="cls-1" d="M34.78,21.22a.25.25,0,0,1-.29.21.24.24,0,0,1-.2-.29.25.25,0,0,1,.29-.21A.25.25,0,0,1,34.78,21.22Z"/><path class="cls-1" d="M29.85,24.6a.34.34,0,0,1-.39.27.33.33,0,0,1,.11-.66A.34.34,0,0,1,29.85,24.6Z"/></g></g></svg>