<svg xmlns="http://www.w3.org/2000/svg" viewBox="0 0 42.58 80.63"><defs><style>.cls-1{fill:#d4e9e5;}.cls-2{fill:#bad3ce;}.cls-3{fill:#4c6b51;}</style></defs><g id="Layer_2" data-name="Layer 2"><g id="Image"><path class="cls-1" d="M.73,52.35s3.6-19.15,8-31S18.39-.07,22,0,35.12,17,40.23,38.23c3.78,15.71,2.38,20.69.1,25.33s-13.86,6.58-23.81,6S-2.71,65.62.73,52.35Z"/><path class="cls-2" d="M4.42,54.94s3-15,6.65-24.28S19.2,13.9,22.21,14s11.06,13.33,15.38,30c3.19,12.31,2,16.2.11,19.84s-11.64,5.14-20,4.69S1.54,65.33,4.42,54.94Z"/><path class="cls-3" d="M21.62,23.36c-.85.05-.77,13.22-.77,28.39s-.29,28.88.77,28.88,1.18-24.82,1.06-33S22.47,23.32,21.62,23.36Z"/><path class="cls-3" d="M37.87,52.57c-.2-.22-3.61,3.26-7.86,6.92s-8.42,6.62-8.18,6.89,5.5-3.49,9.41-7C33.48,57.35,38.08,52.78,37.87,52.57Z"/><path class="cls-3" d="M5.77,52.57c.2-.22,3.61,3.26,7.86,6.92s8.42,6.62,8.18,6.89-5.5-3.49-9.41-7C10.16,57.35,5.56,52.78,5.77,52.57Z"/><path class="cls-3" d="M34.4,45.09c-.18-.18-2.81,2.56-6.12,5.41s-6.58,5.11-6.37,5.35,4.34-2.64,7.38-5.4C31,48.87,34.58,45.28,34.4,45.09Z"/><path class="cls-3" d="M32.4,36.87c-.18-.19-2.35,2.15-5.13,4.55s-5.57,4.23-5.36,4.48,3.74-2.11,6.28-4.43C29.65,40.13,32.58,37.06,32.4,36.87Z"/><path class="cls-3" d="M30.86,29.7c-.16-.17-2,1.83-4.37,3.88s-4.76,3.61-4.58,3.82,3.2-1.79,5.36-3.78C28.51,32.49,31,29.86,30.86,29.7Z"/><path class="cls-3" d="M27.43,23.85c-.15-.13-1.26,1.4-2.77,2.94s-3.11,2.71-2.93,2.88,2.19-1.32,3.55-2.82C26.06,26,27.57,24,27.43,23.85Z"/><path class="cls-3" d="M9.24,45.09c.18-.18,2.81,2.56,6.11,5.41s6.59,5.11,6.38,5.35-4.34-2.64-7.38-5.4C12.61,48.87,9.06,45.28,9.24,45.09Z"/><path class="cls-3" d="M11.24,36.87c.18-.19,2.35,2.15,5.12,4.55s5.58,4.23,5.37,4.48S18,43.79,15.45,41.47C14,40.13,11.06,37.06,11.24,36.87Z"/><path class="cls-3" d="M12.78,29.7c.16-.17,2,1.83,4.37,3.88s4.76,3.61,4.58,3.82-3.2-1.79-5.37-3.78C15.12,32.49,12.63,29.86,12.78,29.7Z"/><path class="cls-3" d="M16.21,23.85c.15-.13,1.26,1.4,2.77,2.94s3.1,2.71,2.93,2.88-2.19-1.32-3.55-2.82C17.58,26,16.07,24,16.21,23.85Z"/><path class="cls-1" d="M17.24,21.12c.07.16.19.33.36.32s.29-.22.33-.4a3,3,0,0,0,0-1,1.26,1.26,0,0,0-.49-.95.22.22,0,0,0-.33.14A3.75,3.75,0,0,0,17.24,21.12Z"/><path class="cls-1" d="M19.52,22a1.43,1.43,0,0,0,.14,1.29c.13.15.38.28.51.13a.35.35,0,0,0,0-.2,1.93,1.93,0,0,0,0-.34A3.07,3.07,0,0,0,20,21.81C19.82,21.37,19.62,21.75,19.52,22Z"/><path class="cls-1" d="M16.49,25.05c.17,0,.16-1.13-.09-1.56a.4.4,0,0,0-.32-.23c-.13,0-.26,0-.28.23a3.32,3.32,0,0,0,.31,1.21C16.18,24.87,16.31,25.06,16.49,25.05Z"/><path class="cls-1" d="M18.79,25.53c-.18.17-.1.55-.05.76s.42,1,.66.42C19.51,26.45,19.29,25,18.79,25.53Z"/><path class="cls-1" d="M17.13,29a2.62,2.62,0,0,1,.14.74,2.34,2.34,0,0,1,.15.83.26.26,0,0,1-.18.22.39.39,0,0,1-.27-.08,1.44,1.44,0,0,1-.52-1.12C16.43,29.17,16.81,28.37,17.13,29Z"/><path class="cls-1" d="M19.34,29.76c-.29.18-.13.88-.06,1.12s.21.23.27.21C19.85,31,19.6,29.6,19.34,29.76Z"/><path class="cls-1" d="M22.56,17.23c-.18-.07-.28.17-.28.17a7.23,7.23,0,0,0,0,1.14.52.52,0,0,0,.25.48.19.19,0,0,0,.13,0,.22.22,0,0,0,.14-.17,2.48,2.48,0,0,0,0-1.27A.45.45,0,0,0,22.56,17.23Z"/><path class="cls-1" d="M25.5,19a3.07,3.07,0,0,0-.34,1.72.23.23,0,0,0,.24.17.28.28,0,0,0,.13-.09,1.41,1.41,0,0,0,.31-.49C25.94,20,26,18.6,25.5,19Z"/><path class="cls-1" d="M23.14,22.55c-.37,0-.54.54-.54.85s-.05.82.33.94.52-.32.58-.84S23.41,22.55,23.14,22.55Z"/><path class="cls-1" d="M25,25.18a.38.38,0,0,0-.3.22,4.78,4.78,0,0,0-.28,1.52c0,.1.05.22.16.24s.24-.1.3-.21a3.5,3.5,0,0,0,.37-1.37.74.74,0,0,0,0-.26A.23.23,0,0,0,25,25.18Z"/><path class="cls-1" d="M17.28,37.2c-.35.25.57,1.52.94,1.48C18.81,38.62,17.8,36.83,17.28,37.2Z"/><path class="cls-1" d="M29.93,24.15a.46.46,0,0,0-.09-.3c-.14-.13-.38,0-.51.12s-.15.15-.26.56a1.15,1.15,0,0,0,.08.9.25.25,0,0,0,.3,0,.54.54,0,0,0,.21-.24A2.37,2.37,0,0,0,29.93,24.15Z"/><path class="cls-1" d="M27.79,35.36a.2.2,0,0,0-.07-.2c-.11-.1-.29,0-.4.08s-.11.1-.2.38a.7.7,0,0,0,.06.62.26.26,0,0,0,.24,0,.52.52,0,0,0,.16-.17A1.34,1.34,0,0,0,27.79,35.36Z"/><path class="cls-1" d="M27.81,27.84c0-.12,0-.26-.06-.33s-.27,0-.36.13-.55.88-.2,1.08S27.76,28.09,27.81,27.84Z"/><path class="cls-1" d="M27.77,39.9c-.08.1-.16.22-.11.32s.25.11.38.06.91-.51.69-.86S27.93,39.71,27.77,39.9Z"/><path class="cls-1" d="M26,30.5c-.09-.05-.31,0-.41.19s-.47.88-.16,1.07.42-.22.55-.53S26.21,30.62,26,30.5Z"/><path class="cls-1" d="M29.64,33.45c-.14-.08-.31.07-.39.21-.25.44.34.72.49.16A.34.34,0,0,0,29.64,33.45Z"/><path class="cls-1" d="M30.2,28.34a.45.45,0,0,0-.42.16,1,1,0,0,0-.21.41c-.1.33-.15,1,.29.53a1.7,1.7,0,0,0,.42-1,.15.15,0,0,0,0-.09S30.22,28.35,30.2,28.34Z"/><path class="cls-1" d="M32.69,31.72a.55.55,0,0,0-.54.4c-.21.75.12.94.22.94s.26-.14.32-.27C33,31.93,32.78,31.73,32.69,31.72Z"/><path class="cls-1" d="M23.26,31.19a.55.55,0,0,0-.46.5c-.06.77.3.9.4.88a.41.41,0,0,0,.26-.33C23.63,31.33,23.34,31.18,23.26,31.19Z"/><path class="cls-1" d="M14.09,26.2a.36.36,0,0,0-.35-.12c-.41.09-.28,1.06-.08,1.42a.74.74,0,0,0,.51.42.13.13,0,0,0,.12,0s.05-.07.06-.11a2.35,2.35,0,0,0-.1-1.23A1.07,1.07,0,0,0,14.09,26.2Z"/><path class="cls-1" d="M26.34,38.08a.3.3,0,0,0-.11-.24c-.25-.18-.64.31-.71.57a.54.54,0,0,0,.05.46s0,.05.07.05a.11.11,0,0,0,.08,0,1.45,1.45,0,0,0,.53-.59A.7.7,0,0,0,26.34,38.08Z"/><path class="cls-1" d="M30.58,36.94a.25.25,0,0,0,.12.23c.25.16.61-.35.67-.61s.13-.39-.08-.46-.52.35-.64.6A.48.48,0,0,0,30.58,36.94Z"/><path class="cls-1" d="M15,34.4c-.33-.17-.31.1-.22.33a1.86,1.86,0,0,0,.68.79c.08.06.18.18.28,0s0-.31-.08-.45A1.33,1.33,0,0,0,15,34.4Z"/><path class="cls-1" d="M23.92,34.79c0-.32-.2-.25-.32-.12a1.14,1.14,0,0,0-.25.74c0,.08,0,.21.09.25s.2-.09.27-.17A.86.86,0,0,0,23.92,34.79Z"/><path class="cls-1" d="M19.77,37.88a1.07,1.07,0,0,0,.17.46c.08.11.22.21.33.14a.32.32,0,0,0,.08-.12.87.87,0,0,0-.37-1,.13.13,0,0,0-.17.07A1,1,0,0,0,19.77,37.88Z"/><path class="cls-1" d="M18.9,34.38a.21.21,0,0,0,.11,0s.09-.05.12-.09a.84.84,0,0,0-.29-1.15s-.24-.17-.3.22A1,1,0,0,0,18.9,34.38Z"/><path class="cls-1" d="M16,31.15a.42.42,0,0,0-.29-.25c-.14,0-.36,0-.34.28a.82.82,0,0,0,.46.64.14.14,0,0,0,.12,0A.51.51,0,0,0,16,31.15Z"/><path class="cls-1" d="M17,39.7c-.19-.24-.75-.63-.86-.5s.26.79.57.93a.31.31,0,0,0,.28,0,.26.26,0,0,0,.12-.23A.53.53,0,0,0,17,39.7Z"/><path class="cls-1" d="M13.16,36.59c.13.1.31.2.46.12s.16-.33.11-.52a3,3,0,0,0-.44-.88,1.25,1.25,0,0,0-.87-.62.22.22,0,0,0-.23.28A3.9,3.9,0,0,0,13.16,36.59Z"/><path class="cls-1" d="M19.14,42a1.43,1.43,0,0,0,.75,1.07c.18.07.46.06.5-.14a.39.39,0,0,0-.05-.2c0-.1-.1-.2-.15-.3a3.21,3.21,0,0,0-.72-.84C19.1,41.29,19.1,41.72,19.14,42Z"/><path class="cls-1" d="M24.12,46.81c.13.12,1-.45,1.29-.88a.44.44,0,0,0,0-.4c-.07-.11-.12-.23-.35-.12a3.38,3.38,0,0,0-.88.89C24.11,46.45,24,46.65,24.12,46.81Z"/><path class="cls-1" d="M23.9,50.45c-.21.12-.23.51-.24.72s.14,1.06.52.59C24.36,51.53,24.52,50.09,23.9,50.45Z"/><path class="cls-1" d="M26.32,49.08a2.67,2.67,0,0,1,.56-.5c.19-.18.38-.46.63-.56a.3.3,0,0,1,.29,0,.36.36,0,0,1,.06.27,1.42,1.42,0,0,1-.68,1C26.87,49.56,26,49.65,26.32,49.08Z"/><path class="cls-1" d="M25.31,55c-.31-.15-.82.36-1,.54a.33.33,0,0,0,0,.35C24.52,56.06,25.58,55.11,25.31,55Z"/><path class="cls-1" d="M30.21,41.29c-.07-.18-.31-.09-.31-.09a6.15,6.15,0,0,0-.85.76.53.53,0,0,0-.18.51.16.16,0,0,0,.07.11.22.22,0,0,0,.22,0,2.49,2.49,0,0,0,1-.83A.49.49,0,0,0,30.21,41.29Z"/><path class="cls-1" d="M28.56,45c-.27-.11-1,.48-1.1.73a.35.35,0,0,0,.08.32.37.37,0,0,0,.14.07,1,1,0,0,0,.46,0C28.33,46,29.08,45.16,28.56,45Z"/><path class="cls-1" d="M24.94,40.43c-.35-.13-.69.32-.8.61s-.34.75,0,1,.6-.11.83-.58S25.19,40.53,24.94,40.43Z"/><path class="cls-1" d="M30.26,51.46a.4.4,0,0,0-.37,0,5.18,5.18,0,0,0-1.11,1.07c-.05.09-.09.21,0,.29s.25.06.36,0a3.59,3.59,0,0,0,1.1-.9.53.53,0,0,0,.13-.23A.23.23,0,0,0,30.26,51.46Z"/><path class="cls-1" d="M34.72,47.71c-.09-.1-.25-.07-.37,0a2.9,2.9,0,0,0-.66.5,1.25,1.25,0,0,0-.26.3.35.35,0,0,0-.11.28.24.24,0,0,0,.29.18.64.64,0,0,0,.33-.16,5.38,5.38,0,0,0,.69-.66C34.73,48,34.82,47.83,34.72,47.71Z"/><path class="cls-1" d="M36.1,51a.37.37,0,0,0,0-.31c-.09-.17-.35-.14-.52,0s-.18.1-.42.46A1.16,1.16,0,0,0,35,52a.27.27,0,0,0,.29.1.5.5,0,0,0,.26-.17A2.09,2.09,0,0,0,36.1,51Z"/><path class="cls-1" d="M32.43,59.85a.24.24,0,0,0,0-.22c-.07-.12-.27-.12-.4-.06s-.15.06-.33.29a.69.69,0,0,0-.14.61.2.2,0,0,0,.22.08.41.41,0,0,0,.21-.1A1.44,1.44,0,0,0,32.43,59.85Z"/><path class="cls-1" d="M33,52.51c0-.11,0-.26-.06-.33s-.27,0-.36.13-.55.89-.2,1.09S33,52.77,33,52.51Z"/><path class="cls-1" d="M33.05,65.23c-.07.09-.15.21-.1.32s.24.11.37,0,.91-.51.7-.85S33.22,65,33.05,65.23Z"/><path class="cls-1" d="M31.12,55.7c-.11-.05-.36.06-.48.24s-.51,1-.14,1.14c.21.09.49-.26.64-.6S31.41,55.82,31.12,55.7Z"/><path class="cls-1" d="M34.49,59.88c-.15-.08-.32.07-.4.21-.24.44.34.71.5.15A.33.33,0,0,0,34.49,59.88Z"/><path class="cls-1" d="M36.3,55.31a.47.47,0,0,0-.44.07,1.13,1.13,0,0,0-.28.37c-.16.31-.34,1,.18.57a1.66,1.66,0,0,0,.6-.87.14.14,0,0,0,0-.09A.1.1,0,0,0,36.3,55.31Z"/><path class="cls-1" d="M38,57a.55.55,0,0,0-.55.41c-.21.74.12.93.22.93a.39.39,0,0,0,.32-.27C38.32,57.25,38.06,57.05,38,57Z"/><path class="cls-1" d="M27.79,56.39a.54.54,0,0,0-.55.4c-.22.74.11.93.21.93a.38.38,0,0,0,.32-.26C28.13,56.6,27.87,56.4,27.79,56.39Z"/><path class="cls-1" d="M35.06,42.65a.35.35,0,0,0-.15-.34c-.34-.23-1,.52-1.09.91a.73.73,0,0,0,0,.66A.23.23,0,0,0,34,44a.21.21,0,0,0,.13,0,2.51,2.51,0,0,0,.83-.91A1.14,1.14,0,0,0,35.06,42.65Z"/><path class="cls-1" d="M31.62,63.4a.25.25,0,0,0-.11-.24c-.24-.18-.63.31-.71.57a.57.57,0,0,0,.05.46s0,0,.07.06l.09,0a1.36,1.36,0,0,0,.52-.59A.7.7,0,0,0,31.62,63.4Z"/><path class="cls-1" d="M35.86,62.26a.29.29,0,0,0,.12.24c.26.16.62-.36.67-.62s.14-.39-.07-.45-.53.35-.64.59A.49.49,0,0,0,35.86,62.26Z"/><path class="cls-1" d="M32.91,41.44c.07-.36-.17-.28-.38-.13a1.56,1.56,0,0,0-.6.85c-.1.45.31.18.44.09A1.34,1.34,0,0,0,32.91,41.44Z"/><path class="cls-1" d="M28.64,65.14c.11-.45-.15-.44-.38-.33a1.73,1.73,0,0,0-.71.87c-.05.11-.12.27,0,.38s.31,0,.44-.09A1.27,1.27,0,0,0,28.64,65.14Z"/><path class="cls-1" d="M26.58,61.09l-.06,0,0,0,0,0,0,0a1.22,1.22,0,0,0-.27.41c0,.13,0,.3.08.35a.32.32,0,0,0,.14,0,.85.85,0,0,0,.61-.88.12.12,0,0,0,0-.1.11.11,0,0,0-.11,0,1,1,0,0,0-.32.16l.05,0Z"/><path class="cls-1" d="M24,60.43a.21.21,0,0,0,0,.11c0,.05.08.07.13.09a.83.83,0,0,0,1-.64s.09-.28-.3-.21A1,1,0,0,0,24,60.43Z"/><path class="cls-1" d="M31.48,46a.42.42,0,0,0,.05-.39c-.06-.12-.19-.3-.42-.12a.81.81,0,0,0-.28.73.14.14,0,0,0,.1.08C31.15,46.33,31.37,46.15,31.48,46Z"/><path class="cls-1" d="M24.66,66.41c-.37,0-1.14.26-1.09.48.12.4,1,.33,1.33.13a.36.36,0,0,0,.23-.25.3.3,0,0,0-.15-.28A.61.61,0,0,0,24.66,66.41Z"/><path class="cls-1" d="M19.4,47c-.12.12-1-.45-1.28-.88a.42.42,0,0,1-.05-.4c.07-.11.12-.23.35-.12a3.38,3.38,0,0,1,.88.89C19.41,46.68,19.51,46.88,19.4,47Z"/><path class="cls-1" d="M19.62,50.68c.21.12.23.51.24.72s-.14,1.06-.52.59C19.16,51.76,19,50.32,19.62,50.68Z"/><path class="cls-1" d="M17.2,49.31a2.67,2.67,0,0,0-.56-.5c-.19-.18-.38-.46-.63-.56a.26.26,0,0,0-.28,0,.33.33,0,0,0-.07.27,1.45,1.45,0,0,0,.68,1C16.65,49.79,17.54,49.88,17.2,49.31Z"/><path class="cls-1" d="M13.31,41.52c.07-.18.32-.09.32-.09a6.7,6.7,0,0,1,.84.76.56.56,0,0,1,.19.51.28.28,0,0,1-.08.11.22.22,0,0,1-.22,0,2.49,2.49,0,0,1-1-.83A.49.49,0,0,1,13.31,41.52Z"/><path class="cls-1" d="M15,45.18c.28-.1,1,.49,1.1.74a.35.35,0,0,1-.08.32.25.25,0,0,1-.14.06.85.85,0,0,1-.45,0C15.19,46.22,14.44,45.39,15,45.18Z"/><path class="cls-1" d="M13.26,51.69a.4.4,0,0,1,.37,0,5,5,0,0,1,1.11,1.07c0,.09.09.21,0,.29s-.26.06-.37,0a3.43,3.43,0,0,1-1.1-.89.65.65,0,0,1-.13-.23A.23.23,0,0,1,13.26,51.69Z"/><path class="cls-1" d="M8.8,47.94c.09-.1.25-.07.38,0a3,3,0,0,1,.65.5,1.56,1.56,0,0,1,.27.3.37.37,0,0,1,.1.28.24.24,0,0,1-.29.18A.64.64,0,0,1,9.58,49a5.38,5.38,0,0,1-.69-.66C8.8,48.24,8.7,48.06,8.8,47.94Z"/><path class="cls-1" d="M7.42,51.23a.42.42,0,0,1,0-.31c.09-.17.35-.14.52-.05s.19.1.42.46a1.16,1.16,0,0,1,.2.88.25.25,0,0,1-.28.1A.52.52,0,0,1,8,52.14,2.29,2.29,0,0,1,7.42,51.23Z"/><path class="cls-1" d="M11.58,60.82a.28.28,0,0,1,0-.28c.1-.16.38-.16.55-.09s.2.07.44.36a.84.84,0,0,1,.17.76.33.33,0,0,1-.3.12.65.65,0,0,1-.28-.12A1.68,1.68,0,0,1,11.58,60.82Z"/><path class="cls-1" d="M10.51,52.74c0-.11,0-.26.06-.33s.27,0,.36.13.56.89.2,1.09S10.56,53,10.51,52.74Z"/><path class="cls-1" d="M10.63,65.34c.09.1.17.22.1.35s-.3.14-.45.09c-.31-.1-1.07-.5-.78-.9S10.45,65.13,10.63,65.34Z"/><path class="cls-1" d="M12.56,56.07a.51.51,0,0,1,.49.24c.12.18.51,1,.13,1.14-.2.1-.48-.26-.63-.6S12.28,56.19,12.56,56.07Z"/><path class="cls-1" d="M19,56a.69.69,0,0,1,.5.19c.13.14.56.71.18.82-.2.07-.5-.2-.66-.45S18.73,56.05,19,56Z"/><path class="cls-1" d="M9,60.11c.15-.08.32.07.4.21.24.44-.34.71-.49.15A.31.31,0,0,1,9,60.11Z"/><path class="cls-1" d="M7.22,55.54a.47.47,0,0,1,.44.07,1.13,1.13,0,0,1,.28.37c.16.31.34,1-.18.57a1.65,1.65,0,0,1-.6-.88.21.21,0,0,1,0-.08A.15.15,0,0,1,7.22,55.54Z"/><path class="cls-1" d="M5.66,58.19a.54.54,0,0,1,.61.3c.33.7,0,.94-.06,1a.4.4,0,0,1-.36-.21C5.37,58.45,5.58,58.21,5.66,58.19Z"/><path class="cls-1" d="M15.72,56.47a.57.57,0,0,1,.64.24c.39.67.12.94,0,1A.37.37,0,0,1,16,57.5C15.45,56.75,15.64,56.5,15.72,56.47Z"/><path class="cls-1" d="M8.46,42.88a.37.37,0,0,1,.15-.34c.35-.23,1,.52,1.1.91a.76.76,0,0,1,0,.66.18.18,0,0,1-.1.07.21.21,0,0,1-.13,0,2.4,2.4,0,0,1-.82-.91A1,1,0,0,1,8.46,42.88Z"/><path class="cls-1" d="M11.89,64.06a.39.39,0,0,1,0-.31c.21-.3.71.08.85.34a.68.68,0,0,1,.05.53.41.41,0,0,1-.05.09.1.1,0,0,1-.09,0,1.12,1.12,0,0,1-.67-.43A.45.45,0,0,1,11.89,64.06Z"/><path class="cls-1" d="M8.51,62.93a.44.44,0,0,1-.19.3c-.33.24-.67-.33-.7-.64s-.09-.45.17-.57.57.34.67.62A.56.56,0,0,1,8.51,62.93Z"/><path class="cls-1" d="M10.61,41.67c-.07-.36.18-.28.38-.13a1.51,1.51,0,0,1,.6.85c.1.45-.31.18-.43.09A1.31,1.31,0,0,1,10.61,41.67Z"/><path class="cls-1" d="M14.85,65.16c-.19-.42.08-.45.32-.38a1.68,1.68,0,0,1,.83.74c.07.1.17.26.07.38s-.31,0-.46,0A1.2,1.2,0,0,1,14.85,65.16Z"/><path class="cls-1" d="M16.91,59.79l.08.06,0,0,0,0,0,0a1.38,1.38,0,0,1,.34.52c.06.16.06.38-.1.43a.37.37,0,0,1-.18,0,1.08,1.08,0,0,1-.76-1.12.12.12,0,0,1,.05-.12.17.17,0,0,1,.14,0,1.53,1.53,0,0,1,.4.21l-.06,0Z"/><path class="cls-1" d="M20.23,61.7a.22.22,0,0,1-.05.12.2.2,0,0,1-.17,0,1,1,0,0,1-.83-1.06s0-.33.42-.1A1.09,1.09,0,0,1,20.23,61.7Z"/><path class="cls-1" d="M12,46.18a.49.49,0,0,1,0-.39c.06-.12.2-.3.43-.12a.78.78,0,0,1,.27.73.14.14,0,0,1-.1.08A.51.51,0,0,1,12,46.18Z"/><path class="cls-1" d="M18.86,66.64c.38,0,1.15.26,1.09.48-.11.4-1,.33-1.33.13a.38.38,0,0,1-.23-.25.32.32,0,0,1,.15-.28A.63.63,0,0,1,18.86,66.64Z"/></g></g></svg>