<svg xmlns="http://www.w3.org/2000/svg" viewBox="0 0 40.77 56.02"><defs><style>.cls-1{fill:#d4e9e5;}.cls-2{fill:#bad3ce;}.cls-3{fill:#4c6b51;}</style></defs><g id="Layer_2" data-name="Layer 2"><g id="Image"><path class="cls-1" d="M40.75,37.11c-.2-1.91-1.51-3.55-1.86-5.43s.22-3.6-.14-5.35c-.48-2.4-2.48-4.13-4.18-5.89a5.1,5.1,0,0,1-1.14-1.56,7,7,0,0,1-.27-2.47,15.44,15.44,0,0,0-3.45-8.72C28.08,5.55,23.53-.21,20.25,0,18.48.13,17,1.39,15.65,2.53a10.81,10.81,0,0,0-2.79,3.13c-.69,1.38-.79,3-1.44,4.38a16.19,16.19,0,0,1-3.11,3.82,6.81,6.81,0,0,0-2.2,4.29c0,1.32.58,2.73,0,3.9a7.12,7.12,0,0,1-1.21,1.37,5.12,5.12,0,0,0-1.3,4.27,5,5,0,0,1,.19,2c-.26.94-1.23,1.44-2,2.08-2.21,1.91-2.27,5.53-.75,8s4.22,4,7,5a37.69,37.69,0,0,0,26.41-.16A14.57,14.57,0,0,0,40,40.21,4.84,4.84,0,0,0,40.75,37.11Z"/><path class="cls-2" d="M36.4,39c-.16-1.47-1.19-2.72-1.47-4.17s.16-2.75-.12-4.09c-.38-1.84-2-3.17-3.3-4.52a3.75,3.75,0,0,1-.9-1.2,5.2,5.2,0,0,1-.22-1.89,11.76,11.76,0,0,0-2.73-6.68c-1.29-1.64-4.88-6.07-7.46-5.9a6.73,6.73,0,0,0-3.61,1.92,8,8,0,0,0-2.18,2.39c-.55,1.05-.62,2.29-1.13,3.35a12.08,12.08,0,0,1-2.44,2.92A5.12,5.12,0,0,0,9.12,24.4c0,1,.46,2.09,0,3a5.3,5.3,0,0,1-1,1.05,3.87,3.87,0,0,0-1,3.27,3.68,3.68,0,0,1,.15,1.57c-.19.71-1,1.1-1.53,1.58C4,36.32,4,39.08,5.17,41a10.27,10.27,0,0,0,5.5,3.86,30.38,30.38,0,0,0,20.77-.07,11.36,11.36,0,0,0,4.36-3.43A3.57,3.57,0,0,0,36.4,39Z"/><path class="cls-3" d="M35.13,36.82a.15.15,0,0,0-.22,0c-4,5.58-11.65,6.7-13.71,6.91,0-1.68,0-3.25.05-4.49,0-.6,0-1.2,0-1.8,1.1-.24,7.48-1.81,11.33-6.06a.16.16,0,0,0-.24-.22c-3.72,4.12-9.86,5.67-11.09,5.95q.06-3.87.1-7.72c1.65-.44,5.87-1.65,7.71-4.78a.16.16,0,0,0-.06-.22.17.17,0,0,0-.22.06c-1.75,3-5.75,4.16-7.43,4.61,0-.43,0-.86,0-1.28,0-1.63,0-3.28,0-4.92A8,8,0,0,0,25.64,19a.17.17,0,0,0-.09-.21.16.16,0,0,0-.21.09,7.71,7.71,0,0,1-3.95,3.72c0-1.56-.09-3.1-.23-4.6-.08-.85-.2-2.39-.67-2s-.59,2-.65,2.84c-.11,1.27-.17,2.57-.21,3.89a7.75,7.75,0,0,1-4.19-3.82.18.18,0,0,0-.22-.09.17.17,0,0,0-.09.21,8.11,8.11,0,0,0,4.49,4c-.05,1.94-.06,3.89-.09,5.76,0,.13,0,.25,0,.38-1.6-.43-5.76-1.61-7.55-4.64a.16.16,0,0,0-.22-.06.17.17,0,0,0-.06.22c1.89,3.2,6.26,4.4,7.83,4.81-.05,2.56-.06,5.12-.05,7.68-1.3-.3-7.37-1.86-11.06-5.94a.16.16,0,1,0-.24.22c3.81,4.21,10.11,5.78,11.3,6.05V38.9c0,1,0,2.82-.06,4.84-2.29-.25-9.68-1.46-13.54-6.89a.16.16,0,0,0-.23,0,.16.16,0,0,0,0,.22c4,5.56,11.5,6.78,13.8,7-.08,5.25-.09,11.94,1,12,.6,0,.74-6.45.8-11.94,2.06-.2,9.91-1.33,14-7A.16.16,0,0,0,35.13,36.82Z"/><path class="cls-1" d="M21.36,12.91c.1,0,.17-.06.22-.14a1.55,1.55,0,0,0,.22-.55c0-.18.07-.47-.08-.62s-.34,0-.42.16S21.13,12.88,21.36,12.91Z"/><path class="cls-1" d="M26.27,40a.42.42,0,0,1,.17-.37,2.11,2.11,0,0,1,.71-.44c.23-.1.62-.23.84,0s.1.52-.14.68a2,2,0,0,1-.35.16,3.8,3.8,0,0,1-.51.13C26.64,40.18,26.31,40.17,26.27,40Z"/><path class="cls-1" d="M26.32,38.2a.25.25,0,0,1,.07-.25,1.42,1.42,0,0,1,.43-.38c.15-.1.41-.24.6-.16s.16.31,0,.45S26.44,38.42,26.32,38.2Z"/><path class="cls-1" d="M24,41.38a3.1,3.1,0,0,1,.61-.09c.26,0,.7,0,.63.39,0,.22-.22.25-.42.24a6.65,6.65,0,0,1-.78-.1C23.64,41.76,23.56,41.48,24,41.38Z"/><path class="cls-1" d="M32.24,36.24a.34.34,0,0,1,0-.36,2,2,0,0,1,.47-.64c.17-.18.47-.44.76-.39s.32.38.16.61S32.46,36.52,32.24,36.24Z"/><path class="cls-1" d="M24.05,22.93a.27.27,0,0,1,0-.26,1.44,1.44,0,0,1,.29-.51c.11-.13.31-.35.52-.33s.24.24.15.42a2.85,2.85,0,0,1-.44.48C24.36,22.9,24.14,23,24.05,22.93Z"/><path class="cls-1" d="M30.49,38.12a4.47,4.47,0,0,1,.45-.42c.2-.16.59-.37.74,0s0,.33-.21.44a6.67,6.67,0,0,1-.71.35.34.34,0,0,1-.36,0C30.34,38.39,30.35,38.27,30.49,38.12Z"/><path class="cls-1" d="M17.14,23.67a.15.15,0,0,1-.18,0,.64.64,0,0,1-.18-.06.83.83,0,0,1-.16-.09.67.67,0,0,1-.16-.14.27.27,0,0,1-.08-.19c0-.17.17-.21.3-.17a1,1,0,0,1,.33.27C17.13,23.45,17.2,23.6,17.14,23.67Z"/><path class="cls-1" d="M18.41,30.69c0,.06-.13,0-.21,0a1,1,0,0,1-.22-.09,1.13,1.13,0,0,1-.21-.12l-.21-.16a.39.39,0,0,1-.13-.23c0-.18.16-.21.32-.15a1.83,1.83,0,0,1,.45.33C18.36,30.45,18.47,30.62,18.41,30.69Z"/><path class="cls-1" d="M22,18c-.05,0-.05-.08-.05-.13a.4.4,0,0,1,0-.15.78.78,0,0,1,0-.14.7.7,0,0,1,.08-.14.26.26,0,0,1,.14-.09c.12,0,.17.09.15.2a1,1,0,0,1-.16.3C22.12,18,22,18.08,22,18Z"/><path class="cls-1" d="M26.46,20.11a.5.5,0,0,0,.35-.11,2.92,2.92,0,0,0,.56-.55,1.63,1.63,0,0,0,.21-.34.37.37,0,0,0,0-.33c-.12-.19-.4-.07-.59.12a3.31,3.31,0,0,0-.45.65C26.43,19.81,26.34,20.07,26.46,20.11Z"/><path class="cls-1" d="M24.3,16.87a.31.31,0,0,0,.26-.06,1.59,1.59,0,0,0,.38-.34c.09-.12.22-.32.13-.44s-.31-.06-.44,0a2.12,2.12,0,0,0-.29.42C24.25,16.68,24.2,16.84,24.3,16.87Z"/><path class="cls-1" d="M26,30.61a.3.3,0,0,0,.23,0,1.54,1.54,0,0,0,.41-.18c.1-.07.26-.2.2-.3s-.25-.11-.39-.06a1.62,1.62,0,0,0-.34.26C26,30.45,25.93,30.57,26,30.61Z"/><path class="cls-1" d="M27.56,33.19a3.84,3.84,0,0,0,.5-.32c.21-.15.49-.44.19-.54a.45.45,0,0,0-.46.16c-.17.15-.33.34-.49.5S27.2,33.39,27.56,33.19Z"/><path class="cls-1" d="M22.72,19.38c.07.05.18,0,.26,0a1.46,1.46,0,0,0,.42-.4c.11-.15.27-.41.2-.6s-.3-.17-.45,0S22.52,19.24,22.72,19.38Z"/><path class="cls-1" d="M22.6,15.49a.35.35,0,0,0,.26-.15,1.53,1.53,0,0,0,.31-.47c.06-.15.14-.39,0-.5s-.39,0-.5.17S22.33,15.49,22.6,15.49Z"/><path class="cls-1" d="M24.09,34.48a.26.26,0,0,1,.09-.27,1.79,1.79,0,0,1,.54-.35.87.87,0,0,1,.69,0c.23.14.14.37,0,.5S24.19,34.73,24.09,34.48Z"/><path class="cls-1" d="M29.84,35.69a.24.24,0,0,1,.05-.26A1.46,1.46,0,0,1,30.3,35a.75.75,0,0,1,.59-.2c.21.08.17.3,0,.45S30,35.89,29.84,35.69Z"/><path class="cls-1" d="M21.93,39.16a3.47,3.47,0,0,1,.38-.29c.18-.1.51-.23.6.05s-.07.25-.21.32a5.66,5.66,0,0,1-.58.2C21.85,39.53,21.69,39.37,21.93,39.16Z"/><path class="cls-1" d="M33.08,41.23a3.47,3.47,0,0,1,.41-.45c.19-.17.57-.41.74-.08s0,.33-.18.44a5.57,5.57,0,0,1-.67.39C33.07,41.7,32.83,41.54,33.08,41.23Z"/><path class="cls-1" d="M14.21,20.94a.28.28,0,0,1-.23-.09,3,3,0,0,1-.38-.42c-.1-.14-.26-.37-.23-.52s.24-.09.38.06a2.17,2.17,0,0,1,.35.52,1.19,1.19,0,0,1,.08.16,1.21,1.21,0,0,1,.05.14C14.25,20.87,14.25,20.93,14.21,20.94Z"/><path class="cls-1" d="M22.54,33.35A4.31,4.31,0,0,1,23,33c.21-.15.59-.36.74,0s0,.34-.22.44l-.36.17-.37.15C22.46,33.84,22.25,33.63,22.54,33.35Z"/><path class="cls-1" d="M18.37,40.78a.35.35,0,0,0-.09-.36,2.19,2.19,0,0,0-.61-.52c-.21-.12-.57-.31-.83-.19s-.21.44,0,.64a1.74,1.74,0,0,0,.31.19c.15.08.32.15.49.22C18,40.88,18.3,40.93,18.37,40.78Z"/><path class="cls-1" d="M14,39.06a.25.25,0,0,0,0-.26,1.46,1.46,0,0,0-.41-.41c-.15-.11-.39-.27-.59-.2s-.17.3,0,.45S13.86,39.26,14,39.06Z"/><path class="cls-1" d="M15.78,41.88c0-.05,0-.12,0-.17a1.07,1.07,0,0,0-.28-.28c-.09-.07-.26-.18-.39-.13s-.12.2,0,.3S15.69,42,15.78,41.88Z"/><path class="cls-1" d="M17.92,38.06c0-.06-.07-.1-.12-.13a1,1,0,0,0-.33-.09c-.1,0-.27,0-.32.06s0,.2.15.24S17.94,38.2,17.92,38.06Z"/><path class="cls-1" d="M9,36.1a.33.33,0,0,0,0-.37,2.09,2.09,0,0,0-.43-.66c-.16-.19-.44-.47-.73-.44s-.35.35-.2.6S8.74,36.36,9,36.1Z"/><path class="cls-1" d="M15.72,34.09c0-.09,0-.18-.08-.25a1.75,1.75,0,0,0-.46-.35c-.16-.09-.43-.21-.61-.11s-.13.31,0,.44a2.33,2.33,0,0,0,.59.28C15.43,34.18,15.67,34.2,15.72,34.09Z"/><path class="cls-1" d="M12.2,35.54a4.37,4.37,0,0,0-.42-.44c-.19-.18-.56-.42-.74-.08s0,.33.19.45a7.58,7.58,0,0,0,.68.4.34.34,0,0,0,.36,0C12.33,35.82,12.33,35.7,12.2,35.54Z"/><path class="cls-1" d="M11.79,29.25a.36.36,0,0,0,0-.37,2.64,2.64,0,0,0-.48-.62c-.18-.17-.49-.43-.77-.37s-.32.37-.15.61a1.24,1.24,0,0,0,.26.26l.2.17.11.08.11.07C11.37,29.27,11.68,29.38,11.79,29.25Z"/><path class="cls-1" d="M15.64,15.52a.14.14,0,0,0,.06-.15.91.91,0,0,0-.07-.33.6.6,0,0,0-.08-.16.29.29,0,0,0-.15-.12c-.13,0-.2.09-.18.21a1.25,1.25,0,0,0,.16.35C15.47,15.45,15.57,15.55,15.64,15.52Z"/><path class="cls-1" d="M14.63,29.64a4.37,4.37,0,0,0-.44-.42c-.2-.16-.59-.37-.75,0s0,.32.21.43a6.76,6.76,0,0,0,.71.36.33.33,0,0,0,.36,0,.13.13,0,0,0,0-.14A.58.58,0,0,0,14.63,29.64Z"/><path class="cls-1" d="M15,23.85a.46.46,0,0,1-.36,0,1.71,1.71,0,0,1-.56-.37c-.14-.13-.35-.37-.25-.55s.43-.18.63-.06S15.3,23.72,15,23.85Z"/><path class="cls-1" d="M16.21,25.91a2.87,2.87,0,0,1-.47-.18c-.19-.1-.45-.31-.13-.5a.35.35,0,0,1,.45,0,3.89,3.89,0,0,1,.43.38C16.68,25.81,16.54,26,16.21,25.91Z"/><path class="cls-1" d="M19,27.58a.34.34,0,0,1-.26,0,1.63,1.63,0,0,1-.45-.25c-.11-.1-.28-.26-.22-.4s.3-.13.45-.05a1.88,1.88,0,0,1,.37.35C19,27.37,19.13,27.52,19,27.58Z"/><path class="cls-1" d="M18.63,34.53a5.5,5.5,0,0,1-.58-.16c-.24-.09-.59-.28-.33-.46s.32-.06.49,0,.41.23.61.34S19,34.61,18.63,34.53Z"/><path class="cls-1" d="M16.76,18.48a.27.27,0,0,1-.27-.05,1.61,1.61,0,0,1-.38-.44c-.09-.15-.22-.42-.12-.6s.32-.13.45,0a2.46,2.46,0,0,1,.28.55,3.4,3.4,0,0,1,.09.33C16.82,18.37,16.81,18.45,16.76,18.48Z"/><path class="cls-1" d="M18.82,21.41a.29.29,0,0,1-.31,0A2,2,0,0,1,18,21c-.13-.16-.33-.44-.26-.67s.33-.23.52-.08a2.67,2.67,0,0,1,.44.59C18.84,21.06,18.93,21.33,18.82,21.41Z"/><path class="cls-1" d="M18.2,13.51c.07,0,.1-.1.12-.17a.78.78,0,0,0,0-.22,1.48,1.48,0,0,0,0-.21.65.65,0,0,0-.06-.23.28.28,0,0,0-.14-.19c-.16-.08-.27,0-.29.21a1.54,1.54,0,0,0,.09.48C18,13.37,18.1,13.53,18.2,13.51Z"/><path class="cls-1" d="M19,18.93c-.05,0-.12,0-.17,0a1.22,1.22,0,0,1-.27-.24c-.06-.09-.17-.25-.13-.37s.19-.11.28,0S19.12,18.85,19,18.93Z"/><path class="cls-1" d="M18.64,16.68a.43.43,0,0,1-.29-.08,1.54,1.54,0,0,1-.41-.39c-.1-.13-.23-.35-.12-.49s.37-.08.52,0S18.9,16.61,18.64,16.68Z"/><path class="cls-1" d="M20.14,14.9c-.09,0-.17-.06-.22-.14a1.73,1.73,0,0,1-.23-.54c0-.18-.08-.48.06-.62s.35,0,.43.14S20.38,14.86,20.14,14.9Z"/><path class="cls-1" d="M11,39.49a.28.28,0,0,0,0-.29,1.7,1.7,0,0,0-.38-.51c-.14-.14-.39-.35-.62-.31s-.27.3-.15.48S10.81,39.68,11,39.49Z"/><path class="cls-1" d="M17.39,45.22a3.09,3.09,0,0,1-.6.08c-.27,0-.71-.06-.62-.43,0-.22.23-.24.43-.22a6.69,6.69,0,0,1,.78.14C17.72,44.86,17.79,45.15,17.39,45.22Z"/><path class="cls-1" d="M7.61,42c-.09,0-.24,0-.35-.07a2.47,2.47,0,0,1-.63-.47,1.93,1.93,0,0,1-.26-.3.39.39,0,0,1-.07-.33c.08-.2.38-.12.59,0a3,3,0,0,1,.53.59C7.6,41.7,7.74,41.94,7.61,42Z"/><path class="cls-1" d="M11,42.47a.25.25,0,0,0,0-.26,1.48,1.48,0,0,0-.38-.44c-.14-.12-.38-.29-.58-.24s-.19.29-.06.45S10.83,42.66,11,42.47Z"/><path class="cls-1" d="M13.58,44a3.57,3.57,0,0,0-.37-.31c-.17-.12-.49-.27-.59,0s0,.25.18.32a5.79,5.79,0,0,0,.57.25C13.63,44.42,13.8,44.27,13.58,44Z"/><path class="cls-1" d="M23.13,44.9a4.39,4.39,0,0,0,.61.07c.27,0,.71,0,.62-.42-.06-.22-.23-.24-.43-.23a5.12,5.12,0,0,0-.78.15C22.8,44.54,22.74,44.82,23.13,44.9Z"/><path class="cls-1" d="M30.18,44.48c.08.06.23,0,.36,0a2.42,2.42,0,0,0,.7-.35,1.78,1.78,0,0,0,.31-.26.37.37,0,0,0,.13-.3c-.05-.21-.36-.19-.6-.07a3.89,3.89,0,0,0-.62.48C30.24,44.19,30.07,44.4,30.18,44.48Z"/><path class="cls-1" d="M28.23,43.72a.23.23,0,0,1,0-.26,1.49,1.49,0,0,1,.41-.42c.14-.11.39-.27.58-.21s.18.3.05.45S28.36,43.92,28.23,43.72Z"/><path class="cls-1" d="M26.3,44.87a2.18,2.18,0,0,1,.47-.21c.21-.07.59-.13.61.19s-.12.25-.29.28a5,5,0,0,1-.66.08C26.14,45.24,26,45,26.3,44.87Z"/><path class="cls-1" d="M17.16,32.34a.21.21,0,0,0,0-.23.85.85,0,0,0-.35-.27.58.58,0,0,0-.52,0,.25.25,0,0,0-.08.42,1.17,1.17,0,0,0,.49.19.8.8,0,0,0,.15,0H17A.25.25,0,0,0,17.16,32.34Z"/><path class="cls-1" d="M12.16,31.7a4.16,4.16,0,0,0-.45-.4c-.21-.16-.59-.37-.74,0s0,.34.21.44a2.31,2.31,0,0,0,.35.18l.37.16C12.22,32.19,12.44,32,12.16,31.7Z"/><path class="cls-1" d="M22.87,24.75c0,.06.13.05.21,0l.22-.09.21-.12a1.42,1.42,0,0,0,.21-.17.36.36,0,0,0,.13-.22c0-.19-.16-.22-.32-.16a2.14,2.14,0,0,0-.45.33C22.92,24.51,22.81,24.68,22.87,24.75Z"/><path class="cls-1" d="M27,28.12a.25.25,0,0,1,0-.26,1.6,1.6,0,0,1,.4-.42c.14-.11.39-.27.58-.21s.18.3.05.45a2.46,2.46,0,0,1-.54.36C27.26,28.16,27,28.22,27,28.12Z"/><path class="cls-1" d="M29.24,29.06a3.48,3.48,0,0,1,.42-.44c.19-.18.56-.42.73-.08s0,.33-.18.45a7.58,7.58,0,0,1-.68.4.34.34,0,0,1-.36,0C29.11,29.34,29.11,29.22,29.24,29.06Z"/><path class="cls-1" d="M28,20.91a.25.25,0,0,1,0-.22,1.93,1.93,0,0,1,.28-.36c.1-.09.28-.24.44-.21s.19.22.09.35a.69.69,0,0,1-.15.16l-.11.09-.07.05-.06,0C28.19,20.92,28,21,28,20.91Z"/><path class="cls-1" d="M27.1,23.37a3.49,3.49,0,0,1,.43-.43c.21-.16.6-.37.75,0s0,.33-.21.44-.47.24-.7.35-.3.07-.36,0a.14.14,0,0,1,0-.13A.39.39,0,0,1,27.1,23.37Z"/><path class="cls-1" d="M22.4,21.1a.36.36,0,0,0,.27,0,1.63,1.63,0,0,0,.45-.25c.11-.1.28-.26.22-.4s-.3-.13-.45-.05a1.88,1.88,0,0,0-.37.35C22.4,20.89,22.31,21.05,22.4,21.1Z"/><path class="cls-1" d="M22.81,28.05a5.5,5.5,0,0,0,.58-.16c.24-.09.59-.28.33-.46s-.32-.06-.49,0-.41.23-.61.34S22.41,28.13,22.81,28.05Z"/><path class="cls-1" d="M24.7,25.76a.19.19,0,0,1,0-.23.85.85,0,0,1,.35-.27.55.55,0,0,1,.52-.05.26.26,0,0,1,.08.43,1.23,1.23,0,0,1-.49.19l-.16,0h-.14A.25.25,0,0,1,24.7,25.76Z"/><path class="cls-1" d="M23.22,30.53a5.74,5.74,0,0,1,.45-.41c.21-.15.59-.37.74,0,.1.2,0,.33-.21.44l-.35.18-.37.15C23.16,31,22.94,30.82,23.22,30.53Z"/><path class="cls-1" d="M12.55,23.21c-.06.06-.19,0-.29,0a2.89,2.89,0,0,1-.64-.46,1.41,1.41,0,0,1-.49-.69c0-.27.24-.23.46-.08S12.7,23,12.55,23.21Z"/></g></g></svg>