<svg xmlns="http://www.w3.org/2000/svg" viewBox="0 0 34.02 71.52"><defs><style>.cls-1{fill:#d4e9e5;}.cls-2{fill:#bad3ce;}.cls-3{fill:#4c6b51;}</style></defs><g id="Layer_2" data-name="Layer 2"><g id="Image"><path class="cls-1" d="M33.31,12.68A16,16,0,0,0,28.43,4,17.1,17.1,0,0,0,23.3,1.08,14.66,14.66,0,0,0,18,0a12.59,12.59,0,0,0-5.75,1.67A21.77,21.77,0,0,0,3,12.35a41.26,41.26,0,0,0-3,14c-.4,7.09,3.56,15.56,5.08,18.6a19.63,19.63,0,0,0,6.48,7.7,14.88,14.88,0,0,0,8.5,2.45,8.39,8.39,0,0,0,3.47-.71,10.29,10.29,0,0,0,4-4.17c4.9-8.12,6.11-17.92,6.39-27.39A39.87,39.87,0,0,0,33.31,12.68Z"/><path class="cls-2" d="M32.22,17A14.37,14.37,0,0,0,27.84,9.2a15.39,15.39,0,0,0-4.61-2.59,13.12,13.12,0,0,0-4.78-1,11.37,11.37,0,0,0-5.16,1.5A19.58,19.58,0,0,0,5,16.73,37,37,0,0,0,2.35,29.27C2,35.63,5.54,43.24,6.91,46a17.59,17.59,0,0,0,5.81,6.91,13.29,13.29,0,0,0,7.63,2.2,7.55,7.55,0,0,0,3.12-.64,9.17,9.17,0,0,0,3.61-3.74c4.39-7.29,5.48-16.08,5.74-24.59A35.75,35.75,0,0,0,32.22,17Z"/><path class="cls-3" d="M20.52,62.49a59.6,59.6,0,0,1-.37,6.92c-.2,1.44-.56,2.5-.93,2s-.6-2.69-.82-4.54c-.84-7.21-.84-28.12-.79-38.1,0-3.78.11-8,.71-9.91.09-.28.2-.51.31-.43a6,6,0,0,1,.47,2.3c.21,2.29.33,4.71.44,7.11C20.1,39.34,20.66,51.1,20.52,62.49Z"/><path class="cls-3" d="M17.6,30.15h0c-2.28-.36-4.31-2-5.86-4.79A19.34,19.34,0,0,1,10,21.24a.2.2,0,0,1,.14-.23.21.21,0,0,1,.24.14c0,.08,2,7.81,7.21,8.61a.19.19,0,0,1,.16.22A.19.19,0,0,1,17.6,30.15Z"/><path class="cls-3" d="M18.15,41.87h0C14,41.39,11,38.29,9.24,35.78A19.51,19.51,0,0,1,6.3,30a.2.2,0,0,1,.2-.19.2.2,0,0,1,.19.19c0,.68,3.9,10.65,11.48,11.53a.2.2,0,0,1,0,.39ZM6.69,30Z"/><path class="cls-3" d="M18.73,52.62h0a12.66,12.66,0,0,1-8.6-5A16.73,16.73,0,0,1,7.6,43.22.2.2,0,0,1,8,43.09a16.45,16.45,0,0,0,2.45,4.28,12.28,12.28,0,0,0,8.33,4.86.2.2,0,0,1,.17.22A.19.19,0,0,1,18.73,52.62Z"/><path class="cls-3" d="M19.31,52.62a.19.19,0,0,1-.19-.16.18.18,0,0,1,.16-.22s5.78-1.07,7.58-5a.19.19,0,1,1,.35.16c-1.89,4.1-7.62,5.15-7.87,5.2Z"/><path class="cls-3" d="M19.31,41.87a.2.2,0,0,1-.14-.06.2.2,0,0,1,0-.27s.08-.06.29-.12c2.92-.86,9.83-3.94,10.86-13.9a.19.19,0,0,1,.21-.17.19.19,0,0,1,.17.21c-.49,4.76-2.32,8.52-5.45,11.19a15.36,15.36,0,0,1-5.68,3l-.16.05A.19.19,0,0,1,19.31,41.87Zm.13-.06Zm0,0h0Z"/><path class="cls-3" d="M18.73,30.15a.19.19,0,0,1-.19-.18.19.19,0,0,1,.17-.21h0a7,7,0,0,0,3.87-2.06c1.8-1.74,4-5.33,4.26-12.56a.2.2,0,1,1,.39,0C27,22.54,24.68,26.21,22.82,28a7.31,7.31,0,0,1-4.08,2.15Z"/><path class="cls-1" d="M22.76,49.39a.51.51,0,0,1,0-.52A3.2,3.2,0,0,1,23.5,48c.26-.23.72-.59,1.11-.49s.42.56.19.88a3.53,3.53,0,0,1-.38.36,6.09,6.09,0,0,1-.62.42C23.36,49.42,22.91,49.58,22.76,49.39Z"/><path class="cls-1" d="M26.72,45.15a.34.34,0,0,1-.11-.36,2.12,2.12,0,0,1,.26-.78c.12-.23.34-.59.62-.62s.42.26.34.54S27,45.33,26.72,45.15Z"/><path class="cls-1" d="M22.05,52.73a5.1,5.1,0,0,1,.67-.56c.31-.21.88-.48,1.06,0,.11.31-.09.47-.34.6a9.47,9.47,0,0,1-1,.43C21.94,53.41,21.63,53.13,22.05,52.73Z"/><path class="cls-1" d="M30.26,37.06c-.17-.06-.23-.27-.25-.46a3,3,0,0,1,.13-1.11c.08-.34.27-.88.65-1s.66.23.64.63S30.73,37.24,30.26,37.06Z"/><path class="cls-1" d="M31.3,31.53a.37.37,0,0,1-.23-.29,2.53,2.53,0,0,1-.07-.82c0-.26.08-.67.33-.81s.49.08.52.37a3.34,3.34,0,0,1-.12.91C31.64,31.25,31.47,31.55,31.3,31.53Z"/><path class="cls-1" d="M28.4,40.54a6.09,6.09,0,0,1,.25-.83c.13-.34.45-.88.89-.57.26.2.19.44.05.69a7.27,7.27,0,0,1-.62.94c-.14.2-.31.29-.44.25S28.34,40.82,28.4,40.54Z"/><path class="cls-1" d="M31.39,22.87c-.19,0-.34-.15-.43-.3a3.63,3.63,0,0,1-.38-1.06,1.42,1.42,0,0,1,.15-1.19c.31-.34.7-.1.85.28a2.75,2.75,0,0,1,.12.51c0,.12,0,.24,0,.37s0,.13,0,.19v.2C31.73,22.39,31.63,22.85,31.39,22.87Z"/><path class="cls-1" d="M30,17.06a.36.36,0,0,1-.33-.17c-.08-.11-.15-.23-.22-.34a2.54,2.54,0,0,1-.16-.38,2.06,2.06,0,0,1-.11-.43.62.62,0,0,1,.07-.43c.18-.27.47-.14.63.1a3.46,3.46,0,0,1,.26.89C30.15,16.67,30.13,17,30,17.06Z"/><path class="cls-1" d="M16.62,25.7a.26.26,0,0,1-.21-.17,1.25,1.25,0,0,1-.09-.25,1.28,1.28,0,0,1-.05-.27,1,1,0,0,1,0-.29.34.34,0,0,1,.14-.26c.19-.14.38,0,.45.18a1.68,1.68,0,0,1,0,.61C16.84,25.49,16.75,25.7,16.62,25.7Z"/><path class="cls-1" d="M16.82,37.14a.26.26,0,0,1-.21-.11.65.65,0,0,1-.09-.16.55.55,0,0,1-.05-.17.58.58,0,0,1,0-.18.26.26,0,0,1,.14-.17.34.34,0,0,1,.45.11.69.69,0,0,1,0,.39C17,37,17,37.14,16.82,37.14Z"/><path class="cls-1" d="M16.45,33c-.11,0-.19-.08-.24-.18a3,3,0,0,1-.15-.31,1.78,1.78,0,0,1-.09-.33,1.38,1.38,0,0,1-.05-.37.48.48,0,0,1,.09-.36c.16-.2.37-.06.48.16a3.24,3.24,0,0,1,.13.78C16.63,32.7,16.58,33,16.45,33Z"/><path class="cls-1" d="M20.73,21.58a.2.2,0,0,1-.16-.13,1.52,1.52,0,0,1-.06-.2,1.55,1.55,0,0,1,0-.21,1.85,1.85,0,0,1,0-.23.39.39,0,0,1,.11-.21c.14-.11.28,0,.33.14a1.5,1.5,0,0,1,0,.48C20.89,21.41,20.82,21.58,20.73,21.58Z"/><path class="cls-1" d="M23.47,12.27a.23.23,0,0,1-.21-.1,1.37,1.37,0,0,1-.13-.2,1.47,1.47,0,0,1-.1-.22A.66.66,0,0,1,23,11.5a.33.33,0,0,1,0-.26c.12-.17.3-.09.4,0a1.72,1.72,0,0,1,.15.53C23.59,12,23.57,12.24,23.47,12.27Z"/><path class="cls-1" d="M31.17,26.81A5.11,5.11,0,0,1,31,26c0-.37.06-1,.59-.89.32.07.34.32.32.61a10.07,10.07,0,0,1-.17,1.1c0,.25-.17.4-.3.42a.23.23,0,0,1-.18-.08A.77.77,0,0,1,31.17,26.81Z"/><path class="cls-1" d="M23.09,23.12a.65.65,0,0,0,.29-.43,2.61,2.61,0,0,0,.08-1c0-.28-.09-.71-.39-.77s-.58.31-.62.65S22.69,23.33,23.09,23.12Z"/><path class="cls-1" d="M23,26.07a3.9,3.9,0,0,0,.23-.68c.07-.29.09-.76-.42-.6a.52.52,0,0,0-.38.51,7.45,7.45,0,0,0,0,.82C22.4,26.48,22.75,26.52,23,26.07Z"/><path class="cls-1" d="M22.59,34.77c.15,0,.3-.16.41-.31a4.19,4.19,0,0,0,.5-1,3.06,3.06,0,0,0,.13-.56.55.55,0,0,0-.1-.46c-.24-.2-.57.09-.74.43a5,5,0,0,0-.3,1.07C22.41,34.38,22.4,34.77,22.59,34.77Z"/><path class="cls-1" d="M23.53,30.55a.49.49,0,0,0,.27-.26,2.22,2.22,0,0,0,.21-.7c0-.21,0-.55-.15-.63s-.44.15-.51.39a2.43,2.43,0,0,0-.05.72C23.32,30.35,23.38,30.58,23.53,30.55Z"/><path class="cls-1" d="M21.41,33.64a.72.72,0,0,0,.27-.42,2.87,2.87,0,0,0,.12-.93c0-.27-.07-.69-.32-.71s-.49.35-.53.67a3.18,3.18,0,0,0,.09.89C21.12,33.47,21.24,33.74,21.41,33.64Z"/><path class="cls-1" d="M21.9,38.81a6,6,0,0,0,.39-.75c.15-.34.29-.89-.16-.8-.27.06-.37.28-.45.52s-.16.66-.23,1S21.61,39.31,21.9,38.81Z"/><path class="cls-1" d="M24.57,15.42c.13,0,.19-.17.22-.3a2.06,2.06,0,0,0,0-.82c-.06-.25-.18-.66-.46-.75s-.46.18-.45.45a3.32,3.32,0,0,0,.24.85,2.33,2.33,0,0,0,.23.42C24.4,15.38,24.48,15.44,24.57,15.42Z"/><path class="cls-1" d="M24.85,19.82c.16,0,.26-.17.31-.31a2.51,2.51,0,0,0,.16-.94c0-.3-.05-.78-.34-1s-.58.07-.64.39a3.87,3.87,0,0,0,.08,1C24.51,19.46,24.65,19.83,24.85,19.82Z"/><path class="cls-1" d="M22.21,19.35c.13,0,.19-.18.22-.31a2.31,2.31,0,0,0,0-.83c-.05-.25-.15-.67-.41-.79s-.48.14-.48.42S21.88,19.41,22.21,19.35Z"/><path class="cls-1" d="M21.39,15.71a.57.57,0,0,0,.25-.36,2.42,2.42,0,0,0,.07-.79c0-.23-.08-.6-.33-.64s-.48.26-.52.54S21.06,15.88,21.39,15.71Z"/><path class="cls-1" d="M20.91,11.71a.35.35,0,0,0,.22-.31,2.31,2.31,0,0,0,0-.83c0-.26-.15-.67-.41-.79s-.47.14-.48.42S20.58,11.77,20.91,11.71Z"/><path class="cls-1" d="M26,10.81a.57.57,0,0,0-.05-.44,2.16,2.16,0,0,0-.47-.69c-.16-.17-.45-.42-.68-.29s-.22.52-.06.77S25.84,11.17,26,10.81Z"/><path class="cls-1" d="M23.21,8.83a.34.34,0,0,0,0-.36,2.13,2.13,0,0,0-.5-.62c-.18-.16-.51-.4-.78-.33s-.26.38-.1.6S23,9.08,23.21,8.83Z"/><path class="cls-1" d="M28.73,13a5.19,5.19,0,0,0-.42-.77c-.21-.32-.65-.77-1-.34-.18.25-.05.46.13.68s.53.52.78.77S29,13.54,28.73,13Z"/><path class="cls-1" d="M23.72,43.08a.36.36,0,0,1-.19-.36,2.29,2.29,0,0,1,.15-.89c.1-.26.28-.69.61-.78s.52.2.48.52S24.09,43.21,23.72,43.08Z"/><path class="cls-1" d="M25.36,37.59c-.12-.06-.14-.22-.14-.35a2.43,2.43,0,0,1,.21-.8c.1-.23.3-.6.58-.66s.43.24.37.52S25.66,37.75,25.36,37.59Z"/><path class="cls-1" d="M21.38,46.51a4.27,4.27,0,0,1,.27-.63c.14-.26.45-.65.76-.36s.1.35,0,.53a6.11,6.11,0,0,1-.57.67C21.55,47,21.24,46.94,21.38,46.51Z"/><path class="cls-1" d="M27.87,28.51c-.16,0-.25-.21-.29-.38a3.41,3.41,0,0,1-.14-1.05c0-.32,0-.85.32-1.06s.58.09.64.46a3.87,3.87,0,0,1-.08,1.2,3.18,3.18,0,0,1-.08.33,1.39,1.39,0,0,1-.1.27C28.06,28.44,28,28.53,27.87,28.51Z"/><path class="cls-1" d="M16.64,21.61c-.09,0-.13-.18-.15-.31a3.56,3.56,0,0,1,0-.8c0-.24.08-.64.25-.76s.33.12.35.41A4,4,0,0,1,17,21c0,.08-.05.16-.07.24a.84.84,0,0,1-.08.19C16.76,21.58,16.7,21.64,16.64,21.61Z"/><path class="cls-1" d="M27,33a5,5,0,0,1,.06-.86c.05-.36.23-.95.73-.75.3.12.29.38.21.65a3.74,3.74,0,0,1-.17.54l-.22.52C27.39,33.57,27,33.58,27,33Z"/><path class="cls-1" d="M28.15,22.54c.13,0,.2-.18.24-.34a4.14,4.14,0,0,0,.1-1.12,2,2,0,0,0-.29-1.16c-.27-.27-.47,0-.51.42S27.82,22.54,28.15,22.54Z"/><path class="cls-1" d="M14.06,49.32c.16-.11.15-.34.12-.51a3.13,3.13,0,0,0-.45-1c-.19-.3-.53-.76-.94-.77s-.56.43-.41.8a1.85,1.85,0,0,0,.27.45,4.84,4.84,0,0,0,.48.57C13.48,49.19,13.87,49.46,14.06,49.32Z"/><path class="cls-1" d="M10.33,45.28c.11-.07.12-.23.11-.36a2.33,2.33,0,0,0-.27-.78c-.11-.23-.33-.59-.62-.62s-.41.26-.33.54S10,45.46,10.33,45.28Z"/><path class="cls-1" d="M11.09,50.05c.07,0,.08-.15.07-.24a1.45,1.45,0,0,0-.18-.53c-.08-.15-.22-.39-.42-.42s-.28.18-.22.37S10.89,50.17,11.09,50.05Z"/><path class="cls-1" d="M16.89,50.32a.31.31,0,0,0-.08-.23,1.56,1.56,0,0,0-.35-.33c-.12-.08-.33-.2-.45-.12s-.09.28,0,.4S16.83,50.52,16.89,50.32Z"/><path class="cls-1" d="M16.4,53.47a5,5,0,0,1-.82-.29c-.34-.16-.86-.51-.52-.92.21-.25.45-.17.69,0a8.76,8.76,0,0,1,.9.67C17.05,53.22,17,53.63,16.4,53.47Z"/><path class="cls-1" d="M6.78,37.19c.18-.06.24-.28.25-.46a3,3,0,0,0-.12-1.12c-.09-.33-.27-.87-.66-1s-.66.23-.63.63S6.32,37.37,6.78,37.19Z"/><path class="cls-1" d="M5.31,31.65c.13,0,.2-.16.23-.29a2.21,2.21,0,0,0,.07-.81c0-.26-.08-.67-.33-.81s-.48.08-.52.37a3.07,3.07,0,0,0,.13.91C5,31.38,5.15,31.68,5.31,31.65Z"/><path class="cls-1" d="M8.64,40.67a4.94,4.94,0,0,0-.25-.83c-.13-.35-.45-.88-.88-.57-.27.2-.19.44-.06.69a8.48,8.48,0,0,0,.62.94c.14.2.32.29.44.25S8.7,41,8.64,40.67Z"/><path class="cls-1" d="M5.66,23c.19,0,.33-.15.43-.3a3.72,3.72,0,0,0,.37-1.06,1.49,1.49,0,0,0-.14-1.2c-.31-.33-.7-.09-.85.28a1.9,1.9,0,0,0-.12.52c0,.12,0,.24,0,.37s0,.13,0,.19,0,.13,0,.2C5.32,22.51,5.42,23,5.66,23Z"/><path class="cls-1" d="M7.08,17.19A.36.36,0,0,0,7.41,17a2.56,2.56,0,0,0,.22-.35,2.48,2.48,0,0,0,.17-.37,1.6,1.6,0,0,0,.1-.43.57.57,0,0,0-.06-.43c-.18-.27-.47-.14-.63.1a3,3,0,0,0-.27.89C6.89,16.8,6.92,17.15,7.08,17.19Z"/><path class="cls-1" d="M13.58,12.4a.21.21,0,0,0,.2-.1.9.9,0,0,0,.14-.2,1.47,1.47,0,0,0,.1-.22,1.43,1.43,0,0,0,.06-.26.36.36,0,0,0-.05-.25c-.11-.17-.29-.09-.39.05a2,2,0,0,0-.16.53C13.46,12.17,13.48,12.37,13.58,12.4Z"/><path class="cls-1" d="M5.88,26.93A4.05,4.05,0,0,0,6,26.08c0-.37-.06-1-.58-.89-.32.07-.35.32-.33.6s.11.76.17,1.11.18.4.31.41a.2.2,0,0,0,.18-.07A1,1,0,0,0,5.88,26.93Z"/><path class="cls-1" d="M14.2,23.46a.73.73,0,0,1-.29-.43,2.61,2.61,0,0,1-.08-1c0-.28.09-.71.39-.77s.58.31.62.65S14.61,23.67,14.2,23.46Z"/><path class="cls-1" d="M13.83,26.44a5.35,5.35,0,0,1-.21-.69c-.06-.3-.06-.77.44-.58a.5.5,0,0,1,.36.52,7.22,7.22,0,0,1,0,.81C14.37,26.87,14,26.89,13.83,26.44Z"/><path class="cls-1" d="M14.9,35.54c-.15,0-.3-.16-.41-.31a3.55,3.55,0,0,1-.5-1,2.42,2.42,0,0,1-.14-.56.6.6,0,0,1,.11-.46c.24-.2.57.1.74.43a5,5,0,0,1,.3,1.07C15.08,35.15,15.09,35.54,14.9,35.54Z"/><path class="cls-1" d="M14,31.26a.45.45,0,0,1-.23-.3,2.05,2.05,0,0,1-.12-.72c0-.21,0-.54.25-.59s.4.21.44.45a2.43,2.43,0,0,1-.05.72C14.21,31.09,14.12,31.32,14,31.26Z"/><path class="cls-1" d="M15.58,39.25a6.8,6.8,0,0,1-.39-.76c-.14-.33-.28-.88.17-.79.27.06.37.28.44.52s.17.66.24,1S15.88,39.75,15.58,39.25Z"/><path class="cls-1" d="M12.48,15.55a.34.34,0,0,1-.22-.3,2.32,2.32,0,0,1,0-.83c.06-.24.19-.65.47-.74s.45.18.45.45A3.28,3.28,0,0,1,13,15a2.14,2.14,0,0,1-.22.43C12.65,15.51,12.56,15.57,12.48,15.55Z"/><path class="cls-1" d="M12.19,20c-.15,0-.25-.17-.31-.31a2.32,2.32,0,0,1-.15-.94c0-.3,0-.79.33-1s.58.07.64.4a3.49,3.49,0,0,1-.08,1C12.54,19.59,12.4,20,12.19,20Z"/><path class="cls-1" d="M17.73,8.91c.1,0,.2-.05.26-.12a1.45,1.45,0,0,0,.17-.26,1.75,1.75,0,0,0,.13-.28,1.45,1.45,0,0,0,.08-.33.42.42,0,0,0-.06-.33c-.15-.21-.38-.12-.5.07a2.06,2.06,0,0,0-.2.67C17.57,8.61,17.6,8.88,17.73,8.91Z"/><path class="cls-1" d="M18.3,13.21c-.11,0-.18-.12-.22-.22a2,2,0,0,1-.08-.68c0-.22.08-.56.29-.67s.4.08.43.31a2.66,2.66,0,0,1-.1.73,1.44,1.44,0,0,1-.13.37C18.44,13.15,18.37,13.22,18.3,13.21Z"/><path class="cls-1" d="M18.24,17.36c-.14,0-.24-.17-.3-.31a2.74,2.74,0,0,1-.18-.93c0-.29,0-.77.29-.94s.54.09.6.41a3.36,3.36,0,0,1,0,1C18.55,17,18.43,17.37,18.24,17.36Z"/><path class="cls-1" d="M14.84,19.48c-.13,0-.2-.18-.23-.31a2.57,2.57,0,0,1,0-.83c0-.26.15-.67.41-.79s.47.14.48.42S15.17,19.54,14.84,19.48Z"/><path class="cls-1" d="M15.65,15.84a.6.6,0,0,1-.24-.36,2.23,2.23,0,0,1-.07-.8c0-.22.08-.59.33-.63s.48.26.51.54S16,16,15.65,15.84Z"/><path class="cls-1" d="M16.13,11.84c-.13,0-.19-.18-.22-.31a2.11,2.11,0,0,1,0-.83c0-.26.14-.67.41-.79s.47.13.48.42S16.47,11.9,16.13,11.84Z"/><path class="cls-1" d="M11.05,10.94a.56.56,0,0,1,0-.44,2.33,2.33,0,0,1,.47-.69c.17-.17.46-.42.69-.29s.22.52.06.77S11.2,11.3,11.05,10.94Z"/><path class="cls-1" d="M13.83,9c-.08-.1,0-.25,0-.36a2.52,2.52,0,0,1,.5-.62c.19-.16.52-.4.78-.33s.27.38.1.6S14,9.21,13.83,9Z"/><path class="cls-1" d="M8.31,13.14a5.24,5.24,0,0,1,.43-.77c.21-.32.65-.77,1-.34.19.25.06.46-.12.68s-.53.52-.79.77S8.07,13.67,8.31,13.14Z"/><path class="cls-1" d="M13.32,43.21c.15-.05.19-.22.2-.36a2.3,2.3,0,0,0-.16-.89c-.09-.26-.28-.69-.6-.78s-.52.2-.48.51S13,43.34,13.32,43.21Z"/><path class="cls-1" d="M12.18,37.36c.12-.06.14-.22.13-.35a2.41,2.41,0,0,0-.2-.8c-.11-.24-.31-.61-.59-.66s-.43.24-.37.52S11.88,37.51,12.18,37.36Z"/><path class="cls-1" d="M16.05,46.51a4.27,4.27,0,0,0-.27-.63c-.14-.26-.45-.65-.76-.36s-.1.35,0,.53a7.35,7.35,0,0,0,.56.67C15.88,47,16.19,46.94,16.05,46.51Z"/><path class="cls-1" d="M9.18,28.64c.15,0,.24-.21.29-.38a3.4,3.4,0,0,0,.13-1.05c0-.32,0-.86-.31-1.06s-.58.09-.65.46a4.21,4.21,0,0,0,.08,1.2,3.18,3.18,0,0,0,.08.33,1.69,1.69,0,0,0,.11.27C9,28.57,9.08,28.66,9.18,28.64Z"/><path class="cls-1" d="M10.07,33.14a8.28,8.28,0,0,0-.06-.86c-.06-.36-.23-1-.73-.75-.3.12-.3.38-.22.65s.11.36.18.54l.22.52C9.65,33.7,10.07,33.71,10.07,33.14Z"/><path class="cls-1" d="M8.9,22.67c-.13,0-.21-.18-.25-.35a4.5,4.5,0,0,1-.1-1.11,1.94,1.94,0,0,1,.3-1.16c.27-.27.47,0,.51.42S9.22,22.67,8.9,22.67Z"/><path class="cls-1" d="M20.83,25.63c.12,0,.2-.14.24-.28a3.31,3.31,0,0,0,.15-1,1.56,1.56,0,0,0-.21-1c-.23-.24-.43,0-.49.34S20.53,25.62,20.83,25.63Z"/></g></g></svg>