<svg xmlns="http://www.w3.org/2000/svg" viewBox="0 0 30.77 72.13"><defs><style>.cls-1{fill:#d4e9e5;}.cls-2{fill:#bad3ce;}.cls-3{fill:#4c6b51;}</style></defs><g id="Layer_2" data-name="Layer 2"><g id="Image"><path class="cls-1" d="M.12,39.78C1.57,23.83,3,1.93,14.55.09S32.38,24.28,30.41,39.78,23.59,60.53,16.91,62.1-1.32,55.74.12,39.78Z"/><path class="cls-2" d="M2.82,42.67C6,26.5,3.84,13.56,15,11.5c9.71-1.79,15.1,19,13.43,31.17S22.7,59,17,60.2.38,55,2.82,42.67Z"/><path class="cls-3" d="M14.89,26.61c0-1.46,0-2.92,0-4.37.08-2,.13-6.15.71-6.15s.3,11.81.39,16.65q.28,15.78,0,31.55c0,1.47.2,7.84-.46,7.84s-.4-4.46-.41-5.91l-.06-9.54Q15,47.08,15,37.49C14.93,33.86,14.91,30.24,14.89,26.61Z"/><path class="cls-3" d="M15.53,24.24a.3.3,0,0,1-.15,0c-.31-.26-.65-.49-1-.72s-.47-.32-.69-.49a11.2,11.2,0,0,1-4.09-6.15.23.23,0,1,1,.44-.11A11,11,0,0,0,14,22.62l.68.47c.34.23.69.47,1,.74a.25.25,0,0,1,0,.33A.25.25,0,0,1,15.53,24.24Z"/><path class="cls-3" d="M15.73,32.45l-.09,0a14.53,14.53,0,0,1-3.9-2.32,15.83,15.83,0,0,1-2.25-2.82c-.8-1.19-1.6-2.41-2.37-3.63a.22.22,0,1,1,.38-.24c.77,1.21,1.57,2.42,2.37,3.62a15.36,15.36,0,0,0,2.18,2.73A14.24,14.24,0,0,0,15.83,32a.24.24,0,0,1,.11.31A.23.23,0,0,1,15.73,32.45Z"/><path class="cls-3" d="M15.65,40.08h-.07a13,13,0,0,1-5.07-3.19,41.36,41.36,0,0,1-4-4.68l-1-1.27a.23.23,0,0,1,.36-.28l1,1.27a41.69,41.69,0,0,0,4,4.63,12.54,12.54,0,0,0,4.89,3.08.23.23,0,0,1,.15.29A.22.22,0,0,1,15.65,40.08Z"/><path class="cls-3" d="M15.77,48.43h0a8,8,0,0,1-2.84-1.33,30.66,30.66,0,0,1-8.25-8.28A.23.23,0,1,1,5,38.55a30.35,30.35,0,0,0,8.13,8.16A7.32,7.32,0,0,0,15.81,48a.24.24,0,0,1,.19.27A.24.24,0,0,1,15.77,48.43Z"/><path class="cls-3" d="M15.53,56.23h-.06a14,14,0,0,1-4.2-2,26.28,26.28,0,0,1-2.15-1.69c-2.38-2-4.79-4.24-5.78-7.45a.23.23,0,0,1,.15-.29.22.22,0,0,1,.28.15c1,3.1,3.32,5.28,5.64,7.24.67.56,1.38,1.15,2.12,1.66a13.69,13.69,0,0,0,4.06,1.91.22.22,0,0,1,.16.28A.23.23,0,0,1,15.53,56.23Z"/><path class="cls-3" d="M15.52,24.24a.23.23,0,0,1-.15-.41c.33-.27.68-.51,1-.74s.46-.31.67-.47A11,11,0,0,0,21,16.72a.23.23,0,0,1,.28-.17.24.24,0,0,1,.16.28A11.2,11.2,0,0,1,17.34,23l-.69.49c-.33.23-.67.46-1,.72A.24.24,0,0,1,15.52,24.24Z"/><path class="cls-3" d="M15.31,32.45a.22.22,0,0,1-.2-.13.22.22,0,0,1,.11-.31A14,14,0,0,0,19,29.77,14.93,14.93,0,0,0,21.17,27c.8-1.19,1.6-2.41,2.37-3.62a.23.23,0,0,1,.32-.07.22.22,0,0,1,.07.31c-.77,1.22-1.57,2.44-2.38,3.63a15,15,0,0,1-2.25,2.82,14.63,14.63,0,0,1-3.89,2.32Z"/><path class="cls-3" d="M15.4,40.08a.22.22,0,0,1-.22-.16.23.23,0,0,1,.15-.29,12.54,12.54,0,0,0,4.89-3.08,42.78,42.78,0,0,0,4-4.63l1-1.27a.24.24,0,0,1,.33,0,.23.23,0,0,1,0,.32l-1,1.27a42.41,42.41,0,0,1-4,4.68,13,13,0,0,1-5.08,3.19Z"/><path class="cls-3" d="M15.28,48.43a.24.24,0,0,1-.23-.19.24.24,0,0,1,.18-.27,7.36,7.36,0,0,0,2.67-1.26A30.35,30.35,0,0,0,26,38.55a.22.22,0,0,1,.31-.06.23.23,0,0,1,.07.32,30.7,30.7,0,0,1-8.26,8.28,7.84,7.84,0,0,1-2.83,1.33Z"/><path class="cls-3" d="M15.52,56.23a.25.25,0,0,1-.23-.17.23.23,0,0,1,.16-.28,13.58,13.58,0,0,0,4.06-1.91c.74-.51,1.46-1.1,2.12-1.66,2.33-2,4.68-4.14,5.64-7.24a.23.23,0,1,1,.44.14c-1,3.21-3.4,5.44-5.78,7.45-.68.57-1.4,1.17-2.16,1.69a13.84,13.84,0,0,1-4.19,2Z"/><path class="cls-1" d="M19.6,14.25a.57.57,0,0,1-.57.56.56.56,0,0,1,0-1.12A.57.57,0,0,1,19.6,14.25Z"/><path class="cls-1" d="M12.83,16.55a.5.5,0,0,1-1,0,.5.5,0,0,1,1,0Z"/><path class="cls-1" d="M10.08,20.84a.54.54,0,1,1-1.08,0,.54.54,0,0,1,1.08,0Z"/><circle class="cls-1" cx="12.49" cy="25.45" r="0.37"/><path class="cls-1" d="M9.94,24a.22.22,0,0,1-.44,0,.22.22,0,0,1,.44,0Z"/><path class="cls-1" d="M15,13.15a.3.3,0,0,1-.59,0,.3.3,0,1,1,.59,0Z"/><path class="cls-1" d="M14.34,21.14a.36.36,0,1,1-.36-.36A.36.36,0,0,1,14.34,21.14Z"/><path class="cls-1" d="M7.69,27.19a.38.38,0,1,1-.75,0,.38.38,0,0,1,.75,0Z"/><circle class="cls-1" cx="10.86" cy="29.39" r="0.55"/><circle class="cls-1" cx="8.08" cy="30.87" r="0.46"/><path class="cls-1" d="M18,19.19a.27.27,0,1,1-.27-.27A.27.27,0,0,1,18,19.19Z"/><path class="cls-1" d="M22.79,21a.61.61,0,0,1-.62.61.61.61,0,0,1-.61-.61.61.61,0,0,1,.61-.62A.62.62,0,0,1,22.79,21Z"/><circle class="cls-1" cx="17.42" cy="24.77" r="0.53"/><path class="cls-1" d="M20.39,25.91a.46.46,0,1,1-.92,0,.46.46,0,0,1,.92,0Z"/><path class="cls-1" d="M18.51,28.62a.43.43,0,0,1-.43.43.43.43,0,0,1,0-.86A.43.43,0,0,1,18.51,28.62Z"/><path class="cls-1" d="M14,29.2a.39.39,0,0,1-.39.39.4.4,0,0,1-.39-.39.39.39,0,0,1,.39-.39A.38.38,0,0,1,14,29.2Z"/><circle class="cls-1" cx="19.4" cy="33.77" r="0.52"/><circle class="cls-1" cx="23.57" cy="31.01" r="0.45"/><path class="cls-1" d="M26,26.66a.47.47,0,1,1-.47-.47A.47.47,0,0,1,26,26.66Z"/><path class="cls-1" d="M21.93,29.57a.37.37,0,0,1-.74,0,.37.37,0,0,1,.74,0Z"/><path class="cls-1" d="M19.15,37.23a.66.66,0,1,1-.65-.66A.65.65,0,0,1,19.15,37.23Z"/><path class="cls-1" d="M22.15,40.42a.6.6,0,0,1-.6.6.6.6,0,0,1,0-1.19A.6.6,0,0,1,22.15,40.42Z"/><path class="cls-1" d="M18.52,43.89a.49.49,0,0,1-.48.48.48.48,0,0,1-.48-.48.47.47,0,0,1,.48-.48A.48.48,0,0,1,18.52,43.89Z"/><path class="cls-1" d="M24.39,35.19a.34.34,0,1,1-.68,0,.34.34,0,0,1,.68,0Z"/><circle class="cls-1" cx="26.69" cy="36.69" r="0.55"/><circle class="cls-1" cx="24.09" cy="44.35" r="0.6"/><path class="cls-1" d="M25.24,47.41a.31.31,0,0,1-.3.3.3.3,0,0,1-.3-.3.29.29,0,0,1,.3-.3A.3.3,0,0,1,25.24,47.41Z"/><path class="cls-1" d="M19.52,49.58A.56.56,0,1,1,19,49,.56.56,0,0,1,19.52,49.58Z"/><path class="cls-1" d="M17.56,52.23a.29.29,0,0,1-.28.28.28.28,0,0,1-.28-.28.27.27,0,0,1,.28-.28A.28.28,0,0,1,17.56,52.23Z"/><path class="cls-1" d="M21.84,45.68a.28.28,0,0,1-.28.28.29.29,0,0,1-.28-.28.28.28,0,0,1,.28-.28A.27.27,0,0,1,21.84,45.68Z"/><path class="cls-1" d="M28.58,41.89a.28.28,0,0,1-.28.28.28.28,0,1,1,0-.56A.28.28,0,0,1,28.58,41.89Z"/><path class="cls-1" d="M19.06,40a.29.29,0,0,1-.28.28A.28.28,0,0,1,18.5,40a.27.27,0,0,1,.28-.28A.28.28,0,0,1,19.06,40Z"/><path class="cls-1" d="M22.64,50.32a.54.54,0,0,1-.54.54.54.54,0,1,1,0-1.08A.54.54,0,0,1,22.64,50.32Z"/><path class="cls-1" d="M24.61,54.07a.52.52,0,0,1-.52.53.53.53,0,1,1,0-1.05A.52.52,0,0,1,24.61,54.07Z"/><circle class="cls-1" cx="19.26" cy="56.22" r="0.49"/><circle class="cls-1" cx="13.47" cy="58.13" r="0.44"/><path class="cls-1" d="M10,54.46a.62.62,0,0,1-.62.62.62.62,0,0,1,0-1.24A.62.62,0,0,1,10,54.46Z"/><path class="cls-1" d="M5.74,52.31a.5.5,0,1,1-.49-.49A.49.49,0,0,1,5.74,52.31Z"/><circle class="cls-1" cx="5.55" cy="46.34" r="0.47"/><path class="cls-1" d="M5.71,42.28a.38.38,0,0,1-.39.39.39.39,0,0,1,0-.78A.38.38,0,0,1,5.71,42.28Z"/><path class="cls-1" d="M10.3,45.85a.47.47,0,1,1-.47-.47A.47.47,0,0,1,10.3,45.85Z"/><path class="cls-1" d="M11.09,49.17a.41.41,0,0,1-.41.41.41.41,0,0,1-.41-.41.41.41,0,0,1,.41-.41A.42.42,0,0,1,11.09,49.17Z"/><path class="cls-1" d="M13.23,52.23a.33.33,0,0,1-.65,0,.33.33,0,1,1,.65,0Z"/><path class="cls-1" d="M9.69,57.29a.33.33,0,0,1-.33.33A.32.32,0,0,1,9,57.29.32.32,0,0,1,9.36,57,.32.32,0,0,1,9.69,57.29Z"/><path class="cls-1" d="M14.31,45.27a.41.41,0,0,1-.82,0,.41.41,0,1,1,.82,0Z"/><circle class="cls-1" cx="12.11" cy="41.04" r="0.43"/><path class="cls-1" d="M9,38.83a.38.38,0,1,1-.37-.37A.38.38,0,0,1,9,38.83Z"/><path class="cls-1" d="M7.1,35.23a.63.63,0,1,1-.63-.62A.63.63,0,0,1,7.1,35.23Z"/><path class="cls-1" d="M11.68,34.8a.45.45,0,1,1-.9,0,.45.45,0,0,1,.9,0Z"/><path class="cls-1" d="M14.34,33.88a.44.44,0,0,1-.44.44.44.44,0,0,1-.43-.44.43.43,0,0,1,.43-.43A.44.44,0,0,1,14.34,33.88Z"/></g></g></svg>