<svg xmlns="http://www.w3.org/2000/svg" viewBox="0 0 78.12 74.23"><defs><style>.cls-1{fill:#4c6b51;}.cls-2{fill:#c86e29;}.cls-3{fill:#fbf2d6;}.cls-4{fill:#f45b44;}.cls-5{fill:#f2b669;}.cls-6{fill:#fde8ca;}.cls-7{fill:#fa8573;}.cls-8{fill:#fff;}</style></defs><g id="Layer_2" data-name="Layer 2"><g id="Image"><path class="cls-1" d="M72.11,27.41H5.6s4.28,44.87,8.32,46c3.4,1,44.08,1.21,49.86,0C66.8,72.78,72.11,27.41,72.11,27.41Z"/><path class="cls-2" d="M20,40.87c-.54.4-5.86.58-6.4,0s-.58-6.89,0-7.65,5.82-.58,6.4,0S20.58,40.47,20,40.87Z"/><path class="cls-2" d="M35.65,40.1c-.48.35-5.42.51-5.91,0s-.6-6-.06-6.68c.34-.41,5.65-.34,6,0S36.14,39.75,35.65,40.1Z"/><path class="cls-2" d="M29.8,33.46a10.08,10.08,0,0,0-2.62-2.05.18.18,0,0,0-.21.1h0a43.48,43.48,0,0,0-.17,5.23A32.55,32.55,0,0,0,27,42a.18.18,0,0,0,.17.1h0a10,10,0,0,0,2.64-2,19.38,19.38,0,0,0,0-3.23C29.82,35.29,29.86,33.69,29.8,33.46Zm-2.67,1.38c.47.13,1.59.51,2.34.76v.51l-2.35-.17C27.13,35.57,27.13,35.19,27.13,34.84Zm2.33.32c-1.39-.48-2-.68-2.32-.76,0-.45,0-.87,0-1.24l1,.69c.79.55,1.14.79,1.31.89C29.46,34.87,29.46,35,29.46,35.16Zm-2.34,1.21,2.35.17v.67l-2.35.16Zm2.34,1.27v.48l-2.33.71c0-.33,0-.68,0-1Zm-2.32,1.63c.43-.12,1.42-.43,2.3-.7,0,.13,0,.26,0,.38l-2.27,1.29C27.15,39.94,27.14,39.62,27.14,39.27Zm.08-7.41a13.26,13.26,0,0,1,2.17,1.69,5.72,5.72,0,0,1,.05.71c-.26-.17-.74-.51-1.15-.8l-1.12-.77C27.19,32.32,27.2,32,27.22,31.86Zm0,9.75c0-.17,0-.49,0-.91l2.23-1.27a2.65,2.65,0,0,1-.06.41A12.27,12.27,0,0,1,27.22,41.61Z"/><path class="cls-2" d="M35.54,36.87a20.13,20.13,0,0,0,.05,3.23,10,10,0,0,0,2.63,2h0a.21.21,0,0,0,.17-.1,35,35,0,0,0,.17-5.22,43.48,43.48,0,0,0-.17-5.23h0a.17.17,0,0,0-.2-.1,9.92,9.92,0,0,0-2.62,2.05C35.52,33.69,35.56,35.29,35.54,36.87Zm2.72-.93-2.35.17c0-.17,0-.34,0-.51.74-.25,1.86-.63,2.33-.76C38.25,35.19,38.26,35.57,38.26,35.94Zm-2.33-1.2c.17-.1.52-.34,1.31-.89l1-.69c0,.37,0,.79,0,1.24-.31.08-.94.28-2.33.76C35.92,35,35.93,34.87,35.93,34.74Zm2.33,2.63-2.35-.16v-.67l2.35-.17Zm0,.43c0,.35,0,.7,0,1l-2.32-.71c0-.15,0-.31,0-.48Zm0,2.44L36,39c0-.12,0-.25,0-.38.89.27,1.87.58,2.3.7C38.24,39.62,38.23,39.94,38.23,40.24Zm0-7.55-1.12.77c-.41.29-.89.63-1.15.8,0-.35,0-.61.05-.71a13.26,13.26,0,0,1,2.17-1.69C38.18,32,38.2,32.32,38.21,32.69ZM36,39.84a2.65,2.65,0,0,1-.06-.41l2.23,1.27c0,.42,0,.74-.05.91A12.27,12.27,0,0,1,36,39.84Z"/><path class="cls-3" d="M35.5,39.77c-.42.36-5,.45-5.49,0s-.5-5.39,0-6,5-.46,5.49,0S35.71,39.59,35.5,39.77Z"/><path class="cls-1" d="M32.08,38.58a8.16,8.16,0,0,0,1,.77c.12.09.4.23.48.14s-.49-.77-.67-.93a1.77,1.77,0,0,0-.8-.45c0-.19,0-.35,0-.46s0-.28,0-.51c.15.19.35.45.54.65s.73.62.84.49-.19-.52-.34-.69a11.49,11.49,0,0,0-1-1c0-.3,0-.53,0-.72a7.12,7.12,0,0,0,.53.55c.08.07.16.14.25.13l0,0s0-.05,0-.08l-.1-.17a3.85,3.85,0,0,0-.59-.73.39.39,0,0,0-.16-.1s-.13-.07-.3.1a4.22,4.22,0,0,0-.61.69.29.29,0,0,0-.07.22c0,.13.3,0,.37-.1a2.27,2.27,0,0,0,.37-.42v.72a.79.79,0,0,0-.15.12,6.75,6.75,0,0,0-1,1c-.07.08-.24.32-.17.4s.53-.14.65-.25a4.09,4.09,0,0,0,.69-.65v.41c0,.11,0,.26,0,.43a.77.77,0,0,0-.24.12,5.58,5.58,0,0,0-1,.93l-.17.22a.11.11,0,0,0,0,.11c.16.19.75-.27.89-.37a4.5,4.5,0,0,0,.54-.52c0,.52,0,1.11.07,1.46h.22A12,12,0,0,0,32.08,38.58Z"/><path class="cls-4" d="M31.79,35.56a1.73,1.73,0,0,0,0,.45,3.68,3.68,0,0,0,.23-.44s.39.31.41.27a1.78,1.78,0,0,0-.2-.39,3,3,0,0,0,.4-.2,2.39,2.39,0,0,0-.46,0s.26-.51.25-.53a3.92,3.92,0,0,0-.42.4,3.11,3.11,0,0,0-.16-.46,5.16,5.16,0,0,0,0,.54,2.42,2.42,0,0,0-.48-.13s.33.36.33.36-.3.32-.28.36S31.79,35.56,31.79,35.56Z"/><path class="cls-2" d="M51.39,40.68c-.54.41-5.86.59-6.4,0s-.58-6.89,0-7.65,5.82-.58,6.4,0S51.93,40.28,51.39,40.68Z"/><path class="cls-5" d="M51.1,40.34c-.49.37-5.34.53-5.83,0s-.53-6.28,0-7,5.3-.53,5.83,0S51.59,40,51.1,40.34Z"/><path class="cls-2" d="M51.63,36.72l-3.3,0c0-3.91,0-3.93,0-4l-.13.08h-.12c0,.11,0,1.92,0,3.87l-3.31,0v.27l3.31,0c0,1.47,0,3,0,3.89h.27c0-1.59,0-2.86,0-3.89l3.3,0Z"/><path class="cls-2" d="M66,40.68c-.53.41-5.86.59-6.4,0s-.58-6.89,0-7.65,5.82-.58,6.4,0S66.58,40.28,66,40.68Z"/><path class="cls-3" d="M65.76,40.34c-.49.37-5.34.53-5.83,0s-.53-6.28,0-7,5.3-.53,5.83,0S66.25,40,65.76,40.34Z"/><path class="cls-1" d="M65.62,39.51s-.5,0-1,.05-1.48.11-1.51.13a3.31,3.31,0,0,0,.06.94s1.43-.06,2.15-.12l.41-.06a2,2,0,0,0,0-.46A3.2,3.2,0,0,0,65.62,39.51Z"/><path class="cls-4" d="M65.66,39.87,64.54,40h-.09l0-.24v-.15h-.17a2.83,2.83,0,0,1,0,.29V40l-1.22.09s0,.11,0,.16l1.22-.08,0,.44h.17l0-.44.24,0,1-.07v-.17Z"/><path class="cls-3" d="M63.26,39.84v0a.05.05,0,1,0,.08.06h0a0,0,0,0,0,0-.07.06.06,0,0,0-.08,0Z"/><path class="cls-3" d="M63.56,39.83c.07,0,.06-.1,0-.1a.05.05,0,0,0,0,.1Z"/><path class="cls-3" d="M63.32,40.54c.06,0,.06-.11,0-.1s-.05.1,0,.1Z"/><path class="cls-3" d="M64.12,40.37h0s.05,0,.06,0a0,0,0,0,0,0-.06h0s0,0-.06,0,0,0,0,.06Z"/><path class="cls-3" d="M64.77,39.81c.07,0,.06-.11,0-.1s-.06.1,0,.1Z"/><path class="cls-3" d="M63.69,40.43a0,0,0,0,0,0-.09,0,0,0,0,0,0,.09Z"/><path class="cls-3" d="M65.24,40.26a.06.06,0,0,0,0-.11.06.06,0,0,0,0,.11Z"/><path class="cls-3" d="M65.51,40.34s0-.07,0-.07,0,.07,0,.07Z"/><path class="cls-3" d="M65.53,39.84s0-.07,0-.07,0,.07,0,.07Z"/><path class="cls-3" d="M64.11,39.86s0-.07,0-.07,0,.07,0,.07Z"/><path class="cls-3" d="M63.91,39.8c.05,0,0-.07,0-.07s0,.07,0,.07Z"/><path class="cls-3" d="M63.93,40.54s0-.07,0-.07,0,.07,0,.07Z"/><path class="cls-3" d="M64.84,40.34s0-.07,0-.07a0,0,0,0,0,0,.07Z"/><path class="cls-3" d="M65.3,39.74s0-.07,0-.07,0,.07,0,.07Z"/><path class="cls-3" d="M65.06,40.43a0,0,0,0,0,0-.07s0,.07,0,.07Z"/><path class="cls-4" d="M64.94,39.33h0l.06-.09s0-.13,0-.16-.08,0-.13,0l-.11,0a.39.39,0,0,0,.09-.2.14.14,0,0,0,0-.09.1.1,0,0,0-.09,0c-.08,0-.14.16-.2.33,0-.19.07-.38-.08-.37s-.11.24-.09.41a1.1,1.1,0,0,1,0,.18,2.63,2.63,0,0,0-.33-.48c-.07-.08-.21-.19-.32-.08s0,.23.19.38l0,0c-.16-.06-.31-.08-.33,0-.11.27.54.32.73.34l-.2.08a.52.52,0,0,1-.43-.06h0s0,0,0,0a.51.51,0,0,0,.46.06l.22-.08-.14.16a.49.49,0,0,1-.4.15l0,0,0,0a.54.54,0,0,0,.43-.16l.13-.14a1.56,1.56,0,0,0,.27.66h0v0a1.72,1.72,0,0,1-.27-.67h0a1.74,1.74,0,0,0,.58.5h0a0,0,0,0,0,0,0l0,0a1.8,1.8,0,0,1-.55-.48l.26.07a.51.51,0,0,0,.35-.07c.05,0,.09-.11.06-.16A.15.15,0,0,0,64.94,39.33Zm-1.36-.12c0-.07.27,0,.47.12l.19.14C64,39.44,63.5,39.39,63.58,39.21Zm.53.1-.26-.2c-.22-.17-.18-.25-.13-.29s.17,0,.21.07a3,3,0,0,1,.36.54A.7.7,0,0,0,64.11,39.31Zm.7-.21h.09s0,.08,0,.12a.35.35,0,0,1-.08.1,1.06,1.06,0,0,0-.38.1l0,0A.81.81,0,0,1,64.81,39.1Zm0,.27-.1.06-.16,0A2,2,0,0,1,64.76,39.37Zm-.41-.06,0,0a1.5,1.5,0,0,0,0-.2c0-.16-.07-.35.06-.36S64.41,39.12,64.35,39.31Zm.11-.12c.06-.16.13-.33.19-.35h.06a.09.09,0,0,1,0,.06c0,.11-.17.28-.31.42l0,0Zm.51.32a.45.45,0,0,1-.33.07,1.17,1.17,0,0,1-.2-.06l.23-.06a.32.32,0,0,0,.17-.1H65l0,0S65,39.49,65,39.51Z"/><path class="cls-4" d="M62.46,32.91a6,6,0,0,1-.85,3.29,7,7,0,0,1-2,2.07s-.21-4.38.35-4.9S62.46,32.91,62.46,32.91Z"/><path class="cls-2" d="M66.28,36.72l-3.3,0c0-3.91,0-3.93,0-4l-.12.08H62.7c0,.11,0,1.92,0,3.87l-3.31,0v.27l3.31,0c0,1.47,0,3,0,3.89H63C63,39.26,63,38,63,37l3.3,0Z"/><path class="cls-3" d="M10.28,35.77A1,1,0,0,0,9.72,35c-.23-.1-.6.08-.72.51s.25.93.59,1A.67.67,0,0,0,10.28,35.77Z"/><path class="cls-3" d="M19.38,32.7a1,1,0,0,0-.56-.77c-.24-.1-.6.08-.72.51s.24.93.59,1A.68.68,0,0,0,19.38,32.7Z"/><path class="cls-3" d="M30.28,32.74a1,1,0,0,0-.55-.76c-.24-.11-.6.07-.72.5s.24.93.58,1A.68.68,0,0,0,30.28,32.74Z"/><path class="cls-3" d="M48.86,32.88a1,1,0,0,0,.14-.94.61.61,0,0,0-.87-.14c-.25.15-.48.84-.25,1.1A.67.67,0,0,0,48.86,32.88Z"/><path class="cls-3" d="M54.39,34.85a1,1,0,0,0,.14-.94.6.6,0,0,0-.87-.13c-.25.14-.48.83-.25,1.09A.67.67,0,0,0,54.39,34.85Z"/><path class="cls-3" d="M69.32,33a1,1,0,0,0-.47-.82c-.22-.13-.6,0-.77.43a1,1,0,0,0,.48,1A.68.68,0,0,0,69.32,33Z"/><path class="cls-3" d="M13.32,31.87a.44.44,0,0,0-.49.15c-.26.41.27,1.13.76,1S13.83,32,13.32,31.87Z"/><path class="cls-3" d="M23.62,31.24a.45.45,0,0,0-.48-.18.76.76,0,0,0,0,1.27C23.74,32.56,23.94,31.67,23.62,31.24Z"/><path class="cls-3" d="M34.77,31.27a.45.45,0,0,0-.48-.18.76.76,0,0,0,0,1.27C34.89,32.59,35.09,31.7,34.77,31.27Z"/><path class="cls-3" d="M43.81,32A.49.49,0,0,0,43.2,32a1,1,0,0,0,.43,1.53C44.38,33.58,44.32,32.43,43.81,32Z"/><path class="cls-3" d="M39.13,32.23a.41.41,0,0,0-.36-.35.75.75,0,0,0-.5,1.16C38.7,33.49,39.25,32.76,39.13,32.23Z"/><path class="cls-3" d="M57.86,32.44a.36.36,0,0,0-.44,0,.65.65,0,0,0,.34,1C58.3,33.49,58.23,32.71,57.86,32.44Z"/><path class="cls-3" d="M61.86,31.36a.37.37,0,0,0,.2.39c.39.15.91-.42.72-.81S61.91,30.91,61.86,31.36Z"/><path class="cls-3" d="M17.33,45.19a.43.43,0,0,0-.49.14.76.76,0,0,0,.77,1C18.22,46.18,17.85,45.34,17.33,45.19Z"/><path class="cls-3" d="M20.62,45.06a.43.43,0,0,0,.34.39.76.76,0,0,0,.58-1.13C21.14,43.84,20.54,44.54,20.62,45.06Z"/><path class="cls-3" d="M29.88,45.89a.43.43,0,0,0,.34.38c.48.06.9-.73.58-1.12S29.8,45.36,29.88,45.89Z"/><path class="cls-3" d="M44.06,45.1a.45.45,0,0,0,.33.39.76.76,0,0,0,.6-1.12C44.59,43.88,44,44.57,44.06,45.1Z"/><path class="cls-3" d="M40.89,44.37a.43.43,0,0,0,.47-.21c.19-.44-.44-1.08-.9-.89S40.36,44.29,40.89,44.37Z"/><path class="cls-3" d="M50.91,44.7a.43.43,0,0,0,.51,0,.75.75,0,0,0-.33-1.22C50.46,43.45,50.49,44.37,50.91,44.7Z"/><path class="cls-3" d="M68.13,46.53a.44.44,0,0,0,.22.47c.44.19,1.08-.44.88-.91S68.21,46,68.13,46.53Z"/><path class="cls-3" d="M11.48,48.09a1,1,0,0,0,.3-.9c0-.25-.41-.44-.83-.29-.27.1-.62.73-.44,1A.67.67,0,0,0,11.48,48.09Z"/><path class="cls-3" d="M27.12,44.94a1,1,0,0,0-.46-.8c-.21-.13-.58,0-.74.38a1,1,0,0,0,.47,1A.62.62,0,0,0,27.12,44.94Z"/><path class="cls-3" d="M36.53,45.76A.88.88,0,0,0,36.4,45a.47.47,0,0,0-.72.07.83.83,0,0,0,.07,1A.54.54,0,0,0,36.53,45.76Z"/><path class="cls-3" d="M56.23,45.68a.93.93,0,0,0-.32-.76.48.48,0,0,0-.69.25.86.86,0,0,0,.3.92A.54.54,0,0,0,56.23,45.68Z"/><path class="cls-3" d="M48.75,43.68a.89.89,0,0,0-.6-.49.43.43,0,0,0-.47.46.86.86,0,0,0,.66.62A.47.47,0,0,0,48.75,43.68Z"/><path class="cls-3" d="M60.42,45.63a.82.82,0,0,0,.21-.78c-.05-.21-.36-.35-.71-.2s-.49.65-.33.89A.58.58,0,0,0,60.42,45.63Z"/><path class="cls-3" d="M65.58,45.19a.86.86,0,0,0-.32-.76.49.49,0,0,0-.69.24.86.86,0,0,0,.31.92A.54.54,0,0,0,65.58,45.19Z"/><path class="cls-5" d="M9,47.17A3.44,3.44,0,0,0,9.46,46a3.12,3.12,0,0,0,1.2.7,6.17,6.17,0,0,0,7-2.29,1.2,1.2,0,0,0,.15-.3,3.25,3.25,0,0,0,.5.49,4.69,4.69,0,0,0,2.56.87,7.23,7.23,0,0,0,4.57-.76,6.32,6.32,0,0,0,1.7-1.46,4.78,4.78,0,0,0,3.26,1.8,4.92,4.92,0,0,0,3.12-.59,2.69,2.69,0,0,0,.75-.94,2.11,2.11,0,0,0,.38.4,6.33,6.33,0,0,0,5,1.22,4,4,0,0,0,2.9-2.81,4.13,4.13,0,0,0,1.23,1.37,6,6,0,0,0,3.62.8,7.86,7.86,0,0,0,5.08-1.85,3.62,3.62,0,0,0,3,2.25,4.18,4.18,0,0,0,3.22-1.46l.12-.14a1.42,1.42,0,0,0,.22.28A4.51,4.51,0,0,0,63,45.06a4.19,4.19,0,0,0,2.92-1.35,4.54,4.54,0,0,0,2.54,2.11,5.18,5.18,0,0,0,1.28.25v-.13a4.53,4.53,0,0,1-1.24-.24A4.31,4.31,0,0,1,66,43.6a2.21,2.21,0,0,0,.38-.89c0-.26,0-.54-.08-.6a.26.26,0,0,0-.29.09,1.21,1.21,0,0,0-.19,1.32l0,.07a4,4,0,0,1-2.87,1.35,4.43,4.43,0,0,1-3.79-1.43,1.66,1.66,0,0,1-.23-.31,1.78,1.78,0,0,0,.47-1.11c0-.36-.24-.38-.32-.37-.25,0-.51.47-.45,1a1.65,1.65,0,0,0,.15.51,1.19,1.19,0,0,1-.15.18,4,4,0,0,1-3.11,1.41,3.47,3.47,0,0,1-2.95-2.21,5.22,5.22,0,0,0,.68-.81.64.64,0,0,0,0-.74.61.61,0,0,0-.64-.21.66.66,0,0,0-.47.63h0a3.72,3.72,0,0,0,.23,1.09,7.7,7.7,0,0,1-5,1.85,6,6,0,0,1-3.56-.78,4.37,4.37,0,0,1-1.23-1.43c0-.08,0-.15,0-.21.17-.73.14-1.36-.08-1.53a.19.19,0,0,0-.24,0,.51.51,0,0,0-.27.48,2.66,2.66,0,0,0,.4,1.29A3.89,3.89,0,0,1,39.61,45a6.24,6.24,0,0,1-4.88-1.2,1.82,1.82,0,0,1-.38-.43,1.34,1.34,0,0,0,.15-.74.35.35,0,0,0-.29-.3c-.21,0-.29,0-.32.1s.08.61.31,1a2.71,2.71,0,0,1-.75.95,4.77,4.77,0,0,1-3,.57,4.66,4.66,0,0,1-3.21-1.78.89.89,0,0,0,.23-.65c0-.07-.09-.18-.32-.17a.24.24,0,0,0-.24.26,1,1,0,0,0,.19.55,6.24,6.24,0,0,1-1.7,1.47,7.19,7.19,0,0,1-4.49.74,4.7,4.7,0,0,1-2.5-.85,3.64,3.64,0,0,1-.52-.52,2.2,2.2,0,0,0-.09-1.72.37.37,0,0,0-.45-.13.42.42,0,0,0-.27.34A2.48,2.48,0,0,0,17.73,44a1.35,1.35,0,0,1-.17.34,6,6,0,0,1-6.86,2.24,3,3,0,0,1-1.21-.73,3.33,3.33,0,0,0,0-1.73.28.28,0,0,0-.24-.19A.3.3,0,0,0,9,44.1a2,2,0,0,0,.22,1.59l.16.21a3.38,3.38,0,0,1-.48,1.2,3.17,3.17,0,0,1-.9.81L8,48A3.14,3.14,0,0,0,9,47.17Zm57.09-4.88a.26.26,0,0,1,.12-.07h0a1.08,1.08,0,0,1,0,.72,2.56,2.56,0,0,1-.26.53h0A1.1,1.1,0,0,1,66.06,42.29Zm-7.32.37c-.05-.43.18-.79.35-.81h0c.12,0,.16.18.17.26a1.58,1.58,0,0,1-.41,1A1.66,1.66,0,0,1,58.74,42.66ZM52.3,41.45a.55.55,0,0,1,.38-.52.49.49,0,0,1,.51.17.52.52,0,0,1,0,.59,5,5,0,0,1-.63.75A3.3,3.3,0,0,1,52.3,41.45ZM42.17,40.9a.4.4,0,0,1,.21-.37l0,0,.06,0c.15.12.2.68,0,1.41,0,0,0,.05,0,.08A2.57,2.57,0,0,1,42.17,40.9ZM34,42.51s0,0,.09,0h.09a.22.22,0,0,1,.19.21,1,1,0,0,1-.11.59C34.07,43,33.94,42.64,34,42.51Zm-7,.1a.14.14,0,0,1,.13-.15h0c.13,0,.15.06.16.08a.71.71,0,0,1-.18.5A.89.89,0,0,1,27,42.61Zm-9.83-.11a.28.28,0,0,1,.19-.24l.11,0a.28.28,0,0,1,.21.11,2.06,2.06,0,0,1,.08,1.52A2.37,2.37,0,0,1,17.18,42.5ZM9.3,45.62a1.8,1.8,0,0,1-.22-1.45.18.18,0,0,1,.16-.11h0c.05,0,.09,0,.13.13a3.07,3.07,0,0,1,0,1.55Z"/><path class="cls-3" d="M65.08,57.86a.43.43,0,0,0-.5.15c-.26.41.27,1.14.77,1S65.6,58,65.08,57.86Z"/><path class="cls-3" d="M59.58,58.48a.43.43,0,0,0,.34.39.76.76,0,0,0,.58-1.13C60.1,57.26,59.5,58,59.58,58.48Z"/><path class="cls-3" d="M51.79,58.52a.43.43,0,0,1-.34.38.75.75,0,0,1-.58-1.12C51.27,57.3,51.87,58,51.79,58.52Z"/><path class="cls-3" d="M38,59.32a.42.42,0,0,1-.33.39.75.75,0,0,1-.59-1.12C37.51,58.11,38.12,58.79,38,59.32Z"/><path class="cls-3" d="M40.94,58.09a.45.45,0,0,1-.33.39.76.76,0,0,1-.6-1.12C40.41,56.88,41,57.56,40.94,58.09Z"/><path class="cls-3" d="M30.49,58.59a.44.44,0,0,1-.51,0,.75.75,0,0,1,.33-1.22C30.93,57.34,30.9,58.25,30.49,58.59Z"/><path class="cls-3" d="M12.68,61.28a.43.43,0,0,1-.51,0,.74.74,0,0,1,.47-1.17C13.27,60.09,13.13,61,12.68,61.28Z"/><path class="cls-3" d="M54.57,58a1,1,0,0,1,.46-.81c.21-.13.58,0,.74.38s-.14.91-.47,1A.62.62,0,0,1,54.57,58Z"/><path class="cls-3" d="M44.78,58.54a.88.88,0,0,1,.13-.81c.13-.18.47-.2.73.07a.85.85,0,0,1-.08,1A.54.54,0,0,1,44.78,58.54Z"/><path class="cls-3" d="M25,58.75a.92.92,0,0,1,.32-.76.49.49,0,0,1,.69.24.84.84,0,0,1-.31.92A.53.53,0,0,1,25,58.75Z"/><path class="cls-3" d="M33.57,57.64a.85.85,0,0,1,.6-.48.42.42,0,0,1,.47.45c0,.21-.38.64-.66.62A.46.46,0,0,1,33.57,57.64Z"/><path class="cls-3" d="M20.68,58.37a.82.82,0,0,1-.21-.77c.05-.21.37-.36.72-.21s.48.65.32.9A.57.57,0,0,1,20.68,58.37Z"/><path class="cls-3" d="M15.86,59.52a.89.89,0,0,1-.13-.81.47.47,0,0,1,.71-.16.84.84,0,0,1,.23.94A.55.55,0,0,1,15.86,59.52Z"/><path class="cls-5" d="M66.9,58a2.92,2.92,0,0,1-.76-1.35,1.59,1.59,0,0,0,.36-.78.28.28,0,0,0-.2-.26.27.27,0,0,0-.33.13,1.48,1.48,0,0,0,0,.88,4.28,4.28,0,0,1-1.64,1.33,4.5,4.5,0,0,1-3.14.11,3.21,3.21,0,0,1-2-1.63c.12-.21.16-.39.1-.49a.16.16,0,0,0-.15-.09h0A.19.19,0,0,0,59,56a.82.82,0,0,0,.09.39l0,0a2.7,2.7,0,0,1-2.67,1,3.19,3.19,0,0,1-2.33-1.94,3.31,3.31,0,0,0,.64-1.72.32.32,0,0,0-.19-.29.48.48,0,0,0-.54.06,1.42,1.42,0,0,0-.24,1.37,4.75,4.75,0,0,0,.18.57,3.3,3.3,0,0,1-.71.8l-.16.12a6,6,0,0,1-3.7,1.47,4.9,4.9,0,0,1-2.52-.69,1,1,0,0,0,.37-.6.64.64,0,0,0-.38-.63.4.4,0,0,0-.5.06.7.7,0,0,0-.06.75,1.22,1.22,0,0,0,.36.41,1.49,1.49,0,0,1-.33.17,3.79,3.79,0,0,1-3.94-.71,3.47,3.47,0,0,1-.76-1.1,4.07,4.07,0,0,0,.4-1.8c0-.05,0-1-.39-1.18-.12-.05-.25,0-.4.16a1.39,1.39,0,0,0-.22.93,5.45,5.45,0,0,0,.47,1.89,5,5,0,0,1-2.4,2.32,8,8,0,0,1-5.19.33,2.4,2.4,0,0,1-.94-.39,1.84,1.84,0,0,0,.17-.22.93.93,0,0,0,0-1,.29.29,0,0,0-.37-.07h0a.67.67,0,0,0-.27.48,1,1,0,0,0,.22.74.46.46,0,0,1,.07.07,3.12,3.12,0,0,1-3.2.78,3.53,3.53,0,0,1-1.87-1.71,2.46,2.46,0,0,0,.33-.3,1,1,0,0,0,.25-1.08.47.47,0,0,0-.43-.32c-.1,0-.29.05-.43.38a1.64,1.64,0,0,0,.12,1.28,6.46,6.46,0,0,1-3.79,1.25,3.82,3.82,0,0,1-2.25-1.27l0,0a.85.85,0,0,0,0-1.15.45.45,0,0,0-.63-.08c-.07,0-.14.16-.07.4a2.52,2.52,0,0,0,.53.87,6.62,6.62,0,0,1-3.08,1.67,4,4,0,0,1-2.88-.36,3.33,3.33,0,0,0,.06-.87c0-.4-.16-.64-.36-.69a.34.34,0,0,0-.41.15,1.36,1.36,0,0,0,.57,1.47A2.59,2.59,0,0,1,14,60.07a2.65,2.65,0,0,1-2.14-.5,2,2,0,0,0,0-.34,1.37,1.37,0,0,0-.6-1.13.38.38,0,0,0-.43,0c-.09.08-.23.28,0,.64a2.75,2.75,0,0,0,.88.84,3.84,3.84,0,0,1-1.52,2.47l0,.14a4,4,0,0,0,1.6-2.53,2.77,2.77,0,0,0,2.21.49,2.63,2.63,0,0,0,1.3-1.95,4.17,4.17,0,0,0,2.94.34,6.57,6.57,0,0,0,3.13-1.7,4.06,4.06,0,0,0,2.32,1.31,6.6,6.6,0,0,0,3.87-1.26,3.7,3.7,0,0,0,1.92,1.75,3.26,3.26,0,0,0,3.34-.82,2.63,2.63,0,0,0,1,.42A8.16,8.16,0,0,0,39.12,58a5.23,5.23,0,0,0,2.41-2.3,3.64,3.64,0,0,0,.74,1.06,3.94,3.94,0,0,0,4.07.73,1.94,1.94,0,0,0,.4-.21,4.81,4.81,0,0,0,2.63.75,6.17,6.17,0,0,0,3.76-1.5l.17-.12a3.3,3.3,0,0,0,.69-.77,3.32,3.32,0,0,0,2.4,1.94,2.83,2.83,0,0,0,2.79-1,3.32,3.32,0,0,0,2,1.63A4.67,4.67,0,0,0,64.41,58,4.43,4.43,0,0,0,66,56.73a3,3,0,0,0,.78,1.34,5.65,5.65,0,0,0,.92.61l0-.13A6.17,6.17,0,0,1,66.9,58ZM11.71,59.49a2.85,2.85,0,0,1-.78-.77c-.09-.15-.17-.36,0-.48a.27.27,0,0,1,.16-.06.31.31,0,0,1,.13,0,1.22,1.22,0,0,1,.53,1A2.45,2.45,0,0,1,11.71,59.49ZM15.23,58l-.15-.13a1.38,1.38,0,0,1-.33-1.15.21.21,0,0,1,.18-.1l.09,0c.14,0,.24.24.26.57A3.16,3.16,0,0,1,15.23,58Zm6.16-1.34a2.29,2.29,0,0,1-.49-.81c0-.09,0-.21,0-.26a.27.27,0,0,1,.18-.07.38.38,0,0,1,.28.14.74.74,0,0,1,0,1Zm6.13-1.11c.08-.19.19-.3.32-.31h0a.38.38,0,0,1,.31.25.88.88,0,0,1-.23.94,2,2,0,0,1-.3.27A1.49,1.49,0,0,1,27.52,55.58Zm5.31,2.11,0-.06a.9.9,0,0,1-.2-.65.61.61,0,0,1,.22-.39.17.17,0,0,1,.22,0,.81.81,0,0,1,0,.85Zm8.28-4.07a1.21,1.21,0,0,1,.19-.84c.09-.1.16-.14.23-.14h0c.21.09.3.7.3,1.07a4,4,0,0,1-.34,1.65A5.24,5.24,0,0,1,41.11,53.62Zm5.62,3.46a1.1,1.1,0,0,1-.34-.39.58.58,0,0,1,0-.61.26.26,0,0,1,.19-.08.39.39,0,0,1,.17,0,.52.52,0,0,1,.3.5A.8.8,0,0,1,46.73,57.08Zm7.14-2.21a1.32,1.32,0,0,1,.2-1.25.35.35,0,0,1,.23-.09.58.58,0,0,1,.18,0c.07,0,.1.09.11.2A3.14,3.14,0,0,1,54,55.33,4.11,4.11,0,0,1,53.87,54.87Zm5.33,1.38a.46.46,0,0,1,0-.24c0-.06,0-.06.05-.06h0s0,0,0,0S59.26,56.1,59.2,56.25Zm6.88-.48a.12.12,0,0,1,.12-.08h.06a.13.13,0,0,1,.11.14,1.2,1.2,0,0,1-.27.62A1.16,1.16,0,0,1,66.08,55.77Z"/><path class="cls-2" d="M36.12,54.74c-.54.41-5.86.58-6.4,0s-.58-6.89,0-7.65,5.82-.58,6.4,0S36.66,54.34,36.12,54.74Z"/><path class="cls-2" d="M64.18,54.74c-.54.41-5.86.58-6.4,0s-.58-6.89,0-7.65,5.82-.58,6.4,0S64.72,54.34,64.18,54.74Z"/><path class="cls-5" d="M63.9,54.4c-.49.36-5.35.53-5.83,0s-.53-6.28,0-7,5.3-.53,5.83,0S64.39,54,63.9,54.4Z"/><path class="cls-2" d="M64.42,50.77l-3.3,0c0-3.9,0-3.92,0-4l-.13.08h-.12c0,.11,0,1.92,0,3.87l-3.31,0V51l3.31,0c0,1.47,0,3,0,3.89h.27c0-1.59,0-2.86,0-3.89l3.3,0Z"/><path class="cls-2" d="M21.86,54.24c-.49.35-5.43.51-5.92,0s-.6-6-.06-6.67c.35-.41,5.65-.34,6,0S22.34,53.89,21.86,54.24Z"/><path class="cls-2" d="M16,47.6a9.87,9.87,0,0,0-2.62-2.05.18.18,0,0,0-.21.1h0A43.38,43.38,0,0,0,13,50.88a32.65,32.65,0,0,0,.18,5.22.18.18,0,0,0,.17.1h0a10.25,10.25,0,0,0,2.64-2A19.42,19.42,0,0,0,16,51C16,49.43,16.06,47.83,16,47.6ZM13.33,49c.47.14,1.59.52,2.34.77v.51l-2.34-.17Zm2.33.33c-1.38-.48-2-.68-2.32-.76,0-.45,0-.87,0-1.24l1,.68c.79.56,1.14.8,1.31.89C15.66,49,15.66,49.15,15.66,49.3Zm-2.34,1.21,2.35.17v.67l-2.35.16Zm2.35,1.27c0,.17,0,.33,0,.48L13.33,53v-1ZM13.34,53.4c.43-.12,1.42-.42,2.31-.7,0,.14,0,.27,0,.38l-2.27,1.3C13.35,54.08,13.34,53.75,13.34,53.4Zm.08-7.4a12.85,12.85,0,0,1,2.17,1.69,5.72,5.72,0,0,1,.05.71c-.26-.17-.74-.51-1.15-.8-.61-.43-.94-.65-1.12-.77C13.39,46.45,13.4,46.17,13.42,46Zm0,9.75c0-.17,0-.49-.05-.92l2.23-1.26a1.41,1.41,0,0,1-.06.41A11.9,11.9,0,0,1,13.42,55.75Z"/><path class="cls-2" d="M21.74,51a20.18,20.18,0,0,0,.05,3.23,10.37,10.37,0,0,0,2.63,2h0a.19.19,0,0,0,.17-.1,32.06,32.06,0,0,0,.17-5.22,46.37,46.37,0,0,0-.16-5.23h0a.18.18,0,0,0-.21-.1,9.72,9.72,0,0,0-2.62,2.05C21.73,47.83,21.76,49.43,21.74,51Zm2.72-.93-2.35.17c0-.17,0-.34,0-.51.74-.25,1.86-.63,2.33-.77C24.46,49.33,24.46,49.7,24.46,50.08Zm-2.33-1.21c.17-.09.52-.33,1.31-.89l1-.68c0,.37,0,.79,0,1.24-.3.08-.94.28-2.33.76C22.13,49.15,22.13,49,22.13,48.87Zm2.33,2.64-2.34-.16c0-.22,0-.44,0-.67l2.35-.17Zm0,.43c0,.35,0,.7,0,1l-2.32-.71c0-.15,0-.31,0-.48Zm0,2.44-2.27-1.3c0-.11,0-.24,0-.38.89.28,1.87.58,2.31.7C24.44,53.75,24.44,54.08,24.43,54.38Zm0-7.55-1.11.77-1.15.8c0-.35,0-.61,0-.71A13.7,13.7,0,0,1,24.36,46C24.38,46.17,24.4,46.45,24.41,46.83ZM22.24,54a2.88,2.88,0,0,1-.06-.41l2.24,1.26c0,.43,0,.75-.06.92A12.27,12.27,0,0,1,22.24,54Z"/><path class="cls-5" d="M21.7,53.91c-.42.36-5,.45-5.49,0s-.49-5.39,0-6,5-.45,5.49,0S21.91,53.72,21.7,53.91Z"/><path class="cls-2" d="M16.85,51.16c-.14.18,0,1.15,0,1.15l.91-.65S17,51,16.85,51.16Z"/><path class="cls-2" d="M19.5,51.16c.13.18-.05,1.15-.05,1.15l-.91-.65S19.36,51,19.5,51.16Z"/><path class="cls-6" d="M19.7,53.74a5.88,5.88,0,0,0-.07-.9,1.4,1.4,0,0,0-1.49-1.31,1.43,1.43,0,0,0-1.46,1.4,7.1,7.1,0,0,0,0,.73v.39a15.61,15.61,0,0,0,3.05.12Z"/><path class="cls-2" d="M18.22,53.12s0,.05,0,.08,0-.08-.07-.07-.05,0,0,.12a.22.22,0,0,0,.08.12h0s0,0,.07-.11S18.26,53.13,18.22,53.12Z"/><path class="cls-2" d="M18.55,53.68h0c-.11.07-.17.08-.24,0s-.09-.12-.1-.25v-.11h0s0,0,0,0h0s0,0,0,0h0a.2.2,0,0,0,0,.11c0,.13,0,.22-.1.25s-.14,0-.24,0h0s0,0,0,0a.34.34,0,0,0,.18.07l.1,0a.2.2,0,0,0,.09-.15.24.24,0,0,0,.1.15.19.19,0,0,0,.1,0,.41.41,0,0,0,.18-.07A0,0,0,0,0,18.55,53.68Z"/><path class="cls-2" d="M18.74,52.82a.22.22,0,0,1-.18-.08.25.25,0,0,1-.07-.09s0,0,0,0,0,0,0,0a.22.22,0,0,0,.26.15c.17,0,.17-.23.17-.23l0,0h0l0,0a.3.3,0,0,1,0,.12.2.2,0,0,1-.17.14Z"/><path class="cls-2" d="M17.6,52.82a.26.26,0,0,0,.19-.08.17.17,0,0,0,.06-.09,0,0,0,0,0,0,0s0,0,0,0a.25.25,0,0,1-.27.15c-.16,0-.16-.23-.16-.23l0,0h0l0,0a.43.43,0,0,0,0,.12.23.23,0,0,0,.18.14Z"/><path class="cls-7" d="M19.25,53.19c0,.07,0,.16-.15.21s-.22,0-.25,0,0-.17.15-.21S19.22,53.12,19.25,53.19Z"/><path class="cls-8" d="M19.18,53.21h-.05a0,0,0,0,1,0-.05s0,0,.05,0S19.2,53.19,19.18,53.21Z"/><path class="cls-7" d="M17.1,53.19c0,.07,0,.16.14.21s.22,0,.25,0,0-.17-.14-.21S17.13,53.12,17.1,53.19Z"/><path class="cls-8" d="M17.16,53.21h.05s0,0,0-.05,0,0-.05,0A0,0,0,0,0,17.16,53.21Z"/><path class="cls-2" d="M51.1,54.74c-.54.41-5.87.58-6.4,0s-.59-6.89,0-7.65,5.81-.58,6.4,0S51.63,54.34,51.1,54.74Z"/><path class="cls-3" d="M50.81,54.4c-.49.36-5.34.53-5.83,0s-.53-6.28,0-7,5.3-.53,5.83,0S51.3,54,50.81,54.4Z"/><path class="cls-7" d="M50.81,47.42A5.75,5.75,0,0,0,48.35,47a6.1,6.1,0,0,0,.87,3.32,7.21,7.21,0,0,0,1.94,2C51.26,50.38,51.15,47.76,50.81,47.42Z"/><path class="cls-7" d="M46.63,50.3A6,6,0,0,0,47.49,47h0a4.53,4.53,0,0,0-2.47.46c-.34.45-.45,3-.34,4.93A7.17,7.17,0,0,0,46.63,50.3Z"/><path class="cls-2" d="M51.26,50.77l-3.31,0a35.2,35.2,0,0,0,0-4l-.12.08h-.12c0,.11,0,1.92,0,3.87l-3.31,0V51l3.31,0c0,1.47,0,3,0,3.89h.27c0-1.59,0-2.86,0-3.89l3.3,0Z"/><path class="cls-4" d="M78.05,27.32C79.17,25.16,66.43,3.09,64.39,1.46S51.07,0,39.37,0,16.49-.26,14.22,1.46-.94,24.21.05,26.87C.88,29.09,15.36,30,39.37,30,65.77,30,77.14,29.09,78.05,27.32Z"/><path class="cls-1" d="M47,19c-.47-.52-.43-9.39,6.75-9.39,8.1,0,8.36,9.08,8,9.39S47.42,19.51,47,19Z"/><path class="cls-5" d="M48,18.84c-.34-.3-.37-7.88,5.77-7.88,6.93,0,7.22,7.57,6.82,7.88S48.35,19.14,48,18.84Z"/><path class="cls-1" d="M60.71,15.87c0-.11-.07-.21-.11-.32a21.69,21.69,0,0,0-3.43,1.74A30.56,30.56,0,0,0,54.56,19a24.62,24.62,0,0,1,1-2.65,26.55,26.55,0,0,1,1.55-2.82L58,12l-.29-.18-.91,1.5a26.25,26.25,0,0,0-1.56,2.86A18.06,18.06,0,0,0,54.5,18a24.73,24.73,0,0,0-.43-3.56,23.82,23.82,0,0,1-.44-3.58l-.34,0a24.08,24.08,0,0,0,.44,3.6,19.32,19.32,0,0,1,.41,4.35c-.1-.25-.19-.51-.28-.77a11.09,11.09,0,0,0-.4-1,9.35,9.35,0,0,0-.92-1.46,34.3,34.3,0,0,0-2.62-3.16l-.23.25a34.34,34.34,0,0,1,2.57,3.1,8.68,8.68,0,0,1,.88,1.41,7.27,7.27,0,0,1,.39,1c0,.1.07.2.11.29l-.19-.13a7.17,7.17,0,0,0-.86-.47c-.81-.4-1.65-.81-2.52-1.14a15.27,15.27,0,0,0-2-.63c0,.11,0,.22-.07.32a16,16,0,0,1,2,.62c.85.33,1.69.73,2.5,1.13.27.14.56.28.82.45a4.32,4.32,0,0,1,.65.54l0,.05h.81a28.9,28.9,0,0,1,2.6-1.68A21.21,21.21,0,0,1,60.71,15.87Z"/><path class="cls-1" d="M16.52,19c-.47-.52-.44-9.39,6.75-9.39,8.1,0,8.36,9.08,8,9.39S17,19.51,16.52,19Z"/><path class="cls-5" d="M17.58,18.84c-.34-.3-.37-7.88,5.77-7.88,6.93,0,7.21,7.57,6.82,7.88S17.92,19.14,17.58,18.84Z"/><path class="cls-1" d="M30.28,15.87c0-.11-.07-.21-.11-.32a21.27,21.27,0,0,0-3.43,1.74A29.07,29.07,0,0,0,24.13,19a24.62,24.62,0,0,1,1-2.65,26.55,26.55,0,0,1,1.55-2.82l.9-1.49-.29-.18-.91,1.5a26.25,26.25,0,0,0-1.56,2.86A18.06,18.06,0,0,0,24.07,18a23.4,23.4,0,0,0-.44-3.56,25.18,25.18,0,0,1-.43-3.58l-.34,0a24.08,24.08,0,0,0,.44,3.6,19.92,19.92,0,0,1,.41,4.35c-.1-.25-.19-.51-.28-.77a11.09,11.09,0,0,0-.4-1,9.35,9.35,0,0,0-.92-1.46,36,36,0,0,0-2.62-3.16l-.23.25a36.1,36.1,0,0,1,2.57,3.1,8.68,8.68,0,0,1,.88,1.41,7.27,7.27,0,0,1,.39,1c0,.1.07.2.11.29L23,18.38a7.17,7.17,0,0,0-.86-.47c-.82-.4-1.66-.81-2.52-1.14a15.27,15.27,0,0,0-2-.63c0,.11-.05.22-.07.32a16,16,0,0,1,2,.62c.85.33,1.69.73,2.5,1.13a8,8,0,0,1,.81.45,3.92,3.92,0,0,1,.66.54l0,.05h.81a28.9,28.9,0,0,1,2.6-1.68A21.21,21.21,0,0,1,30.28,15.87Z"/><path class="cls-5" d="M10.28,32.83a1.85,1.85,0,0,0,.74,0c1.17-.22,2.16-1.69,2.63-2.87l0,.05a3.38,3.38,0,0,0,1.38,1.1,8.47,8.47,0,0,0,6,.55,6,6,0,0,0,2.34-1.44,3.11,3.11,0,0,0,1.15.74,12.88,12.88,0,0,0,9.28.31,3.36,3.36,0,0,0,1.32-.89,2.56,2.56,0,0,0,.31.34A5.08,5.08,0,0,0,39.79,32a3.61,3.61,0,0,0,2.34-1.27,4.62,4.62,0,0,0,3.35,1.56A8.08,8.08,0,0,0,49.71,31a2.19,2.19,0,0,0,.23.33,6.56,6.56,0,0,0,4.71,2.36A3,3,0,0,0,56.88,33a1.74,1.74,0,0,0,.49-.89.69.69,0,0,0,.2,0,2.61,2.61,0,0,0,1.81-.62,3.75,3.75,0,0,0,1.1-1.46,1.29,1.29,0,0,0,.16.17,2.2,2.2,0,0,0,.91.44,4.27,4.27,0,0,0,2.13.12A2.63,2.63,0,0,0,65,30.05l.12.23a2.79,2.79,0,0,0,.81.73,7.79,7.79,0,0,0,4,1.27h.23a6.62,6.62,0,0,0,1.41-.15l0-.13a7,7,0,0,1-1.65.15A7.67,7.67,0,0,1,66,30.9a2.51,2.51,0,0,1-.77-.69A.91.91,0,0,1,65.1,30a2.31,2.31,0,0,0,.27-.42.51.51,0,0,0,0-.45.2.2,0,0,0-.19-.07c-.06,0-.14.06-.2.2a1.08,1.08,0,0,0,0,.71,2.46,2.46,0,0,1-1.3.75,4,4,0,0,1-2.06-.11,2.13,2.13,0,0,1-.86-.41,1.37,1.37,0,0,1-.2-.22,4,4,0,0,0,.14-.46.44.44,0,0,0-.06-.34.17.17,0,0,0-.15-.05c-.09,0-.16.09-.18.22a.87.87,0,0,0,.12.64,3.61,3.61,0,0,1-1.1,1.49,2.47,2.47,0,0,1-1.72.6l-.18,0a1.62,1.62,0,0,0,0-.22,1.49,1.49,0,0,0-.35-1c-.21-.18-.56-.5-.8-.3a.33.33,0,0,0-.12.25,1.4,1.4,0,0,0,.28.83,1.74,1.74,0,0,0,.83.51,1.59,1.59,0,0,1-.46.83,3,3,0,0,1-2.13.6A6.44,6.44,0,0,1,50,31.2a2.19,2.19,0,0,1-.23-.33,2.06,2.06,0,0,0,.55-.56.63.63,0,0,0,0-.67.33.33,0,0,0-.4-.16.78.78,0,0,0-.49.75,1.4,1.4,0,0,0,.15.61,7.76,7.76,0,0,1-4.16,1.3,4.46,4.46,0,0,1-3.29-1.55.61.61,0,0,0,.09-.33.2.2,0,0,0-.23-.17.16.16,0,0,0-.15.17.66.66,0,0,0,.14.34,3.37,3.37,0,0,1-2.29,1.25,4.85,4.85,0,0,1-4.17-1.24,1.93,1.93,0,0,1-.31-.33,1.6,1.6,0,0,0,.43-.81.29.29,0,0,0-.47-.26.83.83,0,0,0-.26.69,1,1,0,0,0,.14.37,3.48,3.48,0,0,1-1.29.88,12.79,12.79,0,0,1-9.19-.31,3.08,3.08,0,0,1-1.11-.72,2.75,2.75,0,0,0,.68-1,.67.67,0,0,0-.1-.67.27.27,0,0,0-.38,0,1.35,1.35,0,0,0-.55,1.36,1.25,1.25,0,0,0,.19.34,5.84,5.84,0,0,1-2.3,1.42,8.42,8.42,0,0,1-6-.54,3.33,3.33,0,0,1-1.32-1l-.09-.15a3.35,3.35,0,0,0,.24-1c0-.36-.13-.46-.25-.49a.28.28,0,0,0-.3.11,1.94,1.94,0,0,0,.18,1.43c-.45,1.2-1.48,2.69-2.57,2.9a1.69,1.69,0,0,1-.71,0,2.17,2.17,0,0,0,0-.36c0-.32-.18-.64-.48-.64h0l0,0a.54.54,0,0,0-.11.45.77.77,0,0,0,.34.53,1.51,1.51,0,0,0,.18.09,3.86,3.86,0,0,1-1.72,2.72,7.39,7.39,0,0,1-1.88.9l0,.12a7.44,7.44,0,0,0,1.93-.92A4,4,0,0,0,10.28,32.83Zm54.8-3.57c0-.05.06-.12.11-.13h0s0,0,.05,0a.37.37,0,0,1,0,.31,1.85,1.85,0,0,1-.21.33A1,1,0,0,1,65.08,29.26Zm-4.68.06c0-.05,0-.11.08-.12h0l0,0a.3.3,0,0,1,0,.22,3.18,3.18,0,0,1-.1.33A.78.78,0,0,1,60.4,29.32ZM56.51,31.5a1.3,1.3,0,0,1-.24-.74.22.22,0,0,1,.07-.17c.14-.11.61.36.61.36a1.11,1.11,0,0,1,.34.83,1.23,1.23,0,0,1,0,.19A1.72,1.72,0,0,1,56.51,31.5Zm-6.89-1.27a.67.67,0,0,1,.4-.63h.08a.23.23,0,0,1,.19.12.49.49,0,0,1,0,.53,1.81,1.81,0,0,1-.49.52A1.2,1.2,0,0,1,49.62,30.23Zm-7.58,0s0,0,0,0h0c.06,0,.07,0,.07.06a.32.32,0,0,1,0,.2A.49.49,0,0,1,42,30.26Zm-6.93-.38a.68.68,0,0,1,.21-.57.15.15,0,0,1,.11,0,.11.11,0,0,1,.07,0,.15.15,0,0,1,.08.17,1.42,1.42,0,0,1-.38.71A1,1,0,0,1,35.11,29.88ZM23.3,29.73a1.22,1.22,0,0,1,.49-1.21.24.24,0,0,1,.13-.05c.06,0,.08,0,.1.05a.55.55,0,0,1,.07.55,2.69,2.69,0,0,1-.63.95A1.18,1.18,0,0,1,23.3,29.73Zm-9.8-1.29a.12.12,0,0,1,.11-.06h.05c.13,0,.16.21.16.36a3.11,3.11,0,0,1-.19.88A1.76,1.76,0,0,1,13.5,28.44Zm-3.45,4.15a.6.6,0,0,1-.28-.44.44.44,0,0,1,.06-.32c.2,0,.31.28.33.52s0,.21,0,.31Z"/><path class="cls-2" d="M63.88,68.9c-.53.4-5.86.58-6.39,0s-.59-6.89,0-7.65,5.81-.58,6.39,0S64.42,68.5,63.88,68.9Z"/><path class="cls-2" d="M51.15,68.38c-.49.35-5.42.51-5.91,0s-.6-6-.06-6.67c.34-.41,5.65-.34,6,0S51.64,68,51.15,68.38Z"/><path class="cls-2" d="M45.29,61.74a10,10,0,0,0-2.62-2.06.18.18,0,0,0-.2.11h0A43.38,43.38,0,0,0,42.3,65a35.1,35.1,0,0,0,.17,5.22.24.24,0,0,0,.17.1h0a10.2,10.2,0,0,0,2.63-2,20.18,20.18,0,0,0,.05-3.23C45.32,63.57,45.36,62,45.29,61.74Zm-2.66,1.37c.47.14,1.59.51,2.33.77,0,.17,0,.34,0,.51l-2.35-.17C42.62,63.84,42.63,63.47,42.63,63.11Zm2.33.32c-1.39-.47-2-.68-2.33-.75,0-.45,0-.87,0-1.24l1,.68c.79.55,1.14.8,1.31.89C45,63.15,45,63.29,45,63.43Zm-2.34,1.22,2.35.17v.67l-2.35.15ZM45,65.92c0,.16,0,.32,0,.48l-2.32.71c0-.34,0-.68,0-1Zm-2.32,1.62c.43-.12,1.41-.42,2.3-.7,0,.14,0,.26,0,.38l-2.28,1.29C42.65,68.22,42.64,67.89,42.64,67.54Zm.08-7.4a12.74,12.74,0,0,1,2.17,1.69c0,.1,0,.35,0,.7l-1.15-.79c-.61-.43-.94-.65-1.12-.77C42.68,60.59,42.7,60.3,42.72,60.14Zm0,9.74c0-.17,0-.49,0-.91l2.23-1.26a2.88,2.88,0,0,1-.06.41A12.7,12.7,0,0,1,42.72,69.88Z"/><path class="cls-2" d="M51,65.15a19.42,19.42,0,0,0,0,3.23,10.25,10.25,0,0,0,2.64,2h0a.2.2,0,0,0,.17-.1A32.65,32.65,0,0,0,54.08,65a43.38,43.38,0,0,0-.17-5.23h0a.18.18,0,0,0-.21-.11,10.12,10.12,0,0,0-2.62,2.06C51,62,51.06,63.57,51,65.15Zm2.72-.93-2.35.17v-.51c.75-.26,1.87-.63,2.34-.77C53.75,63.47,53.75,63.84,53.76,64.22ZM51.43,63c.17-.09.52-.34,1.31-.89l1-.68c0,.37,0,.79,0,1.24-.3.07-.93.28-2.32.75C51.42,63.29,51.42,63.15,51.43,63Zm2.33,2.63-2.35-.15v-.67l2.35-.17Zm0,.43c0,.36,0,.7,0,1l-2.33-.71v-.48Zm0,2.44-2.27-1.29c0-.12,0-.24,0-.38.88.28,1.87.58,2.3.7C53.74,67.89,53.73,68.22,53.72,68.51Zm0-7.54c-.18.12-.51.34-1.12.77l-1.15.79c0-.35,0-.6.05-.7a12.74,12.74,0,0,1,2.17-1.69C53.68,60.3,53.69,60.59,53.71,61Zm-2.17,7.15a2.88,2.88,0,0,1-.06-.41L53.71,69c0,.42,0,.74-.05.91A12.7,12.7,0,0,1,51.54,68.12Z"/><path class="cls-3" d="M51,68c-.42.37-5,.46-5.49,0s-.5-5.38,0-6,5-.45,5.49,0S51.21,67.86,51,68Z"/><path class="cls-2" d="M23.48,68.9c-.54.4-5.86.58-6.4,0s-.58-6.89,0-7.65,5.82-.58,6.4,0S24,68.5,23.48,68.9Z"/><path class="cls-3" d="M23.19,68.56c-.48.36-5.34.53-5.83,0s-.53-6.28,0-7,5.3-.53,5.83,0S23.68,68.19,23.19,68.56Z"/><path class="cls-2" d="M23.72,64.93l-3.3,0c0-3.9,0-3.92,0-4l-.13.08h-.12c0,.11,0,1.92,0,3.87l-3.31,0v.27l3.31,0c0,1.47,0,3,0,3.89h.27c0-1.59,0-2.86,0-3.89l3.3,0Z"/><path class="cls-7" d="M48.32,66.84a9.06,9.06,0,0,0-.06,1.51h1.8c0-.8,0-1.47,0-1.51A6.45,6.45,0,0,0,48.32,66.84Z"/><path class="cls-4" d="M49.42,66.13l.08-.2c.09-.26,0-.46-.17-.47s-.32.05-.3.37a1.35,1.35,0,0,0,.07.37,1.71,1.71,0,0,0-.14-.26.32.32,0,0,0-.45-.11c0,.06-.09.22.1.41a1.53,1.53,0,0,0,.61.25h0a2.3,2.3,0,0,0,.38-.08l0,0c.22-.12.22-.28.19-.35S49.63,65.91,49.42,66.13Z"/><path class="cls-5" d="M49.27,66.48c-.51,0-1.08,0-1.11,0s0,.36,0,.39a19.44,19.44,0,0,0,2,0,.85.85,0,0,0,0-.39A5.21,5.21,0,0,0,49.27,66.48Z"/><path class="cls-2" d="M37.38,69c-.53.4-5.86.58-6.4,0s-.58-6.89,0-7.65,5.82-.59,6.4,0S37.92,68.56,37.38,69Z"/><path class="cls-5" d="M37.1,68.61c-.49.37-5.34.53-5.83,0s-.53-6.28,0-7,5.3-.53,5.83,0S37.59,68.25,37.1,68.61Z"/><path class="cls-7" d="M31,67.05c1.82-1,1.93-5.17,1.93-5.84a2.88,2.88,0,0,0-1.65.43c-.53.69-.49,6.44,0,7a1.71,1.71,0,0,0,.93.26A3,3,0,0,0,31,67.05Z"/><path class="cls-7" d="M37.44,66.69c.11-2,0-4.7-.34-5a3.67,3.67,0,0,0-1.67-.39C35.48,62.39,35.75,66.43,37.44,66.69Z"/><path class="cls-7" d="M35.9,68.86a3.46,3.46,0,0,0,1.2-.25,4.35,4.35,0,0,0,.34-1.92A3.54,3.54,0,0,0,35.9,68.86Z"/><path class="cls-2" d="M37.67,64.93l-3.3,0c0-3.9,0-3.92,0-4l-.12.08h-.13c0,.11,0,1.92,0,3.87l-3.31,0v.27l3.31,0c0,1.47,0,3,0,3.89h.27c0-1.59,0-2.86,0-3.89l3.3,0Z"/></g></g></svg>