<svg xmlns="http://www.w3.org/2000/svg" viewBox="0 0 139.86 214.14"><defs><style>.cls-1{fill:#f2b669;}.cls-2{fill:#4c6b51;}.cls-3{fill:#fde8ca;}.cls-4{fill:#c86e29;}.cls-5{fill:#f45b44;}.cls-6{fill:#739b68;}</style></defs><g id="Layer_2" data-name="Layer 2"><g id="Map_with_elements" data-name="Map with elements"><path class="cls-1" d="M69.93,11.11,19.62,69.79S35.77,208.16,40.37,211.47c4.35,3.13,56,4,59.12,0,3.26-4.2,20.74-141.68,20.74-141.68Z"/><path class="cls-2" d="M107.27,36.82Q97.84,24.42,87.16,13C84,9.58,75.26,0,69.93,0S55.85,9.58,52.7,13Q42,24.39,32.59,36.82C27.05,44.1-3.69,82.64.37,88.57c2.68,3.91,7.84-.72,10.6-2.3,7-4,26.59-28.41,31.23-34.48,5-6.58,19.54-22.83,27.73-35.26C78.11,29,92.63,45.21,97.66,51.79c4.63,6.07,24.19,30.45,31.23,34.48,2.76,1.58,7.92,6.21,10.6,2.3C143.55,82.64,112.81,44.1,107.27,36.82Z"/><ellipse class="cls-3" cx="70.23" cy="54.86" rx="15.59" ry="14.8"/><path class="cls-4" d="M80.57,55.62c0-.58-4.3-3-4.76-2.76s-.5,5.25,0,5.51S80.57,56.19,80.57,55.62Z"/><rect class="cls-4" x="72.8" y="51.84" width="0.89" height="7.55" transform="translate(128.86 -17.63) rotate(90)"/><path class="cls-4" d="M69.93,41.47c-.58,0-3,4.3-2.75,4.76s5.24.5,5.5,0S70.5,41.47,69.93,41.47Z"/><rect class="cls-4" x="69.48" y="45.02" width="0.89" height="11.02"/><path class="cls-5" d="M82.87,55.73a.85.85,0,0,0,.7.1,1.36,1.36,0,0,0,.62-1,1.07,1.07,0,0,0-.49-.93,1,1,0,0,0-1.13.72A1,1,0,0,0,82.87,55.73Z"/><path class="cls-5" d="M58.69,55.49a1,1,0,0,0,.19-.74.89.89,0,0,0-.22-.47c-.64-.7-1.6-.41-1.51.54C57.23,55.59,58,56.27,58.69,55.49Z"/><path class="cls-5" d="M70.32,67.81a.94.94,0,0,0,.76-.19.9.9,0,0,0,.08-1.15,1.54,1.54,0,0,0-1.07-.59.87.87,0,0,0-.94,1.05C69.22,67.43,69.85,67.74,70.32,67.81Z"/><path class="cls-2" d="M38,65.68a4.78,4.78,0,0,0-.14.91,5,5,0,0,0,0,.86,2.18,2.18,0,0,0,.16.69,6.14,6.14,0,0,0-.45-.43.14.14,0,0,0,0-.07,3.18,3.18,0,0,0-.37-1.58,2,2,0,0,0-1.29-.94.1.1,0,0,0-.11.08,1.8,1.8,0,0,0,.4,1.57,6.37,6.37,0,0,0,.6.67c.14.14.31.36.54.36A11.09,11.09,0,0,1,38.51,69l.17.22a5.33,5.33,0,0,0-1.3-.81,4,4,0,0,0-.49-.17,2.39,2.39,0,0,0-.46-.12,1.93,1.93,0,0,0-.89.23.08.08,0,0,0,0,.13,2.5,2.5,0,0,0,.41.25,1.61,1.61,0,0,1,.27.36,1.26,1.26,0,0,0,.38.27,2.44,2.44,0,0,1,.43.28,1.5,1.5,0,0,0,1,.24,3.41,3.41,0,0,0,1-.16l0,0,.44.57.07.11.07.08.23.29a.89.89,0,0,0,.21.26l0,0,0,0,.36.43-.19-.16a3.42,3.42,0,0,0-.78-.52l-.93-.46a2.15,2.15,0,0,0-.94-.21.8.8,0,0,0-.81.43.08.08,0,0,0,0,.08c.27.29.54.58.82.85a2.33,2.33,0,0,0,1,.47,6.78,6.78,0,0,0,1.19.24A1.66,1.66,0,0,0,41,72.1l.7.83a15.06,15.06,0,0,0-1.79-.43l-.53-.08a1.82,1.82,0,0,0-.57,0,2.49,2.49,0,0,0-.58.2,2.27,2.27,0,0,0-.55.25c-.07,0-.09.09-.05.12a1.42,1.42,0,0,0,.25.12l.28.12.57.23a2.19,2.19,0,0,0,1.18.19,2.55,2.55,0,0,1,.61-.08,1.57,1.57,0,0,0,.57,0,5.17,5.17,0,0,0,.51-.18,1.25,1.25,0,0,1,.25-.09l.11,0,.16.2a4.38,4.38,0,0,1,.54.85,8.82,8.82,0,0,0,.47.92c.09.14.3,0,.21-.15a9,9,0,0,1-.43-.81,3.85,3.85,0,0,0-.47-.78l-.31-.38,0,0L42,73s0,0,0,0a1.54,1.54,0,0,0,.14-.55,4,4,0,0,0,0-.6A10.8,10.8,0,0,0,42,70.65a9.88,9.88,0,0,0-.44-1.46l-.12-.34a.78.78,0,0,0,0-.14s-.17-.17-.23,0a2.65,2.65,0,0,0-.13.54,5.67,5.67,0,0,0-.1.57,5.82,5.82,0,0,0-.08,1.1,3.87,3.87,0,0,0,.09.9L40.3,71a2,2,0,0,0,.09-1c0-.2,0-.39,0-.59a3,3,0,0,0-.12-.54c-.1-.36-.2-.73-.31-1.08a2.11,2.11,0,0,0-.44-.84.13.13,0,0,0-.21.09c0,.42,0,.84-.05,1.26a5.87,5.87,0,0,0,0,1.11,1.58,1.58,0,0,0,.09.31c-.2-.24-.39-.49-.58-.74l-.22-.28a.19.19,0,0,0,.09-.09,1.62,1.62,0,0,0,.14-.44c0-.13,0-.26,0-.39a3.82,3.82,0,0,0,0-.83c0-.12-.08-.24-.1-.36a1.81,1.81,0,0,0-.07-.35c-.1-.23-.24-.44-.36-.66S38.05,65.6,38,65.68Z"/><path class="cls-6" d="M27.18,67.05a1.08,1.08,0,0,1,.93.29,7.66,7.66,0,0,0,1.14.8c-.51-.34-1.19-1.33-.94-1.42,1.18-.52,1.87,1.23,2.58,1.73-.38-.39-.75-.79-1.12-1.2-.11-.11-.33-.27-.21-.45s.92.13,1.23.52c.54.68,1.11,1.36,1.7,2-.37-.56-.71-1.13-1.05-1.71a.21.21,0,0,1,0-.12c0-.16.21-.22.33-.19A2.28,2.28,0,0,1,33,68.44,8.49,8.49,0,0,0,34,70a15.8,15.8,0,0,1-.73-1.79c-.07-.35.16-.3.25-.28.33.08.46.39.67.7.38.57,1,2.1,1.09,1.94s-.4-.86-.59-1.3c-.07-.17-.1-.48.07-.58a.22.22,0,0,1,.16,0c.43.1.62.73.83,1.2a9.58,9.58,0,0,0,.91,1.62c-.28-.64-.91-1.67-.67-2s.77.27,1,.71a15.42,15.42,0,0,1,1,2.48c-.16-.71-.29-1.42-.41-2.13,0-.15,0-.37.11-.42a.12.12,0,0,1,.13,0,2.45,2.45,0,0,1,1,1.53A17,17,0,0,1,39.9,75a4.87,4.87,0,0,1-1.42-.28,5,5,0,0,0-3.12-.5c-.21,0-.5,0-.5-.26s.19-.35.35-.43a2.06,2.06,0,0,1,1.15-.2,5.7,5.7,0,0,0-2.64.18c-.19.06-.44.1-.52-.1a.5.5,0,0,1,.11-.45.92.92,0,0,1,.37-.23,4.32,4.32,0,0,1,1.46-.32,7.16,7.16,0,0,0-2.65,0c-.51.09-1.1.2-1.43-.21a.44.44,0,0,1-.1-.3c0-.27.3-.43.53-.48a4.84,4.84,0,0,1,1.5-.17,5,5,0,0,0-2.47.18c-.4.13-.85.29-1.15,0a.23.23,0,0,1-.09-.18c0-.14.13-.23.24-.29A4.45,4.45,0,0,1,31,70.52a12.35,12.35,0,0,0-3,.35c-.18,0-.41.08-.48-.1a.44.44,0,0,1,.11-.44.88.88,0,0,1,.37-.24,4,4,0,0,1,1.72-.35,9.63,9.63,0,0,0-2.13.12c-.51.08-1.36,0-1.28-.34s.82-.53,1.42-.53a9.7,9.7,0,0,1-1.66-.27.91.91,0,0,0,.06-.11.91.91,0,0,1,.13-.16c.06,0,.1-.11.16-.16s.11-.06.15-.08a2.5,2.5,0,0,1,1-.08c-.34-.12-.6-.44-.57-.6a.56.56,0,0,1,0-.29A.32.32,0,0,1,27.18,67.05Z"/><path class="cls-2" d="M31.46,75.42a4.64,4.64,0,0,1,.89-.37,5.58,5.58,0,0,1,.88-.27,2.9,2.9,0,0,1,.78,0,4.9,4.9,0,0,1-.65-.32.09.09,0,0,1-.07,0,3.28,3.28,0,0,1-1.81,0A2.74,2.74,0,0,1,30,73.24a.09.09,0,0,1,0-.13,2.39,2.39,0,0,1,1.82.14,10.12,10.12,0,0,1,.93.47c.2.11.51.22.6.44a9,9,0,0,0,1.77.77l.3.08A5.67,5.67,0,0,1,34,74c-.13-.14-.26-.29-.38-.44a2.61,2.61,0,0,1-.31-.43,1.83,1.83,0,0,1-.11-1c0-.06.07-.08.12-.06s.25.23.4.33a1.74,1.74,0,0,0,.45.17,1.75,1.75,0,0,1,.42.29,2.31,2.31,0,0,0,.45.32,1.83,1.83,0,0,1,.67.83,4.37,4.37,0,0,1,.37,1.07s0,0,0,.05c.25.07.52.12.77.18a.34.34,0,0,1,.14,0l.12,0,.39.08a1,1,0,0,1,.36.07h.09l.6.11-.25-.09a4,4,0,0,1-.92-.47c-.31-.21-.62-.44-.92-.67a2.33,2.33,0,0,1-.65-.81.8.8,0,0,1,.05-.94.08.08,0,0,1,.08,0l1.15.44a2.84,2.84,0,0,1,.91.71,9.5,9.5,0,0,1,.84,1,1.84,1.84,0,0,1,.51,1l1.15.15a11,11,0,0,1-1.42-1.31l-.36-.44a1.93,1.93,0,0,1-.31-.49,3.23,3.23,0,0,1-.1-.61,2.47,2.47,0,0,1,0-.61c0-.08,0-.12.09-.1a1.2,1.2,0,0,1,.21.17l.24.19.47.38a2.38,2.38,0,0,1,.77.92,2.16,2.16,0,0,0,.27.55,1.93,1.93,0,0,1,.31.49,5.26,5.26,0,0,1,.15.53c0,.09,0,.18.09.27l0,.1.27,0a4,4,0,0,0,1-.08c.35-.07.68-.16,1-.2.16,0,.18.24,0,.26s-.61.11-.92.17a3.67,3.67,0,0,1-.93.09l-.52,0h0l-.14,0s0,0,0,0a1.57,1.57,0,0,1-.38.43,3.48,3.48,0,0,1-.51.34,6.65,6.65,0,0,1-2.75.79l-.41,0h-.17a.53.53,0,0,1-.13-.06c-.05,0-.1-.09-.05-.15a5,5,0,0,1,.43-.37c.16-.12.31-.24.48-.35a8,8,0,0,1,1-.59,5.07,5.07,0,0,1,.86-.37L38,75.78a1.78,1.78,0,0,1-.86.54l-.58.22a2.36,2.36,0,0,1-.59.11,10.74,10.74,0,0,1-1.25.11,2.51,2.51,0,0,1-1.12-.16c-.09,0-.14-.19,0-.24l1.25-.48a9,9,0,0,1,1.09-.41l.35,0c-.34-.08-.69-.16-1-.26l-.38-.12a.19.19,0,0,1,0,.12,1.28,1.28,0,0,1-.37.29c-.12.06-.25.1-.38.15a3.83,3.83,0,0,1-.87.22c-.15,0-.29,0-.44,0a1.76,1.76,0,0,1-.4,0,7.28,7.28,0,0,1-.89-.23C31.36,75.6,31.38,75.47,31.46,75.42Z"/><path class="cls-2" d="M52.86,72.59a4.73,4.73,0,0,0,.18.91,4.63,4.63,0,0,0,.27.82,2.22,2.22,0,0,0,.39.6,4.29,4.29,0,0,0-.58-.26.17.17,0,0,0,0-.07,3.22,3.22,0,0,0-.9-1.37,2,2,0,0,0-1.55-.45.11.11,0,0,0-.09.11,1.91,1.91,0,0,0,.93,1.35,6.21,6.21,0,0,0,.81.42c.18.08.42.24.63.16a9.86,9.86,0,0,1,1.52.77l.24.15a5.27,5.27,0,0,0-1.51-.35h-.53a2.56,2.56,0,0,0-.47,0,2,2,0,0,0-.77.52.08.08,0,0,0,0,.13,3.56,3.56,0,0,0,.47.1,3,3,0,0,1,.38.24,1.06,1.06,0,0,0,.45.13,1.82,1.82,0,0,1,.51.13,1.52,1.52,0,0,0,1-.09,3.55,3.55,0,0,0,.94-.5s0,0,0,0l.61.4a.39.39,0,0,0,.1.08l.1,0,.31.2a.91.91,0,0,0,.29.19l0,0h0l.48.3-.23-.09A3.69,3.69,0,0,0,56,77l-1-.13A2.16,2.16,0,0,0,54,77a.8.8,0,0,0-.62.68.07.07,0,0,0,0,.07c.35.17.7.36,1.07.52a2.31,2.31,0,0,0,1.11.12,7,7,0,0,0,1.21-.16,1.64,1.64,0,0,0,1-.47l.93.58a14.26,14.26,0,0,0-1.84.15l-.53.1a2.05,2.05,0,0,0-.55.16,3.48,3.48,0,0,0-.48.38,2.49,2.49,0,0,0-.44.42c0,.06-.06.12,0,.13a1.18,1.18,0,0,0,.27,0l.31,0,.61,0a2.31,2.31,0,0,0,1.18-.2,2.43,2.43,0,0,1,.54-.26,2.06,2.06,0,0,0,.54-.2c.15-.1.29-.23.43-.34a1.46,1.46,0,0,1,.21-.16l.1-.06.22.14a4.74,4.74,0,0,1,.77.65,7.28,7.28,0,0,0,.74.73c.13.1.28-.12.15-.21a6.65,6.65,0,0,1-.66-.64,3.48,3.48,0,0,0-.69-.59l-.42-.27a.05.05,0,0,0,0,0L59,78.22s.05,0,.05,0a1.56,1.56,0,0,0-.05-.57,2.9,2.9,0,0,0-.18-.57,9.26,9.26,0,0,0-.51-1,10.47,10.47,0,0,0-.9-1.25l-.23-.29-.09-.11s-.23-.1-.23,0A2.56,2.56,0,0,0,57,75a5.62,5.62,0,0,0,.09.57,8,8,0,0,0,.28,1.07,4.07,4.07,0,0,0,.38.82l-.86-.53a1.85,1.85,0,0,0-.24-1l-.23-.55a2.88,2.88,0,0,0-.3-.47c-.22-.31-.43-.63-.66-.92a2.12,2.12,0,0,0-.71-.66.13.13,0,0,0-.16.16c.11.4.24.8.38,1.21a5.42,5.42,0,0,0,.39,1,2.53,2.53,0,0,0,.18.27c-.26-.18-.53-.35-.8-.52l-.3-.19a.13.13,0,0,0,0-.11,1.41,1.41,0,0,0,0-.46c0-.13-.08-.25-.12-.38a4.44,4.44,0,0,0-.32-.77,3.46,3.46,0,0,1-.22-.31,1,1,0,0,0-.2-.3,5.47,5.47,0,0,0-.57-.51C52.93,72.4,52.86,72.5,52.86,72.59Z"/><path class="cls-6" d="M42.85,77.43c1.07-.15,1.28.27,2.58.48-.59-.14-1.61-.85-1.4-1,1-.86,2.2.53,3,.75l-1.46-.73c-.14-.08-.4-.15-.35-.36s.91-.19,1.33.06c.75.45,1.51.89,2.29,1.31-.53-.4-1.05-.82-1.57-1.24a.27.27,0,0,1-.08-.1c0-.15.12-.28.24-.29a2.28,2.28,0,0,1,1.59.61A9.55,9.55,0,0,0,50.55,78a14.38,14.38,0,0,1-1.3-1.43c-.19-.31,0-.34.14-.35.34,0,.57.21.87.43.56.41,1.61,1.66,1.68,1.46s-.66-.68-1-1c-.13-.14-.26-.42-.13-.57a.25.25,0,0,1,.14-.06c.45,0,.84.48,1.2.85a9.08,9.08,0,0,0,1.4,1.22c-.47-.51-1.42-1.27-1.31-1.65s.83,0,1.18.34a14.52,14.52,0,0,1,1.73,2c-.38-.63-.74-1.25-1.08-1.88-.08-.13-.14-.34,0-.44a.17.17,0,0,1,.12,0c.57,0,1.06.57,1.5,1.12a15.68,15.68,0,0,1,2.08,2.83,4.78,4.78,0,0,1-1.43.19,4.82,4.82,0,0,0-3.1.54c-.19.1-.46.16-.55-.08a.54.54,0,0,1,.19-.52,2,2,0,0,1,1-.57,5.47,5.47,0,0,0-2.42,1c-.16.12-.37.24-.51.08a.51.51,0,0,1,0-.47,1,1,0,0,1,.27-.34,4.58,4.58,0,0,1,1.26-.79,7.25,7.25,0,0,0-2.48.91c-.44.26-1,.57-1.4.29a.42.42,0,0,1-.19-.24.63.63,0,0,1,.32-.64A5,5,0,0,1,50,79.55a4.87,4.87,0,0,0-2.25,1c-.32.25-.69.57-1,.43a.26.26,0,0,1-.15-.14.4.4,0,0,1,.12-.36,4.26,4.26,0,0,1,1.25-1,11.93,11.93,0,0,0-2.73,1.39c-.15.11-.35.21-.49.07a.45.45,0,0,1-.05-.45,1,1,0,0,1,.27-.36,4.37,4.37,0,0,1,1.49-.93,10.53,10.53,0,0,0-2,.86c-.45.25-1.31.43-1.37.1s.62-.76,1.2-1a4,4,0,0,1-2,.16c-.31-.23.22-.52.45-.58a5.62,5.62,0,0,1,1-.32C43,78.47,42.23,77.51,42.85,77.43Z"/><path class="cls-2" d="M50,84a4.85,4.85,0,0,1,.71-.65,5.58,5.58,0,0,1,.73-.55,2.34,2.34,0,0,1,.71-.3c-.24,0-.48,0-.71-.09a.12.12,0,0,1,0,.05,3.25,3.25,0,0,1-1.68.64,2.76,2.76,0,0,1-1.83-.62.1.1,0,0,1,0-.14,2.36,2.36,0,0,1,1.74-.5c.35,0,.69.07,1,.12s.54,0,.7.22a9.44,9.44,0,0,0,1.91.13l.31,0a5.33,5.33,0,0,1-1.67-.47,4.91,4.91,0,0,1-.5-.28,2.55,2.55,0,0,1-.43-.3,2,2,0,0,1-.43-.87.08.08,0,0,1,.09-.09,4,4,0,0,1,.49.17,2.57,2.57,0,0,0,.48,0,1.19,1.19,0,0,1,.49.13,2.31,2.31,0,0,0,.53.15,1.79,1.79,0,0,1,.9.56,4.7,4.7,0,0,1,.69.89.09.09,0,0,1,0,0l.79-.09a.5.5,0,0,1,.13,0h.13l.39,0A1.49,1.49,0,0,1,56,82h.09l.59-.08h-.26a3.79,3.79,0,0,1-1-.14c-.36-.11-.72-.21-1.08-.34a2.34,2.34,0,0,1-.87-.55.8.8,0,0,1-.26-.9.08.08,0,0,1,.07,0l1.22,0a2.72,2.72,0,0,1,1.09.37,9.92,9.92,0,0,1,1.09.63c.3.21.68.43.81.81.38-.06.76-.14,1.13-.22a11.44,11.44,0,0,1-1.75-.79c-.16-.1-.32-.19-.48-.3a1.74,1.74,0,0,1-.45-.37,3.09,3.09,0,0,1-.29-.54,2.32,2.32,0,0,1-.22-.57c0-.07,0-.13,0-.12a2.67,2.67,0,0,1,.26.09L56,79l.57.21a2.41,2.41,0,0,1,1,.62,2.24,2.24,0,0,0,.43.44,1.93,1.93,0,0,1,.45.36,4.76,4.76,0,0,1,.31.47c.05.07.1.15.16.22l.08.08.26-.06a4,4,0,0,0,1-.4c.31-.17.6-.37.92-.51.14-.06.24.19.09.25a9.1,9.1,0,0,0-.81.44,3.6,3.6,0,0,1-.86.37l-.5.13h0l-.14,0s0,0,0,0a1.41,1.41,0,0,1-.22.52,3.48,3.48,0,0,1-.38.48,6.93,6.93,0,0,1-.9.81,7.79,7.79,0,0,1-1.43.82l-.37.17-.15.06s-.29,0-.24-.14A3.5,3.5,0,0,1,55.5,84l.33-.48a7.56,7.56,0,0,1,.72-.87,5.16,5.16,0,0,1,.69-.63l-1.06.17a1.8,1.8,0,0,1-.64.78c-.16.13-.31.28-.47.4a3.35,3.35,0,0,1-.52.3c-.37.19-.75.36-1.13.52a2.55,2.55,0,0,1-1.09.21c-.1,0-.19-.14-.1-.22l1-.86a6.94,6.94,0,0,1,.89-.75,2.2,2.2,0,0,1,.31-.15c-.35,0-.69.06-1,.08l-.4,0a.15.15,0,0,1,0,.13,1.24,1.24,0,0,1-.25.39,2,2,0,0,1-.31.27,3.11,3.11,0,0,1-.74.5,3.25,3.25,0,0,0-.4.15,2,2,0,0,1-.37.15,6.71,6.71,0,0,1-.89.09C49.93,84.17,49.91,84,50,84Z"/><path class="cls-2" d="M69.53,74.67a4.83,4.83,0,0,0,.43.81,4.47,4.47,0,0,0,.49.71,2,2,0,0,0,.54.47l-.63-.09,0-.06a3.09,3.09,0,0,0-1.26-1.05,2.13,2.13,0,0,0-1.66,0,.1.1,0,0,0,0,.13,1.91,1.91,0,0,0,1.3,1,4,4,0,0,0,.9.18c.2,0,.48.1.66,0a9,9,0,0,1,1.69.32l.28.08a5.15,5.15,0,0,0-1.57.08l-.51.15a1.55,1.55,0,0,0-1.06.91.07.07,0,0,0,.06.11,2.59,2.59,0,0,0,.48,0,2.4,2.4,0,0,1,.44.12,1.07,1.07,0,0,0,.47,0,2.27,2.27,0,0,1,.52,0,1.51,1.51,0,0,0,.94-.34,4.12,4.12,0,0,0,.79-.72.07.07,0,0,0,0,0l.7.25.12,0,.11,0,.36.13a.9.9,0,0,0,.32.09l0,0h0l.54.15-.24,0a7.69,7.69,0,0,0-1,0c-.35,0-.7.07-1,.12a2.21,2.21,0,0,0-.91.35.81.81,0,0,0-.43.82s0,.06,0,.06c.39.08.78.17,1.17.23a2.4,2.4,0,0,0,1.12-.15A5.16,5.16,0,0,0,74.88,79a1.7,1.7,0,0,0,.84-.73l1.06.32a11.45,11.45,0,0,0-1.75.63c-.17.08-.33.15-.49.24a2.26,2.26,0,0,0-.49.31,3.49,3.49,0,0,0-.37.47,2.4,2.4,0,0,0-.31.51c0,.07,0,.13,0,.13a.84.84,0,0,0,.27,0l.3,0c.2,0,.4-.07.6-.13a2.28,2.28,0,0,0,1.09-.51,2.49,2.49,0,0,1,.46-.4,1.86,1.86,0,0,0,.47-.32c.12-.14.22-.29.33-.44a1.73,1.73,0,0,1,.17-.21l.08-.07.25.08a4.28,4.28,0,0,1,.91.45,8.24,8.24,0,0,0,.9.54c.14.06.24-.19.09-.25a5.88,5.88,0,0,1-.8-.46,3.9,3.9,0,0,0-.81-.42l-.48-.16h0l-.14,0s0,0,0,0a1.52,1.52,0,0,0-.19-.54,3.3,3.3,0,0,0-.31-.51,11,11,0,0,0-.77-.88,8.41,8.41,0,0,0-1.19-1l-.3-.21-.12-.08s-.25,0-.21.11a3.24,3.24,0,0,0,.19.52c.07.17.15.35.23.52a6.9,6.9,0,0,0,.55,1,4.75,4.75,0,0,0,.57.69l-1-.28a1.89,1.89,0,0,0-.48-.85c-.13-.15-.24-.32-.37-.48a3.08,3.08,0,0,0-.42-.39c-.29-.26-.59-.51-.89-.74a2.27,2.27,0,0,0-.87-.45.13.13,0,0,0-.12.2c.22.35.46.71.69,1.06a6.94,6.94,0,0,0,.66.92,2.32,2.32,0,0,0,.25.21l-.91-.3-.35-.1a.18.18,0,0,0,0-.13,1.19,1.19,0,0,0-.14-.44,3.7,3.7,0,0,0-.21-.33,4.23,4.23,0,0,0-.52-.65c-.1-.09-.21-.15-.31-.24a1.5,1.5,0,0,0-.27-.24,7.24,7.24,0,0,0-.7-.32C69.55,74.47,69.5,74.59,69.53,74.67Z"/><path class="cls-6" d="M61.27,82.2c1-.47,1.29-.13,2.59-.32-.6,0-1.78-.33-1.64-.57.67-1.1,2.25-.15,3.12-.17l-1.61-.28c-.15,0-.43,0-.44-.24s.81-.44,1.29-.33c.85.22,1.71.42,2.57.6-.63-.23-1.24-.49-1.86-.74,0,0-.08,0-.1-.07s0-.3.14-.35a2.26,2.26,0,0,1,1.7.13,11,11,0,0,0,1.73.63,16,16,0,0,1-1.64-1c-.27-.24-.06-.33,0-.37.32-.13.61.05,1,.17a11.27,11.27,0,0,1,1.25.63c.43.22.77.39.78.29s-.83-.45-1.23-.69c-.17-.1-.38-.34-.29-.52a.2.2,0,0,1,.12-.1c.41-.16.94.22,1.39.47a10.35,10.35,0,0,0,1.68.79c-.59-.37-1.71-.83-1.71-1.23s.8-.23,1.24,0a13.65,13.65,0,0,1,2.2,1.53c-.52-.52-1-1-1.54-1.56-.1-.1-.22-.29-.15-.41a.13.13,0,0,1,.11-.06,2.47,2.47,0,0,1,1.75.72c.47.37.94.66,1.4,1a8.15,8.15,0,0,1,1.33,1.2,5.48,5.48,0,0,1-1.34.56,5,5,0,0,0-.77.16,4,4,0,0,0-.74.25,4.55,4.55,0,0,0-1.32.88c-.15.15-.4.28-.54.07a.52.52,0,0,1,0-.55,2,2,0,0,1,.82-.81,5.33,5.33,0,0,0-2,1.65c-.12.16-.29.34-.47.22a.46.46,0,0,1-.16-.43.83.83,0,0,1,.16-.4,4.29,4.29,0,0,1,1-1.11A6.68,6.68,0,0,0,69,83.39c-.35.37-.75.81-1.25.66a.4.4,0,0,1-.25-.18.63.63,0,0,1,.13-.7,5.27,5.27,0,0,1,1.1-1,4.8,4.8,0,0,0-1.85,1.61c-.24.34-.5.74-.89.71a.24.24,0,0,1-.17-.09.39.39,0,0,1,0-.38,4.22,4.22,0,0,1,.91-1.29,11.45,11.45,0,0,0-2.19,2.11c-.11.14-.27.3-.44.21a.48.48,0,0,1-.18-.42,1,1,0,0,1,.15-.42,4.24,4.24,0,0,1,1.15-1.32,10,10,0,0,0-1.61,1.39c-.35.37-1.11.8-1.26.5s.36-.91.85-1.28c-.66.4-1.51.84-1.82.74s0-.55.25-.69a6.05,6.05,0,0,1,.86-.6C61.71,83.14,60.71,82.46,61.27,82.2Z"/><path class="cls-2" d="M69.82,86.41a5.47,5.47,0,0,1,.5-.84,6.34,6.34,0,0,1,.55-.73,2.26,2.26,0,0,1,.59-.48l-.7.11a.09.09,0,0,1,0,.06,3.32,3.32,0,0,1-1.42,1.1,2.62,2.62,0,0,1-1.89-.09.09.09,0,0,1,0-.13,2.24,2.24,0,0,1,1.51-1c.33-.07.67-.14,1-.18s.52-.12.72,0a11.7,11.7,0,0,0,1.85-.39l.29-.09a6.12,6.12,0,0,1-1.71,0l-.56-.13a3.17,3.17,0,0,1-.49-.17,1.85,1.85,0,0,1-.63-.7.08.08,0,0,1,.06-.12,2.91,2.91,0,0,1,.51,0,2.44,2.44,0,0,0,.46-.14,1.4,1.4,0,0,1,.5,0,2.53,2.53,0,0,0,.55,0,1.77,1.77,0,0,1,1,.31,4.52,4.52,0,0,1,.89.69.08.08,0,0,1,0,0l.73-.27.12,0,.12,0c.13,0,.25-.1.37-.15a1,1,0,0,1,.33-.15l0,0,0,0,.55-.24-.25.06a3.92,3.92,0,0,1-1,.15l-1.12-.08a2.46,2.46,0,0,1-1-.32.8.8,0,0,1-.48-.8.06.06,0,0,1,.05-.06c.39-.09.79-.2,1.18-.28a2.65,2.65,0,0,1,1.15.11,9.75,9.75,0,0,1,1.21.31,1.82,1.82,0,0,1,1,.57l1-.49a12.05,12.05,0,0,1-1.89-.33,4.61,4.61,0,0,1-.53-.15,2.08,2.08,0,0,1-.53-.23,2.57,2.57,0,0,1-.42-.45,2.87,2.87,0,0,1-.36-.5c0-.07,0-.13,0-.13A1.23,1.23,0,0,1,74,80l.3,0,.6,0a2.35,2.35,0,0,1,1.15.33,2.31,2.31,0,0,0,.52.31,1.83,1.83,0,0,1,.53.25,2.86,2.86,0,0,1,.41.37l.21.18.1,0,.24-.12a4,4,0,0,0,.83-.6c.25-.22.49-.49.75-.72s.28.11.16.22-.46.43-.68.64a4,4,0,0,1-.74.55l-.46.24,0,0-.13.06s.05,0,.05,0a1.56,1.56,0,0,1-.09.56,3,3,0,0,1-.24.56,7.27,7.27,0,0,1-.67,1,8.09,8.09,0,0,1-1.17,1.17l-.3.26-.13.1s-.28.08-.26-.07a2.55,2.55,0,0,1,.15-.54c.06-.19.12-.38.19-.56a8.9,8.9,0,0,1,.47-1,5,5,0,0,1,.51-.78l-1,.44a1.87,1.87,0,0,1-.41.93l-.35.52a4.07,4.07,0,0,1-.42.41c-.31.26-.62.52-1,.76a2.45,2.45,0,0,1-1,.49.13.13,0,0,1-.14-.19c.24-.36.48-.73.73-1.09a7,7,0,0,1,.66-.95,2.75,2.75,0,0,1,.26-.22c-.33.12-.65.24-1,.34l-.38.12a.16.16,0,0,1,0,.12,1.39,1.39,0,0,1-.14.45A1.5,1.5,0,0,1,72,85a3.08,3.08,0,0,1-.56.68c-.11.09-.24.16-.35.25a1.73,1.73,0,0,1-.3.25,8.51,8.51,0,0,1-.83.34C69.85,86.6,69.79,86.49,69.82,86.41Z"/><path class="cls-2" d="M86.36,72.51a4.07,4.07,0,0,0,.61.69,3.91,3.91,0,0,0,.65.57,2.26,2.26,0,0,0,.64.32,4.48,4.48,0,0,0-.64.07.1.1,0,0,0,0,0,3.4,3.4,0,0,0-1.48-.74,2,2,0,0,0-1.6.39.09.09,0,0,0,0,.13,2,2,0,0,0,1.51.7,7.22,7.22,0,0,0,.93,0c.2,0,.48,0,.62-.2a8.88,8.88,0,0,1,1.71-.1h.29a5.06,5.06,0,0,0-1.49.46l-.46.28a2.07,2.07,0,0,0-.39.29,2,2,0,0,0-.42.81.1.1,0,0,0,.09.11,4,4,0,0,0,.46-.14,2.37,2.37,0,0,1,.46,0,1.21,1.21,0,0,0,.45-.12,1.7,1.7,0,0,1,.5-.15,1.6,1.6,0,0,0,.82-.57,3.9,3.9,0,0,0,.58-.89,0,0,0,0,0,0,0l.74.07.12,0h.12l.37,0a.92.92,0,0,0,.33,0h.09l.56,0-.24,0a3.56,3.56,0,0,0-.92.24l-1,.39a2.16,2.16,0,0,0-.79.56.81.81,0,0,0-.21.9.08.08,0,0,0,.07,0l1.19-.07a2.54,2.54,0,0,0,1-.42,9.91,9.91,0,0,0,1-.75,1.77,1.77,0,0,0,.65-.91l1.1.06a11.17,11.17,0,0,0-1.54,1l-.42.34a2,2,0,0,0-.39.43,3.57,3.57,0,0,0-.23.57,2.7,2.7,0,0,0-.18.57c0,.08,0,.13.06.12a2.77,2.77,0,0,0,.26-.1l.27-.14.55-.28a2.36,2.36,0,0,0,.93-.76,2.43,2.43,0,0,1,.35-.49,2.16,2.16,0,0,0,.37-.43,4.4,4.4,0,0,0,.21-.5,1.75,1.75,0,0,1,.11-.24l.06-.1.26,0a4.21,4.21,0,0,1,1,.18A8.68,8.68,0,0,0,97,75c.15,0,.18-.23,0-.26a6.7,6.7,0,0,1-.88-.23,4,4,0,0,0-.89-.17l-.5,0h-.18s0,0,0,0a1.36,1.36,0,0,0-.32-.47,2.83,2.83,0,0,0-.43-.42,8.42,8.42,0,0,0-1-.67,8,8,0,0,0-1.4-.65L91.14,72l-.14,0s-.25,0-.18.16a3.58,3.58,0,0,0,.31.45l.36.46a8.11,8.11,0,0,0,.77.78,4.76,4.76,0,0,0,.74.53l-1,0a1.79,1.79,0,0,0-.68-.71l-.47-.35a4.82,4.82,0,0,0-.5-.27c-.34-.17-.69-.34-1-.49a2.2,2.2,0,0,0-1-.22.13.13,0,0,0-.07.22l.94.86a5.86,5.86,0,0,0,.86.72l.3.15-1-.07h-.37a.15.15,0,0,0,0-.13,1.44,1.44,0,0,0-.25-.39,3.71,3.71,0,0,0-.29-.27,3.83,3.83,0,0,0-.66-.5l-.36-.16a1.3,1.3,0,0,0-.31-.16,6.75,6.75,0,0,0-.76-.14C86.33,72.32,86.31,72.44,86.36,72.51Z"/><path class="cls-6" d="M80.19,81.8c.82-.7,1.22-.46,2.43-1-.57.18-1.8.11-1.72-.15.37-1.25,2.15-.69,3-.9-.54,0-1.09.06-1.63.09-.16,0-.42.09-.49-.12s.68-.63,1.18-.62h.66c.22,0,.43,0,.65,0l1.32,0-2-.24a.22.22,0,0,1-.13,0c-.12-.11,0-.3.06-.37a2.19,2.19,0,0,1,1.68-.32,11.38,11.38,0,0,0,1.83.2c-.62-.2-1.53-.43-1.85-.6s-.13-.31,0-.36c.27-.21.6-.12,1-.08a11.31,11.31,0,0,1,1.37.34c.47.14.84.19.83.1s-.25-.16-.53-.21-.62-.12-.84-.19-.45-.24-.41-.43a.16.16,0,0,1,.09-.12c.36-.27,1,0,1.47.14a10.85,10.85,0,0,0,1.82.35c-.66-.22-1.86-.38-2-.77s.71-.43,1.19-.31a14.26,14.26,0,0,1,2.51.93c-.63-.37-1.26-.74-1.87-1.12-.13-.08-.29-.23-.26-.36a.18.18,0,0,1,.1-.09,2.52,2.52,0,0,1,1.87.26,14.24,14.24,0,0,1,3.19,1.43,5,5,0,0,1-1.16.86,5.41,5.41,0,0,0-1.35.8,4.72,4.72,0,0,0-1.07,1.19c-.11.18-.31.37-.51.2a.53.53,0,0,1-.09-.54,2,2,0,0,1,.59-1,5.41,5.41,0,0,0-1.57,2.12c-.07.18-.2.4-.4.33a.47.47,0,0,1-.26-.38.78.78,0,0,1,.06-.43,4.2,4.2,0,0,1,.69-1.33,7.75,7.75,0,0,0-1.69,2c-.25.44-.53,1-1.05.94a.41.41,0,0,1-.29-.11.62.62,0,0,1,0-.71A4.59,4.59,0,0,1,87.37,80,4.66,4.66,0,0,0,86,82c-.15.39-.3.84-.68.92a.25.25,0,0,1-.2,0,.42.42,0,0,1-.07-.38A4.18,4.18,0,0,1,85.57,81,12.55,12.55,0,0,0,84,83.56c-.07.17-.19.36-.37.3a.45.45,0,0,1-.28-.36,1.07,1.07,0,0,1,0-.44,4,4,0,0,1,.8-1.54,9.8,9.8,0,0,0-1.23,1.71c-.25.44-.87,1-1.1.79s.14-1,.51-1.45c-.53.54-1.25,1.19-1.57,1.17s-.09-.55.07-.73a6,6,0,0,1,.68-.8C80.85,82.6,79.71,82.21,80.19,81.8Z"/><path class="cls-2" d="M89.54,83.82a4.51,4.51,0,0,1,.28-.93,4.76,4.76,0,0,1,.34-.84,2.63,2.63,0,0,1,.46-.62c-.21.1-.43.2-.65.28a.2.2,0,0,1,0,.07,3.17,3.17,0,0,1-1.12,1.4,2.77,2.77,0,0,1-1.87.35.1.1,0,0,1-.08-.12,2.2,2.2,0,0,1,1.24-1.28c.3-.16.62-.26.94-.4s.48-.24.71-.17a10.69,10.69,0,0,0,1.7-.83l.26-.17a6,6,0,0,1-1.67.42H89.5a2.24,2.24,0,0,1-.52,0,1.79,1.79,0,0,1-.79-.53.08.08,0,0,1,0-.13c.16-.06.34,0,.5-.09a2.22,2.22,0,0,0,.42-.25,1.32,1.32,0,0,1,.48-.13,2,2,0,0,0,.53-.14,1.83,1.83,0,0,1,1.06,0,4.44,4.44,0,0,1,1,.44s0,0,0,0c.21-.15.43-.28.64-.45l.1-.09.11-.07.31-.24a1.23,1.23,0,0,1,.28-.23l0,0,0,0,.47-.38-.23.13a3.93,3.93,0,0,1-1,.38,6.59,6.59,0,0,1-1.09.23,2.44,2.44,0,0,1-1-.05.81.81,0,0,1-.66-.66.08.08,0,0,1,0-.08l1.08-.56a3.11,3.11,0,0,1,1.14-.2,8.69,8.69,0,0,1,1.25,0,1.88,1.88,0,0,1,1.1.31l.88-.72a13.67,13.67,0,0,1-1.92.14l-.56,0a1.9,1.9,0,0,1-.57-.1,2.29,2.29,0,0,1-.51-.32,2.46,2.46,0,0,1-.48-.37c0-.06-.06-.12,0-.14a1.19,1.19,0,0,1,.26,0l.3-.06.6-.1a2.29,2.29,0,0,1,1.19,0,2.51,2.51,0,0,0,.59.18,2,2,0,0,1,.58.11,4.59,4.59,0,0,1,.49.26l.25.12.11,0,.2-.19a3.89,3.89,0,0,0,.63-.82c.19-.3.35-.62.55-.89s.31,0,.21.17a6.91,6.91,0,0,0-.5.78,4.07,4.07,0,0,1-.56.75l-.38.36a0,0,0,0,1,0,0l-.11.1h0a1.32,1.32,0,0,1,0,.56,2.49,2.49,0,0,1-.09.6,7.54,7.54,0,0,1-.39,1.13,7.77,7.77,0,0,1-.85,1.41l-.23.33-.11.13s-.24.14-.26,0a2.62,2.62,0,0,1,0-.56,5.87,5.87,0,0,1,0-.59,8,8,0,0,1,.19-1.11,5.06,5.06,0,0,1,.3-.88l-.84.66a1.9,1.9,0,0,1-.17,1c-.08.19-.14.39-.22.59a3.81,3.81,0,0,1-.29.52,11.86,11.86,0,0,1-.73,1,2.49,2.49,0,0,1-.83.72c-.09,0-.23,0-.19-.15.14-.41.29-.82.44-1.24a6.64,6.64,0,0,1,.4-1.08,2.83,2.83,0,0,1,.2-.28c-.29.2-.57.39-.87.58l-.33.2a.2.2,0,0,1,.06.11,1.24,1.24,0,0,1,0,.47,2.46,2.46,0,0,1-.14.38,3.27,3.27,0,0,1-.38.8c-.09.11-.19.21-.27.33a1.91,1.91,0,0,1-.24.32c-.22.2-.48.36-.72.54C89.61,84,89.52,83.91,89.54,83.82Z"/><path class="cls-2" d="M101.94,66.16a4.3,4.3,0,0,0,.78.5,4.64,4.64,0,0,0,.77.39,2.19,2.19,0,0,0,.71.14,5.33,5.33,0,0,0-.6.23.1.1,0,0,0,0,0,3,3,0,0,0-1.61-.31,2.07,2.07,0,0,0-1.43.79.1.1,0,0,0,0,.14,2,2,0,0,0,1.63.28A5.19,5.19,0,0,0,103,68c.19-.08.46-.14.56-.35a9.79,9.79,0,0,1,1.61-.53l.28-.07a5.93,5.93,0,0,0-1.31.83c-.13.12-.25.25-.37.38a1.8,1.8,0,0,0-.3.37,2.16,2.16,0,0,0-.17.92.09.09,0,0,0,.11.08c.15-.06.26-.2.4-.27a1.58,1.58,0,0,1,.44-.11,1.39,1.39,0,0,0,.41-.23,1.68,1.68,0,0,1,.44-.27,1.4,1.4,0,0,0,.63-.76,3.89,3.89,0,0,0,.31-1,.07.07,0,0,0,0,0l.71-.15a.32.32,0,0,0,.13,0l.11,0,.36-.08a.88.88,0,0,0,.32-.07l.06,0h0l.55-.14-.23.1a4.43,4.43,0,0,0-.81.48l-.82.64a2.29,2.29,0,0,0-.6.77.82.82,0,0,0,0,.92.08.08,0,0,0,.08,0c.37-.12.74-.26,1.11-.4a2.37,2.37,0,0,0,.87-.7,5.8,5.8,0,0,0,.73-1,1.65,1.65,0,0,0,.36-1l1-.27c-.2.22-.4.45-.59.69s-.39.48-.57.73a5.09,5.09,0,0,0-.31.45,1.86,1.86,0,0,0-.25.51,2.4,2.4,0,0,0-.07.6,3,3,0,0,0,0,.6c0,.08,0,.13.1.1a1.12,1.12,0,0,0,.21-.17l.23-.2a6,6,0,0,0,.45-.42,2.28,2.28,0,0,0,.69-1,2.73,2.73,0,0,1,.19-.57,1.94,1.94,0,0,0,.23-.53c0-.17,0-.36,0-.54a1.24,1.24,0,0,1,0-.27l0-.1.25-.06a4.55,4.55,0,0,1,1-.12,6,6,0,0,0,1,0c.16,0,.1-.28-.06-.25a6.94,6.94,0,0,1-.91,0,3.82,3.82,0,0,0-.9.09l-.48.12h0l-.13,0s0,0,0,0a1.55,1.55,0,0,0-.45-.36,3.78,3.78,0,0,0-.53-.27,9.4,9.4,0,0,0-1.1-.36,9.91,9.91,0,0,0-1.51-.25l-.36,0h-.15s-.22.09-.12.2a3.65,3.65,0,0,0,.43.35c.15.12.31.23.47.34a6.84,6.84,0,0,0,1,.54,5.08,5.08,0,0,0,.85.31l-1,.23a1.88,1.88,0,0,0-.85-.49l-.55-.22a2.59,2.59,0,0,0-.55-.13c-.37-.07-.75-.13-1.12-.18a2.16,2.16,0,0,0-1,.05.13.13,0,0,0,0,.23c.37.2.74.38,1.12.57a6.64,6.64,0,0,0,1,.46,1.77,1.77,0,0,0,.32.05c-.31.07-.62.13-.92.21L105,67a.19.19,0,0,0,0-.12,1.43,1.43,0,0,0-.34-.31,3.84,3.84,0,0,0-.35-.18,3.47,3.47,0,0,0-.78-.32c-.13,0-.26,0-.38-.06a1.17,1.17,0,0,0-.35-.08A4.9,4.9,0,0,0,102,66C101.86,66,101.88,66.1,101.94,66.16Z"/><path class="cls-6" d="M98.45,76.72a2.34,2.34,0,0,1,.9-.78,6.93,6.93,0,0,0,1.2-.75,3.13,3.13,0,0,1-1,.39c-.36.08-.66,0-.66-.08.05-1.28,1.89-1.25,2.64-1.68l-1.54.54c-.15.06-.38.2-.5,0s.49-.8,1-.92l1.28-.34,1.26-.39c-.66.1-1.31.2-2,.26a.3.3,0,0,1-.13,0c-.15-.07-.12-.27,0-.37a2.4,2.4,0,0,1,1.54-.72,11.91,11.91,0,0,0,1.82-.29c-.65,0-1.59,0-1.94-.09s-.21-.26-.15-.34c.21-.27.55-.26.92-.32.69-.1,2.31,0,2.22-.18s-.94,0-1.41,0c-.2,0-.5-.11-.51-.31a.25.25,0,0,1,0-.15c.29-.34.93-.27,1.45-.26a10.65,10.65,0,0,0,1.86-.13c-.7,0-1.91.11-2.1-.24s.58-.59,1.07-.59a14.49,14.49,0,0,1,2.66.19l-2.1-.55c-.14,0-.34-.14-.34-.28s0-.08.07-.11a2.41,2.41,0,0,1,1.84-.28,16.57,16.57,0,0,1,3.48.49,3.52,3.52,0,0,1-.29.48,3.08,3.08,0,0,1-.58.68,4.93,4.93,0,0,0-1.79,2.59c-.06.2-.2.45-.44.34a.54.54,0,0,1-.24-.49,2.13,2.13,0,0,1,.3-1.14,5.84,5.84,0,0,0-1,2.46c0,.2-.09.43-.3.42a.48.48,0,0,1-.36-.29.82.82,0,0,1-.06-.43,4.52,4.52,0,0,1,.32-1.45A6.87,6.87,0,0,0,105.76,74c-.13.49-.27,1.07-.78,1.19a.44.44,0,0,1-.31,0,.62.62,0,0,1-.22-.67,4.7,4.7,0,0,1,.46-1.43,4.76,4.76,0,0,0-.84,2.31c0,.41-.07.9-.42,1.07a.23.23,0,0,1-.2,0,.42.42,0,0,1-.17-.34,4.3,4.3,0,0,1,.16-1.58,12.33,12.33,0,0,0-.89,2.91c0,.18-.09.39-.28.39a.46.46,0,0,1-.36-.28.94.94,0,0,1-.08-.43,4.09,4.09,0,0,1,.37-1.71,9.62,9.62,0,0,0-.74,2c-.12.5-.57,1.25-.85,1.07s-.12-1,.12-1.54c-.38.68-.92,1.46-1.24,1.52s-.22-.51-.11-.72a6.19,6.19,0,0,1,.46-.93C99.29,77.34,98.08,77.23,98.45,76.72Z"/><path class="cls-2" d="M108,76.21a5.22,5.22,0,0,1,0-1,5.41,5.41,0,0,1,.12-.9,2.22,2.22,0,0,1,.29-.71c-.18.15-.37.3-.57.44a.15.15,0,0,1,0,.07,3.37,3.37,0,0,1-.72,1.65,2.73,2.73,0,0,1-1.71.85c-.06,0-.11,0-.11-.09a2.2,2.2,0,0,1,.86-1.57c.26-.23.52-.45.8-.66s.4-.36.65-.35a8.06,8.06,0,0,0,1.42-1.26l.21-.23a5.09,5.09,0,0,1-1.5.85l-.56.16a2.27,2.27,0,0,1-.52.09,1.82,1.82,0,0,1-.91-.3s0-.1,0-.13a3.88,3.88,0,0,1,.46-.22,2.24,2.24,0,0,0,.34-.35,1.73,1.73,0,0,1,.44-.25,3.2,3.2,0,0,0,.48-.26,1.83,1.83,0,0,1,1-.25,4.27,4.27,0,0,1,1.12.12l0,0,.5-.61a.41.41,0,0,1,.07-.11l.09-.1.23-.32a1.37,1.37,0,0,1,.22-.3l0,0a0,0,0,0,1,0,0l.36-.49-.19.18a3.87,3.87,0,0,1-.81.64c-.32.19-.66.35-1,.52a2.34,2.34,0,0,1-1,.24.79.79,0,0,1-.82-.44.08.08,0,0,1,0-.08l.87-.86a2.76,2.76,0,0,1,1-.5,8,8,0,0,1,1.21-.35,2,2,0,0,1,1.15,0c.22-.32.43-.65.64-1a9.72,9.72,0,0,1-1.81.71l-.54.14a1.88,1.88,0,0,1-.58.06,2.48,2.48,0,0,1-.59-.17,2.28,2.28,0,0,1-.56-.23c-.07,0-.1-.09,0-.13a1,1,0,0,1,.24-.11l.27-.14.55-.26a2.4,2.4,0,0,1,1.16-.29,2.07,2.07,0,0,0,.61,0,2.3,2.3,0,0,1,.58-.07,4.86,4.86,0,0,1,.55.1l.28,0a.4.4,0,0,0,.11,0l.14-.23a3.88,3.88,0,0,0,.37-1c.09-.35.14-.69.25-1,0-.15.31-.07.26.09a7.32,7.32,0,0,0-.24.92,3.86,3.86,0,0,1-.32.88c-.08.16-.17.31-.26.46a.13.13,0,0,1,0,.05l-.07.12s0,0,0,0a1.3,1.3,0,0,1,.22.53,2.42,2.42,0,0,1,.09.6,7.18,7.18,0,0,1-.06,1.22,7,7,0,0,1-.43,1.61c0,.13-.09.26-.14.38l-.06.16s-.21.2-.27.07a3.41,3.41,0,0,1-.14-.55c0-.19-.08-.38-.12-.58a8.49,8.49,0,0,1-.11-1.12,4.8,4.8,0,0,1,0-.93l-.63.88a1.8,1.8,0,0,1,.11,1c0,.21,0,.42,0,.62a2.83,2.83,0,0,1-.15.59c-.13.38-.27.78-.44,1.16a2.61,2.61,0,0,1-.6.93c-.08.07-.24,0-.23-.08l.09-1.33a6.34,6.34,0,0,1,.1-1.16,1.8,1.8,0,0,1,.1-.33c-.21.27-.44.54-.67.8l-.27.3a.16.16,0,0,1,.09.09,1.24,1.24,0,0,1,.11.46,1.89,1.89,0,0,1,0,.41,3.18,3.18,0,0,1-.16.87c-.06.13-.13.25-.18.39a1.61,1.61,0,0,1-.15.36,7.46,7.46,0,0,1-.56.7C108.14,76.37,108,76.29,108,76.21Z"/><path class="cls-5" d="M45.65,74.66c-1.3-2.72-5.85-1.81-4.79,1.38S47.18,77.84,45.65,74.66Z"/><path class="cls-5" d="M61,82.83a1,1,0,0,0,.53-.12,1,1,0,0,0,.41-.62,2.64,2.64,0,0,0-.2-2.06A2,2,0,0,0,60,79c-1.07,0-2.71,1.15-2.22,2.35S59.94,82.88,61,82.83Z"/><path class="cls-5" d="M64.55,77.27a1.53,1.53,0,0,0-2.17.77c-.74,1.76-.06,2.17.47,2.58a1.5,1.5,0,0,0,1.4.15,1.55,1.55,0,0,0,.86-.57,2.11,2.11,0,0,0,.48-.88A1.8,1.8,0,0,0,64.55,77.27Z"/><path class="cls-5" d="M79.24,78.45a1.23,1.23,0,0,0-.65-1c-.37-.21-1.7-.59-2.32.34a2.36,2.36,0,0,0-.24,2c.16.44.46.92.92.93S79.23,79.65,79.24,78.45Z"/><path class="cls-5" d="M82.1,79.9a1.8,1.8,0,0,0-2.46-.37,1.64,1.64,0,0,0-.41,2.6,2.13,2.13,0,0,0,2.42.22A1.8,1.8,0,0,0,82.1,79.9Z"/><path class="cls-5" d="M100,74.25c-.43-2.85-5.13-2-4.47.85a3.1,3.1,0,0,0,2.18,2.22C99.58,77.85,100.25,75.79,100,74.25Z"/><path class="cls-4" d="M69.88,93.86c-7.3,1.11-14.16,21.43-13.63,49,.28,14.41,1.73,29.8,3.06,41.22,1.2,10.41,1.24,15.59,2.3,17.51s17,1.75,18.13,0,.52-7.11,1.19-17.21c.78-11.87,1.77-27.86,2.37-41.24C84.39,118.35,77.17,92.74,69.88,93.86Z"/><path class="cls-3" d="M62.49,200.46c-.94-1.87-1-6.9-2.06-17-1.18-11.1-2.47-26.08-2.72-40.1-.47-26.81,5.65-46.58,12.16-47.67s13,23.83,12,47.94c-.53,13-1.41,28.58-2.11,40.13-.6,9.82-.07,15-1.06,16.74S63.44,202.33,62.49,200.46Z"/><path class="cls-6" d="M76.77,195.9a39.45,39.45,0,0,0-5.45-4.79c0-2-.07-4.18-.09-6.52a12.34,12.34,0,0,0,2,2.33c.62.6,3.67,3.12,4.14,2.16.34-.69-.55-3.3-1.35-4.13a22.15,22.15,0,0,0-4.8-4.08c0-1.85,0-3.75,0-5.7a11.48,11.48,0,0,0,2.62,3.27c.7.65,4,2.87,4.35,2.09s-1.62-4-2.23-4.73a27.89,27.89,0,0,0-4.74-4.32l0,.36-.06-5.48a12.59,12.59,0,0,0,1.42,1.52c.65.58,3.63,3.29,4.37,1.92.36-.68-1.71-3.79-2.27-4.42A21.2,21.2,0,0,0,71,162.12c0-1.86,0-3.71-.07-5.51a21.79,21.79,0,0,0,2.37,2.45c.75.69,4.26,3.4,4.79,2.7,1-1.32-1.25-4.57-1.91-5.29a13.62,13.62,0,0,0-5.31-4.15c0-2.31-.06-4.53-.09-6.58a19.68,19.68,0,0,0,2.25,2.41c.7.65,4.05,3.35,4.45,2.56s-1.11-3.37-1.71-4.06a37.24,37.24,0,0,0-5-4.8c0-2.51-.08-4.66-.11-6.34A18.37,18.37,0,0,0,73,138.1c.7.65,4,3.35,4.45,2.57s-1.11-3.38-1.71-4.07a36.88,36.88,0,0,0-5.19-4.91v-.05c0-1.79,0-3.79-.09-5.66a40.59,40.59,0,0,0,4.34,4.77c.57.55,1.81,1.46,2.17.87s-2.23-4.76-3-5.79a7.89,7.89,0,0,0-3.55-2.76c0-1.18,0-2.18,0-2.88s0-1.7,0-3.17c.7,1.22,1.6,2.79,2.46,4.07s3.25,3.84,3.76,3c.38-.6-.87-3.26-1.53-4.28a63.08,63.08,0,0,0-4.65-6.31c0-1.82-.12-3.29-.18-4.48a32.93,32.93,0,0,0,2.38,3.46c.34.43.73.88,1.11.78a.2.2,0,0,0,.15-.1.76.76,0,0,0,0-.51,8.44,8.44,0,0,0-.45-1.06,23.63,23.63,0,0,0-2.64-4.54,1.78,1.78,0,0,0-.73-.61c-.1,0-.54-.41-1.32.63a24.08,24.08,0,0,0-2.7,4.3,2.36,2.36,0,0,0-.32,1.34c.22.86,1.34-.17,1.68-.59A17.49,17.49,0,0,0,69,109.49c0,1.28,0,2.86,0,4.48a6.49,6.49,0,0,0-.69.77A40.1,40.1,0,0,0,63.86,121c-.28.53-1,2-.75,2.51.49.84,2.37-.9,2.92-1.57a23.91,23.91,0,0,0,3-4c0,1.32,0,1.51,0,2.54,0,.67,0,1.59,0,2.65a3.62,3.62,0,0,0-1,.73,29.54,29.54,0,0,0-4.49,5.86,9.64,9.64,0,0,0-.77,1.37.75.75,0,0,0,0,.65c.7,1.21,3.36-1.67,4-2.33a29.8,29.8,0,0,0,2.39-3.23c0,1.4.06,5.91.06,5.91s-.77.91-1,1.25a39.49,39.49,0,0,0-3.78,5.86,6,6,0,0,0-.89,3c.24.21.55,0,.78-.22a25.4,25.4,0,0,0,2.61-3.07c.8-1,1.6-2.08,2.39-3.13,0,1.5,0,3.75,0,6.54a28.2,28.2,0,0,0-4.67,4.33c-.6.69-2.58,4-2.19,4.74s3.64-1.47,4.34-2.13a11.88,11.88,0,0,0,2.55-3.2c0,1.75,0,3.64,0,5.61a22.4,22.4,0,0,0-4.78,4.13c-.79.83-1.66,3.45-1.32,4.14.48,1,3.51-1.6,4.13-2.19a12.15,12.15,0,0,0,2-2.41q0,3.15.08,6.47A40,40,0,0,0,64,166.7c-.64.7-2.23,3.31-1.82,4.05s4-1.95,4.78-2.61a18.75,18.75,0,0,0,2.65-2.73c0,2.21.06,4.43.1,6.63A29.76,29.76,0,0,0,65,175.83c-.61.6-2.19,3-1.9,3.86s3.6-1.32,4.3-1.87a17,17,0,0,0,2.33-2.15c0,2,.07,4,.11,5.83a13.8,13.8,0,0,0-5.72,4.4c-.65.73-2.87,4-1.87,5.3.54.7,4-2,4.77-2.73a16.74,16.74,0,0,0,2.9-3.25c0,2.05.06,4,.08,5.76a25.65,25.65,0,0,0-4.21,3.82c-.55.63-2.6,3.76-2.23,4.43.75,1.37,3.71-1.36,4.36-1.95a9.73,9.73,0,0,0,2.13-2.67c.08,4.42.23,7.19.78,7.19s.6-2.63.55-6.87a20.52,20.52,0,0,0,2.45,2.44c.76.65,4.37,3.34,4.8,2.57S77.43,196.59,76.77,195.9Z"/><path class="cls-5" d="M69.76,108.06a11,11,0,0,0,.63,2.7,16.46,16.46,0,0,0,.6-3.05s2.87,1.12,2.92.85-2-1.94-2-1.94,2.16-1.81,2-1.94a17.39,17.39,0,0,0-2.75.84,34.89,34.89,0,0,0,.51-3.67A28.65,28.65,0,0,0,70,105a18.82,18.82,0,0,0-1.79-2.45,30.16,30.16,0,0,0,.73,3.32,16.2,16.2,0,0,0-3.09.11c-.08.2,2.63,1.51,2.63,1.51a13.94,13.94,0,0,0-1,2.69C67.66,110.52,69.76,108.06,69.76,108.06Z"/><rect class="cls-4" x="60.88" y="187.75" width="18.65" height="1.19"/><rect class="cls-4" x="58.22" y="172.56" width="22.35" height="1.19"/><rect class="cls-4" x="58.02" y="157.22" width="23.93" height="1.19"/><path class="cls-4" d="M82.5,143.48c-9.29-.22-25-.62-25.55-.82l.2-.57.13-.58c.84.15,15.56.55,25.24.78Z"/><path class="cls-4" d="M81.93,128.2c-6.42-.23-23.24-.83-23.87-.8l0-.44-.11-.74c.3,0,13.24.4,24,.79Z"/><rect class="cls-4" x="69.32" y="94.25" width="1.19" height="107.95"/><polygon class="cls-4" points="69.94 128.46 60.35 110.21 61.39 109.05 69.96 125.95 79.01 109.64 80.05 110.22 69.94 128.46"/></g></g></svg>