<svg xmlns="http://www.w3.org/2000/svg" xmlns:xlink="http://www.w3.org/1999/xlink" viewBox="0 0 240.21 158.07"><defs><style>.cls-1{fill:none;}.cls-2{fill:#fbf2d6;}.cls-3{fill:#4c6b51;}.cls-4{fill:url(#ÕÓ_È_Ó·_ÁÂ_ÛÁÓ_5);}.cls-5{fill:#c86e29;}.cls-6{fill:#f2b669;}.cls-7{fill:#fa8573;}.cls-8{fill:#f45b44;}</style><pattern id="ÕÓ_È_Ó·_ÁÂ_ÛÁÓ_5" data-name="ÕÓ‚˚È Ó·‡ÁÂˆ ÛÁÓ‡ 5" width="355.44" height="355.44" patternTransform="translate(521.21 -323.79) scale(0.48)" patternUnits="userSpaceOnUse" viewBox="0 0 355.44 355.44"><rect class="cls-1" width="355.44" height="355.44"/><path class="cls-2" d="M50.53,24.37c-1.44-1-2.84,1.39-1.38,2.35,2,1.32,4.2,3.88,2.54,6.31s-4.1,0-6.27.23a1.14,1.14,0,0,0,0,2.27c2,.12,3.6,1.54,5.64,1a5.33,5.33,0,0,0,3.33-3.1C56,29.78,53.4,26.36,50.53,24.37Z"/><path class="cls-2" d="M32.2,52.42a2.28,2.28,0,0,1,1.87-1.33c.7-.07,1.27.36,1.94.34a1.47,1.47,0,0,0,1.5-1.49,1.45,1.45,0,0,0-.74-1.29,5.43,5.43,0,0,0-7.86,5.17c.31,4.38,5.21,6.41,9,5.41a.31.31,0,0,0,.08-.56C36.13,57.32,30.67,55.66,32.2,52.42Z"/><path class="cls-2" d="M1.35,34.86C1.2,33.62.58,32.28,1,31c.52-1.62,1.77-1.18,2.3.12.76,1.84.48,4.15,2.21,5.5a1.36,1.36,0,0,0,1.56.2l.14-.06A1,1,0,0,0,7.67,36c.08-.89-.67-1.35-1-2.1A18.66,18.66,0,0,1,6,31.22c-.42-1.59-1.37-3.33-3.08-3.78a3.26,3.26,0,0,0-2.94.7V35.5C.53,35.83,1.44,35.66,1.35,34.86Z"/><path class="cls-2" d="M34.15,20.24c-1.6-.84-3.58-.34-5.34-.55-.64-.08-2.68-.21-3-.77s.37-1.75.79-2.21c1.27-1.4,3-1.37,4.69-.93.17,0,1.72.67,1.91.17.82-2.19-3-3.46-4.53-3.46a6.44,6.44,0,0,0-5.76,4.16c-.95,2.41-.42,4.7,2.18,5.55s7.14,1.79,9.34-.12A1.18,1.18,0,0,0,34.15,20.24Z"/><path class="cls-2" d="M46.86,8.37c.35.12.54-.34.33-.58C45.69,6,43.51,3.45,43.67.94A3.92,3.92,0,0,1,43.86,0H40.77C40.08,4,43.37,7.19,46.86,8.37Z"/><path class="cls-2" d="M84,26.41c-3-1-6.66,1.45-6.46,4.77.22,3.58,4.3,4.32,6.21,6.69.36.45.94-.13.74-.57-.7-1.6-2-2.76-3-4.16a3.17,3.17,0,0,1-.85-2.2,1.91,1.91,0,0,1,2.52-1.42C85.13,30.17,86,27.06,84,26.41Z"/><path class="cls-2" d="M114.27,16.14A6.7,6.7,0,0,1,111,13.86c-2.3-3.27,3.51-3.72,5.4-3.59.46,0,.69-.72.24-.91-2.08-.89-4.07-1.89-6.35-1.07a4.67,4.67,0,0,0-3.14,4.64c.15,2.28,1.94,4.12,3.76,5.28s4.34,2.37,6.06.91a1.22,1.22,0,0,0,.19-1.48C116.36,16.53,115.48,16.57,114.27,16.14Z"/><path class="cls-2" d="M131.17,24.46a1,1,0,0,0-1.17.48c-.95,2.19,2,6.25-.44,8s-4.17-1.8-6-2.47a.23.23,0,0,0-.26.11c-.84,1.63.62,3.62,1.86,4.59A5.11,5.11,0,0,0,133.53,31C133.65,28.87,133.44,25.28,131.17,24.46Z"/><path class="cls-2" d="M157.89,8.66c.14.32.66.21.74-.1a16,16,0,0,0,.54-3.17A18.26,18.26,0,0,1,159.24,2c.68-2.6,4.22-.08,5.58.26A1.13,1.13,0,0,0,166.19.89a3.29,3.29,0,0,0-.34-.89h-9.06C155.44,2.49,156.87,6.33,157.89,8.66Z"/><path class="cls-2" d="M92.43.36A1.12,1.12,0,0,0,92.8.27,2.09,2.09,0,0,0,93.19,0h-1.9A1.4,1.4,0,0,0,92.43.36Z"/><path class="cls-2" d="M82.68,4.19a.33.33,0,0,0,.5.15c1.47-1,1.89-3,3.1-4.34H83.11A5.63,5.63,0,0,0,82.68,4.19Z"/><path class="cls-2" d="M166.43,27.24a5.47,5.47,0,0,0,5.46,6.85.46.46,0,0,0,.23-.85c-1.38-.92-3.11-3.17-2.56-4.94.61-1.92,2.32-1.37,3.81-1.69a1.27,1.27,0,0,0,.75-1.85C172.38,21.22,167.21,24.66,166.43,27.24Z"/><path class="cls-2" d="M140.06,43.25c-3.53,2.16-1.05,8.1.92,10.45a.52.52,0,0,0,.86-.5c-.65-1.71-2.11-6.9.07-7.88a4.73,4.73,0,0,1,3.5.26c1,.45,1.5,1.21,2.65,1.27a1,1,0,0,0,1-1C149,42.26,142.38,41.82,140.06,43.25Z"/><path class="cls-2" d="M130,73.24a2.76,2.76,0,0,1-2.07-3.66,5.74,5.74,0,0,1,3.79-2.8c.33-.06.3-.47.09-.63-2.46-1.83-5.64-.48-6.93,2.14-1.51,3.06.39,6.69,3.37,7.94,1.25.53,3.47.91,4-.79S131.11,73.52,130,73.24Z"/><path class="cls-2" d="M103,50.79c-5.66.37-5.77,5.9-3.31,9.76a.42.42,0,0,0,.76-.32c-.44-3.18-.76-7.5,3.89-6.76a6.62,6.62,0,0,1,3.93,2.23c.93,1.09,1,2.55,2,3.54a1,1,0,0,0,1.57-.2c.87-2-.68-4.28-2.14-5.68A9.06,9.06,0,0,0,103,50.79Z"/><path class="cls-2" d="M70.85,62.38a4.61,4.61,0,0,0-4.76-.31c-3.36,1.73-3.51,5.86-1.21,8.5.28.33.8,0,.7-.4-.54-2-.54-5.42,2.07-6,2.36-.54,3.11,2.7,4.95,3.47a1,1,0,0,0,1.32-1A7.18,7.18,0,0,0,70.85,62.38Z"/><path class="cls-2" d="M45.08,89.46a.49.49,0,0,0,.21.81c1.9.38,5.34-1.22,6.06,1.6.78,3-3.12,3.82-3.71,6.13a1.17,1.17,0,0,0,1.11,1.46c1.79,0,3.4-2,4.28-3.46a5.91,5.91,0,0,0,.57-5.41C52.25,87.65,47.27,87.16,45.08,89.46Z"/><path class="cls-2" d="M28,74.92c-2.62-1.77-9.18-3.12-9.69,1.59-.42,3.92,4.57,7.22,7.58,8.69a.4.4,0,0,0,.4-.69,13.66,13.66,0,0,1-4.89-5.58c-1.75-4.09,3.23-2.51,5.18-1.58A1.41,1.41,0,0,0,28,74.92Z"/><path class="cls-2" d="M20.42,109.6l-.24-.08a1.33,1.33,0,0,0-1.31.35,4.42,4.42,0,0,0-1,2.48,1.93,1.93,0,0,1-2.9,1.56c-3-1.38-1.92-5-3.18-7.33a.41.41,0,0,0-.71,0c-1,1.72-.71,4.54,0,6.34a5.93,5.93,0,0,0,3.71,3.67,4.78,4.78,0,0,0,4.74-1.32,4.64,4.64,0,0,0,1-2.19,19.65,19.65,0,0,0,.72-2.47A1.07,1.07,0,0,0,20.42,109.6Z"/><path class="cls-2" d="M39.39,130.94c-3.61,1.95-.88,6.34-.73,9.27a.42.42,0,0,0,.78.21c1.24-2,0-4,.39-6.09.32-1.51,1.86-1.58,3-.77s1.5,2.22,2.25,3.34a1.24,1.24,0,0,0,2.26-1C46.38,132.84,42.94,129,39.39,130.94Z"/><path class="cls-2" d="M73.83,148.58c-1.89-.37-4.22-.25-5.53-2.06-2.1-2.93,2.85-5.46,4.88-6.26.41-.16.41-.89-.11-.84-3.76.34-8.74,1.94-8.06,6.74a5.61,5.61,0,0,0,3.2,4.08c1.53.8,3.62,1.76,5.34,1.17a1.59,1.59,0,0,0,1.1-1.44l0-.27A1.16,1.16,0,0,0,73.83,148.58Z"/><path class="cls-2" d="M88.5,156.43c-.8.54-.33,2,.69,1.65a15.94,15.94,0,0,1,3.26-.84c1.41-.15,2.32.12,2.59,1.61a4.84,4.84,0,0,1-2,4.94,1.64,1.64,0,0,0-.81,1.42v.27a1.2,1.2,0,0,0,.61,1.05l.21.1a1.71,1.71,0,0,0,2-.26c2.43-2.47,3.86-5.78,2.5-9.21C96,153.32,91.23,154.58,88.5,156.43Z"/><path class="cls-2" d="M76.23,178.62A4.75,4.75,0,0,0,73,182.08c-.63,4,3.56,5.43,6.69,5.43a.42.42,0,0,0,.21-.78c-1.46-.77-4.74-2.16-4.15-4.31s4.69-1.49,6.17-2.62a1,1,0,0,0,0-1.73C80.39,177,77.79,178,76.23,178.62Z"/><path class="cls-2" d="M48.63,167.83v-.06l-.06-.09Z"/><path class="cls-2" d="M49.22,168.52l-.58-.75v.06l-.05-.15.06.09.12-.94.23-.23,1.46.39-.06-.1a1,1,0,0,0-1.55-.2l-.07.08a1.11,1.11,0,0,0,0,1.51,1.07,1.07,0,0,0,.23.2A.46.46,0,0,1,49.22,168.52Z"/><path class="cls-2" d="M52.25,174.93a13,13,0,0,1-5.13-3.73c-.59-.74-.9-1.32,0-1.94a6.14,6.14,0,0,1,1.92-.78,1.07,1.07,0,0,1-.23-.2,1.11,1.11,0,0,1,0-1.51l.07-.08a1,1,0,0,1,1.55.2l.06.1L49,166.6l-.23.23-.12.94.58.75a.46.46,0,0,0-.22,0,1.48,1.48,0,0,0,1.91-.18,1.39,1.39,0,0,0,.22-1.69c-1.81-2.65-7.11.28-7.42,2.95-.46,4,5.39,5.93,8.43,6.18C52.65,175.79,52.64,175.09,52.25,174.93Z"/><path class="cls-2" d="M14.31,175.48c-1-.7-2.13-.46-3.3-.62a4.62,4.62,0,0,1-3.45-1.78c-1.58-2.42,1.36-3.93,3.26-4.64a.53.53,0,0,0-.14-1,7.86,7.86,0,0,0-4.75,1.09,4.26,4.26,0,0,0-1.55,4.62,6.13,6.13,0,0,0,3.63,4c1.67.71,4.71,1.42,6.3.33A1.14,1.14,0,0,0,14.31,175.48Z"/><path class="cls-2" d="M42.22,190a1.59,1.59,0,0,0-1.82-.24l-.26.12a1.12,1.12,0,0,0-.51,1.24c.24,1,1,1.22,1.41,2.07.66,1.54-.53,2.95-1.93,3.47-2.78,1-5.88-.61-8.49-1.49a.42.42,0,0,0-.4.7c3,2.74,7.4,4.91,11.29,2.47C44.39,196.57,45,192.2,42.22,190Z"/><path class="cls-2" d="M78.19,85.2a6.4,6.4,0,0,0-5.29,4.48,5.49,5.49,0,0,0,2.51,5.76c1.89,1.3,5.37,2.06,7.46,1a1.48,1.48,0,0,0,0-2.54c-1.35-.74-7.92-.45-6.31-3.69,1.46-2.94,5.67-.36,7.52-2.28a.64.64,0,0,0,.17-.64C83.53,85.22,80,84.91,78.19,85.2Z"/><path class="cls-2" d="M99,102.76c-3.4,2.43-3.94,7.89-.73,10.7a.52.52,0,0,0,.86-.5c-.43-2.32-1.15-4.75.35-6.86,1.34-1.87,5.18-2.53,5.58.54a1.45,1.45,0,1,0,2.86-.39C107.29,102.08,102.27,100.42,99,102.76Z"/><path class="cls-2" d="M1.06,87.54a1.45,1.45,0,1,0,2,2.08c3-3,1.34-8-2.49-9.25-.19-.06-.39-.1-.58-.15v3C1.61,84.09,2.7,86,1.06,87.54Z"/><path class="cls-2" d="M91,124.72c-2.46-.36-5.45-1.3-7.11-3.28-1.11-1.33-.25-2.42,1.34-2.4,1.25,0,2.14.75,3.39.3a1.09,1.09,0,0,0,.63-1.58c-1-1.75-3.94-2.05-5.78-1.52a4.24,4.24,0,0,0-3.2,4c.14,4.68,7.13,5.71,10.59,5.45C91.36,125.69,91.58,124.81,91,124.72Z"/><path class="cls-2" d="M126.48,90.66l.32-.13c.07,0,.1-.14,0-.17l-.34-.35-.56,1.37.18-.09A1.53,1.53,0,0,0,126.48,90.66Z"/><path class="cls-2" d="M124.46,89.48c-1.23,1.07.68,2.66,1.64,1.81l-.18.09.56-1.37.34.35c.08,0,.05.15,0,.17l-.32.13a1.53,1.53,0,0,1-.38.63c1.16-.62,2.62-1.58,4-1.22s1.92,2,1.88,3.26a7.7,7.7,0,0,1-.43,2.08,7.86,7.86,0,0,1-.81,1.37,1.64,1.64,0,0,0,2.13,2.42c1.53-.87,2-3.08,2.19-4.7a7.17,7.17,0,0,0-1.18-5.27C131.3,85.76,127.21,87.09,124.46,89.48Z"/><path class="cls-2" d="M172.46,81.76c-1.14-.6-2.28-.29-3.5-.47-.69-.11-1.94-.33-2.23-1.07-.35-.9.9-1.72,1.57-2a7.78,7.78,0,0,1,3.83-.31c.39,0,.57-.6.21-.75-1.76-.76-3.58-1.69-5.54-1.16a4.37,4.37,0,0,0-3.18,4.11,4.32,4.32,0,0,0,3.16,3.83c1.7.64,4.52,1.09,5.91-.35A1.18,1.18,0,0,0,172.46,81.76Z"/><path class="cls-2" d="M192.73,38.13c-4.11,1.24-3.4,5.85-2.25,8.95.13.35.75.34.71-.09-.19-2-.45-6,2.28-6.47s3.64,3.06,4.59,4.83a1.36,1.36,0,0,0,2.48-1C199.62,41.07,196.62,37,192.73,38.13Z"/><path class="cls-2" d="M202.9,11.91c-1.05-2.2,3.09-4,4.44-4.48.5-.19.47-1-.13-1-1.87.06-3.91.06-5.47,1.24a4.91,4.91,0,0,0-1.93,4.69,4.39,4.39,0,0,0,3.3,3.3c1.39.37,4,.68,4.79-.86a1.3,1.3,0,0,0-.19-1.51C206.53,12,203.73,13.66,202.9,11.91Z"/><path class="cls-2" d="M231,3.8c.37,0,.59-.57.2-.75a4.55,4.55,0,0,1-2.52-3h-2.36A4.67,4.67,0,0,0,231,3.8Z"/><path class="cls-2" d="M265,27.49c-2.56,0-5.93.6-6.73,3.47s2.18,5.51,4.84,5.89c.26,0,.6-.24.4-.51-.86-1.14-3.08-2.9-2.71-4.45s2.88-1.62,4.2-1.62A1.39,1.39,0,0,0,265,27.49Z"/><path class="cls-2" d="M235.8,24.58a1.17,1.17,0,0,0-1.76,1c.11,1.19.73,2.21.65,3.43a5.54,5.54,0,0,1-2.52,4.17c-3.13,1.91-7.22-.2-9.55-2.44-.33-.32-.75.08-.59.45,1.88,4.39,7.42,6.65,11.7,4.06C236.75,33.43,239.69,27,235.8,24.58Z"/><path class="cls-2" d="M215.36,50.53c-2.51,3.65,1.06,8.4,3.64,10.89.27.26.78-.09.54-.42A17.06,17.06,0,0,1,217,55.62c-.59-2.23.28-6,2.85-3.33a.87.87,0,0,0,1.44-.38C222.06,48.43,216.93,48.26,215.36,50.53Z"/><path class="cls-2" d="M200.79,77c-1.15,3.93,3.44,7.19,6.34,8.64a.43.43,0,0,0,.44-.74c-1.91-1.43-3.84-3.3-4.52-5.66-.15-.52-.37-1.5.1-2a3.93,3.93,0,0,1,1.93-.43c1.22,0,2.15.63,3.28.92.69.17,1.52-.66,1-1.33C207.69,74.19,201.74,73.73,200.79,77Z"/><path class="cls-2" d="M201.23,112.76c-.2,1.13.06,2.36-.9,3.23-1.52,1.36-3.94.47-5.43-.45-2.69-1.65-3.45-4.31-4.5-7.06a.53.53,0,0,0-1,0c-1.27,4.62,3,9.77,7.39,10.76a6.07,6.07,0,0,0,6-1.71c1.24-1.43,2-3.87.4-5.28A1.16,1.16,0,0,0,201.23,112.76Z"/><path class="cls-2" d="M230.31,97.64a1.19,1.19,0,0,0-.83-2l-1.08.05c.14,1,.27,2,.4,3a1.91,1.91,0,0,0,.69-.36Z"/><path class="cls-2" d="M229.57,87.18a20,20,0,0,0-3.38,1.51A13.22,13.22,0,0,0,222,91.25a.49.49,0,0,0,.35.83,12.18,12.18,0,0,0,4.35-1.2c.63-.23,3.42-1.83,4.19-1.42,1.11.58-.18,3-.51,3.73a5,5,0,0,1-2.74,2.7c-1.64.76-.4,3.2,1.18,2.78-.13-1-.26-2-.4-3l1.08-.05a1.19,1.19,0,0,1,.83,2l-.82.67a1.91,1.91,0,0,1-.69.36v0a7.4,7.4,0,0,0,4.05-4.25c.7-1.61,1.83-4.29,1-6S231.09,86.75,229.57,87.18Z"/><path class="cls-2" d="M253.84,61.87a4.46,4.46,0,0,0-4.26-1.13c-4,1.32-1.87,6.95-1.15,9.66a.35.35,0,0,0,.68-.09c.16-1.47.31-2.93.39-4.4.06-1-.09-2.72,1.26-2.69s1.94,1.47,2.45,2.38.86,1.77,2,2.19a1.08,1.08,0,0,0,1.36-1C256.61,65.13,255,62.94,253.84,61.87Z"/><path class="cls-2" d="M292.62,16.74a3.19,3.19,0,0,1-2.67-1c-.58-.45-1.66-1.23-1.84-2-.23-1,.79-1.64,1.61-1.85,1-.26,1.88,0,2.66-.8a1,1,0,0,0,.17-1.24c-1.2-1.71-4.11-1-5.58,0a4.48,4.48,0,0,0-1.85,4.67c.76,2.76,6.13,6.24,8.18,3A.61.61,0,0,0,292.62,16.74Z"/><path class="cls-2" d="M271.55,8.87a.55.55,0,0,0,.42-1c-2-1.2-3.12-4.47-1.43-6.38A4,4,0,0,1,273.48.29c1.11,0,1.87.73,2.91.89.69.1,1.46-.41,1.26-1.18h-9.07a1.07,1.07,0,0,1-.14.16A5.64,5.64,0,0,0,271.55,8.87Z"/><path class="cls-2" d="M313.09,26.88c-2.61-1.53-2.32,3-2.63,4.23-.46,1.82-1.57,3.09-3.65,2.71s-3.73-2.37-4.8-4c-.19-.28-.66-.11-.56.23,1,3.46,3.38,7.17,7.62,6.3,3.8-.78,4.64-4.85,4.79-8.16A1.53,1.53,0,0,0,313.09,26.88Z"/><path class="cls-2" d="M325.32,2.69c.52.31,1.13-.43.66-.85A5.82,5.82,0,0,1,324.63,0h-1.85A6.63,6.63,0,0,0,325.32,2.69Z"/><path class="cls-2" d="M45.36,353.46c.81-.44,1.74-.36,2.59-.72a1.15,1.15,0,0,0,.23-1.79c-2.7-2.86-6.8,1.56-7.37,4.22a2.51,2.51,0,0,0,0,.27h3.09A3.38,3.38,0,0,1,45.36,353.46Z"/><path class="cls-2" d="M157.93,354.14a4,4,0,0,0-1.14,1.3h9.06C164.48,353,160.09,352.6,157.93,354.14Z"/><path class="cls-2" d="M93.65,353.8c-1.14-2.69-4.6-3.38-7.09-2.21a8.05,8.05,0,0,0-3.45,3.85h3.17l.2-.22c1.33-1.29,3.41-1.69,4.59,0a1.26,1.26,0,0,0,.22.24h1.9A1.4,1.4,0,0,0,93.65,353.8Z"/><path class="cls-2" d="M228.72,354.14c.54-2,2.26-1.75,3.5-2.88a1.12,1.12,0,0,0-.22-1.75c-2.54-1.5-5.61,2.18-5.79,4.51a4.79,4.79,0,0,0,.11,1.42h2.36A2.87,2.87,0,0,1,228.72,354.14Z"/><path class="cls-2" d="M273.09,353.19a6.22,6.22,0,0,0-4.51,2.25h9.07a.2.2,0,0,0,0-.07C277.06,353.61,274.76,353.09,273.09,353.19Z"/><path class="cls-2" d="M324.86,351.33a3.14,3.14,0,0,1,2.3-1.06c.91,0,1.46.57,2.39.4a1,1,0,0,0,.67-1.18c-.3-1.45-2.2-1.67-3.44-1.52a5.43,5.43,0,0,0-3.74,2.2,5,5,0,0,0-.26,5.27h1.85A3.68,3.68,0,0,1,324.86,351.33Z"/><path class="cls-2" d="M339.63,23.83c-2.27.09-3.82,2.13-4.56,4.08-.88,2.32-1,5.1.91,6.94,1.45,1.4,4.56,2.62,6.51,1.86a1.14,1.14,0,0,0,.27-2.05c-1.05-.73-2.38-.63-3.54-1.1-2.07-.83-2.27-2.69-1.55-4.63s1.85-3,3.79-1.93a12.76,12.76,0,0,0,3,1.34c.32.08.62-.36.34-.58C343.05,26.34,342.39,23.72,339.63,23.83Z"/><path class="cls-2" d="M336.73,49.19c-3.4-1-5.77,3.15-5,6a.48.48,0,0,0,.83.13c.82-1.13,2.09-5.6,4.07-3.33,1.46,1.68.75,4.46.43,6.38a1.17,1.17,0,0,0,2.22.65C340.63,56.23,340.27,50.27,336.73,49.19Z"/><path class="cls-2" d="M314.45,64.62c-1.18,1-.63,2.32-.12,3.53a20,20,0,0,0,3.09,5c.31.38.95-.11.67-.52-.82-1.23-3.69-5.65-2.29-6.77.95-.75,2.84,0,3.76.36a15.45,15.45,0,0,0,3.05,1.51c.62.13,1.35-.56.91-1.18C321.92,64.28,316.81,62.62,314.45,64.62Z"/><path class="cls-2" d="M293.09,58.33A22.73,22.73,0,0,0,292,56.05c-.75-1.14-2.11-2.27-3.58-1.94-4.06.93-.54,6.16-.63,8.28,0,.59.83.55.89,0a8.18,8.18,0,0,0-.64-3.54,4.47,4.47,0,0,1-.29-1.81c.16-1.43,1.51-1.65,2.42-.59,1.25,1.45,1.16,4.71,3.45,5.11a.81.81,0,0,0,.9-1.17C294.08,59.66,293.48,59.1,293.09,58.33Z"/><path class="cls-2" d="M309.85,88.08c-2.91.35-6.88,1-9.29,2.75a.52.52,0,0,0,.26,1,20.45,20.45,0,0,0,4.56-.78c1.67-.34,4.26-1.2,5.91-.75,2.85.77.12,4.24-1,5.28s-2.45,1.36-3.34,2.55a.91.91,0,0,0,.54,1.33c3.81.64,9-6.06,7.1-9.64C313.65,88.06,311.59,87.86,309.85,88.08Z"/><path class="cls-2" d="M327.08,114.93c-1.66.88-3.3,3.33-5.35,1.55s.73-4.06-.44-5.83a.44.44,0,0,0-.57-.15c-.83.37-.92,1-1.25,1.81a9.07,9.07,0,0,0-.77,2.78,4.42,4.42,0,0,0,1.95,3.82c2.51,1.74,7.59.73,8.1-2.69A1.16,1.16,0,0,0,327.08,114.93Z"/><path class="cls-2" d="M340.45,96.8a4.29,4.29,0,0,0-2.78,7c.29.36.94.11.77-.38-.84-2.28,1.3-5.37,3.83-3.86,1.92,1.14,1.66,3.6,3.15,5a1.07,1.07,0,0,0,1.75-.6c.36-1.68-1-3.92-2.05-5.18A5.23,5.23,0,0,0,340.45,96.8Z"/><path class="cls-2" d="M331.72,136.32a5,5,0,0,0-.85,7.19c.37.46,1.09-.13.8-.62-1-1.81-.23-4.76,2-5.22a3.25,3.25,0,0,1,2.78.86,6.9,6.9,0,0,1,.81,1.28c.1.14.91,1,.57.49.38.54,1.5.63,1.62-.21l.06-.28a1.35,1.35,0,0,0,0-1.32C337.94,135.88,334.43,134.37,331.72,136.32Z"/><path class="cls-2" d="M347.9,155.57c-.5-1.4.08-3.59,1.87-3.21.4.08.74.38,1.13.07l.08-.06a.68.68,0,0,0,.19-.69c-.57-1.49-2.48-1.77-3.82-1.13-1.84.87-2.27,3.27-2,5.1a4.19,4.19,0,0,0,3.59,3.8c1.84.38,4.69.82,6.54-.08V157C353.28,156.43,348.88,158.26,347.9,155.57Z"/><path class="cls-2" d="M312.3,168.31c-1.41-1.29-1-3.28.07-4.65a6.87,6.87,0,0,1,4.33-2.35c.54-.1.39-.9-.12-.92-4.37-.19-9.51,2.76-7.81,7.87a6.43,6.43,0,0,0,4,3.78c1.82.7,4.56,1.44,6.2.16a1.22,1.22,0,0,0,0-1.69C317.19,168.87,314.2,170.05,312.3,168.31Z"/><path class="cls-2" d="M301.59,130.79a5.92,5.92,0,0,0-5.48-.66,4.38,4.38,0,0,0-2.65,4.47c.13,2.22,1.59,3.78,3.09,5.25a.6.6,0,0,0,.94-.72c-1.09-1.78-3.56-6.56.34-6.88a4.26,4.26,0,0,1,3.38,1.59c.76.81,1.15,1.81,2.29,2.07a.92.92,0,0,0,1.13-.64C304.93,133.42,303,131.73,301.59,130.79Z"/><path class="cls-2" d="M283.13,102.6a4.54,4.54,0,0,0-3.29,3.89c-.28,2.32.9,4.41,2.14,6.27.35.53,1.35.21,1.09-.46-.82-2.06-2.4-6.4.71-7.37a3.35,3.35,0,0,1,3.49,1.15c.93,1.08,1,2.34,1.37,3.63a1.15,1.15,0,0,0,2.24-.3C291.4,105.33,287.08,101.46,283.13,102.6Z"/><path class="cls-2" d="M259.53,85.61a.91.91,0,0,0-.78,1.36,1.6,1.6,0,0,0,.22.27c.23-.54.45-1.09.68-1.63Z"/><path class="cls-2" d="M260.1,85.06c-.89-.32-1.07.16-1.84.41a15.3,15.3,0,0,0-2.55.68,6.59,6.59,0,0,0-3.63,5.1A6.37,6.37,0,0,0,254,96.68c1.2,1,3,1.47,4,0a.45.45,0,0,0-.27-.65,3.9,3.9,0,0,1-2.57-5.9,4.33,4.33,0,0,1,3.11-2,3.7,3.7,0,0,0,1.05-.21c.87-.45.46,0-.34-.64v0a1.6,1.6,0,0,1-.22-.27.91.91,0,0,1,.78-1.36h.12c-.23.54-.45,1.09-.68,1.63a1.29,1.29,0,0,0,.8.32C261.27,87.72,261.37,85.51,260.1,85.06Z"/><path class="cls-2" d="M269.62,122a9.12,9.12,0,0,1-3.57,0c-.89-.27-2.17-1.13-1.89-2.24.43-1.67,3.18-1.57,4.41-2.13a.85.85,0,0,0,0-1.44c-2.74-1.62-7.18.33-7.5,3.54a4.94,4.94,0,0,0,2.36,4.5c1.83,1.22,4.1,1.16,6.19.91a1.58,1.58,0,0,0,1.55-1.56,1.92,1.92,0,0,0-.05-.41A1.57,1.57,0,0,0,269.62,122Z"/><path class="cls-2" d="M279.26,154.9c-3.73-1.26-10.87.8-12.28,4.75-.2.57.53.83.91.53a14.31,14.31,0,0,1,7.36-2.88c1-.13,2.75-.43,3.53.25a2.05,2.05,0,0,1-.1,2.86,8.37,8.37,0,0,1-2.95,1.59,1.48,1.48,0,1,0,1.14,2.72c2.42-1,5-2.5,5.31-5.38A4.12,4.12,0,0,0,279.26,154.9Z"/><path class="cls-2" d="M253,138A7.23,7.23,0,0,0,249,142.6a6.33,6.33,0,0,0,6.49,7.75.52.52,0,0,0,.14-1c-2.6-.65-4.84-3.64-3.82-6.36a4.5,4.5,0,0,1,2.75-2.58c1-.36,2,0,2.94-.66a1,1,0,0,0,.35-1.35C256.76,136.83,254.55,137.29,253,138Z"/><path class="cls-2" d="M215.71,137.13a.22.22,0,0,0,0-.08.21.21,0,0,1,0,.07Z"/><path class="cls-2" d="M215.73,137a.11.11,0,0,1,0,.05A.11.11,0,0,0,215.73,137Z"/><path class="cls-2" d="M217.36,126.5c-3.68,1.81-4.71,7.06-3.25,10.63a.83.83,0,0,0,1.58,0l-1.5-.63.36-.71c.07-.23.45-.33.56-.08l.39.62a.77.77,0,0,1,.23.68c.46-2.09,0-4.36,1.09-6.31a3.36,3.36,0,0,1,2.49-1.87c1.54-.12,1.84,1,2.18,2.17a1.27,1.27,0,0,0,2.43,0C225.4,127.32,220.11,125.14,217.36,126.5Z"/><path class="cls-2" d="M215.11,135.7c-.11-.25-.49-.15-.56.08l-.36.71,1.5.63a.21.21,0,0,0,0-.07.11.11,0,0,0,0-.05.77.77,0,0,0-.23-.68Z"/><path class="cls-2" d="M163.66,128.86a5.5,5.5,0,0,0-4.91,1.37,6.92,6.92,0,0,0-2.1,5.14c0,1.52.35,4.22,2.17,4.55a.07.07,0,0,0,.09,0c.62-.81.39-1.61.32-2.56a6.48,6.48,0,0,1,.71-3.87,2.94,2.94,0,0,1,2.9-1.62c.93.17,1.45,1,2.37,1.19a1.18,1.18,0,0,0,1.43-.82C167,130.35,165.32,129.24,163.66,128.86Z"/><path class="cls-2" d="M149.23,108.91c-2.54-.44-7.3-1.32-8.71,1.69s1.51,7.13,3.62,9.07c.39.36,1.06-.1.76-.59-1-1.68-2.28-4.24-2.28-6.27,0-1.52.78-1.82,2.17-1.88a17.82,17.82,0,0,1,3.79.34C150.12,111.54,150.78,109.18,149.23,108.91Z"/><path class="cls-2" d="M114.22,129.38a4,4,0,0,0,3,6.32.29.29,0,0,0,.25-.44c-1-1.39-2.83-2.63-1.56-4.51a2.36,2.36,0,0,1,2.25-1c1,.11,1.66.81,2.56,1.13a1,1,0,0,0,1.18-1.18C120.88,126.51,115.79,127,114.22,129.38Z"/><path class="cls-2" d="M2.58,147.81a.29.29,0,0,0,.25-.44c-1-1.39-2.84-2.63-1.57-4.52a2.36,2.36,0,0,1,2.26-1c1,.1,1.66.81,2.55,1.13a1,1,0,0,0,1.18-1.18C6.31,138.86,1.91,139,0,141v5.73A3.91,3.91,0,0,0,2.58,147.81Z"/><path class="cls-2" d="M132.13,155.2a4.18,4.18,0,0,0-3.27,2.38c-1.5,2.91.24,6.81,3.18,8,.26.11.44-.19.41-.41-.29-1.94-2-3.69-1.42-5.73.3-1.14,1-1.73,2.21-1.37,1,.29,1.46.88,2.53,1,.9.09,1.23-1,.94-1.63C136,155.91,133.77,155.05,132.13,155.2Z"/><path class="cls-2" d="M171.28,156.6c-1-.58-.42-1.92-.06-2.82.55-1.4,1.67-2.82,3.32-2.84a.41.41,0,0,0,.2-.75c-3.64-2.25-7.26,2.62-7.18,6a4,4,0,0,0,3.26,3.66c1.52.44,4.7,1.3,5.84-.1a1.24,1.24,0,0,0,.18-1.42C175.87,156.23,172.94,157.57,171.28,156.6Z"/><path class="cls-2" d="M148.5,193.75a1.4,1.4,0,0,0-1.71,1c-.33,1.06.25,1.94.18,3a3.52,3.52,0,0,1-1.27,2.61c-1.74,1.25-4.07-2.77-4.95-3.91-.59-.76-2-.12-1.92.8.24,3.57,4.64,8.55,8.42,6.23C150,201.79,152.43,195.38,148.5,193.75Z"/><path class="cls-2" d="M167.9,184.84c-.16,1.71,1.27,3.61,2.45,4.7a7.43,7.43,0,0,0,5,2c.3,0,.34-.36.14-.51a13,13,0,0,1-4.09-5.29c-.2-.54-.37-.49.22-.64a8.34,8.34,0,0,1,1.5-.43c1.11-.09,2.09.58,3.18.44a1.34,1.34,0,0,0,1.13-2C175.91,179.71,168.25,181.22,167.9,184.84Z"/><path class="cls-2" d="M199.2,165.3c-1.75.22-4.29.64-4.55,2.81-.21,1.82,1.36,3.92,2.54,5.14a11.4,11.4,0,0,0,5.27,3,.54.54,0,0,0,.42-1,11.59,11.59,0,0,1-3-2.48c-.67-.75-1.94-2.35-2.06-3.41-.09-.83,0-.68.75-.94a8.35,8.35,0,0,1,2.73-.26c1.39,0,2.68.56,4,.24a1.18,1.18,0,0,0,.52-2C204.3,164.89,201.24,165.05,199.2,165.3Z"/><path class="cls-2" d="M228,167.38a5,5,0,0,0,.09,5.25,6.66,6.66,0,0,0,4.67,2.9c.37.08.72-.4.39-.67-1.48-1.28-4.47-4.27-2.4-6.24s4.6.16,6.84-.19a1,1,0,0,0,.61-1.49C236.14,163.72,230,164.25,228,167.38Z"/><path class="cls-2" d="M262.26,184.05c-1.21-.87-4.58-1-5-2.73-.29-1.31,2.5-1.8,3.37-2a.31.31,0,0,0,.08-.56c-2.35-1.34-5.94-1.45-6.67,1.83-.87,3.86,4.13,5.65,6.93,6.41A1.62,1.62,0,0,0,262.26,184.05Z"/><path class="cls-2" d="M283.43,193.93c0,.1.08.08.25,0C283.48,193.65,283.4,193.63,283.43,193.93Z"/><path class="cls-2" d="M285,190.17c-1.5.47-4.11,1.35-4.43,3.17s1.61,3,2.89,3.85a22.11,22.11,0,0,0,5.94,2.74.56.56,0,0,0,.43-1,20.8,20.8,0,0,1-3.76-2.53c-.53-.46-1-.95-1.53-1.46-.24-.26-.48-.53-.71-.8l-.11-.17c-.17,0-.28.07-.25,0,0-.3.05-.28.25,0,.4-.14,1.17-.56,1.32-.62a10.07,10.07,0,0,1,2.07-.56c1.37-.22,2.5.11,3.64-.78a1.19,1.19,0,0,0,0-1.65C289.39,188.93,286.61,189.66,285,190.17Z"/><path class="cls-2" d="M256.44,212.31a5.1,5.1,0,0,0-2.65-.35,4.82,4.82,0,0,0-3.88,3.19c-1.54,4.38,3,6,5.79,8,.4.28.75-.31.48-.64-1.21-1.47-3.63-2.92-4-4.9-.56-2.94,2.7-3.28,4.57-2.19a1,1,0,0,0,1.31-1.31C257.55,213.15,257.48,212.75,256.44,212.31Z"/><path class="cls-2" d="M224.51,192.46l-.2-.1a.89.89,0,0,0-.92,0c-1.43,1-.44,3.23-1.15,4.7-1.34,2.78-4.54-.25-5.88-1.47a.47.47,0,0,0-.74.57c1.22,2.37,3.63,5,6.57,3.88,2.59-1,3-4.08,2.94-6.49A1.24,1.24,0,0,0,224.51,192.46Z"/><path class="cls-2" d="M207.44,223.82l-1.57,2.73a3.92,3.92,0,0,0,2.32-.85.66.66,0,0,0,0-.14A5.35,5.35,0,0,0,207.44,223.82Z"/><path class="cls-2" d="M205.86,213.94c-2.42-.63-4.45,1.1-6.8,1.16a1.29,1.29,0,0,0-.34,2.53,5.15,5.15,0,0,0,3.06.11c1.11-.23,2.64-1.08,3.68-.3.66.5,1.75,5.42.41,5.48a1.83,1.83,0,0,0-.92,3.38,5.08,5.08,0,0,0,1.66.83,1.27,1.27,0,0,0,1.58-1.43,3.92,3.92,0,0,1-2.32.85l1.57-2.73a5.35,5.35,0,0,1,.74,1.74.66.66,0,0,1,0,.14c2.09-1.7,2.11-5.56,1.25-8A5.42,5.42,0,0,0,205.86,213.94Z"/><path class="cls-2" d="M237.21,234.46c-1.41-1.26-3.19-2.38-5.15-1.9-4.31,1.05-4.86,6.21-2.76,9.39.1.15.4.18.44,0,.33-2,.32-6.44,3.1-6.54,3.1-.12,4.14,4.35,5.93,5.95a1.17,1.17,0,0,0,2-.77C240.93,238.29,238.79,235.87,237.21,234.46Z"/><path class="cls-2" d="M206.11,247.3a5.09,5.09,0,0,0-3.91,3c-1.46,3.26,1.39,7,4.93,6a.35.35,0,0,0,0-.67c-1.94-.5-3.59-2.78-2.23-4.65,1.66-2.29,3.78.39,5.71-.37a1,1,0,0,0,.67-1.18C210.64,247.57,207.83,247.07,206.11,247.3Z"/><path class="cls-2" d="M1.84,300.46a1,1,0,0,0,.67-1.18A3.39,3.39,0,0,0,0,297.38v3A2.9,2.9,0,0,0,1.84,300.46Z"/><path class="cls-2" d="M231.43,261a1.51,1.51,0,0,0-1.77.23,1.47,1.47,0,0,0,0,2.06c.57.66,1.06.76,1.22,1.74a5.65,5.65,0,0,1-.23,2.08c-.17.75-.16,1.2-1,1.4a6.5,6.5,0,0,1-2.23-.26,11.48,11.48,0,0,0-3.53-.4.25.25,0,0,0-.15.37c1.33,2.12,6.56,4,8.55,1.85,1.07-1.13,1.41-3.27,1.44-4.77A4.57,4.57,0,0,0,231.43,261Z"/><path class="cls-2" d="M254.19,299.5a1.32,1.32,0,0,0-.13.44H256a2.72,2.72,0,0,1-.48-1A.91.91,0,0,0,254.19,299.5Z"/><path class="cls-2" d="M256.1,299.75a1.07,1.07,0,0,0-.6-.84,2.72,2.72,0,0,0,.48,1h-1.92a1.32,1.32,0,0,1,.13-.44.91.91,0,0,1,1.31-.59,5.26,5.26,0,0,0-.45-1.17,3.87,3.87,0,0,0-1.55-1.37,4.84,4.84,0,0,0-4.28.1c-3.07,1.6-3,5.65-.88,8a.36.36,0,0,0,.6-.35c-.64-1.81-.78-5.09,1.59-5.72a2.26,2.26,0,0,1,2.15.44c.64.67.66,1.95,1.17,2.75a1.36,1.36,0,0,0,2.34-1.37A.6.6,0,0,1,256.1,299.75Z"/><path class="cls-2" d="M297.29,224.7c-.5-3.07,3.08-3.94,5.33-4.5a.39.39,0,0,0,.17-.63c-2.85-3.59-8.22.21-8.67,3.89a6.58,6.58,0,0,0,2,5.56c1.83,1.73,4.57,1.82,6.94,1.82a1.19,1.19,0,0,0,.83-2C301.94,226.69,297.89,228.35,297.29,224.7Z"/><path class="cls-2" d="M327.31,228.9c.13,0,.28-.11.19-.25s-.26-.48-.4-.72l-1.21.71a.73.73,0,0,0,.09.08.64.64,0,0,0,.42.13Z"/><path class="cls-2" d="M331.66,220.36l-.25.11a1.19,1.19,0,0,0-.87,1.13c.1.92.54,1.12,1,1.85a4.42,4.42,0,0,1,.39,2.84c-.52,2.82-3.75,1.08-5.52,1.11a.74.74,0,0,0-.42,1.32.73.73,0,0,1-.09-.08l1.21-.71c.14.24.27.48.4.72s-.06.27-.19.25l-.91-.05a.64.64,0,0,1-.42-.13c1.94,2,6,2.36,7.85.09,1.7-2.1,1.4-6.33-.7-8.06A1.54,1.54,0,0,0,331.66,220.36Z"/><path class="cls-2" d="M333.17,191.51c.18,2.31,1,4.43-.75,6.42s-4.86,1.66-5.56-1a.29.29,0,0,0-.57.08,4.34,4.34,0,0,0,6.12,3.73c3.62-1.46,5-6.55,3.22-9.89A1.33,1.33,0,0,0,333.17,191.51Z"/><path class="cls-2" d="M350,188.07c-1.68-1.91-.11-2.63,1.69-3.14a4.47,4.47,0,0,1,3.74.47v-2.9a5.65,5.65,0,0,0-3.16-.39c-1.83.25-4.71,1.15-5.57,2.95-2,4.14,5.07,7.42,8.73,8.61v-1.41A18.78,18.78,0,0,1,350,188.07Z"/><path class="cls-2" d="M349,229.6a.39.39,0,0,0-.65.38c.58,3,3.3,5.78,6.59,5a4.81,4.81,0,0,0,.53-.2v-3.6C353.92,234.4,350.67,231.06,349,229.6Z"/><path class="cls-2" d="M348.7,264.73c-2.2-.29-4.89-.73-6.94.39a5.87,5.87,0,0,0-3.14,4.57c-.3,4.47,4.51,5.82,8.06,6,2.1.11,2.1-3.17,0-3.28-1.77-.1-5.39-.42-4.84-3,.62-2.9,4.58-3.55,7-3.88C349.3,265.45,349.1,264.78,348.7,264.73Z"/><path class="cls-2" d="M324.16,277.54c-3.51,1-.67,6.82.38,8.67.27.47,1.12.15.91-.39a15.44,15.44,0,0,1-.94-3.48c-.08-.6-.54-4,1.07-2.44,1.42,1.36,2,4.12,3.85,5a.82.82,0,0,0,1.21-.7c-.11-1.71-1.9-3.5-2.91-4.85C326.89,278.18,325.68,277.12,324.16,277.54Z"/><path class="cls-2" d="M306.88,262.25a.92.92,0,0,0-1.09.14c-1,.77-.57,2-.57,3.14,0,.67,0,1.34-.08,2a5.3,5.3,0,0,1-.07.93s0,0,0,.11,0-.07,0-.11-.35,0-.54,0c-2.41-.54-3.47-2.49-4.74-4.34a.31.31,0,0,0-.56.07c-.72,3.08,2.62,6.18,5.43,6.66,2,.34,2.74-1,3-2.8a27.54,27.54,0,0,0,.2-3.51C307.8,263.55,307.82,262.78,306.88,262.25Z"/><path class="cls-2" d="M305.07,268.47s0,.09,0,.11S305.09,268.49,305.07,268.47Z"/><path class="cls-2" d="M284.94,248.93c-.91,1.19-.1,2.75.57,3.85a7.72,7.72,0,0,0,3.76,3.24c.34.13.52-.34.33-.56-.7-.79-3.91-4.45-2.72-5.38.65-.52,2.33-.23,3-.05,1,.26,1.84,1,2.86,1.23a.87.87,0,0,0,1-1.26C292.58,247.56,286.65,246.68,284.94,248.93Z"/><path class="cls-2" d="M253.59,266.22c-.88,2.21.66,4.1,2.54,5.1s5.12,2.42,6.71.64a1.46,1.46,0,0,0,.22-1.72c-.82-1.19-1.74-1.12-3-1.42a9,9,0,0,1-2-.72c-.71-.35-.91-.35-.73-1,.28-1,1.9-2.28,2.7-2.84a9,9,0,0,1,3.14-1.47.45.45,0,0,0,.2-.76C260.11,259,254.91,262.93,253.59,266.22Z"/><path class="cls-2" d="M219.89,293.9a15.26,15.26,0,0,0-2.41-.84,4.92,4.92,0,0,1-2-1.89c-.8-1.34-1-5.4,1.64-4.78a.43.43,0,0,0,.47-.62,2.62,2.62,0,0,0-3.82-.88c-1.71,1.07-2.26,3.36-2,5.25a7.88,7.88,0,0,0,2.7,4.89c1.39,1.18,3.75,2.35,5.48,1.31A1.43,1.43,0,0,0,219.89,293.9Z"/><path class="cls-2" d="M188,271c-4.12,3.26-1.92,10,.86,13.24.36.43,1.06-.12.76-.59-1.56-2.43-3-7.71-.73-10.26,2.95-3.23,6.71,4,8.5,5.39a.93.93,0,0,0,1.53-.89C198.43,274.2,191.8,268,188,271Z"/><path class="cls-2" d="M175.16,226.34a4,4,0,0,0-2.19,3.17c-.25,1.88.71,3.32,1.78,4.78a.32.32,0,0,0,.58-.25c-.23-1.33-.87-4.82,1.07-5.33s2.82,2.28,3.82,3.29a1.31,1.31,0,0,0,2.16-1.26C181.7,227.87,178.15,224.87,175.16,226.34Z"/><path class="cls-2" d="M153,218.88c-1.52-.91-2.85,1.09-1.8,2.33s1.62,3.39,0,4.67a3.68,3.68,0,0,1-2.58.63c-.92-.09-1.79-.77-2.7-.53a.73.73,0,0,0-.52.67c-.12,1.61,2.34,2.41,3.57,2.56a5.88,5.88,0,0,0,4.61-1.45C156,225.52,156,220.66,153,218.88Z"/><path class="cls-2" d="M124.06,219.83a6,6,0,0,0-4.79,3.42,5.11,5.11,0,0,0,1,5.72c1.82,1.9,4,1.92,6.49,2.07a.18.18,0,0,0,.09-.34c-1.93-1-6.52-3.64-4.85-6.39a3.55,3.55,0,0,1,3.21-1.52c1.38.07,2.38,1,3.76.61a1.09,1.09,0,0,0,.75-1.33C129.05,220,126,219.59,124.06,219.83Z"/><path class="cls-2" d="M101,194.88l-.18,0C101,195.05,101,195.05,101,194.88Z"/><path class="cls-2" d="M107.67,195.31c-1.19-.69-2.43-.25-3.73-.21a14.56,14.56,0,0,1-2.09-.08,7.62,7.62,0,0,1-.81-.14c0,.17-.07.17-.18,0l.18,0v0a5.36,5.36,0,0,1,1.84-2.73c.26-.27.87-.74.67-1.19-.54-1.19-2.71,0-3.36.46A4.94,4.94,0,0,0,98,195.59c.23,2,2.17,2.44,3.88,2.64s4.85.58,6.07-1A1.25,1.25,0,0,0,107.67,195.31Z"/><path class="cls-2" d="M78.86,219.1c-1.8,1.49-1.85,5.12-4.9,5.14-1.37,0-2.39-1.14-3.11-2.17a7.87,7.87,0,0,1-1.09-2.26c-.06-.24-.12-.48-.19-.72a.82.82,0,0,0-.11-.66.16.16,0,0,1-.07.07l-.15.08a.31.31,0,0,1-.46-.27c.33-.07.55,0,.68.12a.37.37,0,0,0,.13-.28.72.72,0,0,0-.31-.69.67.67,0,0,0-.77-.1c-1.56.86-.79,3.51-.32,4.82a7.31,7.31,0,0,0,4.12,4.65c4,1.41,9.3-3,8.52-7.21C80.66,218.67,79.48,218.59,78.86,219.1Z"/><path class="cls-2" d="M68.78,218.31a.31.31,0,0,0,.46.27l.15-.08a.16.16,0,0,0,.07-.07C69.33,218.28,69.11,218.24,68.78,218.31Z"/><path class="cls-2" d="M57.5,233.45c-1.57.16-3.8.39-4.17-1.7a2.26,2.26,0,0,1,.59-1.95c.62-.65,1.56-.6,2.22-1.18a.67.67,0,0,0,.1-.78c-.74-1.61-3.27-1.05-4.39-.22A5,5,0,0,0,50,232c.29,3.86,4.9,6.19,8.3,4.5C59.76,235.83,59.13,233.28,57.5,233.45Z"/><path class="cls-2" d="M53.72,258.43a1.22,1.22,0,0,0-1.78.73c-.28,1.88,1.78,4.36-.11,5.83s-4.86.11-6.7-.74c-.54-.25-1.23.46-.69.9,2.62,2.09,6,4.22,9.23,2.11C56.45,265.47,56.51,260.23,53.72,258.43Z"/><path class="cls-2" d="M33.7,247.92c-3.3-2.37-9.16,0-9.74,4.05-.68,4.7,4.26,6.77,7.92,7.77.52.14.89-.65.38-.89-2.4-1.15-5.89-2.79-5.87-5.94,0-3.86,4.77-2.67,7.07-3.11C34.41,249.62,34.35,248.39,33.7,247.92Z"/><path class="cls-2" d="M20.77,216.25a11.91,11.91,0,0,0-2.4,1.83,10.76,10.76,0,0,0-2.24,2,.52.52,0,0,0,.31.75c2.41.93,4.33-2.83,6.64-2.3,1.72.4,1.57,2.66,1,3.86-.67,1.35-2,2.1-2.47,3.53a1.37,1.37,0,0,0,1.67,1.68c2-.6,3.57-3.11,4.12-5A5.83,5.83,0,0,0,26,216.79,4.47,4.47,0,0,0,20.77,216.25Z"/><path class="cls-2" d="M1.68,237.44A19.78,19.78,0,0,1,0,233.16v3.68c.26.4.52.78.77,1.13A.53.53,0,0,0,1.68,237.44Z"/><path class="cls-2" d="M1.55,228.53a3.81,3.81,0,0,1,3.46.25c.86.51,1.22,1.36,2.31,1.35a1,1,0,0,0,.91-.69c.6-1.73-1.69-3-3-3.42a6,6,0,0,0-5.06.52l-.13.1v3.63A3,3,0,0,1,1.55,228.53Z"/><path class="cls-2" d="M10.58,275c-2.94,2-2.84,6.29-.84,8.87.35.45,1.07-.13.78-.61-1.5-2.47-.85-7,2.68-7.1a3.43,3.43,0,0,1,3.15,1.6c.48.86,1.12,1.71,2.11.86a1.13,1.13,0,0,0,.3-1.13C17.6,274.3,13.31,273.12,10.58,275Z"/><path class="cls-2" d="M31.16,294.87l-1.19.37c-.23.06-.12.42.09.34l1.18-.42C31.42,295.1,31.35,294.81,31.16,294.87Z"/><path class="cls-2" d="M45.69,294.3A45.39,45.39,0,0,1,41,292.35c-1-.47-3.61-1.36-3.74-2.58-.31-2.94,5.89-2,7.16-3.51a1.15,1.15,0,0,0-.22-1.77c-1.53-1.09-5-.17-6.67.5a5.23,5.23,0,0,0-3.41,4.55c0,1.94,1.36,3.18,3,3.84a44.22,44.22,0,0,0,8.25,2.12A.62.62,0,0,0,45.69,294.3Z"/><path class="cls-2" d="M25.56,310.89c-2.16-.31-3.8,3.84-6.1,2.27-1.82-1.24,1.1-3.44,2.07-4.09.62-.41,0-1.34-.65-1.09-2.74,1.08-6.65,4-3.79,7.18a5,5,0,0,0,5.13,1.27c1.76-.53,4.8-2.35,4.45-4.46A1.29,1.29,0,0,0,25.56,310.89Z"/><path class="cls-2" d="M19.2,345a5,5,0,0,0-1.67,2c-.34.54-.51,1.13-1.32.94a5.19,5.19,0,0,1-1.36-.95,8.41,8.41,0,0,1-3.1-5.81.55.55,0,0,0-1.09,0,10,10,0,0,0,3.8,8.77c1.48,1.09,3.05,1.5,4.47.08,1.11-1.1,2.31-2.79,1.84-4.41A1.08,1.08,0,0,0,19.2,345Z"/><path class="cls-2" d="M50.3,326.86c-4.38-3.13-9,4.48-10.35,7.7-.21.51.59.81.86.37A15.68,15.68,0,0,1,44,331c1-.84,3.46-3,4.67-1.95,2.6,2.17-.79,6.2-2.23,7.78-1.12,1.22.35,3.43,1.85,2.4C51.65,337,54.4,329.8,50.3,326.86Z"/><path class="cls-2" d="M63.09,306c-.28.31.15.78.49.61a11.64,11.64,0,0,1,4.21-1.16c.38,0,1.91-.19,2.25.35s-.79,2.13-1.08,2.51c-1.81,2.32-4.72,4.24-5.81,7-.38,1,.7,2.17,1.71,1.63,2.43-1.3,4.29-4.17,6-6.28,1.29-1.55,2.57-3.58,1.9-5.68C71.38,300.58,65,304,63.09,306Z"/><path class="cls-2" d="M82.14,262A6,6,0,0,0,78,265.63c-1.89,5.14,5.49,7.45,9,9a.67.67,0,0,0,.67-1.15q-2.14-1.54-4.2-3.22c-1-.81-2.94-1.95-2.49-3.44,1-3.26,5.25-1.08,7.41-1.8a1.25,1.25,0,0,0,.54-2.07C87.27,261.54,84.18,261.45,82.14,262Z"/><path class="cls-2" d="M108.57,254.18a5.21,5.21,0,0,1-3.66-2.56c-.53-1.1-.84-2.87-.11-4,.56-.84,1.25-.68,2.11-.84a18.38,18.38,0,0,0,3-.91.28.28,0,0,0,0-.53c-2-.75-5.05-2.06-6.88-.35-1.51,1.42-1.88,3.94-1.54,5.88a7.48,7.48,0,0,0,3.46,5.14c1.78,1.08,4.79,2.19,6.76,1.3.74-.33.63-1.27.23-1.79C111.06,254.49,109.82,254.52,108.57,254.18Z"/><path class="cls-2" d="M125.11,263.73c.57.71,2.11,3.64,1,4.4s-2.75-1.38-3.94-1.34a.56.56,0,0,0-.54.4c-.25,1.42,1.09,2.86,2.26,3.52a4.17,4.17,0,0,0,4.27-.13c3.1-2.09,1.14-7-.63-9.22C126.16,259.66,123.77,262.06,125.11,263.73Z"/><path class="cls-2" d="M146,282c-3.55,2.08-3.87,6.73-2.15,10.07a.28.28,0,0,0,.51-.06c.58-2.46.34-6.05,2.74-7.59,2.76-1.76,4.42,1.8,6.7,2.41a1.14,1.14,0,0,0,1.4-1.4C154.21,282.09,149,280.24,146,282Z"/><path class="cls-2" d="M162.29,264.78a3.74,3.74,0,0,1-2.65-2.49c-.83-2.92,2-4,4.31-4.19a.36.36,0,0,0,.3-.53c-.86-1.81-3.14-1.91-4.81-1.21a5.3,5.3,0,0,0-3.15,5.18,6.8,6.8,0,0,0,3.32,5.64c1.74,1,5.08,1.93,6.39-.07a1.22,1.22,0,0,0-.19-1.48C164.69,264.73,163.59,265.17,162.29,264.78Z"/><path class="cls-2" d="M166.29,313c-1.7.75-3.32,2-3.59,3.94a4.67,4.67,0,0,0,2.37,4.51c1.85,1.1,3.87.71,5.84.26a.31.31,0,0,0,0-.59c-1.45-.39-6.52-1.74-5.06-4.21,1.25-2.14,4.64-1.12,6.27-2.48a1.18,1.18,0,0,0,0-1.65C170.64,311.34,168,312.26,166.29,313Z"/><path class="cls-2" d="M4.56,351.13c-1.14-1.11-3-.81-4.56-.28V354c1.51-.48,3.45-.3,4.56-1.22A1.18,1.18,0,0,0,4.56,351.13Z"/><path class="cls-2" d="M3.35,4.62a.31.31,0,0,0,0-.59A18.73,18.73,0,0,1,0,2.84V5.05A12.83,12.83,0,0,0,3.35,4.62Z"/><path class="cls-2" d="M354.26,29.68a5.88,5.88,0,0,0,.95,5.61.77.77,0,0,0,.23.21V28.14A4.35,4.35,0,0,0,354.26,29.68Z"/><path class="cls-2" d="M347,86.15a.52.52,0,0,0,.91.39c1.62-1.73,3.14-3.75,5.73-3.8a3.81,3.81,0,0,1,1.82.48v-3C351.6,79.36,347.32,82.09,347,86.15Z"/><path class="cls-2" d="M352.78,297.19a5.05,5.05,0,0,0-3.91,3c-1.46,3.25,1.39,7,4.93,6a.35.35,0,0,0,0-.67c-1.94-.5-3.59-2.78-2.24-4.64,1.15-1.58,2.51-.8,3.88-.41v-3A7.25,7.25,0,0,0,352.78,297.19Z"/><path class="cls-2" d="M355.44,236.84v-3.68a5.44,5.44,0,0,1,0-2.89v-3.63C351.73,229.16,353.42,233.68,355.44,236.84Z"/><path class="cls-2" d="M353.73,355.25a2.87,2.87,0,0,1,1.71-1.25v-3.15c-.46.16-.89.33-1.26.5-1.7.75-3.33,2-3.6,3.93,0,.05,0,.11,0,.16h3.08C353.68,355.38,353.69,355.32,353.73,355.25Z"/><path class="cls-2" d="M353,4.36a5.2,5.2,0,0,0,2.49.69V2.84c-1.33-.67-2.36-1.61-1.79-2.84h-3.08A4.73,4.73,0,0,0,353,4.36Z"/><path class="cls-2" d="M147,341.22c-1.19-.63-2.1-.22-3.41-.23a8,8,0,0,1-4.3-1.07c-3-2.11,3.32-4.71,4.89-5.19a.4.4,0,0,0-.1-.79c-3.36-.24-10.58,1.57-8.36,6.48.88,1.94,3.3,2.93,5.25,3.36s5.06.87,6.44-1A1.14,1.14,0,0,0,147,341.22Z"/><path class="cls-2" d="M119.1,330.51c-3.07-3.3-6.72,3-6.88,5.55a.44.44,0,0,0,.82.22,14,14,0,0,1,2.28-3c.45-.42,1.38-1.24,2.1-.7a6.18,6.18,0,0,1,.77,2.19,10.09,10.09,0,0,1,.15,3.91c-.19,1.19-.75,2-.37,3.22a1.08,1.08,0,0,0,1.55.63c1.77-1.08,1.76-3.93,1.64-5.81S120.51,332,119.1,330.51Z"/><path class="cls-2" d="M133.62,306.28c-1.29,1.34-4.06,1.12-4.71-.78-.75-2.2,1.44-3.5,3.35-3.28a1.47,1.47,0,0,0,1.32-.76,1.84,1.84,0,0,0,.21-.77,1.55,1.55,0,0,0-1.12-1.47c-4.35-.61-8.51,3.14-6.54,7.62,1.54,3.47,7.1,3.86,7.84-.36A.21.21,0,0,0,133.62,306.28Z"/><path class="cls-2" d="M97.81,293.81c-4.78,1.81-3.07,7-2.44,10.76.08.44.85.45.91,0,.35-2.47-.73-7,1.94-8.39,3.56-1.8,6.11,2.11,7.81,4.5a1.14,1.14,0,0,0,2-1.15C106.34,295.79,102.12,292.17,97.81,293.81Z"/><path class="cls-2" d="M92.41,325a5.35,5.35,0,0,0-5.25.72,6.82,6.82,0,0,0-1.9,8.76.33.33,0,0,0,.6-.26,6.18,6.18,0,0,1,1.56-6,4,4,0,0,1,3.31-1.36c1.4.24,1.44,1.34,2.25,2.2a.82.82,0,0,0,1.27-.16C95.29,327.38,93.76,325.61,92.41,325Z"/><path class="cls-2" d="M204.81,308.77a5.15,5.15,0,0,0-3.46,4.39c-.15,3,4.47,5.74,6.06,2.35a.44.44,0,0,0-.61-.6c-1.38.76-3.17-1-2.21-2.37,1.56-2.19,3.94,0,5.71-1.21a1.07,1.07,0,0,0,.37-1.43C209.77,308.09,206.45,308.16,204.81,308.77Z"/><path class="cls-2" d="M232.21,321.52c-1.57-.87-3.6-.34-5.19.13-2,.56-4.34,1.31-5.51,3.1a.19.19,0,0,0,.16.29c2.82,0,5.39-1.87,8.28-1.72,3.71.19-.74,5.07-.6,6.86a1,1,0,0,0,1.71.71C233,328.8,235.77,323.5,232.21,321.52Z"/><path class="cls-2" d="M265.11,330.33c-1.51-.42-4.08.51-5.26-.66-.61-.6,0-.87.55-1.24.77-.48,2.9-1.63,3.42-.12,0,0,.05,0,.06,0,.8-4.16-6-2.81-7.19-.35-.86,1.76.21,3.74,1.75,4.7,1.79,1.1,4.24.85,6.25.78A1.59,1.59,0,0,0,265.11,330.33Z"/><path class="cls-2" d="M289.19,288.25c-3.56,1.56-3.29,5.7-1.8,8.62.29.57,1,.14.94-.39-.27-1.84-.37-5.45,2.13-5.88,2-.34,3.21,2.2,4.19,3.52a1.33,1.33,0,0,0,2.3-1.35C295.73,290,292.47,286.8,289.19,288.25Z"/><path class="cls-2" d="M345.54,323.55c-1.48-.92-3.27.11-4.7-.93-1.13-.82-1-2-.17-3s3.79-2.54,3.18-4.35a.46.46,0,0,0-.42-.33c-1.29,0-3.14,1.44-4.18,2.14a5.14,5.14,0,0,0-2.68,4.11,5.52,5.52,0,0,0,2.92,4.72c1.73,1,4.93,1.53,6.33-.16A1.45,1.45,0,0,0,345.54,323.55Z"/><path class="cls-2" d="M318.92,307.77c-2.63-1.18-9.1-2.89-10.68.78a3.52,3.52,0,0,0,1.14,3.92c1.56,1.46,3.91,1.26,5.51,2.63a.64.64,0,0,0,.91-.91,6.75,6.75,0,0,0-2.17-1.57c-.91-.45-2.33-.87-2.75-1.91-1-2.57,5.46-.74,6.49-.28C319.16,311.24,320.73,308.58,318.92,307.77Z"/><path class="cls-2" d="M308,328.92a.51.51,0,0,0,.49.84c2.77-1,6.38-2.36,9.13-.58a3,3,0,0,1,1.43,3.38c-.35,1-1.32,1.43-1.66,2.49a1.22,1.22,0,0,0,.84,1.48c1.86.6,3.22-1.29,3.72-2.89a5.82,5.82,0,0,0-1.09-5.48C317.23,324,311.52,325.85,308,328.92Z"/><path class="cls-2" d="M283.19,337.31c-4.37,1.5-3.48,6.52-2.28,9.87a.5.5,0,0,0,1-.27c-.47-2.3-1.26-6.55,1.76-7.56,2.67-.89,2.63,2.52,4,3.71a.93.93,0,0,0,1.53-.41C289.7,339.68,286.11,336.3,283.19,337.31Z"/><path class="cls-2" d="M200.61,341.2c-2.14.21-3,2.77-5.45,2.66a3.2,3.2,0,0,1-2.67-4.29.35.35,0,0,0-.48-.47c-2.84,1.69-1.62,5.78.91,7.18a6.13,6.13,0,0,0,5.4,0c1.68-.75,3.79-2.15,3.46-4.2A1.21,1.21,0,0,0,200.61,341.2Z"/></pattern></defs><g id="Layer_2" data-name="Layer 2"><g id="Map_with_elements" data-name="Map with elements"><path class="cls-3" d="M220,154.69c-5.27,4.83-195.93,4.17-200.32,0s-4-84.79,0-89.18,192-4.9,200.32,0S225.28,149.86,220,154.69Z"/><path class="cls-4" d="M220,154.69c-5.27,4.83-195.93,4.17-200.32,0s-4-84.79,0-89.18,192-4.9,200.32,0S225.28,149.86,220,154.69Z"/><path class="cls-5" d="M76.34,135.89c-1.75,2.79-32.18,2.6-33.82,0-2.6-4.11-2.64-35,0-37.42s31.19-2.58,33.82,0S78.1,133.09,76.34,135.89Z"/><path class="cls-2" d="M75,134.47c-1.61,2.59-29.61,2.41-31.13,0-2.39-3.79-2.42-32.38,0-34.57s28.71-2.38,31.13,0S76.6,131.89,75,134.47Z"/><path class="cls-5" d="M59.87,137.11H58.55c.12-15.3.24-38.49,0-39.69l.63-.11v-.72l.47.19C59.93,97,60.19,97.29,59.87,137.11Z"/><path class="cls-5" d="M51.78,113.32c-5.78,0-10.21,0-10.49-.06l.2-1.3c1,.09,26.35,0,36.05,0v1.32C72.51,113.29,60.59,113.32,51.78,113.32Z"/><polygon class="cls-5" points="59.41 113.48 42.64 99.83 43.47 98.81 59.42 111.79 75.48 98.81 76.3 99.83 59.41 113.48"/><path class="cls-5" d="M138.3,135.87c-1.76,2.79-32.18,2.6-33.83,0-2.6-4.11-2.63-35.05,0-37.42s31.19-2.58,33.83,0S140.06,133.07,138.3,135.87Z"/><path class="cls-2" d="M136.94,134.45c-1.62,2.58-29.62,2.41-31.13,0-2.4-3.79-2.43-32.38,0-34.57s28.7-2.38,31.13,0S138.56,131.87,136.94,134.45Z"/><path class="cls-5" d="M121.82,137.09l-1.32,0c.13-15.29.24-38.48,0-39.68l.63-.11v-.72l.47.19C121.89,97,122.15,97.27,121.82,137.09Z"/><path class="cls-5" d="M113.74,113.3c-5.78,0-10.22,0-10.49-.06l.19-1.3c1,.09,26.35,0,36.05,0v1.32C134.47,113.27,122.55,113.3,113.74,113.3Z"/><polygon class="cls-5" points="121.37 113.46 104.59 99.81 105.42 98.79 121.37 111.77 137.43 98.79 138.26 99.81 121.37 113.46"/><path class="cls-5" d="M200.25,135.87c-1.75,2.79-32.17,2.6-33.82,0-2.6-4.11-2.64-35.05,0-37.42s31.19-2.58,33.82,0S202,133.07,200.25,135.87Z"/><path class="cls-2" d="M198.89,134.45c-1.61,2.58-29.61,2.41-31.13,0-2.39-3.79-2.42-32.38,0-34.57s28.71-2.38,31.13,0S200.51,131.87,198.89,134.45Z"/><path class="cls-5" d="M183.78,137.09l-1.32,0c.12-15.29.24-38.48,0-39.68l.63-.11v-.72l.47.19C183.84,97,184.11,97.27,183.78,137.09Z"/><path class="cls-5" d="M175.69,113.3c-5.77,0-10.21,0-10.49-.06l.2-1.3c1,.09,26.35,0,36,0v1.32C196.42,113.27,184.5,113.3,175.69,113.3Z"/><polygon class="cls-5" points="183.33 113.46 166.55 99.81 167.38 98.79 183.33 111.77 199.39 98.79 200.22 99.81 183.33 113.46"/><path class="cls-6" d="M239.57,73.91c5.93-6.29-31.43-65.24-37-70S45.18-1.66,37.49,3.88s-42.16,63.74-37,70C7.12,81.88,231.64,82.33,239.57,73.91Z"/><path class="cls-3" d="M179.39,51a.33.33,0,0,0-.42-.2c-.29.1-29.23,10.25-56.68,10.47A137,137,0,0,1,103,59.93h-.11c-7.09-1-13.8-2.33-19.57-3.71h0a.32.32,0,0,0-.14,0c-10.64-2.55-18-5.16-18.65-5.38h0a.33.33,0,0,0-.42.2.32.32,0,0,0,.2.42c.6.22,7.9,2.78,18.41,5.32L82,58.17a.32.32,0,0,0,.16.44.31.31,0,0,0,.13,0,.32.32,0,0,0,.3-.19l.72-1.56c5.66,1.35,12.21,2.68,19.12,3.63l-.56,2.09a.33.33,0,0,0,.23.4h.09a.33.33,0,0,0,.32-.24l.58-2.17a138.41,138.41,0,0,0,18.3,1.31h1.17v1.84a.33.33,0,0,0,.66,0V61.9a146.94,146.94,0,0,0,18.8-1.6l.47,2.45a.32.32,0,0,0,.32.27h.06a.33.33,0,0,0,.26-.39l-.46-2.42c6.48-1,12.58-2.23,17.89-3.5l.83,1.52a.32.32,0,0,0,.29.17.32.32,0,0,0,.16,0,.32.32,0,0,0,.13-.44l-.75-1.37c10.58-2.56,17.79-5.09,17.93-5.14A.33.33,0,0,0,179.39,51Z"/><path class="cls-7" d="M82.2,68.88c0-.94,2.39-8.37,2.31-8.93-.14-1-3.87-2.62-4.47-2a40.18,40.18,0,0,0-3.36,11.6,2.8,2.8,0,0,0,.56,1.59,7.69,7.69,0,0,0,1.41,1.59c2.16,1.87,4.52,2.3,5,2,.76-.55.37-1.78-.17-3A16.69,16.69,0,0,1,82.2,68.88Z"/><path class="cls-3" d="M103.6,72.75c-.17-.91,1.08-8.63.91-9.18-.3-.93-4.37-2-4.89-1.2a40,40,0,0,0-1.28,12c0,.84,1.29,2.1,2.41,2.8a10.87,10.87,0,0,0,1.73.88,9.46,9.46,0,0,0,1.55.41,2.59,2.59,0,0,0,1.83-.14C107.17,77,103.76,73.66,103.6,72.75Z"/><path class="cls-8" d="M125.21,73.92c-.26-.88.18-8.7,0-9.21-.39-.89-4.63-1.56-5-.69a40,40,0,0,0,.06,12.07c.14.83,1.5,2,2.67,2.53a10.15,10.15,0,0,0,1.8.69,7.68,7.68,0,0,0,1.59.24,2.64,2.64,0,0,0,1.82-.33C129.22,77.78,125.46,74.81,125.21,73.92Z"/><path class="cls-5" d="M146.92,72.41c-.41-.84-1.21-8.62-1.52-9.1a1.52,1.52,0,0,0-.94-.45,8,8,0,0,0-1.61-.17c-1.13,0-2.24.21-2.38.67A39.67,39.67,0,0,0,142.2,75.3c.26.81,1.79,1.72,3.07,2.12a9.19,9.19,0,0,0,1.94.4,8.86,8.86,0,0,0,1.65,0,2.74,2.74,0,0,0,1.79-.62c.47-.81-.39-1.78-1.39-2.67A17.18,17.18,0,0,1,146.92,72.41Z"/><path class="cls-2" d="M168.05,66.43c-.61-.7-3.44-8-3.85-8.38s-1.44-.22-2.48,0-2,.67-2.05,1.15a24.39,24.39,0,0,0,1.17,4.12,38.39,38.39,0,0,0,3.25,7.11c.44.73,2.18,1.24,3.58,1.31a10.9,10.9,0,0,0,3.73-.65A2.79,2.79,0,0,0,173,70c.26-.93-.88-1.59-2.11-2.13A14.3,14.3,0,0,1,168.05,66.43Z"/><path class="cls-5" d="M120.19,14.87c-18.33.18-31,5.78-39.62,12.54-13.23,10.36-18.8,22-16.77,23.85,4.45,4.16,113.25,3.32,115.89,0,2.18-2.74-4.82-13.6-19-24.17C151.49,20.26,138.41,14.7,120.19,14.87Z"/><path class="cls-2" d="M120.82,17.52c-17.33.15-29.32,5.16-37.47,11.2C70.85,38,65.58,48.37,67.5,50.06c4.21,3.72,107.08,3,109.58,0,2.06-2.45-4.56-12.17-18-21.62C150.41,22.34,138.05,17.36,120.82,17.52Z"/><path class="cls-5" d="M164.32,31.54l-1-.85c-8.31,4.4-23.81,12.66-39,20.78C131,40.89,140,26.8,144.48,19.72l-1.15-.41c-5,7.82-14.76,23.21-20,31.44,1.44-9.4,4-25.8,5.29-34.42l-1.17-.11c-1.38,8.93-4,26-5.42,35.22-5.89-20.34-8.79-30.13-10.23-34.86l-1.17.16c2.1,7,6.43,21.8,10,34.13C114.77,44,100.92,27.74,95,21c-.39.16-.78.32-1.15.49,5.11,5.87,17.38,20.22,25,29.18C105.79,45.28,83.12,36.05,76.8,33.48c-.32.32-.62.63-.92,1l44.57,18.15,4.4,0C138.47,45.29,155.66,36.13,164.32,31.54Z"/></g></g></svg>