<svg xmlns="http://www.w3.org/2000/svg" viewBox="0 0 56.19 77.17"><defs><style>.cls-1{fill:#f45b44;}.cls-2{fill:#f2b669;}.cls-3{fill:#c86e29;}.cls-4{fill:#fde8ca;}.cls-5{fill:#4c6b51;}.cls-6{fill:#739b68;}.cls-7{fill:#fbf2d6;}</style></defs><g id="Layer_2" data-name="Layer 2"><g id="Image"><path class="cls-1" d="M46.33,23.82c-.92-1.5-16.08-17.24-18.39-17.24S10.87,20.77,9.83,23.76c0,0,.46,51.52,1.5,52.44s32.58,1.61,34.31,0S47.25,25.31,46.33,23.82Z"/><path class="cls-2" d="M56,24c-.52-1.65-2-2.77-3.37-3.84-7.5-5.91-13.29-13.92-21.4-18.94A8.45,8.45,0,0,0,28.79.12,1,1,0,0,0,28.21,0H28a1,1,0,0,0-.57.12A8.33,8.33,0,0,0,25,1.25c-8.12,5-13.91,13-21.4,18.94C2.2,21.26.71,22.38.19,24a5.25,5.25,0,0,0,.33,3.63,2.93,2.93,0,0,0,1.39,1.62c1.2.52,2.52-.35,3.52-1.19C9.8,24.44,13.92,20.5,18,16.56l8.22-7.87a11.52,11.52,0,0,0,1.84-2.11,11.57,11.57,0,0,0,1.85,2.11l8.22,7.87c4.11,3.94,8.22,7.88,12.59,11.53,1,.84,2.33,1.71,3.53,1.19a2.93,2.93,0,0,0,1.39-1.62A5.31,5.31,0,0,0,56,24Z"/><path class="cls-3" d="M23.27,30c-.38-.41-3.3-.36-3.63-.36-2.19,0-2.4.28-2.47.37-.41.47-.43,7.1,0,7.7.09.15.32.31,1.3.4a15.42,15.42,0,0,0,1.63.07c1.37,0,2.87-.12,3.18-.43C23.85,37.2,23.64,30.45,23.27,30Z"/><path class="cls-4" d="M23.27,30c-.38-.41-3.3-.36-3.63-.36-2.19,0-2.4.28-2.47.37-.41.47-.43,7.1,0,7.7.09.15.32.31,1.3.4a15.42,15.42,0,0,0,1.63.07c1.37,0,2.87-.12,3.18-.43C23.85,37.2,23.64,30.45,23.27,30ZM17.53,37.5a30.45,30.45,0,0,1,0-7.14,9.7,9.7,0,0,1,2.76-.23H21v7.61A10.44,10.44,0,0,1,17.53,37.5Zm5.4,0a3.85,3.85,0,0,1-1.5.26V30.15a5,5,0,0,1,1.48.19C23.25,30.93,23.26,37,22.93,37.46Z"/><path class="cls-3" d="M31.09,19.58a9.55,9.55,0,0,0-2.74-.24c-1.66,0-1.81.19-1.87.25a14.09,14.09,0,0,0,0,5.1c.07.09.24.2,1,.26.33,0,.77.05,1.24.05a6,6,0,0,0,2.39-.29C31.53,24.32,31.37,19.85,31.09,19.58Z"/><path class="cls-4" d="M31.09,19.58a9.55,9.55,0,0,0-2.74-.24c-1.66,0-1.81.19-1.87.25a14.09,14.09,0,0,0,0,5.1c.07.09.24.2,1,.26.33,0,.77.05,1.24.05a6,6,0,0,0,2.39-.29C31.53,24.32,31.37,19.85,31.09,19.58Zm-4.33,4.94a17.35,17.35,0,0,1,0-4.72,7.94,7.94,0,0,1,2.08-.16h.53v5A8.57,8.57,0,0,1,26.76,24.52Zm4.08,0a3.6,3.6,0,0,1-1.14.17v-5a4.42,4.42,0,0,1,1.12.12A15.25,15.25,0,0,1,30.84,24.5Z"/><path class="cls-3" d="M42.34,47.8c-.38-.41-3.3-.37-3.63-.36-2.19,0-2.4.27-2.47.36-.41.48-.42,7.1,0,7.71.1.14.32.3,1.3.4.44,0,1,.07,1.63.07,1.37,0,2.87-.13,3.18-.44C42.92,55,42.71,48.2,42.34,47.8Z"/><path class="cls-4" d="M42.34,47.8c-.38-.41-3.3-.37-3.63-.36-2.19,0-2.4.27-2.47.36-.41.48-.42,7.1,0,7.71.1.14.32.3,1.3.4.44,0,1,.07,1.63.07,1.37,0,2.87-.13,3.18-.44C42.92,55,42.71,48.2,42.34,47.8ZM36.6,55.25a30.37,30.37,0,0,1,0-7.13,9.61,9.61,0,0,1,2.77-.24H40V55.5A10.16,10.16,0,0,1,36.6,55.25Zm5.4,0a4.28,4.28,0,0,1-1.5.26V47.91a5.15,5.15,0,0,1,1.48.18C42.32,48.69,42.33,54.71,42,55.22Z"/><path class="cls-3" d="M39.75,31.28c-.37-.41-3.21-.36-3.54-.36-2.13,0-2.33.28-2.4.37-.4.47-.41,7.1,0,7.7.1.15.32.31,1.27.4a14.74,14.74,0,0,0,1.59.07c1.33,0,2.79-.12,3.09-.43C40.31,38.44,40.11,31.69,39.75,31.28Z"/><path class="cls-4" d="M39.92,31.28c-.38-.41-3.3-.36-3.63-.36-2.19,0-2.4.28-2.47.37-.41.47-.42,7.1,0,7.7.1.15.33.31,1.3.4a15.49,15.49,0,0,0,1.64.07c1.36,0,2.86-.12,3.17-.43C40.5,38.44,40.29,31.69,39.92,31.28Zm-.34,7.42a5.55,5.55,0,0,1-2,.28,15,15,0,0,1-3.43-.24,29.93,29.93,0,0,1,0-7.14,9.79,9.79,0,0,1,2.77-.23l1.16,0a5.17,5.17,0,0,1,1.49.19C39.9,32.17,39.91,38.2,39.58,38.7Z"/><path class="cls-3" d="M21.05,47.8c-.29-.41-2.51-.37-2.77-.36-1.66,0-1.82.27-1.88.36a32.06,32.06,0,0,0,0,7.71c.07.14.25.3,1,.4a10.87,10.87,0,0,0,1.25.07c1,0,2.18-.13,2.41-.44C21.49,55,21.33,48.2,21.05,47.8Z"/><path class="cls-4" d="M21.18,47.8c-.29-.41-2.58-.37-2.84-.36-1.71,0-1.87.27-1.93.36-.32.48-.33,7.1,0,7.71.07.14.25.3,1,.4a11.59,11.59,0,0,0,1.28.07,4.61,4.61,0,0,0,2.49-.44C21.64,55,21.47,48.2,21.18,47.8Zm-.26,7.42a3.7,3.7,0,0,1-1.54.28,8.81,8.81,0,0,1-2.68-.25,37.75,37.75,0,0,1,0-7.13,6,6,0,0,1,2.16-.24l.91,0a3.3,3.3,0,0,1,1.17.18A33.33,33.33,0,0,1,20.92,55.22Z"/><path class="cls-4" d="M34.32,52c-.64-1.2-5.57-1.07-6.13-1.06-3.7.12-4,.82-4.17,1.08-.69,1.4-.71,20.87,0,22.65.16.43.55.9,2.19,1.18a16.92,16.92,0,0,0,2.77.2c2.3,0,4.83-.36,5.36-1.27C35.3,73.09,35,53.24,34.32,52Z"/><path class="cls-3" d="M29.34,67.41a1.62,1.62,0,0,1-.63-.14,1.21,1.21,0,0,1-.44-.29,1,1,0,0,1-.25-.81,1.17,1.17,0,0,1,.41-.84,1.25,1.25,0,0,1,1.52,0,1.28,1.28,0,0,1,.36,1.47,1,1,0,0,1-.28.39A1.06,1.06,0,0,1,29.34,67.41Zm-.79-.81.05.06a1,1,0,0,0,.29.19.87.87,0,0,0,.84,0,.73.73,0,0,0,.16-.22.84.84,0,0,0-.23-.93.78.78,0,0,0-.94,0,.74.74,0,0,0-.24.48h0a.2.2,0,0,0,0,.07.57.57,0,0,0,.09.36Z"/><path class="cls-3" d="M28.71,65.2a.41.41,0,0,0,.09.38.5.5,0,0,0,.19.13.55.55,0,0,0,.57,0,.44.44,0,0,0,.12-.15.56.56,0,0,0-.16-.64.54.54,0,0,0-.65,0,.49.49,0,0,0-.1.63"/><path class="cls-5" d="M32.83,60a.75.75,0,0,0-.15,0h-.13l-.12,0,.09-.08h0a.44.44,0,0,0,.26-.1.41.41,0,0,0,.18-.27s0,0,0,0a.4.4,0,0,0-.25.14.49.49,0,0,0-.13.12.31.31,0,0,0-.07.09,1,1,0,0,1-.25.2l0,0a1.24,1.24,0,0,0,.19-.21.36.36,0,0,0,0-.09l0-.08a.32.32,0,0,0,0-.14h0l-.05.07a.15.15,0,0,1-.06,0l-.05.07,0,.06a.25.25,0,0,0-.08.15.57.57,0,0,0,0,.18h0a.67.67,0,0,1-.12.06h0l-.06,0-.06,0h0l-.09,0,0,0,.13-.1a1.59,1.59,0,0,1,.13-.13.51.51,0,0,0,.07-.15c0-.05,0-.11,0-.13h0l-.16.11a.74.74,0,0,0-.12.13l-.11.17a.52.52,0,0,0-.06.16l-.17.06a2.2,2.2,0,0,0,.2-.23l0-.08a.2.2,0,0,0,0-.08V60a.19.19,0,0,0,0-.08s0,0,0,0l0,0,0,0-.06.07a.65.65,0,0,0-.1.15l0,.09a.12.12,0,0,0,0,.08.19.19,0,0,0,0,.08v.06h-.35s0,0,0,0h.39l.06.05.08,0,.18,0a.75.75,0,0,0,.26,0h.09s0,0,0,0l-.07,0-.08,0-.16,0-.13,0,.16-.06a.21.21,0,0,0,.14,0h.18a.64.64,0,0,0,.2,0,.6.6,0,0,0,.16-.08s0,0,0,0H32.1a.75.75,0,0,0,.15-.09l.06,0a0,0,0,0,0,0,0l.06,0h.06a.34.34,0,0,0,.14,0l.07,0,.06,0,.12-.08S32.84,60,32.83,60Z"/><path class="cls-6" d="M32.56,57.51c.07.13,0,.18.06.37,0-.09,0-.26.07-.24s.09.13.08.22a1.91,1.91,0,0,0-.07.24l.06-.24s0-.06,0-.06,0,0,.05.07a.57.57,0,0,1,0,.13,2.35,2.35,0,0,1-.14.37,2.2,2.2,0,0,0,.15-.26v0s0,0,0,0a.23.23,0,0,1,0,.14.38.38,0,0,1-.06.13c0,.08-.11.16-.15.24l.2-.22s0,0,0,0,0,.1-.06.15-.26.25-.23.26.11-.09.16-.15.07,0,.09,0v0c0,.08-.08.14-.14.2l-.22.19a1.16,1.16,0,0,0,.16-.11c.05,0,.09-.07.12-.06s0,.14-.09.19a1.15,1.15,0,0,1-.36.2l.31-.1s.06,0,.07,0v0a.42.42,0,0,1-.24.21l-.24.1a1.09,1.09,0,0,1-.26,0l0-.08a.43.43,0,0,1,0-.12.54.54,0,0,0,0-.43s0-.06,0-.07a.1.1,0,0,1,.07,0,.32.32,0,0,1,0,.16.55.55,0,0,0-.08-.35s0-.06,0-.07h.06l0,0a.52.52,0,0,1,.08.19.61.61,0,0,0-.09-.35c0-.06-.08-.13,0-.19s0,0,0,0a.09.09,0,0,1,.09,0,.69.69,0,0,1,.1.19.66.66,0,0,0-.16-.31s-.09-.08-.07-.12,0,0,0,0a0,0,0,0,1,0,0,.46.46,0,0,1,.16.15.83.83,0,0,0-.26-.33s0,0,0,0,0,0,.06,0l.06,0a.46.46,0,0,1,.17.17,1,1,0,0,0-.18-.23c-.05,0-.12-.13-.07-.15s.13,0,.18.1-.13-.19-.11-.22.07,0,.09,0a.52.52,0,0,1,.1.11C32.43,57.58,32.52,57.44,32.56,57.51Z"/><path class="cls-5" d="M31.84,58.48l.09.1a.86.86,0,0,1,.07.1.29.29,0,0,1,0,.09l0-.08h0a.44.44,0,0,1-.07-.21.14.14,0,0,1,0-.11.19.19,0,0,1,.05-.1h0a.22.22,0,0,1,.08.21.59.59,0,0,1,0,.13s0,.07,0,.08,0,.15-.06.24v0a.75.75,0,0,1,.1-.2l.05-.06s0,0,0-.05.08,0,.12,0,0,0,0,0,0,0,0,.06v.07s0,0,0,.07l0,.06a.29.29,0,0,1-.11.11A.46.46,0,0,1,32,59h0l0,.1v0h0v.06a.06.06,0,0,0,0,0h0a.31.31,0,0,1,0,.08.05.05,0,0,0,0,0,.75.75,0,0,1,.07-.12.94.94,0,0,1,.09-.12.47.47,0,0,1,.1-.1.12.12,0,0,1,.13,0h0l-.05.17a.28.28,0,0,1-.11.13.71.71,0,0,1-.13.12.24.24,0,0,1-.16,0l0,.16a1.84,1.84,0,0,1,.22-.17.18.18,0,0,1,.07-.05.1.1,0,0,1,.07,0l.09,0h.08s0,0,0,0l0,0,0,0-.06.07a.25.25,0,0,1-.15.1l-.08,0-.08,0h-.13l0,0a.32.32,0,0,0,0,.14s0,.11,0,.16-.05,0,0,0a.68.68,0,0,0,0-.14l0-.13,0-.07h0v0h0a.15.15,0,0,1,0-.06l0-.08a1.42,1.42,0,0,1-.05-.16,1.77,1.77,0,0,1,0-.21v-.07s0,0,0,0l0,.06.05.06a1,1,0,0,1,.08.14.53.53,0,0,1,0,.12.37.37,0,0,0,0-.14.47.47,0,0,1-.07-.12l0-.08s0-.05,0-.07l0-.15a.34.34,0,0,1,0-.14h0l.1.15A.46.46,0,0,1,32,59a.09.09,0,0,1,0,0,.68.68,0,0,0,0-.14v0h0l0-.05,0,0s-.05-.07-.06-.1a.07.07,0,0,0,0,0l0,0a.31.31,0,0,0,0-.1S31.83,58.48,31.84,58.48Z"/><path class="cls-5" d="M30.19,61.8l-.12-.09L30,61.63l-.11-.05H30a.61.61,0,0,0,.28.08.45.45,0,0,0,.16,0,.37.37,0,0,0,.15-.08,0,0,0,0,0,0,0,.46.46,0,0,0-.29,0l-.17,0s-.09,0-.11,0a1.71,1.71,0,0,1-.32,0h-.05a.94.94,0,0,0,.28-.06l.09,0,.07,0a.35.35,0,0,0,.08-.13h0s-.05,0-.08,0H30l-.08,0H29.8a.28.28,0,0,0-.15.08,1.5,1.5,0,0,0-.13.11h0l-.12,0h-.18l-.09,0h.21l.18,0a.41.41,0,0,0,.15-.07.11.11,0,0,0,.05-.13h-.2a.57.57,0,0,0-.18,0l-.18.07a.29.29,0,0,0-.15.09l-.17-.07.29,0,.09,0,.08,0,.05-.07.05-.07s0,0,0,0H29.3l-.09,0a.85.85,0,0,0-.17.06l-.08,0-.08,0-.07.05,0,0h0l0,0a.6.6,0,0,1-.13-.09l-.12-.11s-.05,0,0,0l.11.1a.36.36,0,0,0,.12.08l.07,0h0a.19.19,0,0,0,0,.08l0,.08a.49.49,0,0,0,.12.13,1.16,1.16,0,0,0,.21.16l.06,0h0s.05,0,0,0,0,0,0-.08l0-.07-.09-.14-.1-.1.17.05a.23.23,0,0,0,.08.12l.07.06.08,0a1,1,0,0,0,.17.1.57.57,0,0,0,.18,0s0,0,0,0l-.16-.13a.69.69,0,0,0-.13-.11l-.05,0,.17,0h.07s0,0,0,0a.09.09,0,0,0,0,.06l.05,0,.11.07.07,0,.06,0h.15S30.19,61.81,30.19,61.8Z"/><path class="cls-6" d="M31.56,59.88c0,.14-.1.15-.22.3.07-.06.21-.16.23-.12a.19.19,0,0,1-.11.21c-.07,0-.17.08-.21.12l.21-.12s0,0,.07,0-.05.13-.12.16l-.18.09-.19.08c.1,0,.2,0,.3-.08h0s0,0,0,0a.33.33,0,0,1-.23.14l-.28.06a2.63,2.63,0,0,0,.3,0c.05,0,0,0,0,0s-.09.05-.15.07-.36,0-.35,0,.14,0,.22,0,.08,0,.08,0l0,0c-.05,0-.15,0-.24,0l-.29,0c.1,0,.3,0,.32.07s-.11.08-.19.07a1,1,0,0,1-.4-.11,2,2,0,0,0,.29.15s.05,0,0,.05h0a.38.38,0,0,1-.31,0,1.33,1.33,0,0,1-.24-.1,1.07,1.07,0,0,1-.22-.15.85.85,0,0,1,.19-.09.57.57,0,0,0,.34-.27s0,0,.07,0a.11.11,0,0,1,0,.08.22.22,0,0,1-.08.14.6.6,0,0,0,.19-.3s0-.06,0-.06a.07.07,0,0,1,0,.05.13.13,0,0,1,0,.06.37.37,0,0,1-.08.19.65.65,0,0,0,.19-.31c0-.07,0-.14.1-.16h0a.1.1,0,0,1,0,.1.47.47,0,0,1-.06.2.54.54,0,0,0,.1-.33c0-.05,0-.12,0-.14h0s0,0,0,0a.81.81,0,0,1,0,.22,1,1,0,0,0,.05-.41s0-.06,0-.06a.05.05,0,0,1,0,0s0,0,0,.06a.49.49,0,0,1,0,.24.92.92,0,0,0,0-.29c0-.06,0-.18.05-.16s.07.12.06.21c0-.11,0-.23.08-.25s.05.06.05.09a.61.61,0,0,1,0,.14C31.42,59.84,31.58,59.8,31.56,59.88Z"/><path class="cls-5" d="M30.37,60.06a.57.57,0,0,1,0,.13.5.5,0,0,1,0,.12.22.22,0,0,1-.05.08l.08,0h0a.58.58,0,0,1,.1-.21.34.34,0,0,1,.2-.09h0a.22.22,0,0,1-.09.21l-.11.08s-.05,0-.08,0l-.21.12,0,0a.86.86,0,0,1,.21-.07h.14a.23.23,0,0,1,.12.06s0,0,0,0l-.06,0a.12.12,0,0,0-.05.05l-.07,0-.07,0a.26.26,0,0,1-.15,0l-.14-.07h0l-.09,0h0l-.05,0,0,0h0l-.07,0h0a.37.37,0,0,1,.14,0l.15,0h.14a.13.13,0,0,1,.1.09h0a1.19,1.19,0,0,1-.15.09.52.52,0,0,1-.17,0,.55.55,0,0,1-.18,0,.3.3,0,0,1-.15-.07l-.14.08.27,0h.08l.08,0,.08.05.06.06v0H30a.38.38,0,0,1-.18,0s-.05,0-.08,0l-.08,0-.06-.05,0,0h0l0,0a.42.42,0,0,0-.12.08l-.13.09s0,0,0,0l.11-.08.12-.08.06,0h0s0,0,0-.08l0-.08.09-.14a.74.74,0,0,1,.12-.17l0,0,0,0s0,0,0,0a.25.25,0,0,1,0,.08.25.25,0,0,1,0,.08.83.83,0,0,1,0,.15l-.06.11.13-.07a.22.22,0,0,1,0-.14l0-.07a.43.43,0,0,1,0-.07l.09-.13a.27.27,0,0,1,.08-.1s0,0,0,0a1.16,1.16,0,0,1,0,.18.34.34,0,0,1-.05.14.05.05,0,0,1,0,0l.11-.07,0,0s0,0,0,0v-.07a.43.43,0,0,0,0,0l0-.11,0-.05,0,0,.07-.08S30.37,60.05,30.37,60.06Z"/><path class="cls-5" d="M26.63,61.12s0-.1,0-.15v-.13a.5.5,0,0,0,0-.12l.07.09h0a.58.58,0,0,0,.07.28.51.51,0,0,0,.26.2h0a.4.4,0,0,0-.11-.27l-.11-.13a.18.18,0,0,0-.09-.08,1.1,1.1,0,0,1-.18-.26l0,0a1.29,1.29,0,0,0,.19.21l.09,0,.07,0a.75.75,0,0,0,.15,0s0,0,0,0L27,60.72l-.05-.06-.05-.06s-.05,0-.07-.06a.26.26,0,0,0-.14-.09.53.53,0,0,0-.17,0h0a.56.56,0,0,1,0-.12v0l0-.06a.14.14,0,0,0,0-.06h0l0-.09v0a.71.71,0,0,0,.1.14.81.81,0,0,0,.12.14.34.34,0,0,0,.14.09.11.11,0,0,0,.13,0h0l-.1-.17a.49.49,0,0,0-.12-.13L26.48,60c-.05,0-.1-.08-.16-.08l0-.18a1.1,1.1,0,0,0,.21.22.18.18,0,0,0,.07.05l.08,0h.17s0,0,0,0l0,0,0,0-.07-.07a.49.49,0,0,0-.14-.11l-.09,0a.18.18,0,0,0-.07,0l-.08,0h-.06v0a.43.43,0,0,1,0-.16l0-.16s0,0,0,0a.59.59,0,0,1,0,.13.76.76,0,0,0,0,.15.22.22,0,0,0,0,.08h0v0h0l-.06.06a.59.59,0,0,0,0,.08.84.84,0,0,0-.05.17.77.77,0,0,0,0,.26v.1s0,0,0,0a.16.16,0,0,0,0-.07l0-.07a1,1,0,0,0,.07-.15s0-.09,0-.14a.85.85,0,0,0,0,.17.25.25,0,0,0-.05.13l0,.1a.27.27,0,0,0,0,.09,1.36,1.36,0,0,0,0,.2.49.49,0,0,0,.06.17s0,0,0,0l0-.2a.88.88,0,0,0,0-.17v0l.07.15,0,.06h0a.09.09,0,0,0,0,.06v.06a.33.33,0,0,0,0,.14s0,0,0,.07a.14.14,0,0,0,0,.06.83.83,0,0,0,.07.13S26.63,61.13,26.63,61.12Z"/><path class="cls-6" d="M29.18,60.85c-.13.07-.18,0-.36.06.09,0,.26,0,.24.07a.2.2,0,0,1-.22.08A1.91,1.91,0,0,0,28.6,61l.23.06s.07,0,.07,0,0,0-.07,0a.29.29,0,0,1-.13,0,2.46,2.46,0,0,1-.38-.14c.09.05.18.11.27.15h0s0,0,0,0a.23.23,0,0,1-.14,0,.38.38,0,0,1-.13-.06L28.07,61c.06.07.18.16.21.2s0,0,0,0-.1,0-.15-.06-.26-.26-.27-.23.1.11.15.16.05.07,0,.09h0c-.07,0-.14-.08-.19-.14s-.12-.15-.2-.22l.12.16c0,.05.07.09.06.12s-.14,0-.19-.09a1.15,1.15,0,0,1-.2-.36,1.6,1.6,0,0,0,.1.31.08.08,0,0,1,0,.07h0a.36.36,0,0,1-.2-.23,2.44,2.44,0,0,1-.1-.24.75.75,0,0,1,0-.26l.08,0a.28.28,0,0,1,.11,0,.55.55,0,0,0,.43,0s.07,0,.07,0,0,.05,0,.07a.28.28,0,0,1-.15,0,.55.55,0,0,0,.35-.08s.05,0,.07,0a.06.06,0,0,1,0,.06l0,0a.5.5,0,0,1-.2.08.64.64,0,0,0,.36-.09c.06,0,.13-.08.18,0s0,0,0,0,0,.07,0,.09a.69.69,0,0,1-.19.1.59.59,0,0,0,.3-.16s.08-.09.13-.07h0a0,0,0,0,1,0,0,.46.46,0,0,1-.15.16.88.88,0,0,0,.32-.26s0,0,.06,0a.11.11,0,0,1,0,.06l0,.06a.52.52,0,0,1-.16.17,1,1,0,0,0,.22-.18c.05,0,.14-.12.16-.07a.26.26,0,0,1-.11.18c.09-.06.19-.13.23-.11s0,.07,0,.09l-.11.1C29.11,60.72,29.26,60.81,29.18,60.85Z"/><path class="cls-5" d="M28.21,60.13l-.09.09-.1.07-.1,0,.09,0h0a.51.51,0,0,1,.22-.07.14.14,0,0,1,.11,0,.19.19,0,0,1,.1,0v0a.23.23,0,0,1-.21.08l-.13,0s-.07,0-.09,0l-.23-.06h0a.75.75,0,0,1,.2.1s0,0,0,.05l.06,0a.42.42,0,0,1,0,.12h0a.15.15,0,0,1-.07,0H28s-.05,0-.07,0l-.07,0a.36.36,0,0,1-.1-.11.58.58,0,0,1-.05-.14h0l-.1,0h-.15l-.08,0,0,0a.35.35,0,0,1,.12.07.6.6,0,0,1,.13.09.43.43,0,0,1,.09.1.11.11,0,0,1,0,.13h0l-.17,0a.3.3,0,0,1-.14-.11l-.11-.13a.24.24,0,0,1-.05-.16l-.16,0a1.84,1.84,0,0,1,.17.22l.05.07a.43.43,0,0,1,0,.07s0,.06,0,.09,0,.06,0,.08,0,0,0,0l0,0,0,0-.07-.06a.33.33,0,0,1-.11-.15.32.32,0,0,0,0-.09.15.15,0,0,1,0-.07.22.22,0,0,1,0-.08v0h0l0,0-.15,0-.15,0s0-.05,0,0l.14,0,.13,0,.06,0h0a.15.15,0,0,1,.06-.05l.08,0,.16-.05.21,0h.07s0,0,0,0l-.06,0-.07.05-.13.08-.12,0a.33.33,0,0,0,.13,0l.13-.07.07,0,.08,0,.15,0a.3.3,0,0,1,.13,0s0,0,0,0a.71.71,0,0,1-.14.1l-.14.07h-.05l.13,0h0v0l0,0,.05,0,.1-.06h0l.05,0h.1S28.22,60.12,28.21,60.13Z"/><path class="cls-5" d="M24.94,58.4l.1-.11.09-.1.06-.11a.49.49,0,0,0,0,.12h0a.56.56,0,0,0-.11.26,1,1,0,0,0,0,.17.51.51,0,0,0,.07.15h0a.48.48,0,0,0,.08-.27,1.09,1.09,0,0,0,0-.18.25.25,0,0,0,0-.12,1.63,1.63,0,0,1,0-.31v0a1.32,1.32,0,0,0,0,.28l0,.09a.2.2,0,0,0,0,.08.27.27,0,0,0,.12.09h0a.19.19,0,0,0,0-.08s0-.06,0-.08,0-.06,0-.08a.28.28,0,0,1,0-.09.31.31,0,0,0-.06-.16.45.45,0,0,0-.1-.14h0l0-.12v0l0-.06,0-.05h0a.36.36,0,0,1,0-.09.08.08,0,0,0,0,0,.5.5,0,0,0,0,.17,1.09,1.09,0,0,0,0,.18.3.3,0,0,0,.05.16s.07.08.12.07a0,0,0,0,0,0,0l0-.19a.55.55,0,0,0,0-.18,1.46,1.46,0,0,0,0-.2.26.26,0,0,0-.07-.16l.08-.16a1.45,1.45,0,0,0,0,.3.29.29,0,0,0,0,.09.2.2,0,0,0,0,.08s0,0,.06.07,0,0,.07,0h0a.09.09,0,0,0,0,0V57.5a.53.53,0,0,0,0-.18l0-.08a.32.32,0,0,0,0-.09l0-.07,0,0v0l0,0a.43.43,0,0,1,.11-.12l.12-.11s0-.05,0,0l-.1.1a.47.47,0,0,0-.1.1l-.05.07h0v0h-.08l-.08,0a.65.65,0,0,0-.15.1,1.09,1.09,0,0,0-.18.19l0,.06,0,0s0,0,0,0l.08,0,.08,0,.14-.07.12-.08s-.05.1-.07.16a.19.19,0,0,0-.13.07l-.07.06-.06.07-.11.17a.48.48,0,0,0-.05.17s0,0,0,0l.14-.14.13-.12,0,0a1,1,0,0,0,0,.17v.06h0s0,0-.06,0l-.05,0a.31.31,0,0,0-.08.11s0,0,0,.06a.09.09,0,0,0,0,.06.8.8,0,0,0,0,.15S24.93,58.4,24.94,58.4Z"/><path class="cls-6" d="M26.82,59.85c-.15,0-.15-.1-.3-.22.06.07.15.21.11.23a.19.19,0,0,1-.2-.11c-.05-.07-.09-.17-.13-.21l.13.21s0,0,0,.07-.13,0-.17-.12l-.09-.18-.07-.19a1.67,1.67,0,0,0,.08.3v0s0,0-.05,0a.33.33,0,0,1-.14-.23c0-.1,0-.19-.06-.28,0,.1,0,.24,0,.3s0,0,0,0-.05-.09-.07-.15,0-.36,0-.35,0,.14,0,.22,0,.08,0,.07h0c-.06,0,0-.15,0-.24a2.81,2.81,0,0,0,0-.29c0,.1,0,.3-.07.32s-.08-.11-.07-.19a1.4,1.4,0,0,1,.11-.4l-.15.29s0,0,0,0h0a.38.38,0,0,1,0-.31l.1-.24a1.12,1.12,0,0,1,.16-.22.85.85,0,0,1,.09.19.52.52,0,0,0,.26.34s.06,0,0,.07-.05,0-.07,0a.28.28,0,0,1-.15-.08.63.63,0,0,0,.31.19s.06,0,.05.05a0,0,0,0,1,0,0h-.06a.44.44,0,0,1-.2-.08.74.74,0,0,0,.32.19c.07,0,.14,0,.16.1a.08.08,0,0,1,0,0,.08.08,0,0,1-.09,0,.43.43,0,0,1-.2-.06.49.49,0,0,0,.32.1c.06,0,.12,0,.15,0v0l-.05,0h-.21a.93.93,0,0,0,.41,0s0,0,.06,0a.09.09,0,0,1,0,0s0,0-.06,0a.49.49,0,0,1-.24,0,.9.9,0,0,0,.28,0c.07,0,.18,0,.17.05s-.13.07-.21.06c.1,0,.22,0,.24.08s0,0-.08,0h-.15C26.86,59.71,26.9,59.87,26.82,59.85Z"/><path class="cls-5" d="M26.64,58.66h-.13l-.12,0-.09-.05.05.08h0a.46.46,0,0,1,.21.1.3.3,0,0,1,.1.2h0a.21.21,0,0,1-.2-.09.76.76,0,0,1-.08-.11s0-.05,0-.08a2.39,2.39,0,0,0-.13-.21l0,0a.56.56,0,0,1,.06.21.22.22,0,0,1,0,.08v.06a.22.22,0,0,1-.05.12h0l0-.06,0,0a.19.19,0,0,1,0-.07l0-.07a.26.26,0,0,1,0-.15.53.53,0,0,1,.06-.14h0l-.06-.09h0l0-.05a.05.05,0,0,1,0,0h0a.25.25,0,0,1,0-.07v0s0,.09,0,.14,0,.1,0,.15a.66.66,0,0,1,0,.14s0,.09-.08.1h0a1.19,1.19,0,0,1-.09-.15.52.52,0,0,1,0-.17.55.55,0,0,1,0-.18A.23.23,0,0,1,25.9,58l-.08-.14a1.24,1.24,0,0,1,0,.27.19.19,0,0,1,0,.08.11.11,0,0,1,0,.08.35.35,0,0,1-.05.08.15.15,0,0,1-.05.06h0a.09.09,0,0,1,0,0v-.14a.38.38,0,0,1,0-.18.3.3,0,0,0,0-.08s0-.06,0-.08l.05-.06,0,0h0v0a.83.83,0,0,0-.08-.12.6.6,0,0,1-.09-.13s0,0,0,0a.44.44,0,0,0,.08.11.75.75,0,0,1,.07.12l0,.06h0v0h.08l.08,0,.15.09a1,1,0,0,1,.17.12l0,0v0s0,0,0,0H26.2l-.15,0L25.94,58l.07.13a.21.21,0,0,1,.13,0l.08,0,.07,0,.13.09.1.08s0,0,0,0l-.18,0a.44.44,0,0,1-.15,0l0,0,.07.11,0,0h.14l.11,0,0,0,0,0,.08.07S26.65,58.66,26.64,58.66Z"/><path class="cls-5" d="M25.44,55h.28l.12,0a.22.22,0,0,0-.09.07h0a.52.52,0,0,0-.27.1.44.44,0,0,0-.19.27s0,0,0,0a.46.46,0,0,0,.26-.13l.13-.12s.06-.06.07-.1a1.18,1.18,0,0,1,.25-.19l0,0a1.24,1.24,0,0,0-.19.21.36.36,0,0,0,0,.09.2.2,0,0,0,0,.08.33.33,0,0,0,0,.14s0,0,0,0l.05-.06.06-.05A.13.13,0,0,0,26,55.2l.06-.07a.34.34,0,0,0,.09-.15l0-.17h0l.11,0h0l.06,0,0,0h0l.09,0,0,0-.13.1a.8.8,0,0,0-.13.13.36.36,0,0,0-.08.15.1.1,0,0,0,0,.13h0l.16-.11a.49.49,0,0,0,.12-.13,1.63,1.63,0,0,0,.11-.17.33.33,0,0,0,.07-.16l.18-.05a1.45,1.45,0,0,0-.21.22l-.05.08a.19.19,0,0,0,0,.08.41.41,0,0,0,0,.18h0l0,0,0,0,.07-.07a.4.4,0,0,0,.1-.15s0-.06,0-.08a.3.3,0,0,0,0-.08.24.24,0,0,0,0-.08s0,0,0,0v0h0a.43.43,0,0,1,.16,0h.16s0,0,0,0H27l-.09,0h0a.15.15,0,0,0-.06,0l-.08,0-.18,0h-.35s0,0,0,0l.07,0,.07,0,.16,0a.58.58,0,0,0,.14,0l-.17.06a.25.25,0,0,0-.13,0H26.1l-.2,0a.85.85,0,0,0-.17.08,0,0,0,0,0,0,0h.2a.91.91,0,0,0,.17,0h.05l-.15.09-.05,0h0l-.06,0h-.2l-.07,0-.06,0-.13.09S25.42,55,25.44,55Z"/><path class="cls-6" d="M25.85,57.47c-.07-.13,0-.18-.06-.36,0,.09,0,.26-.07.24a.2.2,0,0,1-.08-.22c0-.09.06-.18.07-.24l-.06.23s0,.07,0,.07,0,0,0-.07a.57.57,0,0,1,0-.13,2.46,2.46,0,0,1,.14-.38c0,.09-.11.18-.15.27h0s0,0,0,0a.33.33,0,0,1,0-.14l.06-.13.16-.24c-.08.06-.16.18-.21.21s0,0-.05,0a.28.28,0,0,1,.06-.15c.06-.1.27-.26.24-.27s-.11.1-.17.15-.06.05-.08,0a0,0,0,0,1,0,0c0-.07.09-.14.15-.19l.22-.2-.16.12s-.09.07-.12.06,0-.14.09-.19a1.22,1.22,0,0,1,.35-.2,1.86,1.86,0,0,0-.31.1h-.06v0a.38.38,0,0,1,.23-.2l.25-.1a.71.71,0,0,1,.26,0,.73.73,0,0,0,0,.08l-.05.11a.55.55,0,0,0-.06.43s0,.07,0,.07-.06,0-.07,0a.3.3,0,0,1-.05-.15.72.72,0,0,0,.08.35,0,0,0,0,1,0,.07h-.06l-.05,0a.52.52,0,0,1-.09-.2.75.75,0,0,0,.1.36c0,.06.07.13,0,.18l0,0a.1.1,0,0,1-.09,0,.39.39,0,0,1-.1-.19.47.47,0,0,0,.16.3s.08.08.07.13a0,0,0,0,1,0,0,.07.07,0,0,1-.06,0,.36.36,0,0,1-.15-.15,1,1,0,0,0,.25.32s0,0,0,.06l-.06,0-.06,0a.52.52,0,0,1-.17-.16.92.92,0,0,0,.17.22c.05.05.12.14.08.16a.26.26,0,0,1-.18-.11c.05.09.12.19.11.23s-.08,0-.1,0l-.09-.11C26,57.4,25.89,57.55,25.85,57.47Z"/><path class="cls-5" d="M26.57,56.5s-.06-.06-.09-.09a.61.61,0,0,1-.07-.1.17.17,0,0,1,0-.1.29.29,0,0,0,0,.09h0a.42.42,0,0,1,.08.22.2.2,0,0,1,0,.11.31.31,0,0,1-.05.1h0a.21.21,0,0,1-.08-.21.51.51,0,0,1,0-.13.14.14,0,0,1,0-.09.86.86,0,0,0,.06-.23v0a.78.78,0,0,1-.11.2l0,.05,0,0a.26.26,0,0,1-.12.05h0s0,0,0-.07a.13.13,0,0,0,0-.06.09.09,0,0,1,0-.07l0-.07a.32.32,0,0,1,.1-.1.39.39,0,0,1,.14,0h0l0-.1v-.09a.09.09,0,0,1,0,0h0s0-.05,0-.08,0,0,0,0a.35.35,0,0,1-.07.12l-.09.13a.43.43,0,0,1-.1.09.12.12,0,0,1-.14,0h0l.05-.17a.36.36,0,0,1,.1-.14l.14-.11a.24.24,0,0,1,.16,0l0-.16a1.73,1.73,0,0,1-.21.17l-.07,0-.07,0-.09,0H26s0,0,0,0l0,0,0,0,.06-.07a.25.25,0,0,1,.15-.11l.08,0s.05,0,.08,0h.13v0a.83.83,0,0,0,0-.15.77.77,0,0,1,0-.15,0,0,0,0,1,0,0,.59.59,0,0,0,0,.14l0,.13,0,.06h0v0h0s0,0,0,.06l0,.08a.94.94,0,0,1,0,.16.76.76,0,0,1,0,.21v.07s0,0,0,0l0-.06-.05-.07-.08-.13a.56.56,0,0,1,0-.12l0,.13a.24.24,0,0,1,.07.13l0,.07s0,0,0,.08l0,.15a.28.28,0,0,1,0,.13s0,0,0,0l-.09-.14L26.44,56v0l0,.13v.05h0l0,0,0,.05a.47.47,0,0,1,.05.1l0,.05s0,0,0,0a.34.34,0,0,1,0,.1Z"/><path class="cls-5" d="M28.16,53.23s.07.07.1.1l.11.08a.24.24,0,0,0,.11.06h-.13a.55.55,0,0,0-.26-.1h-.17l-.15.07s0,0,0,0a.44.44,0,0,0,.28.08h.17s.09,0,.12,0a1.15,1.15,0,0,1,.32,0h.05a1.35,1.35,0,0,0-.29,0l-.09,0-.07,0a.26.26,0,0,0-.09.12v0l.09,0h.07l.08,0h.09a.31.31,0,0,0,.16-.06l.14-.11h0l.12,0H29l.06,0,.05,0h0l.09,0h-.05a.42.42,0,0,0-.16,0h-.18a.44.44,0,0,0-.16.06s-.08.07-.06.12h0l.19,0a.55.55,0,0,0,.18,0,1.39,1.39,0,0,0,.19-.06.33.33,0,0,0,.16-.07l.16.07-.3,0-.08,0a.2.2,0,0,0-.08,0A.46.46,0,0,0,29,54s0,0-.05.07,0,0,0,0H29l.1,0a.47.47,0,0,0,.17,0l.08,0s.06,0,.08,0a.18.18,0,0,0,.07,0l0,0h0l0,0a.4.4,0,0,1,.12.1,1.14,1.14,0,0,0,.11.11s.05,0,0,0l-.1-.1a.52.52,0,0,0-.11-.1l-.07,0h0a.19.19,0,0,0,0-.08.2.2,0,0,0,0-.08l-.11-.15a1.12,1.12,0,0,0-.2-.17l-.05,0h0s0,0,0,0l0,.07,0,.08a1,1,0,0,0,.08.14l.08.12-.16-.07a.19.19,0,0,0-.07-.12L29,53.42l-.07-.06-.17-.1a.41.41,0,0,0-.18,0s0,0,0,0l.14.14.12.12.05,0-.17,0h-.06a.07.07,0,0,0,0-.06l0,0-.11-.08-.07,0-.06,0h-.15S28.15,53.22,28.16,53.23Z"/><path class="cls-6" d="M26.84,55.11c0-.15.11-.15.22-.3-.06.06-.21.15-.22.11s0-.15.1-.2.17-.09.22-.13l-.21.13s-.05,0-.07,0,.05-.13.11-.17l.19-.09.18-.07a1.57,1.57,0,0,0-.29.08h0a0,0,0,0,1,0-.05.33.33,0,0,1,.23-.14,2.8,2.8,0,0,1,.28-.06c-.1,0-.24,0-.3,0s0,0,0,0,.09-.05.15-.07.36,0,.35,0-.15,0-.22,0-.08,0-.08,0a0,0,0,0,1,0,0c.06-.06.16,0,.24,0A2.81,2.81,0,0,0,28,54c-.1,0-.3,0-.32-.07s.12-.08.2-.07a1.4,1.4,0,0,1,.4.11l-.3-.15a0,0,0,0,1,0,0l0,0a.38.38,0,0,1,.31,0l.24.1a.83.83,0,0,1,.21.16.72.72,0,0,1-.18.09.52.52,0,0,0-.35.26s0,.06-.06,0,0,0,0-.07a.28.28,0,0,1,.08-.15.58.58,0,0,0-.2.31s0,.06,0,0a.07.07,0,0,1-.05,0v-.06a.59.59,0,0,1,.07-.2.64.64,0,0,0-.18.32c0,.07,0,.14-.1.16h0a.11.11,0,0,1,0-.09.43.43,0,0,1,.07-.2.5.5,0,0,0-.11.32c0,.06,0,.12,0,.15h0a.05.05,0,0,1,0-.05.37.37,0,0,1,0-.21.8.8,0,0,0-.05.41s0,0,0,.06,0,0-.06,0a.08.08,0,0,1,0-.05.66.66,0,0,1,0-.24,1.33,1.33,0,0,0,0,.28c0,.07,0,.18-.06.17a.3.3,0,0,1-.05-.21.59.59,0,0,1-.08.24S27,55.23,27,55.2a.38.38,0,0,1,0-.15C27,55.15,26.82,55.19,26.84,55.11Z"/><path class="cls-5" d="M28,54.93a.57.57,0,0,1,0-.13l0-.12a.36.36,0,0,1,0-.09l-.07,0h0a.59.59,0,0,1-.1.21.32.32,0,0,1-.2.1l0,0a.23.23,0,0,1,.1-.2l.1-.08s.06,0,.09,0a1.37,1.37,0,0,0,.2-.13l0,0a.56.56,0,0,1-.21.06h-.15a.31.31,0,0,1-.12,0v0l.07,0,.05,0,.07,0,.07,0a.22.22,0,0,1,.14,0,.35.35,0,0,1,.14.06h0l.08-.06h0l.05,0,0,0h0l.07,0h0l-.13,0-.15,0h-.14c-.05,0-.09,0-.1-.08h0l.16-.09a.47.47,0,0,1,.17,0h.18c.05,0,.11,0,.14.08l.15-.08-.28,0-.08,0a.13.13,0,0,1-.08,0l-.07,0-.07-.05s0,0,0,0h.19a.38.38,0,0,1,.18,0,.2.2,0,0,0,.08,0l.08,0,.06,0,0,0h.05l.12-.08a.6.6,0,0,1,.13-.09s0,0,0,0l-.11.08a.41.41,0,0,1-.11.07l-.07,0h0a.19.19,0,0,1,0,.07.19.19,0,0,1,0,.08.71.71,0,0,1-.08.15,1.09,1.09,0,0,1-.13.17l0,0h0s0,0,0,0v-.08s0-.06,0-.08a.83.83,0,0,1,0-.15.24.24,0,0,1,.06-.11l-.13.07a.61.61,0,0,1,0,.13l0,.08a.16.16,0,0,1,0,.07l-.08.13a.81.81,0,0,1-.09.1l0,0a1.16,1.16,0,0,1,0-.18.83.83,0,0,1,0-.15l0,0a.41.41,0,0,0-.11.07l0,0v.08s0,0,0,.06a.49.49,0,0,1,0,.11l0,0s0,0,0,0l-.07.08S28,54.94,28,54.93Z"/><path class="cls-5" d="M31.61,53.88a.88.88,0,0,0,0,.16.89.89,0,0,0,0,.14.37.37,0,0,0,.05.11l-.1-.08h0a.51.51,0,0,0-.14-.26.51.51,0,0,0-.31-.15s0,0,0,0a.37.37,0,0,0,.17.24l.14.11a.24.24,0,0,0,.12.07,1.2,1.2,0,0,1,.23.22l0,0a1.32,1.32,0,0,0-.25-.16l-.09,0-.09,0a.27.27,0,0,0-.15,0s0,0,0,0l.07,0,.06.06.07,0,.08.05a.35.35,0,0,0,.17.06.54.54,0,0,0,.18,0h0l.07.11v0l0,0,0,.06,0,.05h0l0,.09,0,0L32,54.78l-.15-.11a.49.49,0,0,0-.17-.06c-.05,0-.11,0-.13.06h0l.13.15.16.1L32,55a.33.33,0,0,0,.17,0l.08.17a1.45,1.45,0,0,0-.26-.17l-.08,0-.09,0h-.1l-.08,0s0,0,0,0l0,0,0,0,.08,0a.42.42,0,0,0,.18.08l.09,0s.05,0,.08,0h.15l0,0a.45.45,0,0,1,0,.16,1,1,0,0,0,0,.17s0,0,0,0a.66.66,0,0,1,0-.14.8.8,0,0,0,0-.15s0-.06,0-.08h0v0h0a.25.25,0,0,0,0-.07.32.32,0,0,0,0-.09,1.21,1.21,0,0,0,0-.19.81.81,0,0,0-.05-.27l0-.07s0,0,0,0,0,0,0,0l0,.08,0,.08,0,.17s0,.1,0,.15a.51.51,0,0,0-.09-.16.25.25,0,0,0,0-.15v-.1a.44.44,0,0,0,0-.1,1.46,1.46,0,0,0-.07-.19.36.36,0,0,0-.11-.16s0,0,0,0l0,.21a1.21,1.21,0,0,0,0,.19s0,0,0,.05a1.34,1.34,0,0,0-.11-.14l-.05-.05h0a.25.25,0,0,0,0-.07s0,0,0-.07a.89.89,0,0,0,0-.14l0-.07,0-.06a.57.57,0,0,0-.11-.11S31.61,53.87,31.61,53.88Z"/><path class="cls-6" d="M29.22,54.14c.13-.07.18,0,.37-.06-.09,0-.26,0-.24-.07s.13-.09.22-.08l.24.07-.24-.06s-.06,0-.06,0,0,0,.07,0a.29.29,0,0,1,.13,0,2.35,2.35,0,0,1,.37.14,2.2,2.2,0,0,0-.26-.15h0a0,0,0,0,1,0-.05H30l.13.06.24.16c-.07-.08-.18-.16-.22-.21s0,0,0-.05a.32.32,0,0,1,.15.06c.1.06.25.27.26.24s-.09-.11-.15-.17,0-.06,0-.08h0c.08,0,.14.09.2.15s.12.14.19.22a.76.76,0,0,0-.11-.16s-.07-.09-.06-.12.14,0,.19.09a1.22,1.22,0,0,1,.2.35c0-.11-.06-.2-.1-.31s0-.05,0-.06h0a.4.4,0,0,1,.21.23c0,.09.07.17.1.25a1,1,0,0,1,0,.26l-.08,0-.12,0a.54.54,0,0,0-.43-.06s-.06,0-.07,0a.08.08,0,0,1,0-.07.33.33,0,0,1,.16,0,.72.72,0,0,0-.35.08s-.06,0-.07,0a.06.06,0,0,1,0-.06l0-.05a.55.55,0,0,1,.19-.09.71.71,0,0,0-.35.1c-.06,0-.13.07-.19,0l0,0a.08.08,0,0,1,0-.09.39.39,0,0,1,.19-.1.52.52,0,0,0-.31.16s-.08.08-.12.07h0a.07.07,0,0,1,0-.06.36.36,0,0,1,.15-.15.9.9,0,0,0-.33.25s0,0-.05,0,0,0,0-.06a.11.11,0,0,1,0-.06.55.55,0,0,1,.17-.17,1,1,0,0,0-.23.17c0,.05-.13.12-.15.08s0-.13.1-.18-.19.12-.22.11,0-.08,0-.1a1.06,1.06,0,0,1,.11-.09C29.29,54.27,29.15,54.18,29.22,54.14Z"/><path class="cls-5" d="M30.19,54.86a.81.81,0,0,1,.1-.09l.1-.07a.16.16,0,0,1,.09,0l-.08,0h0a.37.37,0,0,1-.21.08l-.11,0a.31.31,0,0,1-.1-.05s0,0,0,0a.2.2,0,0,1,.21-.08l.13,0s.07,0,.08,0a.94.94,0,0,0,.24.06h0a.78.78,0,0,1-.2-.11l-.06,0-.05-.05s0-.08,0-.12,0,0,0,0l.06,0h.07a.11.11,0,0,1,.07,0l.06,0a.27.27,0,0,1,.11.1.78.78,0,0,1,.05.14h0l.1,0H31l.08,0h0l-.12-.07-.12-.09-.1-.1a.14.14,0,0,1,0-.14h0l.17,0a.45.45,0,0,1,.14.1,1.34,1.34,0,0,1,.11.14.24.24,0,0,1,.05.16l.16,0a1.73,1.73,0,0,1-.17-.21l-.05-.07a.1.1,0,0,1,0-.07.29.29,0,0,1,0-.09s0-.06,0-.09,0,0,0,0l0,0,0,0,.07.06a.25.25,0,0,1,.11.15.24.24,0,0,0,0,.08l0,.08a.25.25,0,0,0,0,.08v0h0l.14,0,.16,0a0,0,0,0,1,0,0l-.14,0-.13,0-.07,0h0s0,0-.06,0l-.08,0-.16,0-.21,0h-.07s0,0,0,0l.06-.06.06,0,.14-.08.12,0-.14,0a.21.21,0,0,1-.12.07l-.08,0-.07,0-.15,0h-.14s0,0,0,0l.15-.09.14-.08h.05l-.14,0h-.05v0l-.05,0,0,0-.1.05,0,0H30.2S30.19,54.87,30.19,54.86Z"/><path class="cls-5" d="M33.48,56.81l-.1.1a.76.76,0,0,0-.08.11.3.3,0,0,0-.06.11V57h0a.63.63,0,0,0,.1-.27.5.5,0,0,0,0-.17.51.51,0,0,0-.07-.15s0,0,0,0a.45.45,0,0,0-.07.28c0,.06,0,.12,0,.17s0,.09,0,.12a1.69,1.69,0,0,1,0,.32v0a.86.86,0,0,0,0-.28l0-.09s0-.05,0-.08a.32.32,0,0,0-.12-.08s0,0,0,0,0,.06,0,.08A.22.22,0,0,1,33,57a.24.24,0,0,0,0,.08s0,.06,0,.09a.31.31,0,0,0,.06.16,1.5,1.5,0,0,0,.11.13h0l0,.13v.1a.14.14,0,0,0,0,.06h0l0,.09a.06.06,0,0,1,0,0,1,1,0,0,0,0-.17c0-.06,0-.12,0-.18a.51.51,0,0,0-.07-.15.1.1,0,0,0-.12-.06h0v.19a.55.55,0,0,0,0,.18l.06.19s0,.12.08.15l-.07.17a1.57,1.57,0,0,0,0-.3.19.19,0,0,0,0-.08.36.36,0,0,0,0-.09l-.07-.06s0,0-.07,0h0a.08.08,0,0,0,0,0v0l0,.1a.48.48,0,0,0,0,.17s0,0,0,.08l0,.08.06.07,0,0v0l0,0a.58.58,0,0,1-.1.12l-.11.11a0,0,0,0,0,0,0l.09-.1a.31.31,0,0,0,.09-.11l0-.07h0v0h0l.08,0s0,0,.08,0l.14-.11a.87.87,0,0,0,.17-.21l0,0,0,0s0,0,0,0l-.07,0-.08,0-.14.08-.11.09.06-.16a.2.2,0,0,0,.12-.08l.07-.06.06-.08.1-.17a.58.58,0,0,0,0-.18s0,0,0,0l-.14.14a.74.74,0,0,0-.12.13s0,0,0,0a.9.9,0,0,0,0-.16v-.07h0a.09.09,0,0,0,.06,0l0,0a.44.44,0,0,0,.08-.11l0-.07,0-.06a.71.71,0,0,0,0-.15S33.48,56.8,33.48,56.81Z"/><path class="cls-6" d="M31.59,55.13c.14,0,.15.11.3.22-.06-.06-.16-.21-.12-.22s.16,0,.21.1a1.42,1.42,0,0,0,.13.22L32,55.24s0-.05,0-.07.13,0,.16.11l.09.19.08.18c0-.09,0-.2-.08-.29s0,0,0,0,0,0,0,0a.33.33,0,0,1,.14.23l.06.28a2.63,2.63,0,0,0,0-.3s0,0,0,0,0,.09.07.15,0,.36,0,.35,0-.15,0-.22,0-.08,0-.08h0a.38.38,0,0,1,0,.24,2.83,2.83,0,0,0,0,.29c0-.1,0-.3.07-.32s.08.12.07.2a1,1,0,0,1-.11.4,2.1,2.1,0,0,0,.15-.3.07.07,0,0,1,0,0s0,0,0,0a.38.38,0,0,1,0,.31,2.44,2.44,0,0,1-.1.24.8.8,0,0,1-.15.21.72.72,0,0,1-.09-.18.56.56,0,0,0-.27-.35s0,0,0-.06a.06.06,0,0,1,.08,0,.26.26,0,0,1,.14.07.6.6,0,0,0-.3-.19s-.06,0-.06,0l.05-.05h.06a.59.59,0,0,1,.2.07.64.64,0,0,0-.32-.18C32,56,32,56,32,56v0a.13.13,0,0,1,.1,0,.48.48,0,0,1,.2.07.52.52,0,0,0-.33-.11c-.05,0-.12,0-.14,0s0,0,0,0a.05.05,0,0,1,0,0,.41.41,0,0,1,.22,0,.82.82,0,0,0-.41-.05s-.06,0-.06,0a.09.09,0,0,1,0-.06l.06,0a.49.49,0,0,1,.24,0,1.36,1.36,0,0,0-.29,0c-.06,0-.18,0-.16-.06s.12-.06.21-.05a.59.59,0,0,1-.25-.08s.06-.06.09,0,.11,0,.14,0S31.51,55.11,31.59,55.13Z"/><path class="cls-5" d="M31.77,56.33h.13l.12,0,.08,0,0-.07h0a.81.81,0,0,1-.21-.1.37.37,0,0,1-.09-.2v0a.25.25,0,0,1,.21.1l.08.1s0,.06,0,.09a1.32,1.32,0,0,0,.12.2l0,0a.86.86,0,0,1-.07-.21v-.08s0,0,0-.07a.34.34,0,0,1,.06-.12s0,0,0,0,0,0,0,.07l0,0a.14.14,0,0,1,0,.07.64.64,0,0,1,0,.07.23.23,0,0,1,0,.14.37.37,0,0,1-.07.14h0l0,.08,0,0h0l0,.05,0,0h0l0,.07v0a.28.28,0,0,1,0-.13.77.77,0,0,1,0-.15.33.33,0,0,1,0-.14.12.12,0,0,1,.09-.1h0a1.29,1.29,0,0,1,.09.16.47.47,0,0,1,0,.17.55.55,0,0,1,0,.18.23.23,0,0,1-.07.14l.08.15a1.41,1.41,0,0,1,0-.28s0-.05,0-.08,0-.05,0-.08l.05-.07.06-.07h0v.19a.38.38,0,0,1,0,.18.12.12,0,0,0,0,.08l0,.08-.05.06,0,0h0l0,0a.35.35,0,0,0,.08.13l.09.13s0,0,0,0a.76.76,0,0,1-.08-.11.44.44,0,0,1-.08-.11l0-.07h0v0h0l-.08,0-.08,0-.14-.08a.76.76,0,0,1-.17-.13l0,0h0s0,0,0,0h.08l.08,0,.15,0,.11.06-.07-.13a.58.58,0,0,1-.14,0l-.07,0-.07,0L32,56.65s-.08,0-.1-.09,0,0,0,0l.18,0,.14,0,0,0-.07-.11,0,0H32l-.11,0-.05,0,0,0-.08-.07S31.76,56.33,31.77,56.33Z"/><path class="cls-1" d="M27.25,55.15c-.21-.43-.93-.29-.76.21S27.49,55.65,27.25,55.15Z"/><path class="cls-1" d="M26.08,57.74a.11.11,0,0,0,.08,0s.05-.06.07-.1a.39.39,0,0,0,0-.32.31.31,0,0,0-.27-.17c-.17,0-.43.18-.35.37S25.91,57.75,26.08,57.74Z"/><path class="cls-1" d="M27,59.54a.24.24,0,0,0-.34.12c-.12.27,0,.34.08.4s.15,0,.22,0a.24.24,0,0,0,.13-.09.39.39,0,0,0,.08-.14A.27.27,0,0,0,27,59.54Z"/><path class="cls-1" d="M29.3,60.5a.18.18,0,0,0-.19,0c-.06,0-.24.15-.18.32a.38.38,0,0,0,.23.22c.07,0,.16,0,.2,0S29.45,60.62,29.3,60.5Z"/><path class="cls-1" d="M32.07,59.72c-.07-.45-.81-.31-.71.14a.5.5,0,0,0,.35.35C32,60.29,32.1,60,32.07,59.72Z"/><path class="cls-1" d="M32.79,57.13a.31.31,0,0,0-.31-.17.37.37,0,0,0-.19.65C32.57,57.81,32.92,57.41,32.79,57.13Z"/><path class="cls-1" d="M31.65,54.87c-.22-.19-.71.13-.46.41S31.91,55.09,31.65,54.87Z"/><path class="cls-1" d="M29.33,53.9a.28.28,0,0,0-.39,0,.26.26,0,0,0-.06.41.33.33,0,0,0,.38,0A.28.28,0,0,0,29.33,53.9Z"/><path class="cls-5" d="M48.39,26.65a9.11,9.11,0,0,1-6.09-2.33C39.5,21.78,39,19,39.24,17.26c-2,.59-5.23.81-6.86,0A15.19,15.19,0,0,1,27,11.52c-.5,2.69-1.81,6.22-3.26,7.33s-4.77.91-6.42.22c0,1.64-.48,4.29-1.73,5.16a5.12,5.12,0,0,1-5.82-.39.17.17,0,1,1,.25-.22,4.83,4.83,0,0,0,5.38.33c1.13-.78,1.66-3.42,1.58-5.05a1.78,1.78,0,0,1-.53-.39.51.51,0,0,1,0-.74.4.4,0,0,1,.43-.14c.2.06.34.33.41.81,0,.07,0,.16,0,.25,1.43.66,4.65,1.1,6.24-.11s2.78-4.9,3.21-7.54A4.71,4.71,0,0,1,26,8.54a.52.52,0,0,1,.51-.45c.19,0,.45.07.6.48a5.92,5.92,0,0,1,0,2.44c1.11,2.07,3.24,4.78,5.42,5.91,1.64.86,5,.53,6.77,0a2.33,2.33,0,0,1,.43-1,.57.57,0,0,1,.84-.12.48.48,0,0,1,.12.67,2.36,2.36,0,0,1-1.1.67c-.27,1.53.1,4.37,2.92,6.93a8.82,8.82,0,0,0,6.77,2.19.17.17,0,0,1,.18.15.18.18,0,0,1-.15.19C49,26.63,48.7,26.65,48.39,26.65ZM16.78,18s0,0-.08.06-.11.13,0,.28a1.27,1.27,0,0,0,.24.2C16.91,18.09,16.81,18,16.78,18ZM40.22,16c-.06,0-.13,0-.23.14a1.59,1.59,0,0,0-.29.6,1.71,1.71,0,0,0,.72-.45c0-.07.07-.12-.06-.23A.2.2,0,0,0,40.22,16ZM26.56,8.42h0c-.1,0-.17,0-.21.19a3.71,3.71,0,0,0,.51,1.88,4.24,4.24,0,0,0,0-1.8C26.73,8.44,26.62,8.42,26.56,8.42Z"/><path class="cls-7" d="M13.46,25.84a1.68,1.68,0,0,0-.93-1.28c-.39-.17-1,.13-1.19.85-.13.46.4,1.54,1,1.59A1.12,1.12,0,0,0,13.46,25.84Z"/><path class="cls-7" d="M22.38,20.64a1.62,1.62,0,0,0-.93-1.27c-.39-.18-1,.13-1.19.84-.13.46.4,1.54,1,1.6A1.13,1.13,0,0,0,22.38,20.64Z"/><path class="cls-7" d="M37.87,18.75a1.62,1.62,0,0,0-.93-1.27c-.38-.17-1,.13-1.19.84-.13.46.4,1.54,1,1.6A1.13,1.13,0,0,0,37.87,18.75Z"/><path class="cls-7" d="M32.7,18.28a1.17,1.17,0,0,0,.16-1.11c-.11-.29-.57-.43-1-.17-.29.17-.56,1-.3,1.3A.81.81,0,0,0,32.7,18.28Z"/><path class="cls-7" d="M17.44,21.82a.73.73,0,0,0-.82.24c-.42.68.47,1.88,1.28,1.67C18.91,23.46,18.29,22.07,17.44,21.82Z"/><path class="cls-7" d="M23.22,16.15a.7.7,0,0,0-.43.73,1.25,1.25,0,0,0,2.07.34C25.41,16.34,24,15.75,23.22,16.15Z"/><path class="cls-7" d="M41.46,23.07a.7.7,0,0,0-.57-.63A1.26,1.26,0,0,0,40,24.32C40.63,25.11,41.61,23.94,41.46,23.07Z"/><path class="cls-7" d="M45,25.93a.63.63,0,0,0-.77-.08,1.22,1.22,0,0,0,.55,1.91C45.67,27.88,45.59,26.45,45,25.93Z"/><path class="cls-7" d="M29.28,14.6a.71.71,0,0,0-.6-.6,1.25,1.25,0,0,0-.83,1.93C28.57,16.68,29.48,15.46,29.28,14.6Z"/></g></g></svg>