<svg xmlns="http://www.w3.org/2000/svg" viewBox="0 0 242.57 253.18"><defs><style>.cls-1{fill:#fa8573;}.cls-2{fill:#fde8ca;}.cls-3{fill:#c86e29;}.cls-4{fill:#f2b669;}.cls-5{fill:#4c6b51;}</style></defs><g id="Layer_2" data-name="Layer 2"><g id="Map_with_elements" data-name="Map with elements"><path class="cls-1" d="M148.42,108.58C146.33,95.31,130,21.07,97.91,21.07S48.72,98.9,47.29,108.58s-3.88,125.87,0,130.2,97.86,5,101.23,0S150.52,121.85,148.42,108.58Z"/><path class="cls-2" d="M140,212.06v.26"/><path class="cls-2" d="M95.19,47.82a1.27,1.27,0,1,1-1.27-1.27A1.27,1.27,0,0,1,95.19,47.82Z"/><path class="cls-2" d="M105.36,38a1.06,1.06,0,1,1-1.06-1.07A1.06,1.06,0,0,1,105.36,38Z"/><path class="cls-2" d="M116.35,51.36a1.17,1.17,0,1,1-1.17-1.17A1.17,1.17,0,0,1,116.35,51.36Z"/><path class="cls-2" d="M79.32,61.68a1.18,1.18,0,1,1-1.17-1.18A1.17,1.17,0,0,1,79.32,61.68Z"/><circle class="cls-2" cx="66.59" cy="87.8" r="1.21"/><path class="cls-2" d="M91.27,99.44a.66.66,0,0,1-1.32,0,.66.66,0,0,1,1.32,0Z"/><path class="cls-2" d="M60.51,108.3a.75.75,0,0,1-.75.76.76.76,0,0,1-.76-.76.75.75,0,0,1,.76-.75A.74.74,0,0,1,60.51,108.3Z"/><path class="cls-2" d="M83,105.26a1.14,1.14,0,1,1-1.13-1.13A1.14,1.14,0,0,1,83,105.26Z"/><path class="cls-2" d="M108.64,106.42a1.07,1.07,0,1,1-1.07-1.07A1.07,1.07,0,0,1,108.64,106.42Z"/><path class="cls-2" d="M119.28,95.45a.85.85,0,1,1-.85-.85A.85.85,0,0,1,119.28,95.45Z"/><path class="cls-2" d="M139.34,111.34a1,1,0,1,1-1-1A1,1,0,0,1,139.34,111.34Z"/><path class="cls-2" d="M127.21,85a.64.64,0,1,1-.64-.64A.64.64,0,0,1,127.21,85Z"/><path class="cls-2" d="M119,112.53a1.26,1.26,0,1,1-1.26-1.26A1.26,1.26,0,0,1,119,112.53Z"/><path class="cls-2" d="M104.9,94.19a1.27,1.27,0,0,1-2.53,0,1.27,1.27,0,1,1,2.53,0Z"/><path class="cls-2" d="M144.22,124.9a1,1,0,1,1-1-1A1,1,0,0,1,144.22,124.9Z"/><path class="cls-2" d="M141.14,138.5a.9.9,0,1,1-.9-.9A.9.9,0,0,1,141.14,138.5Z"/><path class="cls-2" d="M147.05,151.58a1,1,0,1,1-1-1A1,1,0,0,1,147.05,151.58Z"/><path class="cls-2" d="M142,161.7a1,1,0,1,1-1-1A1,1,0,0,1,142,161.7Z"/><path class="cls-2" d="M146.47,176.38a.92.92,0,1,1-.92-.92A.92.92,0,0,1,146.47,176.38Z"/><path class="cls-2" d="M129.48,105.26a1.16,1.16,0,1,1-1.16-1.15A1.16,1.16,0,0,1,129.48,105.26Z"/><path class="cls-2" d="M95.09,127.8a1.17,1.17,0,1,1-1.17-1.17A1.16,1.16,0,0,1,95.09,127.8Z"/><path class="cls-2" d="M107.84,131.68a1.24,1.24,0,1,1-1.24-1.23A1.24,1.24,0,0,1,107.84,131.68Z"/><circle class="cls-2" cx="94.81" cy="147.28" r="0.88"/><path class="cls-2" d="M104.37,155.7a.74.74,0,1,1-.73-.74A.73.73,0,0,1,104.37,155.7Z"/><circle class="cls-2" cx="92.41" cy="169.04" r="1.01"/><path class="cls-2" d="M73.48,184.23A1.22,1.22,0,1,1,72.26,183,1.22,1.22,0,0,1,73.48,184.23Z"/><path class="cls-2" d="M69.14,175.87a.78.78,0,0,1-.78.78.78.78,0,1,1,.78-.78Z"/><path class="cls-2" d="M51.51,165.5a.87.87,0,1,1-.86-.87A.87.87,0,0,1,51.51,165.5Z"/><path class="cls-2" d="M55.07,148a1.14,1.14,0,1,1-1.13-1.14A1.14,1.14,0,0,1,55.07,148Z"/><path class="cls-2" d="M49.74,125.76a.87.87,0,1,1-.86-.86A.87.87,0,0,1,49.74,125.76Z"/><path class="cls-2" d="M57.78,122.22a1.06,1.06,0,0,1-2.12,0,1.06,1.06,0,0,1,2.12,0Z"/><path class="cls-2" d="M57,132.34A1.08,1.08,0,1,1,56,131.27,1.08,1.08,0,0,1,57,132.34Z"/><path class="cls-2" d="M59,173.34a1.25,1.25,0,1,1-1.25-1.24A1.25,1.25,0,0,1,59,173.34Z"/><path class="cls-2" d="M51.15,185a1,1,0,1,1-1-1A1,1,0,0,1,51.15,185Z"/><path class="cls-2" d="M66.8,194.1a.72.72,0,1,1-.71-.72A.71.71,0,0,1,66.8,194.1Z"/><circle class="cls-2" cx="75.96" cy="203.97" r="0.67"/><path class="cls-2" d="M68.53,214.85a1.18,1.18,0,1,1-1.18-1.18A1.18,1.18,0,0,1,68.53,214.85Z"/><path class="cls-2" d="M55.36,207a.92.92,0,1,1-.92-.91A.92.92,0,0,1,55.36,207Z"/><circle class="cls-2" cx="56.21" cy="194.86" r="1.01"/><path class="cls-2" d="M52.27,219.4a.87.87,0,1,1-.86-.86A.87.87,0,0,1,52.27,219.4Z"/><path class="cls-2" d="M63,227.25A1.24,1.24,0,1,1,61.78,226,1.24,1.24,0,0,1,63,227.25Z"/><path class="cls-2" d="M72.85,231.3a.69.69,0,1,1-.69-.69A.69.69,0,0,1,72.85,231.3Z"/><path class="cls-2" d="M54.77,235.1a.83.83,0,0,1-.83.83.84.84,0,1,1,.83-.83Z"/><path class="cls-2" d="M84.49,180.48a1.23,1.23,0,1,1-1.23-1.23A1.22,1.22,0,0,1,84.49,180.48Z"/><path class="cls-2" d="M105.32,172.58a.77.77,0,0,1-.77.77.77.77,0,1,1,.77-.77Z"/><path class="cls-2" d="M118.82,179.25a1.11,1.11,0,1,1-1.11-1.1A1.11,1.11,0,0,1,118.82,179.25Z"/><path class="cls-2" d="M132.94,175.87a.94.94,0,1,1-.94-.94A.95.95,0,0,1,132.94,175.87Z"/><path class="cls-2" d="M142.26,187.26a1,1,0,1,1-1-1A1,1,0,0,1,142.26,187.26Z"/><path class="cls-2" d="M128.32,192.27a1.11,1.11,0,1,1-1.11-1.11A1.11,1.11,0,0,1,128.32,192.27Z"/><path class="cls-2" d="M145,199.36a.81.81,0,1,1-.81-.81A.81.81,0,0,1,145,199.36Z"/><path class="cls-2" d="M130.64,206.07a.78.78,0,1,1-.78-.78A.78.78,0,0,1,130.64,206.07Z"/><path class="cls-2" d="M127.29,221.68a1,1,0,1,1-1-1A1,1,0,0,1,127.29,221.68Z"/><path class="cls-2" d="M143.41,223a1.15,1.15,0,1,1-1.15-1.15A1.15,1.15,0,0,1,143.41,223Z"/><path class="cls-2" d="M131.38,230.54a.76.76,0,1,1-.76-.76A.76.76,0,0,1,131.38,230.54Z"/><path class="cls-2" d="M140.45,233.78a1.11,1.11,0,1,1-1.11-1.11A1.11,1.11,0,0,1,140.45,233.78Z"/><path class="cls-2" d="M105.82,144.49h0"/><path class="cls-2" d="M71.15,113.11v.25"/><path class="cls-2" d="M92.66,34.91h.25"/><path class="cls-2" d="M115.69,89.83l.25.25"/><path class="cls-2" d="M125.24,115l1,1"/><path class="cls-2" d="M69,99.44a1.16,1.16,0,1,1-1.15-1.15A1.16,1.16,0,0,1,69,99.44Z"/><path class="cls-2" d="M72.08,111.34a1.19,1.19,0,1,1-1.19-1.19A1.19,1.19,0,0,1,72.08,111.34Z"/><path class="cls-2" d="M89.79,114.88a.93.93,0,1,1-1.86,0,.93.93,0,1,1,1.86,0Z"/><path class="cls-2" d="M101.64,141a.67.67,0,1,1-.66-.67A.67.67,0,0,1,101.64,141Z"/><circle class="cls-2" cx="89.87" cy="157.65" r="0.74"/><path class="cls-2" d="M121.17,65.28a.93.93,0,1,1-.93-.93A.93.93,0,0,1,121.17,65.28Z"/><path class="cls-2" d="M133.45,92.86a1.06,1.06,0,1,1-2.11,0,1.06,1.06,0,0,1,2.11,0Z"/><path class="cls-2" d="M104.24,54.66A1.25,1.25,0,1,1,103,53.41,1.24,1.24,0,0,1,104.24,54.66Z"/><path class="cls-2" d="M92.86,31.62a1.21,1.21,0,1,1-1.21-1.21A1.21,1.21,0,0,1,92.86,31.62Z"/><path class="cls-2" d="M81.4,52.88a.64.64,0,0,1-.64.64.64.64,0,0,1-.64-.64.64.64,0,0,1,1.28,0Z"/><path class="cls-2" d="M70.87,78.69a.74.74,0,1,1-1.47,0,.74.74,0,0,1,1.47,0Z"/><path class="cls-2" d="M78.15,94.19a.82.82,0,0,1-1.64,0,.82.82,0,1,1,1.64,0Z"/><path class="cls-2" d="M49,139.43a.86.86,0,1,1-.85-.85A.85.85,0,0,1,49,139.43Z"/><path class="cls-2" d="M101.59,119.7a.91.91,0,1,1-.91-.91A.91.91,0,0,1,101.59,119.7Z"/><path class="cls-3" d="M77.79,86.24C76.5,84.82,76.61,60.51,96.3,60.5c22.2,0,22.91,24.91,21.83,25.74S79.08,87.66,77.79,86.24Z"/><path class="cls-4" d="M80.71,85.83c-.93-.82-1-21.6,15.83-21.61,19,0,19.77,20.77,18.67,21.61S81.63,86.65,80.71,85.83Z"/><path class="cls-3" d="M115.53,77.69l-.3-.86a58,58,0,0,0-9.4,4.75,79,79,0,0,0-7.16,4.62,63.92,63.92,0,0,1,2.63-7.28,74.88,74.88,0,0,1,4.24-7.72L108,67.11c-.26-.17-.52-.34-.79-.5l-2.49,4.13a74.6,74.6,0,0,0-4.3,7.82c-.74,1.66-1.36,3.37-1.93,5.09a68,68,0,0,0-1.19-9.78,65.77,65.77,0,0,1-1.19-9.79c-.32,0-.63,0-.94.06A66.17,66.17,0,0,0,96.38,74a53.71,53.71,0,0,1,1.14,11.92c-.29-.69-.54-1.4-.78-2.09A26.28,26.28,0,0,0,95.64,81a24.89,24.89,0,0,0-2.52-4,93.93,93.93,0,0,0-7.18-8.66c-.22.22-.43.44-.63.68a93.86,93.86,0,0,1,7,8.51,24.14,24.14,0,0,1,2.42,3.85,28.08,28.08,0,0,1,1.07,2.76c.09.27.19.54.28.82l-.51-.37a20.16,20.16,0,0,0-2.37-1.29c-2.22-1.09-4.53-2.22-6.89-3.13a44.44,44.44,0,0,0-5.54-1.73c-.07.3-.13.6-.19.89A45.91,45.91,0,0,1,86,81c2.32.9,4.61,2,6.83,3.11a20.29,20.29,0,0,1,2.25,1.22,12.27,12.27,0,0,1,1.79,1.5L97,87h2.23a78.33,78.33,0,0,1,7.13-4.6A57.37,57.37,0,0,1,115.53,77.69Z"/><path class="cls-3" d="M84.53,120.72c-1.37-2.39-11.94-2.15-13.15-2.11-7.94.23-8.68,1.62-8.95,2.15-1.47,2.77-1.53,41.48-.06,45,.34.84,1.18,1.78,4.7,2.34a39,39,0,0,0,5.93.4c5,0,10.38-.72,11.51-2.53C86.64,162.55,85.89,123.09,84.53,120.72ZM83.32,164.1c-.57.73-4.15,1.64-7.11,1.64s-11.58-.14-12.45-1.44c-1.07-3.11-1.1-38.72-.11-41.72.81-.92,5.44-1.36,10-1.36.86,0,4.21.14,4.21.14,2.7.18,4.86.54,5.39,1.09C84.46,125.92,84.5,161.15,83.32,164.1Z"/><path class="cls-4" d="M83.67,121.74c-1.26-2.29-11-2-12.12-2-7.31.22-8,1.55-8.25,2-1.36,2.65-1.4,39.64-.06,43,.33.81,1.09,1.7,4.34,2.24a35.68,35.68,0,0,0,5.47.38c4.56,0,9.56-.69,10.6-2.42C85.61,161.71,84.92,124,83.67,121.74Z"/><rect class="cls-3" x="61.97" y="132.14" width="23.2" height="1.27"/><rect class="cls-3" x="61.97" y="153.7" width="23.2" height="1.27"/><rect class="cls-3" x="72.83" y="119.58" width="1.27" height="47.95" transform="translate(-1.16 0.6) rotate(-0.46)"/><path class="cls-3" d="M133.16,120.72c-1.37-2.39-12-2.15-13.15-2.11-7.94.23-8.68,1.62-9,2.15-1.47,2.77-1.52,41.48-.06,45,.35.84,1.18,1.78,4.71,2.34a38.84,38.84,0,0,0,5.93.4c5,0,10.38-.72,11.5-2.53C135.26,162.55,134.51,123.09,133.16,120.72Zm-1.22,43.38c-.57.73-4.15,1.64-7.11,1.64s-11.57-.14-12.44-1.44c-1.08-3.11-1.11-38.72-.12-41.72.82-.92,5.44-1.36,10-1.36.87,0,4.22.14,4.22.14,2.69.18,4.85.54,5.38,1.09C133.08,125.92,133.13,161.15,131.94,164.1Z"/><path class="cls-4" d="M132.3,121.74c-1.26-2.29-11-2-12.12-2-7.32.22-8,1.55-8.25,2-1.36,2.65-1.41,39.64-.06,43,.32.81,1.09,1.7,4.34,2.24a35.54,35.54,0,0,0,5.46.38c4.56,0,9.57-.69,10.6-2.42C134.24,161.71,133.55,124,132.3,121.74Z"/><rect class="cls-3" x="110.59" y="132.14" width="23.2" height="1.27"/><rect class="cls-3" x="110.59" y="153.7" width="23.2" height="1.27"/><rect class="cls-3" x="121.46" y="119.58" width="1.27" height="47.95" transform="translate(-1.16 0.99) rotate(-0.46)"/><path class="cls-4" d="M195.68,125.34c-1.05-5.78-7.66-7.83-15.62-8.11-13.91-.49-21.71-14.47-26.83-28.78-13.4-37.34-25.59-64.51-31.11-74-10.94-18.68-36.75-19.95-48.48,0-5.54,9.44-17.71,36.62-31.11,74-5.12,14.31-12.92,28.29-26.83,28.78-8,.28-14.57,2.33-15.62,8.11s8.12,9.86,22.1,8.1c16.79-2.11,29.56-13.32,46.91-65.8C82,28.57,89.74,23,97.88,22.48c8.14.52,15.88,6.09,28.79,45.16,17.35,52.48,30.12,63.69,46.91,65.8C187.56,135.2,196.72,131.08,195.68,125.34Z"/><path class="cls-3" d="M118.81,242.09c0-8.48,0-30.38-2.2-43.19-2.7-16.13-15.49-17.86-15.49-17.86s-8.47-2-15,12.72c-5.57,12.52-4,40.22-3.34,48.34C94.57,242.36,107.43,242.36,118.81,242.09Z"/><path class="cls-5" d="M89.6,220.25c-.73-8.26-1.48-16.75-2.77-25.11-.12.32-.25.64-.36,1,1.2,8.06,1.93,16.23,2.63,24.18.56,6.43,1.15,13.08,2,19.58.11.82.22,1.61.36,2.37H92c-.15-.77-.27-1.58-.38-2.43C90.75,233.31,90.17,226.67,89.6,220.25Z"/><path class="cls-5" d="M93,185.27c-.16.15-.31.31-.47.47l2.54,37.11c.44,6.39.89,13,1.7,19.43h.51c-.81-6.49-1.27-13.07-1.71-19.47Z"/><path class="cls-5" d="M101,182.05l-.51-.06c-.11,9.32-.24,18.7-.41,28-.21,11.33-.46,21.95-.75,32.33h.51c.29-10.38.53-21,.74-32.32C100.73,200.72,100.87,191.35,101,182.05Z"/><path class="cls-5" d="M109.78,187l-.48-.48c-.42,7.66-1.11,15.34-1.78,22.82-1,10.8-2,21.94-2.16,33h.51c.19-11,1.19-22.15,2.16-32.94C108.68,202,109.36,194.47,109.78,187Z"/><path class="cls-5" d="M112.63,228c.69-10.49,1.47-21.09,2.32-31.61-.12-.45-.26-.89-.4-1.32-.89,10.94-1.71,22-2.43,32.9-.34,5.22-.6,9.72-.54,14.22h.5C112,237.73,112.28,233.24,112.63,228Z"/><path class="cls-1" d="M100.55,201c-.64,0-1.44-1.78-2.26-3.95-.59-1.56-1.23-4.72-.07-5.15,1.36-.5,2.46,2,2.4,2.35,0,0,.9-3.47,2.27-3.08.58.16,1.11.88,1,2.58C103.8,197.21,101.19,201,100.55,201Z"/><path class="cls-5" d="M112.71,226a6.33,6.33,0,0,1-2.41-.51,5,5,0,0,1-1.73-1.15,3.85,3.85,0,0,1-1-3.13,4.63,4.63,0,0,1,1.58-3.27,4.82,4.82,0,0,1,5.89-.07,4.93,4.93,0,0,1,1.4,5.72,4,4,0,0,1-1.07,1.48A4.09,4.09,0,0,1,112.71,226Zm-3-3.13a1.57,1.57,0,0,0,.2.25,3.34,3.34,0,0,0,1.12.73,3.28,3.28,0,0,0,3.25-.14,2.24,2.24,0,0,0,.6-.84,3.16,3.16,0,0,0-.87-3.6,3,3,0,0,0-3.64,0,2.8,2.8,0,0,0-.94,1.87h0l-.06.25a2.67,2.67,0,0,0,.36,1.39Z"/><path class="cls-1" d="M110.31,217.46a1.53,1.53,0,0,0,.33,1.49,2.22,2.22,0,0,0,.75.49,2.15,2.15,0,0,0,2.21-.14,1.71,1.71,0,0,0,.44-.62,2.13,2.13,0,0,0-.6-2.46,2.06,2.06,0,0,0-2.51,0,2,2,0,0,0-.42,2.47"/><path class="cls-4" d="M94.6,179.51C75.77,185.2,78.23,230.12,79.17,242l4.45.11c-.57-8-2.08-35.22,3.14-47.52,6.15-14.51,14.08-12.5,14.08-12.5s12,1.7,14.51,17.56c2,12.59,2.11,34.12,2.06,42.45,1.85,0,3.67-.1,5.43-.16-.46-9.09-1.75-32.64-3.1-38.67C118.05,195.75,116.2,173,94.6,179.51Z"/><path class="cls-5" d="M242.53,226.64c-.32-3.71-2-6.11-9-8.9-9.63-3.83-29.78-5.57-44.62-5.59h-.24a134.63,134.63,0,0,0-43.48,6.75c-4.51,1.54-9.51,3.67-12.44,7.84a8,8,0,0,0-1.52,6.71,5.27,5.27,0,0,0,2.74,3.15,4.39,4.39,0,0,0,1.83.42,3.78,3.78,0,0,0,1.49-.3.82.82,0,1,0-.66-1.5,2.42,2.42,0,0,1-2-.1,3.57,3.57,0,0,1-1.87-2.13,6.38,6.38,0,0,1,1.3-5.31,15.68,15.68,0,0,1,5.69-4.76c1.13,4.28,5.86,22.68,6.91,29.23a.81.81,0,0,0,.81.68h.13a.81.81,0,0,0,.68-.93c-.63-3.92-2.55-11.94-4-18-1.79-7.23-2.57-10.35-3-11.73a46.88,46.88,0,0,1,4.44-1.73c1-.33,2-.64,2.95-.95.26,1,5.78,22.65,5.78,30.66a.82.82,0,0,0,1.64,0c0-8.37-5.61-30.18-5.85-31.11v0c1.21-.36,2.44-.7,3.67-1a.68.68,0,0,0,.2,0c.05,0,1.42-.36,4.13-.82.57,2.94,2.59,13.39,3.25,18.73.78,6.25,1.58,13.67,1.59,13.74a.81.81,0,0,0,.76.74h.14a.83.83,0,0,0,.73-.92c0-.07-.82-7.51-1.59-13.76-.67-5.36-2.67-15.76-3.26-18.8,2.52-.39,5.87-.84,10.05-1.22.3,1.44,1,8.49,1.46,17.28.47,9.51.63,15.83.63,15.89a.82.82,0,0,0,.76.8h.08a.84.84,0,0,0,.8-.85c0-.07-.16-6.41-.64-15.93-.3-5.92-.68-10.4-.88-12.55-.24-2.48-.4-3.93-.56-4.79,2.92-.24,6.21-.45,9.87-.6,0,2.36-.15,12.4-.26,19.23l-.32,15.2a.81.81,0,0,0,.76.84h0a.83.83,0,0,0,.83-.82l.33-15.2c.22-13.61.26-17.91.25-19.32,2.85-.09,5.92-.15,9.19-.15l-1.76,34.86a.83.83,0,0,0,.77.87h0a.83.83,0,0,0,.86-.79l1.76-34.93h1.61q4.24,0,8.16.22c-.16,2.12-.87,11.09-2.09,20-1.34,9.86-2.06,15.41-2.07,15.46a.83.83,0,0,0,.7.93h.06a.82.82,0,0,0,.86-.72c0-.06.73-5.61,2.08-15.46,1.23-9,1.94-18.1,2.09-20.18,3.13.17,6.08.39,8.84.68-.06.82-.66,8.6-1.77,18A166.58,166.58,0,0,1,209.41,251a.82.82,0,0,0,.6,1,.8.8,0,0,0,.15,0,.82.82,0,0,0,.84-.64A168.35,168.35,0,0,0,213.94,234c1.09-9.28,1.7-17,1.78-18q5,.58,9.14,1.43c-.25,1.77-1.47,10.48-2.51,18.44A148,148,0,0,1,219,252.14a.82.82,0,0,0,.57,1,.45.45,0,0,0,.16,0,.81.81,0,0,0,.84-.6A145.57,145.57,0,0,0,224,236c1-7.78,2.21-16.28,2.49-18.29,9,2.08,14.1,5.19,14.44,9.1a5.86,5.86,0,0,1-1.34,4.67,5.68,5.68,0,0,1-4.55,1.48h0c-3.35-.21-5.61-4.35-5.64-4.39a.82.82,0,0,0-1.11-.34.85.85,0,0,0-.33,1.13c.11.2,2.71,5,7,5.26h.06a7.22,7.22,0,0,0,5.82-2A7.52,7.52,0,0,0,242.53,226.64Z"/></g></g></svg>