<svg xmlns="http://www.w3.org/2000/svg" viewBox="0 0 57.55 72.89"><defs><style>.cls-1{fill:#c86e29;}.cls-2{fill:#f2b669;}.cls-3{fill:#fde8ca;}.cls-4{fill:#4c6b51;}.cls-5{fill:#739b68;}.cls-6{fill:#f45b44;}</style></defs><g id="Layer_2" data-name="Layer 2"><g id="Image"><path class="cls-1" d="M43,28.18C41.36,24.5,30.88,0,28.83,0S16.3,24.5,14.62,28.18c-5,11-16.1,36.59-14.46,37.53S10,45.48,14.77,35c4-8.67,11.67-24.23,14.06-30.71,2.32,6.32,10.08,22,14.05,30.71,4.8,10.48,12.76,31.73,14.49,30.77S48,39.19,43,28.18Z"/><path class="cls-2" d="M28.83,4.29c-2.39,6.48-10.09,22-14.06,30.71-3.89,8.49-10,24-13,29.07.1,4.48.27,7.39.54,7.76,1.45,1.9,50.46.84,52.44,0,.4-.18.64-3.3.76-8.19C52.36,58.09,46.65,43.23,42.88,35,38.91,26.33,31.15,10.61,28.83,4.29Z"/><path class="cls-3" d="M28.65,22.76c-4-.13-3.51,9-3.24,9.46s6.59.28,6.81,0S32.64,22.89,28.65,22.76Z"/><path class="cls-1" d="M28.66,23.45c-3.43-.11-3,8-2.77,8.37s5.65.24,5.84,0S32.09,23.57,28.66,23.45Z"/><path class="cls-3" d="M18.66,36.19c-4-.13-3.51,9-3.24,9.46s6.59.27,6.81,0S22.65,36.32,18.66,36.19Z"/><path class="cls-1" d="M18.68,36.88c-3.43-.12-3,7.95-2.78,8.37s5.66.24,5.85,0S22.11,37,18.68,36.88Z"/><path class="cls-3" d="M28.65,36.19c-4-.13-3.51,9-3.24,9.46s6.59.27,6.81,0S32.64,36.32,28.65,36.19Z"/><path class="cls-1" d="M28.66,36.88c-3.43-.12-3,7.95-2.77,8.37s5.65.24,5.84,0S32.09,37,28.66,36.88Z"/><path class="cls-3" d="M38.63,36.19c-4-.13-3.51,9-3.23,9.46s6.59.27,6.81,0S42.63,36.32,38.63,36.19Z"/><path class="cls-1" d="M38.65,36.88c-3.43-.12-3,7.95-2.77,8.37s5.65.24,5.84,0S42.08,37,38.65,36.88Z"/><path class="cls-3" d="M12.48,50.16c-4-.13-3.51,9-3.24,9.45s6.59.28,6.81,0S16.47,50.29,12.48,50.16Z"/><path class="cls-1" d="M12.5,50.85c-3.43-.12-3,7.95-2.78,8.36s5.65.25,5.85,0S15.93,51,12.5,50.85Z"/><path class="cls-3" d="M23.26,50.16c-4-.13-3.51,9-3.24,9.45s6.59.28,6.81,0S27.25,50.29,23.26,50.16Z"/><path class="cls-1" d="M23.27,50.85c-3.43-.12-3,7.95-2.77,8.36s5.65.25,5.85,0S26.7,51,23.27,50.85Z"/><path class="cls-3" d="M34,50.16c-4-.13-3.51,9-3.23,9.45s6.59.28,6.81,0S38,50.29,34,50.16Z"/><path class="cls-1" d="M34.05,50.85c-3.43-.12-3,7.95-2.77,8.36s5.65.25,5.84,0S37.48,51,34.05,50.85Z"/><path class="cls-3" d="M44.81,50.16c-4-.13-3.51,9-3.23,9.45s6.59.28,6.81,0S48.81,50.29,44.81,50.16Z"/><path class="cls-1" d="M44.83,50.85c-3.43-.12-3,7.95-2.77,8.36s5.65.25,5.84,0S48.26,51,44.83,50.85Z"/><path class="cls-4" d="M34.29,17.87a1.53,1.53,0,0,1,0,.3,2.68,2.68,0,0,1-.07.27.56.56,0,0,1-.11.2l.18-.1v0a1,1,0,0,1,.25-.46.65.65,0,0,1,.49-.18,0,0,0,0,1,0,0,.61.61,0,0,1-.26.45l-.25.16a.37.37,0,0,1-.2.07,3.14,3.14,0,0,0-.46.28l-.08.05a2.06,2.06,0,0,1,.48-.15h.32a.6.6,0,0,1,.26.14,0,0,0,0,1,0,0s-.1,0-.14.05-.08.06-.12.08a.59.59,0,0,1-.14.06.43.43,0,0,0-.16.05.58.58,0,0,1-.32,0,1.41,1.41,0,0,1-.31-.14h0l-.18.14,0,0,0,0-.1.07a.27.27,0,0,1-.08.07h0l-.15.11.07,0a1.45,1.45,0,0,1,.29-.11l.32-.07a.8.8,0,0,1,.31,0,.28.28,0,0,1,.22.21s0,0,0,0l-.32.19a.75.75,0,0,1-.36.07,2.55,2.55,0,0,1-.39,0,.52.52,0,0,1-.33-.12l-.28.2a3.9,3.9,0,0,1,.59,0h.17l.18,0a.91.91,0,0,1,.16.11,1,1,0,0,1,.16.12s0,0,0,.05h-.09l-.09,0-.2,0a.71.71,0,0,1-.38,0,.67.67,0,0,0-.18-.07.61.61,0,0,1-.18-.05l-.14-.1-.08,0,0,0-.06,0a1.25,1.25,0,0,0-.23.23c-.07.08-.14.17-.22.25s-.09,0-.05-.07a1.37,1.37,0,0,0,.19-.22,1.89,1.89,0,0,1,.2-.2l.13-.1h0l0,0h0a.37.37,0,0,1,0-.18.58.58,0,0,1,0-.18,2.83,2.83,0,0,1,.14-.35,3,3,0,0,1,.25-.43l.07-.09s0,0,0,0,.07,0,.08,0a1.08,1.08,0,0,1,0,.18c0,.06,0,.12,0,.18a1.74,1.74,0,0,1-.16.62l.26-.19a.63.63,0,0,1,0-.31l.06-.18a.83.83,0,0,1,.09-.16c.06-.11.12-.22.18-.31a.78.78,0,0,1,.21-.23s.07,0,.06,0l-.09.4a1.91,1.91,0,0,1-.1.34.26.26,0,0,1-.05.09l.24-.18.09-.07s0,0,0,0a.38.38,0,0,1,0-.15.51.51,0,0,1,0-.13,1.84,1.84,0,0,1,.09-.25l.06-.11s0-.07,0-.1.12-.12.17-.17S34.29,17.85,34.29,17.87Z"/><path class="cls-5" d="M37.61,19.16c-.35,0-.4.12-.81.22.18-.06.49-.31.42-.36-.33-.25-.69.22-.95.32.15-.09.3-.18.44-.28s.13,0,.11-.12-.3,0-.42.06l-.7.47.47-.43a.05.05,0,0,0,0,0c0-.05,0-.08-.08-.09a.79.79,0,0,0-.5.24,2.61,2.61,0,0,1-.44.38,4.48,4.48,0,0,0,.37-.49c.06-.1,0-.1,0-.1s-.18.08-.27.15-.47.57-.5.51.2-.23.29-.35.08-.14,0-.18a0,0,0,0,0,0,0c-.15,0-.26.17-.37.3a2.76,2.76,0,0,1-.41.43c.14-.18.42-.44.37-.56s-.26,0-.36.13a4.62,4.62,0,0,0-.5.7c.1-.21.2-.42.29-.63,0-.05,0-.11,0-.14H34c-.18,0-.32.21-.45.4a5.89,5.89,0,0,0-.59.95,1.78,1.78,0,0,0,.47,0,1.57,1.57,0,0,1,1,.09c.06,0,.15,0,.17,0s0-.12-.07-.16a.67.67,0,0,0-.34-.16,1.92,1.92,0,0,1,.8.28c.05,0,.12.06.17,0a.19.19,0,0,0-.1-.25,1.21,1.21,0,0,0-.42-.22,2.5,2.5,0,0,1,.82.22c.14.07.32.16.45.06A.12.12,0,0,0,36,20.4a.23.23,0,0,0-.12-.2,2.11,2.11,0,0,0-.45-.18,1.63,1.63,0,0,1,.74.27c.11.07.24.17.35.11s0,0,0,0a.13.13,0,0,0,0-.11A1.29,1.29,0,0,0,36,20a3.75,3.75,0,0,1,.91.38s.12.05.16,0a.16.16,0,0,0,0-.15.33.33,0,0,0-.09-.11,1.6,1.6,0,0,0-.5-.26,3.62,3.62,0,0,1,.65.23c.14.07.42.1.43,0s-.21-.22-.4-.27c.24,0,.55.06.63,0s-.08-.15-.16-.17a1.21,1.21,0,0,0-.33-.07C37.59,19.5,37.81,19.17,37.61,19.16Z"/><path class="cls-4" d="M35.51,21.43a2.35,2.35,0,0,0-.25-.19c-.08,0-.16-.11-.24-.15a.75.75,0,0,0-.24-.08L35,21s0,0,0,0a1.1,1.1,0,0,0,.56.16.85.85,0,0,0,.56-.25,0,0,0,0,0,0,0,.74.74,0,0,0-.56-.12l-.33.07c-.07,0-.17,0-.22.09a3.11,3.11,0,0,1-.6.09h-.1a2.31,2.31,0,0,0,.52-.19l.15-.11.13-.1a.61.61,0,0,0,.11-.29s0,0,0,0a1,1,0,0,0-.15.07.38.38,0,0,1-.15,0,.39.39,0,0,0-.15.06l-.17.06a.54.54,0,0,0-.27.2,1.21,1.21,0,0,0-.2.3v0H33.4a1.14,1.14,0,0,0,.32-.07l.34-.14a.7.7,0,0,0,.26-.19.26.26,0,0,0,.06-.3s0,0,0,0l-.39,0a.87.87,0,0,0-.34.15,1.94,1.94,0,0,0-.33.23.55.55,0,0,0-.24.28l-.37,0a4.68,4.68,0,0,0,.54-.3l.15-.11a1.59,1.59,0,0,0,.13-.13.58.58,0,0,0,.08-.18,1.06,1.06,0,0,0,.06-.19s0,0,0,0a.19.19,0,0,0-.08,0l-.09,0-.18.08a.87.87,0,0,0-.31.23.88.88,0,0,1-.12.15.57.57,0,0,0-.14.13,1.09,1.09,0,0,0-.08.15l-.05.08,0,0-.09,0a1.12,1.12,0,0,1-.31-.1l-.31-.14c-.05,0-.07.07,0,.08s.18.08.27.12a.94.94,0,0,0,.28.1l.17,0h.06s0,0,0,0a.6.6,0,0,0,.08.16.86.86,0,0,0,.13.14,2.34,2.34,0,0,0,.31.24,3,3,0,0,0,.48.22l.12,0,.05,0s.09,0,.07-.05a1.3,1.3,0,0,0-.1-.15l-.12-.14a2.06,2.06,0,0,0-.25-.26,1.55,1.55,0,0,0-.24-.19l.35,0a.54.54,0,0,0,.22.23l.16.12.17.08.38.14a.82.82,0,0,0,.35,0s.06-.05,0-.07l-.35-.25a2.1,2.1,0,0,0-.3-.22L34,21h.46s0,0,0,0a.94.94,0,0,0,.09.12.41.41,0,0,0,.11.07,1,1,0,0,0,.24.14l.14,0,.12,0h.29S35.53,21.45,35.51,21.43Z"/><path class="cls-4" d="M29,19a1.09,1.09,0,0,1-.11.27,1.38,1.38,0,0,1-.14.24.87.87,0,0,1-.16.17l.2-.05v0a1,1,0,0,1,.38-.37.74.74,0,0,1,.53,0,.05.05,0,0,1,0,0,.67.67,0,0,1-.39.37l-.28.08a.33.33,0,0,1-.22,0,2.63,2.63,0,0,0-.53.15l-.08,0a2.1,2.1,0,0,1,.5,0l.17,0a.44.44,0,0,1,.15,0,.6.6,0,0,1,.21.21s0,0,0,0a.75.75,0,0,1-.15,0,.39.39,0,0,0-.14.05.38.38,0,0,1-.15,0,.49.49,0,0,0-.17,0,.55.55,0,0,1-.3-.09,1.39,1.39,0,0,1-.27-.21,0,0,0,0,1,0,0l-.22.09,0,0h0l-.11,0a.18.18,0,0,1-.1,0h0l-.17.06h.07a1.67,1.67,0,0,1,.31,0h.33a.61.61,0,0,1,.3.08.28.28,0,0,1,.16.26,0,0,0,0,0,0,0l-.37.1a.73.73,0,0,1-.36,0,1.6,1.6,0,0,1-.37-.12.51.51,0,0,1-.29-.21l-.33.13a4,4,0,0,1,.57.16l.17.06a.65.65,0,0,1,.16.09.58.58,0,0,1,.13.14A.42.42,0,0,1,28,21s0,0,0,0h-.19l-.19,0a.76.76,0,0,1-.36-.14.57.57,0,0,0-.16-.11.54.54,0,0,1-.16-.1.77.77,0,0,1-.12-.13l-.05-.06,0,0-.08,0a1.17,1.17,0,0,0-.28.17l-.27.2s-.08-.06,0-.08a1.38,1.38,0,0,0,.25-.17,1.2,1.2,0,0,1,.24-.15l.15-.07h0l0,0s0,0,0,0a.35.35,0,0,1,0-.17l.09-.17a3.46,3.46,0,0,1,.22-.31,2.76,2.76,0,0,1,.36-.33l.09-.08,0,0s.08,0,.07,0a.47.47,0,0,1,0,.17l-.06.17a3.18,3.18,0,0,1-.16.32,1.25,1.25,0,0,1-.16.24l.3-.12a.56.56,0,0,1,.13-.28l.11-.16a.81.81,0,0,1,.12-.14l.27-.26a.6.6,0,0,1,.26-.16s.06,0,.05.06l-.2.35a1.61,1.61,0,0,1-.19.31l-.07.08.28-.12.11,0s0,0,0,0a.83.83,0,0,1,0-.15.6.6,0,0,1,.06-.11,1.07,1.07,0,0,1,.15-.22l.09-.09a.3.3,0,0,1,.08-.08,2.25,2.25,0,0,1,.21-.12S29,18.94,29,19Z"/><path class="cls-5" d="M31.85,21.16c-.32-.13-.41,0-.83,0,.19,0,.56-.15.51-.22-.25-.34-.73,0-1,0l.51-.13s.14,0,.14-.08-.27-.13-.42-.08l-.81.26.58-.28,0,0a.09.09,0,0,0-.06-.11.71.71,0,0,0-.54.09,3.59,3.59,0,0,1-.53.24,4.34,4.34,0,0,0,.5-.37c.07-.08,0-.1,0-.11s-.2,0-.31.07-.25.16-.38.24-.24.14-.24.11.25-.16.37-.25.12-.12.08-.17,0,0,0,0-.29.09-.43.18a3.25,3.25,0,0,1-.51.3c.17-.14.52-.31.51-.44s-.26,0-.4,0a4.1,4.1,0,0,0-.66.55l.45-.54s.06-.1,0-.13,0,0,0,0a.8.8,0,0,0-.54.27c-.14.13-.28.24-.42.36a2.54,2.54,0,0,0-.39.41,1.76,1.76,0,0,0,.44.15,1.07,1.07,0,0,1,.25,0,1.05,1.05,0,0,1,.24.06,1.43,1.43,0,0,1,.45.25c.05,0,.13.08.17,0s0-.12,0-.17a.65.65,0,0,0-.28-.24,1.7,1.7,0,0,1,.69.48c0,.05.1.1.16.06a.14.14,0,0,0,0-.14.52.52,0,0,0-.06-.13,1.56,1.56,0,0,0-.35-.33,2.29,2.29,0,0,1,.72.45c.12.11.26.24.42.18a.11.11,0,0,0,.07-.06.2.2,0,0,0-.06-.22,1.57,1.57,0,0,0-.38-.3,1.52,1.52,0,0,1,.64.47c.08.1.17.22.3.2a.05.05,0,0,0,0,0,.13.13,0,0,0,0-.12,1.27,1.27,0,0,0-.33-.39,3.39,3.39,0,0,1,.76.62s.09.08.14.05a.14.14,0,0,0,0-.14.31.31,0,0,0-.06-.13,1.35,1.35,0,0,0-.4-.39,3.5,3.5,0,0,1,.55.4c.12.11.37.23.42.13s-.14-.28-.31-.39c.22.11.51.23.6.19s0-.17-.1-.21a1.22,1.22,0,0,0-.29-.17C31.73,21.47,32,21.23,31.85,21.16Z"/><path class="cls-4" d="M29.23,22.72a2.4,2.4,0,0,0-.18-.26,1.9,1.9,0,0,0-.19-.21,1,1,0,0,0-.21-.15l.23,0s0,0,0,0a1.27,1.27,0,0,0,.48.32.84.84,0,0,0,.6-.08s0,0,0,0a.72.72,0,0,0-.51-.27c-.11,0-.22,0-.33,0s-.17,0-.23,0a4.11,4.11,0,0,1-.6-.08l-.09,0a1.94,1.94,0,0,0,.54-.05l.18-.06a.94.94,0,0,0,.15-.06.61.61,0,0,0,.18-.24s0,0,0,0l-.16,0a.8.8,0,0,1-.15,0,.42.42,0,0,0-.16,0,.55.55,0,0,1-.18,0,.56.56,0,0,0-.31.13,1.55,1.55,0,0,0-.27.24v0l-.24-.07,0,0h0l-.12,0a.25.25,0,0,0-.11,0h0l-.18-.07.08,0a1.22,1.22,0,0,0,.33,0l.35-.06a.91.91,0,0,0,.31-.12.26.26,0,0,0,.13-.27,0,0,0,0,0,0,0l-.38-.06a.94.94,0,0,0-.37.07,3.43,3.43,0,0,0-.38.13.59.59,0,0,0-.3.2l-.34-.13a3.29,3.29,0,0,0,.6-.15l.16-.06a.56.56,0,0,0,.17-.09s.08-.1.12-.15a1,1,0,0,0,.1-.17s0,0,0,0h-.08l-.1,0-.19,0a.78.78,0,0,0-.36.13.61.61,0,0,1-.16.12.65.65,0,0,0-.16.09l-.12.13-.06.06,0,0-.08,0a1.17,1.17,0,0,1-.28-.17c-.09-.07-.17-.15-.26-.21a0,0,0,0,0-.05.07,2.23,2.23,0,0,1,.24.19,1.28,1.28,0,0,0,.25.15l.15.07h0l0,0h0a.53.53,0,0,0,0,.17l.09.18a3.5,3.5,0,0,0,.24.3,2.25,2.25,0,0,0,.41.34l.1.08.05,0s.08,0,.07,0a.49.49,0,0,0-.06-.17c0-.06-.05-.12-.07-.17a2.43,2.43,0,0,0-.18-.32,1.08,1.08,0,0,0-.18-.24l.32.12a.61.61,0,0,0,.16.28l.12.16.15.12.32.22a1,1,0,0,0,.32.13s.07,0,.05-.07l-.26-.33A3.22,3.22,0,0,0,28,22L27.93,22l.32.08.13,0s0,0,0,0a.39.39,0,0,0,.05.14l.08.1a1,1,0,0,0,.2.2l.12.07a.23.23,0,0,0,.1.07l.27.09A0,0,0,0,0,29.23,22.72Z"/><path class="cls-4" d="M24.81,19.1a1.37,1.37,0,0,1-.22.2,1.19,1.19,0,0,1-.23.16.54.54,0,0,1-.21.08l.2,0h0a1.08,1.08,0,0,1,.5-.18.63.63,0,0,1,.5.18,0,0,0,0,1,0,0,.62.62,0,0,1-.51.17l-.29,0c-.07,0-.16,0-.2-.08a3,3,0,0,0-.54-.1h-.09a1.57,1.57,0,0,1,.46.2l.14.1a.38.38,0,0,1,.11.11.49.49,0,0,1,.1.27s0,0,0,0a.84.84,0,0,1-.14-.06h-.14a.35.35,0,0,1-.14-.06.44.44,0,0,0-.16-.06.53.53,0,0,1-.24-.21,1.48,1.48,0,0,1-.15-.31H23.3s0,0,0,0h-.47l.08,0a1,1,0,0,1,.28.11l.3.15a.77.77,0,0,1,.23.21.27.27,0,0,1,0,.3h0l-.37-.07a.71.71,0,0,1-.32-.17,2.37,2.37,0,0,1-.28-.27.59.59,0,0,1-.17-.31l-.35,0a3.23,3.23,0,0,1,.45.38l.12.13a.76.76,0,0,1,.11.14.67.67,0,0,1,.05.19.65.65,0,0,1,0,.19s0,0,0,0l-.08,0-.08-.06-.17-.11a.78.78,0,0,1-.27-.27.91.91,0,0,0-.09-.17.49.49,0,0,1-.1-.15.48.48,0,0,1-.05-.17l0-.08,0,0H22a1.15,1.15,0,0,0-.32,0l-.33.05a0,0,0,0,1,0-.08l.29-.05.29,0h.22s0,0,0,0a.81.81,0,0,1,.12-.14l.15-.11a2.21,2.21,0,0,1,.34-.18,2.1,2.1,0,0,1,.46-.16l.12,0h0s.08,0,0,.05a.76.76,0,0,1-.11.14l-.13.13-.28.22a1,1,0,0,1-.25.14l.32,0a.53.53,0,0,1,.25-.2l.16-.1.17-.07.34-.12a.71.71,0,0,1,.32,0s0,0,0,.07l-.33.24a2,2,0,0,1-.3.2l-.1,0,.31,0h.12s0,0,0,0l.09-.12.11-.07a1.09,1.09,0,0,1,.23-.14l.11,0,.11,0,.25,0S24.83,19.08,24.81,19.1Z"/><path class="cls-5" d="M26.1,22.68c-.2-.28-.34-.24-.68-.48.17.1.56.17.55.09,0-.42-.61-.39-.85-.52l.49.16c.05,0,.13.06.17,0s-.17-.25-.32-.29l-.21,0-.2-.06-.4-.12.63.08h0c.05,0,0-.08,0-.11a.67.67,0,0,0-.49-.23,3.64,3.64,0,0,1-.59-.09,4.81,4.81,0,0,0,.62,0c.11,0,.07-.08.05-.11s-.18-.08-.3-.1h-.45c-.16,0-.28,0-.26,0s.09,0,.18,0h.27c.07,0,.16,0,.16-.1a.09.09,0,0,0,0-.05c-.1-.11-.31-.07-.47-.07a3.89,3.89,0,0,1-.59,0c.22,0,.6,0,.66-.09s-.19-.19-.34-.19a4.34,4.34,0,0,0-.86.09l.67-.2c.05,0,.11-.05.11-.09s0,0,0,0a.75.75,0,0,0-.6-.07,4.46,4.46,0,0,0-1.11.19,1.57,1.57,0,0,0,.29.36,1.71,1.71,0,0,1,.36.35,1.55,1.55,0,0,1,.24.46c0,.06.07.14.14.1a.15.15,0,0,0,.07-.16.61.61,0,0,0-.1-.36,1.87,1.87,0,0,1,.32.78c0,.07,0,.14.1.14a.18.18,0,0,0,.11-.1.22.22,0,0,0,0-.14,1.2,1.2,0,0,0-.11-.46,2.24,2.24,0,0,1,.37.76c0,.16.09.34.25.37a.12.12,0,0,0,.1,0,.22.22,0,0,0,.07-.22,1.42,1.42,0,0,0-.16-.45,1.47,1.47,0,0,1,.28.73c0,.14,0,.29.14.34a.07.07,0,0,0,.06,0s.05-.07.06-.11A1.4,1.4,0,0,0,24.5,22a3.6,3.6,0,0,1,.29.93c0,.06,0,.13.1.13A.18.18,0,0,0,25,23a.32.32,0,0,0,0-.14,1.38,1.38,0,0,0-.12-.54,3.41,3.41,0,0,1,.24.63c0,.16.19.39.28.33s0-.31,0-.49c.12.21.29.47.39.49s.07-.16,0-.23a2.1,2.1,0,0,0-.15-.3C25.84,22.88,26.22,22.85,26.1,22.68Z"/><path class="cls-4" d="M23,22.57a1.08,1.08,0,0,0,0-.31A2.89,2.89,0,0,0,23,22a.67.67,0,0,0-.1-.23l.18.14v0a1.08,1.08,0,0,0,.24.52.85.85,0,0,0,.55.25s0,0,0,0a.7.7,0,0,0-.29-.5l-.26-.2a.4.4,0,0,0-.2-.11,3.5,3.5,0,0,1-.46-.39l-.07-.07a2.23,2.23,0,0,0,.48.26l.18.05.16,0a.51.51,0,0,0,.29-.1s0,0,0,0-.1,0-.15-.07l-.11-.11a.39.39,0,0,0-.14-.08l-.15-.08a.55.55,0,0,0-.33-.07,1.49,1.49,0,0,0-.36,0,0,0,0,0,1,0,0,1.46,1.46,0,0,1-.16-.19l0,0,0,0-.07-.1a.39.39,0,0,0-.08-.1h0L22,20.61l.06.06a2.48,2.48,0,0,0,.26.19l.33.16a.87.87,0,0,0,.32.06.26.26,0,0,0,.26-.15v0l-.3-.26a1,1,0,0,0-.33-.15l-.39-.1a.59.59,0,0,0-.37,0l-.21-.29a3.93,3.93,0,0,0,.58.19l.18,0,.18,0,.19-.06a1.3,1.3,0,0,0,.17-.08s0,0,0,0l-.08,0-.09,0L22.58,20a.65.65,0,0,0-.37-.08.66.66,0,0,1-.2,0,.55.55,0,0,0-.18,0,.58.58,0,0,0-.18,0h-.12l-.05-.08a1.36,1.36,0,0,1-.13-.3,3,3,0,0,0-.1-.32c0-.05-.1,0-.08,0a2.47,2.47,0,0,1,.1.29,1.28,1.28,0,0,0,.11.27l.09.14v0l0,0a0,0,0,0,0,0,0,.39.39,0,0,0-.06.17.68.68,0,0,0,0,.2,2.43,2.43,0,0,0,0,.38,2.88,2.88,0,0,0,.15.5s0,.09.05.12,0,0,0,.05.07.07.08,0a1.09,1.09,0,0,0,.05-.17l0-.19c0-.12,0-.24,0-.36a1.51,1.51,0,0,0,0-.3l.21.28a.58.58,0,0,0,0,.32c0,.06,0,.13,0,.2a1.21,1.21,0,0,0,.05.18l.15.37a.8.8,0,0,0,.2.28s.08,0,.07,0l0-.42a2.09,2.09,0,0,0,0-.36s0-.07,0-.11a2.62,2.62,0,0,0,.22.25l.09.09,0,0a.4.4,0,0,0,0,.15s0,.08,0,.13a.82.82,0,0,0,.06.27l.06.13a.31.31,0,0,0,0,.12l.17.22A0,0,0,0,0,23,22.57Z"/><path class="cls-6" d="M32,21.29a.32.32,0,0,1-.17,0,.29.29,0,0,1-.15-.19.84.84,0,0,1,0-.66.66.66,0,0,1,.53-.38c.34,0,.89.3.77.7S32.33,21.27,32,21.29Z"/><path class="cls-6" d="M30.77,19.31a.5.5,0,0,1,.72.19c.28.54.07.69-.09.83s-.3.1-.44.09a.5.5,0,0,1-.29-.16.8.8,0,0,1-.18-.27A.59.59,0,0,1,30.77,19.31Z"/><path class="cls-6" d="M26,20.42a.41.41,0,0,1,.18-.35c.11-.07.53-.23.75.05a.79.79,0,0,1,.13.63c0,.14-.13.3-.27.31S26.05,20.8,26,20.42Z"/><path class="cls-6" d="M25.14,21a.59.59,0,0,1,.78-.18.53.53,0,0,1,.2.82.7.7,0,0,1-.77.14A.59.59,0,0,1,25.14,21Z"/><path class="cls-4" d="M53,61.64a1.37,1.37,0,0,1,.07.29,2.48,2.48,0,0,1,0,.27.54.54,0,0,1,0,.22l.13-.14v0a1,1,0,0,1,.08-.51.65.65,0,0,1,.38-.33s0,0,0,0a.57.57,0,0,1-.09.51,1.84,1.84,0,0,1-.17.22s-.09.12-.17.13a4.62,4.62,0,0,0-.34.41l-.05.07a2.21,2.21,0,0,1,.4-.28l.15-.07.14,0a.58.58,0,0,1,.29.06s0,0,0,0-.08.06-.12.1-.05.08-.08.12a.48.48,0,0,1-.11.09l-.13.1a.51.51,0,0,1-.3.1,1,1,0,0,1-.34,0,0,0,0,0,1,0,0l-.13.19a.05.05,0,0,1,0,0l0,0-.06.1-.06.08v0h0l-.1.14,0,0a1.06,1.06,0,0,1,.24-.19l.28-.17a.64.64,0,0,1,.3-.08.25.25,0,0,1,.27.12v0a3.47,3.47,0,0,1-.25.29.73.73,0,0,1-.31.17,2.26,2.26,0,0,1-.37.11.53.53,0,0,1-.35,0L52,64a5.05,5.05,0,0,1,.55-.18l.17,0a.55.55,0,0,1,.18,0,.59.59,0,0,1,.19.05.56.56,0,0,1,.18.07s0,0,0,0l-.08,0-.08,0-.18.09a.81.81,0,0,1-.37.09l-.19,0a.61.61,0,0,1-.19,0l-.16,0-.09,0h0l0,.07a1.25,1.25,0,0,0-.15.28,1.6,1.6,0,0,1-.13.3s-.09,0-.07,0,.08-.18.12-.27a2.1,2.1,0,0,1,.13-.26l.09-.13a0,0,0,0,0,0,0l0,0h0a.55.55,0,0,1,0-.17,1.37,1.37,0,0,1,0-.19c0-.13,0-.25,0-.38s.07-.32.1-.47l0-.11a.09.09,0,0,1,0,0s0,0,.07,0a.85.85,0,0,1,.06.17c0,.06,0,.12,0,.18a1.33,1.33,0,0,1,0,.34.93.93,0,0,1,0,.29,2.48,2.48,0,0,0,.19-.26.67.67,0,0,1,0-.31v-.19a1.1,1.1,0,0,1,0-.18c0-.11.05-.23.08-.35a.61.61,0,0,1,.12-.27,0,0,0,0,1,.06,0c0,.13,0,.27,0,.4a2.11,2.11,0,0,1,0,.35.43.43,0,0,1,0,.11l.17-.25.06-.1,0,0a.78.78,0,0,1-.05-.14s0-.08,0-.12a2.53,2.53,0,0,1,0-.27l0-.12a.37.37,0,0,1,0-.11c0-.08.07-.15.1-.22S53,61.62,53,61.64Z"/><path class="cls-5" d="M56.48,61.82a.36.36,0,0,0-.29.12,3.37,3.37,0,0,1-.34.28c.15-.12.35-.45.27-.48-.39-.13-.57.44-.79.61.12-.13.22-.26.33-.4s.1-.1.06-.15-.29.06-.38.19l-.49.69c.1-.19.2-.38.29-.57v0A.08.08,0,0,0,55,62a.71.71,0,0,0-.38.38,2.81,2.81,0,0,1-.29.51,3.56,3.56,0,0,0,.19-.59c0-.11-.06-.09-.09-.08s-.13.14-.19.24-.26.69-.3.64.1-.28.15-.42,0-.16,0-.19h-.05c-.14.05-.18.25-.24.4a2.65,2.65,0,0,1-.25.54c.07-.21.25-.55.17-.65s-.24.11-.3.25a4.8,4.8,0,0,0-.25.81c0-.23.06-.46.08-.68,0,0,0-.12,0-.14h0c-.16.08-.23.3-.29.51a5.26,5.26,0,0,0-.26,1.09,1.45,1.45,0,0,0,.44-.12,1.6,1.6,0,0,1,1-.23c.06,0,.15,0,.15-.1a.18.18,0,0,0-.12-.12.61.61,0,0,0-.37,0,1.83,1.83,0,0,1,.84,0c.06,0,.14,0,.16,0a.14.14,0,0,0,0-.14.33.33,0,0,0-.13-.07,1.24,1.24,0,0,0-.47-.06,2.39,2.39,0,0,1,.85-.06c.16,0,.35,0,.45-.1a.16.16,0,0,0,0-.1c0-.09-.1-.13-.18-.14a1.55,1.55,0,0,0-.48,0,1.51,1.51,0,0,1,.79,0c.13,0,.28.07.37,0a.08.08,0,0,0,0-.06s0-.07-.08-.08a1.3,1.3,0,0,0-.49-.12,3.54,3.54,0,0,1,1,0c.06,0,.13,0,.15-.05a.13.13,0,0,0,0-.13.24.24,0,0,0-.13-.07,1.16,1.16,0,0,0-.55-.07,3.08,3.08,0,0,1,.68,0c.16,0,.43,0,.4-.14s-.27-.15-.47-.14a2.82,2.82,0,0,0,.52-.12s0,0,0,0l0,0-.05,0a.07.07,0,0,0-.06,0,.61.61,0,0,0-.3,0c.11,0,.18-.16.17-.21a.25.25,0,0,0,0-.09A.13.13,0,0,0,56.48,61.82Z"/><path class="cls-4" d="M55.32,64.59a1.51,1.51,0,0,0-.3-.1l-.28-.07a.69.69,0,0,0-.25,0l.2-.12h0a1,1,0,0,0,.58,0,.88.88,0,0,0,.45-.42s0,0,0,0a.74.74,0,0,0-.58.08,2.61,2.61,0,0,0-.28.17c-.07,0-.16.09-.18.16a3.17,3.17,0,0,1-.55.28l-.09,0a2.06,2.06,0,0,0,.43-.35l.11-.15a.75.75,0,0,0,.09-.15.61.61,0,0,0,0-.3s0,0,0,0-.07.08-.12.11a.37.37,0,0,1-.14.07.38.38,0,0,0-.12.1l-.14.11a.59.59,0,0,0-.19.28,1.4,1.4,0,0,0-.1.35s0,0,0,0l-.25.07h-.08l-.12,0a.2.2,0,0,0-.11,0h0l-.19,0,.08,0a1.17,1.17,0,0,0,.28-.17,3.11,3.11,0,0,0,.28-.23.92.92,0,0,0,.19-.28.24.24,0,0,0,0-.29h0l-.35.17a.75.75,0,0,0-.28.25,2.67,2.67,0,0,0-.24.32.52.52,0,0,0-.14.34l-.36.07a4.47,4.47,0,0,0,.42-.45l.1-.15a.51.51,0,0,0,.09-.16,1.23,1.23,0,0,0,0-.2.61.61,0,0,0,0-.19s0,0,0,0l-.06.06-.07.06-.14.14a.83.83,0,0,0-.23.3.62.62,0,0,1-.07.19.83.83,0,0,0-.09.16l0,.17s0,.06,0,.09l0,0-.08,0h-.33L51.57,65s0,.09,0,.09l.29,0a1,1,0,0,0,.3,0l.16,0h.06s0,0,0,0a.3.3,0,0,0,.13.12l.16.1a2.72,2.72,0,0,0,.37.13,3.07,3.07,0,0,0,.53.06h.18l0,0s0,0,0,0l-.15-.11-.16-.1a1.91,1.91,0,0,0-.32-.16,1.33,1.33,0,0,0-.28-.1l.34-.09a.46.46,0,0,0,.28.15l.19.06a.62.62,0,0,0,.19,0h.4a.69.69,0,0,0,.35-.08,0,0,0,0,0,0-.08l-.4-.12a1.61,1.61,0,0,0-.36-.1h-.11l.32-.11.12,0a0,0,0,0,0,0,0,.38.38,0,0,0,.13.09l.12,0a1.37,1.37,0,0,0,.28.05H55l.28-.09S55.34,64.6,55.32,64.59Z"/><path class="cls-4" d="M48.44,64.18a1.54,1.54,0,0,1,0,.3,1.1,1.1,0,0,1-.06.26.55.55,0,0,1-.11.2l.18-.09a0,0,0,0,1,0,0,1,1,0,0,1,.25-.46.63.63,0,0,1,.49-.18s0,0,0,0a.58.58,0,0,1-.26.45l-.25.16s-.13.08-.19.06a2.78,2.78,0,0,0-.47.28l-.07,0a2,2,0,0,1,.47-.14h.32a.68.68,0,0,1,.26.15,0,0,0,0,1,0,0s-.1,0-.14,0a.54.54,0,0,0-.12.09.34.34,0,0,1-.14,0l-.16,0a.42.42,0,0,1-.31,0,1.09,1.09,0,0,1-.31-.14h0l-.19.14,0,0,0,0-.09.07a.47.47,0,0,1-.09.06h0l-.15.11.07,0a1.11,1.11,0,0,1,.29-.1l.33-.07a.83.83,0,0,1,.31,0,.25.25,0,0,1,.21.2s0,0,0,0l-.33.19a.69.69,0,0,1-.35.07,2.56,2.56,0,0,1-.39,0,.47.47,0,0,1-.32-.12l-.29.2a5.81,5.81,0,0,1,.59,0l.17,0a.58.58,0,0,1,.18,0,2.67,2.67,0,0,1,.31.23s0,0,0,0l-.09,0h-.1l-.19,0a.7.7,0,0,1-.38,0,.67.67,0,0,0-.18-.07.61.61,0,0,1-.18,0l-.14-.1-.07,0h0l-.07.05a1.2,1.2,0,0,0-.23.22,1.79,1.79,0,0,1-.22.25s-.09,0,0-.06a2,2,0,0,0,.19-.22,1,1,0,0,1,.21-.2l.13-.1a0,0,0,0,1,0,0l0,0a0,0,0,0,1,0,0,.37.37,0,0,1,0-.18,1.21,1.21,0,0,1,0-.18,2.09,2.09,0,0,1,.13-.35A3.66,3.66,0,0,1,47,65l.07-.1,0,0s.07,0,.08,0a1,1,0,0,1,0,.17c0,.06,0,.13,0,.19a1.37,1.37,0,0,1-.07.34.88.88,0,0,1-.1.27,2.48,2.48,0,0,0,.26-.19.66.66,0,0,1,.06-.31l.06-.18a1.09,1.09,0,0,1,.08-.15c.06-.11.13-.21.19-.31a.78.78,0,0,1,.21-.23s.07,0,.06.05l-.09.39a2.75,2.75,0,0,1-.1.34.7.7,0,0,1-.06.09l.24-.18.1-.07s0,0,0,0a.38.38,0,0,1,0-.15l0-.12a1.47,1.47,0,0,1,.08-.25l.07-.11a.47.47,0,0,1,0-.1l.17-.17S48.44,64.16,48.44,64.18Z"/><path class="cls-5" d="M51.74,65.49c-.35,0-.4.12-.81.21.18-.06.49-.31.42-.36-.33-.25-.69.22-1,.31l.45-.26s.12-.06.1-.13-.29,0-.42,0-.46.32-.7.47c.16-.14.32-.28.47-.43s0,0,0,0,0-.09-.08-.09a.73.73,0,0,0-.49.23,2.67,2.67,0,0,1-.45.38,4.84,4.84,0,0,0,.38-.48c0-.11,0-.11,0-.11s-.18.08-.27.15-.47.57-.5.51.2-.23.29-.35.08-.14,0-.19h0c-.14,0-.25.17-.36.3a3.25,3.25,0,0,1-.41.42c.13-.18.42-.44.37-.56s-.26,0-.36.14a5.24,5.24,0,0,0-.51.68c.11-.2.21-.41.3-.62,0,0,0-.11,0-.14h-.05c-.17,0-.32.21-.44.39a4.79,4.79,0,0,0-.6,1,1.73,1.73,0,0,0,.46,0,1.51,1.51,0,0,1,1,.1c.06,0,.15,0,.17,0s0-.12-.07-.16a.67.67,0,0,0-.34-.16,1.88,1.88,0,0,1,.8.28s.12.07.16,0a.16.16,0,0,0,0-.15l-.1-.1a1.41,1.41,0,0,0-.42-.22,2.14,2.14,0,0,1,.81.23c.15.07.32.16.46.06a.16.16,0,0,0,0-.08.2.2,0,0,0-.12-.2,1.85,1.85,0,0,0-.44-.18,1.67,1.67,0,0,1,.74.27c.11.08.23.17.34.12l0,0a.12.12,0,0,0,0-.11,1.44,1.44,0,0,0-.42-.29,4.11,4.11,0,0,1,.9.38s.12.06.16,0,0-.1,0-.14a.24.24,0,0,0-.09-.11,1.41,1.41,0,0,0-.5-.26,3.15,3.15,0,0,1,.65.23c.15.07.42.1.44,0s-.22-.23-.41-.28c.24,0,.55.07.63,0s-.08-.16-.15-.17a2.25,2.25,0,0,0-.33-.08C51.72,65.82,51.94,65.5,51.74,65.49Z"/><path class="cls-4" d="M49.63,67.74a1.06,1.06,0,0,0-.24-.19,1.32,1.32,0,0,0-.25-.16.63.63,0,0,0-.23-.08l.22,0,0,0a1,1,0,0,0,.55.16.84.84,0,0,0,.57-.24,0,0,0,0,0,0,0A.78.78,0,0,0,49.7,67l-.32.06c-.07,0-.17,0-.22.09a2.47,2.47,0,0,1-.6.08h-.1a2.31,2.31,0,0,0,.52-.19l.15-.1.13-.11a.57.57,0,0,0,.11-.29s0,0,0,0-.1.05-.15.06a.77.77,0,0,1-.15,0,.38.38,0,0,0-.15,0,.58.58,0,0,1-.17.06.58.58,0,0,0-.27.2,1.21,1.21,0,0,0-.2.3h-.72a1.14,1.14,0,0,0,.32-.07l.34-.13a.83.83,0,0,0,.26-.19.26.26,0,0,0,.06-.3s0,0,0,0l-.39,0a.91.91,0,0,0-.34.14,3.29,3.29,0,0,0-.33.23.6.6,0,0,0-.24.28l-.36,0a3.5,3.5,0,0,0,.54-.29l.14-.11a.43.43,0,0,0,.14-.13s.05-.11.08-.17a1.39,1.39,0,0,0,.06-.19s0,0,0,0l-.08,0-.09,0-.18.08a.74.74,0,0,0-.31.22.88.88,0,0,1-.12.15.57.57,0,0,0-.14.13l-.09.15a.43.43,0,0,1,0,.07l0,0h-.08A1.15,1.15,0,0,1,46.3,67L46,66.88s-.07.07,0,.08l.27.13a1.31,1.31,0,0,0,.28.09l.16,0h.06a0,0,0,0,0,0,0,.32.32,0,0,0,.09.16,1.58,1.58,0,0,0,.12.15,2.26,2.26,0,0,0,.31.23,2.12,2.12,0,0,0,.48.23l.12,0,0,0s.09,0,.07,0l-.1-.15-.12-.14a2.06,2.06,0,0,0-.25-.26,2.11,2.11,0,0,0-.23-.19l.34,0a.51.51,0,0,0,.22.24c.05,0,.1.08.16.11a.91.91,0,0,0,.17.09l.37.13a.85.85,0,0,0,.35,0s.06,0,0-.08l-.34-.25a2,2,0,0,0-.3-.21l-.1,0h.46s0,0,0,0a.27.27,0,0,0,.09.12l.1.08a1.23,1.23,0,0,0,.25.14l.13,0,.12,0h.29A0,0,0,0,0,49.63,67.74Z"/><path class="cls-4" d="M43.19,65.23a1.69,1.69,0,0,1-.12.27,1.88,1.88,0,0,1-.14.24.81.81,0,0,1-.16.16l.2,0v0a1.11,1.11,0,0,1,.38-.37.69.69,0,0,1,.53,0s0,0,0,0a.6.6,0,0,1-.39.36,1,1,0,0,1-.29.08c-.06,0-.14,0-.21,0a2.6,2.6,0,0,0-.53.14l-.08,0a1.68,1.68,0,0,1,.5,0l.17,0,.14,0a.73.73,0,0,1,.21.22s0,0,0,0-.11,0-.16,0a.5.5,0,0,0-.13,0,.26.26,0,0,1-.15,0H42.8a.59.59,0,0,1-.31-.09,1.71,1.71,0,0,1-.26-.21,0,0,0,0,1,0,0l-.22.09,0,0h0l-.11,0-.1,0h0l-.17.06.08,0,.3,0,.33,0a.53.53,0,0,1,.3.09.25.25,0,0,1,.16.25s0,0,0,0l-.37.1a.82.82,0,0,1-.35,0,1.63,1.63,0,0,1-.37-.13.47.47,0,0,1-.29-.21l-.33.13a3.7,3.7,0,0,1,.57.16l.17.06a1.29,1.29,0,0,1,.16.09.81.81,0,0,1,.12.14,1,1,0,0,1,.12.16s0,0,0,0h-.18l-.2,0a.67.67,0,0,1-.35-.14.76.76,0,0,0-.16-.11.54.54,0,0,1-.16-.1.69.69,0,0,1-.11-.13l-.06-.06,0,0-.08,0a1.56,1.56,0,0,0-.28.16,1.71,1.71,0,0,1-.27.2s-.08-.06,0-.08a1.38,1.38,0,0,0,.25-.17,1.28,1.28,0,0,1,.25-.15l.15-.06h0l0,0s0,0,0,0a.37.37,0,0,1,.05-.17.89.89,0,0,1,.08-.17,2.37,2.37,0,0,1,.23-.3,2.81,2.81,0,0,1,.35-.34l.09-.07,0,0s.08,0,.07,0a.84.84,0,0,1-.05.17l-.06.17a1.48,1.48,0,0,1-.15.31,1.46,1.46,0,0,1-.17.24l.3-.11a.65.65,0,0,1,.14-.29l.1-.15a.87.87,0,0,1,.12-.14l.27-.25a.65.65,0,0,1,.27-.17s.06,0,0,.06-.13.24-.2.36a1.83,1.83,0,0,1-.18.3l-.08.08.29-.12.1,0s0,0,0,0a.57.57,0,0,1,0-.14.39.39,0,0,1,.06-.11.94.94,0,0,1,.15-.22l.09-.09a.6.6,0,0,1,.08-.08,2.39,2.39,0,0,1,.22-.12S43.19,65.21,43.19,65.23Z"/><path class="cls-5" d="M46,67.44c-.32-.13-.42,0-.83,0,.19,0,.56-.14.51-.21-.24-.34-.72,0-1,0l.5-.12s.14,0,.14-.09-.27-.12-.42-.07l-.8.25.57-.28s0,0,0,0,0-.09,0-.1a.66.66,0,0,0-.54.08,3.7,3.7,0,0,1-.54.24,4.58,4.58,0,0,0,.51-.37c.07-.08,0-.1,0-.11s-.2,0-.31.07-.25.15-.38.23-.23.15-.24.11.25-.16.38-.25.11-.11.08-.17l0,0c-.14,0-.3.09-.44.18a4.21,4.21,0,0,1-.51.29c.18-.14.52-.31.51-.43s-.26-.06-.39,0a4.66,4.66,0,0,0-.67.54l.46-.53s.06-.1,0-.13a0,0,0,0,0,0,0,.8.8,0,0,0-.54.27c-.14.13-.28.23-.42.35a2.6,2.6,0,0,0-.4.41,1.76,1.76,0,0,0,.44.15,1.07,1.07,0,0,1,.25,0,1.05,1.05,0,0,1,.24.06,1.48,1.48,0,0,1,.44.25c.05,0,.14.08.18,0a.17.17,0,0,0,0-.17.59.59,0,0,0-.28-.24,1.67,1.67,0,0,1,.69.48s.1.1.15.06a.14.14,0,0,0,0-.14.22.22,0,0,0-.06-.13,1.33,1.33,0,0,0-.34-.33,2.14,2.14,0,0,1,.71.45c.12.11.26.24.42.19a.1.1,0,0,0,.07-.07c0-.07,0-.16-.06-.22a1.74,1.74,0,0,0-.37-.3,1.56,1.56,0,0,1,.63.47c.08.1.17.23.29.21s.05,0,.06,0,0-.08,0-.12a1.29,1.29,0,0,0-.31-.38,3.53,3.53,0,0,1,.74.62s.1.09.15.05a.15.15,0,0,0,0-.14.22.22,0,0,0-.05-.12,1.38,1.38,0,0,0-.4-.4,3.41,3.41,0,0,1,.55.41c.11.1.37.23.41.13s-.14-.29-.3-.39c.22.11.5.23.59.19s0-.17-.09-.21a1.22,1.22,0,0,0-.29-.17C45.87,67.75,46.17,67.51,46,67.44Z"/><path class="cls-4" d="M43.37,69a2.27,2.27,0,0,0-.18-.25A2,2,0,0,0,43,68.5a.66.66,0,0,0-.2-.14l.22,0s0,0,0,0a1.14,1.14,0,0,0,.48.31.78.78,0,0,0,.6-.07,0,0,0,0,0,0,0,.72.72,0,0,0-.5-.27l-.32,0a.39.39,0,0,0-.24,0,2.39,2.39,0,0,1-.59-.08l-.1,0a1.68,1.68,0,0,0,.55,0l.17-.06a.67.67,0,0,0,.15-.06.63.63,0,0,0,.19-.24,0,0,0,0,0,0,0l-.17,0a.8.8,0,0,1-.15,0,.38.38,0,0,0-.15,0h-.18a.59.59,0,0,0-.31.12,1.55,1.55,0,0,0-.27.24s0,0,0,0l-.23-.07,0,0h0l-.12,0a.25.25,0,0,0-.11,0h0l-.18-.07.08,0a1.22,1.22,0,0,0,.33,0l.35,0a.76.76,0,0,0,.31-.13.25.25,0,0,0,.13-.26,0,0,0,0,0,0,0c-.13,0-.25,0-.38-.06a.76.76,0,0,0-.36.06,2.43,2.43,0,0,0-.38.13.52.52,0,0,0-.3.2l-.34-.13a5.66,5.66,0,0,0,.59-.15l.17-.06a.65.65,0,0,0,.16-.09.88.88,0,0,0,.12-.15,1,1,0,0,0,.11-.17s0,0,0,0l-.09,0-.09,0-.19,0a.78.78,0,0,0-.36.13,1,1,0,0,1-.16.12.48.48,0,0,0-.16.08,1.42,1.42,0,0,0-.12.13l-.07.06,0,0-.07,0a.88.88,0,0,1-.28-.17l-.26-.21s-.09,0,0,.07l.23.19a1.43,1.43,0,0,0,.24.16l.15.06h0a.37.37,0,0,0,0,.18.56.56,0,0,0,.09.17,2.37,2.37,0,0,0,.23.3,2.64,2.64,0,0,0,.4.35l.11.07,0,0s.09,0,.08,0a.85.85,0,0,0-.06-.17,1.42,1.42,0,0,0-.08-.18,2,2,0,0,0-.17-.32,1.3,1.3,0,0,0-.18-.23l.32.11a.59.59,0,0,0,.16.29l.12.16.14.12.32.22a.8.8,0,0,0,.32.13s.07,0,0-.06l-.26-.33a2.26,2.26,0,0,0-.23-.29l-.09-.06.32.08.12,0s0,0,0,0a.35.35,0,0,0,.06.14.39.39,0,0,0,.08.1,1.21,1.21,0,0,0,.19.2l.12.08.1.07.27.09S43.38,69,43.37,69Z"/><path class="cls-4" d="M37.78,64.94a1,1,0,0,1-.18.23,1.8,1.8,0,0,1-.19.2.56.56,0,0,1-.2.11h.21v0a1.15,1.15,0,0,1,.45-.26.63.63,0,0,1,.52.08s0,0,0,0a.61.61,0,0,1-.46.26,1.51,1.51,0,0,1-.3,0,.29.29,0,0,1-.2,0,3.39,3.39,0,0,0-.55,0h-.09a1.66,1.66,0,0,1,.49.11l.15.08.13.08a.58.58,0,0,1,.15.25s0,0,0,0a.66.66,0,0,1-.15,0l-.15,0a.58.58,0,0,1-.14,0l-.17,0a.45.45,0,0,1-.27-.16,1.39,1.39,0,0,1-.21-.27h0l-.23,0h-.08l-.11,0h-.14l-.18,0H36a1,1,0,0,1,.3.05l.32.1a.87.87,0,0,1,.26.16.28.28,0,0,1,.09.29h-.4a.85.85,0,0,1-.34-.11,3.62,3.62,0,0,1-.32-.22.55.55,0,0,1-.23-.27l-.35,0a3.2,3.2,0,0,1,.51.29l.15.1a1.59,1.59,0,0,1,.13.13,1,1,0,0,1,.09.18.87.87,0,0,1,.07.17s0,0,0,0l-.08,0-.09,0-.18-.08a.71.71,0,0,1-.32-.22,1.58,1.58,0,0,0-.12-.15.74.74,0,0,1-.13-.12s0-.11-.08-.16a.25.25,0,0,0,0-.07l0,0h-.08a1.57,1.57,0,0,0-.31.08,1.92,1.92,0,0,1-.31.11c-.05,0-.07-.07,0-.08a1.33,1.33,0,0,0,.28-.1,1.28,1.28,0,0,1,.28-.07l.15,0h.05a1.29,1.29,0,0,1,.09-.16l.13-.14a2.09,2.09,0,0,1,.29-.23,2.32,2.32,0,0,1,.43-.24l.11-.06h0s.08,0,.06,0a.54.54,0,0,1-.09.15.86.86,0,0,1-.1.16,2.85,2.85,0,0,1-.23.26,1.3,1.3,0,0,1-.22.19l.32,0a.66.66,0,0,1,.2-.24l.14-.12.15-.1.32-.18a.69.69,0,0,1,.3-.09,0,0,0,0,1,0,.07l-.28.29a1.54,1.54,0,0,1-.26.25l-.09.06.31,0H37s0,0,0,0a.54.54,0,0,1,.07-.13.76.76,0,0,1,.09-.09.86.86,0,0,1,.2-.18.53.53,0,0,0,.1-.06l.1-.06.24-.06S37.8,64.91,37.78,64.94Z"/><path class="cls-5" d="M40,67.75c-.28-.2-.4-.12-.79-.24.18,0,.57,0,.54-.09-.15-.39-.7-.17-1-.22h.52c.05,0,.14,0,.15,0S39.18,67,39,67l-.21,0h-.63l.62-.12,0,0s0-.09,0-.11a.67.67,0,0,0-.54-.06,3.91,3.91,0,0,1-.58.1c.19-.08.48-.17.57-.23s0-.1,0-.12-.19,0-.31,0a4.2,4.2,0,0,0-.43.14c-.14.06-.26.08-.26,0s.08-.06.17-.08l.26-.08c.06,0,.14-.08.12-.14l0,0c-.12-.08-.31,0-.47.08a3.4,3.4,0,0,1-.57.15c.21-.08.59-.16.61-.29s-.24-.12-.39-.07a4.52,4.52,0,0,0-.78.36l.57-.4s.09-.08.07-.12a0,0,0,0,0,0,0,.79.79,0,0,0-.59.12,5.24,5.24,0,0,0-1,.53,1.63,1.63,0,0,0,.39.25,1.88,1.88,0,0,1,.45.22,1.8,1.8,0,0,1,.37.36c0,.05.1.11.16.05a.17.17,0,0,0,0-.18.65.65,0,0,0-.21-.3,1.73,1.73,0,0,1,.55.64s.07.12.13.09.07-.07.08-.12a.32.32,0,0,0,0-.14,1.6,1.6,0,0,0-.25-.4,2.37,2.37,0,0,1,.58.6c.09.14.19.29.36.28a.2.2,0,0,0,.09,0,.2.2,0,0,0,0-.22,1.24,1.24,0,0,0-.29-.38,1.48,1.48,0,0,1,.5.6c0,.12.11.26.24.28a.07.07,0,0,0,.06,0s0-.08,0-.12a1.21,1.21,0,0,0-.21-.46,3.79,3.79,0,0,1,.57.79s.07.11.13.09a.2.2,0,0,0,.08-.13.35.35,0,0,0,0-.14,1.2,1.2,0,0,0-.29-.47,3.18,3.18,0,0,1,.44.52c.08.13.3.31.36.22s-.06-.3-.19-.44c.18.15.42.34.53.33s0-.18,0-.23a1.31,1.31,0,0,0-.23-.24C39.77,68,40.12,67.87,40,67.75Z"/><path class="cls-4" d="M37,68.61a1.45,1.45,0,0,0-.11-.29,1.26,1.26,0,0,0-.13-.26.7.7,0,0,0-.16-.19l.22.08v0a1.06,1.06,0,0,0,.39.42.89.89,0,0,0,.6.07s0,0,0,0a.73.73,0,0,0-.43-.38l-.31-.1a.3.3,0,0,0-.23,0,3.35,3.35,0,0,1-.55-.23l-.09,0a2,2,0,0,0,.54.1H37a.76.76,0,0,0,.16,0,.55.55,0,0,0,.24-.19s0,0,0,0h-.16a.91.91,0,0,1-.14-.07.29.29,0,0,0-.16,0l-.17,0a.48.48,0,0,0-.33,0,1.37,1.37,0,0,0-.32.16h0l-.22-.13,0,0,0,0-.1-.07-.1-.07h0l-.16-.11.08,0a1.58,1.58,0,0,0,.31.09,2,2,0,0,0,.35,0,.75.75,0,0,0,.33,0,.26.26,0,0,0,.19-.23,0,0,0,0,0,0,0l-.36-.15a.87.87,0,0,0-.36,0,2.69,2.69,0,0,0-.4,0,.61.61,0,0,0-.34.12,2.73,2.73,0,0,1-.3-.21,3.11,3.11,0,0,0,.61,0h.18a.61.61,0,0,0,.18,0,.91.91,0,0,0,.16-.11,1.66,1.66,0,0,0,.14-.13s0,0,0-.05H36l-.19,0a.81.81,0,0,0-.38,0,.62.62,0,0,1-.19.07,1.21,1.21,0,0,0-.18,0l-.15.1-.08,0h0l-.06-.05a1.37,1.37,0,0,1-.23-.25,2.61,2.61,0,0,0-.19-.27,0,0,0,0,0-.06.06,2.07,2.07,0,0,1,.17.24,1,1,0,0,0,.2.22l.13.11a0,0,0,0,0,0,0l0,0h0a.37.37,0,0,0,0,.18.65.65,0,0,0,0,.19,2.63,2.63,0,0,0,.15.35,2.55,2.55,0,0,0,.3.43l.09.1,0,0s.08,0,.09,0a1.1,1.1,0,0,0,0-.18l0-.19a2.25,2.25,0,0,0-.09-.35c0-.09-.07-.18-.11-.27l.28.19a.61.61,0,0,0,.08.32l.08.18.11.16a3.47,3.47,0,0,0,.25.29.71.71,0,0,0,.28.21,0,0,0,0,0,.06,0L36.2,68a1.77,1.77,0,0,0-.16-.34L36,67.54l.28.16.12.06s0,0,0,0a.39.39,0,0,0,0,.15.61.61,0,0,0,0,.12,1,1,0,0,0,.14.24l.09.1a.43.43,0,0,0,.09.1,1.94,1.94,0,0,0,.24.15S37,68.64,37,68.61Z"/><path class="cls-4" d="M32.68,63.28a2.15,2.15,0,0,1-.24.18,1.38,1.38,0,0,1-.24.14.55.55,0,0,1-.22.06l.2.06h0a1,1,0,0,1,.51-.14.62.62,0,0,1,.47.22,0,0,0,0,1,0,0,.61.61,0,0,1-.51.13,1.53,1.53,0,0,1-.29-.07c-.06,0-.15,0-.18-.1a4.56,4.56,0,0,0-.53-.13h-.09a1.54,1.54,0,0,1,.44.23l.12.11.11.11a.69.69,0,0,1,.07.29,0,0,0,0,1,0,0,1.48,1.48,0,0,1-.13-.08.77.77,0,0,0-.15,0,.33.33,0,0,1-.13-.07l-.15-.07A.45.45,0,0,1,31.5,64a1.52,1.52,0,0,1-.12-.32h0l-.23,0h-.07l-.12,0a.18.18,0,0,1-.1,0h0l-.18,0,.08,0a1,1,0,0,1,.27.13l.27.18a.66.66,0,0,1,.21.23.27.27,0,0,1,0,.3h0l-.36-.1a.75.75,0,0,1-.29-.2,1.87,1.87,0,0,1-.26-.3.59.59,0,0,1-.14-.32l-.34-.06.21.21.2.21.1.14a.54.54,0,0,1,.1.16,1.08,1.08,0,0,1,0,.19.62.62,0,0,1,0,.19s0,0,0,0l-.07-.05-.08-.06-.15-.12a.75.75,0,0,1-.24-.29.75.75,0,0,0-.07-.18.51.51,0,0,1-.09-.16l0-.18s0,0,0-.08v0h-.09a1.1,1.1,0,0,0-.32,0,1.74,1.74,0,0,1-.32,0c-.06,0,0-.09,0-.08a1.41,1.41,0,0,0,.29,0h.28l.16,0H30a.53.53,0,0,1,.13-.13,1,1,0,0,1,.17-.1l.34-.14a4,4,0,0,1,.47-.11l.12,0h0s.08,0,0,.06a1.42,1.42,0,0,1-.13.12l-.14.12a2.4,2.4,0,0,1-.29.19,1.07,1.07,0,0,1-.27.12l.32.06a.53.53,0,0,1,.26-.18l.17-.08a.85.85,0,0,1,.17-.06l.35-.08a.76.76,0,0,1,.3,0,0,0,0,0,1,0,.07c-.11.08-.23.14-.34.21a2,2,0,0,1-.32.17l-.1,0,.3,0,.12,0s0,0,0,0a.32.32,0,0,1,.1-.1l.1-.07a1.34,1.34,0,0,1,.24-.12.53.53,0,0,0,.12,0l.11,0h.25S32.69,63.26,32.68,63.28Z"/><path class="cls-5" d="M34,66.56a.76.76,0,0,0-.3-.23,1.56,1.56,0,0,1-.4-.21.85.85,0,0,0,.34.1c.12,0,.21,0,.21,0-.05-.4-.63-.35-.88-.47l.5.13s.13.06.16,0-.17-.25-.33-.27l-.41-.08-.41-.1c.21,0,.42,0,.64,0h0s0-.09,0-.12a.78.78,0,0,0-.51-.19,2.78,2.78,0,0,1-.58,0c.2,0,.5,0,.61-.07s.06-.09,0-.11-.18-.08-.3-.09-.73.06-.71,0,.3,0,.45,0,.16,0,.16-.11a.05.05,0,0,0,0,0c-.09-.1-.3-.06-.46,0a3,3,0,0,1-.6,0c.23,0,.61,0,.67-.12s-.2-.18-.36-.17a4.29,4.29,0,0,0-.84.13l.66-.23s.1,0,.1-.09,0,0,0,0a.73.73,0,0,0-.59,0,5,5,0,0,0-1.1.23l.11.15a1.26,1.26,0,0,0,.2.2,1.62,1.62,0,0,1,.63.78c0,.07.07.14.15.1s.06-.11.06-.16a.64.64,0,0,0-.12-.35,1.75,1.75,0,0,1,.36.75c0,.07,0,.14.1.13a.13.13,0,0,0,.11-.1.23.23,0,0,0,0-.14,1.32,1.32,0,0,0-.14-.45,2.14,2.14,0,0,1,.41.74c.05.15.11.33.27.36a.18.18,0,0,0,.1,0,.2.2,0,0,0,0-.22,1.32,1.32,0,0,0-.18-.44,1.36,1.36,0,0,1,.32.71c0,.13,0,.29.16.33h.07a.14.14,0,0,0,0-.11,1.59,1.59,0,0,0-.08-.5,4.3,4.3,0,0,1,.35.91s0,.12.09.11a.13.13,0,0,0,.11-.09.36.36,0,0,0,0-.14,1.36,1.36,0,0,0-.16-.54,3.17,3.17,0,0,1,.28.62c0,.15.21.38.3.32s0-.32-.08-.49c.14.21.33.45.43.46s.06-.17,0-.23a1.38,1.38,0,0,0-.17-.29C33.78,66.78,34.16,66.71,34,66.56Z"/><path class="cls-4" d="M31,66.62a1.65,1.65,0,0,0,0-.31,1.4,1.4,0,0,0-.06-.28.55.55,0,0,0-.1-.22,1.22,1.22,0,0,0,.19.12v0a1,1,0,0,0,.26.5.87.87,0,0,0,.57.24s0,0,0,0a.74.74,0,0,0-.31-.48c-.09-.06-.18-.13-.27-.18s-.14-.11-.21-.1a2.52,2.52,0,0,1-.49-.37l-.07-.07a1.65,1.65,0,0,0,.5.24l.18,0a.49.49,0,0,0,.17,0,.61.61,0,0,0,.28-.11s0,0,0,0-.1,0-.15-.07a.38.38,0,0,1-.12-.1.61.61,0,0,0-.14-.07L31,65.29a.56.56,0,0,0-.34-.05,1.07,1.07,0,0,0-.35.06,0,0,0,0,0,0,0l-.17-.18,0,0,0,0L30,65a.36.36,0,0,0-.08-.09v0h0l-.12-.15.06.05a1.2,1.2,0,0,0,.27.19l.34.14a.7.7,0,0,0,.32,0,.24.24,0,0,0,.25-.16s0,0,0,0l-.29-.25a.89.89,0,0,0-.35-.14,1.8,1.8,0,0,0-.39-.08.58.58,0,0,0-.37,0l-.22-.3a2.91,2.91,0,0,0,.59.19l.17,0a.62.62,0,0,0,.19,0l.18-.07a1,1,0,0,0,.18-.09,0,0,0,0,0,0,0s0,0-.08,0l-.09,0-.18-.07A.8.8,0,0,0,30,64a1.21,1.21,0,0,1-.19,0,.59.59,0,0,0-.19,0l-.17,0-.09,0h0L29.29,64a1,1,0,0,1-.14-.3,3,3,0,0,0-.11-.32s-.1,0-.08,0a1.66,1.66,0,0,1,.1.29,1.31,1.31,0,0,0,.12.27.71.71,0,0,0,.1.14s0,0,0,0l0,0h0a.39.39,0,0,0-.06.17,1.34,1.34,0,0,0,0,.2,2.45,2.45,0,0,0,0,.38,2.13,2.13,0,0,0,.18.5l.05.12,0,0s.07.06.08,0a.57.57,0,0,0,0-.18l0-.19c0-.12,0-.24,0-.36a1.45,1.45,0,0,0,0-.29l.23.26a.53.53,0,0,0,0,.33,1.25,1.25,0,0,1,0,.19.75.75,0,0,0,.07.18,3.92,3.92,0,0,0,.16.36.77.77,0,0,0,.22.29s.07,0,.06,0l-.05-.43c0-.12,0-.25-.06-.36a1,1,0,0,0,0-.1l.23.24.09.08,0,0a.77.77,0,0,0,0,.15.51.51,0,0,0,0,.13,1.28,1.28,0,0,0,.07.28l.07.11a.61.61,0,0,0,0,.12l.2.21S31,66.65,31,66.62Z"/><path class="cls-6" d="M50.78,64.67c.35-.89,1.82-.71,1.56.33S50.37,65.72,50.78,64.67Z"/><path class="cls-6" d="M46.09,67.63a.47.47,0,0,1-.17,0,.33.33,0,0,1-.14-.19.84.84,0,0,1,0-.66.66.66,0,0,1,.53-.38c.34,0,.89.31.76.7S46.43,67.62,46.09,67.63Z"/><path class="cls-6" d="M44.83,65.94a.5.5,0,0,1,.71.2c.28.54.07.69-.09.83a.49.49,0,0,1-.44.08.5.5,0,0,1-.29-.16.77.77,0,0,1-.17-.27A.57.57,0,0,1,44.83,65.94Z"/><path class="cls-6" d="M40.19,66.66a.37.37,0,0,1,.18-.34c.11-.08.52-.23.74.05a.79.79,0,0,1,.13.63c-.05.14-.13.3-.28.31S40.22,67,40.19,66.66Z"/><path class="cls-6" d="M39.31,67.19a.56.56,0,0,1,.77-.17.51.51,0,0,1,.19.81.66.66,0,0,1-.76.13A.57.57,0,0,1,39.31,67.19Z"/><path class="cls-6" d="M33.48,65.81c.07-.92,1.58-.76,1.44.16a1,1,0,0,1-.64.76C33.7,67,33.44,66.3,33.48,65.81Z"/><path class="cls-4" d="M5.14,61.64a1.36,1.36,0,0,0-.06.29,1.24,1.24,0,0,0,0,.27.78.78,0,0,0,0,.22A.86.86,0,0,0,5,62.28v0a1.08,1.08,0,0,0-.08-.51.67.67,0,0,0-.39-.33s0,0,0,0a.61.61,0,0,0,.09.51,1.24,1.24,0,0,0,.18.22s.09.12.16.13a3.36,3.36,0,0,1,.34.41l0,.07a1.84,1.84,0,0,0-.39-.28l-.16-.07-.14,0a.61.61,0,0,0-.29.06s0,0,0,0,.08.06.12.1,0,.08.08.12a.38.38,0,0,0,.12.09l.13.1A.48.48,0,0,0,5,63a1,1,0,0,0,.34,0s0,0,0,0l.13.19a.05.05,0,0,0,0,0l0,0,.07.1a.16.16,0,0,0,.06.08v0h0l.1.14,0,0a.88.88,0,0,0-.24-.19l-.28-.17a.61.61,0,0,0-.3-.08.24.24,0,0,0-.26.12s0,0,0,0l.24.29a.73.73,0,0,0,.31.17,2.59,2.59,0,0,0,.37.11.56.56,0,0,0,.36,0l.2.28a5.22,5.22,0,0,0-.56-.18l-.17,0a.55.55,0,0,0-.18,0,.67.67,0,0,0-.19.05.67.67,0,0,0-.18.07s0,0,0,0l.08,0L5,64l.17.09a.81.81,0,0,0,.37.09l.2,0a.55.55,0,0,0,.18,0l.17,0,.08,0h0l0,.07a1.25,1.25,0,0,1,.15.28,2.71,2.71,0,0,0,.13.3s.1,0,.07,0-.08-.18-.12-.27a.91.91,0,0,0-.13-.26l-.09-.13h0l0,0h0a.58.58,0,0,0,.06-.17,1.28,1.28,0,0,0,0-.19,2.42,2.42,0,0,0,0-.38,2.46,2.46,0,0,0-.1-.47l0-.11,0,0s0,0-.07,0a.84.84,0,0,0-.05.17A1.21,1.21,0,0,0,6,63c0,.11,0,.23,0,.34a1.38,1.38,0,0,0,0,.29l-.18-.26a.67.67,0,0,0,0-.31,1.21,1.21,0,0,1,0-.19l0-.18c0-.11,0-.23-.07-.35a.74.74,0,0,0-.12-.27s-.07,0-.07,0,0,.27,0,.4a2.11,2.11,0,0,0,0,.35s0,.07,0,.11l-.16-.25-.07-.1,0,0a.42.42,0,0,0,.06-.14.49.49,0,0,0,0-.12,1.24,1.24,0,0,0,0-.27.5.5,0,0,1,0-.12s0-.08,0-.11-.07-.15-.1-.22S5.15,61.62,5.14,61.64Z"/><path class="cls-5" d="M1.66,61.82a.35.35,0,0,1,.29.12,2.77,2.77,0,0,0,.35.28c-.16-.12-.35-.45-.27-.48.39-.13.56.44.78.61L2.48,62s-.1-.1,0-.15.29.06.37.19l.5.69c-.11-.19-.2-.38-.29-.57,0,0,0,0,0,0s.07-.07.1,0a.68.68,0,0,1,.38.38,3.57,3.57,0,0,0,.29.51,4.86,4.86,0,0,1-.19-.59c0-.11.06-.09.09-.08s.14.14.2.24.25.69.3.64-.11-.28-.16-.42,0-.16,0-.19h0c.13.05.18.25.23.4a3.32,3.32,0,0,0,.25.54c-.07-.21-.25-.55-.16-.65s.24.11.29.25a4,4,0,0,1,.25.81c0-.23,0-.46-.08-.68,0,0,0-.12,0-.14H5a.74.74,0,0,1,.29.51,5.26,5.26,0,0,1,.26,1.09,1.45,1.45,0,0,1-.44-.12,1.59,1.59,0,0,0-1-.23c-.07,0-.16,0-.15-.1s.06-.1.12-.12a.6.6,0,0,1,.37,0,1.87,1.87,0,0,0-.85,0c-.06,0-.14,0-.16,0a.15.15,0,0,1,0-.14.29.29,0,0,1,.12-.07,1.29,1.29,0,0,1,.47-.06,2.36,2.36,0,0,0-.84-.06c-.17,0-.36,0-.45-.1a.17.17,0,0,1,0-.1c0-.09.11-.13.18-.14a1.56,1.56,0,0,1,.48,0,1.51,1.51,0,0,0-.79,0c-.13,0-.27.07-.36,0a.06.06,0,0,1,0-.06.12.12,0,0,1,.09-.08A1.26,1.26,0,0,1,2.81,63a3.6,3.6,0,0,0-1,0c-.06,0-.13,0-.15-.05a.13.13,0,0,1,0-.13.28.28,0,0,1,.13-.07,1.22,1.22,0,0,1,.56-.07,3.17,3.17,0,0,0-.69,0c-.16,0-.43,0-.4-.14s.28-.15.47-.14a3.09,3.09,0,0,1-.52-.12l0,0,.05,0,0,0s0,0,.05,0a.61.61,0,0,1,.3,0c-.1,0-.18-.16-.16-.21a.14.14,0,0,1,0-.09A.17.17,0,0,1,1.66,61.82Z"/><path class="cls-4" d="M2.83,64.59a1.42,1.42,0,0,1,.29-.1l.29-.07a.65.65,0,0,1,.24,0l-.19-.12h0a1,1,0,0,1-.58,0,.86.86,0,0,1-.46-.42s0,0,0,0A.72.72,0,0,1,3,63.9l.29.17c.06,0,.15.09.18.16a2.77,2.77,0,0,0,.54.28l.1,0a1.89,1.89,0,0,1-.44-.35l-.11-.15s-.06-.09-.09-.15a.61.61,0,0,1,0-.3,0,0,0,0,1,0,0,1.31,1.31,0,0,1,.12.11.37.37,0,0,0,.14.07.41.41,0,0,1,.13.1A.69.69,0,0,0,4,64a.69.69,0,0,1,.2.28,2,2,0,0,1,.09.35v0l.24.07h.08l.12,0a.27.27,0,0,1,.12,0h0l.19,0L5,64.8a1.17,1.17,0,0,1-.28-.17l-.27-.23a.67.67,0,0,1-.19-.28.24.24,0,0,1,0-.29h0l.36.17a.8.8,0,0,1,.27.25,1.91,1.91,0,0,1,.24.32.52.52,0,0,1,.14.34l.37.07a3.64,3.64,0,0,1-.43-.45l-.1-.15a.83.83,0,0,1-.09-.16,1.27,1.27,0,0,1,0-.2.61.61,0,0,1,0-.19s0,0,0,0,0,0,.07.06l.07.06.14.14a.81.81,0,0,1,.22.3,1.07,1.07,0,0,0,.07.19.51.51,0,0,1,.09.16,1.36,1.36,0,0,1,0,.17.29.29,0,0,0,0,.09v0l.09,0h.33L6.57,65s0,.09,0,.09-.2,0-.3,0a1,1,0,0,1-.29,0l-.17,0H5.75v0a.49.49,0,0,1-.13.12l-.17.1a2.32,2.32,0,0,1-.37.13,3.07,3.07,0,0,1-.53.06H4.38l0,0s0,0,0,0l.14-.11.16-.1A1.91,1.91,0,0,1,5,65a1.57,1.57,0,0,1,.28-.1l-.33-.09a.51.51,0,0,1-.29.15l-.19.06a.62.62,0,0,1-.19,0h-.4A.72.72,0,0,1,3.48,65a0,0,0,0,1,0-.08l.41-.12a1.4,1.4,0,0,1,.35-.1h.12L4,64.59l-.12,0s0,0,0,0a.47.47,0,0,1-.12.09l-.13,0a1.37,1.37,0,0,1-.28.05H3.1c-.09,0-.18-.06-.27-.09S2.8,64.6,2.83,64.59Z"/><path class="cls-4" d="M9.7,64.18a1.54,1.54,0,0,0,0,.3,1.1,1.1,0,0,0,.06.26.75.75,0,0,0,.11.2l-.17-.09v0a1,1,0,0,0-.26-.46A.62.62,0,0,0,9,64.19a0,0,0,0,0,0,0,.61.61,0,0,0,.26.45l.25.16c.06,0,.13.08.2.06a3.14,3.14,0,0,1,.46.28l.08,0a2,2,0,0,0-.48-.14H9.42a.73.73,0,0,0-.25.15s0,0,0,0,.1,0,.15,0a.87.87,0,0,1,.11.09.39.39,0,0,0,.14,0l.16,0a.44.44,0,0,0,.32,0,1.41,1.41,0,0,0,.31-.14h0l.18.14,0,0,0,0,.1.07a.24.24,0,0,0,.08.06h0l.15.11-.07,0a1,1,0,0,0-.29-.1l-.32-.07a.8.8,0,0,0-.31,0,.25.25,0,0,0-.22.2,0,0,0,0,0,0,0l.33.19a.71.71,0,0,0,.35.07,2.56,2.56,0,0,0,.39,0,.52.52,0,0,0,.33-.12l.28.2a5.86,5.86,0,0,0-.59,0l-.17,0a.58.58,0,0,0-.18,0,.57.57,0,0,0-.16.11.57.57,0,0,0-.15.12s0,0,0,0l.08,0h.1l.19,0a.7.7,0,0,0,.38,0,.67.67,0,0,1,.18-.07.61.61,0,0,0,.18,0l.14-.1.08,0h0l.06.05a1.65,1.65,0,0,1,.24.22,1.73,1.73,0,0,0,.21.25s.09,0,.06-.06a1.37,1.37,0,0,1-.2-.22,1,1,0,0,0-.2-.2l-.13-.1a0,0,0,0,1,0,0l0,0s0,0,0,0a.37.37,0,0,0,0-.18,1.16,1.16,0,0,0,0-.18,2.51,2.51,0,0,0-.4-.77l-.06-.1,0,0s-.07,0-.07,0A.49.49,0,0,0,11,65c0,.06,0,.13,0,.19s0,.23.07.34a1.25,1.25,0,0,0,.1.27l-.26-.19a.56.56,0,0,0-.06-.31l-.06-.18a1.09,1.09,0,0,0-.08-.15,3.21,3.21,0,0,0-.19-.31.67.67,0,0,0-.21-.23,0,0,0,0,0,0,.05,2.74,2.74,0,0,0,.09.39,1.69,1.69,0,0,0,.1.34.26.26,0,0,0,.05.09l-.24-.18-.09-.07s0,0,0,0a.75.75,0,0,0,0-.15.53.53,0,0,0,0-.12.92.92,0,0,0-.08-.25L10,64.42a.24.24,0,0,0-.05-.1,1.37,1.37,0,0,0-.17-.17S9.7,64.16,9.7,64.18Z"/><path class="cls-5" d="M6.41,65.49c.34,0,.4.12.81.21-.19-.06-.5-.31-.43-.36.33-.25.69.22,1,.31l-.45-.26s-.13-.06-.11-.13.3,0,.42,0,.47.32.7.47l-.47-.43s0,0,0,0a.08.08,0,0,1,.08-.09.71.71,0,0,1,.49.23,3.13,3.13,0,0,0,.45.38,4.84,4.84,0,0,1-.38-.48c-.05-.11,0-.11,0-.11s.18.08.27.15.47.57.5.51-.19-.23-.29-.35-.07-.14,0-.19H9c.14,0,.25.17.36.3a3.33,3.33,0,0,0,.42.42c-.14-.18-.43-.44-.38-.56s.26,0,.37.14a4.42,4.42,0,0,1,.5.68c-.11-.2-.21-.41-.3-.62,0,0,0-.11,0-.14h0c.18,0,.32.21.45.39a4.76,4.76,0,0,1,.59,1,1.69,1.69,0,0,1-.46,0,1.48,1.48,0,0,0-1,.1c-.07,0-.15,0-.18,0a.2.2,0,0,1,.07-.16.71.71,0,0,1,.34-.16,1.84,1.84,0,0,0-.79.28c-.06,0-.13.07-.17,0a.16.16,0,0,1,0-.15.43.43,0,0,1,.09-.1,1.54,1.54,0,0,1,.42-.22,2.2,2.2,0,0,0-.81.23c-.15.07-.32.16-.45.06a.12.12,0,0,1-.06-.08c0-.09.06-.16.12-.2a1.85,1.85,0,0,1,.44-.18,1.59,1.59,0,0,0-.73.27c-.11.08-.24.17-.35.12a.07.07,0,0,1,0,0s0-.09,0-.11A1.44,1.44,0,0,1,8,66.27a4.33,4.33,0,0,0-.9.38c-.05,0-.12.06-.15,0a.14.14,0,0,1,0-.14A.33.33,0,0,1,7,66.41a1.6,1.6,0,0,1,.5-.26,3.37,3.37,0,0,0-.65.23c-.14.07-.42.1-.43,0s.21-.23.4-.28c-.24,0-.55.07-.63,0s.08-.16.16-.17a1.87,1.87,0,0,1,.32-.08C6.43,65.82,6.21,65.5,6.41,65.49Z"/><path class="cls-4" d="M8.52,67.74a.88.88,0,0,1,.24-.19A1.67,1.67,0,0,1,9,67.39a.7.7,0,0,1,.23-.08l-.22,0,0,0a1,1,0,0,1-.55.16.8.8,0,0,1-.56-.24s0,0,0,0A.74.74,0,0,1,8.44,67l.33.06c.07,0,.17,0,.22.09a2.35,2.35,0,0,0,.6.08h.1a2.31,2.31,0,0,1-.52-.19L9,67l-.13-.11a.57.57,0,0,1-.11-.29s0,0,0,0,.1.05.15.06a.77.77,0,0,0,.15,0,.43.43,0,0,1,.16,0,.44.44,0,0,0,.16.06.54.54,0,0,1,.27.2,1.21,1.21,0,0,1,.2.3h.72a1.23,1.23,0,0,1-.32-.07L10,67a.88.88,0,0,1-.27-.19.26.26,0,0,1-.06-.3s0,0,0,0l.39,0a.91.91,0,0,1,.34.14,2.44,2.44,0,0,1,.33.23.55.55,0,0,1,.24.28l.37,0a3.5,3.5,0,0,1-.54-.29l-.15-.11a.33.33,0,0,1-.13-.13.53.53,0,0,1-.08-.17.7.7,0,0,1-.06-.19s0,0,0,0l.08,0,.09,0,.17.08a.68.68,0,0,1,.31.22.93.93,0,0,0,.13.15.53.53,0,0,1,.13.13.75.75,0,0,1,.09.15.18.18,0,0,0,0,.07l0,0h.08a1.21,1.21,0,0,0,.32-.11l.3-.14s.07.07,0,.08l-.27.13a1.31,1.31,0,0,1-.28.09l-.16,0a0,0,0,0,1,0,0h0a0,0,0,0,1,0,0,.4.4,0,0,1-.08.16l-.13.15a2.26,2.26,0,0,1-.31.23,2,2,0,0,1-.47.23l-.12,0-.05,0s-.1,0-.07,0a.65.65,0,0,1,.1-.15,1.71,1.71,0,0,1,.11-.14,2.06,2.06,0,0,1,.25-.26,2.23,2.23,0,0,1,.24-.19l-.34,0a.59.59,0,0,1-.23.24c-.05,0-.1.08-.16.11a.91.91,0,0,1-.17.09l-.37.13a.83.83,0,0,1-.35,0s-.06,0,0-.08l.34-.25a2.11,2.11,0,0,1,.31-.21l.1,0H9.52s0,0,0,0a.36.36,0,0,1-.08.12l-.11.08a1.49,1.49,0,0,1-.24.14l-.14,0-.12,0H8.54S8.5,67.76,8.52,67.74Z"/><path class="cls-4" d="M15,65.23a1.09,1.09,0,0,0,.11.27c0,.08.09.17.14.24a.65.65,0,0,0,.17.16l-.2,0a0,0,0,0,0,0,0,1,1,0,0,0-.38-.37.67.67,0,0,0-.52,0s0,0,0,0a.57.57,0,0,0,.38.36,1,1,0,0,0,.29.08c.06,0,.15,0,.21,0a2.44,2.44,0,0,1,.53.14l.08,0a1.67,1.67,0,0,0-.5,0l-.16,0-.15,0a.73.73,0,0,0-.21.22s0,0,0,0,.1,0,.15,0a.74.74,0,0,1,.14,0,.26.26,0,0,0,.15,0h.16a.56.56,0,0,0,.31-.09,1.39,1.39,0,0,0,.27-.21h0l.22.09,0,0h0l.11,0,.1,0h0l.17.06-.08,0-.31,0-.33,0a.55.55,0,0,0-.3.09.25.25,0,0,0-.15.25s0,0,0,0l.37.1a.88.88,0,0,0,.36,0,1.82,1.82,0,0,0,.37-.13.48.48,0,0,0,.28-.21l.33.13a4,4,0,0,0-.57.16l-.16.06a.83.83,0,0,0-.16.09.86.86,0,0,0-.13.14.57.57,0,0,0-.11.16s0,0,0,0h.19l.19,0a.7.7,0,0,0,.36-.14.72.72,0,0,1,.15-.11.54.54,0,0,0,.16-.1l.12-.13a.34.34,0,0,1,.06-.06l0,0,.08,0a1.56,1.56,0,0,1,.28.16,2.34,2.34,0,0,0,.27.2S18,67,18,67a1.38,1.38,0,0,1-.25-.17,1.2,1.2,0,0,0-.24-.15l-.15-.06h0l0,0s0,0,0,0a.35.35,0,0,0,0-.17l-.09-.17c-.07-.11-.15-.21-.22-.3a3.82,3.82,0,0,0-.36-.34l-.09-.07,0,0s-.07,0-.07,0a.84.84,0,0,0,.05.17l.06.17a2.25,2.25,0,0,0,.16.31,1,1,0,0,0,.16.24l-.3-.11a.64.64,0,0,0-.13-.29l-.11-.15a.55.55,0,0,0-.12-.14l-.27-.25a.69.69,0,0,0-.26-.17s-.07,0,0,.06l.2.36a1.89,1.89,0,0,0,.19.3l.07.08L15.73,66l-.11,0s0,0,0,0a.58.58,0,0,0,0-.14.41.41,0,0,0-.07-.11.71.71,0,0,0-.15-.22l-.09-.09a.3.3,0,0,0-.08-.08,1.55,1.55,0,0,0-.22-.12S15,65.21,15,65.23Z"/><path class="cls-5" d="M12.15,67.44c.32-.13.42,0,.83,0-.19,0-.55-.14-.5-.21.24-.34.72,0,1,0l-.5-.12c-.05,0-.14,0-.14-.09s.27-.12.42-.07l.81.25-.58-.28s0,0,0,0,0-.09.05-.1a.66.66,0,0,1,.54.08,3.7,3.7,0,0,0,.54.24,4.34,4.34,0,0,1-.5-.37c-.08-.08,0-.1,0-.11s.19,0,.3.07.25.15.38.23S15,67,15,67s-.25-.16-.37-.25-.11-.11-.08-.17l0,0c.13,0,.29.09.43.18a4.21,4.21,0,0,0,.51.29c-.17-.14-.52-.31-.51-.43s.26-.06.39,0a4.66,4.66,0,0,1,.67.54c-.16-.18-.31-.35-.45-.53s-.07-.1,0-.13,0,0,0,0a.78.78,0,0,1,.54.27c.14.13.29.23.43.35a2.56,2.56,0,0,1,.39.41,1.76,1.76,0,0,1-.44.15,1.07,1.07,0,0,0-.25,0,1.05,1.05,0,0,0-.24.06,1.77,1.77,0,0,0-.44.25c-.05,0-.13.08-.17,0a.15.15,0,0,1,0-.17.64.64,0,0,1,.28-.24,1.58,1.58,0,0,0-.68.48c-.05,0-.1.1-.16.06a.14.14,0,0,1,0-.14.31.31,0,0,1,.06-.13,1.51,1.51,0,0,1,.34-.33,2.36,2.36,0,0,0-.71.45c-.12.11-.26.24-.41.19a.13.13,0,0,1-.08-.07c0-.07,0-.16.06-.22a1.74,1.74,0,0,1,.37-.3,1.47,1.47,0,0,0-.62.47c-.09.1-.18.23-.3.21s0,0-.06,0,0-.08,0-.12a1.18,1.18,0,0,1,.32-.38,3.34,3.34,0,0,0-.75.62s-.09.09-.14.05a.13.13,0,0,1-.05-.14.23.23,0,0,1,.06-.12,1.36,1.36,0,0,1,.39-.4,3,3,0,0,0-.54.41c-.12.1-.37.23-.41.13s.13-.29.3-.39c-.22.11-.51.23-.6.19s0-.17.1-.21a1.4,1.4,0,0,1,.28-.17C12.27,67.75,12,67.51,12.15,67.44Z"/><path class="cls-4" d="M14.78,69a1.05,1.05,0,0,1,.18-.25,1.3,1.3,0,0,1,.19-.22.56.56,0,0,1,.2-.14l-.23,0s0,0,0,0a1,1,0,0,1-.48.31.79.79,0,0,1-.6-.07s0,0,0,0a.72.72,0,0,1,.5-.27c.11,0,.22,0,.33,0a.36.36,0,0,1,.23,0,2.33,2.33,0,0,0,.59-.08l.1,0a1.62,1.62,0,0,1-.54,0l-.18-.06a.94.94,0,0,1-.15-.06.63.63,0,0,1-.19-.24s0,0,0,0l.16,0a.8.8,0,0,0,.15,0,.45.45,0,0,1,.16,0h.17a.63.63,0,0,1,.32.12,2,2,0,0,1,.26.24v0l.24-.07,0,0h0l.12,0a.21.21,0,0,1,.1,0h0l.18-.07-.08,0a1.15,1.15,0,0,1-.32,0l-.36,0a.67.67,0,0,1-.3-.13.24.24,0,0,1-.14-.26,0,0,0,0,1,0,0l.38-.06a.78.78,0,0,1,.37.06,3.43,3.43,0,0,1,.38.13.53.53,0,0,1,.29.2l.35-.13a5.26,5.26,0,0,1-.6-.15l-.16-.06a.56.56,0,0,1-.17-.09.88.88,0,0,1-.12-.15,1,1,0,0,1-.1-.17s0,0,0,0l.08,0,.1,0,.19,0a.75.75,0,0,1,.35.13,1,1,0,0,0,.16.12.48.48,0,0,1,.16.08,1.59,1.59,0,0,1,.13.13l.06.06,0,0,.08,0a1.17,1.17,0,0,0,.28-.17l.25-.21a0,0,0,0,1,.05.07l-.23.19-.25.16-.15.06h0a.53.53,0,0,1-.05.18.89.89,0,0,1-.08.17,2.43,2.43,0,0,1-.24.3,2.64,2.64,0,0,1-.4.35l-.1.07s0,0-.05,0-.09,0-.08,0l.06-.17.08-.18a3.24,3.24,0,0,1,.17-.32,2,2,0,0,1,.18-.23l-.32.11a.67.67,0,0,1-.15.29c-.05,0-.08.11-.13.16l-.14.12-.32.22a.8.8,0,0,1-.32.13s-.07,0,0-.06l.25-.33a2.31,2.31,0,0,1,.24-.29l.08-.06-.31.08-.13,0s0,0,0,0a.58.58,0,0,1-.05.14l-.08.1a1,1,0,0,1-.2.2l-.11.08-.11.07-.27.09S14.77,69,14.78,69Z"/><path class="cls-4" d="M20.36,64.94a1.41,1.41,0,0,0,.18.23,1.8,1.8,0,0,0,.19.2.56.56,0,0,0,.2.11h-.2s0,0,0,0a1,1,0,0,0-.45-.26.64.64,0,0,0-.52.08s0,0,0,0a.61.61,0,0,0,.46.26,1.51,1.51,0,0,0,.3,0,.33.33,0,0,0,.21,0,3.25,3.25,0,0,1,.54,0h.09a1.6,1.6,0,0,0-.48.11.8.8,0,0,0-.16.08l-.13.08a.7.7,0,0,0-.15.25s0,0,0,0a.83.83,0,0,0,.15,0l.14,0a.8.8,0,0,0,.15,0l.16,0a.42.42,0,0,0,.27-.16,1.39,1.39,0,0,0,.21-.27h0l.23,0h.08l.12,0h.13l.18,0h-.08a1,1,0,0,0-.3.05l-.32.1a.87.87,0,0,0-.26.16.28.28,0,0,0-.09.29h.4a.8.8,0,0,0,.34-.11,2.7,2.7,0,0,0,.33-.22.53.53,0,0,0,.22-.27l.35,0a3.7,3.7,0,0,0-.51.29l-.14.1a.86.86,0,0,0-.14.13,1,1,0,0,0-.08.18.51.51,0,0,0-.07.17s0,0,0,0l.09,0,.09,0,.18-.08a.74.74,0,0,0,.31-.22,1.58,1.58,0,0,1,.12-.15.5.5,0,0,0,.13-.12,1.19,1.19,0,0,0,.08-.16l0-.07,0,0h.09a2,2,0,0,1,.31.08,1.63,1.63,0,0,0,.31.11s.06-.07,0-.08a1.9,1.9,0,0,1-.28-.1,1.34,1.34,0,0,0-.27-.07l-.16,0h0a.43.43,0,0,0-.09-.16.86.86,0,0,0-.13-.14,2.09,2.09,0,0,0-.29-.23,2.32,2.32,0,0,0-.43-.24l-.11-.06h0s-.08,0-.06,0a.54.54,0,0,0,.09.15c0,.06.07.11.1.16a2.85,2.85,0,0,0,.23.26,1.3,1.3,0,0,0,.22.19l-.32,0a.66.66,0,0,0-.2-.24l-.14-.12-.15-.1L21.3,65a.69.69,0,0,0-.3-.09A0,0,0,0,0,21,65l.28.29a2,2,0,0,0,.26.25l.09.06-.3,0h-.12a0,0,0,0,0,0,0,.24.24,0,0,0-.07-.13L21,65.24a1.62,1.62,0,0,0-.2-.18.39.39,0,0,1-.11-.06l-.1-.06-.24-.06S20.35,64.91,20.36,64.94Z"/><path class="cls-5" d="M18.18,67.75c.28-.2.4-.12.8-.24-.19,0-.58,0-.55-.09.15-.39.7-.17,1-.22h-.52c-.05,0-.13,0-.15,0S19,67,19.12,67l.21,0H20l-.62-.12s0,0,0,0,0-.09,0-.11a.67.67,0,0,1,.54-.06,4.15,4.15,0,0,0,.58.1c-.19-.08-.47-.17-.57-.23s0-.1,0-.12.19,0,.31,0a4.2,4.2,0,0,1,.43.14c.15.06.26.08.26,0s-.08-.06-.16-.08l-.27-.08c-.05,0-.13-.08-.12-.14a.08.08,0,0,1,0,0c.12-.08.31,0,.46.08a3.4,3.4,0,0,0,.57.15c-.21-.08-.58-.16-.6-.29s.24-.12.38-.07a4.52,4.52,0,0,1,.78.36l-.57-.4s-.09-.08-.07-.12a0,0,0,0,1,0,0,.78.78,0,0,1,.59.12,4.94,4.94,0,0,1,1,.53,1.44,1.44,0,0,1-.39.25,1.88,1.88,0,0,0-.45.22,1.75,1.75,0,0,0-.36.36c0,.05-.11.11-.17.05a.19.19,0,0,1,0-.18.67.67,0,0,1,.22-.3,1.57,1.57,0,0,0-.55.64s-.08.12-.14.09a.13.13,0,0,1-.07-.12.32.32,0,0,1,0-.14,1.38,1.38,0,0,1,.26-.4,2.41,2.41,0,0,0-.59.6c-.09.14-.19.29-.35.28a.13.13,0,0,1-.09,0,.18.18,0,0,1,0-.22,1.41,1.41,0,0,1,.29-.38,1.48,1.48,0,0,0-.5.6c-.05.12-.11.26-.23.28s-.05,0-.06,0a.13.13,0,0,1,0-.12,1.62,1.62,0,0,1,.21-.46,4.19,4.19,0,0,0-.57.79s-.07.11-.12.09a.14.14,0,0,1-.08-.13.23.23,0,0,1,0-.14,1.49,1.49,0,0,1,.29-.47,3.13,3.13,0,0,0-.43.52c-.09.13-.3.31-.37.22s.07-.3.2-.44c-.19.15-.43.34-.53.33s0-.18,0-.23a2.66,2.66,0,0,1,.23-.24C18.37,68,18,67.87,18.18,67.75Z"/><path class="cls-4" d="M21.11,68.61a1.45,1.45,0,0,1,.11-.29,2.1,2.1,0,0,1,.13-.26,1,1,0,0,1,.16-.19L21.3,68s0,0,0,0a1,1,0,0,1-.39.42.89.89,0,0,1-.6.07s0,0,0,0A.69.69,0,0,1,20.7,68l.31-.1a.32.32,0,0,1,.23,0,3.88,3.88,0,0,0,.56-.23l.08,0a1.91,1.91,0,0,1-.53.1h-.19a.9.9,0,0,1-.16,0,.55.55,0,0,1-.24-.19s0,0,0,0h.16a.46.46,0,0,0,.14-.07.29.29,0,0,1,.16,0l.17,0a.51.51,0,0,1,.34,0,1.59,1.59,0,0,1,.32.16h0l.21-.13,0,0,0,0,.1-.07.1-.07h0l.16-.11-.07,0a1.58,1.58,0,0,1-.31.09,2.23,2.23,0,0,1-.36,0,.69.69,0,0,1-.32,0,.26.26,0,0,1-.2-.23,0,0,0,0,1,0,0l.36-.15a.9.9,0,0,1,.37,0,2.56,2.56,0,0,1,.39,0,.62.62,0,0,1,.35.12,1.94,1.94,0,0,0,.29-.21,3.11,3.11,0,0,1-.61,0h-.18a.61.61,0,0,1-.18,0l-.15-.11a.58.58,0,0,1-.14-.13s0,0,0-.05h.19l.19,0a.84.84,0,0,1,.38,0,.56.56,0,0,0,.18.07,1.21,1.21,0,0,1,.18,0l.15.1.08,0h0l.07-.05a1.31,1.31,0,0,0,.22-.25,2.69,2.69,0,0,1,.2-.27s.09,0,.06.06a2.15,2.15,0,0,0-.18.24,1,1,0,0,1-.2.22l-.12.11h0l0,0h0a.55.55,0,0,1,0,.18c0,.06,0,.13,0,.19a2.72,2.72,0,0,1-.16.35,2.55,2.55,0,0,1-.3.43l-.08.1,0,0s-.08,0-.08,0a1.09,1.09,0,0,1,0-.18l0-.19c0-.12.05-.23.09-.35a1.59,1.59,0,0,1,.12-.27l-.29.19a.6.6,0,0,1-.07.32l-.09.18a.7.7,0,0,1-.1.16,3.58,3.58,0,0,1-.26.29.71.71,0,0,1-.28.21s-.07,0,0,0l.16-.38a1.77,1.77,0,0,1,.16-.34.27.27,0,0,1,.07-.08l-.29.16-.11.06a0,0,0,0,1,0,0,.38.38,0,0,1,0,.15l-.06.12a.72.72,0,0,1-.14.24l-.09.1-.08.1c-.08.06-.16.1-.24.15A0,0,0,0,1,21.11,68.61Z"/><path class="cls-4" d="M25.47,63.28a1.41,1.41,0,0,0,.23.18l.24.14a.6.6,0,0,0,.22.06l-.19.06h0a1,1,0,0,0-.5-.14.62.62,0,0,0-.48.22,0,0,0,0,0,0,0,.64.64,0,0,0,.52.13,1.43,1.43,0,0,0,.28-.07c.06,0,.15,0,.19-.1a4,4,0,0,1,.52-.13h.09a1.37,1.37,0,0,0-.43.23L26,64a.5.5,0,0,0-.1.11.57.57,0,0,0-.08.29,0,0,0,0,0,0,0l.14-.08a.59.59,0,0,1,.14,0,.33.33,0,0,0,.13-.07l.15-.07a.45.45,0,0,0,.22-.23,1.52,1.52,0,0,0,.12-.32h0l.23,0h.08l.11,0a.22.22,0,0,0,.11,0h0l.18,0-.07,0a.84.84,0,0,0-.27.13l-.28.18a.77.77,0,0,0-.21.23.26.26,0,0,0,0,.3s0,0,0,0l.36-.1a.88.88,0,0,0,.3-.2,2.48,2.48,0,0,0,.25-.3.47.47,0,0,0,.14-.32l.34-.06-.21.21-.19.21a1.34,1.34,0,0,0-.11.14.51.51,0,0,0-.09.16.58.58,0,0,0,0,.19.62.62,0,0,0,0,.19s0,0,0,0a.18.18,0,0,0,.07-.05l.08-.06.15-.12A.67.67,0,0,0,28,64a.49.49,0,0,1,.08-.18.48.48,0,0,0,.08-.16,1.13,1.13,0,0,0,0-.18.31.31,0,0,1,0-.08v0h.08a1.13,1.13,0,0,1,.32,0,1.82,1.82,0,0,0,.33,0c.05,0,0-.09,0-.08a1.51,1.51,0,0,1-.3,0h-.28l-.16,0h-.05a.4.4,0,0,0-.13-.13l-.16-.1L27.5,63a4.15,4.15,0,0,0-.48-.11l-.11,0h-.05s-.07,0,0,.06a.68.68,0,0,0,.12.12l.15.12a1.81,1.81,0,0,0,.29.19.88.88,0,0,0,.26.12l-.31.06a.64.64,0,0,0-.26-.18l-.17-.08-.17-.06-.36-.08a.76.76,0,0,0-.3,0,0,0,0,0,0,0,.07l.35.21a1.87,1.87,0,0,0,.31.17l.1,0-.3,0-.11,0a.08.08,0,0,0,0,0,.32.32,0,0,0-.1-.1l-.11-.07a1.34,1.34,0,0,0-.24-.12.53.53,0,0,1-.12,0,.45.45,0,0,0-.11,0h-.25S25.45,63.26,25.47,63.28Z"/><path class="cls-5" d="M24.11,66.56a.83.83,0,0,1,.3-.23,1.56,1.56,0,0,0,.4-.21.85.85,0,0,1-.34.1c-.11,0-.21,0-.2,0,0-.4.63-.35.88-.47l-.51.13c-.05,0-.12.06-.16,0s.18-.25.33-.27l.41-.08.41-.1c-.21,0-.42,0-.63,0h0c-.05,0,0-.09,0-.12a.82.82,0,0,1,.51-.19,2.94,2.94,0,0,0,.59,0,6.05,6.05,0,0,1-.62-.07c-.11,0-.06-.09,0-.11s.18-.08.3-.09.74.06.71,0-.3,0-.45,0-.15,0-.15-.11a.08.08,0,0,1,0,0c.1-.1.3-.06.46,0a3,3,0,0,0,.6,0c-.22,0-.61,0-.66-.12s.19-.18.35-.17a4.29,4.29,0,0,1,.84.13l-.65-.23c-.05,0-.11,0-.1-.09a.05.05,0,0,1,0,0,.74.74,0,0,1,.59,0,5,5,0,0,1,1.1.23,1.62,1.62,0,0,1-.1.15,1.88,1.88,0,0,1-.2.2,1.64,1.64,0,0,0-.64.78c0,.07-.07.14-.14.1a.17.17,0,0,1-.07-.16.57.57,0,0,1,.13-.35,1.76,1.76,0,0,0-.37.75c0,.07,0,.14-.1.13s-.09,0-.11-.1a.33.33,0,0,1,0-.14,1.32,1.32,0,0,1,.14-.45,2.12,2.12,0,0,0-.4.74c-.05.15-.11.33-.28.36a.15.15,0,0,1-.09,0,.19.19,0,0,1-.06-.22,1.57,1.57,0,0,1,.18-.44,1.54,1.54,0,0,0-.32.71c0,.13,0,.29-.16.33h-.06a.12.12,0,0,1-.05-.11,1.35,1.35,0,0,1,.09-.5,3.82,3.82,0,0,0-.35.91s0,.12-.1.11a.13.13,0,0,1-.11-.09.23.23,0,0,1,0-.14,1.35,1.35,0,0,1,.15-.54,3.89,3.89,0,0,0-.28.62c-.05.15-.21.38-.29.32s0-.32.07-.49c-.14.21-.33.45-.43.46s-.06-.17,0-.23a2,2,0,0,1,.17-.29C24.36,66.78,24,66.71,24.11,66.56Z"/><path class="cls-4" d="M27.17,66.62a1.63,1.63,0,0,1,0-.31,1.4,1.4,0,0,1,.06-.28.57.57,0,0,1,.11-.22l-.19.12v0a1,1,0,0,1-.27.5.87.87,0,0,1-.57.24,0,0,0,0,1,0,0,.74.74,0,0,1,.31-.48c.09-.06.18-.13.27-.18s.14-.11.22-.1a2.8,2.8,0,0,0,.48-.37l.07-.07a1.65,1.65,0,0,1-.5.24l-.18,0a.47.47,0,0,1-.17,0,.61.61,0,0,1-.28-.11s0,0,0,0,.11,0,.16-.07a.5.5,0,0,0,.11-.1l.15-.07.16-.07a.54.54,0,0,1,.33-.05,1,1,0,0,1,.35.06h0l.17-.18s0,0,0,0l0,0,.09-.09a.22.22,0,0,1,.07-.09l0,0h0l.13-.15-.07.05A1,1,0,0,1,28,65l-.33.14a.74.74,0,0,1-.33,0,.24.24,0,0,1-.25-.16s0,0,0,0l.3-.25a.85.85,0,0,1,.34-.14,1.8,1.8,0,0,1,.39-.08.58.58,0,0,1,.37,0l.23-.3a3.37,3.37,0,0,1-.59.19l-.18,0a.59.59,0,0,1-.19,0l-.18-.07a.91.91,0,0,1-.17-.09s0,0,0,0l.08,0,.09,0,.18-.07a.8.8,0,0,1,.38-.06,1.28,1.28,0,0,0,.19,0,.62.62,0,0,1,.19,0l.17,0,.09,0h0l0-.07a1.05,1.05,0,0,0,.15-.3,3,3,0,0,1,.1-.32s.1,0,.08,0-.07.19-.1.29A1.31,1.31,0,0,1,29,64l-.09.14h0l0,0h0a.55.55,0,0,1,0,.17,1.36,1.36,0,0,1,0,.2c0,.13,0,.25-.05.38a2.67,2.67,0,0,1-.17.5l-.06.12s0,0,0,0-.07.06-.09,0a1.13,1.13,0,0,1,0-.18,1.11,1.11,0,0,1,0-.19,1.45,1.45,0,0,1,0-.36,1.43,1.43,0,0,1,0-.29l-.22.26a.62.62,0,0,1,0,.33l0,.19a.76.76,0,0,1-.06.18,4,4,0,0,1-.17.36.86.86,0,0,1-.21.29s-.08,0-.07,0l.06-.43a1.43,1.43,0,0,1,.06-.36.3.3,0,0,1,0-.1l-.24.24-.09.08,0,0a.39.39,0,0,1,0,.15.51.51,0,0,1,0,.13.89.89,0,0,1-.07.28.6.6,0,0,0-.06.11.67.67,0,0,1-.06.12l-.19.21A0,0,0,0,1,27.17,66.62Z"/><path class="cls-6" d="M7.36,64.67C7,63.78,5.54,64,5.81,65S7.77,65.72,7.36,64.67Z"/><path class="cls-6" d="M12.05,67.63a.47.47,0,0,0,.17,0,.35.35,0,0,0,.15-.19.84.84,0,0,0,0-.66.66.66,0,0,0-.53-.38c-.34,0-.89.31-.76.7S11.72,67.62,12.05,67.63Z"/><path class="cls-6" d="M13.31,65.94a.5.5,0,0,0-.71.2c-.27.54-.06.69.1.83s.29.09.43.08a.47.47,0,0,0,.29-.16.8.8,0,0,0,.18-.27A.59.59,0,0,0,13.31,65.94Z"/><path class="cls-6" d="M18,66.66a.39.39,0,0,0-.18-.34c-.12-.08-.53-.23-.75.05a.76.76,0,0,0-.12.63c0,.14.12.3.27.31S17.93,67,18,66.66Z"/><path class="cls-6" d="M18.84,67.19a.58.58,0,0,0-.78-.17.52.52,0,0,0-.19.81.66.66,0,0,0,.76.13A.58.58,0,0,0,18.84,67.19Z"/><path class="cls-6" d="M24.67,65.81c-.07-.92-1.59-.76-1.45.16a1,1,0,0,0,.65.76C24.44,67,24.71,66.3,24.67,65.81Z"/><path class="cls-6" d="M28.9,64.56a.87.87,0,0,0,.73-.37.67.67,0,0,0,0-.8,1,1,0,0,0-.33-.21,1.05,1.05,0,0,0-.36-.08.76.76,0,0,0-.57.41C28,64.1,28.19,64.54,28.9,64.56Z"/><path class="cls-6" d="M27.37,63.4a.74.74,0,0,0,.72.07.57.57,0,0,0,.34-.61.83.83,0,0,0-.14-.3.72.72,0,0,0-.23-.23.65.65,0,0,0-.62,0C26.94,62.64,26.86,63.06,27.37,63.4Z"/><path class="cls-6" d="M30.53,63.24a.74.74,0,0,1-.72.07.58.58,0,0,1-.34-.61.71.71,0,0,1,.15-.3.8.8,0,0,1,.22-.23.65.65,0,0,1,.62,0C31,62.49,31,62.9,30.53,63.24Z"/></g></g></svg>