<svg xmlns="http://www.w3.org/2000/svg" viewBox="0 0 106.33 84.35"><defs><style>.cls-1{fill:#f45b44;}.cls-2{fill:#f2b669;}.cls-3{fill:#fde8ca;}.cls-4{fill:#c86e29;}</style></defs><g id="Layer_2" data-name="Layer 2"><g id="Map_with_elements" data-name="Map with elements"><path class="cls-1" d="M91.3,81.94c-3.19,2.55-73.85,3.81-77,0s-4.18-45.18,0-48.31c2.08-1.57,20.31-21.81,38.5-21.72S89.2,32.4,91.3,33.63C95.52,36.08,94.5,79.4,91.3,81.94Z"/><path class="cls-2" d="M106,45.47c-1-3.12-3.81-5.23-6.38-7.26C85.41,27,74.46,11.87,59.1,2.36A16.17,16.17,0,0,0,54.48.22,2,2,0,0,0,53.39,0l-.22,0-.23,0a2,2,0,0,0-1.09.22,16.3,16.3,0,0,0-4.62,2.14C31.88,11.87,20.92,27,6.74,38.21c-2.57,2-5.4,4.14-6.38,7.26A10,10,0,0,0,1,52.35a5.59,5.59,0,0,0,2.63,3.07c2.28,1,4.77-.67,6.67-2.26,8.27-6.9,16.06-14.36,23.84-21.82l15.55-14.9a21.47,21.47,0,0,0,3.5-4,21.06,21.06,0,0,0,3.49,4l15.55,14.9C80,38.8,87.78,46.26,96.05,53.16c1.9,1.59,4.4,3.24,6.67,2.26a5.59,5.59,0,0,0,2.63-3.07A10,10,0,0,0,106,45.47Z"/><path class="cls-3" d="M58.89,34.89a6.06,6.06,0,1,1-6.06-6.05A6.06,6.06,0,0,1,58.89,34.89Z"/><path class="cls-4" d="M57.93,34.89a5.1,5.1,0,1,1-5.1-5.09A5.1,5.1,0,0,1,57.93,34.89Z"/><path class="cls-4" d="M41.25,54.38c-.69-.77-6.07-.69-6.69-.68-4,.08-4.41.52-4.55.69-.75.9-.77,13.44,0,14.58.18.27.6.58,2.39.76.81.08,1.89.13,3,.13,2.51,0,5.28-.23,5.85-.82C42.32,67.93,41.94,55.15,41.25,54.38Z"/><path class="cls-3" d="M41.57,54.38c-.71-.77-6.24-.69-6.87-.68-4.14.08-4.53.52-4.67.69-.77.9-.8,13.44,0,14.58.19.27.62.58,2.46.76.84.08,1.94.13,3.1.13,2.58,0,5.42-.23,6-.82C42.67,67.93,42.28,55.15,41.57,54.38Zm-.63,14.05a11.06,11.06,0,0,1-3.72.53c-1.54,0-6,0-6.5-.47-.56-1-.57-12.53-.06-13.5.43-.3,2.85-.45,5.23-.45.45,0,2.2.05,2.2.05a10,10,0,0,1,2.82.35C41.53,56.07,41.56,67.47,40.94,68.43Z"/><path class="cls-4" d="M75.55,54.38c-.71-.77-6.24-.69-6.87-.68-4.14.08-4.53.52-4.67.69-.77.9-.8,13.44,0,14.58.19.27.62.58,2.46.76.83.08,1.94.13,3.1.13,2.58,0,5.42-.23,6-.82C76.65,67.93,76.26,55.15,75.55,54.38Z"/><path class="cls-3" d="M75.55,54.38c-.71-.77-6.24-.69-6.87-.68-4.14.08-4.53.52-4.67.69-.77.9-.8,13.44,0,14.58.19.27.62.58,2.46.76.83.08,1.94.13,3.1.13,2.58,0,5.42-.23,6-.82C76.65,67.93,76.26,55.15,75.55,54.38ZM64.7,68.49c-.56-1-.57-12.53-.06-13.5.43-.3,2.85-.45,5.23-.45l1.33,0V69C68.46,69.06,65.16,68.91,64.7,68.49Zm10.22-.06a8,8,0,0,1-2.85.49V54.59a10,10,0,0,1,2.82.35C75.51,56.07,75.54,67.47,74.92,68.43Z"/></g></g></svg>