<svg xmlns="http://www.w3.org/2000/svg" viewBox="0 0 52.93 57.27"><defs><style>.cls-1{fill:#f2b669;}.cls-2{fill:#3d4e68;}.cls-3{fill:#fa8573;}</style></defs><g id="Layer_2" data-name="Layer 2"><g id="Image"><path class="cls-1" d="M21,19.43A23.83,23.83,0,0,1,38.06,1.24a29.34,29.34,0,0,0-3-.72c-16-3-31.45,7.2-34.52,22.73S8,53.78,24,56.75A29.92,29.92,0,0,0,52.93,46a24.74,24.74,0,0,1-12.72,1C27.06,44.53,18.44,32.19,21,19.43Z"/><path class="cls-2" d="M13.49,22.63A2.49,2.49,0,0,0,11.37,22a2.44,2.44,0,0,0-1.56,1.22,3.23,3.23,0,0,0-.37,1.07l-.68-.81a.31.31,0,0,0-.48.4l.58.7L8,24.4H8a.3.3,0,0,0-.37.24.31.31,0,0,0,.24.37l1.69.36a.4.4,0,0,0,.19.05.25.25,0,0,0,.14,0,.32.32,0,0,0,.13-.29,3.6,3.6,0,0,1,.35-1.56,1.81,1.81,0,0,1,1.14-.91,1.85,1.85,0,0,1,1.57.48A3.41,3.41,0,0,1,14,24.65a.32.32,0,0,0,.4.2.32.32,0,0,0,.19-.4A4.06,4.06,0,0,0,13.49,22.63Z"/><path class="cls-2" d="M23.11,21.45a.3.3,0,0,0-.2-.13.27.27,0,0,0-.23.05l-.74.5.28-.86a.31.31,0,0,0-.21-.39.31.31,0,0,0-.39.2l-.33,1a3.46,3.46,0,0,0-.74-.86,2.3,2.3,0,0,0-3.63.84,4,4,0,0,0-.35,2.11.32.32,0,0,0,.34.29h0a.33.33,0,0,0,.29-.33,3.44,3.44,0,0,1,.28-1.79,1.82,1.82,0,0,1,1.27-1,1.8,1.8,0,0,1,1.41.4,3.59,3.59,0,0,1,.9,1.31c.07.16.16.21.23.22a.36.36,0,0,0,.31-.13l1.43-1A.31.31,0,0,0,23.11,21.45Z"/><path class="cls-2" d="M19.84,39.22a4.19,4.19,0,0,1-2.64-1,.36.36,0,0,1-.05-.5.35.35,0,0,1,.5,0A3.45,3.45,0,0,0,20,38.5a2,2,0,0,0,1.81-1.39,4,4,0,0,0,.07-.71.36.36,0,0,1,.72,0,5,5,0,0,1-.1.85,2.75,2.75,0,0,1-2.44,1.93Z"/><path class="cls-3" d="M11,35.2a2.56,2.56,0,0,0-1-1.11c-.85-.64-2.57-1.68-3.67-1.07-.8.46-.58,1.31-.16,2a3.86,3.86,0,0,0,2.4,1.63C9.54,36.82,11.6,36.75,11,35.2Z"/></g></g></svg>