<svg xmlns="http://www.w3.org/2000/svg" viewBox="0 0 59.17 37.99"><defs><style>.cls-1{fill:#bad3ce;}.cls-2{fill:#d4e9e5;}</style></defs><g id="Layer_2" data-name="Layer 2"><g id="Image"><path class="cls-1" d="M30,0c20-.38,29.13,34.41,29.13,34.41A122.46,122.46,0,0,1,30,38,153.71,153.71,0,0,1,0,34.41S8.59.41,30,0Z"/><path class="cls-2" d="M47.64,14.21a29.19,29.19,0,0,1-2.48,3.18c-.71.8-1.66,1.63-2.72,1.45a3,3,0,0,1-1.88-1.57c-1.12-1.8-1.74-3.91-3.06-5.56S33.71,9,31.92,10.1a8.25,8.25,0,0,0-2,2.46,3.29,3.29,0,0,1-2.57,1.68c-1.33,0-2.2-1.36-2.95-2.45S22.32,9.56,21.1,10.1c-1.45.64-1.56,3.16-3.12,3.36a1.84,1.84,0,0,1-1.7-1,6.63,6.63,0,0,1-.67-2,18,18,0,0,0-1.16-3.28C18.63,3.1,23.79.12,30,0c8.15-.15,14.49,5.51,19.14,12.29A8.78,8.78,0,0,0,47.64,14.21Z"/></g></g></svg>