<svg xmlns="http://www.w3.org/2000/svg" viewBox="0 0 47.14 59.72"><defs><style>.cls-1{fill:#bad3ce;}.cls-2{fill:#d4e9e5;}</style></defs><g id="Layer_2" data-name="Layer 2"><g id="Image"><path class="cls-1" d="M22.25,0C0-.61-.15,56.63,0,56.89c0,0,5.46,2.32,22.49,2.78s24.63-2.78,24.63-2.78S44.49.62,22.25,0Z"/><path class="cls-2" d="M11,11a18.78,18.78,0,0,1,1.81,2.93c.86,1.75,1.58,3.8,3.31,4.7A1.9,1.9,0,0,0,18,18.7a2.53,2.53,0,0,0,.75-1,29,29,0,0,1,1.92-3.17,6.21,6.21,0,0,1,1.6-1.71,2.38,2.38,0,0,1,2.23-.27,3.1,3.1,0,0,1,1.1,1c1.48,1.93,2.36,4.28,3.93,6.14A4.6,4.6,0,0,0,31.13,21,2.23,2.23,0,0,0,33.19,21c.88-.54,1.1-1.69,1.38-2.68.4-1.37,1.32-2.84,2.74-2.89a3.61,3.61,0,0,1,1.62.44C35.23,7,29.9.22,22.25,0,16.4-.16,12.07,3.7,8.88,9.47A3.61,3.61,0,0,1,11,11Z"/></g></g></svg>