<svg xmlns="http://www.w3.org/2000/svg" viewBox="0 0 146.75 63.88"><defs><style>.cls-1{fill:#d4e9e5;}.cls-2{fill:#fff;}</style></defs><g id="Layer_2" data-name="Layer 2"><g id="Image"><path class="cls-1" d="M105,45.66c-7.75-.14-15.59-.64-23-3C70.33,38.83,60.54,30.4,53.38,20.47c-3-4.1-5.57-8.52-9.19-12.08A29.7,29.7,0,0,0,27.6.25C21.89-.54,15.74.48,11.23,4c-5.49,4.31-8,11.43-9,18.29A233.68,233.68,0,0,0,.19,63.88H146.75V41.79C133.21,45.07,119,45.93,105,45.66Z"/><path class="cls-2" d="M10,19.48c1.54-.35,2.5-1.82,3.52-3s2.62-2.33,4.07-1.7c1.64.71,1.91,3.18,3.54,3.88,1.31.55,2.84-.36,3.6-1.56a25.59,25.59,0,0,0,1.54-4,4.12,4.12,0,0,1,2.94-2.81,3.4,3.4,0,0,1,3,1.54,8.3,8.3,0,0,1,1.21,3.33c.57,3,.8,6.1,2.4,8.65.75,1.2,2.19,2.3,3.46,1.69,1.89-.89,1-4.15,2.61-5.45A2.86,2.86,0,0,1,45,20a14.82,14.82,0,0,1,2.53,2c1.65,1.41,4,2.41,6,1.4a3.63,3.63,0,0,0,1.27-1.09c-.47-.62-.94-1.25-1.39-1.88-3-4.1-5.57-8.52-9.19-12.08A29.7,29.7,0,0,0,27.6.25C21.89-.54,15.74.48,11.23,4a22.37,22.37,0,0,0-7,10.53l.45,1C5.73,17.72,7.7,20,10,19.48Z"/></g></g></svg>