<svg xmlns="http://www.w3.org/2000/svg" viewBox="0 0 1422 504.17"><defs><style>.cls-1{fill:#d4e9e5;}.cls-2{fill:#fff;}.cls-3{fill:#bad3cf;}</style></defs><g id="Layer_2" data-name="Layer 2"><g id="Layer_1-2" data-name="Layer 1"><g id="Layer_2-2" data-name="Layer 2"><g id="Image"><path class="cls-1" d="M1017.44,360.37c-75.1-1.1-151.07-5.05-222.87-23.68-113.08-30.22-208-96.75-277.33-175.12-29.07-32.36-54-67.24-89.05-95.34C384.36,31.44,328,8.93,267.43,2,212.1-4.25,152.51,3.8,108.81,31.58c-53.2,34-77.52,90.21-87.21,144.35A1506.07,1506.07,0,0,0,1.83,504.17H1422V329.83C1290.8,355.71,1153.1,362.5,1017.44,360.37Z"/><path class="cls-2" d="M96.89,153.75c14.92-2.76,24.22-14.36,34.11-23.67s25.39-18.39,39.44-13.42c15.89,5.6,18.5,25.1,34.3,30.62,12.69,4.34,27.52-2.84,34.88-12.31a181.28,181.28,0,0,0,14.93-31.57c4-11,14.86-19.38,28.48-22.17,11.65-.43,22.71,4.19,29.07,12.15a58.3,58.3,0,0,1,11.73,26.28c5.52,23.68,7.75,48.14,23.26,68.27,7.26,9.47,21.22,18.15,33.52,13.34,18.32-7,9.69-32.76,25.29-43a33.1,33.1,0,0,1,30.14-.39,143.71,143.71,0,0,1,24.52,15.78c16,11.13,38.76,19,58.14,11.05a34.25,34.25,0,0,0,12.3-8.6c-4.55-4.89-9.11-9.87-13.47-14.84-29.07-32.36-54-67.24-89-95.34C384.52,31.19,328.1,8.8,267.43,2,212.1-4.25,152.51,3.8,108.81,31.58,76.86,53.4,53.3,82.25,41,114.69l4.36,7.89C55.51,139.86,74.6,157.86,96.89,153.75Z"/></g></g><g id="Layer_2-3" data-name="Layer 2"><g id="Image-2" data-name="Image"><path class="cls-3" d="M1063,97.89C948.12,94.74,947.35,390.37,948.12,391.71c0,0,28.2,12,116.15,14.36s127.21-14.36,127.21-14.36S1177.89,101.1,1063,97.89Z"/><path class="cls-1" d="M1004.93,154.71a97.16,97.16,0,0,1,9.35,15.13c4.44,9,8.16,19.62,17.09,24.27a9.79,9.79,0,0,0,9.71.36,13,13,0,0,0,3.88-5.16,148.74,148.74,0,0,1,9.91-16.37,32.25,32.25,0,0,1,8.27-8.84,12.28,12.28,0,0,1,11.51-1.39,15.93,15.93,0,0,1,5.68,5.17c7.65,10,12.19,22.1,20.3,31.71a23.84,23.84,0,0,0,8.26,6.76,11.5,11.5,0,0,0,10.64,0c4.55-2.79,5.68-8.73,7.13-13.84,2.07-7.08,6.82-14.67,14.15-14.93a18.59,18.59,0,0,1,8.37,2.28c-19.11-45.81-46.64-80.83-86.15-82-30.21-.82-52.57,19.11-69,48.91A18.67,18.67,0,0,1,1004.93,154.71Z"/></g></g><g id="Layer_2-4" data-name="Layer 2"><g id="Image-3" data-name="Image"><path class="cls-3" d="M1269.74,215.36c104.54-2,152.26,179.86,152.26,179.86A640.53,640.53,0,0,1,1269.74,414a803.32,803.32,0,0,1-156.81-18.76S1157.83,217.5,1269.74,215.36Z"/><path class="cls-1" d="M1361.94,289.63a151.86,151.86,0,0,1-13,16.62c-3.71,4.18-8.68,8.52-14.22,7.58a15.68,15.68,0,0,1-9.83-8.2c-5.85-9.41-9.09-20.44-16-29.07s-19.81-14.16-29.17-8.41A43.05,43.05,0,0,0,1269.32,281a17.22,17.22,0,0,1-13.44,8.78c-7,0-11.49-7.11-15.41-12.81s-10.88-11.65-17.25-8.83c-7.58,3.34-8.16,16.52-16.31,17.56a9.61,9.61,0,0,1-8.89-5.23,34.45,34.45,0,0,1-3.5-10.45,93.6,93.6,0,0,0-6.06-17.14c21.85-21.33,48.82-36.91,81.28-37.53,42.6-.79,75.74,28.8,100,64.24A45.91,45.91,0,0,0,1361.94,289.63Z"/></g></g></g></g></svg>