<svg xmlns="http://www.w3.org/2000/svg" xmlns:xlink="http://www.w3.org/1999/xlink" viewBox="0 0 184.45 237.31"><defs><style>.cls-1{fill:none;}.cls-2{fill:#fa8573;}.cls-3{fill:#d4e9e5;}.cls-4{fill:#3d4e68;}.cls-5{fill:#f45b44;}.cls-6{fill:#f2b669;}.cls-7{fill:#fff;}.cls-8{clip-path:url(#clip-path);}.cls-9{clip-path:url(#clip-path-2);}.cls-10{clip-path:url(#clip-path-4);}.cls-11{clip-path:url(#clip-path-6);}.cls-12{clip-path:url(#clip-path-8);}.cls-13{clip-path:url(#clip-path-10);}.cls-14{clip-path:url(#clip-path-12);}.cls-15{clip-path:url(#clip-path-14);}.cls-16{clip-path:url(#clip-path-16);}.cls-17{clip-path:url(#clip-path-18);}.cls-18{clip-path:url(#clip-path-20);}.cls-19{fill:#fde8ca;}.cls-20{fill:#c86e29;}.cls-21{fill:#bad3ce;}</style><clipPath id="clip-path"><path class="cls-1" d="M180.58,169.11c1.06,6.79-5.19,10.2-13.34,11.77-14.07,2.7-36.48,5.28-63.34,5.28-29.26,0-51.89-3-68.5-6.52-8-1.68-11.82-5.72-10.88-11.79.5-3.21,3.27-6.14,10.88-6.16,14.05-.06,40.19,5.28,68.71,5.28,27.48,0,50.53-4.39,63.94-4.58C176.09,162.27,179.61,162.92,180.58,169.11Z"/></clipPath><clipPath id="clip-path-2"><rect class="cls-1" x="146.55" y="139.06" width="35.21" height="35.21"/></clipPath><clipPath id="clip-path-4"><rect class="cls-1" x="146.55" y="174.27" width="35.21" height="35.21"/></clipPath><clipPath id="clip-path-6"><rect class="cls-1" x="111.34" y="139.06" width="35.21" height="35.21"/></clipPath><clipPath id="clip-path-8"><rect class="cls-1" x="111.34" y="174.27" width="35.21" height="35.21"/></clipPath><clipPath id="clip-path-10"><rect class="cls-1" x="76.13" y="139.06" width="35.21" height="35.21"/></clipPath><clipPath id="clip-path-12"><rect class="cls-1" x="76.13" y="174.27" width="35.21" height="35.21"/></clipPath><clipPath id="clip-path-14"><rect class="cls-1" x="40.92" y="139.06" width="35.21" height="35.21"/></clipPath><clipPath id="clip-path-16"><rect class="cls-1" x="40.92" y="174.27" width="35.21" height="35.21"/></clipPath><clipPath id="clip-path-18"><rect class="cls-1" x="5.7" y="139.06" width="35.21" height="35.21"/></clipPath><clipPath id="clip-path-20"><rect class="cls-1" x="5.7" y="174.27" width="35.21" height="35.21"/></clipPath></defs><g id="Layer_2" data-name="Layer 2"><g id="Map_with_elements" data-name="Map with elements"><path class="cls-2" d="M136,221.3c-5-2.94-9.4-6.93-9.27-11.62.35-12.91,9-27.94,9-27.94l-30.52,4s2.93,1.78,4.69,12.58,1.65,11.62,1.76,17.61-1.48,6.22-.68,8.45,6.67,6.45,12.54,9.15,15.84,5.64,18.07,2.35S141,224.23,136,221.3Z"/><path class="cls-3" d="M112.89,206.34l.35-.06L110,188.7c-.21-1.16-.43-2.35-.73-3.51l-.36,0c.31,1.17.53,2.36.75,3.54Z"/><path class="cls-3" d="M115.06,196.9a37.73,37.73,0,0,0,1.38,8.75l.33-.11a37.85,37.85,0,0,1-1.36-8.67c-.07-.85-.14-1.73-.22-2.59a61.94,61.94,0,0,0-1.72-9.64l-.35,0a61.94,61.94,0,0,1,1.72,9.64C114.92,195.17,115,196.05,115.06,196.9Z"/><path class="cls-3" d="M118.21,206h.35c.21-7.31-.19-14.74-.57-21.92l-.35,0C118,191.26,118.42,198.67,118.21,206Z"/><path class="cls-3" d="M120.67,205.87H121l.1-10.7c0-3.82.07-7.73.49-11.6l-.36,0c-.41,3.85-.45,7.74-.48,11.55Z"/><path class="cls-3" d="M122.92,204.68a144.45,144.45,0,0,1,3.9-21.78l-.37,0a143.16,143.16,0,0,0-3.88,21.7Z"/><path class="cls-3" d="M128.55,191.3c-.15,1-.31,1.95-.53,2.91s-.48,1.77-.74,2.63c-.15.46-.29.94-.43,1.42a37.75,37.75,0,0,0-1.34,7.53l.35,0a37.8,37.8,0,0,1,1.33-7.45c.13-.48.28-1,.42-1.42.27-.86.54-1.75.75-2.65s.38-2,.54-2.93c.11-.7.22-1.43.36-2.13a38.79,38.79,0,0,1,2.15-6.92l-.4.05a39.07,39.07,0,0,0-2.1,6.8C128.77,189.87,128.66,190.6,128.55,191.3Z"/><path class="cls-4" d="M136,221.3c-5-2.94-9.4-6.93-9.27-11.62a43.7,43.7,0,0,1,1.67-10.23,22,22,0,0,1-4.49.72,34.26,34.26,0,0,1-7.34-.7,24.13,24.13,0,0,1-6.74-1.84c0,.22.08.44.11.66,1.76,10.8,1.65,11.62,1.76,17.61s-1.48,6.22-.68,8.45,6.67,6.45,12.54,9.15,15.84,5.64,18.07,2.35S141,224.23,136,221.3Z"/><path class="cls-2" d="M95.22,221.3c-5-2.94-9.4-6.93-9.28-11.62.36-12.91,9-27.94,9-27.94L62.69,182.9s4.71,4.59,6.47,15.39,1.64,11.62,1.76,17.61-1.48,6.22-.68,8.45,6.67,6.45,12.53,9.15,15.85,5.64,18.08,2.35S100.26,224.23,95.22,221.3Z"/><path class="cls-3" d="M72.13,204.58l.34-.06-3.24-17.58c-.22-1.16-.44-2.35-.74-3.51l-.35,0c-.17-.64.21.64.74,3.54Z"/><path class="cls-3" d="M74.29,195.14a38.36,38.36,0,0,0,1.38,8.75l.34-.11a37.32,37.32,0,0,1-1.36-8.67c-.07-.85-.14-1.73-.22-2.59a63.14,63.14,0,0,0-1.72-9.64l-.35,0a63.12,63.12,0,0,1,1.71,9.64C74.16,193.41,74.23,194.29,74.29,195.14Z"/><path class="cls-3" d="M77.45,206h.35c.21-7.31-.19-14.74-.58-21.92l-.35,0C77.26,191.26,77.65,198.67,77.45,206Z"/><path class="cls-3" d="M79.9,205.87h.36l.1-10.7c0-3.82.07-7.73.48-11.6l-.35,0c-.41,3.85-.45,7.74-.49,11.55Z"/><path class="cls-3" d="M82.16,204.68a142,142,0,0,1,3.9-21.78l-.38,0a143.14,143.14,0,0,0-3.87,21.7Z"/><path class="cls-3" d="M87.78,191.3c-.15,1-.3,1.95-.53,2.91s-.48,1.77-.74,2.63c-.14.46-.29.94-.42,1.42a37.75,37.75,0,0,0-1.34,7.53l.35,0a37.09,37.09,0,0,1,1.33-7.45c.13-.48.28-1,.42-1.42.26-.86.54-1.75.75-2.65s.38-2,.53-2.93c.11-.7.23-1.43.37-2.13a38.79,38.79,0,0,1,2.15-6.92l-.4.05a38.23,38.23,0,0,0-2.1,6.8C88,189.87,87.89,190.6,87.78,191.3Z"/><path class="cls-4" d="M95.22,221.3c-5-2.94-9.4-6.93-9.28-11.62a43.2,43.2,0,0,1,1.68-10.23,22.11,22.11,0,0,1-4.5.72,34.11,34.11,0,0,1-7.33-.7,23.94,23.94,0,0,1-6.74-1.84c0,.22.07.44.11.66,1.76,10.8,1.64,11.62,1.76,17.61s-1.48,6.22-.68,8.45,6.67,6.45,12.53,9.15,15.85,5.64,18.08,2.35S100.26,224.23,95.22,221.3Z"/><path class="cls-5" d="M168.27,117.41c11.18,66.28-.76,67.83-65.55,65.58-71.06-2.47-76-2.8-65.33-66.33,2-12,3.53-24.13,9.64-34a64.85,64.85,0,0,1,109.31-1.7C163.12,91.18,165.9,103.38,168.27,117.41Z"/><path class="cls-4" d="M106.06,154.7c10.27,0,26-.33,39.86-4.9,8.46-2.79,18.72-7.14,25.43-10.1-.44-4.7-1.12-9.89-2-15.62-5.21,3.92-15.26,10.88-24.92,14.07-13.85,4.57-28.61,5.4-38.89,5.4s-24.23-2-38.58-4c-10.43-1.43-24.55-7.23-31.62-10.11-.82,5.51-1.45,10.43-1.83,14.82,6.72,1.8,22.22,6.34,33.27,7.85A304.18,304.18,0,0,0,106.06,154.7Z"/><path class="cls-6" d="M110.92,139.48c-.81-.83-11.41-.84-12.47,0-.66.52-.64,7.21-.62,9.25,0,4.16.27,8.82.61,9.26.08.11.34.28,1.53.42a42.7,42.7,0,0,0,4.49.19c2.92,0,6-.19,6.45-.59.09-.08.37-.31.54-3.45C111.73,149.64,111.57,140.15,110.92,139.48Zm-10.12,16a43.09,43.09,0,0,1-.37-6.77c0-4.4.15-6.55.35-6.73a11.92,11.92,0,0,1,4.08-.43c.63,0,1.28,0,1.87.06,1.53.11,1.81.3,1.86.36.53.63.53,13,0,13.5s-4.47.54-6.72.28C101,155.66,100.82,155.53,100.8,155.49Z"/><path class="cls-2" d="M137.48,62.08c-1.22-.76-3.43,21.76-3.43,21.76a19.15,19.15,0,0,1,3.52,17,43.28,43.28,0,0,1-12.12,20l3.65,7.49s23.84-10.76,25.66-31.45S144.87,66.72,137.48,62.08Z"/><path class="cls-2" d="M122,121.59s-2.18-.67-4.26-1.07-4.51-.2-4.6,1.07c-.13,2,4.18,3.18,4.18,3.18s-5.61-.35-7.86.44c-2.79,1-3.84,4.43-3.27,6.72s4,5,9.2,4.46,10.78-6.34,10.78-6.34Z"/><path class="cls-7" d="M130.52,130.11c-.28-2.57-2.26-4.55-3.27-6.93a29.2,29.2,0,0,0-1.29-3.34c-.9-1.52-2.31-2-3.5-1.35s-.5,3.62.31,5.31,3.16,6.14,3.16,6.14a6.7,6.7,0,0,0,1.16,1.5,2.86,2.86,0,0,0,2.48.67C130.38,131.84,130.59,130.75,130.52,130.11Z"/><path class="cls-2" d="M68.72,61.19c1.1-.72,3.42,20.38,3.42,20.38-.34.24-9.53,9.37-6.81,18.76a43.28,43.28,0,0,0,12.12,20l-3.65,7.49S50,117.06,48.14,96.37,59.74,67.14,68.72,61.19Z"/><path class="cls-2" d="M80.9,121.59s2.18-.67,4.27-1.07,4.51-.2,4.59,1.07c.14,2-4.18,3.18-4.18,3.18s5.62-.35,7.87.44c2.78,1,3.83,4.43,3.26,6.72s-4,5-9.19,4.46-10.78-6.34-10.78-6.34Z"/><path class="cls-7" d="M72.38,130.11c.28-2.57,2.26-4.55,3.27-6.93a27.45,27.45,0,0,1,1.29-3.34c.89-1.52,2.3-2,3.5-1.35s.49,3.62-.32,5.31S77,129.94,77,129.94a6.7,6.7,0,0,1-1.16,1.5,2.87,2.87,0,0,1-2.48.67C72.52,131.84,72.31,130.75,72.38,130.11Z"/><path class="cls-2" d="M40.8,130.49c1.44.11,1.88-5.1.66-5.36S39.36,130.39,40.8,130.49Z"/><path class="cls-2" d="M40.58,121.09c1.44.41,1.69-4.23.67-4.63S39.14,120.68,40.58,121.09Z"/><path class="cls-2" d="M42.18,111.24c.93.42,1.81-3.24,1.13-3.54S41.25,110.82,42.18,111.24Z"/><path class="cls-2" d="M45.74,104.21c1,.35,2.52-1.92,1.73-2.66S44.71,103.85,45.74,104.21Z"/><path class="cls-2" d="M43.38,124.08c1.12.14,1.56-4.21.46-4.34S42.26,123.93,43.38,124.08Z"/><path class="cls-2" d="M43.7,115.9c.87.42,1.47-2.44.71-2.78S42.82,115.49,43.7,115.9Z"/><path class="cls-2" d="M46.1,109.86c1.06.47,1.79-2.21,1-2.59S45,109.39,46.1,109.86Z"/><path class="cls-2" d="M43.12,104.73c.81.19,1-.92.25-1S42.31,104.55,43.12,104.73Z"/><path class="cls-2" d="M46.91,118.21c.54-1.13-.31-1.82-.72-.72S46.38,119.34,46.91,118.21Z"/><path class="cls-2" d="M47,113.1c.54-1.13-.3-1.83-.72-.72S46.47,114.23,47,113.1Z"/><path class="cls-2" d="M39.71,124.56c.54-1.13-.3-1.82-.72-.72S39.18,125.69,39.71,124.56Z"/><path class="cls-2" d="M43.71,130.8c.38-1.2-.55-1.77-.81-.62S43.33,132,43.71,130.8Z"/><path class="cls-2" d="M38.69,161.29c1,.21,1.28-2.61.47-2.89S37.72,161.07,38.69,161.29Z"/><path class="cls-2" d="M37.14,154.53c1.61.23,1.47-3.87.33-4.14S35.53,154.29,37.14,154.53Z"/><path class="cls-2" d="M40.76,157.12c1.13,0,1-4.38-.13-4.36S39.63,157.12,40.76,157.12Z"/><path class="cls-2" d="M40,149c.92.29,1.12-2.63.32-2.86S39,148.68,40,149Z"/><path class="cls-2" d="M36.26,148.06c.83.07.89-1.06.12-1S35.44,148,36.26,148.06Z"/><path class="cls-2" d="M43.46,150.83c.38-1.2-.55-1.77-.81-.62S43.09,152,43.46,150.83Z"/><path class="cls-2" d="M37.19,158.1c.38-1.2-.55-1.77-.81-.62S36.82,159.29,37.19,158.1Z"/><path class="cls-2" d="M165.3,123.1c-1.44.1-1.87-5.11-.66-5.36S166.74,123,165.3,123.1Z"/><path class="cls-2" d="M165.52,113.7c-1.44.41-1.68-4.24-.67-4.64S167,113.28,165.52,113.7Z"/><path class="cls-2" d="M163.92,103.85c-.93.42-1.81-3.24-1.13-3.55S164.85,103.43,163.92,103.85Z"/><path class="cls-2" d="M160.37,96.81c-1,.36-2.52-1.92-1.73-2.66S161.4,96.46,160.37,96.81Z"/><path class="cls-2" d="M162.72,116.68c-1.12.15-1.55-4.2-.46-4.34S163.84,116.54,162.72,116.68Z"/><path class="cls-2" d="M162.41,108.51c-.88.42-1.47-2.45-.71-2.79S163.28,108.09,162.41,108.51Z"/><path class="cls-2" d="M160,102.47c-1.07.46-1.79-2.21-1-2.6S161.07,102,160,102.47Z"/><path class="cls-2" d="M163,97.34c-.81.18-1-.93-.26-1S163.79,97.15,163,97.34Z"/><path class="cls-2" d="M159.19,110.82c-.53-1.13.31-1.83.73-.72S159.73,112,159.19,110.82Z"/><path class="cls-2" d="M159.1,105.71c-.54-1.13.31-1.83.73-.72S159.64,106.83,159.1,105.71Z"/><path class="cls-2" d="M166.39,117.17c-.54-1.13.31-1.83.73-.72S166.93,118.3,166.39,117.17Z"/><path class="cls-2" d="M162.39,123.4c-.38-1.19.56-1.77.82-.61S162.77,124.59,162.39,123.4Z"/><path class="cls-2" d="M168,159.7c-1,.22-1.29-2.61-.48-2.88S168.91,159.49,168,159.7Z"/><path class="cls-2" d="M169.49,152.94c-1.61.24-1.47-3.87-.32-4.13S171.1,152.71,169.49,152.94Z"/><path class="cls-2" d="M165.87,155.53c-1.13,0-1-4.38.13-4.36S167,155.54,165.87,155.53Z"/><path class="cls-2" d="M166.67,147.39c-.93.3-1.13-2.62-.33-2.86S167.59,147.1,166.67,147.39Z"/><path class="cls-2" d="M170.37,146.47c-.82.08-.88-1.05-.12-1S171.2,146.4,170.37,146.47Z"/><path class="cls-2" d="M163.17,149.24c-.38-1.19.55-1.76.82-.61S163.55,150.43,163.17,149.24Z"/><path class="cls-2" d="M169.44,156.51c-.38-1.19.55-1.76.82-.61S169.82,157.7,169.44,156.51Z"/><path class="cls-7" d="M180.58,169.11c1.06,6.79-5.19,10.2-13.34,11.77-14.07,2.7-36.48,5.28-63.34,5.28-29.26,0-51.89-3-68.5-6.52-8-1.68-11.82-5.72-10.88-11.79.5-3.21,3.27-6.14,10.88-6.16,14.05-.06,40.19,5.28,68.71,5.28,27.48,0,50.53-4.39,63.94-4.58C176.09,162.27,179.61,162.92,180.58,169.11Z"/><g class="cls-8"><g class="cls-9"><g class="cls-9"><path class="cls-3" d="M147.85,154.61c.3,0,.65-.12.73-.41s-.25-.61-.57-.73c-.65-.25-2.54-.62-2.73.38C145,155.09,147.22,154.69,147.85,154.61Z"/><path class="cls-3" d="M148,148.88a1.21,1.21,0,0,0-1.23-.95c-2-.1-2.41.66-2.37.86s.44.48.81.53C147.6,149.66,148,149.05,148,148.88Z"/><path class="cls-3" d="M154.61,155.51a.54.54,0,0,0-.24.47c0,.59,1.27.6,1.77.39.28-.12.79-.23.66-.65s-1.17-.45-1.7-.37A1.23,1.23,0,0,0,154.61,155.51Z"/><path class="cls-3" d="M158.16,141.81c-.3-1.11-1.92-1-2.47-.88a.94.94,0,0,0-.58.8C155.18,142.76,158.42,142.78,158.16,141.81Z"/><path class="cls-3" d="M162.26,146.14c-.2-.56-2.37-.57-2.92-.14s-.24,1.11.94,1.14S162.63,147.19,162.26,146.14Z"/><path class="cls-3" d="M161.07,160a.54.54,0,0,0,.33-.28c.09-.28-.18-.57-.44-.69s-.28-.14-.87-.11a1.4,1.4,0,0,0-1.09.58.45.45,0,0,0,.16.45,1,1,0,0,0,.43.17A2.76,2.76,0,0,0,161.07,160Z"/><path class="cls-3" d="M155.64,150.92a2.54,2.54,0,0,0-1.86-.45c-1.86.15-.47,1.66,1.35,1.15C155.52,151.52,155.86,151.27,155.64,150.92Z"/><path class="cls-3" d="M170.27,174a2.54,2.54,0,0,0-1.86-.45c-1.86.15-.47,1.66,1.35,1.16C170.15,174.55,170.49,174.3,170.27,174Z"/><path class="cls-3" d="M170.27,138.74a2.54,2.54,0,0,0-1.86-.45c-1.86.15-.47,1.66,1.35,1.15C170.15,139.34,170.49,139.09,170.27,138.74Z"/><path class="cls-3" d="M148.92,141.28a.75.75,0,0,0,.32-.67c-.11-.82-2.05-.76-2.81-.45a1.48,1.48,0,0,0-.94.93.33.33,0,0,0,0,.24.42.42,0,0,0,.22.15,4.77,4.77,0,0,0,2.46,0A2,2,0,0,0,148.92,141.28Z"/><path class="cls-3" d="M152.78,145a3.23,3.23,0,0,0-1.14.2c-.3.13-.64.43-.52.74a.53.53,0,0,0,.24.25,2,2,0,0,0,1.18.18c.81-.06,1.58-.27,1.57-.8S153.12,145,152.78,145Z"/><path class="cls-3" d="M148,160.54c0-1.16,2.49-1.14,2.67-.24C151,161.66,148,161.4,148,160.54Z"/><path class="cls-3" d="M153.2,163.55c.23-.46,1-.53,1.55-.42,1.64.34.67,2.1-1,1.34C153.4,164.3,153.06,164,153.2,163.55Z"/><path class="cls-3" d="M176.86,147.29c0-.63-2.32-1.27-2.4-.24S176.86,147.91,176.86,147.29Z"/><path class="cls-3" d="M164.37,153.55c0-.76-2.89-1.5-3-.24S164.38,154.32,164.37,153.55Z"/><path class="cls-3" d="M183.07,154.61c.29,0,.64-.12.73-.41s-.26-.61-.58-.73c-.65-.25-2.54-.62-2.73.38C180.25,155.09,182.43,154.69,183.07,154.61Z"/><path class="cls-3" d="M180.38,158.59c0-.21-.33-.53-.71-.58s-2-.1-2,.62c-.05.4.74.57,1.42.55C179.49,159.16,180.35,159.12,180.38,158.59Z"/><path class="cls-3" d="M175.39,152.89c-.2-.67-1.3-.74-2.06-.72-1.15,0-1.74.32-1.67.79s.84.88,2.54.73C174.74,153.64,175.49,153.49,175.39,152.89Z"/><path class="cls-3" d="M183.23,148.88a1.19,1.19,0,0,0-1.23-.95c-2-.1-2.41.66-2.37.86s.44.48.81.53C182.81,149.66,183.25,149.05,183.23,148.88Z"/><path class="cls-3" d="M164.93,148.6c-.12.9,3.85,1.36,3.69.14S165.05,147.71,164.93,148.6Z"/><path class="cls-3" d="M171.9,157.22a.78.78,0,0,0-.57-.47,9.23,9.23,0,0,0-3.07.13c-.19.06-.41.18-.41.41s.3.42.55.49a7.08,7.08,0,0,0,2.82.11,1.19,1.19,0,0,0,.49-.17A.48.48,0,0,0,171.9,157.22Z"/><path class="cls-3" d="M177.39,141.92c0-.43-.59-.66-1-.7-1.33-.1-1.17,1.56.32,1.32A.76.76,0,0,0,177.39,141.92Z"/><path class="cls-3" d="M184.13,141.28a.72.72,0,0,0,.32-.67c-.11-.82-2-.76-2.8-.45a1.47,1.47,0,0,0-1,.93.39.39,0,0,0,0,.24.41.41,0,0,0,.23.15,4.73,4.73,0,0,0,2.45,0A1.9,1.9,0,0,0,184.13,141.28Z"/><path class="cls-3" d="M171.86,144.3c1.15-1.06-2.4-1.74-2.45-.27C169.39,144.74,171.41,144.54,171.86,144.3Z"/><path class="cls-3" d="M165.53,142.08c.82-.4.45-.79,0-1a3.47,3.47,0,0,0-2.22.07c-.24.08-.58.19-.58.51s.43.43.71.55A2.45,2.45,0,0,0,165.53,142.08Z"/><path class="cls-3" d="M173.37,162.54c-.12.9,3.86,1.36,3.69.14S173.49,161.65,173.37,162.54Z"/><path class="cls-3" d="M164.25,162.07c-.49-.94,2.41-1.27,3-.56C168.11,162.58,164.62,162.75,164.25,162.07Z"/><path class="cls-3" d="M160.69,167.72c-.06.25-.33.39-.56.47a9.57,9.57,0,0,1-3.07-.1c-.19-.07-.42-.18-.42-.41s.3-.43.55-.49a6.74,6.74,0,0,1,2.82-.13,1,1,0,0,1,.49.16A.47.47,0,0,1,160.69,167.72Z"/><path class="cls-3" d="M148.21,169a1.33,1.33,0,0,1,1-.45c.37,0,1.78.19,1.42.89-.19.38-1,.43-1.56.32C148.64,169.71,147.93,169.54,148.21,169Z"/><path class="cls-3" d="M156.12,173.66c0-.76-2.85-1.55-3-.29S156.12,174.43,156.12,173.66Z"/><path class="cls-3" d="M164.31,170.56a.86.86,0,0,1,.5.66c.11.94-1.82,1.27-2.65,1.08-.47-.1-1.28-.15-1.19-.82s1.7-1,2.55-1A1.79,1.79,0,0,1,164.31,170.56Z"/><path class="cls-3" d="M180.77,166.41c0,.27-.28.44-.53.53a5.84,5.84,0,0,1-1.62.14,3.66,3.66,0,0,1-.81-.09.75.75,0,0,1-.53-.28.51.51,0,0,1,.18-.65,1.39,1.39,0,0,1,.72-.2,8.63,8.63,0,0,1,1.9.06C180.38,166,180.76,166.11,180.77,166.41Z"/><path class="cls-3" d="M173.66,169.43c.26,0,.56.1.62.38s-.25.62-.54.75c-.57.27-2.24.72-2.36-.26C171.23,169.08,173.11,169.38,173.66,169.43Z"/><path class="cls-3" d="M175.57,173.15a1.07,1.07,0,0,1,1-.92c1.53-.12,1.78.61,1.74.8a.75.75,0,0,1-.64.52C175.84,173.9,175.55,173.32,175.57,173.15Z"/><path class="cls-3" d="M167.88,166.93a.76.76,0,0,1-.34-.53c-.11-.72,1.14-.85,1.69-.66a1.33,1.33,0,0,1,.8.7.36.36,0,0,1,0,.2.24.24,0,0,1-.11.16,2.29,2.29,0,0,1-1.56.26A1.11,1.11,0,0,1,167.88,166.93Z"/></g></g><g class="cls-10"><g class="cls-10"><path class="cls-3" d="M147.85,189.82c.3,0,.65-.12.73-.41s-.25-.61-.57-.73c-.65-.24-2.54-.61-2.73.38C145,190.3,147.22,189.9,147.85,189.82Z"/><path class="cls-3" d="M148,184.1a1.21,1.21,0,0,0-1.23-1c-2-.1-2.41.66-2.37.86s.44.48.81.53C147.6,184.87,148,184.27,148,184.1Z"/><path class="cls-3" d="M154.61,190.72a.54.54,0,0,0-.24.47c0,.6,1.27.6,1.77.39.28-.12.79-.23.66-.64s-1.17-.46-1.7-.37A1.08,1.08,0,0,0,154.61,190.72Z"/><path class="cls-3" d="M158.16,177c-.3-1.12-1.92-1-2.47-.88a.92.92,0,0,0-.58.79C155.18,178,158.42,178,158.16,177Z"/><path class="cls-3" d="M162.26,181.35c-.2-.55-2.37-.56-2.92-.14s-.24,1.12.94,1.14S162.63,182.41,162.26,181.35Z"/><path class="cls-3" d="M161.07,195.25a.51.51,0,0,0,.33-.28c.09-.27-.18-.57-.44-.69s-.28-.14-.87-.1a1.37,1.37,0,0,0-1.09.57.44.44,0,0,0,.16.45.85.85,0,0,0,.43.17A2.76,2.76,0,0,0,161.07,195.25Z"/><path class="cls-3" d="M155.64,186.13a2.54,2.54,0,0,0-1.86-.45c-1.86.15-.47,1.66,1.35,1.15C155.52,186.73,155.86,186.48,155.64,186.13Z"/><path class="cls-3" d="M170.27,209.16a2.59,2.59,0,0,0-1.86-.45c-1.86.16-.47,1.66,1.35,1.16C170.15,209.76,170.49,209.52,170.27,209.16Z"/><path class="cls-3" d="M170.27,174a2.54,2.54,0,0,0-1.86-.45c-1.86.15-.47,1.66,1.35,1.16C170.15,174.55,170.49,174.3,170.27,174Z"/><path class="cls-3" d="M148.92,176.49a.72.72,0,0,0,.32-.66c-.11-.83-2.05-.77-2.81-.46a1.48,1.48,0,0,0-.94.93.33.33,0,0,0,0,.24.5.5,0,0,0,.22.16,4.77,4.77,0,0,0,2.46,0A1.79,1.79,0,0,0,148.92,176.49Z"/><path class="cls-3" d="M152.78,180.25a3,3,0,0,0-1.14.21c-.3.12-.64.43-.52.73a.53.53,0,0,0,.24.25,1.91,1.91,0,0,0,1.18.18c.81-.05,1.58-.26,1.57-.8S153.12,180.24,152.78,180.25Z"/><path class="cls-3" d="M148,195.76c0-1.16,2.49-1.15,2.67-.25C151,196.88,148,196.61,148,195.76Z"/><path class="cls-3" d="M153.2,198.77c.23-.46,1-.53,1.55-.42,1.64.33.67,2.09-1,1.33C153.4,199.52,153.06,199.18,153.2,198.77Z"/><path class="cls-3" d="M176.86,182.5c0-.63-2.32-1.27-2.4-.24S176.86,183.12,176.86,182.5Z"/><path class="cls-3" d="M164.37,188.77c0-.77-2.89-1.5-3-.25S164.38,189.53,164.37,188.77Z"/><path class="cls-3" d="M183.07,189.82c.29,0,.64-.12.73-.41s-.26-.61-.58-.73c-.65-.24-2.54-.61-2.73.38C180.25,190.3,182.43,189.9,183.07,189.82Z"/><path class="cls-3" d="M180.38,193.8c0-.21-.33-.53-.71-.58s-2-.09-2,.63c-.05.39.74.56,1.42.54C179.49,194.38,180.35,194.33,180.38,193.8Z"/><path class="cls-3" d="M175.39,188.11c-.2-.68-1.3-.74-2.06-.73-1.15,0-1.74.33-1.67.79s.84.89,2.54.73C174.74,188.85,175.49,188.71,175.39,188.11Z"/><path class="cls-3" d="M183.23,184.1a1.19,1.19,0,0,0-1.23-1c-2-.1-2.41.66-2.37.86s.44.48.81.53C182.81,184.87,183.25,184.27,183.23,184.1Z"/><path class="cls-3" d="M164.93,183.82c-.12.9,3.85,1.35,3.69.14S165.05,182.92,164.93,183.82Z"/><path class="cls-3" d="M171.9,192.43a.82.82,0,0,0-.57-.47,9.79,9.79,0,0,0-3.07.13c-.19.07-.41.18-.41.41s.3.42.55.49a6.9,6.9,0,0,0,2.82.11,1.07,1.07,0,0,0,.49-.17A.47.47,0,0,0,171.9,192.43Z"/><path class="cls-3" d="M177.39,177.13c0-.42-.59-.66-1-.69-1.33-.11-1.17,1.56.32,1.31A.76.76,0,0,0,177.39,177.13Z"/><path class="cls-3" d="M184.13,176.49a.7.7,0,0,0,.32-.66c-.11-.83-2-.77-2.8-.46a1.47,1.47,0,0,0-1,.93.39.39,0,0,0,0,.24.48.48,0,0,0,.23.16,4.73,4.73,0,0,0,2.45,0A1.75,1.75,0,0,0,184.13,176.49Z"/><path class="cls-3" d="M171.86,179.51c1.15-1-2.4-1.74-2.45-.27C169.39,180,171.41,179.76,171.86,179.51Z"/><path class="cls-3" d="M165.53,177.3c.82-.41.45-.8,0-1a3.34,3.34,0,0,0-2.22.07c-.24.07-.58.18-.58.5s.43.43.71.55A2.48,2.48,0,0,0,165.53,177.3Z"/><path class="cls-3" d="M173.37,197.76c-.12.9,3.86,1.35,3.69.14S173.49,196.86,173.37,197.76Z"/><path class="cls-3" d="M164.25,197.28c-.49-.94,2.41-1.26,3-.55C168.11,197.79,164.62,198,164.25,197.28Z"/><path class="cls-3" d="M160.69,202.93a.75.75,0,0,1-.56.47,9.29,9.29,0,0,1-3.07-.1c-.19-.07-.42-.18-.42-.41s.3-.43.55-.49a6.74,6.74,0,0,1,2.82-.13,1.05,1.05,0,0,1,.49.16A.48.48,0,0,1,160.69,202.93Z"/><path class="cls-3" d="M148.21,204.24a1.33,1.33,0,0,1,1-.45c.37,0,1.78.19,1.42.89-.19.38-1,.44-1.56.32C148.64,204.92,147.93,204.76,148.21,204.24Z"/><path class="cls-3" d="M156.12,208.88c0-.77-2.85-1.56-3-.3S156.12,209.64,156.12,208.88Z"/><path class="cls-3" d="M164.31,205.77a.87.87,0,0,1,.5.67c.11.93-1.82,1.26-2.65,1.08-.47-.11-1.28-.15-1.19-.83s1.7-1,2.55-1A1.94,1.94,0,0,1,164.31,205.77Z"/><path class="cls-3" d="M180.77,201.63c0,.26-.28.44-.53.52a5.46,5.46,0,0,1-1.62.14,3.66,3.66,0,0,1-.81-.09.78.78,0,0,1-.53-.27.53.53,0,0,1,.18-.66,1.39,1.39,0,0,1,.72-.2,8.64,8.64,0,0,1,1.9.07C180.38,201.18,180.76,201.32,180.77,201.63Z"/><path class="cls-3" d="M173.66,204.65c.26,0,.56.09.62.37s-.25.62-.54.75c-.57.27-2.24.72-2.36-.26C171.23,204.29,173.11,204.59,173.66,204.65Z"/><path class="cls-3" d="M175.57,208.37a1.07,1.07,0,0,1,1-.93c1.53-.11,1.78.61,1.74.81a.76.76,0,0,1-.64.52C175.84,209.11,175.55,208.53,175.57,208.37Z"/><path class="cls-3" d="M167.88,202.14a.76.76,0,0,1-.34-.53c-.11-.71,1.14-.85,1.69-.66a1.33,1.33,0,0,1,.8.7.39.39,0,0,1,0,.21.24.24,0,0,1-.11.15,2.3,2.3,0,0,1-1.56.27A1.13,1.13,0,0,1,167.88,202.14Z"/></g></g><g class="cls-11"><g class="cls-11"><path class="cls-3" d="M112.64,154.61c.29,0,.65-.12.73-.41s-.25-.61-.58-.73c-.64-.25-2.53-.62-2.72.38C109.83,155.09,112,154.69,112.64,154.61Z"/><path class="cls-3" d="M112.81,148.88a1.21,1.21,0,0,0-1.23-.95c-2-.1-2.41.66-2.38.86s.44.48.82.53C112.39,149.66,112.82,149.05,112.81,148.88Z"/><path class="cls-3" d="M119.4,155.51a.54.54,0,0,0-.24.47c0,.59,1.27.6,1.77.39.28-.12.78-.23.65-.65s-1.17-.45-1.7-.37A1.19,1.19,0,0,0,119.4,155.51Z"/><path class="cls-3" d="M123,141.81c-.3-1.11-1.92-1-2.47-.88a.92.92,0,0,0-.58.8C120,142.76,123.2,142.78,123,141.81Z"/><path class="cls-3" d="M127.05,146.14c-.2-.56-2.38-.57-2.92-.14s-.24,1.11.93,1.14S127.42,147.19,127.05,146.14Z"/><path class="cls-3" d="M125.85,160a.53.53,0,0,0,.34-.28c.09-.28-.18-.57-.44-.69s-.28-.14-.87-.11a1.42,1.42,0,0,0-1.1.58.48.48,0,0,0,.17.45.91.91,0,0,0,.42.17A2.74,2.74,0,0,0,125.85,160Z"/><path class="cls-3" d="M120.43,150.92a2.56,2.56,0,0,0-1.86-.45c-1.86.15-.48,1.66,1.35,1.15C120.3,151.52,120.65,151.27,120.43,150.92Z"/><path class="cls-3" d="M135.06,174a2.56,2.56,0,0,0-1.86-.45c-1.86.15-.48,1.66,1.35,1.16C134.93,174.55,135.28,174.3,135.06,174Z"/><path class="cls-3" d="M135.06,138.74a2.56,2.56,0,0,0-1.86-.45c-1.86.15-.48,1.66,1.35,1.15C134.93,139.34,135.28,139.09,135.06,138.74Z"/><path class="cls-3" d="M113.7,141.28a.7.7,0,0,0,.32-.67c-.1-.82-2-.76-2.8-.45a1.48,1.48,0,0,0-.94.93.33.33,0,0,0,0,.24.35.35,0,0,0,.22.15,4.73,4.73,0,0,0,2.45,0A1.85,1.85,0,0,0,113.7,141.28Z"/><path class="cls-3" d="M117.57,145a3.19,3.19,0,0,0-1.14.2c-.31.13-.64.43-.52.74a.56.56,0,0,0,.23.25,2,2,0,0,0,1.18.18c.82-.06,1.59-.27,1.58-.8S117.91,145,117.57,145Z"/><path class="cls-3" d="M112.82,160.54c0-1.16,2.49-1.14,2.66-.24C115.75,161.66,112.83,161.4,112.82,160.54Z"/><path class="cls-3" d="M118,163.55c.23-.46,1-.53,1.55-.42,1.64.34.66,2.1-1,1.34C118.19,164.3,117.84,164,118,163.55Z"/><path class="cls-3" d="M141.65,147.29c0-.63-2.32-1.27-2.4-.24S141.65,147.91,141.65,147.29Z"/><path class="cls-3" d="M129.15,153.55c0-.76-2.88-1.5-3-.24S129.17,154.32,129.15,153.55Z"/><path class="cls-3" d="M147.85,154.61c.3,0,.65-.12.73-.41s-.25-.61-.57-.73c-.65-.25-2.54-.62-2.73.38C145,155.09,147.22,154.69,147.85,154.61Z"/><path class="cls-3" d="M145.16,158.59c0-.21-.32-.53-.7-.58s-2-.1-2.06.62c0,.4.74.57,1.42.55C144.28,159.16,145.13,159.12,145.16,158.59Z"/><path class="cls-3" d="M140.18,152.89c-.2-.67-1.3-.74-2.06-.72-1.15,0-1.74.32-1.68.79s.85.88,2.55.73C139.52,153.64,140.27,153.49,140.18,152.89Z"/><path class="cls-3" d="M148,148.88a1.21,1.21,0,0,0-1.23-.95c-2-.1-2.41.66-2.37.86s.44.48.81.53C147.6,149.66,148,149.05,148,148.88Z"/><path class="cls-3" d="M129.72,148.6c-.12.9,3.85,1.36,3.69.14S129.83,147.71,129.72,148.6Z"/><path class="cls-3" d="M136.69,157.22a.78.78,0,0,0-.57-.47,9.23,9.23,0,0,0-3.07.13c-.19.06-.42.18-.41.41s.3.42.54.49a7.09,7.09,0,0,0,2.82.11,1.19,1.19,0,0,0,.5-.17A.49.49,0,0,0,136.69,157.22Z"/><path class="cls-3" d="M142.17,141.92c0-.43-.58-.66-1-.7-1.33-.1-1.17,1.56.32,1.32A.75.75,0,0,0,142.17,141.92Z"/><path class="cls-3" d="M148.92,141.28a.75.75,0,0,0,.32-.67c-.11-.82-2.05-.76-2.81-.45a1.48,1.48,0,0,0-.94.93.33.33,0,0,0,0,.24.42.42,0,0,0,.22.15,4.77,4.77,0,0,0,2.46,0A2,2,0,0,0,148.92,141.28Z"/><path class="cls-3" d="M136.64,144.3c1.16-1.06-2.39-1.74-2.44-.27C134.18,144.74,136.2,144.54,136.64,144.3Z"/><path class="cls-3" d="M130.32,142.08c.81-.4.45-.79,0-1a3.5,3.5,0,0,0-2.23.07c-.23.08-.57.19-.57.51s.43.43.71.55A2.45,2.45,0,0,0,130.32,142.08Z"/><path class="cls-3" d="M138.16,162.54c-.12.9,3.86,1.36,3.69.14S138.28,161.65,138.16,162.54Z"/><path class="cls-3" d="M129,162.07c-.5-.94,2.41-1.27,3-.56C132.9,162.58,129.41,162.75,129,162.07Z"/><path class="cls-3" d="M125.48,167.72a.8.8,0,0,1-.57.47,9.51,9.51,0,0,1-3.06-.1c-.2-.07-.42-.18-.42-.41s.3-.43.54-.49a6.74,6.74,0,0,1,2.82-.13,1,1,0,0,1,.5.16A.49.49,0,0,1,125.48,167.72Z"/><path class="cls-3" d="M113,169a1.29,1.29,0,0,1,1-.45c.37,0,1.77.19,1.42.89-.2.38-1,.43-1.56.32C113.43,169.71,112.71,169.54,113,169Z"/><path class="cls-3" d="M120.9,173.66c0-.76-2.85-1.55-2.94-.29S120.9,174.43,120.9,173.66Z"/><path class="cls-3" d="M129.1,170.56a.86.86,0,0,1,.5.66c.11.94-1.82,1.27-2.65,1.08-.47-.1-1.28-.15-1.19-.82s1.7-1,2.54-1A1.81,1.81,0,0,1,129.1,170.56Z"/><path class="cls-3" d="M145.56,166.41c0,.27-.28.44-.53.53a5.9,5.9,0,0,1-1.63.14,3.63,3.63,0,0,1-.8-.09.73.73,0,0,1-.53-.28.5.5,0,0,1,.18-.65,1.36,1.36,0,0,1,.71-.2,8.71,8.71,0,0,1,1.91.06C145.17,166,145.55,166.11,145.56,166.41Z"/><path class="cls-3" d="M138.45,169.43c.25,0,.56.1.62.38s-.25.62-.54.75c-.58.27-2.24.72-2.36-.26C136,169.08,137.9,169.38,138.45,169.43Z"/><path class="cls-3" d="M140.36,173.15a1.07,1.07,0,0,1,1-.92c1.52-.12,1.77.61,1.74.8a.76.76,0,0,1-.64.52C140.63,173.9,140.34,173.32,140.36,173.15Z"/><path class="cls-3" d="M132.67,166.93a.8.8,0,0,1-.35-.53c-.1-.72,1.15-.85,1.7-.66a1.34,1.34,0,0,1,.79.7.37.37,0,0,1,.05.2.27.27,0,0,1-.11.16,2.3,2.3,0,0,1-1.56.26A1.11,1.11,0,0,1,132.67,166.93Z"/></g></g><g class="cls-12"><g class="cls-12"><path class="cls-3" d="M112.64,189.82c.29,0,.65-.12.73-.41s-.25-.61-.58-.73c-.64-.24-2.53-.61-2.72.38C109.83,190.3,112,189.9,112.64,189.82Z"/><path class="cls-3" d="M112.81,184.1a1.21,1.21,0,0,0-1.23-1c-2-.1-2.41.66-2.38.86s.44.48.82.53C112.39,184.87,112.82,184.27,112.81,184.1Z"/><path class="cls-3" d="M119.4,190.72a.54.54,0,0,0-.24.47c0,.6,1.27.6,1.77.39.28-.12.78-.23.65-.64s-1.17-.46-1.7-.37A1,1,0,0,0,119.4,190.72Z"/><path class="cls-3" d="M123,177c-.3-1.12-1.92-1-2.47-.88a.91.91,0,0,0-.58.79C120,178,123.2,178,123,177Z"/><path class="cls-3" d="M127.05,181.35c-.2-.55-2.38-.56-2.92-.14s-.24,1.12.93,1.14S127.42,182.41,127.05,181.35Z"/><path class="cls-3" d="M125.85,195.25a.51.51,0,0,0,.34-.28c.09-.27-.18-.57-.44-.69s-.28-.14-.87-.1a1.39,1.39,0,0,0-1.1.57.47.47,0,0,0,.17.45.82.82,0,0,0,.42.17A2.74,2.74,0,0,0,125.85,195.25Z"/><path class="cls-3" d="M120.43,186.13a2.56,2.56,0,0,0-1.86-.45c-1.86.15-.48,1.66,1.35,1.15C120.3,186.73,120.65,186.48,120.43,186.13Z"/><path class="cls-3" d="M135.06,209.16a2.6,2.6,0,0,0-1.86-.45c-1.86.16-.48,1.66,1.35,1.16C134.93,209.76,135.28,209.52,135.06,209.16Z"/><path class="cls-3" d="M135.06,174a2.56,2.56,0,0,0-1.86-.45c-1.86.15-.48,1.66,1.35,1.16C134.93,174.55,135.28,174.3,135.06,174Z"/><path class="cls-3" d="M113.7,176.49a.68.68,0,0,0,.32-.66c-.1-.83-2-.77-2.8-.46a1.48,1.48,0,0,0-.94.93.33.33,0,0,0,0,.24.41.41,0,0,0,.22.16,4.73,4.73,0,0,0,2.45,0A1.7,1.7,0,0,0,113.7,176.49Z"/><path class="cls-3" d="M117.57,180.25a3,3,0,0,0-1.14.21c-.31.12-.64.43-.52.73a.56.56,0,0,0,.23.25,1.94,1.94,0,0,0,1.18.18c.82-.05,1.59-.26,1.58-.8S117.91,180.24,117.57,180.25Z"/><path class="cls-3" d="M112.82,195.76c0-1.16,2.49-1.15,2.66-.25C115.75,196.88,112.83,196.61,112.82,195.76Z"/><path class="cls-3" d="M118,198.77c.23-.46,1-.53,1.55-.42,1.64.33.66,2.09-1,1.33C118.19,199.52,117.84,199.18,118,198.77Z"/><path class="cls-3" d="M141.65,182.5c0-.63-2.32-1.27-2.4-.24S141.65,183.12,141.65,182.5Z"/><path class="cls-3" d="M129.15,188.77c0-.77-2.88-1.5-3-.25S129.17,189.53,129.15,188.77Z"/><path class="cls-3" d="M147.85,189.82c.3,0,.65-.12.73-.41s-.25-.61-.57-.73c-.65-.24-2.54-.61-2.73.38C145,190.3,147.22,189.9,147.85,189.82Z"/><path class="cls-3" d="M145.16,193.8c0-.21-.32-.53-.7-.58s-2-.09-2.06.63c0,.39.74.56,1.42.54C144.28,194.38,145.13,194.33,145.16,193.8Z"/><path class="cls-3" d="M140.18,188.11c-.2-.68-1.3-.74-2.06-.73-1.15,0-1.74.33-1.68.79s.85.89,2.55.73C139.52,188.85,140.27,188.71,140.18,188.11Z"/><path class="cls-3" d="M148,184.1a1.21,1.21,0,0,0-1.23-1c-2-.1-2.41.66-2.37.86s.44.48.81.53C147.6,184.87,148,184.27,148,184.1Z"/><path class="cls-3" d="M129.72,183.82c-.12.9,3.85,1.35,3.69.14S129.83,182.92,129.72,183.82Z"/><path class="cls-3" d="M136.69,192.43a.82.82,0,0,0-.57-.47,9.79,9.79,0,0,0-3.07.13c-.19.07-.42.18-.41.41s.3.42.54.49a6.91,6.91,0,0,0,2.82.11,1.07,1.07,0,0,0,.5-.17A.49.49,0,0,0,136.69,192.43Z"/><path class="cls-3" d="M142.17,177.13c0-.42-.58-.66-1-.69-1.33-.11-1.17,1.56.32,1.31A.75.75,0,0,0,142.17,177.13Z"/><path class="cls-3" d="M148.92,176.49a.72.72,0,0,0,.32-.66c-.11-.83-2.05-.77-2.81-.46a1.48,1.48,0,0,0-.94.93.33.33,0,0,0,0,.24.5.5,0,0,0,.22.16,4.77,4.77,0,0,0,2.46,0A1.79,1.79,0,0,0,148.92,176.49Z"/><path class="cls-3" d="M136.64,179.51c1.16-1-2.39-1.74-2.44-.27C134.18,180,136.2,179.76,136.64,179.51Z"/><path class="cls-3" d="M130.32,177.3c.81-.41.45-.8,0-1a3.37,3.37,0,0,0-2.23.07c-.23.07-.57.18-.57.5s.43.43.71.55A2.49,2.49,0,0,0,130.32,177.3Z"/><path class="cls-3" d="M138.16,197.76c-.12.9,3.86,1.35,3.69.14S138.28,196.86,138.16,197.76Z"/><path class="cls-3" d="M129,197.28c-.5-.94,2.41-1.26,3-.55C132.9,197.79,129.41,198,129,197.28Z"/><path class="cls-3" d="M125.48,202.93a.76.76,0,0,1-.57.47,9.23,9.23,0,0,1-3.06-.1c-.2-.07-.42-.18-.42-.41s.3-.43.54-.49a6.74,6.74,0,0,1,2.82-.13,1.06,1.06,0,0,1,.5.16A.49.49,0,0,1,125.48,202.93Z"/><path class="cls-3" d="M113,204.24a1.29,1.29,0,0,1,1-.45c.37,0,1.77.19,1.42.89-.2.38-1,.44-1.56.32C113.43,204.92,112.71,204.76,113,204.24Z"/><path class="cls-3" d="M120.9,208.88c0-.77-2.85-1.56-2.94-.3S120.9,209.64,120.9,208.88Z"/><path class="cls-3" d="M129.1,205.77a.87.87,0,0,1,.5.67c.11.93-1.82,1.26-2.65,1.08-.47-.11-1.28-.15-1.19-.83s1.7-1,2.54-1A2,2,0,0,1,129.1,205.77Z"/><path class="cls-3" d="M145.56,201.63c0,.26-.28.44-.53.52a5.52,5.52,0,0,1-1.63.14,3.63,3.63,0,0,1-.8-.09.76.76,0,0,1-.53-.27.52.52,0,0,1,.18-.66,1.36,1.36,0,0,1,.71-.2,8.71,8.71,0,0,1,1.91.07C145.17,201.18,145.55,201.32,145.56,201.63Z"/><path class="cls-3" d="M138.45,204.65c.25,0,.56.09.62.37s-.25.62-.54.75c-.58.27-2.24.72-2.36-.26C136,204.29,137.9,204.59,138.45,204.65Z"/><path class="cls-3" d="M140.36,208.37a1.07,1.07,0,0,1,1-.93c1.52-.11,1.77.61,1.74.81a.77.77,0,0,1-.64.52C140.63,209.11,140.34,208.53,140.36,208.37Z"/><path class="cls-3" d="M132.67,202.14a.8.8,0,0,1-.35-.53c-.1-.71,1.15-.85,1.7-.66a1.34,1.34,0,0,1,.79.7.41.41,0,0,1,.05.21.28.28,0,0,1-.11.15,2.31,2.31,0,0,1-1.56.27A1.13,1.13,0,0,1,132.67,202.14Z"/></g></g><g class="cls-13"><g class="cls-13"><path class="cls-3" d="M77.43,154.61c.29,0,.64-.12.73-.41s-.26-.61-.58-.73c-.65-.25-2.53-.62-2.73.38C74.61,155.09,76.79,154.69,77.43,154.61Z"/><path class="cls-3" d="M77.6,148.88a1.21,1.21,0,0,0-1.24-.95c-2-.1-2.41.66-2.37.86s.44.48.82.53C77.18,149.66,77.61,149.05,77.6,148.88Z"/><path class="cls-3" d="M84.18,155.51A.56.56,0,0,0,84,156c0,.59,1.27.6,1.77.39.28-.12.78-.23.65-.65s-1.17-.45-1.7-.37A1.23,1.23,0,0,0,84.18,155.51Z"/><path class="cls-3" d="M87.74,141.81c-.3-1.11-1.92-1-2.47-.88a.92.92,0,0,0-.58.8C84.76,142.76,88,142.78,87.74,141.81Z"/><path class="cls-3" d="M91.83,146.14c-.19-.56-2.37-.57-2.91-.14s-.24,1.11.93,1.14S92.21,147.19,91.83,146.14Z"/><path class="cls-3" d="M90.64,160a.52.52,0,0,0,.33-.28c.1-.28-.18-.57-.44-.69s-.27-.14-.86-.11a1.42,1.42,0,0,0-1.1.58.47.47,0,0,0,.16.45,1,1,0,0,0,.43.17A2.74,2.74,0,0,0,90.64,160Z"/><path class="cls-3" d="M85.21,150.92a2.54,2.54,0,0,0-1.86-.45c-1.85.15-.47,1.66,1.35,1.15C85.09,151.52,85.44,151.27,85.21,150.92Z"/><path class="cls-3" d="M99.84,174A2.54,2.54,0,0,0,98,173.5c-1.85.15-.47,1.66,1.35,1.16C99.72,174.55,100.07,174.3,99.84,174Z"/><path class="cls-3" d="M99.84,138.74a2.54,2.54,0,0,0-1.86-.45c-1.85.15-.47,1.66,1.35,1.15C99.72,139.34,100.07,139.09,99.84,138.74Z"/><path class="cls-3" d="M78.49,141.28a.7.7,0,0,0,.32-.67c-.11-.82-2-.76-2.8-.45a1.49,1.49,0,0,0-1,.93.33.33,0,0,0,0,.24.35.35,0,0,0,.22.15,4.73,4.73,0,0,0,2.45,0A1.9,1.9,0,0,0,78.49,141.28Z"/><path class="cls-3" d="M82.36,145a3.19,3.19,0,0,0-1.14.2c-.31.13-.64.43-.52.74a.51.51,0,0,0,.23.25,2,2,0,0,0,1.18.18c.81-.06,1.58-.27,1.57-.8S82.7,145,82.36,145Z"/><path class="cls-3" d="M77.61,160.54c0-1.16,2.49-1.14,2.66-.24C80.53,161.66,77.62,161.4,77.61,160.54Z"/><path class="cls-3" d="M82.77,163.55c.23-.46,1-.53,1.56-.42,1.63.34.66,2.1-1,1.34C83,164.3,82.63,164,82.77,163.55Z"/><path class="cls-3" d="M106.44,147.29c0-.63-2.33-1.27-2.4-.24S106.44,147.91,106.44,147.29Z"/><path class="cls-3" d="M93.94,153.55c0-.76-2.88-1.5-3-.24S94,154.32,93.94,153.55Z"/><path class="cls-3" d="M112.64,154.61c.29,0,.65-.12.73-.41s-.25-.61-.58-.73c-.64-.25-2.53-.62-2.72.38C109.83,155.09,112,154.69,112.64,154.61Z"/><path class="cls-3" d="M110,158.59c0-.21-.32-.53-.71-.58s-2-.1-2,.62c0,.4.74.57,1.42.55C109.07,159.16,109.92,159.12,110,158.59Z"/><path class="cls-3" d="M105,152.89c-.2-.67-1.3-.74-2.07-.72-1.15,0-1.73.32-1.67.79s.85.88,2.55.73C104.31,153.64,105.06,153.49,105,152.89Z"/><path class="cls-3" d="M112.81,148.88a1.21,1.21,0,0,0-1.23-.95c-2-.1-2.41.66-2.38.86s.44.48.82.53C112.39,149.66,112.82,149.05,112.81,148.88Z"/><path class="cls-3" d="M94.5,148.6c-.12.9,3.86,1.36,3.69.14S94.62,147.71,94.5,148.6Z"/><path class="cls-3" d="M101.47,157.22a.75.75,0,0,0-.57-.47,9.17,9.17,0,0,0-3.06.13c-.19.06-.42.18-.42.41s.31.42.55.49a7.08,7.08,0,0,0,2.82.11,1.19,1.19,0,0,0,.5-.17A.49.49,0,0,0,101.47,157.22Z"/><path class="cls-3" d="M107,141.92c0-.43-.58-.66-1-.7-1.33-.1-1.18,1.56.31,1.32A.76.76,0,0,0,107,141.92Z"/><path class="cls-3" d="M113.7,141.28a.7.7,0,0,0,.32-.67c-.1-.82-2-.76-2.8-.45a1.48,1.48,0,0,0-.94.93.33.33,0,0,0,0,.24.35.35,0,0,0,.22.15,4.73,4.73,0,0,0,2.45,0A1.85,1.85,0,0,0,113.7,141.28Z"/><path class="cls-3" d="M101.43,144.3c1.16-1.06-2.39-1.74-2.44-.27C99,144.74,101,144.54,101.43,144.3Z"/><path class="cls-3" d="M95.11,142.08c.81-.4.44-.79,0-1a3.5,3.5,0,0,0-2.23.07c-.23.08-.58.19-.58.51s.44.43.72.55A2.46,2.46,0,0,0,95.11,142.08Z"/><path class="cls-3" d="M103,162.54c-.12.9,3.85,1.36,3.69.14S103.07,161.65,103,162.54Z"/><path class="cls-3" d="M93.83,162.07c-.5-.94,2.41-1.27,3-.56C97.69,162.58,94.19,162.75,93.83,162.07Z"/><path class="cls-3" d="M90.27,167.72a.8.8,0,0,1-.57.47,9.57,9.57,0,0,1-3.07-.1c-.19-.07-.41-.18-.41-.41s.3-.43.54-.49a6.74,6.74,0,0,1,2.82-.13,1,1,0,0,1,.5.16A.49.49,0,0,1,90.27,167.72Z"/><path class="cls-3" d="M77.79,169a1.29,1.29,0,0,1,1-.45c.36,0,1.77.19,1.42.89-.2.38-1,.43-1.56.32C78.22,169.71,77.5,169.54,77.79,169Z"/><path class="cls-3" d="M85.69,173.66c0-.76-2.85-1.55-2.94-.29S85.69,174.43,85.69,173.66Z"/><path class="cls-3" d="M93.89,170.56a.85.85,0,0,1,.49.66c.12.94-1.81,1.27-2.65,1.08-.46-.1-1.28-.15-1.18-.82s1.7-1,2.54-1A1.83,1.83,0,0,1,93.89,170.56Z"/><path class="cls-3" d="M110.34,166.41c0,.27-.27.44-.52.53a5.92,5.92,0,0,1-1.63.14,3.63,3.63,0,0,1-.8-.09.78.78,0,0,1-.54-.28.52.52,0,0,1,.19-.65,1.33,1.33,0,0,1,.71-.2,8.71,8.71,0,0,1,1.91.06C110,166,110.33,166.11,110.34,166.41Z"/><path class="cls-3" d="M103.24,169.43c.25,0,.55.1.62.38s-.26.62-.54.75c-.58.27-2.25.72-2.37-.26C100.8,169.08,102.69,169.38,103.24,169.43Z"/><path class="cls-3" d="M105.14,173.15a1.09,1.09,0,0,1,1-.92c1.52-.12,1.77.61,1.73.8a.73.73,0,0,1-.64.52C105.42,173.9,105.13,173.32,105.14,173.15Z"/><path class="cls-3" d="M97.46,166.93a.77.77,0,0,1-.35-.53c-.1-.72,1.14-.85,1.69-.66a1.33,1.33,0,0,1,.8.7.36.36,0,0,1,0,.2.24.24,0,0,1-.11.16,2.26,2.26,0,0,1-1.55.26A1.06,1.06,0,0,1,97.46,166.93Z"/></g></g><g class="cls-14"><g class="cls-14"><path class="cls-3" d="M77.43,189.82c.29,0,.64-.12.73-.41s-.26-.61-.58-.73c-.65-.24-2.53-.61-2.73.38C74.61,190.3,76.79,189.9,77.43,189.82Z"/><path class="cls-3" d="M77.6,184.1a1.21,1.21,0,0,0-1.24-1c-2-.1-2.41.66-2.37.86s.44.48.82.53C77.18,184.87,77.61,184.27,77.6,184.1Z"/><path class="cls-3" d="M84.18,190.72a.56.56,0,0,0-.23.47c0,.6,1.27.6,1.77.39.28-.12.78-.23.65-.64s-1.17-.46-1.7-.37A1.08,1.08,0,0,0,84.18,190.72Z"/><path class="cls-3" d="M87.74,177c-.3-1.12-1.92-1-2.47-.88a.91.91,0,0,0-.58.79C84.76,178,88,178,87.74,177Z"/><path class="cls-3" d="M91.83,181.35c-.19-.55-2.37-.56-2.91-.14s-.24,1.12.93,1.14S92.21,182.41,91.83,181.35Z"/><path class="cls-3" d="M90.64,195.25A.49.49,0,0,0,91,195c.1-.27-.18-.57-.44-.69s-.27-.14-.86-.1a1.39,1.39,0,0,0-1.1.57.46.46,0,0,0,.16.45.89.89,0,0,0,.43.17A2.74,2.74,0,0,0,90.64,195.25Z"/><path class="cls-3" d="M85.21,186.13a2.54,2.54,0,0,0-1.86-.45c-1.85.15-.47,1.66,1.35,1.15C85.09,186.73,85.44,186.48,85.21,186.13Z"/><path class="cls-3" d="M99.84,209.16a2.59,2.59,0,0,0-1.86-.45c-1.85.16-.47,1.66,1.35,1.16C99.72,209.76,100.07,209.52,99.84,209.16Z"/><path class="cls-3" d="M99.84,174A2.54,2.54,0,0,0,98,173.5c-1.85.15-.47,1.66,1.35,1.16C99.72,174.55,100.07,174.3,99.84,174Z"/><path class="cls-3" d="M78.49,176.49a.68.68,0,0,0,.32-.66c-.11-.83-2-.77-2.8-.46a1.49,1.49,0,0,0-1,.93.33.33,0,0,0,0,.24.41.41,0,0,0,.22.16,4.73,4.73,0,0,0,2.45,0A1.75,1.75,0,0,0,78.49,176.49Z"/><path class="cls-3" d="M82.36,180.25a3,3,0,0,0-1.14.21c-.31.12-.64.43-.52.73a.51.51,0,0,0,.23.25,1.92,1.92,0,0,0,1.18.18c.81-.05,1.58-.26,1.57-.8S82.7,180.24,82.36,180.25Z"/><path class="cls-3" d="M77.61,195.76c0-1.16,2.49-1.15,2.66-.25C80.53,196.88,77.62,196.61,77.61,195.76Z"/><path class="cls-3" d="M82.77,198.77c.23-.46,1-.53,1.56-.42,1.63.33.66,2.09-1,1.33C83,199.52,82.63,199.18,82.77,198.77Z"/><path class="cls-3" d="M106.44,182.5c0-.63-2.33-1.27-2.4-.24S106.44,183.12,106.44,182.5Z"/><path class="cls-3" d="M93.94,188.77c0-.77-2.88-1.5-3-.25S94,189.53,93.94,188.77Z"/><path class="cls-3" d="M112.64,189.82c.29,0,.65-.12.73-.41s-.25-.61-.58-.73c-.64-.24-2.53-.61-2.72.38C109.83,190.3,112,189.9,112.64,189.82Z"/><path class="cls-3" d="M110,193.8c0-.21-.32-.53-.71-.58s-2-.09-2,.63c0,.39.74.56,1.42.54C109.07,194.38,109.92,194.33,110,193.8Z"/><path class="cls-3" d="M105,188.11c-.2-.68-1.3-.74-2.07-.73-1.15,0-1.73.33-1.67.79s.85.89,2.55.73C104.31,188.85,105.06,188.71,105,188.11Z"/><path class="cls-3" d="M112.81,184.1a1.21,1.21,0,0,0-1.23-1c-2-.1-2.41.66-2.38.86s.44.48.82.53C112.39,184.87,112.82,184.27,112.81,184.1Z"/><path class="cls-3" d="M94.5,183.82c-.12.9,3.86,1.35,3.69.14S94.62,182.92,94.5,183.82Z"/><path class="cls-3" d="M101.47,192.43c-.06-.25-.33-.39-.57-.47a9.73,9.73,0,0,0-3.06.13c-.19.07-.42.18-.42.41s.31.42.55.49a6.9,6.9,0,0,0,2.82.11,1.07,1.07,0,0,0,.5-.17A.48.48,0,0,0,101.47,192.43Z"/><path class="cls-3" d="M107,177.13c0-.42-.58-.66-1-.69-1.33-.11-1.18,1.56.31,1.31A.76.76,0,0,0,107,177.13Z"/><path class="cls-3" d="M113.7,176.49a.68.68,0,0,0,.32-.66c-.1-.83-2-.77-2.8-.46a1.48,1.48,0,0,0-.94.93.33.33,0,0,0,0,.24.41.41,0,0,0,.22.16,4.73,4.73,0,0,0,2.45,0A1.7,1.7,0,0,0,113.7,176.49Z"/><path class="cls-3" d="M101.43,179.51c1.16-1-2.39-1.74-2.44-.27C99,180,101,179.76,101.43,179.51Z"/><path class="cls-3" d="M95.11,177.3c.81-.41.44-.8,0-1a3.37,3.37,0,0,0-2.23.07c-.23.07-.58.18-.58.5s.44.43.72.55A2.49,2.49,0,0,0,95.11,177.3Z"/><path class="cls-3" d="M103,197.76c-.12.9,3.85,1.35,3.69.14S103.07,196.86,103,197.76Z"/><path class="cls-3" d="M93.83,197.28c-.5-.94,2.41-1.26,3-.55C97.69,197.79,94.19,198,93.83,197.28Z"/><path class="cls-3" d="M90.27,202.93a.76.76,0,0,1-.57.47,9.29,9.29,0,0,1-3.07-.1c-.19-.07-.41-.18-.41-.41s.3-.43.54-.49a6.74,6.74,0,0,1,2.82-.13,1.06,1.06,0,0,1,.5.16A.49.49,0,0,1,90.27,202.93Z"/><path class="cls-3" d="M77.79,204.24a1.29,1.29,0,0,1,1-.45c.36,0,1.77.19,1.42.89-.2.38-1,.44-1.56.32C78.22,204.92,77.5,204.76,77.79,204.24Z"/><path class="cls-3" d="M85.69,208.88c0-.77-2.85-1.56-2.94-.3S85.69,209.64,85.69,208.88Z"/><path class="cls-3" d="M93.89,205.77a.86.86,0,0,1,.49.67c.12.93-1.81,1.26-2.65,1.08-.46-.11-1.28-.15-1.18-.83s1.7-1,2.54-1A2,2,0,0,1,93.89,205.77Z"/><path class="cls-3" d="M110.34,201.63c0,.26-.27.44-.52.52a5.53,5.53,0,0,1-1.63.14,3.63,3.63,0,0,1-.8-.09.81.81,0,0,1-.54-.27.53.53,0,0,1,.19-.66,1.33,1.33,0,0,1,.71-.2,8.71,8.71,0,0,1,1.91.07C110,201.18,110.33,201.32,110.34,201.63Z"/><path class="cls-3" d="M103.24,204.65c.25,0,.55.09.62.37s-.26.62-.54.75c-.58.27-2.25.72-2.37-.26C100.8,204.29,102.69,204.59,103.24,204.65Z"/><path class="cls-3" d="M105.14,208.37a1.09,1.09,0,0,1,1-.93c1.52-.11,1.77.61,1.73.81a.75.75,0,0,1-.64.52C105.42,209.11,105.13,208.53,105.14,208.37Z"/><path class="cls-3" d="M97.46,202.14a.77.77,0,0,1-.35-.53c-.1-.71,1.14-.85,1.69-.66a1.33,1.33,0,0,1,.8.7.39.39,0,0,1,0,.21.24.24,0,0,1-.11.15,2.27,2.27,0,0,1-1.55.27A1.07,1.07,0,0,1,97.46,202.14Z"/></g></g><g class="cls-15"><g class="cls-15"><path class="cls-3" d="M42.22,154.61c.29,0,.64-.12.73-.41s-.26-.61-.58-.73c-.65-.25-2.54-.62-2.73.38C39.4,155.09,41.58,154.69,42.22,154.61Z"/><path class="cls-3" d="M42.38,148.88a1.21,1.21,0,0,0-1.23-.95c-2-.1-2.41.66-2.37.86s.44.48.81.53C42,149.66,42.4,149.05,42.38,148.88Z"/><path class="cls-3" d="M49,155.51a.56.56,0,0,0-.24.47c0,.59,1.28.6,1.78.39.28-.12.78-.23.65-.65s-1.17-.45-1.7-.37A1.23,1.23,0,0,0,49,155.51Z"/><path class="cls-3" d="M52.52,141.81c-.29-1.11-1.91-1-2.46-.88a1,1,0,0,0-.59.8C49.55,142.76,52.78,142.78,52.52,141.81Z"/><path class="cls-3" d="M56.62,146.14c-.2-.56-2.37-.57-2.92-.14s-.24,1.11.94,1.14S57,147.19,56.62,146.14Z"/><path class="cls-3" d="M55.43,160a.52.52,0,0,0,.33-.28c.09-.28-.18-.57-.44-.69s-.28-.14-.87-.11a1.42,1.42,0,0,0-1.09.58.47.47,0,0,0,.16.45,1,1,0,0,0,.43.17A2.75,2.75,0,0,0,55.43,160Z"/><path class="cls-3" d="M50,150.92a2.54,2.54,0,0,0-1.86-.45c-1.85.15-.47,1.66,1.35,1.15C49.88,151.52,50.23,151.27,50,150.92Z"/><path class="cls-3" d="M64.63,174a2.54,2.54,0,0,0-1.86-.45c-1.85.15-.47,1.66,1.35,1.16C64.51,174.55,64.86,174.3,64.63,174Z"/><path class="cls-3" d="M64.63,138.74a2.54,2.54,0,0,0-1.86-.45c-1.85.15-.47,1.66,1.35,1.15C64.51,139.34,64.86,139.09,64.63,138.74Z"/><path class="cls-3" d="M43.28,141.28a.72.72,0,0,0,.32-.67c-.11-.82-2.05-.76-2.81-.45a1.48,1.48,0,0,0-.94.93.33.33,0,0,0,0,.24.42.42,0,0,0,.22.15,4.77,4.77,0,0,0,2.46,0A1.9,1.9,0,0,0,43.28,141.28Z"/><path class="cls-3" d="M47.14,145a3.23,3.23,0,0,0-1.14.2c-.3.13-.64.43-.52.74a.58.58,0,0,0,.24.25,2,2,0,0,0,1.18.18c.81-.06,1.58-.27,1.57-.8S47.48,145,47.14,145Z"/><path class="cls-3" d="M42.39,160.54c0-1.16,2.49-1.14,2.67-.24C45.32,161.66,42.4,161.4,42.39,160.54Z"/><path class="cls-3" d="M47.56,163.55c.23-.46,1-.53,1.55-.42,1.64.34.67,2.1-1,1.34C47.76,164.3,47.42,164,47.56,163.55Z"/><path class="cls-3" d="M71.23,147.29c0-.63-2.33-1.27-2.4-.24S71.23,147.91,71.23,147.29Z"/><path class="cls-3" d="M58.73,153.55c0-.76-2.88-1.5-2.95-.24S58.74,154.32,58.73,153.55Z"/><path class="cls-3" d="M77.43,154.61c.29,0,.64-.12.73-.41s-.26-.61-.58-.73c-.65-.25-2.53-.62-2.73.38C74.61,155.09,76.79,154.69,77.43,154.61Z"/><path class="cls-3" d="M74.74,158.59c0-.21-.32-.53-.71-.58s-2-.1-2,.62c0,.4.74.57,1.42.55C73.85,159.16,74.71,159.12,74.74,158.59Z"/><path class="cls-3" d="M69.75,152.89c-.2-.67-1.29-.74-2.06-.72-1.15,0-1.74.32-1.67.79s.84.88,2.55.73C69.1,153.64,69.85,153.49,69.75,152.89Z"/><path class="cls-3" d="M77.6,148.88a1.21,1.21,0,0,0-1.24-.95c-2-.1-2.41.66-2.37.86s.44.48.82.53C77.18,149.66,77.61,149.05,77.6,148.88Z"/><path class="cls-3" d="M59.29,148.6c-.12.9,3.86,1.36,3.69.14S59.41,147.71,59.29,148.6Z"/><path class="cls-3" d="M66.26,157.22a.76.76,0,0,0-.57-.47,9.15,9.15,0,0,0-3.06.13c-.2.06-.42.18-.42.41s.31.42.55.49a7.08,7.08,0,0,0,2.82.11,1.19,1.19,0,0,0,.5-.17A.49.49,0,0,0,66.26,157.22Z"/><path class="cls-3" d="M71.75,141.92c0-.43-.58-.66-1-.7-1.33-.1-1.17,1.56.32,1.32A.76.76,0,0,0,71.75,141.92Z"/><path class="cls-3" d="M78.49,141.28a.7.7,0,0,0,.32-.67c-.11-.82-2-.76-2.8-.45a1.49,1.49,0,0,0-1,.93.33.33,0,0,0,0,.24.35.35,0,0,0,.22.15,4.73,4.73,0,0,0,2.45,0A1.9,1.9,0,0,0,78.49,141.28Z"/><path class="cls-3" d="M66.22,144.3c1.16-1.06-2.4-1.74-2.45-.27C63.75,144.74,65.77,144.54,66.22,144.3Z"/><path class="cls-3" d="M59.89,142.08c.82-.4.45-.79,0-1a3.47,3.47,0,0,0-2.22.07c-.23.08-.58.19-.58.51s.44.43.71.55A2.45,2.45,0,0,0,59.89,142.08Z"/><path class="cls-3" d="M67.73,162.54c-.11.9,3.86,1.36,3.7.14S67.85,161.65,67.73,162.54Z"/><path class="cls-3" d="M58.62,162.07c-.5-.94,2.4-1.27,3-.56C62.48,162.58,59,162.75,58.62,162.07Z"/><path class="cls-3" d="M55.05,167.72c-.06.25-.33.39-.56.47a9.57,9.57,0,0,1-3.07-.1c-.19-.07-.42-.18-.42-.41s.31-.43.55-.49a6.74,6.74,0,0,1,2.82-.13,1,1,0,0,1,.5.16A.48.48,0,0,1,55.05,167.72Z"/><path class="cls-3" d="M42.58,169a1.29,1.29,0,0,1,1-.45c.36,0,1.77.19,1.41.89-.19.38-1,.43-1.56.32C43,169.71,42.29,169.54,42.58,169Z"/><path class="cls-3" d="M50.48,173.66c0-.76-2.85-1.55-2.94-.29S50.48,174.43,50.48,173.66Z"/><path class="cls-3" d="M58.68,170.56a.85.85,0,0,1,.49.66c.12.94-1.82,1.27-2.65,1.08-.47-.1-1.28-.15-1.18-.82s1.69-1,2.54-1A1.83,1.83,0,0,1,58.68,170.56Z"/><path class="cls-3" d="M75.13,166.41c0,.27-.27.44-.53.53a5.84,5.84,0,0,1-1.62.14,3.5,3.5,0,0,1-.8-.09.76.76,0,0,1-.54-.28.51.51,0,0,1,.19-.65,1.33,1.33,0,0,1,.71-.2,8.63,8.63,0,0,1,1.9.06C74.75,166,75.12,166.11,75.13,166.41Z"/><path class="cls-3" d="M68,169.43c.26,0,.56.1.62.38s-.25.62-.54.75c-.57.27-2.24.72-2.36-.26C65.59,169.08,67.47,169.38,68,169.43Z"/><path class="cls-3" d="M69.93,173.15a1.08,1.08,0,0,1,1-.92c1.53-.12,1.78.61,1.74.8a.73.73,0,0,1-.64.52C70.21,173.9,69.91,173.32,69.93,173.15Z"/><path class="cls-3" d="M62.24,166.93a.76.76,0,0,1-.34-.53c-.11-.72,1.14-.85,1.69-.66a1.33,1.33,0,0,1,.8.7.36.36,0,0,1,0,.2.24.24,0,0,1-.11.16,2.26,2.26,0,0,1-1.55.26A1.12,1.12,0,0,1,62.24,166.93Z"/></g></g><g class="cls-16"><g class="cls-16"><path class="cls-3" d="M42.22,189.82c.29,0,.64-.12.73-.41s-.26-.61-.58-.73c-.65-.24-2.54-.61-2.73.38C39.4,190.3,41.58,189.9,42.22,189.82Z"/><path class="cls-3" d="M42.38,184.1a1.21,1.21,0,0,0-1.23-1c-2-.1-2.41.66-2.37.86s.44.48.81.53C42,184.87,42.4,184.27,42.38,184.1Z"/><path class="cls-3" d="M49,190.72a.56.56,0,0,0-.24.47c0,.6,1.28.6,1.78.39.28-.12.78-.23.65-.64s-1.17-.46-1.7-.37A1.08,1.08,0,0,0,49,190.72Z"/><path class="cls-3" d="M52.52,177c-.29-1.12-1.91-1-2.46-.88a.93.93,0,0,0-.59.79C49.55,178,52.78,178,52.52,177Z"/><path class="cls-3" d="M56.62,181.35c-.2-.55-2.37-.56-2.92-.14s-.24,1.12.94,1.14S57,182.41,56.62,181.35Z"/><path class="cls-3" d="M55.43,195.25a.49.49,0,0,0,.33-.28c.09-.27-.18-.57-.44-.69s-.28-.14-.87-.1a1.39,1.39,0,0,0-1.09.57.46.46,0,0,0,.16.45.85.85,0,0,0,.43.17A2.75,2.75,0,0,0,55.43,195.25Z"/><path class="cls-3" d="M50,186.13a2.54,2.54,0,0,0-1.86-.45c-1.85.15-.47,1.66,1.35,1.15C49.88,186.73,50.23,186.48,50,186.13Z"/><path class="cls-3" d="M64.63,209.16a2.59,2.59,0,0,0-1.86-.45c-1.85.16-.47,1.66,1.35,1.16C64.51,209.76,64.86,209.52,64.63,209.16Z"/><path class="cls-3" d="M64.63,174a2.54,2.54,0,0,0-1.86-.45c-1.85.15-.47,1.66,1.35,1.16C64.51,174.55,64.86,174.3,64.63,174Z"/><path class="cls-3" d="M43.28,176.49a.7.7,0,0,0,.32-.66c-.11-.83-2.05-.77-2.81-.46a1.48,1.48,0,0,0-.94.93.33.33,0,0,0,0,.24.5.5,0,0,0,.22.16,4.77,4.77,0,0,0,2.46,0A1.75,1.75,0,0,0,43.28,176.49Z"/><path class="cls-3" d="M47.14,180.25a3,3,0,0,0-1.14.21c-.3.12-.64.43-.52.73a.58.58,0,0,0,.24.25,1.91,1.91,0,0,0,1.18.18c.81-.05,1.58-.26,1.57-.8S47.48,180.24,47.14,180.25Z"/><path class="cls-3" d="M42.39,195.76c0-1.16,2.49-1.15,2.67-.25C45.32,196.88,42.4,196.61,42.39,195.76Z"/><path class="cls-3" d="M47.56,198.77c.23-.46,1-.53,1.55-.42,1.64.33.67,2.09-1,1.33C47.76,199.52,47.42,199.18,47.56,198.77Z"/><path class="cls-3" d="M71.23,182.5c0-.63-2.33-1.27-2.4-.24S71.23,183.12,71.23,182.5Z"/><path class="cls-3" d="M58.73,188.77c0-.77-2.88-1.5-2.95-.25S58.74,189.53,58.73,188.77Z"/><path class="cls-3" d="M77.43,189.82c.29,0,.64-.12.73-.41s-.26-.61-.58-.73c-.65-.24-2.53-.61-2.73.38C74.61,190.3,76.79,189.9,77.43,189.82Z"/><path class="cls-3" d="M74.74,193.8c0-.21-.32-.53-.71-.58s-2-.09-2,.63c0,.39.74.56,1.42.54C73.85,194.38,74.71,194.33,74.74,193.8Z"/><path class="cls-3" d="M69.75,188.11c-.2-.68-1.29-.74-2.06-.73-1.15,0-1.74.33-1.67.79s.84.89,2.55.73C69.1,188.85,69.85,188.71,69.75,188.11Z"/><path class="cls-3" d="M77.6,184.1a1.21,1.21,0,0,0-1.24-1c-2-.1-2.41.66-2.37.86s.44.48.82.53C77.18,184.87,77.61,184.27,77.6,184.1Z"/><path class="cls-3" d="M59.29,183.82c-.12.9,3.86,1.35,3.69.14S59.41,182.92,59.29,183.82Z"/><path class="cls-3" d="M66.26,192.43a.8.8,0,0,0-.57-.47,9.71,9.71,0,0,0-3.06.13c-.2.07-.42.18-.42.41s.31.42.55.49a6.9,6.9,0,0,0,2.82.11,1.07,1.07,0,0,0,.5-.17A.48.48,0,0,0,66.26,192.43Z"/><path class="cls-3" d="M71.75,177.13c0-.42-.58-.66-1-.69-1.33-.11-1.17,1.56.32,1.31A.76.76,0,0,0,71.75,177.13Z"/><path class="cls-3" d="M78.49,176.49a.68.68,0,0,0,.32-.66c-.11-.83-2-.77-2.8-.46a1.49,1.49,0,0,0-1,.93.33.33,0,0,0,0,.24.41.41,0,0,0,.22.16,4.73,4.73,0,0,0,2.45,0A1.75,1.75,0,0,0,78.49,176.49Z"/><path class="cls-3" d="M66.22,179.51c1.16-1-2.4-1.74-2.45-.27C63.75,180,65.77,179.76,66.22,179.51Z"/><path class="cls-3" d="M59.89,177.3c.82-.41.45-.8,0-1a3.34,3.34,0,0,0-2.22.07c-.23.07-.58.18-.58.5s.44.43.71.55A2.48,2.48,0,0,0,59.89,177.3Z"/><path class="cls-3" d="M67.73,197.76c-.11.9,3.86,1.35,3.7.14S67.85,196.86,67.73,197.76Z"/><path class="cls-3" d="M58.62,197.28c-.5-.94,2.4-1.26,3-.55C62.48,197.79,59,198,58.62,197.28Z"/><path class="cls-3" d="M55.05,202.93a.75.75,0,0,1-.56.47,9.29,9.29,0,0,1-3.07-.1c-.19-.07-.42-.18-.42-.41s.31-.43.55-.49a6.74,6.74,0,0,1,2.82-.13,1.13,1.13,0,0,1,.5.16A.49.49,0,0,1,55.05,202.93Z"/><path class="cls-3" d="M42.58,204.24a1.29,1.29,0,0,1,1-.45c.36,0,1.77.19,1.41.89-.19.38-1,.44-1.56.32C43,204.92,42.29,204.76,42.58,204.24Z"/><path class="cls-3" d="M50.48,208.88c0-.77-2.85-1.56-2.94-.3S50.48,209.64,50.48,208.88Z"/><path class="cls-3" d="M58.68,205.77a.86.86,0,0,1,.49.67c.12.93-1.82,1.26-2.65,1.08-.47-.11-1.28-.15-1.18-.83s1.69-1,2.54-1A2,2,0,0,1,58.68,205.77Z"/><path class="cls-3" d="M75.13,201.63c0,.26-.27.44-.53.52a5.46,5.46,0,0,1-1.62.14,3.5,3.5,0,0,1-.8-.09.78.78,0,0,1-.54-.27.52.52,0,0,1,.19-.66,1.33,1.33,0,0,1,.71-.2,8.64,8.64,0,0,1,1.9.07C74.75,201.18,75.12,201.32,75.13,201.63Z"/><path class="cls-3" d="M68,204.65c.26,0,.56.09.62.37s-.25.62-.54.75c-.57.27-2.24.72-2.36-.26C65.59,204.29,67.47,204.59,68,204.65Z"/><path class="cls-3" d="M69.93,208.37a1.08,1.08,0,0,1,1-.93c1.53-.11,1.78.61,1.74.81a.75.75,0,0,1-.64.52C70.21,209.11,69.91,208.53,69.93,208.37Z"/><path class="cls-3" d="M62.24,202.14a.76.76,0,0,1-.34-.53c-.11-.71,1.14-.85,1.69-.66a1.33,1.33,0,0,1,.8.7.39.39,0,0,1,0,.21.24.24,0,0,1-.11.15,2.27,2.27,0,0,1-1.55.27A1.13,1.13,0,0,1,62.24,202.14Z"/></g></g><g class="cls-17"><g class="cls-17"><path class="cls-3" d="M7,154.61c.3,0,.65-.12.73-.41s-.25-.61-.58-.73c-.64-.25-2.53-.62-2.72.38C4.19,155.09,6.37,154.69,7,154.61Z"/><path class="cls-3" d="M7.17,148.88a1.21,1.21,0,0,0-1.23-.95c-2-.1-2.41.66-2.38.86s.45.48.82.53C6.75,149.66,7.18,149.05,7.17,148.88Z"/><path class="cls-3" d="M13.76,155.51a.54.54,0,0,0-.24.47c0,.59,1.27.6,1.77.39.28-.12.79-.23.66-.65s-1.18-.45-1.7-.37A1.23,1.23,0,0,0,13.76,155.51Z"/><path class="cls-3" d="M17.31,141.81c-.3-1.11-1.92-1-2.47-.88a.92.92,0,0,0-.58.8C14.33,142.76,17.57,142.78,17.31,141.81Z"/><path class="cls-3" d="M21.41,146.14c-.2-.56-2.37-.57-2.92-.14s-.24,1.11.93,1.14S21.78,147.19,21.41,146.14Z"/><path class="cls-3" d="M20.22,160a.54.54,0,0,0,.33-.28c.09-.28-.18-.57-.44-.69s-.28-.14-.87-.11a1.4,1.4,0,0,0-1.09.58.45.45,0,0,0,.16.45,1,1,0,0,0,.43.17A2.76,2.76,0,0,0,20.22,160Z"/><path class="cls-3" d="M14.79,150.92a2.56,2.56,0,0,0-1.86-.45c-1.86.15-.47,1.66,1.35,1.15C14.67,151.52,15,151.27,14.79,150.92Z"/><path class="cls-3" d="M29.42,174a2.56,2.56,0,0,0-1.86-.45c-1.86.15-.47,1.66,1.35,1.16C29.3,174.55,29.64,174.3,29.42,174Z"/><path class="cls-3" d="M29.42,138.74a2.56,2.56,0,0,0-1.86-.45c-1.86.15-.47,1.66,1.35,1.15C29.3,139.34,29.64,139.09,29.42,138.74Z"/><path class="cls-3" d="M8.07,141.28a.75.75,0,0,0,.32-.67c-.11-.82-2.05-.76-2.81-.45a1.48,1.48,0,0,0-.94.93.33.33,0,0,0,0,.24.38.38,0,0,0,.22.15,4.77,4.77,0,0,0,2.46,0A2,2,0,0,0,8.07,141.28Z"/><path class="cls-3" d="M11.93,145a3.23,3.23,0,0,0-1.14.2c-.3.13-.64.43-.52.74a.53.53,0,0,0,.24.25,2,2,0,0,0,1.18.18c.81-.06,1.58-.27,1.57-.8S12.27,145,11.93,145Z"/><path class="cls-3" d="M7.18,160.54c0-1.16,2.49-1.14,2.67-.24C10.11,161.66,7.19,161.4,7.18,160.54Z"/><path class="cls-3" d="M12.35,163.55c.23-.46,1-.53,1.55-.42,1.64.34.66,2.1-1,1.34C12.55,164.3,12.21,164,12.35,163.55Z"/><path class="cls-3" d="M36,147.29c0-.63-2.32-1.27-2.4-.24S36,147.91,36,147.29Z"/><path class="cls-3" d="M23.51,153.55c0-.76-2.88-1.5-2.94-.24S23.53,154.32,23.51,153.55Z"/><path class="cls-3" d="M42.22,154.61c.29,0,.64-.12.73-.41s-.26-.61-.58-.73c-.65-.25-2.54-.62-2.73.38C39.4,155.09,41.58,154.69,42.22,154.61Z"/><path class="cls-3" d="M39.53,158.59c0-.21-.33-.53-.71-.58s-2-.1-2,.62c-.05.4.74.57,1.42.55C38.64,159.16,39.5,159.12,39.53,158.59Z"/><path class="cls-3" d="M34.54,152.89c-.2-.67-1.3-.74-2.06-.72-1.15,0-1.74.32-1.67.79s.84.88,2.54.73C33.89,153.64,34.64,153.49,34.54,152.89Z"/><path class="cls-3" d="M42.38,148.88a1.21,1.21,0,0,0-1.23-.95c-2-.1-2.41.66-2.37.86s.44.48.81.53C42,149.66,42.4,149.05,42.38,148.88Z"/><path class="cls-3" d="M24.08,148.6c-.12.9,3.85,1.36,3.69.14S24.2,147.71,24.08,148.6Z"/><path class="cls-3" d="M31.05,157.22a.78.78,0,0,0-.57-.47,9.23,9.23,0,0,0-3.07.13c-.19.06-.41.18-.41.41s.3.42.55.49a7.08,7.08,0,0,0,2.82.11,1.19,1.19,0,0,0,.49-.17A.49.49,0,0,0,31.05,157.22Z"/><path class="cls-3" d="M36.54,141.92c0-.43-.59-.66-1-.7-1.33-.1-1.17,1.56.32,1.32A.77.77,0,0,0,36.54,141.92Z"/><path class="cls-3" d="M43.28,141.28a.72.72,0,0,0,.32-.67c-.11-.82-2.05-.76-2.81-.45a1.48,1.48,0,0,0-.94.93.33.33,0,0,0,0,.24.42.42,0,0,0,.22.15,4.77,4.77,0,0,0,2.46,0A1.9,1.9,0,0,0,43.28,141.28Z"/><path class="cls-3" d="M31,144.3c1.15-1.06-2.4-1.74-2.45-.27C28.54,144.74,30.56,144.54,31,144.3Z"/><path class="cls-3" d="M24.68,142.08c.81-.4.45-.79,0-1a3.5,3.5,0,0,0-2.23.07c-.23.08-.57.19-.57.51s.43.43.71.55A2.45,2.45,0,0,0,24.68,142.08Z"/><path class="cls-3" d="M32.52,162.54c-.12.9,3.86,1.36,3.69.14S32.64,161.65,32.52,162.54Z"/><path class="cls-3" d="M23.4,162.07c-.5-.94,2.41-1.27,3-.56C27.26,162.58,23.77,162.75,23.4,162.07Z"/><path class="cls-3" d="M19.84,167.72c-.06.25-.33.39-.56.47a9.56,9.56,0,0,1-3.07-.1c-.19-.07-.42-.18-.42-.41s.3-.43.55-.49a6.74,6.74,0,0,1,2.82-.13,1,1,0,0,1,.49.16A.47.47,0,0,1,19.84,167.72Z"/><path class="cls-3" d="M7.36,169a1.33,1.33,0,0,1,1-.45c.37,0,1.77.19,1.42.89-.19.38-1,.43-1.56.32C7.79,169.71,7.08,169.54,7.36,169Z"/><path class="cls-3" d="M15.27,173.66c0-.76-2.86-1.55-2.95-.29S15.27,174.43,15.27,173.66Z"/><path class="cls-3" d="M23.46,170.56a.86.86,0,0,1,.5.66c.11.94-1.82,1.27-2.65,1.08-.47-.1-1.28-.15-1.19-.82s1.7-1,2.55-1A1.79,1.79,0,0,1,23.46,170.56Z"/><path class="cls-3" d="M39.92,166.41c0,.27-.28.44-.53.53a5.84,5.84,0,0,1-1.62.14A3.66,3.66,0,0,1,37,167a.75.75,0,0,1-.53-.28.51.51,0,0,1,.18-.65,1.39,1.39,0,0,1,.72-.2,8.63,8.63,0,0,1,1.9.06C39.53,166,39.91,166.11,39.92,166.41Z"/><path class="cls-3" d="M32.81,169.43c.26,0,.56.1.62.38s-.25.62-.54.75c-.57.27-2.24.72-2.36-.26C30.38,169.08,32.26,169.38,32.81,169.43Z"/><path class="cls-3" d="M34.72,173.15a1.07,1.07,0,0,1,1-.92c1.52-.12,1.78.61,1.74.8a.76.76,0,0,1-.64.52C35,173.9,34.7,173.32,34.72,173.15Z"/><path class="cls-3" d="M27,166.93a.76.76,0,0,1-.34-.53c-.11-.72,1.14-.85,1.69-.66a1.33,1.33,0,0,1,.8.7.48.48,0,0,1,0,.2.24.24,0,0,1-.11.16,2.3,2.3,0,0,1-1.56.26A1.11,1.11,0,0,1,27,166.93Z"/></g></g><g class="cls-18"><g class="cls-18"><path class="cls-3" d="M7,189.82c.3,0,.65-.12.73-.41s-.25-.61-.58-.73c-.64-.24-2.53-.61-2.72.38C4.19,190.3,6.37,189.9,7,189.82Z"/><path class="cls-3" d="M7.17,184.1a1.21,1.21,0,0,0-1.23-1c-2-.1-2.41.66-2.38.86s.45.48.82.53C6.75,184.87,7.18,184.27,7.17,184.1Z"/><path class="cls-3" d="M13.76,190.72a.54.54,0,0,0-.24.47c0,.6,1.27.6,1.77.39.28-.12.79-.23.66-.64s-1.18-.46-1.7-.37A1.08,1.08,0,0,0,13.76,190.72Z"/><path class="cls-3" d="M17.31,177c-.3-1.12-1.92-1-2.47-.88a.91.91,0,0,0-.58.79C14.33,178,17.57,178,17.31,177Z"/><path class="cls-3" d="M21.41,181.35c-.2-.55-2.37-.56-2.92-.14s-.24,1.12.93,1.14S21.78,182.41,21.41,181.35Z"/><path class="cls-3" d="M20.22,195.25a.51.51,0,0,0,.33-.28c.09-.27-.18-.57-.44-.69s-.28-.14-.87-.1a1.37,1.37,0,0,0-1.09.57.44.44,0,0,0,.16.45.85.85,0,0,0,.43.17A2.76,2.76,0,0,0,20.22,195.25Z"/><path class="cls-3" d="M14.79,186.13a2.56,2.56,0,0,0-1.86-.45c-1.86.15-.47,1.66,1.35,1.15C14.67,186.73,15,186.48,14.79,186.13Z"/><path class="cls-3" d="M29.42,209.16a2.6,2.6,0,0,0-1.86-.45c-1.86.16-.47,1.66,1.35,1.16C29.3,209.76,29.64,209.52,29.42,209.16Z"/><path class="cls-3" d="M29.42,174a2.56,2.56,0,0,0-1.86-.45c-1.86.15-.47,1.66,1.35,1.16C29.3,174.55,29.64,174.3,29.42,174Z"/><path class="cls-3" d="M8.07,176.49a.72.72,0,0,0,.32-.66c-.11-.83-2.05-.77-2.81-.46a1.48,1.48,0,0,0-.94.93.33.33,0,0,0,0,.24.45.45,0,0,0,.22.16,4.77,4.77,0,0,0,2.46,0A1.79,1.79,0,0,0,8.07,176.49Z"/><path class="cls-3" d="M11.93,180.25a3,3,0,0,0-1.14.21c-.3.12-.64.43-.52.73a.53.53,0,0,0,.24.25,1.91,1.91,0,0,0,1.18.18c.81-.05,1.58-.26,1.57-.8S12.27,180.24,11.93,180.25Z"/><path class="cls-3" d="M7.18,195.76c0-1.16,2.49-1.15,2.67-.25C10.11,196.88,7.19,196.61,7.18,195.76Z"/><path class="cls-3" d="M12.35,198.77c.23-.46,1-.53,1.55-.42,1.64.33.66,2.09-1,1.33C12.55,199.52,12.21,199.18,12.35,198.77Z"/><path class="cls-3" d="M36,182.5c0-.63-2.32-1.27-2.4-.24S36,183.12,36,182.5Z"/><path class="cls-3" d="M23.51,188.77c0-.77-2.88-1.5-2.94-.25S23.53,189.53,23.51,188.77Z"/><path class="cls-3" d="M42.22,189.82c.29,0,.64-.12.73-.41s-.26-.61-.58-.73c-.65-.24-2.54-.61-2.73.38C39.4,190.3,41.58,189.9,42.22,189.82Z"/><path class="cls-3" d="M39.53,193.8c0-.21-.33-.53-.71-.58s-2-.09-2,.63c-.05.39.74.56,1.42.54C38.64,194.38,39.5,194.33,39.53,193.8Z"/><path class="cls-3" d="M34.54,188.11c-.2-.68-1.3-.74-2.06-.73-1.15,0-1.74.33-1.67.79s.84.89,2.54.73C33.89,188.85,34.64,188.71,34.54,188.11Z"/><path class="cls-3" d="M42.38,184.1a1.21,1.21,0,0,0-1.23-1c-2-.1-2.41.66-2.37.86s.44.48.81.53C42,184.87,42.4,184.27,42.38,184.1Z"/><path class="cls-3" d="M24.08,183.82c-.12.9,3.85,1.35,3.69.14S24.2,182.92,24.08,183.82Z"/><path class="cls-3" d="M31.05,192.43a.82.82,0,0,0-.57-.47,9.79,9.79,0,0,0-3.07.13c-.19.07-.41.18-.41.41s.3.42.55.49a6.9,6.9,0,0,0,2.82.11,1.07,1.07,0,0,0,.49-.17A.49.49,0,0,0,31.05,192.43Z"/><path class="cls-3" d="M36.54,177.13c0-.42-.59-.66-1-.69-1.33-.11-1.17,1.56.32,1.31A.77.77,0,0,0,36.54,177.13Z"/><path class="cls-3" d="M43.28,176.49a.7.7,0,0,0,.32-.66c-.11-.83-2.05-.77-2.81-.46a1.48,1.48,0,0,0-.94.93.33.33,0,0,0,0,.24.5.5,0,0,0,.22.16,4.77,4.77,0,0,0,2.46,0A1.75,1.75,0,0,0,43.28,176.49Z"/><path class="cls-3" d="M31,179.51c1.15-1-2.4-1.74-2.45-.27C28.54,180,30.56,179.76,31,179.51Z"/><path class="cls-3" d="M24.68,177.3c.81-.41.45-.8,0-1a3.37,3.37,0,0,0-2.23.07c-.23.07-.57.18-.57.5s.43.43.71.55A2.48,2.48,0,0,0,24.68,177.3Z"/><path class="cls-3" d="M32.52,197.76c-.12.9,3.86,1.35,3.69.14S32.64,196.86,32.52,197.76Z"/><path class="cls-3" d="M23.4,197.28c-.5-.94,2.41-1.26,3-.55C27.26,197.79,23.77,198,23.4,197.28Z"/><path class="cls-3" d="M19.84,202.93a.75.75,0,0,1-.56.47,9.28,9.28,0,0,1-3.07-.1c-.19-.07-.42-.18-.42-.41s.3-.43.55-.49a6.74,6.74,0,0,1,2.82-.13,1.05,1.05,0,0,1,.49.16A.48.48,0,0,1,19.84,202.93Z"/><path class="cls-3" d="M7.36,204.24a1.33,1.33,0,0,1,1-.45c.37,0,1.77.19,1.42.89-.19.38-1,.44-1.56.32C7.79,204.92,7.08,204.76,7.36,204.24Z"/><path class="cls-3" d="M15.27,208.88c0-.77-2.86-1.56-2.95-.3S15.27,209.64,15.27,208.88Z"/><path class="cls-3" d="M23.46,205.77a.87.87,0,0,1,.5.67c.11.93-1.82,1.26-2.65,1.08-.47-.11-1.28-.15-1.19-.83s1.7-1,2.55-1A1.94,1.94,0,0,1,23.46,205.77Z"/><path class="cls-3" d="M39.92,201.63c0,.26-.28.44-.53.52a5.46,5.46,0,0,1-1.62.14,3.66,3.66,0,0,1-.81-.09.78.78,0,0,1-.53-.27.53.53,0,0,1,.18-.66,1.39,1.39,0,0,1,.72-.2,8.64,8.64,0,0,1,1.9.07C39.53,201.18,39.91,201.32,39.92,201.63Z"/><path class="cls-3" d="M32.81,204.65c.26,0,.56.09.62.37s-.25.62-.54.75c-.57.27-2.24.72-2.36-.26C30.38,204.29,32.26,204.59,32.81,204.65Z"/><path class="cls-3" d="M34.72,208.37a1.07,1.07,0,0,1,1-.93c1.52-.11,1.78.61,1.74.81a.77.77,0,0,1-.64.52C35,209.11,34.7,208.53,34.72,208.37Z"/><path class="cls-3" d="M27,202.14a.76.76,0,0,1-.34-.53c-.11-.71,1.14-.85,1.69-.66a1.33,1.33,0,0,1,.8.7.52.52,0,0,1,0,.21.24.24,0,0,1-.11.15,2.31,2.31,0,0,1-1.56.27A1.13,1.13,0,0,1,27,202.14Z"/></g></g></g><path class="cls-7" d="M76.66,42.94a21.08,21.08,0,0,0-9.92,17.79c-.17,10.54.65,21.2,19.65,33.33,10.45,6.68,12.13,9.32,12.77,11.89s-1.78,6.74-1.35,8,14.78,2,26.46-13.15,15.06-30.11,13.39-42.47c-1.45-10.75-6.67-20.46-12.57-23.71C119.67,31.61,80.72,40.34,76.66,42.94Z"/><path class="cls-3" d="M110.45,104.52a.69.69,0,0,1,.1-.71,4.42,4.42,0,0,1,1.08-1.12c.38-.29,1-.72,1.57-.53s.5.8.14,1.21a2.8,2.8,0,0,1-.56.45,7.44,7.44,0,0,1-.89.51C111.26,104.63,110.63,104.79,110.45,104.52Z"/><path class="cls-3" d="M116.37,99.55a.5.5,0,0,1,0-.51,3.2,3.2,0,0,1,.71-.88c.26-.23.71-.58,1.1-.49s.4.53.16.85S116.66,99.92,116.37,99.55Z"/><path class="cls-3" d="M105.61,106.93a7.44,7.44,0,0,1,.93-.75c.42-.28,1.21-.64,1.44.06.14.42-.13.64-.48.81a11.69,11.69,0,0,1-1.42.57C105.44,107.86,105,107.46,105.61,106.93Z"/><path class="cls-3" d="M124.75,91.17a.67.67,0,0,1-.1-.71,4.11,4.11,0,0,1,.69-1.37c.27-.39.76-1,1.32-1s.74.61.52,1.11S125.26,91.62,124.75,91.17Z"/><path class="cls-3" d="M128.72,84.57a.49.49,0,0,1-.16-.48,3.47,3.47,0,0,1,.3-1.09c.15-.31.42-.81.82-.87s.58.33.48.72a4.71,4.71,0,0,1-.59,1.11C129.28,84.37,128.92,84.68,128.72,84.57Z"/><path class="cls-3" d="M120.71,94.74a7.24,7.24,0,0,1,.71-.94c.33-.39,1-.92,1.41-.31.25.37,0,.65-.26.91a10.06,10.06,0,0,1-1.24.9c-.28.2-.54.22-.68.12S120.5,95.08,120.71,94.74Z"/><path class="cls-3" d="M133,73.52a.68.68,0,0,1-.4-.59,5.3,5.3,0,0,1,0-1.54c.07-.46.26-1.21.76-1.46s.94.21.95.77a2.8,2.8,0,0,1-.09.71,5,5,0,0,1-.12.49l-.08.26c0,.08-.06.16-.1.25C133.62,73.06,133.27,73.61,133,73.52Z"/><path class="cls-3" d="M133.9,65.39c-.18,0-.29-.21-.34-.37a3.37,3.37,0,0,1-.12-.55,2.54,2.54,0,0,1,0-.55,2.29,2.29,0,0,1,.07-.61.8.8,0,0,1,.29-.52c.36-.26.66,0,.76.44a4.77,4.77,0,0,1-.09,1.26C134.32,65,134.13,65.42,133.9,65.39Z"/><path class="cls-3" d="M130.8,78.46a6.47,6.47,0,0,1,.25-1.16c.15-.48.54-1.24,1.17-.86.38.24.29.57.13.93a13.5,13.5,0,0,1-.75,1.34c-.17.3-.41.42-.58.38a.27.27,0,0,1-.2-.19A1,1,0,0,1,130.8,78.46Z"/><path class="cls-3" d="M111.26,97.49a.48.48,0,0,1-.06-.55,3,3,0,0,1,.64-1c.25-.29.7-.73,1.16-.69s.56.52.35.9S111.66,97.84,111.26,97.49Z"/><path class="cls-3" d="M115.7,92.15a.49.49,0,0,1-.07-.51,3.21,3.21,0,0,1,.53-1c.2-.28.59-.71,1-.7s.5.46.32.81S116.06,92.45,115.7,92.15Z"/><path class="cls-3" d="M107.62,101.56a5.7,5.7,0,0,1,.54-.75c.26-.31.79-.74,1.12-.27.2.29,0,.5-.19.71a11.38,11.38,0,0,1-1,.73C107.7,102.29,107.3,102.09,107.62,101.56Z"/><path class="cls-3" d="M124.24,80.1a.63.63,0,0,1-.18-.62,4.58,4.58,0,0,1,.36-1.41c.16-.41.48-1.06.93-1.18s.69.39.59.9a5.6,5.6,0,0,1-.7,1.48q-.13.21-.27.39a2.6,2.6,0,0,1-.28.29C124.52,80.11,124.36,80.17,124.24,80.1Z"/><path class="cls-3" d="M121.05,75.31a.48.48,0,0,1-.27-.44,3.31,3.31,0,0,1,.09-1.13c.08-.33.25-.88.62-1s.63.22.62.61S121.49,75.45,121.05,75.31Z"/><path class="cls-3" d="M119.8,86.06a8.72,8.72,0,0,1,.51-1.07c.26-.43.77-1.09,1.31-.59.32.3.18.63-.06.94a4.51,4.51,0,0,1-.49.59l-.54.55C120.05,87,119.51,86.78,119.8,86.06Z"/><path class="cls-3" d="M73.11,70.38c.25-.07.35-.36.39-.6a4,4,0,0,0,0-.77,4.78,4.78,0,0,0-.09-.76,3.24,3.24,0,0,0-.24-.82,1.17,1.17,0,0,0-.54-.63c-.58-.27-.93.23-1,.78a5.39,5.39,0,0,0,.43,1.7,3.72,3.72,0,0,0,.46.83C72.78,70.32,73,70.43,73.11,70.38Z"/><path class="cls-3" d="M72.2,62.72c.18,0,.28-.22.33-.39a3.24,3.24,0,0,0,.12-1.12c0-.34-.1-.91-.43-1.12s-.67.1-.72.49S71.73,62.78,72.2,62.72Z"/><path class="cls-3" d="M75.57,75.08A9.58,9.58,0,0,0,75.18,74a2.2,2.2,0,0,0-.45-.7.54.54,0,0,0-.76,0c-.36.25-.27.6-.07.94a3.49,3.49,0,0,0,.43.65l.24.31.25.29a.93.93,0,0,0,.34.26.35.35,0,0,0,.3,0C75.62,75.65,75.68,75.44,75.57,75.08Z"/><path class="cls-3" d="M84.68,83.8a.68.68,0,0,0-.14-.7,4.25,4.25,0,0,0-1.15-1c-.41-.26-1.1-.64-1.61-.42s-.44.84,0,1.23S84.36,84.38,84.68,83.8Z"/><path class="cls-3" d="M79.28,79.94a.5.5,0,0,0,0-.51,3.61,3.61,0,0,0-.71-.85,3.33,3.33,0,0,0-.48-.36.87.87,0,0,0-.58-.13c-.44.08-.43.51-.2.84a3.6,3.6,0,0,0,1,.8C78.69,80,79.14,80.13,79.28,79.94Z"/><path class="cls-3" d="M89.62,85.86a6.81,6.81,0,0,0-.94-.74c-.43-.29-1.24-.62-1.45.09-.13.42.15.62.5.8s1,.37,1.42.55C89.79,86.8,90.21,86.41,89.62,85.86Z"/><path class="cls-3" d="M98.27,95.15c.22-.13.23-.44.19-.69A3.85,3.85,0,0,0,97.89,93a3.91,3.91,0,0,0-.54-.68,1.21,1.21,0,0,0-.77-.37c-.63,0-.73.61-.54,1.1a6.48,6.48,0,0,0,1,1.38C97.49,94.92,98,95.33,98.27,95.15Z"/><path class="cls-3" d="M93.93,90a.46.46,0,0,0-.06-.51,2.88,2.88,0,0,0-.79-.84c-.28-.22-.78-.53-1.16-.39s-.32.58-.06.87a4.62,4.62,0,0,0,1,.68C93.35,90,93.8,90.14,93.93,90Z"/><path class="cls-3" d="M101.44,99.58a6.63,6.63,0,0,0-.43-1.12c-.23-.47-.76-1.17-1.3-.66-.32.3-.19.61,0,.94s.63.81.94,1.2S101.66,100.35,101.44,99.58Z"/><path class="cls-3" d="M102.29,109.82a7.93,7.93,0,0,0,.55-1c.2-.46.39-1.26-.28-1.21-.4,0-.54.33-.65.68s-.21.94-.31,1.39C101.47,110.26,101.87,110.49,102.29,109.82Z"/><path class="cls-3" d="M93.32,77.61a.71.71,0,0,0,.06-.72,4.3,4.3,0,0,0-.88-1.32c-.35-.34-1-.88-1.51-.75s-.57.75-.28,1.2A6.47,6.47,0,0,0,92,77.14a4.34,4.34,0,0,0,.8.47C93,77.71,93.2,77.73,93.32,77.61Z"/><path class="cls-3" d="M103.51,103.85a.51.51,0,0,0,.62-.13,3.75,3.75,0,0,0,.79-1.26,2.34,2.34,0,0,0,.11-1.77c-.33-.6-.81-.4-1.08,0a7.26,7.26,0,0,0-.5,1.6,4.33,4.33,0,0,0-.12,1A.73.73,0,0,0,103.51,103.85Z"/><path class="cls-3" d="M86.67,72.2c.16-.1.16-.32.13-.5a3,3,0,0,0-.44-1.07,2.92,2.92,0,0,0-.4-.5.85.85,0,0,0-.56-.27c-.45,0-.51.44-.35.79a4.78,4.78,0,0,0,.73,1C86.12,72,86.48,72.32,86.67,72.2Z"/><path class="cls-3" d="M93.94,84.75a.51.51,0,0,0,0-.52,3.13,3.13,0,0,0-.65-1,2.59,2.59,0,0,0-.49-.41.86.86,0,0,0-.6-.15c-.44.09-.41.53-.19.85a4.43,4.43,0,0,0,.92.83C93.37,84.68,93.78,84.91,93.94,84.75Z"/><path class="cls-3" d="M100.59,89.93a.67.67,0,0,0,.22-.68,3.92,3.92,0,0,0-.49-1.48c-.22-.43-.66-1.1-1.22-1.14s-.78.53-.62,1.05a5.9,5.9,0,0,0,.9,1.45C99.82,89.67,100.3,90.1,100.59,89.93Z"/><path class="cls-3" d="M97.5,83.63a.5.5,0,0,0,.16-.49,3,3,0,0,0-.33-1.09c-.15-.32-.46-.81-.85-.86s-.56.36-.46.74S97.09,83.85,97.5,83.63Z"/><path class="cls-3" d="M104,95.3a7.29,7.29,0,0,0-.39-1.14c-.21-.47-.7-1.18-1.22-.69-.31.3-.19.62,0,1s.59.83.87,1.22C103.69,96.18,104.22,96.07,104,95.3Z"/><path class="cls-3" d="M109.12,85.54a.69.69,0,0,0,.69-.2,3.25,3.25,0,0,0,.53-.59,4,4,0,0,0,.41-.69c.21-.45.48-1.22.17-1.68s-.9-.28-1.21.15a4.06,4.06,0,0,0-.31.63,9.42,9.42,0,0,0-.31.94C108.91,84.76,108.82,85.39,109.12,85.54Z"/><path class="cls-3" d="M112.34,78.49c.18.05.35-.1.46-.24a3.15,3.15,0,0,0,.49-1c.09-.35.19-.93-.08-1.22s-.66-.09-.83.27a5,5,0,0,0-.24,1.22C112.1,78,112.12,78.43,112.34,78.49Z"/><path class="cls-3" d="M107.32,90.58a11.13,11.13,0,0,0,.57-1c.21-.44.48-1.25-.24-1.42-.44-.09-.62.2-.76.58a8.57,8.57,0,0,0-.34,1.5c-.06.34,0,.59.19.67S107.11,90.9,107.32,90.58Z"/><path class="cls-3" d="M101.39,79.9c.26,0,.39-.31.45-.56a3.6,3.6,0,0,0,0-1.6c-.09-.49-.34-1.27-.87-1.45s-.89.34-.88.86a7.52,7.52,0,0,0,.44,1.61C100.77,79.38,101.07,80,101.39,79.9Z"/><path class="cls-3" d="M100.51,72.26c.16-.07.2-.28.2-.47a3.07,3.07,0,0,0-.24-1.11c-.12-.32-.38-.84-.77-.93s-.59.31-.52.7S100.08,72.45,100.51,72.26Z"/><path class="cls-3" d="M125,68.79a.5.5,0,0,0,.48-.19,3.12,3.12,0,0,0,.62-.95c.14-.33.33-.87.12-1.21s-.64-.2-.87.13S124.56,68.62,125,68.79Z"/><path class="cls-3" d="M130.62,61.23c.21.05.41-.12.54-.29a3.86,3.86,0,0,0,.58-1.21c.11-.4.25-1.07-.05-1.44s-.78-.14-1,.28S130.09,61.1,130.62,61.23Z"/><path class="cls-3" d="M103.51,85.72a6.85,6.85,0,0,0,.08-1.2c0-.51-.17-1.37-.88-1.15-.43.13-.44.47-.39.86s.23,1,.34,1.49C102.83,86.38,103.38,86.51,103.51,85.72Z"/><path class="cls-3" d="M107.7,75.39c.26,0,.45-.21.57-.43a4,4,0,0,0,.43-1.5,2,2,0,0,0-.34-1.63c-.49-.4-1,0-1.12.51S107,75.35,107.7,75.39Z"/><path class="cls-3" d="M128.15,72.78c.16.06.35-.13.48-.32a5.61,5.61,0,0,0,.69-1.36,2.77,2.77,0,0,0,.21-1.63c-.21-.48-.62-.19-.86.28S127.73,72.62,128.15,72.78Z"/><path class="cls-3" d="M117.27,73a.48.48,0,0,0,.45-.25,3,3,0,0,0,.48-1,1.5,1.5,0,0,0,0-1.21c-.29-.34-.66-.11-.84.25S116.82,72.9,117.27,73Z"/><path class="cls-3" d="M107,81.92a6.6,6.6,0,0,0,.26-1.17c.07-.51,0-1.38-.7-1.27-.45.07-.51.41-.51.8a13,13,0,0,0,.12,1.52C106.22,82.48,106.75,82.68,107,81.92Z"/><path class="cls-3" d="M82.64,76.22a.69.69,0,0,0,.07-.71,4.05,4.05,0,0,0-.8-1.34c-.31-.37-.88-.93-1.43-.86s-.65.69-.39,1.16S82.15,76.67,82.64,76.22Z"/><path class="cls-3" d="M78,70.06c.17-.07.21-.28.22-.46A3.1,3.1,0,0,0,78,68.48c-.12-.33-.36-.85-.75-1s-.6.3-.53.69S77.57,70.25,78,70.06Z"/><path class="cls-3" d="M88.13,79.92a7.54,7.54,0,0,0-.68-1c-.33-.4-1-1-1.41-.35-.25.36-.05.64.23.91a13.91,13.91,0,0,0,1.2,1C88,80.86,88.52,80.61,88.13,79.92Z"/><path class="cls-3" d="M111.67,89.91a.68.68,0,0,0,.71-.14,4.12,4.12,0,0,0,1.05-1.15c.26-.4.63-1.11.41-1.61s-.85-.43-1.23,0S111.1,89.58,111.67,89.91Z"/><path class="cls-3" d="M107.53,95.83a.49.49,0,0,0,.5-.09,3.08,3.08,0,0,0,.8-.81c.2-.29.49-.79.35-1.16s-.58-.32-.87,0S107.13,95.58,107.53,95.83Z"/><path class="cls-3" d="M117.22,82.25a7.48,7.48,0,0,0,.81-.88c.32-.41.73-1.18,0-1.45-.41-.17-.63.09-.84.42s-.46.93-.67,1.37C116.27,82.33,116.62,82.78,117.22,82.25Z"/><path class="cls-19" d="M136.91,47.4c.09-.28.36-1.51-2-2a10.21,10.21,0,0,0-6.4,1.11c-.42.31-.54.49-.48.66s1.85,1.3,5.36,1.47C136.36,48.75,136.82,47.69,136.91,47.4Z"/><path class="cls-20" d="M128.15,47a9.33,9.33,0,0,1,2.9-.62c1.09,0,2.11.16,2.15.58s-1.6.6-2.44.57S128.17,47.21,128.15,47Z"/><path class="cls-19" d="M67.87,47.4c-.09-.28-.36-1.51,2-2a10.21,10.21,0,0,1,6.4,1.11c.42.31.54.49.48.66S75,48.43,71.44,48.6C68.42,48.75,68,47.69,67.87,47.4Z"/><path class="cls-20" d="M76.63,47a9.33,9.33,0,0,0-2.9-.62c-1.09,0-2.11.16-2.15.58s1.6.6,2.44.57S76.61,47.21,76.63,47Z"/><path class="cls-19" d="M128.18,50.09c0,13.33-13.26,11.68-27.5,11.68S76.6,63.42,76.6,50.09s11.55-24.15,25.79-24.15S128.18,36.75,128.18,50.09Z"/><path class="cls-20" d="M121.13,42.52a.35.35,0,0,0-.5,0c-.78.79-1.64,1.65-2.2,2.15.13-.6.35-1.5.57-2.29a.35.35,0,0,0-.68-.19c-.31,1.16-.5,1.91-.6,2.41a5.66,5.66,0,0,0-4-1.71,4.59,4.59,0,0,0-4.6,3.65.44.44,0,0,0,.35.52h.08a.46.46,0,0,0,.44-.35,3.65,3.65,0,0,1,3.56-2.95h.14a4.73,4.73,0,0,1,4.25,2.58.43.43,0,0,0,.57.23.43.43,0,0,0,.24-.57s-.09-.2-.24-.45A32.37,32.37,0,0,0,121.14,43,.36.36,0,0,0,121.13,42.52Z"/><path class="cls-20" d="M83.65,42.52a.35.35,0,0,1,.5,0c.78.79,1.64,1.65,2.2,2.15-.13-.6-.35-1.5-.57-2.29a.35.35,0,0,1,.68-.19c.31,1.16.5,1.91.6,2.41a5.66,5.66,0,0,1,4-1.71,4.59,4.59,0,0,1,4.6,3.65.44.44,0,0,1-.35.52h-.08a.44.44,0,0,1-.43-.35,3.68,3.68,0,0,0-3.57-2.95h-.14a4.73,4.73,0,0,0-4.25,2.58.43.43,0,0,1-.57.23.43.43,0,0,1-.24-.57s.09-.2.24-.45A32.37,32.37,0,0,1,83.64,43,.36.36,0,0,1,83.65,42.52Z"/><path class="cls-20" d="M115.43,51.25c0,.33.67.43,1-.15S115.32,50.56,115.43,51.25Z"/><path class="cls-20" d="M118.2,50.28c-.15.57.54,1.21,1.06.55S118.36,49.71,118.2,50.28Z"/><path class="cls-20" d="M120,53.06c-.18-.66-.92-.3-.92.15S120.17,53.73,120,53.06Z"/><path class="cls-20" d="M117,53.22a.46.46,0,0,0,.47-.78C116.9,52,116.34,52.75,117,53.22Z"/><path class="cls-20" d="M120.48,51.28a.42.42,0,0,0,.81-.23C121.22,50.41,120.36,50.57,120.48,51.28Z"/><path class="cls-20" d="M89.35,51.25c0,.33-.67.43-1-.15S89.46,50.56,89.35,51.25Z"/><path class="cls-20" d="M86.58,50.28c.15.57-.54,1.21-1.06.55S86.42,49.71,86.58,50.28Z"/><path class="cls-20" d="M84.79,53.06c.17-.66.91-.3.91.15S84.61,53.73,84.79,53.06Z"/><path class="cls-20" d="M87.82,53.22a.46.46,0,0,1-.47-.78C87.88,52,88.44,52.75,87.82,53.22Z"/><path class="cls-20" d="M84.3,51.28a.42.42,0,0,1-.81-.23C83.56,50.41,84.42,50.57,84.3,51.28Z"/><path class="cls-2" d="M104.78,64.54a2.75,2.75,0,1,1-2.74-3A2.85,2.85,0,0,1,104.78,64.54Z"/><path class="cls-21" d="M102.4,62c-.28-2.18.55-4.55,4.2-5.19s11.23,3,15.88,1.53,6.64-5.55,7.3-5.13-3,12.68-11.8,14.5C109.07,69.53,103,66.58,102.4,62Z"/><path class="cls-7" d="M102.23,61.23c-.28-2.19.55-4.56,4.19-5.19s11.24,3,15.88,1.53,6.64-5.55,7.3-5.14-3,12.68-11.8,14.5S102.82,65.83,102.23,61.23Z"/><path class="cls-3" d="M104.1,61.33a.18.18,0,0,0,.2.14,1.36,1.36,0,0,1,1.13.4,5.16,5.16,0,0,1,.67.78l.2.27a9.12,9.12,0,0,0,7.58,3.38c.18,0,.35,0,.52-.06a17,17,0,0,0,12.43-8l.47-.67h0c.39-.5.77-1,1.15-1.61a37110778851.23,37110778851.23,0,0,0,0-.06s0,0,0,0a0,0,0,0,0,0,0,36903069268.87,36903069268.87,0,0,0,0-.06l0,0,0,0h0l0,0h-.13l0,0,0,0,0,0a13,13,0,0,1-4,3.41c-3.58,1.79-7.32,1.93-10.24.39l-.56-.31c-1.49-.85-4.59-2.62-6.88-1.87a3.32,3.32,0,0,0-2.31,2.33A7.05,7.05,0,0,0,104.1,61.33Zm20.27-1.85A11.34,11.34,0,0,0,126.49,58a16.44,16.44,0,0,1-3.12,2.94,9.39,9.39,0,0,1-2,1.11,13.25,13.25,0,0,1-10-.7l-.77-.43a7.91,7.91,0,0,0-3.44-1.32,4,4,0,0,0-2.82,1.17,3.1,3.1,0,0,1,2.21-3.06c2.14-.7,5.15,1,6.6,1.83l.57.32a10,10,0,0,0,5.4,1.08A13.74,13.74,0,0,0,124.37,59.48ZM107.22,60a7.72,7.72,0,0,1,3.3,1.27l.77.44a13.15,13.15,0,0,0,7,1.36,11.11,11.11,0,0,0,3.22-.65,7.63,7.63,0,0,0,1.21-.61,15.64,15.64,0,0,1-6.08,2.43h0a7.94,7.94,0,0,1-6.07-1l-.93-.61c-2-1.28-3.27-2.14-5-1.57A3.62,3.62,0,0,1,107.22,60Zm-2.08,1.31c1.38-.3,2.54.46,4.32,1.63l.93.6a7.9,7.9,0,0,0,5,1.23,11.2,11.2,0,0,0,1.37-.18h0a15.93,15.93,0,0,0,7-3.07,15.91,15.91,0,0,1-9.4,4.43,8.67,8.67,0,0,1-7.77-3.19l-.2-.26a5.17,5.17,0,0,0-.72-.84A2.11,2.11,0,0,0,105.14,61.26Z"/><path class="cls-21" d="M102,62c.28-2.18-.55-4.55-4.19-5.19s-11.24,3-15.88,1.53-6.64-5.55-7.3-5.13,3,12.68,11.8,14.5S101.4,66.58,102,62Z"/><path class="cls-7" d="M102.16,61.23c.28-2.19-.55-4.56-4.19-5.19s-11.24,3-15.88,1.53-6.64-5.55-7.3-5.14,3,12.68,11.8,14.5C95.5,68.78,101.57,65.83,102.16,61.23Z"/><path class="cls-3" d="M100.18,59.7a3.36,3.36,0,0,0-2.32-2.33c-2.29-.75-5.39,1-6.88,1.87l-.56.31c-2.92,1.54-6.65,1.4-10.24-.39a12.84,12.84,0,0,1-3.94-3.41l0,0s0,0,0,0l0,0H76l0,0h0s0,0,0,0l0,0s0,0,0,0v.1s0,0,0,0,0,0,0,0c.38.57.76,1.11,1.15,1.61h0l.47.67a17,17,0,0,0,12.43,8c.17,0,.35,0,.52.06a9.11,9.11,0,0,0,7.58-3.38l.2-.27a5.16,5.16,0,0,1,.67-.78,1.36,1.36,0,0,1,1.13-.4.17.17,0,0,0,.2-.14A7.45,7.45,0,0,0,100.18,59.7Zm-15,1.24a10,10,0,0,0,5.41-1.08l.57-.32c1.44-.82,4.45-2.53,6.59-1.83A3.09,3.09,0,0,1,100,60.77a4,4,0,0,0-2.82-1.17,8,8,0,0,0-3.44,1.32l-.77.43a13.25,13.25,0,0,1-10,.7,9.39,9.39,0,0,1-2-1.11A16.74,16.74,0,0,1,77.9,58,11.34,11.34,0,0,0,80,59.48,13.74,13.74,0,0,0,85.18,60.94ZM99.72,61c-1.71-.57-3,.29-5,1.57l-.93.61a7.94,7.94,0,0,1-6.07,1h0a15.64,15.64,0,0,1-6.08-2.43,7.63,7.63,0,0,0,1.21.61,11.18,11.18,0,0,0,3.22.65,13.15,13.15,0,0,0,7-1.36l.77-.44A7.77,7.77,0,0,1,97.17,60,3.6,3.6,0,0,1,99.72,61Zm-1,.58a5.71,5.71,0,0,0-.72.84c-.06.09-.13.17-.2.26A8.67,8.67,0,0,1,90,65.89a15.94,15.94,0,0,1-9.4-4.43,15.93,15.93,0,0,0,7,3.07h0a11.46,11.46,0,0,0,1.37.18,7.88,7.88,0,0,0,5-1.23l.94-.6c1.78-1.17,2.93-1.93,4.31-1.63A2.32,2.32,0,0,0,98.73,61.6Z"/><path class="cls-20" d="M102.48,43.61c.22,0,.56,2.59,1,5.14s1,4,.84,5.68c-.08,1.32-1,2.52-2.09,2.44s-2.13-1.14-1.72-3.54c.14-.85.63-2.87,1-4.88C102,46,102.24,43.6,102.48,43.61Z"/><path class="cls-5" d="M125.58,13.57C123.75,9.93,119.6-.09,94,0,69,.09,53.21,18.52,46.9,23.79,41.6,28.22,42.11,30.7,31.46,33s-7.82,3.27-7.82,3.27c1.15,4.32,15,11.16,28.82,8.16S68.58,23.31,75.3,26c2.87,1.14.08,9.46.08,9.46s17.78-2.53,25.92,0,27.23-5.94,27.23-5.94S127.4,17.21,125.58,13.57Z"/><path class="cls-2" d="M123.3,16.33c-.79-1.14-1.82-.09-1.79.94s.55,2.64,1.5,2.95a.64.64,0,0,0,.63-.09.82.82,0,0,0,.19-.37A4.09,4.09,0,0,0,123.3,16.33Z"/><path class="cls-2" d="M118.59,10.67c-.9.07-.46.58-.07.93s.76.85,1.14,1.28a1.64,1.64,0,0,0,1.17.69.29.29,0,0,0,.18-.05.34.34,0,0,0,.11-.25,2.37,2.37,0,0,0-2.53-2.6Z"/><path class="cls-2" d="M116,9.17c.83-.62-.24-1.94-.84-2.26s-2.41-.63-2.75.13c-.27.59.77,1,1.17,1.27C114.1,8.63,115.32,9.65,116,9.17Z"/><path class="cls-2" d="M108.75,6a.69.69,0,0,0,.58-.35A.79.79,0,0,0,109,4.7a2.54,2.54,0,0,0-1-.37,4.94,4.94,0,0,0-3,.08.31.31,0,0,0,0,.46,1,1,0,0,0,.47.21c.37.1,1.88.6,2.49.78A1.87,1.87,0,0,0,108.75,6Z"/><path class="cls-2" d="M110.83,7.51a2.27,2.27,0,0,0-1.21-.7,1,1,0,0,0-1.09.68.51.51,0,0,0,0,.3.8.8,0,0,0,.34.29c.33.17,1,.51,1.37.75s1,.5,1.28.3S111.28,7.94,110.83,7.51Z"/><path class="cls-2" d="M115.31,10.63c-.51-.35-1.31-.27-1.43.43-.1.54.28.69.67.95s1.08,1,1.52.93c.71-.14.13-1.2-.11-1.57A2.57,2.57,0,0,0,115.31,10.63Z"/><path class="cls-2" d="M118.59,14.41a.7.7,0,0,0-.86,1.1c.23.27.54.4.75.72s.42,1,1,1a.3.3,0,0,0,.28-.23,2.49,2.49,0,0,0-.59-2A1.59,1.59,0,0,0,118.59,14.41Z"/><path class="cls-2" d="M42.18,43.35c.13-.87,3.27-.46,3.27.29S42.06,44.22,42.18,43.35Z"/><path class="cls-2" d="M48.12,43.45c-.21-.89,2.61-.91,2.83-.28S48.33,44.34,48.12,43.45Z"/><path class="cls-2" d="M54,42.34c-.37-.51,1.71-1.47,2-1.1S54.37,42.84,54,42.34Z"/><path class="cls-2" d="M58.16,40c-.26-.61,1.05-1.61,1.53-1.16S58.42,40.57,58.16,40Z"/><path class="cls-2" d="M46,42.46c-.16-.65,2.92-1.09,3.07-.45S46.11,43.11,46,42.46Z"/><path class="cls-2" d="M51.59,41.54c-.29-.52,1.42-1,1.65-.55S51.88,42.05,51.59,41.54Z"/><path class="cls-2" d="M55.65,39.64c-.38-.6,1.16-1.27,1.46-.84S56,40.24,55.65,39.64Z"/><path class="cls-2" d="M59.92,37.38c-.15-.48.52-.66.59-.19S60.07,37.86,59.92,37.38Z"/><path class="cls-7" d="M2.43,44.26c.14,1.42-.35,2.84-.13,4.25.33,2.11,2.22,3.69,4.23,4.41A30.47,30.47,0,0,0,12.85,54a8.45,8.45,0,0,0,4,0c1.2-.43,2.18-1.49,3.46-1.57.84,0,1.71.34,2.51.07a3,3,0,0,0,1.21-1c3.89-4.63,5-11.6,2.22-16.94a6.15,6.15,0,0,0-1.46-1.92A19,19,0,0,0,21.64,31,6.76,6.76,0,0,1,18.75,28a16.57,16.57,0,0,1-6.08,1.56c-1.1,0-2.19-.23-3.28-.14a6,6,0,0,0-4.6,2.81c-.46.75-.75,1.6-1.22,2.35s-.9,1.16-1.35,1.75C1.53,37.17-.5,40,.11,41.22c.25.48,1,.46,1.35.78A3.45,3.45,0,0,1,2.43,44.26Z"/><path class="cls-3" d="M5.1,48a.5.5,0,0,0,.15-.51,2.77,2.77,0,0,0-.13-.57,3.54,3.54,0,0,0-.23-.53,2.74,2.74,0,0,0-.34-.53A.89.89,0,0,0,4,45.51c-.47-.07-.62.36-.51.76a4,4,0,0,0,.66,1.13,2.38,2.38,0,0,0,.51.5C4.85,48,5,48.06,5.1,48Z"/><path class="cls-3" d="M8.11,50.47c-.18-.25-.35-.51-.55-.74A1.9,1.9,0,0,0,7,49.28a.45.45,0,0,0-.61.14c-.22.28-.07.53.17.76a4.91,4.91,0,0,0,.48.41l.26.18.27.17a.73.73,0,0,0,.33.13A.29.29,0,0,0,8.17,51C8.28,50.91,8.27,50.73,8.11,50.47Z"/><path class="cls-3" d="M12.22,53a.39.39,0,0,0-.16-.39,2.52,2.52,0,0,0-.75-.5,2.22,2.22,0,0,0-.46-.17.72.72,0,0,0-.48,0c-.33.17-.22.5,0,.71a3,3,0,0,0,1,.4C11.77,53.15,12.16,53.16,12.22,53Z"/><path class="cls-3" d="M10.82,46.84a.4.4,0,0,0,0-.42,2.47,2.47,0,0,0-.59-.74,2.66,2.66,0,0,0-.43-.3.69.69,0,0,0-.5-.08c-.35.1-.29.46-.09.7a3.63,3.63,0,0,0,.8.62C10.35,46.83,10.69,47,10.82,46.84Z"/><path class="cls-3" d="M12.19,50a.57.57,0,0,0-.11-.58,3.66,3.66,0,0,0-.93-.87c-.33-.21-.9-.52-1.32-.34s-.36.69,0,1S11.91,50.48,12.19,50Z"/><path class="cls-3" d="M8.15,47.65a.39.39,0,0,0,.06-.42,2.37,2.37,0,0,0-.42-.82c-.17-.23-.48-.59-.8-.57s-.41.37-.27.66S7.86,47.89,8.15,47.65Z"/><path class="cls-21" d="M77.1,26.73c10.2-3,19-6.28,29.83-6.28,10.29,0,16.9,2.22,20.33,5.69,1.49,1.52,6.2,3,6.75,7.79.5,4.27-2.39,8.66-4.5,9.31-4.64,1.44-10.48-5.15-26.39-4.71C85.9,39,85.27,40.79,78.9,42.93c-5.84,2-9.39-1.54-9.51-5.11A11.33,11.33,0,0,1,77.1,26.73Z"/><path class="cls-7" d="M77,25.35c10.4-3.14,19.35-6.61,30.38-6.65,10.47,0,17.19,2.25,20.66,5.85,1.52,1.57,6.3,3.11,6.85,8.08.48,4.44-2.47,9-4.62,9.69-4.73,1.52-10.34-4.73-26.84-4.8-17-.06-17.82,1.92-24.31,4.17-6,2.06-9.61-1.45-9.72-5.17A11.11,11.11,0,0,1,77,25.35Z"/><path class="cls-3" d="M119,23.21a28.78,28.78,0,0,1,5.7,1.93,17.29,17.29,0,0,1,5.43,3.4,3.24,3.24,0,0,1,1.12,2.23.78.78,0,0,1-.14.49.93.93,0,0,1-.94.2c-1.87-.34-3.29-1.82-4.79-3a18.26,18.26,0,0,0-9.14-3.78c-.59-.06-4.65-.39-2.77-1.41C115.05,22.42,117.33,22.86,119,23.21Z"/><path class="cls-3" d="M76.77,40.49a5.92,5.92,0,0,0,2-.55c.33-.14.73-.42.63-.78s-.52-.39-.86-.38a14.72,14.72,0,0,0-3.3.44.82.82,0,0,0-.52.29C74.28,40.19,76.43,40.51,76.77,40.49Z"/><path class="cls-3" d="M81.65,39a.81.81,0,0,0,.79-.45.34.34,0,0,0,0-.2c0-.17-.27-.21-.44-.22a.71.71,0,0,0-.65.17C81.19,38.56,81.32,39,81.65,39Z"/></g></g></svg>