<svg xmlns="http://www.w3.org/2000/svg" viewBox="0 0 69.79 119.44"><defs><style>.cls-1{fill:#c86e29;}.cls-2{fill:#bad3ce;}.cls-3{fill:#d4e9e5;}.cls-4{fill:#fff;}.cls-5{fill:#fde8ca;}.cls-6{fill:#fa8573;}.cls-7{fill:#f45b44;}</style></defs><g id="Layer_2" data-name="Layer 2"><g id="Image"><path class="cls-1" d="M51.92,117.65c-.4.54-7.4,1.76-14.73,1.79-6.86,0-14-1.1-14.87-1.79-1.68-1.42-4.15-18.94-2.95-20.9s34.52-1.65,35.72,0S52.7,116.62,51.92,117.65Z"/><rect class="cls-1" x="14.52" y="39.64" width="0.87" height="63.72" transform="matrix(0.96, -0.27, 0.27, 0.96, -19, 6.82)"/><rect class="cls-1" x="27.13" y="71.06" width="63.72" height="0.87" transform="translate(-25.94 108.65) rotate(-74.1)"/><path class="cls-2" d="M61.41,10.4a33.58,33.58,0,0,0-12.3-8.31A31.74,31.74,0,0,0,36.51,0,44.45,44.45,0,0,0,26.2,1.59,24.65,24.65,0,0,0,19.9,4.1c-3.21,2-15.71,11.37-15.3,28.81s9.26,23.7,11.63,25.73c.34.3.62.53.8.7a15.57,15.57,0,0,0,5.17,3,37,37,0,0,0,25,.37A37,37,0,0,0,66.54,46.83a23.26,23.26,0,0,0,2-4.3,22.66,22.66,0,0,0,1-5,41.86,41.86,0,0,0-3.31-19.93A26.26,26.26,0,0,0,61.41,10.4Z"/><path class="cls-3" d="M61.82,33.86C63.73,14.25,44.46,2.35,39.27.56A12.56,12.56,0,0,0,36.91,0c-1.16,0-2.29.13-3.39.26C32.91.42,11.19,6.84,11.19,34c0,18.86,17.8,29.85,20.72,30.48a37.64,37.64,0,0,0,7.87,0,6.7,6.7,0,0,0,1-.27C48.14,61.55,59.91,53.48,61.82,33.86ZM16.29,34c0-13.41,7-24.86,16.11-31.94-2.86,5.09-5.54,10.19-7.14,15.82a53,53,0,0,0,3.83,38.72c1.42,2.71,4.16,6.46,4.13,6.49C24.69,58.17,16.29,47.38,16.29,34ZM35.54,61.49c-7.71-14.19-10-31.62-5.31-47.06,1.48-4.9,3.65-8.84,5.5-13.61a134.86,134.86,0,0,1,2.35,31.51C37.57,40.73,35.67,61,35.54,61.49Zm10.1-29.17c1-13-6.63-27.06-8.47-31.33,5.25,3.3,18.6,19.9,17.52,34.07C53.8,46.63,44.2,58.78,39.08,62.53,40.94,54.31,44.62,45.37,45.64,32.32Z"/><path class="cls-4" d="M27.49,91.13a7.59,7.59,0,0,0-3.55,6.39c-.07,3.78.23,7.6,7,12,3.75,2.39,4.35,3.34,4.58,4.26s-.64,2.42-.48,2.86,5.3.73,9.49-4.71,5.4-10.8,4.8-15.23c-.52-3.86-2.39-7.34-4.51-8.51C42.92,87.07,29,90.2,27.49,91.13Z"/><path class="cls-3" d="M39.61,113.22a.23.23,0,0,1,0-.25,1.66,1.66,0,0,1,.38-.41c.14-.1.38-.25.57-.19s.18.29,0,.44a1,1,0,0,1-.2.16,2.43,2.43,0,0,1-.32.18C39.9,113.26,39.68,113.32,39.61,113.22Z"/><path class="cls-3" d="M41.74,111.44a.17.17,0,0,1,0-.18,1,1,0,0,1,.25-.32c.09-.08.26-.21.39-.18s.15.2.06.31S41.84,111.57,41.74,111.44Z"/><path class="cls-3" d="M37.88,114.08a2.91,2.91,0,0,1,.33-.26c.15-.1.43-.23.52,0s0,.23-.17.29a5.38,5.38,0,0,1-.51.2C37.82,114.42,37.67,114.28,37.88,114.08Z"/><path class="cls-3" d="M44.74,108.43a.25.25,0,0,1,0-.25,1.52,1.52,0,0,1,.25-.49c.1-.14.28-.36.48-.36s.26.22.18.4S44.92,108.59,44.74,108.43Z"/><path class="cls-3" d="M46.17,106.07a.17.17,0,0,1-.06-.18,1.15,1.15,0,0,1,.11-.39c.05-.11.15-.29.29-.31s.21.12.17.26a2,2,0,0,1-.21.4C46.37,106,46.24,106.11,46.17,106.07Z"/><path class="cls-3" d="M43.29,109.71a2.1,2.1,0,0,1,.26-.33c.12-.14.36-.33.5-.11s0,.23-.09.32-.3.22-.44.33a.24.24,0,0,1-.25,0C43.22,109.92,43.22,109.83,43.29,109.71Z"/><path class="cls-3" d="M47.68,102.1c-.09,0-.13-.12-.14-.21a1.69,1.69,0,0,1,0-.55c0-.17.09-.44.27-.52s.34.07.34.27a1.7,1.7,0,0,1,0,.26c0,.05,0,.11-.05.17s0,.06,0,.09l0,.09C47.92,101.94,47.8,102.13,47.68,102.1Z"/><path class="cls-3" d="M48,99.19c-.06,0-.1-.08-.12-.14a1.29,1.29,0,0,1,0-.19.67.67,0,0,1,0-.2.9.9,0,0,1,0-.22.44.44,0,0,1,.1-.19c.13-.09.24,0,.28.16a2,2,0,0,1,0,.45C48.18,99,48.1,99.2,48,99.19Z"/><path class="cls-3" d="M46.91,103.87a2.71,2.71,0,0,1,.09-.41c0-.17.2-.45.42-.31s.1.2,0,.33a5.46,5.46,0,0,1-.27.48c-.06.11-.15.16-.21.14a.1.1,0,0,1-.07-.07A.37.37,0,0,1,46.91,103.87Z"/><path class="cls-3" d="M39.9,110.7a.2.2,0,0,1,0-.2,1.1,1.1,0,0,1,.23-.37c.09-.11.25-.27.42-.25s.2.19.12.32S40.05,110.83,39.9,110.7Z"/><path class="cls-3" d="M41.5,108.78a.17.17,0,0,1,0-.18,1.24,1.24,0,0,1,.19-.36c.07-.1.21-.25.35-.25s.18.17.12.29S41.62,108.89,41.5,108.78Z"/><path class="cls-3" d="M38.6,112.16a1.65,1.65,0,0,1,.19-.27c.1-.11.29-.27.4-.1s0,.18-.06.26l-.35.26C38.63,112.42,38.48,112.35,38.6,112.16Z"/><path class="cls-3" d="M44.56,104.46a.22.22,0,0,1-.07-.22,1.68,1.68,0,0,1,.13-.5c.06-.15.18-.39.34-.43s.24.14.21.33a2.55,2.55,0,0,1-.25.53l-.1.13-.1.11C44.66,104.46,44.6,104.49,44.56,104.46Z"/><path class="cls-3" d="M43.41,102.74c-.06,0-.08-.09-.09-.15a1.12,1.12,0,0,1,0-.41c0-.12.09-.31.22-.37s.23.08.22.22S43.57,102.79,43.41,102.74Z"/><path class="cls-3" d="M43,106.6a2.64,2.64,0,0,1,.18-.38c.09-.16.27-.4.47-.22s.06.23,0,.34a1.92,1.92,0,0,1-.18.22l-.19.19C43.05,106.93,42.86,106.86,43,106.6Z"/><path class="cls-3" d="M26.22,101a.25.25,0,0,0,.14-.22,1.22,1.22,0,0,0,0-.27,1.79,1.79,0,0,0-.11-.57.46.46,0,0,0-.2-.23c-.2-.09-.33.09-.34.28a2,2,0,0,0,.16.61,1.19,1.19,0,0,0,.16.3C26.1,101,26.16,101,26.22,101Z"/><path class="cls-3" d="M25.89,98.23a.16.16,0,0,0,.12-.14,1.09,1.09,0,0,0,0-.4c0-.13,0-.33-.15-.4s-.24,0-.26.17S25.73,98.25,25.89,98.23Z"/><path class="cls-3" d="M27.1,102.66a2.46,2.46,0,0,0-.14-.38.76.76,0,0,0-.16-.25.2.2,0,0,0-.27,0c-.13.09-.1.22,0,.34a1.88,1.88,0,0,0,.16.23l.08.12.09.1a.31.31,0,0,0,.13.09.12.12,0,0,0,.1,0C27.12,102.87,27.14,102.79,27.1,102.66Z"/><path class="cls-3" d="M30.37,105.79c.05-.08,0-.18-.05-.25a1.64,1.64,0,0,0-.41-.38c-.15-.09-.4-.23-.58-.15s-.16.3,0,.44S30.25,106,30.37,105.79Z"/><path class="cls-3" d="M28.43,104.41a.17.17,0,0,0,0-.19,1.18,1.18,0,0,0-.25-.3l-.17-.13a.33.33,0,0,0-.21-.05c-.16,0-.15.18-.07.3a1.17,1.17,0,0,0,.36.29C28.22,104.42,28.38,104.47,28.43,104.41Z"/><path class="cls-3" d="M32.14,106.53a2.24,2.24,0,0,0-.34-.27c-.15-.1-.44-.22-.52,0s.06.23.18.29a5.38,5.38,0,0,0,.51.2C32.2,106.87,32.35,106.73,32.14,106.53Z"/><path class="cls-3" d="M35.24,109.86a.23.23,0,0,0,.07-.25,1.28,1.28,0,0,0-.2-.52,1.46,1.46,0,0,0-.2-.25.43.43,0,0,0-.27-.13c-.23,0-.26.22-.19.39a2.2,2.2,0,0,0,.35.5C35,109.78,35.14,109.93,35.24,109.86Z"/><path class="cls-3" d="M33.69,108s0-.13,0-.19a1.37,1.37,0,0,0-.29-.3c-.1-.07-.28-.18-.41-.13s-.12.2,0,.31a1.81,1.81,0,0,0,.37.24C33.48,108,33.64,108.06,33.69,108Z"/><path class="cls-3" d="M36.38,111.45a2.74,2.74,0,0,0-.15-.4c-.09-.17-.28-.42-.47-.24s-.07.22,0,.34.23.29.34.43S36.46,111.73,36.38,111.45Z"/><path class="cls-3" d="M36.69,115.12a2.58,2.58,0,0,0,.19-.37c.07-.17.14-.45-.1-.43s-.19.11-.23.24a4.48,4.48,0,0,0-.11.5C36.39,115.28,36.53,115.36,36.69,115.12Z"/><path class="cls-3" d="M33.47,103.57a.26.26,0,0,0,0-.26,1.6,1.6,0,0,0-.31-.47c-.13-.13-.35-.32-.55-.27s-.2.27-.1.43a2.83,2.83,0,0,0,.45.4,1.81,1.81,0,0,0,.29.17C33.35,103.6,33.43,103.61,33.47,103.57Z"/><path class="cls-3" d="M37.12,113a.17.17,0,0,0,.22,0,1.17,1.17,0,0,0,.29-.45.85.85,0,0,0,0-.63c-.12-.22-.29-.14-.39,0a2.51,2.51,0,0,0-.18.58,1.42,1.42,0,0,0,0,.34A.28.28,0,0,0,37.12,113Z"/><path class="cls-3" d="M31.08,101.63a.17.17,0,0,0,.05-.18.86.86,0,0,0-.16-.38.59.59,0,0,0-.14-.18.3.3,0,0,0-.2-.1c-.16,0-.18.16-.13.29a2.73,2.73,0,0,0,.26.35C30.89,101.57,31,101.67,31.08,101.63Z"/><path class="cls-3" d="M33.69,106.13a.16.16,0,0,0,0-.19,1.08,1.08,0,0,0-.23-.34l-.18-.15a.28.28,0,0,0-.21,0c-.16,0-.15.19-.07.3a1.44,1.44,0,0,0,.33.3C33.49,106.11,33.63,106.19,33.69,106.13Z"/><path class="cls-3" d="M36.07,108a.27.27,0,0,0,.09-.24,1.5,1.5,0,0,0-.18-.54c-.08-.15-.24-.39-.44-.41s-.28.2-.22.38a2.2,2.2,0,0,0,.32.52C35.8,107.9,36,108.05,36.07,108Z"/><path class="cls-3" d="M35,105.73c.05,0,.06-.11.06-.18a1.36,1.36,0,0,0-.12-.39c-.06-.11-.17-.29-.31-.31s-.2.13-.16.27S34.82,105.81,35,105.73Z"/><path class="cls-3" d="M37.31,109.91c0-.14-.09-.27-.14-.4s-.25-.43-.44-.25-.07.22,0,.34a4.48,4.48,0,0,0,.32.44C37.19,110.23,37.38,110.19,37.31,109.91Z"/><path class="cls-3" d="M39.14,106.41a.23.23,0,0,0,.24-.07.76.76,0,0,0,.19-.21,1.28,1.28,0,0,0,.15-.25.67.67,0,0,0,.06-.6c-.12-.19-.32-.1-.43,0a1.69,1.69,0,0,0-.11.23c0,.1-.08.22-.12.34S39,106.36,39.14,106.41Z"/><path class="cls-3" d="M40.29,103.89c.06,0,.12,0,.17-.09a1.19,1.19,0,0,0,.17-.38c0-.12.07-.33,0-.44s-.24,0-.29.1a1.57,1.57,0,0,0-.09.44C40.2,103.7,40.21,103.86,40.29,103.89Z"/><path class="cls-3" d="M38.49,108.22c.07-.12.14-.23.2-.36s.18-.44-.08-.5-.22.07-.27.2a2.65,2.65,0,0,0-.13.54.24.24,0,0,0,.07.24C38.34,108.37,38.42,108.34,38.49,108.22Z"/><path class="cls-3" d="M36.36,104.39c.1,0,.14-.11.16-.2a1.37,1.37,0,0,0,0-.57c0-.18-.13-.46-.32-.52s-.32.12-.31.3a2.24,2.24,0,0,0,.16.58C36.14,104.21,36.25,104.41,36.36,104.39Z"/><path class="cls-3" d="M36.05,101.65c.06,0,.07-.1.07-.17a1.06,1.06,0,0,0-.09-.39c0-.12-.13-.31-.27-.34s-.21.11-.19.25S35.89,101.72,36.05,101.65Z"/><path class="cls-3" d="M44.83,100.41c.06,0,.12,0,.17-.07a1,1,0,0,0,.22-.34c.05-.12.12-.32,0-.44s-.23-.07-.31,0S44.67,100.35,44.83,100.41Z"/><path class="cls-3" d="M46.85,97.7c.07,0,.14,0,.19-.11a1.43,1.43,0,0,0,.21-.43c0-.15.09-.39,0-.52s-.28,0-.36.1S46.65,97.65,46.85,97.7Z"/><path class="cls-3" d="M37.12,106.48a3.11,3.11,0,0,0,0-.43c0-.19-.06-.49-.31-.41s-.16.17-.14.3a4.71,4.71,0,0,0,.12.54C36.88,106.72,37.08,106.76,37.12,106.48Z"/><path class="cls-3" d="M38.63,102.77c.09,0,.16-.07.2-.15a1.47,1.47,0,0,0,.16-.54c0-.17,0-.46-.13-.58s-.34,0-.4.18S38.39,102.76,38.63,102.77Z"/><path class="cls-3" d="M46,101.84c.06,0,.13,0,.17-.12a1.62,1.62,0,0,0,.25-.49.91.91,0,0,0,.07-.58c-.07-.17-.22-.07-.3.1S45.81,101.78,46,101.84Z"/><path class="cls-3" d="M42.06,101.92a.19.19,0,0,0,.16-.09,1.24,1.24,0,0,0,.17-.37.52.52,0,0,0,0-.44c-.1-.12-.23,0-.3.09S41.9,101.88,42.06,101.92Z"/><path class="cls-3" d="M38.37,105.12a2.1,2.1,0,0,0,.09-.42c0-.19,0-.5-.25-.46s-.18.15-.18.29,0,.37,0,.54S38.29,105.39,38.37,105.12Z"/><path class="cls-3" d="M29.64,103.07a.25.25,0,0,0,0-.25,1.6,1.6,0,0,0-.28-.49c-.12-.13-.32-.33-.51-.3s-.24.24-.15.41S29.46,103.23,29.64,103.07Z"/><path class="cls-3" d="M28,100.86c.06,0,.08-.1.08-.16a1.29,1.29,0,0,0-.07-.4c-.05-.12-.14-.31-.27-.34s-.22.1-.2.24S27.82,100.93,28,100.86Z"/><path class="cls-3" d="M31.61,104.4a3.27,3.27,0,0,0-.25-.36c-.12-.14-.35-.34-.5-.12s0,.23.08.32a3.37,3.37,0,0,0,.43.34C31.56,104.73,31.75,104.65,31.61,104.4Z"/><path class="cls-3" d="M40.05,108c.08,0,.18,0,.25,0a1.35,1.35,0,0,0,.38-.41c.09-.15.23-.4.15-.58s-.31-.15-.44,0S39.85,107.86,40.05,108Z"/><path class="cls-3" d="M38.56,110.1a.17.17,0,0,0,.19,0,1.11,1.11,0,0,0,.28-.29c.07-.1.18-.28.13-.41s-.21-.12-.31,0S38.42,110,38.56,110.1Z"/><path class="cls-3" d="M42,105.23a2.13,2.13,0,0,0,.29-.31c.12-.15.26-.42,0-.52s-.23,0-.3.15a4.52,4.52,0,0,0-.25.49C41.7,105.26,41.83,105.42,42,105.23Z"/><path class="cls-5" d="M49.1,92.74c0-.11.13-.55-.73-.74a3.68,3.68,0,0,0-2.3.4c-.15.11-.19.18-.17.24a3.38,3.38,0,0,0,1.92.53C48.91,93.22,49.07,92.84,49.1,92.74Z"/><path class="cls-1" d="M46,92.59a2.88,2.88,0,0,1,1-.23c.39,0,.76.06.77.21s-.57.21-.87.2A2.18,2.18,0,0,1,46,92.59Z"/><path class="cls-5" d="M24.34,92.74c0-.11-.13-.55.74-.74a3.64,3.64,0,0,1,2.29.4c.15.11.2.18.17.24a3.38,3.38,0,0,1-1.92.53C24.54,93.22,24.37,92.84,24.34,92.74Z"/><path class="cls-1" d="M27.48,92.59a2.88,2.88,0,0,0-1-.23c-.39,0-.75.06-.77.21s.57.21.88.2A2.16,2.16,0,0,0,27.48,92.59Z"/><path class="cls-5" d="M46,93.7c0,4.78-4.75,4.19-9.86,4.19s-8.64.59-8.64-4.19S31.61,85,36.72,85,46,88.92,46,93.7Z"/><path class="cls-1" d="M43.44,91a.14.14,0,0,0-.18,0c-.28.28-.59.59-.79.77.05-.22.13-.54.21-.82a.13.13,0,0,0-.25-.07c-.11.41-.17.68-.21.86a2.07,2.07,0,0,0-1.45-.61,1.66,1.66,0,0,0-1.65,1.31.16.16,0,0,0,.13.19h0a.15.15,0,0,0,.15-.13,1.32,1.32,0,0,1,1.28-1h0a1.67,1.67,0,0,1,1.52.92.17.17,0,0,0,.21.09.16.16,0,0,0,.08-.21l-.08-.16a11.47,11.47,0,0,0,.95-.92A.13.13,0,0,0,43.44,91Z"/><path class="cls-1" d="M30,91a.14.14,0,0,1,.18,0c.28.28.59.59.79.77,0-.22-.13-.54-.2-.82a.13.13,0,0,1,.08-.16.13.13,0,0,1,.16.09c.11.41.18.68.21.86a2.07,2.07,0,0,1,1.45-.61,1.65,1.65,0,0,1,1.65,1.31.16.16,0,0,1-.12.19h0a.16.16,0,0,1-.16-.13,1.32,1.32,0,0,0-1.28-1h0a1.7,1.7,0,0,0-1.52.92.16.16,0,1,1-.29-.12,1,1,0,0,1,.08-.16c-.14-.11-.4-.36-.95-.92A.13.13,0,0,1,30,91Z"/><path class="cls-1" d="M41.4,94.12c0,.11.24.15.35-.06S41.36,93.87,41.4,94.12Z"/><path class="cls-1" d="M42.39,93.77c0,.2.19.43.38.19S42.45,93.56,42.39,93.77Z"/><path class="cls-1" d="M43,94.77c-.07-.24-.33-.11-.33,0S43.1,95,43,94.77Z"/><path class="cls-1" d="M42,94.82c.13.1.35-.11.16-.28S41.72,94.65,42,94.82Z"/><path class="cls-1" d="M43.21,94.13a.15.15,0,0,0,.29-.08C43.47,93.81,43.17,93.87,43.21,94.13Z"/><path class="cls-1" d="M32.05,94.12c0,.11-.24.15-.35-.06S32.08,93.87,32.05,94.12Z"/><path class="cls-1" d="M31.05,93.77a.21.21,0,0,1-.38.19C30.49,93.73,31,93.56,31.05,93.77Z"/><path class="cls-1" d="M30.41,94.77c.06-.24.33-.11.33,0S30.34,95,30.41,94.77Z"/><path class="cls-1" d="M31.5,94.82a.16.16,0,0,1-.17-.28C31.52,94.38,31.72,94.65,31.5,94.82Z"/><path class="cls-1" d="M30.23,94.13c0,.15-.31.15-.29-.08S30.28,93.87,30.23,94.13Z"/><path class="cls-6" d="M37.58,98.88a1,1,0,1,1-1-1A1,1,0,0,1,37.58,98.88Z"/><path class="cls-2" d="M36.73,98a1.57,1.57,0,0,1,1.5-1.86c1.31-.23,4,1.06,5.7.55s2.38-2,2.61-1.84-1.09,4.54-4.23,5.2S36.94,99.61,36.73,98Z"/><path class="cls-4" d="M36.66,97.69a1.58,1.58,0,0,1,1.51-1.86c1.3-.23,4,1.06,5.69.55s2.38-2,2.62-1.84-1.09,4.55-4.23,5.2S36.88,99.35,36.66,97.69Z"/><path class="cls-3" d="M37.33,97.73a.07.07,0,0,0,.08,0,.51.51,0,0,1,.4.14,1.61,1.61,0,0,1,.24.28l.07.1a3.26,3.26,0,0,0,2.72,1.21l.19,0a6.13,6.13,0,0,0,4.46-2.87l.17-.24h0c.14-.18.27-.37.41-.58h0v0H46A4.6,4.6,0,0,1,44.55,97a4,4,0,0,1-3.67.14L40.67,97a3.57,3.57,0,0,0-2.46-.67,1.17,1.17,0,0,0-.83.84A3.23,3.23,0,0,0,37.33,97.73Zm7.28-.66a4.44,4.44,0,0,0,.76-.53,6.42,6.42,0,0,1-1.12,1,3.77,3.77,0,0,1-.7.4A4.78,4.78,0,0,1,40,97.74l-.28-.16a2.83,2.83,0,0,0-1.23-.47,1.4,1.4,0,0,0-1,.42,1.12,1.12,0,0,1,.8-1.1c.77-.25,1.84.36,2.36.66a1.08,1.08,0,0,0,.21.11,3.52,3.52,0,0,0,1.93.39A5.06,5.06,0,0,0,44.61,97.07Zm-6.15.17a2.69,2.69,0,0,1,1.18.45l.28.16a4.73,4.73,0,0,0,2.52.49,4,4,0,0,0,1.15-.23,4.5,4.5,0,0,0,.44-.22,5.67,5.67,0,0,1-2.18.87h0a2.88,2.88,0,0,1-2.18-.36l-.33-.22c-.7-.46-1.18-.76-1.79-.56A1.27,1.27,0,0,1,38.46,97.24Zm-.75.47c.49-.11.91.16,1.55.58l.33.22a2.88,2.88,0,0,0,1.78.44,4.44,4.44,0,0,0,.49-.07h0a5.77,5.77,0,0,0,2.51-1.1A5.73,5.73,0,0,1,41,99.37a3.12,3.12,0,0,1-2.79-1.15l-.07-.09a1.42,1.42,0,0,0-.25-.3A1,1,0,0,0,37.71,97.71Z"/><path class="cls-2" d="M36.58,98a1.58,1.58,0,0,0-1.51-1.86c-1.3-.23-4,1.06-5.69.55s-2.38-2-2.62-1.84S27.85,99.35,31,100,36.37,99.61,36.58,98Z"/><path class="cls-4" d="M36.64,97.69a1.58,1.58,0,0,0-1.5-1.86c-1.31-.23-4,1.06-5.7.55s-2.38-2-2.62-1.84,1.1,4.55,4.24,5.2S36.43,99.35,36.64,97.69Z"/><path class="cls-3" d="M35.93,97.15a1.21,1.21,0,0,0-.83-.84,3.6,3.6,0,0,0-2.47.67l-.2.11A4,4,0,0,1,28.76,97a4.52,4.52,0,0,1-1.42-1.22h-.11v0h0a6.6,6.6,0,0,0,.41.58h0l.17.24a6.08,6.08,0,0,0,4.46,2.87l.18,0a3.25,3.25,0,0,0,2.72-1.21.86.86,0,0,0,.07-.1,2.2,2.2,0,0,1,.24-.28.53.53,0,0,1,.41-.14s.06,0,.07,0A2.91,2.91,0,0,0,35.93,97.15Zm-5.38.44a3.55,3.55,0,0,0,1.94-.39l.2-.11a3.49,3.49,0,0,1,2.37-.66,1.1,1.1,0,0,1,.79,1.1,1.39,1.39,0,0,0-1-.42,2.92,2.92,0,0,0-1.24.47l-.27.16a4.78,4.78,0,0,1-3.57.25,3.48,3.48,0,0,1-.7-.4,5.78,5.78,0,0,1-1.12-1,4.44,4.44,0,0,0,.76.53A5,5,0,0,0,30.55,97.59Zm5.21,0c-.61-.2-1.08.1-1.78.56l-.33.22a2.9,2.9,0,0,1-2.18.36h0a5.55,5.55,0,0,1-2.18-.87,3.51,3.51,0,0,0,.43.22,4.08,4.08,0,0,0,1.15.23,4.78,4.78,0,0,0,2.53-.49l.28-.16a2.69,2.69,0,0,1,1.18-.45A1.26,1.26,0,0,1,35.76,97.62Zm-.35.21a1.87,1.87,0,0,0-.26.3l-.07.09a3.1,3.1,0,0,1-2.79,1.15,5.76,5.76,0,0,1-3.37-1.59,5.77,5.77,0,0,0,2.51,1.1h0a4.44,4.44,0,0,0,.49.07,2.88,2.88,0,0,0,1.78-.44l.34-.22c.64-.42,1.05-.69,1.55-.58A.76.76,0,0,0,35.41,97.83Z"/><path class="cls-1" d="M36.76,91.38a13.28,13.28,0,0,1,.36,1.84,9.33,9.33,0,0,1,.3,2c0,.47-.36.9-.75.87s-.77-.41-.62-1.27c.05-.3.23-1,.36-1.75A8.47,8.47,0,0,1,36.76,91.38Z"/><path class="cls-7" d="M45,80.6c-.66-1.3-2.15-4.9-11.32-4.86-9,0-14.64,6.64-16.9,8.53-1.9,1.59-1.72,2.48-5.54,3.31s-2.8,1.18-2.8,1.18c.41,1.55,5.38,4,10.34,2.92S24.6,84.09,27,85.05c1,.41,0,3.4,0,3.4s6.38-.91,9.3,0S46.1,86.3,46.1,86.3,45.69,81.91,45,80.6Z"/><path class="cls-6" d="M44.22,81.59c-.28-.41-.65,0-.64.34s.2.94.54,1.06a.22.22,0,0,0,.22,0,.21.21,0,0,0,.07-.13A1.45,1.45,0,0,0,44.22,81.59Z"/><path class="cls-6" d="M42.53,79.56c-.32,0-.16.21,0,.34a4.4,4.4,0,0,1,.4.46.61.61,0,0,0,.42.24.08.08,0,0,0,.07,0s0,0,0-.08a.86.86,0,0,0-.91-.94Z"/><path class="cls-6" d="M41.59,79c.3-.22-.08-.69-.3-.81s-.86-.22-1,.05.28.37.43.46S41.36,79.2,41.59,79Z"/><path class="cls-6" d="M39,77.88a.25.25,0,0,0,.21-.13c.06-.11,0-.25-.12-.33a.87.87,0,0,0-.35-.13,1.74,1.74,0,0,0-1.06,0,.1.1,0,0,0,0,.16.34.34,0,0,0,.17.08c.13,0,.67.21.89.28A1.09,1.09,0,0,0,39,77.88Z"/><path class="cls-6" d="M39.75,78.43a.82.82,0,0,0-.44-.25.34.34,0,0,0-.39.24.2.2,0,0,0,0,.11.2.2,0,0,0,.12.1l.49.27c.13.09.37.18.46.11S39.91,78.58,39.75,78.43Z"/><path class="cls-6" d="M41.36,79.55c-.19-.13-.47-.1-.52.15s.1.25.24.34.39.37.55.34,0-.43,0-.57A1.16,1.16,0,0,0,41.36,79.55Z"/><path class="cls-6" d="M42.53,80.9a.26.26,0,0,0-.31.4c.09.09.2.14.27.25s.15.35.38.36c.05,0,.09-.07.1-.09a.91.91,0,0,0-.22-.73A.67.67,0,0,0,42.53,80.9Z"/><path class="cls-6" d="M15.13,91.28c0-.31,1.17-.16,1.17.11S15.09,91.59,15.13,91.28Z"/><path class="cls-6" d="M17.26,91.32c-.08-.32.93-.33,1-.1S17.33,91.64,17.26,91.32Z"/><path class="cls-6" d="M19.37,90.92c-.13-.18.61-.53.71-.39S19.5,91.1,19.37,90.92Z"/><path class="cls-6" d="M20.86,90.07c-.1-.22.38-.58.55-.42S21,90.28,20.86,90.07Z"/><path class="cls-6" d="M16.48,91c-.06-.23,1.05-.39,1.1-.16S16.54,91.2,16.48,91Z"/><path class="cls-6" d="M18.5,90.63c-.1-.18.51-.35.6-.19S18.61,90.82,18.5,90.63Z"/><path class="cls-6" d="M20,90c-.14-.21.42-.45.52-.3S20.09,90.17,20,90Z"/><path class="cls-6" d="M21.49,89.14c0-.17.19-.23.21-.07S21.54,89.32,21.49,89.14Z"/><path class="cls-3" d="M.87,91.61c.05.51-.12,1,0,1.52a2.18,2.18,0,0,0,1.51,1.59,12.37,12.37,0,0,0,2.27.38,3.14,3.14,0,0,0,1.43,0c.43-.16.79-.54,1.24-.57s.62.13.9,0a1,1,0,0,0,.44-.35,5.61,5.61,0,0,0,.79-6.07,2.1,2.1,0,0,0-.52-.69,6.69,6.69,0,0,0-1.13-.58,2.41,2.41,0,0,1-1-1.1,5.76,5.76,0,0,1-2.18.56c-.39,0-.78-.08-1.17,0a2.16,2.16,0,0,0-1.65,1c-.17.27-.27.57-.44.84a7.47,7.47,0,0,1-.48.63c-.25.32-1,1.34-.76,1.77.09.17.34.16.48.28A1.2,1.2,0,0,1,.87,91.61Z"/><path class="cls-4" d="M1.83,93a.18.18,0,0,0,0-.19.71.71,0,0,0,0-.2c0-.06-.05-.13-.08-.19a.72.72,0,0,0-.13-.19.3.3,0,0,0-.19-.12c-.16,0-.22.13-.18.27a1.44,1.44,0,0,0,.24.41.94.94,0,0,0,.18.17C1.74,93,1.79,93,1.83,93Z"/><path class="cls-4" d="M2.91,93.84c-.07-.09-.13-.19-.2-.27a.56.56,0,0,0-.18-.16.16.16,0,0,0-.22,0c-.08.1,0,.19.06.27l.17.15.09.06.1.07a.28.28,0,0,0,.12,0l.08,0S3,93.93,2.91,93.84Z"/><path class="cls-4" d="M4.38,94.74s0-.1,0-.14a1,1,0,0,0-.27-.18.85.85,0,0,0-.17-.06.2.2,0,0,0-.17,0c-.12.06-.08.18,0,.25a1,1,0,0,0,.35.14C4.22,94.8,4.36,94.8,4.38,94.74Z"/><path class="cls-4" d="M3.88,92.53a.14.14,0,0,0,0-.15.75.75,0,0,0-.21-.26A.58.58,0,0,0,3.51,92a.29.29,0,0,0-.18,0c-.13,0-.11.17,0,.25a1.25,1.25,0,0,0,.28.23C3.71,92.53,3.84,92.59,3.88,92.53Z"/><path class="cls-4" d="M4.37,93.67c0-.06,0-.14,0-.2A1.08,1.08,0,0,0,4,93.16c-.12-.08-.33-.19-.47-.13s-.13.25,0,.36S4.27,93.84,4.37,93.67Z"/><path class="cls-4" d="M2.92,92.82c.05,0,0-.09,0-.14a.87.87,0,0,0-.16-.3c-.06-.08-.17-.21-.28-.21s-.15.14-.1.24S2.82,92.91,2.92,92.82Z"/><path class="cls-2" d="M27.65,85.32c3.66-1.07,6.81-2.25,10.7-2.25,3.69,0,6.06.8,7.29,2,.54.55,2.23,1.08,2.42,2.8a3.45,3.45,0,0,1-1.61,3.33c-1.67.52-3.76-1.85-9.47-1.69-6.17.18-6.4.81-8.68,1.58-2.1.7-3.37-.55-3.42-1.83A4.09,4.09,0,0,1,27.65,85.32Z"/><path class="cls-3" d="M27.63,84.83c3.73-1.13,6.94-2.37,10.9-2.39,3.75,0,6.16.81,7.4,2.1.55.56,2.27,1.11,2.46,2.9.17,1.59-.88,3.23-1.65,3.47-1.7.55-3.71-1.69-9.63-1.72-6.1,0-6.39.69-8.72,1.5-2.13.74-3.45-.52-3.49-1.86A4,4,0,0,1,27.63,84.83Z"/><path class="cls-4" d="M42.68,84.06a10.66,10.66,0,0,1,2,.69,6.17,6.17,0,0,1,2,1.22,1.17,1.17,0,0,1,.4.8A.29.29,0,0,1,47,87a.37.37,0,0,1-.34.07A4.31,4.31,0,0,1,45,85.94a6.54,6.54,0,0,0-3.27-1.35c-.22,0-1.67-.14-1-.51A3.08,3.08,0,0,1,42.68,84.06Z"/><path class="cls-4" d="M27.53,90.26a2.09,2.09,0,0,0,.7-.2c.13,0,.27-.15.23-.28s-.18-.14-.31-.14A5.32,5.32,0,0,0,27,89.8a.28.28,0,0,0-.18.11C26.64,90.15,27.41,90.27,27.53,90.26Z"/><path class="cls-4" d="M29.29,89.73a.3.3,0,0,0,.28-.16.17.17,0,0,0,0-.07c0-.06-.1-.08-.16-.08a.24.24,0,0,0-.23.06A.16.16,0,0,0,29.29,89.73Z"/></g></g></svg>