<svg xmlns="http://www.w3.org/2000/svg" viewBox="0 0 79.92 17.94"><defs><style>.cls-1{fill:#c86e29;}.cls-2{fill:#f2b669;}</style></defs><g id="Layer_2" data-name="Layer 2"><g id="Image"><path class="cls-1" d="M21.8,17.31c-.27,0-.48-.32-.48-.71V4.12c0-.4.21-.72.48-.72s.48.32.48.72V16.6C22.28,17,22.06,17.31,21.8,17.31Z"/><path class="cls-1" d="M24.82,13.58a.46.46,0,0,1-.48-.44V5.49a.46.46,0,0,1,.48-.44.47.47,0,0,1,.48.44v7.65A.47.47,0,0,1,24.82,13.58Z"/><path class="cls-1" d="M44.06,17.94c-2.25,0-4.63,0-7.15-.05l-4.82-.05c-7.56-.06-17.9-.14-24.1-1.12C4,16.08-.27,13.46,0,8a4.88,4.88,0,0,1,4.74-4.4h0A4.88,4.88,0,0,1,9.49,8.1a.64.64,0,0,1-.61.68.63.63,0,0,1-.68-.6A3.6,3.6,0,0,0,4.78,4.93,3.54,3.54,0,0,0,1.31,8.09C1,13.85,6.5,15.17,8.19,15.44c6.11,1,16.39,1,23.91,1.1l4.83.05c26.12.4,37.77-1.5,38.62-1.8a2,2,0,0,0,1.36-1.37.64.64,0,1,1,1.27.22A3.23,3.23,0,0,1,76,16C75.05,16.34,65.45,17.94,44.06,17.94Z"/><path class="cls-1" d="M45.79,14.31q-3.37,0-7.15-.05c-1.43,0-3.06,0-4.83,0-7.55-.06-17.89-.14-24.09-1.12-4-.64-8.26-3.26-8-8.7A4.87,4.87,0,0,1,6.48,0h0a4.88,4.88,0,0,1,4.7,4.47.65.65,0,0,1-.61.68.66.66,0,0,1-.69-.61A3.58,3.58,0,0,0,6.51,1.3,3.55,3.55,0,0,0,3,4.46c-.3,5.76,5.19,7.08,6.88,7.35,6.11,1,16.39,1,23.9,1.1l4.84.05c26.11.4,37.77-1.5,38.62-1.81a2,2,0,0,0,1.36-1.36.64.64,0,1,1,1.27.22,3.22,3.22,0,0,1-2.19,2.36C76.78,12.71,67.18,14.31,45.79,14.31Z"/><path class="cls-1" d="M69.17,13.11a.47.47,0,0,1-.48-.46v-8a.46.46,0,0,1,.48-.46.47.47,0,0,1,.48.46v8A.48.48,0,0,1,69.17,13.11Z"/><path class="cls-1" d="M66.15,16.8c-.27,0-.49-.32-.49-.71V3.61c0-.4.22-.72.49-.72s.48.32.48.72V16.09C66.63,16.48,66.41,16.8,66.15,16.8Z"/><path class="cls-2" d="M44,6.07c-9.86,0-28.12-.65-28.13-2.4,0-2.37,16.44-.46,28.5-.39s30.79-1.76,30.78.39C75.12,5.39,54.74,6.07,44,6.07Z"/></g></g></svg>