<svg xmlns="http://www.w3.org/2000/svg" viewBox="0 0 44.42 47.31"><defs><style>.cls-1{fill:#bad3ce;}.cls-2{fill:#fa8573;}.cls-3{fill:#fff;}.cls-4{fill:none;}.cls-5{fill:#f45b44;}.cls-6{fill:#d4e9e5;}.cls-7{fill:#c86e29;}.cls-8{fill:#f2b669;}.cls-9{fill:#fde8ca;}</style></defs><g id="Layer_2" data-name="Layer 2"><g id="Image"><path class="cls-1" d="M15.76,19.62c1-2.59-3.74-4.29-5.1-4.84a18.15,18.15,0,0,0-5-1.46c-.75,0-1.27.14-1.49.59a1.29,1.29,0,0,0,.19,1.24c.64,1,2.52,2.21,4.49,3.59C12.05,21,15,21.74,15.76,19.62Z"/><path class="cls-2" d="M.15,12c.48-1,1.74-.6,2.66-.09-.34-.35-1-.95-.8-1.24s.71,0,1.27.35a5.72,5.72,0,0,1,1.6,2.15L4,14.9a3.57,3.57,0,0,1-2.32-.37C.46,13.89-.34,13.05.15,12Z"/><path class="cls-3" d="M4.49,15.59a.49.49,0,0,1-.6,0A.59.59,0,0,1,3.78,15a2.69,2.69,0,0,1,.55-1.1c.34-.47.62-1.2,1.07-.95s.23.77.13,1.06A3.56,3.56,0,0,1,4.49,15.59Z"/><path class="cls-4" d="M21.6,13.41l0,.1Z"/><path class="cls-1" d="M34.92,34V32.68H35c-.38-.06-4.65-1.09-7.25-1.73l-.32,1.27C34.58,34,34.82,34,34.92,34Z"/><path class="cls-1" d="M40.39,35.71a14.87,14.87,0,0,0,.35-4.66.13.13,0,0,0-.15-.13.15.15,0,0,0-.13.16A14.46,14.46,0,0,1,40,36c-.83,3.14-1.8,4.93-2.61,4.8a.47.47,0,0,1-.32-.17.37.37,0,0,1,0-.29h0a.37.37,0,0,1,.16-.2.21.21,0,0,1,.15,0l.06,0a.32.32,0,0,1,0,.17.14.14,0,1,0,.27.08.52.52,0,0,0,0-.38.33.33,0,0,0-.23-.18.45.45,0,0,0-.37.06.6.6,0,0,0-.28.37h0a.64.64,0,0,0,.07.51.71.71,0,0,0,.5.28c1.35.23,2.41-3,2.93-5Z"/><path class="cls-1" d="M40.69,33.49v0a.08.08,0,0,0-.1-.08l-1.05.07h0a.09.09,0,0,0-.11.07.1.1,0,0,0,0,.09s.05.06,1.17,0A.08.08,0,0,0,40.69,33.49Z"/><path class="cls-1" d="M39.58,38.22a.09.09,0,0,0,0-.1l-.8-.4a.09.09,0,0,0-.12.05.08.08,0,0,0,0,.12l.8.4a.1.1,0,0,0,.13,0Z"/><path class="cls-5" d="M37.81,38.7c-.17,0-.45-.3-.37-1,.12-1,.2-2.2-.39-2.67a13.81,13.81,0,0,0-3.36-1.15c-.45-.09.91-1.3,1.1-1.46a4.76,4.76,0,0,0,1.91.44c1,0,1.71,0,2.32,0s.71,0,.72.86-.69.62-.69.62l-.12.5s.61.57.17,2.39S38,38.73,37.81,38.7Z"/><path class="cls-3" d="M35.3,33.8a.87.87,0,0,0,0-.36.07.07,0,0,1,.13,0,1,1,0,0,1,.06.41,1.9,1.9,0,0,1,0,.25c0,.1-.06.18-.09.27l-.13,0A1.67,1.67,0,0,0,35.3,33.8Z"/><path class="cls-3" d="M35.87,33.63a.08.08,0,0,1,0-.1.08.08,0,0,1,.09,0,1.4,1.4,0,0,1,.06.81h0s0,.11-.05.16l-.13,0a.83.83,0,0,0,0-.15A1.18,1.18,0,0,0,35.87,33.63Z"/><path class="cls-3" d="M36.45,33.85a.07.07,0,0,1,0-.1.08.08,0,0,1,.1,0,1,1,0,0,1,.16.55,2,2,0,0,1-.07.49l-.13-.06a2.12,2.12,0,0,0,.06-.43A.88.88,0,0,0,36.45,33.85Z"/><path class="cls-1" d="M17.91,39.75l1.3-.23v.06c0-.38.3-4.77.5-7.44L18.4,32C17.85,39.41,17.89,39.65,17.91,39.75Z"/><path class="cls-1" d="M17.6,45.1a15.26,15.26,0,0,0,4.62-.72.14.14,0,0,0,.08-.18.15.15,0,0,0-.18-.09,14.78,14.78,0,0,1-4.87.71C14,44.73,12,44.19,12,43.38a.45.45,0,0,1,.08-.35.39.39,0,0,1,.28-.1h0a.33.33,0,0,1,.23.11.19.19,0,0,1,.06.13s0,.06,0,.07a.3.3,0,0,1-.17,0,.14.14,0,0,0-.15.13.16.16,0,0,0,.13.15.54.54,0,0,0,.37-.12.32.32,0,0,0,.12-.26.47.47,0,0,0-.13-.35.65.65,0,0,0-.44-.19h0a.62.62,0,0,0-.48.19.7.7,0,0,0-.17.55c.09,1.36,3.51,1.65,5.54,1.71Z"/><path class="cls-1" d="M19.83,44.89h0a.1.1,0,0,0,.06-.12c-.12-.36-.29-.9-.31-1h0a.1.1,0,0,0-.1-.09.08.08,0,0,0-.07,0c0,.05-.05.07.3,1.13A.1.1,0,0,0,19.83,44.89Z"/><path class="cls-1" d="M15,44.9a.09.09,0,0,0,.09-.08l.2-.87a.09.09,0,0,0-.07-.11.11.11,0,0,0-.12.07l-.2.87a.09.09,0,0,0,.08.11Z"/><path class="cls-5" d="M14.1,43.28c0-.18.19-.5.88-.59,1-.12,2.19-.31,2.51-1a13.61,13.61,0,0,0,.35-3.54c0-.46,1.48.59,1.68.74a4.55,4.55,0,0,0,0,2c.25,1,.35,1.68.51,2.26s.11.7-.67.89-.77-.52-.77-.52h-.51s-.41.72-2.29.71S14.1,43.46,14.1,43.28Z"/><path class="cls-3" d="M18.29,39.71a1,1,0,0,0,.34-.13.06.06,0,0,1,.1,0,.07.07,0,0,1,0,.09,1.11,1.11,0,0,1-.39.16,1.06,1.06,0,0,1-.25,0l-.28,0s0-.09,0-.14A1.61,1.61,0,0,0,18.29,39.71Z"/><path class="cls-3" d="M18.59,40.23a.07.07,0,0,1,.1,0,.08.08,0,0,1,0,.1,1.4,1.4,0,0,1-.77.24h-.17s0-.09,0-.14h.16A1.3,1.3,0,0,0,18.59,40.23Z"/><path class="cls-3" d="M18.5,40.84a.07.07,0,1,1,.11.09.91.91,0,0,1-.51.28,2,2,0,0,1-.48,0l0-.14a1.93,1.93,0,0,0,.42,0A.8.8,0,0,0,18.5,40.84Z"/><path class="cls-3" d="M10.35,23.42c.34,6,6,12,12,11.28,6.38-.78,11.06-5.6,10.58-11.59A11.63,11.63,0,0,0,21.37,12.24C15.36,12.24,9.92,16,10.35,23.42Z"/><path class="cls-1" d="M26.15,32.17c-.16-.22.63-.8.79-.63S26.31,32.39,26.15,32.17Z"/><path class="cls-1" d="M27.84,31.43c-.21-.19.51-.69.68-.56S28.05,31.62,27.84,31.43Z"/><path class="cls-1" d="M29.33,30.33c-.16-.11.34-.61.46-.53S29.49,30.44,29.33,30.33Z"/><path class="cls-1" d="M30,28.83c-.16-.13.06-.59.26-.54S30.14,29,30,28.83Z"/><path class="cls-1" d="M26.92,31.12c-.13-.16.53-.66.66-.5S27.06,31.29,26.92,31.12Z"/><path class="cls-1" d="M28.21,30.27c-.16-.1.25-.48.38-.39S28.36,30.37,28.21,30.27Z"/><path class="cls-1" d="M29,29.39c-.18-.13.18-.51.31-.42S29.19,29.51,29,29.39Z"/><path class="cls-1" d="M27.52,30c.13-.2.32-.13.19,0S27.39,30.18,27.52,30Z"/><path class="cls-1" d="M28.33,29.46c.13-.2.33-.13.19,0S28.2,29.66,28.33,29.46Z"/><path class="cls-1" d="M27.31,31.88c.13-.2.32-.13.19,0S27.18,32.08,27.31,31.88Z"/><path class="cls-1" d="M25.66,31.73c.15-.17.34-.08.18.08S25.51,31.91,25.66,31.73Z"/><path class="cls-1" d="M30.09,29.33c.09-.22.3-.18.19,0S30,29.55,30.09,29.33Z"/><path class="cls-6" d="M13.8,23.13a1.78,1.78,0,0,1-1.73-.57,1.34,1.34,0,0,1-.2-.46A1.88,1.88,0,0,1,12,20.74C13.22,18.47,16,22.37,13.8,23.13Z"/><path class="cls-1" d="M13.35,22.92a1.3,1.3,0,0,1-.62,0,1.22,1.22,0,0,1-.75-.45,1,1,0,0,1-.15-.36A1.46,1.46,0,0,1,11.91,21C12.89,19.26,15.07,22.32,13.35,22.92Z"/><path class="cls-6" d="M14.44,27.23a1.09,1.09,0,0,1-.62,0,1.25,1.25,0,0,1-.75-.44,1.22,1.22,0,0,1-.16-.37A1.52,1.52,0,0,1,13,25.35C14,23.56,16.16,26.63,14.44,27.23Z"/><path class="cls-1" d="M14.08,27.07a1,1,0,0,1-.48,0,1,1,0,0,1-.6-.35.81.81,0,0,1-.12-.29,1.19,1.19,0,0,1,.07-.85C13.72,24.18,15.44,26.59,14.08,27.07Z"/><path class="cls-1" d="M20.53,19.8c1.08,2.54,5.67.53,7,0a18,18,0,0,0,4.66-2.41c.56-.49.83-1,.68-1.45a1.31,1.31,0,0,0-1-.77c-1.18-.31-3.34.13-5.72.49C22.27,16.24,19.64,17.71,20.53,19.8Z"/><path class="cls-2" d="M37.08,14.55c.34,1-.86,1.63-1.88,1.89.49,0,1.39,0,1.44.35s-.5.51-1.17.62A5.67,5.67,0,0,1,32.84,17l-.49-1.86a3.51,3.51,0,0,1,1.93-1.33C35.57,13.41,36.73,13.48,37.08,14.55Z"/><path class="cls-3" d="M31.48,15a.48.48,0,0,1,.45-.39.58.58,0,0,1,.46.33,2.72,2.72,0,0,1,.36,1.17c.07.58.37,1.3-.13,1.43s-.69-.41-.82-.68A3.66,3.66,0,0,1,31.48,15Z"/><circle class="cls-3" cx="13.99" cy="9.32" r="5.47"/><path class="cls-7" d="M11.21,9.32c0,.24.09.46.29.46s.29-.26.27-.5-.12-.5-.27-.5S11.18,9,11.21,9.32Z"/><path class="cls-2" d="M12.86,10.53c-.21.4-.32.79,0,1s.7-.09.91-.47.31-.88.08-1S13.09,10.1,12.86,10.53Z"/><path class="cls-7" d="M9.77,12.8a2.86,2.86,0,0,0,.72-.13c.75-.3.94-.74,1-.68a2.11,2.11,0,0,1-.84,1.17,3.62,3.62,0,0,1-.32.22A6.11,6.11,0,0,1,9.77,12.8Z"/><path class="cls-2" d="M5.07,10.19c0-.51,4-1.24,4.31-1.07a1.6,1.6,0,0,1,.47,1.2c0,.53-.26,1-.47,1C9,11.36,5.07,10.66,5.07,10.19Z"/><path class="cls-5" d="M37,3.66l-2,.23V6.34L36.82,7l0-.43-1.42-.51L37,6.34V5.87l-1.44,0,1.52-.11.06-.38-1.65-.08a13.78,13.78,0,0,0,1.69-.09c0-.06.07-.39.07-.39l-1.85,0,2-.13V4.32l-2,0,2-.32Z"/><path class="cls-8" d="M13.84,18.17a10.64,10.64,0,0,0,3.71-1.3C19.25,16,21,14,21.14,13.36a2.94,2.94,0,0,0-1.77-2.91c-.45-.15-.93.85-3.65,2.52s-3.72,1.19-4,1.6C11.17,15.38,12.63,18.23,13.84,18.17Z"/><path class="cls-8" d="M19.05,10.51c.44-.53.73-.59,2.16-.5a4.94,4.94,0,0,0,3.41-1C25.91,7.93,26,5.94,27.1,4.67a5.45,5.45,0,0,1,4.09-1.51,8.9,8.9,0,0,1,3.08.42,5.53,5.53,0,0,1,.79.34,8.63,8.63,0,0,1,0,2.27.88.88,0,0,0,0,.16A9.58,9.58,0,0,0,33,6.2a5.49,5.49,0,0,0-4.1,1.51C27.82,9,27.74,11,26.44,12a6.46,6.46,0,0,1-3.4,1,6.37,6.37,0,0,0-2,.52.8.8,0,0,0,.08-.21C21.39,12.14,19.93,10.83,19.05,10.51Z"/><path class="cls-9" d="M33.32,5.05a3.33,3.33,0,0,1,.23-.89c0-.09.07-.18.1-.27a3.47,3.47,0,0,0,.13-.46l.18,0a3.62,3.62,0,0,1-.13.47c0,.09-.07.18-.1.28a2.5,2.5,0,0,0-.22.83,2.86,2.86,0,0,0,.24,1.09l0,.06h-.21A3,3,0,0,1,33.32,5.05Z"/><path class="cls-9" d="M32.15,5.84a2.22,2.22,0,0,1-.27-.63,2.09,2.09,0,0,1,.29-1.28c.08-.18.16-.37.22-.55a1.16,1.16,0,0,0,0-.18l.19,0a1.74,1.74,0,0,1,0,.22,5.48,5.48,0,0,1-.23.56,2,2,0,0,0-.27,1.18,1.88,1.88,0,0,0,.24.57,1.82,1.82,0,0,1,.16.31,1.11,1.11,0,0,1,.07.16l-.2,0a.3.3,0,0,0,0-.1C32.26,6,32.2,5.94,32.15,5.84Z"/><path class="cls-9" d="M30.74,6.35a1.5,1.5,0,0,1-.61-.79,1.33,1.33,0,0,1,0-.63l0-.11a3.66,3.66,0,0,0,0-1.58l.18,0a3.83,3.83,0,0,1,0,1.65l0,.11a1.3,1.3,0,0,0,0,.55,1.33,1.33,0,0,0,.55.68l0,0a1.7,1.7,0,0,1,.24.22l-.2.06-.15-.13Z"/><path class="cls-9" d="M27.92,6.2c-.18,0-.36-.12-.54-.19a2.21,2.21,0,0,1-.82-.54l.1-.18a1.94,1.94,0,0,0,.79.55A4.72,4.72,0,0,0,28,6c.2.07.41.14.6.22a3.51,3.51,0,0,1,1.14.8l-.16.1a3.48,3.48,0,0,0-1-.73C28.32,6.33,28.12,6.27,27.92,6.2Z"/><path class="cls-9" d="M27.83,8a6,6,0,0,0-1.73-.2H26a2.54,2.54,0,0,1-.48,0l.08-.18h.46a6.67,6.67,0,0,1,1.78.21,1.7,1.7,0,0,1,.71.32l0,0s-.07.1-.1.16l0,0A1.56,1.56,0,0,0,27.83,8Z"/><path class="cls-9" d="M25.07,11.5l-.29-.1a2,2,0,0,1-.89-.45,2,2,0,0,1-.36-.64c-.06-.15-.12-.3-.17-.46l-.05-.12.18-.07.05.13c.05.15.1.3.16.45a1.75,1.75,0,0,0,.33.58,1.64,1.64,0,0,0,.8.4l.3.1a2,2,0,0,1,.9.6,1.32,1.32,0,0,1,.19.29l-.16.1a1.53,1.53,0,0,0-.17-.27A2,2,0,0,0,25.07,11.5Z"/><path class="cls-9" d="M23.32,12.14l-.34-.3a3.47,3.47,0,0,1-.83-.92,2.27,2.27,0,0,1-.23-.91l.18,0a2.23,2.23,0,0,0,.22.84,3.08,3.08,0,0,0,.79.87l.34.31a2.21,2.21,0,0,1,.6.91l-.19,0A2.14,2.14,0,0,0,23.32,12.14Z"/><path class="cls-9" d="M21,10.58c0-.19,0-.39,0-.59h.19l0,.58a4.93,4.93,0,0,0,.13,1.21,3.87,3.87,0,0,0,.82,1.43l-.2,0a4.05,4.05,0,0,1-.81-1.43A5.34,5.34,0,0,1,21,10.58Z"/><path class="cls-9" d="M18.73,11.9l-.13,0a1.49,1.49,0,0,1-.44-.17,1,1,0,0,1-.25-.25l.14-.12a.63.63,0,0,0,.22.21,1.16,1.16,0,0,0,.38.15l.14,0a4.23,4.23,0,0,1,2,1.73l.17.25a1.74,1.74,0,0,1-.11.18l-.21-.32A4,4,0,0,0,18.73,11.9Z"/><path class="cls-9" d="M17.66,13.33l-.06,0a1.35,1.35,0,0,1-.42-.16,1.1,1.1,0,0,1-.35-.47,2.52,2.52,0,0,1-.15-.33l.16-.1.15.35a.82.82,0,0,0,.66.53l.06,0a4,4,0,0,1,2.34,1.74l-.14.14A3.82,3.82,0,0,0,17.66,13.33Z"/><path class="cls-9" d="M17.64,15.68a4.18,4.18,0,0,0-.61-.27q-.29-.11-.57-.24a3.38,3.38,0,0,1-1.57-1.72l.16-.09A3.23,3.23,0,0,0,16.54,15a5.55,5.55,0,0,0,.56.24,5,5,0,0,1,.63.27,3.15,3.15,0,0,1,.86.68l-.15.12A2.86,2.86,0,0,0,17.64,15.68Z"/><path class="cls-9" d="M15.46,16.45,15,16.23a3.67,3.67,0,0,1-.6-.29,2.46,2.46,0,0,1-.9-1.2,4.37,4.37,0,0,1-.17-.62l.18-.06a4.37,4.37,0,0,0,.17.62,2.29,2.29,0,0,0,.82,1.1,3.33,3.33,0,0,0,.57.27,4.74,4.74,0,0,1,.51.24,2.18,2.18,0,0,1,.92,1.11l-.17.07A2,2,0,0,0,15.46,16.45Z"/><path class="cls-9" d="M13.18,17.2a4,4,0,0,1-.54-.62,3.18,3.18,0,0,1-.41-2.23l.19,0a3.14,3.14,0,0,0,.37,2.16,4.7,4.7,0,0,0,.52.58l.34.36a2.22,2.22,0,0,1,.43.72l-.19,0a2.24,2.24,0,0,0-.38-.62Z"/><path class="cls-5" d="M10.63,1.76c.45-.62,1.53-2.36,6.29-1.55s7,4.71,8,5.89c.85,1,.68,1.43,2.59,2.19s1.35.86,1.35.86c-.34.76-3.13,1.61-5.62.62S20.94,5.34,19.6,5.63c-.57.12-.3,1.76-.3,1.76s-3.24-1-4.83-.81S9.59,4.63,9.59,4.63A14.22,14.22,0,0,1,10.63,1.76Z"/><path class="cls-2" d="M11,2.35c.18-.19.34,0,.3.23s-.18.47-.37.5a.09.09,0,0,1-.11,0,.11.11,0,0,1,0-.07A.74.74,0,0,1,11,2.35Z"/><path class="cls-2" d="M12,1.44c.16,0,.06.12,0,.17a2.52,2.52,0,0,0-.25.21.36.36,0,0,1-.24.09l0,0a.07.07,0,0,1,0,0,.41.41,0,0,1,.18-.33A.44.44,0,0,1,12,1.44Z"/><path class="cls-2" d="M12.55,1.24c-.13-.14.11-.36.23-.4s.47,0,.51.11-.18.17-.26.2S12.66,1.35,12.55,1.24Z"/><path class="cls-2" d="M14,.87A.12.12,0,0,1,13.9.78.15.15,0,0,1,14,.62a.65.65,0,0,1,.19,0,.94.94,0,0,1,.55.11.07.07,0,0,1,0,.09l-.09,0-.49.07A.66.66,0,0,1,14,.87Z"/><path class="cls-2" d="M13.56,1.09A.38.38,0,0,1,13.81,1a.18.18,0,0,1,.18.16.08.08,0,0,1,0,.05s0,0-.07,0l-.28.1c-.08,0-.21.06-.24,0S13.46,1.15,13.56,1.09Z"/><path class="cls-2" d="M12.63,1.53a.16.16,0,0,1,.25.13c0,.1-.07.12-.15.15s-.23.16-.31.13,0-.23.07-.29A.41.41,0,0,1,12.63,1.53Z"/><path class="cls-2" d="M11.9,2.13c.16,0,.24.14.13.23s-.11.06-.16.12-.11.16-.23.15a.07.07,0,0,1,0-.06.49.49,0,0,1,.17-.36A.57.57,0,0,1,11.9,2.13Z"/><path class="cls-2" d="M25.23,9.88c0-.16-.59-.18-.61,0S25.23,10.05,25.23,9.88Z"/><path class="cls-2" d="M24.13,9.72c.06-.16-.46-.25-.52-.14S24.06,9.88,24.13,9.72Z"/><path class="cls-2" d="M23.06,9.33c.09-.08-.27-.33-.33-.27S23,9.41,23.06,9.33Z"/><path class="cls-2" d="M22.36,8.76c.07-.11-.14-.33-.25-.27S22.3,8.86,22.36,8.76Z"/><path class="cls-2" d="M24.56,9.6c.05-.12-.51-.29-.56-.18S24.51,9.72,24.56,9.6Z"/><path class="cls-2" d="M23.54,9.25c.07-.08-.23-.22-.29-.15S23.47,9.34,23.54,9.25Z"/><path class="cls-2" d="M22.84,8.78c.09-.1-.18-.28-.25-.21S22.75,8.88,22.84,8.78Z"/><path class="cls-2" d="M22.12,8.22A.06.06,0,1,0,22,8.17C22,8.25,22.07,8.31,22.12,8.22Z"/><path class="cls-3" d="M32.61,11.28c-.07.26,0,.54-.11.8a1.19,1.19,0,0,1-.93.69,6,6,0,0,1-1.2,0,1.57,1.57,0,0,1-.75-.13c-.21-.12-.36-.34-.59-.4a1.78,1.78,0,0,1-.47-.06.6.6,0,0,1-.2-.22,3,3,0,0,1,.11-3.22,1.43,1.43,0,0,1,.33-.32,4.75,4.75,0,0,1,.64-.2,1.25,1.25,0,0,0,.63-.48,3,3,0,0,0,1.09.48c.2,0,.41,0,.61.07a1.15,1.15,0,0,1,.77.67c.06.15.09.32.15.48s.14.24.2.36.39.78.24,1-.19.05-.27.1A.61.61,0,0,0,32.61,11.28Z"/><path class="cls-6" d="M32,11.89a.11.11,0,0,1,0-.1l0-.1.06-.09.08-.09a.16.16,0,0,1,.11,0c.09,0,.1.09.07.16a.5.5,0,0,1-.16.19l-.11.08S32,11.91,32,11.89Z"/><path class="cls-6" d="M31.36,12.26l.12-.12a.41.41,0,0,1,.11-.07.09.09,0,0,1,.11,0c0,.06,0,.1-.05.13a.24.24,0,0,1-.11.06l-.05,0,0,0a.11.11,0,0,1-.07,0l0,0S31.32,12.3,31.36,12.26Z"/><path class="cls-6" d="M30.51,12.6a.07.07,0,0,1,0-.06.3.3,0,0,1,.15-.07l.09,0a.13.13,0,0,1,.09,0c.06,0,0,.1,0,.13a.61.61,0,0,1-.19,0C30.59,12.65,30.52,12.64,30.51,12.6Z"/><path class="cls-6" d="M31,11.5s0-.05,0-.08l.13-.12.09,0h.1c.06,0,0,.1,0,.14l-.16.09C31.05,11.51,31,11.53,31,11.5Z"/><path class="cls-6" d="M30.61,12.05a.1.1,0,0,1,0-.1.9.9,0,0,1,.2-.14.3.3,0,0,1,.26,0c.08.05,0,.14,0,.19S30.65,12.15,30.61,12.05Z"/><path class="cls-6" d="M31.44,11.73s0-.05,0-.07a.36.36,0,0,1,.1-.14s.11-.1.17-.09.06.09,0,.14S31.48,11.79,31.44,11.73Z"/><path class="cls-1" d="M19.25,5.71a19.27,19.27,0,0,0-5.36-2.09c-1.92-.32-3.22-.11-4,.43-.33.24-1.25.37-1.5,1.24A1.8,1.8,0,0,0,9,7.16c.82.42,2.11-.63,5.06-.06a9.66,9.66,0,0,1,4.37,1.57c1,.55,1.8,0,1.93-.66A2.15,2.15,0,0,0,19.25,5.71Z"/><path class="cls-3" d="M19.3,5.45a19.6,19.6,0,0,0-5.45-2.17c-1.95-.33-3.27-.12-4,.45C9.49,4,8.55,4.11,8.3,5a1.92,1.92,0,0,0,.56,2c.83.43,2.07-.56,5.14-.07s3.26.91,4.4,1.53,1.83,0,2-.66A2.11,2.11,0,0,0,19.3,5.45Z"/><path class="cls-6" d="M11.55,3.76a6,6,0,0,0-1.11.18,3.18,3.18,0,0,0-1.12.47A.6.6,0,0,0,9,4.79a.25.25,0,0,0,0,.09c0,.06.11.07.17.07a2.38,2.38,0,0,0,1-.41A3.45,3.45,0,0,1,12,4.12c.12,0,.88.07.56-.18A1.65,1.65,0,0,0,11.55,3.76Z"/><path class="cls-6" d="M18.88,8.28a1.23,1.23,0,0,1-.35-.16c-.05,0-.12-.1-.09-.17s.11,0,.17,0a3,3,0,0,1,.6.18s.08,0,.09.07S18.94,8.3,18.88,8.28Z"/><path class="cls-6" d="M18,7.86a.15.15,0,0,1-.13-.11,0,0,0,0,1,0,0s.05,0,.09,0,.09,0,.11.05S18.08,7.87,18,7.86Z"/><path class="cls-3" d="M41,39.11h0s0,0,0-.06a19.49,19.49,0,0,0,3.38-7.73s0,0,.05,0,0,0,0,0A19.66,19.66,0,0,1,41,39.09Z"/><path class="cls-3" d="M23.17,47.31H23a9.11,9.11,0,0,1-4.09-.93s0,0,0-.06a0,0,0,0,1,.06,0,8.84,8.84,0,0,0,4,.92,26.41,26.41,0,0,0,4.18-.38,0,0,0,0,1,.05,0s0,0,0,0A28.07,28.07,0,0,1,23.17,47.31Z"/><path class="cls-3" d="M23.18,46.46a0,0,0,1,1,0-.08,10.14,10.14,0,0,0,4.51-1.13,0,0,0,0,1,.06,0s0,0,0,.06a10.2,10.2,0,0,1-4.55,1.13Z"/><path class="cls-3" d="M42.28,33.58h0a.05.05,0,0,1,0,0,18.65,18.65,0,0,0,.17-5.22s0,0,0,0a0,0,0,0,1,0,0,18.78,18.78,0,0,1-.17,5.24A.07.07,0,0,1,42.28,33.58Z"/></g></g></svg>