<svg xmlns="http://www.w3.org/2000/svg" viewBox="0 0 33.38 68.44"><defs><style>.cls-1{fill:#fff;}.cls-2{fill:#fa8573;}.cls-3{fill:#c86e29;}.cls-4{fill:#3d4e68;}.cls-5{fill:#bad3ce;}.cls-6{fill:#d4e9e5;}</style></defs><g id="Layer_2" data-name="Layer 2"><g id="Image"><path class="cls-1" d="M29.42,29.48C29,36.26,22.63,43,15.9,42.2,8.71,41.32,3.43,35.89,4,29.12A13.09,13.09,0,0,1,17,16.87C23.77,16.87,29.9,21.05,29.42,29.48Z"/><circle class="cls-1" cx="16.69" cy="11.81" r="6.16"/><path class="cls-2" d="M20,12.21c0-.37-3-.91-3.19-.79a1.15,1.15,0,0,0-.42.87c0,.39.27.79.42.79C17.16,13.08,20,12.57,20,12.21Z"/><path class="cls-3" d="M14.92,10.88c0,.28-.11.52-.33.52s-.33-.29-.31-.56.14-.56.31-.56S15,10.58,14.92,10.88Z"/><path class="cls-3" d="M19.65,10.88c0,.28-.11.52-.33.52s-.34-.29-.31-.56.14-.56.31-.56S19.68,10.58,19.65,10.88Z"/><path class="cls-3" d="M17,15.11a1.65,1.65,0,0,1-1.15-.51.1.1,0,0,1,0-.14.11.11,0,0,1,.14,0,1.53,1.53,0,0,0,1,.45,1.09,1.09,0,0,0,.89-.44.1.1,0,1,1,.17.11A1.33,1.33,0,0,1,17,15.11Z"/><path class="cls-4" d="M20.63,7.25c-.13.34-2,.75-3.94.75s-3.79-.41-3.93-.75c-.28-.67.7-6.52,1.35-6.93s4.69-.47,5.22.09S20.88,6.59,20.63,7.25Z"/><path class="cls-1" d="M33.34,51.79c-.51,8.86-3.64,17-17.69,16.64A15.92,15.92,0,0,1,.05,51.32a17.14,17.14,0,0,1,17-16C26,35.29,34,40.75,33.34,51.79Z"/><path class="cls-5" d="M26,40.84c-.29.3.81,1.39,1.09,1.16S26.34,40.53,26,40.84Z"/><path class="cls-5" d="M28.5,42.36c-.37.25.64,1.18.92,1S28.86,42.11,28.5,42.36Z"/><path class="cls-5" d="M30.55,44.41c-.27.13.4,1,.6.92S30.83,44.27,30.55,44.41Z"/><path class="cls-5" d="M31.23,46.86c-.28.17,0,.94.28.9S31.5,46.7,31.23,46.86Z"/><path class="cls-5" d="M27,42.63c-.24.23.66,1.15.9.93S27.26,42.41,27,42.63Z"/><path class="cls-5" d="M28.81,44.25c-.26.12.27.8.5.69S29.07,44.13,28.81,44.25Z"/><path class="cls-5" d="M29.85,45.79c-.31.15.16.82.4.72S30.16,45.64,29.85,45.79Z"/><path class="cls-5" d="M27.68,44.54c.15.34.47.28.3,0S27.52,44.21,27.68,44.54Z"/><path class="cls-5" d="M28.82,45.53c.15.33.47.27.3,0S28.66,45.19,28.82,45.53Z"/><path class="cls-5" d="M27.78,41.55c.15.34.47.28.3,0S27.62,41.22,27.78,41.55Z"/><path class="cls-5" d="M25.19,41.41c.2.31.51.2.3-.07S25,41.1,25.19,41.41Z"/><path class="cls-5" d="M31.51,46.12c.1.35.42.35.3,0S31.41,45.76,31.51,46.12Z"/><path class="cls-6" d="M15.21,34.29a1.68,1.68,0,0,0,1.4.71,2.19,2.19,0,0,0,.71-.14,1.78,1.78,0,0,0,.64-.33,1.48,1.48,0,0,0,.49-1.43,1.76,1.76,0,0,0-.95-1.21A2.13,2.13,0,0,0,16,31.8,1.62,1.62,0,0,0,15.21,34.29Z"/><path class="cls-5" d="M15.73,34.32a1.08,1.08,0,0,0,.91.46,1.5,1.5,0,0,0,.46-.09,1.23,1.23,0,0,0,.41-.21,1,1,0,0,0,.33-.93,1.14,1.14,0,0,0-.62-.78,1.36,1.36,0,0,0-1-.07A1.05,1.05,0,0,0,15.73,34.32Z"/><path class="cls-6" d="M15.21,25.49a1.69,1.69,0,0,0,1.4.72,2.49,2.49,0,0,0,.71-.14,2.16,2.16,0,0,0,.64-.33,1.5,1.5,0,0,0,.49-1.44,1.72,1.72,0,0,0-.95-1.2A2.13,2.13,0,0,0,16,23,1.61,1.61,0,0,0,15.21,25.49Z"/><path class="cls-5" d="M15.73,25.53a1.08,1.08,0,0,0,.91.46,1.5,1.5,0,0,0,.46-.09,1.25,1.25,0,0,0,.41-.22,1,1,0,0,0,.33-.93,1.14,1.14,0,0,0-.62-.78,1.41,1.41,0,0,0-1-.06A1.05,1.05,0,0,0,15.73,25.53Z"/><path class="cls-6" d="M15.21,51.88a1.68,1.68,0,0,0,1.4.71,2.19,2.19,0,0,0,.71-.14,1.78,1.78,0,0,0,.64-.33,1.48,1.48,0,0,0,.49-1.43,1.72,1.72,0,0,0-.95-1.2,2.08,2.08,0,0,0-1.55-.1A1.62,1.62,0,0,0,15.21,51.88Z"/><path class="cls-5" d="M15.73,51.91a1.08,1.08,0,0,0,.91.46,1.5,1.5,0,0,0,.46-.09,1.23,1.23,0,0,0,.41-.21,1,1,0,0,0,.33-.93,1.14,1.14,0,0,0-.62-.78,1.31,1.31,0,0,0-1-.06A1,1,0,0,0,15.73,51.91Z"/><path class="cls-6" d="M15.21,43.09a1.71,1.71,0,0,0,1.4.71,2.49,2.49,0,0,0,.71-.14,2.16,2.16,0,0,0,.64-.33,1.49,1.49,0,0,0,.49-1.43,1.72,1.72,0,0,0-.95-1.21A2.13,2.13,0,0,0,16,40.6,1.62,1.62,0,0,0,15.21,43.09Z"/><path class="cls-5" d="M15.73,43.12a1.08,1.08,0,0,0,.91.46,1.5,1.5,0,0,0,.46-.09,1.25,1.25,0,0,0,.41-.22,1,1,0,0,0,.33-.93,1.16,1.16,0,0,0-.62-.78,1.41,1.41,0,0,0-1-.06A1.05,1.05,0,0,0,15.73,43.12Z"/><path class="cls-5" d="M23.68,19.75a2.15,2.15,0,0,0,1.78.91,3.13,3.13,0,0,0,.9-.18,2.72,2.72,0,0,0,.81-.42,1.91,1.91,0,0,0,.63-1.82,2.25,2.25,0,0,0-1.21-1.53,2.74,2.74,0,0,0-2-.12A2.06,2.06,0,0,0,23.68,19.75Z"/><path class="cls-5" d="M5.81,19.75a2.18,2.18,0,0,0,1.78.91,3.13,3.13,0,0,0,.91-.18,2.72,2.72,0,0,0,.81-.42,1.91,1.91,0,0,0,.63-1.82,2.25,2.25,0,0,0-1.21-1.53,2.74,2.74,0,0,0-2-.12A2.07,2.07,0,0,0,5.81,19.75Z"/></g></g></svg>