<svg xmlns="http://www.w3.org/2000/svg" viewBox="0 0 77.89 124.13"><defs><style>.cls-1{fill:#fff;}.cls-2{fill:#bad3ce;}.cls-3{fill:#d4e9e5;}.cls-4{fill:#fa8573;}.cls-5{fill:#c86e29;}.cls-6{fill:#3d4e68;}</style></defs><g id="Layer_2" data-name="Layer 2"><g id="Map_with_elements" data-name="Map with elements"><path class="cls-1" d="M77.81,85.15C76.62,105.84,64.92,126.06,36.53,124,14.46,122.37-1.55,104.72.12,84.06c1.73-21.48,19-37.41,39.71-37.41S79.29,59.4,77.81,85.15Z"/><path class="cls-2" d="M23.4,115.28c.54-.76-2.2-2.77-2.75-2.18S22.85,116.05,23.4,115.28Z"/><path class="cls-2" d="M17.57,112.73c.72-.65-1.77-2.37-2.34-1.94S16.85,113.39,17.57,112.73Z"/><path class="cls-2" d="M12.44,108.93c.55-.37-1.18-2.11-1.58-1.83S11.89,109.3,12.44,108.93Z"/><path class="cls-2" d="M10.2,103.79c.54-.45-.21-2.05-.89-1.87S9.65,104.23,10.2,103.79Z"/><path class="cls-2" d="M20.72,111.67c.46-.57-1.8-2.29-2.25-1.73S20.26,112.25,20.72,111.67Z"/><path class="cls-2" d="M16.3,108.72c.53-.34-.86-1.65-1.3-1.34S15.77,109.06,16.3,108.72Z"/><path class="cls-2" d="M13.54,105.69c.62-.43-.61-1.74-1.09-1.44S12.92,106.12,13.54,105.69Z"/><path class="cls-2" d="M18.67,107.72c-.44-.68-1.11-.45-.64.16S19.11,108.4,18.67,107.72Z"/><path class="cls-2" d="M15.87,105.93c-.44-.68-1.11-.45-.64.16S16.31,106.62,15.87,105.93Z"/><path class="cls-2" d="M19.4,114.27c-.45-.68-1.12-.45-.65.16S19.84,115,19.4,114.27Z"/><path class="cls-2" d="M25.07,113.77c-.53-.61-1.17-.29-.62.25S25.6,114.39,25.07,113.77Z"/><path class="cls-2" d="M9.82,105.5c-.32-.75-1-.63-.66,0S10.14,106.24,9.82,105.5Z"/><path class="cls-3" d="M34.48,86.69a5.2,5.2,0,0,0,4.28,2.17,7.32,7.32,0,0,0,2.17-.42,6.52,6.52,0,0,0,2-1,4.63,4.63,0,0,0,1.51-4.38,5.39,5.39,0,0,0-2.91-3.68,6.53,6.53,0,0,0-4.74-.29C33.56,80.09,32.63,84.05,34.48,86.69Z"/><path class="cls-2" d="M36.07,86.78a3.35,3.35,0,0,0,2.78,1.41,4.89,4.89,0,0,0,1.41-.27,4.39,4.39,0,0,0,1.27-.66,3,3,0,0,0,1-2.84A3.52,3.52,0,0,0,40.62,82a4.26,4.26,0,0,0-3.08-.19A3.22,3.22,0,0,0,36.07,86.78Z"/><path class="cls-3" d="M35.14,73a5.23,5.23,0,0,0,4.29,2.17,7.32,7.32,0,0,0,2.17-.42,6.35,6.35,0,0,0,1.95-1,4.61,4.61,0,0,0,1.52-4.38,5.39,5.39,0,0,0-2.91-3.68,6.47,6.47,0,0,0-4.74-.28C34.22,66.39,33.3,70.35,35.14,73Z"/><path class="cls-2" d="M36.73,73.07a3.39,3.39,0,0,0,2.79,1.41,4.76,4.76,0,0,0,1.4-.27,4.15,4.15,0,0,0,1.27-.66,3,3,0,0,0,1-2.84,3.52,3.52,0,0,0-1.89-2.39,4.21,4.21,0,0,0-3.08-.18A3.22,3.22,0,0,0,36.73,73.07Z"/><circle class="cls-1" cx="38.95" cy="31.17" r="18.82" transform="translate(-5.61 53.61) rotate(-65.41)"/><path class="cls-4" d="M49.17,32.42c0-1.14-9.07-2.8-9.73-2.42a3.53,3.53,0,0,0-1.3,2.66c0,1.2.83,2.41,1.3,2.41C40.39,35.07,49.17,33.49,49.17,32.42Z"/><path class="cls-5" d="M33.55,28.36c-.08.86-.33,1.59-1,1.59s-1-.89-.95-1.72.42-1.73.95-1.73S33.64,27.42,33.55,28.36Z"/><path class="cls-5" d="M48,28.36c-.08.86-.33,1.59-1,1.59s-1-.89-.94-1.72.42-1.73.94-1.73S48.07,27.42,48,28.36Z"/><path class="cls-5" d="M40,41.27a5.13,5.13,0,0,1-3.53-1.56.3.3,0,0,1,0-.43.29.29,0,0,1,.42,0A4.56,4.56,0,0,0,40,40.67a3.35,3.35,0,0,0,2.72-1.33.3.3,0,0,1,.5.33A4,4,0,0,1,40,41.27Z"/><path class="cls-6" d="M54.2,12.64a1.9,1.9,0,0,0-.89-1.44.74.74,0,0,0-1,.26.75.75,0,0,0,.25,1,.38.38,0,0,1,.17.32,1,1,0,0,1-.28.81,3.69,3.69,0,0,1-2.05.7l-.45,0C49.86,11.05,48.91,0,38.73,0,28.37,0,27.91,11.42,28,14.52a5.21,5.21,0,0,1-2.22-.66,1.18,1.18,0,0,1-.55-.61.34.34,0,0,1,.05-.3.78.78,0,0,0,.35-1,.74.74,0,0,0-1-.36,1.75,1.75,0,0,0-.88,2.08,2.7,2.7,0,0,0,1.18,1.47A7,7,0,0,0,28,16c1.16.13,2.33.16,3.46.2,2.77.08,5.57.17,8.39.17a84.33,84.33,0,0,0,10.77-.6,4.88,4.88,0,0,0,2.89-1.11A2.54,2.54,0,0,0,54.2,12.64Z"/><path class="cls-2" d="M60.65,55.44a6.6,6.6,0,0,0,5.43,2.76,9.32,9.32,0,0,0,2.76-.54,7.9,7.9,0,0,0,2.48-1.28,5.81,5.81,0,0,0,1.92-5.55,6.82,6.82,0,0,0-3.69-4.67,8.19,8.19,0,0,0-6-.37C59.48,47.07,58.3,52.1,60.65,55.44Z"/><path class="cls-2" d="M6.1,55.44a6.62,6.62,0,0,0,5.44,2.76,9.26,9.26,0,0,0,2.75-.54,8,8,0,0,0,2.49-1.28,5.85,5.85,0,0,0,1.92-5.55A6.8,6.8,0,0,0,15,46.16a8.17,8.17,0,0,0-6-.37C4.93,47.07,3.76,52.1,6.1,55.44Z"/></g></g></svg>