<svg xmlns="http://www.w3.org/2000/svg" viewBox="0 0 29.23 52.33"><defs><style>.cls-1{fill:#739b68;}.cls-2{fill:#f45b44;}</style></defs><g id="Layer_2" data-name="Layer 2"><g id="Image"><path class="cls-1" d="M23,35.66a16.69,16.69,0,0,0-7.23-4c-.05-1.73-.09-3.21-.08-4.24,0-1.22,0-2.49,0-4.64,1.41,1.8,3.24,4.1,5,6s6.61,5.65,7.66,4.47c.77-.88-1.75-4.78-3.11-6.28a103.63,103.63,0,0,0-9.43-9.3c0-2.65-.22-4.81-.34-6.56a49.32,49.32,0,0,0,4.84,5.09c.67.63,1.48,1.29,2.26,1.15a.46.46,0,0,0,.3-.15c.14-.19,0-.5-.06-.75a10,10,0,0,0-.91-1.55,33.75,33.75,0,0,0-5.35-6.67A3.78,3.78,0,0,0,15,7.25c-.2,0-1.11-.6-2.7.92a36.9,36.9,0,0,0-5.56,6.29c-.34.49-.87,1.4-.66,2,.45,1.26,2.75-.24,3.43-.86a25.41,25.41,0,0,0,3.37-3.89c0,1.88-.05,4.19,0,6.57a11.92,11.92,0,0,0-1.41,1.12c-3.38,3-6.31,5.44-9.1,9.11C1.8,29.24.23,31.42.82,32.14c1,1.24,4.85-1.3,6-2.28,2.22-1.92,3.88-3,6.24-5.89,0,1.94,0,2.21,0,3.72,0,1,.05,2.33.06,3.89A7.8,7.8,0,0,0,11,32.65a48,48,0,0,0-9.23,8.57,13.32,13.32,0,0,0-1.57,2c-.19.32-.31.7-.1,1C1.54,46,7,41.74,8.27,40.78a50.47,50.47,0,0,0,4.9-4.72c.06,7.43.28,16.27,1.69,16.27s1.25-9,1-16.46a72.62,72.62,0,0,0,8.82,7c1.17.81,3.7,2.15,4.43,1.29C30,43.14,24.61,37.18,23,35.66Z"/><path class="cls-2" d="M13.23,8.37c-.1.25-.54,3.92-.3,4.06s2.18-4,2.18-4,3.52,2.83,3.72,2.48S17,7.33,17,7.33s3.81-1.59,3.66-1.83-4.2,0-4.2,0A53.25,53.25,0,0,0,18.73.55c-.13-.19-3.86,3.66-3.86,3.66S13.63-.14,13.43,0A44.53,44.53,0,0,0,13,5S8.82,3.52,8.63,3.77s3,3.27,3,3.27S8.9,10,9,10.35C9.22,10.9,13.23,8.37,13.23,8.37Z"/></g></g></svg>