<svg xmlns="http://www.w3.org/2000/svg" viewBox="0 0 240.57 299.1"><defs><style>.cls-1{fill:#d4e9e5;}.cls-2{fill:#4c6b51;}.cls-3{fill:#f45b44;}.cls-4{fill:#faa497;}.cls-5{fill:#fbf2d6;}.cls-6{fill:#f2b669;}</style></defs><g id="Layer_2" data-name="Layer 2"><g id="Map_with_elements" data-name="Map with elements"><path class="cls-1" d="M32.47,215.05c0,.67-22.33,26-26.25,33.48s-8.48,18.93-5,22.2,17.26-4.65,25.36-13.47,10-12.55,10-12.55L28.5,262.14c-3.7,7.92-6.27,17.93-2,20.07,6.1,3.05,19.35-5.68,26.47-16.16s11.42-18.38,11.42-18.38l-7,26.31s-4.67,14,3.51,16.25c11.07,3.08,21.5-19.32,21.5-19.32l7.47-15.14s-.48,18.53-1,25.9.2,13.89,4.55,14.28c6.22.55,12.85-12.5,14.75-17.86,2.33-6.55,5.7-19.42,5.7-19.42s1,17.33,2.69,24.56,1,15.87,6.81,15.87,9.5-20.35,9.71-25.83.68-18,.68-18,4.83,22.13,6.61,26.45,4.93,13.17,11.26,12.29,4.51-17.15,4.53-22.07.12-19.53.12-19.53,3.94,13.18,6.51,21.29c3.22,10.19,11.49,24.45,20.05,19.54,7-4-.14-24.36-1.61-30a94.63,94.63,0,0,1-2.08-13.66s5.86,12.32,10.17,21.31c5.59,11.65,14.72,16.17,20.16,12,5.1-3.88,3.57-15.49-.17-23.56-3.13-6.76-5.49-13-5.49-13s11.17,15.12,15.94,19.23c7.21,6.21,14.9,8.78,19.13,6.48,5.89-3.19-5.12-26.85-10.76-37.32-11.14-20.68-38.32-44.22-38.32-44.22S173.54,159.07,130.94,157,32.47,215.05,32.47,215.05Z"/><path class="cls-2" d="M36.63,209.42c0,.69-21.4,27-25.17,34.71s-8.15,19.6-4.81,23S22,260.16,29.72,251s11.86-13.39,11.86-13.39l-8.88,20.5c-3.56,8.21-6,18.53-2,20.77s17.31-7.22,24.14-18.07S67.63,240.7,67.63,240.7l-7.38,29.6s-4.48,14.41,3.3,16.79,19.56-21,19.56-21l8.26-16.18s-.56,20.64-1.08,28.26.14,14.6,4.31,14.75,10.93-13.48,13.44-18.71S114.17,253,114.17,253s1.48,19.16,3.11,26.63.35,16.45,5.91,16.43,9.35-26.74,9.35-26.74l.82-21.5s5.08,24.74,6.76,29.2,4,14.59,10.08,13.66,4.36-17.74,4.4-22.83.21-25.93.21-25.93,4.67,18.36,7.09,26.74c3,10.54,10.93,23.89,18.91,22.32,6.34-1.25-.87-26.57-2.25-32.18s-3.68-15.62-2.18-15.83,7.55,12.8,11.64,22.08c5.31,12,12.95,19.7,18.15,15.41,4.89-4,2.77-17.42-.77-25.75a143.67,143.67,0,0,1-5.33-15.51s11.65,16.82,16.2,21.06c6.87,6.4,15.78,11.26,19.83,8.87,5.63-3.32-6.08-29.91-12.65-39.88-7.3-11.07-36.48-45.62-36.48-45.62s-15.43-32.55-56.12-34.56S36.63,209.42,36.63,209.42Z"/><path class="cls-1" d="M61.29,162s-22.63,29.33-28.56,39.59-9.32,18.23-6.35,21.06c3.31,3.14,14.32-5.81,21.83-13.32a197.72,197.72,0,0,0,13.6-15.91s-9.17,16.08-13,23c-2.37,4.27-7.63,16.16-3.11,19.51s17.77-9.65,22.62-14.55,12.29-16.8,12.29-16.8S76.23,215,75,222.85s-4.19,24.79,1,26.57,16.82-15.83,21-24.25,9.56-21.44,9.56-21.44-2.82,18-2.88,28.16-.42,23.81,5.28,24,14.08-27.43,16.16-35,5.32-18.56,5.32-18.56.31,16.39,3.08,29.37,8.77,30.84,13.71,29.44,5.86-29.65,6.45-36.78.72-17.75.72-17.75,4.08,16,7.1,22.34,9.5,20.22,14.14,18.17,2.73-24.68,1.15-30.15S172,199.91,172,199.91s6,16,9.08,21.56,11,23,16.87,18.76-2.26-22.81-3.76-26.36S189.83,200,189.83,200s4.92,7.49,9.06,15.27c3.33,6.25,14.53,11.11,17.74,9.12s-1.69-18.39-9.77-31.73c-7.92-13.07-14.4-24.49-14.4-24.49s-24-45.88-62-45.34S61.29,162,61.29,162Z"/><path class="cls-2" d="M65.31,158.31S43.85,186.83,38.22,196.8s-8.83,17.72-6,20.46c3.12,3.05,13-5.52,19.64-13.3,2.17-2.54,15.43-20.42,15.43-20.42s-10.2,20.93-13.83,27.63c-2.25,4.15-7.24,15.7-3,19s16.06-9.26,20.11-14.51,13.59-19.69,13.59-19.69-4.77,13.87-6,21.55-4,24.08.88,25.81,14.8-16,18.82-24.14,10.6-22.91,10.6-22.91-3.08,20.11-3.15,30-.41,23.14,5,23.34,13.36-26.66,15.34-34,5.53-19.7,5.53-19.7-.2,17.59,2.41,30.19,8.28,30,13,28.59,5.57-28.81,6.14-35.73.74-19.27.74-19.27,3.81,17.58,6.66,23.71,9,19.64,13.38,17.65,2.61-24,1.11-29.29-6.09-22.48-6.09-22.48,8,20.7,10.9,26.06,9.68,23.06,15.21,19-2.12-22.16-3.54-25.61-4.14-16.83-4.14-16.83,6.7,12.19,10.22,18,12.16,11,15.2,9S210.76,201,203.12,188c-7.48-12.69-13.6-23.78-13.6-23.78s-22.69-44.55-58.69-44S65.31,158.31,65.31,158.31Z"/><path class="cls-1" d="M84.44,116.78S77.81,132.27,72,140.54s-15.83,21.48-11.88,25,11.94-5.1,15.72-10.05S86,140.76,86,140.76s-6.07,14-7.49,21.18-1.2,14.46,1.88,14.89S91.11,168.9,93.25,164s11.64-23,11.64-23-8.11,20.38-9.73,28.65-3.65,18.54,1.53,19.67,11-5.61,15.2-17.8S121.7,141,121.7,141s-2.45,21.37-2,31.26,2,19.07,6.27,19.69,6.73-9.62,9.23-19.56a152.21,152.21,0,0,0,3.42-21.33s2.88,14.47,5.82,22.91,7.54,20.7,12.49,19.17S161,175,159.86,167.34s-2.5-20.16-2.5-20.16,2.09,9.34,10.35,24,13,18.87,17.3,17-2.37-19.23-5.25-25.05-6.84-15.93-6.53-15.45,6.82,7.9,13,16.16,12.37,13.59,15.56,11.24-2-14.74-11.08-26.05a250.51,250.51,0,0,1-19.18-27.86c-2.74-4.56-35.48-61-44.17-61.3C114,59.38,84.44,116.78,84.44,116.78Z"/><path class="cls-2" d="M87,112.1s-6.3,15.51-11.86,23.79-15,21.5-11.3,25,11.31-5.13,14.9-10.09,9.67-14.76,9.67-14.76-5.78,14-7.14,21.19-1.16,14.47,1.75,14.89,10.19-7.95,12.22-12.82,11.07-23,11.07-23S98.63,156.69,97.08,165s-3.49,18.55,1.41,19.66,10.41-5.63,14.42-17.82,9.34-30.52,9.34-30.52-2.36,21.36-2,31.26,1.9,19.06,5.89,19.68,6.39-9.64,8.77-19.59a159.67,159.67,0,0,0,3.28-21.33s2.7,14.46,5.46,22.9,7.09,20.68,11.78,19.14,3.94-18.23,2.84-25.84S156,142.35,156,142.35s2,9.34,9.74,24,12.26,18.84,16.34,17-2.2-19.23-4.91-25.05-6.45-15.91-6.15-15.43,6.43,7.88,12.3,16.13S195,172.55,198,170.19s-1.91-14.74-10.44-26a250.45,250.45,0,0,1-18.08-27.82c-2.59-4.56-33.46-60.89-41.68-61.21C115.16,54.65,87,112.1,87,112.1Z"/><path class="cls-1" d="M96,82.24s11.22-22.58,14.28-33.89S117,18.81,121.44,18.67s9.27,24.28,18.21,39.9,23,39.93,28.27,47.55,7.1,16.63,3.39,19S155.19,116.9,152,110.45s-7.76-16.35-7.76-16.35,3.76,17.74,4.28,25.64-.46,12.18-2.81,13.48-8.85-5.59-11.57-18-4.19-25.79-4.19-25.79a208.94,208.94,0,0,1-1.15,21.72c-1.16,8.76-1.93,16.14-5.55,16.16S119.13,114,119,104.72s-.38-20.24-.38-20.24-4.73,20.67-7.82,28.58-5.37,20-11,20.57-2.19-20.46.09-28.4a109.49,109.49,0,0,1,5.14-14.16s-7.73,13-12.91,19.58-8.55,11.33-11.86,9C75.48,116.19,96,82.24,96,82.24Z"/><path class="cls-2" d="M97.94,76s10.59-22.6,13.49-33.91S117.8,12.55,122,12.4s8.65,24.26,17,39.86,21.49,39.88,26.45,47.48,6.63,16.61,3.14,19-15.13-8.14-18.12-14.58-7.26-16.33-7.26-16.33,3.5,17.73,4,25.62-.46,12.18-2.67,13.48-8.3-5.56-10.83-18-3.87-25.77-3.87-25.77,0,13-1.14,21.72S126.8,121,123.41,121s-3.82-13.27-3.93-22.54-.32-20.23-.32-20.23-4.49,20.67-7.41,28.59-5.08,20-10.35,20.6-2-20.46.15-28.4a114.06,114.06,0,0,1,4.86-14.17s-7.29,13-12.17,19.6-8.06,11.35-11.16,9C78.57,110,97.94,76,97.94,76Z"/><path class="cls-3" d="M118.38,23.29c-.28.69-1.52,10.88-.83,11.29s6.06-11.15,6.06-11.15,9.78,7.85,10.33,6.88-5.23-9.91-5.23-9.91l-1.51-5.2S134,2,133.66,1.53s-10.74,10.19-10.74,10.19S119.48-.4,118.93,0s-1.21,13.81-1.21,13.81-11.6-4-12.16-3.34S114,19.57,114,19.57s-7.64,8.31-7.3,9.23C107.22,30.31,118.38,23.29,118.38,23.29Z"/><path class="cls-3" d="M81.07,124.19c0,.06,0,.1,0,.13l.12.07a11.42,11.42,0,0,0,2.9,3.81c-1.94.4-3.38,2-4.41,3.67-.88,1.41-2.49,3.34-2.63,4.26s2.13-.93,3.28-.8c1.44.16,2.8.75,4.22,1a4.35,4.35,0,0,0,4-1A15.79,15.79,0,0,0,90,147.73c.85-2,3-3.06,4.9-4.23a7.58,7.58,0,0,0,2.8-6.72c1.37,1.1.92,4.82,4.37,6,2.17.73,6,.16,7.62.79-1.23-.66-1.45-7.64-2.66-9.28s-4.57-3.34-5.82-3.75c1.79-.29,6.39-.1,9.12-2.76,2-2,2.91-4.79,4.78-6.89a9.52,9.52,0,0,1-6.31.37,31.29,31.29,0,0,0-6.33-1.14c-2.15,0-3.57,1.72-4.51,3.63.27-1.8,2.39-5.9,2.14-9.36-.38-5.4-4-7.25-4.7-6.61s-3.53,3.54-4.18,6.23.11,6.75-.29,8.72c-.29-1.75-2.42-5.47-4-6.2a10.68,10.68,0,0,0-5.29-.68A19.52,19.52,0,0,0,74,118.05a14.55,14.55,0,0,1,6.65,5.5Z"/><path class="cls-4" d="M87.07,132.59c1.94-.25,5.62-1.9,5.45-1.56-.6,1.22,2,5.31,5.09,5.05,3.71-.32,4.77,1.21,4.77,1.21.81-1.4,0-3.6-1.11-5.8a6.94,6.94,0,0,0-4.58-3.78,7.93,7.93,0,0,0,2.34-4c.58-2.5-1.75-5.75-2.23-5.65s-4.3,2.53-4.74,5.54a5.22,5.22,0,0,0,.82,3.81c-1.17-1-4-.9-5.78-.36-3.14,1-5.46,4.18-5.21,4.57S85,132.86,87.07,132.59Z"/><path class="cls-2" d="M94.12,131.44a.48.48,0,0,0,.57-.37.52.52,0,0,0-.23-.66.49.49,0,0,0-.57.37C93.8,131.05,93.9,131.38,94.12,131.44Z"/><path class="cls-2" d="M93.67,130.62a1.24,1.24,0,0,0,.42-.57.68.68,0,0,0,0-.58.78.78,0,0,0-1.12,0,1.19,1.19,0,0,0-.43.57.68.68,0,0,0,0,.58A.78.78,0,0,0,93.67,130.62Z"/><path class="cls-2" d="M96.2,129.26a.52.52,0,0,0,.36-.59.46.46,0,0,0-.54-.38.52.52,0,0,0-.36.59A.46.46,0,0,0,96.2,129.26Z"/><path class="cls-2" d="M94.81,129c.47.08.79-.42.84-.92s-.06-.92-.5-.92-.59.47-.73.79C94.21,128.51,94.28,128.94,94.81,129Z"/><path class="cls-2" d="M92.66,129a1.24,1.24,0,0,0,.87,0,2.33,2.33,0,0,0,.42-.2.65.65,0,0,0,.28-.34.44.44,0,0,0-.07-.41,1,1,0,0,0-.3-.25,1.23,1.23,0,0,0-.69-.11l-.27,0a1,1,0,0,0-.62.26.48.48,0,0,0-.1.59A.77.77,0,0,0,92.66,129Z"/><path class="cls-2" d="M95.22,130.86a.57.57,0,0,0,.49.14.6.6,0,0,0,.39-.36,1.09,1.09,0,0,0,.08-.65,1,1,0,0,0-.3-.56.53.53,0,0,0-.48-.15.67.67,0,0,0-.4.36,1.09,1.09,0,0,0-.07.65A1.07,1.07,0,0,0,95.22,130.86Z"/><path class="cls-3" d="M193.69,165.86s0,.08,0,.1l-.09,0a8.22,8.22,0,0,1-2.14,2.82,5.48,5.48,0,0,1,3.26,2.71c.65,1.05,1.83,2.47,1.94,3.15s-1.57-.69-2.42-.59c-1.06.12-2.07.55-3.12.73a3.22,3.22,0,0,1-3-.75,11.7,11.7,0,0,1-1,9.18c-.63-1.49-2.25-2.26-3.62-3.12a5.59,5.59,0,0,1-2.07-5c-1,.81-.69,3.56-3.23,4.41-1.61.53-4.41.11-5.63.57.91-.48,1.06-5.64,2-6.85a11.33,11.33,0,0,1,4.3-2.77c-1.32-.21-4.72-.07-6.74-2-1.49-1.46-2.15-3.54-3.53-5.09a7.07,7.07,0,0,0,4.66.27,23.46,23.46,0,0,1,4.68-.84c1.59,0,2.64,1.27,3.34,2.68-.2-1.33-1.77-4.36-1.59-6.92.28-4,3-5.35,3.47-4.88s2.62,2.62,3.09,4.6-.08,5,.21,6.45c.22-1.3,1.79-4,3-4.58a8,8,0,0,1,3.91-.51,14.6,14.6,0,0,1,5.59,1.66A10.74,10.74,0,0,0,194,165.4Z"/><path class="cls-4" d="M189.25,172.07c-1.43-.18-4.15-1.4-4-1.15.45.9-1.51,3.92-3.76,3.73-2.75-.24-3.53.89-3.53.89-.6-1,0-2.65.83-4.28a5.13,5.13,0,0,1,3.38-2.8,5.83,5.83,0,0,1-1.73-2.93c-.43-1.85,1.29-4.25,1.65-4.18s3.18,1.87,3.5,4.09a3.89,3.89,0,0,1-.6,2.82c.86-.72,3-.66,4.27-.26,2.32.71,4,3.08,3.84,3.37A6.81,6.81,0,0,1,189.25,172.07Z"/><path class="cls-2" d="M184.05,171.22a.36.36,0,0,1-.43-.27c-.06-.2,0-.44.17-.49a.36.36,0,0,1,.43.28C184.28,170.94,184.21,171.18,184.05,171.22Z"/><path class="cls-2" d="M184.38,170.62a1,1,0,0,1-.31-.42.49.49,0,0,1,0-.43.56.56,0,0,1,.82,0,.93.93,0,0,1,.32.42.53.53,0,0,1,0,.43A.59.59,0,0,1,184.38,170.62Z"/><path class="cls-2" d="M182.51,169.61a.38.38,0,0,1-.26-.44.32.32,0,0,1,.39-.27.37.37,0,0,1,.27.43A.34.34,0,0,1,182.51,169.61Z"/><path class="cls-2" d="M183.54,169.45c-.35.06-.58-.31-.62-.68s0-.68.37-.68.43.35.54.59S183.93,169.37,183.54,169.45Z"/><path class="cls-2" d="M185.13,169.39a.91.91,0,0,1-.65,0,2.23,2.23,0,0,1-.31-.15A.5.5,0,0,1,184,169a.33.33,0,0,1,.06-.3.67.67,0,0,1,.22-.18.88.88,0,0,1,.51-.09l.2,0a.81.81,0,0,1,.46.19.36.36,0,0,1,.07.44A.58.58,0,0,1,185.13,169.39Z"/><path class="cls-2" d="M183.23,170.79a.41.41,0,0,1-.36.11.49.49,0,0,1-.29-.26.81.81,0,0,1-.05-.49.7.7,0,0,1,.21-.41.4.4,0,0,1,.36-.11.5.5,0,0,1,.3.26.86.86,0,0,1,0,.48A.77.77,0,0,1,183.23,170.79Z"/><path class="cls-3" d="M114,249.53s-.07.05-.1,0l-.07-.07a8.7,8.7,0,0,1-3.34-1.4,5.62,5.62,0,0,1-1.85,3.93c-.87.91-2,2.45-2.62,2.73s.28-1.73,0-2.55c-.39-1-1.08-1.9-1.53-2.9a3.3,3.3,0,0,1,0-3.14,12,12,0,0,1-9.36,1.32c1.31-1,1.66-2.8,2.16-4.39a5.71,5.71,0,0,1,4.38-3.33c-1.07-.8-3.7.24-5.19-2.06-1-1.45-1.26-4.34-2-5.43.72.77,5.86-.4,7.29.18a11.62,11.62,0,0,1,3.86,3.54c-.13-1.36-1.15-4.69.28-7.2,1.06-1.85,3-3,4.13-4.81a7.3,7.3,0,0,0,.93,4.69,23.16,23.16,0,0,1,2,4.41c.41,1.58-.57,3-1.79,4,1.26-.54,3.86-2.88,6.44-3.36,4-.74,6.07,1.56,5.73,2.19s-1.91,3.26-3.76,4.24-5,1.21-6.33,1.87c1.34-.11,4.47.73,5.31,1.79a8.1,8.1,0,0,1,1.51,3.74,14.83,14.83,0,0,1-.2,6,11,11,0,0,0-5.29-3.82Z"/><path class="cls-4" d="M106.72,246.73c-.18-1.46.32-4.47.11-4.28-.78.67-4.28-.48-4.66-2.76-.48-2.78-1.8-3.26-1.8-3.26.87-.86,2.63-.71,4.45-.29a5.23,5.23,0,0,1,3.65,2.62,6.05,6.05,0,0,1,2.46-2.47c1.72-.9,4.54.19,4.56.56s-1,3.63-3.15,4.53a4,4,0,0,1-2.94.12c.93.68,1.42,2.77,1.36,4.17-.11,2.47-2,4.78-2.35,4.67A6.93,6.93,0,0,1,106.72,246.73Z"/><path class="cls-2" d="M106.22,241.35a.36.36,0,0,1,.17-.48.38.38,0,0,1,.52,0,.37.37,0,0,1-.16.49A.39.39,0,0,1,106.22,241.35Z"/><path class="cls-2" d="M106.91,241.53a.93.93,0,0,1,.33-.42.51.51,0,0,1,.44-.08.6.6,0,0,1,.24.81,1,1,0,0,1-.33.42.51.51,0,0,1-.44.08A.59.59,0,0,1,106.91,241.53Z"/><path class="cls-2" d="M107.43,239.42a.39.39,0,0,1,.36-.38.34.34,0,0,1,.37.32.38.38,0,0,1-.36.38A.33.33,0,0,1,107.43,239.42Z"/><path class="cls-2" d="M107.85,240.39c-.15-.32.15-.65.51-.78s.68-.14.77.19-.23.52-.44.68S108,240.77,107.85,240.39Z"/><path class="cls-2" d="M108.31,242a1,1,0,0,1-.19-.64,1.7,1.7,0,0,1,.07-.34.47.47,0,0,1,.19-.27.31.31,0,0,1,.31,0,.69.69,0,0,1,.24.18.92.92,0,0,1,.22.48l0,.2a.81.81,0,0,1-.07.5.36.36,0,0,1-.42.19A.65.65,0,0,1,108.31,242Z"/><path class="cls-2" d="M106.44,240.44a.42.42,0,0,1-.2-.33.5.5,0,0,1,.19-.36.87.87,0,0,1,.93-.07.42.42,0,0,1,.2.33.48.48,0,0,1-.19.36.89.89,0,0,1-.46.18A.8.8,0,0,1,106.44,240.44Z"/><path class="cls-5" d="M129.42,93.92a2.45,2.45,0,0,1-2.69,1.21c-2.88-.79-3.73-5.76-1.12-7C128.84,86.61,130.87,91.4,129.42,93.92Z"/><path class="cls-5" d="M148.83,143a2.44,2.44,0,0,1-1.07,2.75c-2.6,1.47-6.7-1.47-5.69-4.18C143.28,138.19,148.1,140.17,148.83,143Z"/><path class="cls-5" d="M110.28,174.15a2.46,2.46,0,0,1-2.43,1.67c-3-.26-4.71-5-2.35-6.67C108.39,167.06,111.26,171.41,110.28,174.15Z"/><path class="cls-5" d="M123.73,208.06a2.23,2.23,0,0,1-2.59.66c-2.46-1.14-2.46-5.71.07-6.41C124.32,201.43,125.41,206,123.73,208.06Z"/><path class="cls-5" d="M202.8,199.6a2.22,2.22,0,0,1-2.67.15c-2.19-1.59-1.31-6.07,1.3-6.27C204.65,193.21,204.84,197.93,202.8,199.6Z"/><path class="cls-5" d="M197.83,251.55a2.22,2.22,0,0,1-2.37,1.25c-2.65-.54-3.71-5-1.42-6.25C196.87,245,199,249.19,197.83,251.55Z"/><path class="cls-5" d="M50.84,186.06a2.45,2.45,0,0,1,2,2.13c.22,3-4.19,5.44-6.21,3.38C44.14,189,48,185.52,50.84,186.06Z"/><path class="cls-5" d="M63.78,213.42a2.45,2.45,0,0,1,2.93-.36c2.52,1.61,1.86,6.6-1,7C62.18,220.57,61.65,215.39,63.78,213.42Z"/><path class="cls-5" d="M27.39,232.2a2.45,2.45,0,0,1,1.68,2.42c-.24,3-5,4.73-6.65,2.38C20.31,234.12,24.65,231.23,27.39,232.2Z"/><path class="cls-5" d="M94,259a2.47,2.47,0,0,1,2.93-.35c2.52,1.6,1.86,6.6-1,7C92.36,266.11,91.83,260.93,94,259Z"/><path class="cls-5" d="M44.86,249.85a2.45,2.45,0,0,1,2.93-.36c2.52,1.61,1.87,6.61-1,7C43.26,257,42.73,251.82,44.86,249.85Z"/><path class="cls-5" d="M99.4,81.17c-.56-1.71.54-3.9,1.61-4.93s3.38-1,4.88.78c1,1.13.5,5-1.35,6S100.05,83.13,99.4,81.17Z"/><path class="cls-5" d="M166.19,141.32c-1.72-.56-2.83-2.75-3-4.21s1.21-3.32,3.52-3.48c1.48-.11,4.31,2.54,4,4.6S168.15,142,166.19,141.32Z"/><path class="cls-5" d="M149.17,101c.13-1.51,1.71-2.84,2.88-3.27a2.93,2.93,0,0,1,3.51,2.22c.37,1.2-1.27,4-3,4.15A3.12,3.12,0,0,1,149.17,101Z"/><path class="cls-5" d="M134,164.6c.3-1.49-.84-3.21-1.84-4a3,3,0,0,0-4,1.14c-.69,1,.09,4.22,1.73,4.84A3.13,3.13,0,0,0,134,164.6Z"/><path class="cls-5" d="M77.37,192.84c1.24-.88,1.59-2.91,1.38-4.14a2.94,2.94,0,0,0-3.69-1.92c-1.22.28-2.84,3.12-2.07,4.7A3.14,3.14,0,0,0,77.37,192.84Z"/><path class="cls-5" d="M108.7,224.36c.6-1.53-.38-3.7-1.36-4.79a3.33,3.33,0,0,0-4.67.13c-1,.93-.65,4.58,1.08,5.71S108,226.11,108.7,224.36Z"/><path class="cls-5" d="M67.39,274.29c1.45-.76,2.13-3.05,2.1-4.51a3.32,3.32,0,0,0-3.61-3c-1.34.08-3.49,3-2.92,5S65.73,275.17,67.39,274.29Z"/><path class="cls-5" d="M174.27,260.26c.21-1.63-1.25-3.51-2.46-4.34a3.34,3.34,0,0,0-4.51,1.23c-.71,1.14.45,4.61,2.4,5.3S174,262.11,174.27,260.26Z"/><path class="cls-5" d="M133.87,249.45c.55-1.55-.5-3.69-1.52-4.74a3.33,3.33,0,0,0-4.67.28c-.92,1-.49,4.6,1.27,5.67S133.25,251.22,133.87,249.45Z"/><path class="cls-5" d="M143.88,217.16c-.53-1.43.43-3.5,1.38-4.55a3.18,3.18,0,0,1,4.43,0c.89.86.54,4.31-1.12,5.41S144.5,218.8,143.88,217.16Z"/><path class="cls-5" d="M116,274.61c-.48-1.27.38-3.11,1.23-4a2.82,2.82,0,0,1,3.93,0c.79.77.47,3.83-1,4.81S116.59,276.06,116,274.61Z"/><path class="cls-5" d="M206.46,227.1c1-1.14,3.31-1.24,4.67-.88a3.16,3.16,0,0,1,2,3.94c-.35,1.19-3.57,2.47-5.31,1.51S205.3,228.4,206.46,227.1Z"/><path class="cls-5" d="M179.32,200.45c.34-1.42-1.11-3.79-2.36-5.07s-3.62-2-4.91-.77c-.83.75.19,4.47,2.24,5.94S178.94,202.07,179.32,200.45Z"/><path class="cls-6" d="M204.43,188.77l0-.06a33.19,33.19,0,0,0,2.77-8.88c.87-4.39.3-7.22-1.72-8.68a2.83,2.83,0,0,0-2.26-.55,2.29,2.29,0,0,0-.66.27c-1.27.76-1.54,2.71-1.34,4.57,0,.17.05.34.07.51.59,3.62,1.29,7.28,2,10.82l0,.18q.16.84.33,1.71a13.94,13.94,0,0,1-2.57,3.43,9.19,9.19,0,0,1-7,2.43,6.05,6.05,0,0,1-4.47-2.44c-.11-.16-.22-.32-.31-.48a19.42,19.42,0,0,0,2.07-9.58V182l0-.05a1.55,1.55,0,0,0-1.25-.95,2.21,2.21,0,0,0-2,.76,5.12,5.12,0,0,0-.8,3.36,14.63,14.63,0,0,0,1.17,6.54,21.79,21.79,0,0,1-3.19,4.6,29.71,29.71,0,0,1-12.84,8c-2.4.8-5.53,1.62-8.53.8a7.7,7.7,0,0,1-2.72-1.41,11.15,11.15,0,0,0,1.36-3.46,4.66,4.66,0,0,0-.8-3.74,1.85,1.85,0,0,0-1.61-.66c-1.37.13-2.18,1.72-2.17,3.18a6.71,6.71,0,0,0,2.26,4.83,17.47,17.47,0,0,1-9.54,6.48c-5.72,1.77-11.26,1.55-15.6-.62a14.63,14.63,0,0,1-5.95-5.49c.7-.95,1.35-1.93,2-2.94.94-1.57,1.85-3.44,1.52-5.39a3.88,3.88,0,0,0-2.09-2.74,2.44,2.44,0,0,0-2.32,0,4.08,4.08,0,0,0-1.66,3.33,13.12,13.12,0,0,0,1.72,7.65A37.46,37.46,0,0,1,115.22,215c-3.53,1.75-8.91,3.63-14.5,2.62a15.07,15.07,0,0,1-10.55-7.41c2.7-1.75,4.62-3.91,5.08-6.05a2.43,2.43,0,0,0-1.35-2.67,3.71,3.71,0,0,0-4.2.32c-1.93,1.82-1.7,5-.91,7.11.13.35.28.71.44,1.05a24,24,0,0,1-9.68,3.21s-13.28.66-17.64-4.75c-3.27-4.05-2.93-9.29-2.57-14.83,0-.07,0-.15,0-.23a24.79,24.79,0,0,0,6.9,1.45c1,.07,2,.11,3,.11a39.3,39.3,0,0,0,26.39-10.18,17.25,17.25,0,0,0,4.83-6.71,28.77,28.77,0,0,0,18.42-7.4,26.67,26.67,0,0,0,7.43-11.88,13.66,13.66,0,0,0,8.56.73c5.6-1.38,9.46-6.15,11.87-9.61,2.83-4.06,4.44-7.79,4.82-11.16a10.33,10.33,0,0,0,4.28.59c4.52-.43,8.56-4.17,9.82-9.09,1-3.81.49-8.22-1.49-13.48-.66-1.77-1.44-3.52-2.19-5.22a70.09,70.09,0,0,1-2.94-7.36c-.17-.55-.36-1.12-.55-1.71-.56-1.73-1.16-3.54-1.54-5.3a8.16,8.16,0,0,0,1.36-.33,5.77,5.77,0,0,0,3.5-3.11,3.84,3.84,0,0,0,.28-1.59c-.06-1.16-.7-3.86-2.24-4.32a1.74,1.74,0,0,0-1.32.18,4.79,4.79,0,0,0-1.44,1.4c-1.41,2-1.48,4.49-1,7.13a19.1,19.1,0,0,1-3.92-.21c-4.93-.63-11.16-1.85-15.59-5.6a9.85,9.85,0,0,1-2.26-2.81l.19-.1a3.78,3.78,0,0,0,1.45-1.91c1-2.39,2.65-6.84,1.8-9.76-.43-1.45-1.25-2.37-2.21-2.45-.6-.06-1.77.18-2.88,2.4-1.24,2.47-1.2,7.4.62,11.35a6.75,6.75,0,0,1-1.47-.06c-5.78-.69-11.26-1.62-14.6-5.41a12.09,12.09,0,0,1-2.68-5.6c.39-.14.76-.3,1.12-.47a8.65,8.65,0,0,0,4.65-5,5.22,5.22,0,0,0-.84-4.71,2.8,2.8,0,0,0-2.61-1.07c-2.54.36-3.13,3.49-3.27,4.82a22.48,22.48,0,0,0,.12,5.93,13,13,0,0,1-8.06-.17,18.34,18.34,0,0,1-5.88-3.61c-.11.24-.22.47-.32.7a19,19,0,0,0,6,3.6,13.78,13.78,0,0,0,8.45.2,12.69,12.69,0,0,0,2.82,5.86c3.51,4,9.37,5,15.07,5.64a6.33,6.33,0,0,0,1.89,0,10.5,10.5,0,0,0,2.48,3.15c4.58,3.87,10.94,5.12,16,5.77a20.56,20.56,0,0,0,4.15.21,55.28,55.28,0,0,0,1.58,5.44c.19.58.38,1.15.55,1.7a69.66,69.66,0,0,0,3,7.43c.75,1.69,1.52,3.44,2.18,5.19,1.92,5.11,2.4,9.37,1.47,13-1.19,4.64-5,8.15-9.19,8.55a9.84,9.84,0,0,1-4.15-.62,11.76,11.76,0,0,0-.8-5.14c-.43-1.07-2.06-3-3.42-3h0a1.41,1.41,0,0,0-1.33,1,4.58,4.58,0,0,0,.68,4.64,9.83,9.83,0,0,0,4.11,3c-.32,3.29-1.9,7-4.71,11-2.35,3.37-6.08,8-11.45,9.32a12.94,12.94,0,0,1-8.17-.72,25.46,25.46,0,0,0,.86-8.33c-.11-1.69-.45-4.12-2.18-5.7a4.58,4.58,0,0,0-4.35-.89,3.45,3.45,0,0,0-2.15,3.18A12.19,12.19,0,0,0,123.24,157a13.14,13.14,0,0,0,2.39,1.53,26,26,0,0,1-7.27,11.64,28,28,0,0,1-17.69,7.2c.08-.29.15-.58.2-.87.55-3.11-.77-7.12-4.3-8.44a5.94,5.94,0,0,0-5.63,1.08,4.18,4.18,0,0,0-1.67,3.9c.52,3.15,4.22,4.62,7.51,4.95,1,.09,1.92.13,2.88.13a16.74,16.74,0,0,1-4.55,6.16,38.53,38.53,0,0,1-28.8,9.88,23.83,23.83,0,0,1-6.91-1.49c.3-4.75.43-9.59-2.07-13.59a6,6,0,0,0-4-2.75A2.69,2.69,0,0,0,51,177c-1,1-1,2.59-.83,3.69.35,2.89,1.42,7,4.51,9.84a13.76,13.76,0,0,0,4,2.54l0,.48c-.35,5.43-.71,11.06,2.73,15.33s9.27,5.27,14,5.27a37.48,37.48,0,0,0,4.27-.26h0a24.48,24.48,0,0,0,9.92-3.3,15.81,15.81,0,0,0,11,7.73c4.58.83,9.75-.09,15-2.68a38,38,0,0,0,13.14-10.91,15.45,15.45,0,0,0,6.1,5.52c4.5,2.25,10.24,2.49,16.14.66a18.3,18.3,0,0,0,9.88-6.7,8.39,8.39,0,0,0,2.93,1.49c3.22.88,6.65-.05,9-.82a30.47,30.47,0,0,0,13.16-8.21,22.69,22.69,0,0,0,3.08-4.36l.1.15a6.8,6.8,0,0,0,5,2.75,9.94,9.94,0,0,0,7.57-2.63,14.37,14.37,0,0,0,2.29-2.87,150,150,0,0,1,2.78,19.85c.5,9.19-.51,22.21-8.16,32-2.47,3.17-5,4.83-7.58,4.92a4.82,4.82,0,0,1-2.15-.46,23.49,23.49,0,0,0,.69-3.69c.16-1.54-.19-3.43-1.69-3.73a2.46,2.46,0,0,0-2.52,1.82,4.56,4.56,0,0,0,.75,4.25,6.41,6.41,0,0,0,1.89,1.71,26.37,26.37,0,0,1-5.58,9.77c-.66.74-1.36,1.45-2.09,2.12a29.93,29.93,0,0,1-7.41,5,37.61,37.61,0,0,1-12.23,3.25c-1.43.15-2.89.23-4.39.25a62.09,62.09,0,0,1-9.95-.72,16.84,16.84,0,0,1-7.12-2.3,9.74,9.74,0,0,1-2.17-2l.67-.39c3.07-1.77,6.11-3.87,7.6-7.15a8.49,8.49,0,0,0,.18-6.4,5.43,5.43,0,0,0-2.93-3.16,6.16,6.16,0,0,0-6.91,2.11,10.88,10.88,0,0,0-2.07,7.3,15.08,15.08,0,0,0,.23,2.13,14.38,14.38,0,0,0,.94,3.09,12.9,12.9,0,0,0,1.21,2.23l-.63.35c-.59.32-1.18.62-1.77.92a57.57,57.57,0,0,1-18.85,6.08c-1.23.15-2.44.26-3.65.31s-2.3,0-3.44,0a36.13,36.13,0,0,1-17.9-5.42,31.51,31.51,0,0,1-2.74-1.95A28.18,28.18,0,0,1,84,259.17c.24-.26.48-.53.7-.81,1.5-1.8,3.88-5.41,3-9.3a6.26,6.26,0,0,0-3.84-4.27,4.1,4.1,0,0,0-4,.48c-2.89,2.17-2,6.95.31,10.35A29.94,29.94,0,0,0,83,259.17,23.59,23.59,0,0,1,65.61,266a26.78,26.78,0,0,1-5.87-.82,29,29,0,0,1-5-1.75,33.92,33.92,0,0,1-8.13-5.24,58.44,58.44,0,0,1-10.3-12.83l0-.07a92.91,92.91,0,0,1-5.88-11.1,73.52,73.52,0,0,1-4.08-11.59c-.2.23-.39.47-.59.71A86.41,86.41,0,0,0,35.83,246l.11.18a58.25,58.25,0,0,0,10.2,12.57,34.26,34.26,0,0,0,8.2,5.3,30.84,30.84,0,0,0,5.21,1.85,27.81,27.81,0,0,0,6,.84h.6a24.29,24.29,0,0,0,17.26-7.06,31.58,31.58,0,0,0,3.11,2.76,32.82,32.82,0,0,0,3,2.11c.82.5,1.66,1,2.53,1.41a37.67,37.67,0,0,0,15.36,3.92c.54,0,1.09,0,1.63,0l1.63,0c1.3,0,2.61-.16,3.93-.32a58.09,58.09,0,0,0,18.75-6c.66-.33,1.31-.67,2-1l.9-.49a10.36,10.36,0,0,0,2.4,2.28,17.4,17.4,0,0,0,7.42,2.42,62.32,62.32,0,0,0,10.06.73c1.58,0,3.11-.11,4.6-.26A38.5,38.5,0,0,0,173.12,264a30.47,30.47,0,0,0,7.24-4.77,28.62,28.62,0,0,0,2.29-2.25c.49-.54,1-1.09,1.41-1.66a26.28,26.28,0,0,0,4.5-8.49,5.6,5.6,0,0,0,2.39.49c2.78-.1,5.52-1.85,8.13-5.2,7.79-10,8.82-23.21,8.31-32.52A154.86,154.86,0,0,0,204.43,188.77ZM202,175.83c0-.27-.07-.54-.09-.82a4.35,4.35,0,0,1,.76-3.31,1.52,1.52,0,0,1,.7-.39,2.09,2.09,0,0,1,.35,0,2.3,2.3,0,0,1,1.32.48c1.75,1.25,2.23,3.92,1.44,7.94a35.28,35.28,0,0,1-2.32,7.89l-.15-.77C203.35,183.21,202.63,179.5,202,175.83ZM114.28,70c.1-.91.57-3.88,2.65-4.18l.31,0a2.15,2.15,0,0,1,1.64.83,4.47,4.47,0,0,1,.71,4,7.92,7.92,0,0,1-4.28,4.57c-.3.14-.61.28-.93.4A21.72,21.72,0,0,1,114.28,70ZM134,87.27c-1.79-3.74-1.85-8.48-.67-10.84.64-1.29,1.4-2,2.08-2h.08c.64.06,1.24.8,1.57,1.93.79,2.7-.76,7-1.76,9.27a3.09,3.09,0,0,1-1.15,1.57Zm23.71,2.57a3.89,3.89,0,0,1,1.2-1.19,1.15,1.15,0,0,1,.53-.15.83.83,0,0,1,.22,0c1,.29,1.65,2.32,1.72,3.66a3.21,3.21,0,0,1-.05.69,4.77,4.77,0,0,1-3.23,3.28,8.07,8.07,0,0,1-1.27.3C156.34,94,156.39,91.61,157.67,89.84ZM147.31,135a3.87,3.87,0,0,1-.59-3.92c.21-.5.47-.56.65-.56h0c.92,0,2.36,1.62,2.75,2.59a11,11,0,0,1,.77,4.58A9,9,0,0,1,147.31,135ZM123.7,156.39a11.44,11.44,0,0,1-4.29-10,2.81,2.81,0,0,1,1.68-2.58,3,3,0,0,1,1-.18,4,4,0,0,1,2.56.93c1.17,1.07,1.78,2.72,1.94,5.21a24.83,24.83,0,0,1-.8,8A11.1,11.1,0,0,1,123.7,156.39ZM96.85,177.22c-2.88-.29-6.41-1.59-6.86-4.33a3.49,3.49,0,0,1,1.41-3.22,5.44,5.44,0,0,1,3.4-1.23,4.54,4.54,0,0,1,1.52.26c3,1.14,4.33,4.78,3.83,7.63a9.41,9.41,0,0,1-.24,1A28.47,28.47,0,0,1,96.85,177.22ZM58.69,192.33a12.86,12.86,0,0,1-3.5-2.29c-2.93-2.75-3.95-6.63-4.28-9.4-.12-1-.17-2.31.62-3.08a1.9,1.9,0,0,1,1.39-.56,1.62,1.62,0,0,1,.31,0,5.26,5.26,0,0,1,3.48,2.41C59.05,183.16,59,187.78,58.69,192.33Zm30.78,16.36c-.71-1.93-.94-4.74.73-6.32a2.49,2.49,0,0,1,1.72-.63,3.33,3.33,0,0,1,1.62.42,1.75,1.75,0,0,1,1,1.88c-.42,2-2.19,3.94-4.69,5.57C89.71,209.31,89.59,209,89.47,208.69Zm37.82-12.18a3.53,3.53,0,0,1,1.3-2.77,1.61,1.61,0,0,1,.79-.21,2,2,0,0,1,.85.2,3.12,3.12,0,0,1,1.68,2.2c.29,1.72-.56,3.44-1.43,4.89-.54.9-1.11,1.78-1.73,2.63A12.41,12.41,0,0,1,127.29,196.51Zm33.35,6.61a6,6,0,0,1-1.93-4.18c0-1.11.57-2.36,1.51-2.45h.11a1.16,1.16,0,0,1,.89.42,3.94,3.94,0,0,1,.62,3.11A10.18,10.18,0,0,1,160.64,203.12Zm28.26-12.34a15.22,15.22,0,0,1-.86-5.71,4.64,4.64,0,0,1,.63-2.89,1.48,1.48,0,0,1,1.13-.51h.2a.85.85,0,0,1,.66.45A18.66,18.66,0,0,1,188.9,190.78ZM83.46,258.64a28.22,28.22,0,0,1-2.74-3.43c-2.12-3.12-3-7.46-.48-9.36a3.11,3.11,0,0,1,1.91-.63,4.11,4.11,0,0,1,1.39.26,5.48,5.48,0,0,1,3.38,3.74c.61,2.62-.42,5.79-2.82,8.68C83.89,258.15,83.68,258.4,83.46,258.64ZM134.22,254a10.17,10.17,0,0,1,1.91-6.81,5.83,5.83,0,0,1,4.41-2.22,4.41,4.41,0,0,1,1.65.32,4.8,4.8,0,0,1,2.53,2.76,7.74,7.74,0,0,1-.16,5.83c-1.41,3.09-4.34,5.11-7.3,6.82l-.75.43A13.54,13.54,0,0,1,134.22,254Zm54.51-11.7a21,21,0,0,1-.63,3.4,5.48,5.48,0,0,1-1.51-1.41,3.79,3.79,0,0,1-.66-3.57c.26-.71.88-1.37,1.52-1.37l.18,0C188.58,239.58,188.87,241,188.73,242.32Z"/><path class="cls-6" d="M25.39,218.19c-.26,1.89,0,3.35.89,4.29C25.91,221,25.61,219.57,25.39,218.19Z"/><path class="cls-1" d="M127.41,35.63c-.9-1.49-1.33-.48-1.28.61a14.44,14.44,0,0,0,1.11,4.35c.33.85,1.24,2.12,2,1.72s0-1.53-.15-2.28A12.45,12.45,0,0,0,127.41,35.63Z"/><path class="cls-1" d="M116.52,41.22a7,7,0,0,0-.76,3.39,1.43,1.43,0,0,0,.52,1.26.46.46,0,0,0,.5,0,.7.7,0,0,0,.23-.35c.56-1.48,1.08-3,1.54-4.5a.89.89,0,0,0,0-.62C118.13,39.44,116.79,40.75,116.52,41.22Z"/><path class="cls-1" d="M126.86,51.43c-1.29.51-.13,4.42.12,5.2.07.21.25.47.45.38a.37.37,0,0,0,.17-.29C127.77,56,127.71,51.09,126.86,51.43Z"/><path class="cls-1" d="M134.88,56.29a11.28,11.28,0,0,0,1.89,4.33c.14.2.32.42.57.43.4,0,.59-.5.58-.91a8.27,8.27,0,0,0-1.3-3.76C136,55.33,134.62,54.58,134.88,56.29Z"/><path class="cls-1" d="M125.69,69.49c-.67.94-.45,4.5.38,5.23a.45.45,0,0,0,.43.14c.18,0,.25-.28.28-.47a10.62,10.62,0,0,0-.08-4.09C126.53,69.58,126.26,68.7,125.69,69.49Z"/><path class="cls-1" d="M113.57,55.07c.17-1.14-.77-1.56-1.37-.65a8.29,8.29,0,0,0-.77,3.52,1.35,1.35,0,0,0,.11.77.51.51,0,0,0,.66.25.62.62,0,0,0,.23-.25,4.71,4.71,0,0,0,.55-1.07A12.45,12.45,0,0,0,113.57,55.07Z"/><path class="cls-1" d="M148.29,80.4a.36.36,0,0,0,.06-.2c.12-1-2.09-6.85-3.43-5.26-.78.92,2.16,5.35,3.08,5.52A.36.36,0,0,0,148.29,80.4Z"/><path class="cls-1" d="M110.51,87.77a5.26,5.26,0,0,0-.57,3.12.66.66,0,0,0,.5.46c.41,0,.67-.41.8-.8a2.65,2.65,0,0,0,.12-.37,9.54,9.54,0,0,0,.31-1.28,3.19,3.19,0,0,0,0-1.34C111.43,86.39,110.81,87.12,110.51,87.77Z"/><path class="cls-1" d="M97.36,86.34c-.4-.22-.86.14-1.14.49a8.88,8.88,0,0,0-1.63,2.51c-.18.57.07,1.75.86,1a8.19,8.19,0,0,0,2-2.78C97.66,87.18,97.76,86.57,97.36,86.34Z"/><path class="cls-1" d="M92.64,102a.7.7,0,0,0-.76,0,3.35,3.35,0,0,0-1.66,2.32c-.12,1,.57,1.39,1.19.47.39-.58.78-1.17,1.15-1.77C92.76,102.71,92.94,102.23,92.64,102Z"/><path class="cls-1" d="M140.57,89.8c.27,0,.43-.31.51-.57a3.32,3.32,0,0,0-.49-2.8c-.63-.8-1.39-.58-1.17.51.14.69.29,1.37.46,2.06C140,89.37,140.18,89.84,140.57,89.8Z"/><path class="cls-1" d="M122.43,79.54a3,3,0,0,0-.23,2.65c.1.25.28.53.54.58s.54-.35.6-.7c.09-.65.18-1.29.25-1.94C123.71,79.11,123,78.84,122.43,79.54Z"/><path class="cls-1" d="M105.68,97.54a.73.73,0,0,0-1,.34,5,5,0,0,0-.71,2.36,1.49,1.49,0,0,0,.12.66.6.6,0,0,0,.55.34c.28,0,.47-.29.6-.54a5.81,5.81,0,0,0,.66-2.45A.78.78,0,0,0,105.68,97.54Z"/><path class="cls-1" d="M135.42,68.84a.9.9,0,0,0,.26-.77,6,6,0,0,0-.62-2.46c-.11-.23-.29-.49-.55-.5s-.65.25-.7.77a5.06,5.06,0,0,0,.53,2.41,1.45,1.45,0,0,0,.43.52A.61.61,0,0,0,135.42,68.84Z"/><path class="cls-1" d="M161.81,212.8c-1.29.51-.13,4.43.12,5.2.06.22.24.48.44.38a.39.39,0,0,0,.18-.29C162.71,217.36,162.65,212.47,161.81,212.8Z"/><path class="cls-1" d="M169.82,217.67a11.32,11.32,0,0,0,1.9,4.32c.14.2.31.42.56.44.41,0,.59-.51.59-.92a8.17,8.17,0,0,0-1.31-3.76C171,216.7,169.57,216,169.82,217.67Z"/><path class="cls-1" d="M158.51,237.53c-.67.94-.45,4.49.38,5.22a.45.45,0,0,0,.42.15c.19-.06.25-.29.28-.48a10.38,10.38,0,0,0-.07-4.08C159.35,237.61,159.08,236.73,158.51,237.53Z"/><path class="cls-1" d="M170.89,232.62a.89.89,0,0,0,.26-.76,6,6,0,0,0-.62-2.47c-.11-.23-.29-.49-.55-.5s-.65.25-.7.77a5.06,5.06,0,0,0,.53,2.41,1.37,1.37,0,0,0,.43.52A.61.61,0,0,0,170.89,232.62Z"/><path class="cls-1" d="M151.57,284.65a.85.85,0,0,0,.34-.73,5.79,5.79,0,0,0-.32-2.51c-.09-.25-.24-.52-.5-.56s-.67.17-.78.68a5.08,5.08,0,0,0,.25,2.45,1.34,1.34,0,0,0,.37.57A.6.6,0,0,0,151.57,284.65Z"/><path class="cls-1" d="M90.13,244.06a.85.85,0,0,1-.26-.76,5.84,5.84,0,0,1,.61-2.46c.12-.24.3-.49.56-.5s.65.25.69.76a5.15,5.15,0,0,1-.52,2.41,1.37,1.37,0,0,1-.43.52A.59.59,0,0,1,90.13,244.06Z"/><path class="cls-1" d="M123.56,289.6a.87.87,0,0,0,.44-.67,5.88,5.88,0,0,0,0-2.54c-.05-.26-.16-.55-.41-.63a.74.74,0,0,0-.87.56,5.21,5.21,0,0,0-.11,2.47,1.38,1.38,0,0,0,.29.61A.61.61,0,0,0,123.56,289.6Z"/><path class="cls-1" d="M107.45,113.78a2.21,2.21,0,0,0,.59-1.12c.17-.61.54-3.07-.78-3-.86,0-1.85,3.34-1,4.24C106.57,114.22,107.13,114.07,107.45,113.78Z"/><path class="cls-1" d="M122.31,99.2c-.63,0-.39,3.73.15,3.73s.54-1.07.54-1.82S122.93,99.2,122.31,99.2Z"/><path class="cls-1" d="M119.75,58.2a.45.45,0,0,0-.28,0c-.3.07-.35.47-.33.78l0-.27,0,1.56a2.93,2.93,0,0,0,.12,1,1.07,1.07,0,0,0,.65.69,4.65,4.65,0,0,0,.52-2.9A1.19,1.19,0,0,0,119.75,58.2Z"/><path class="cls-1" d="M120.83,220.31a6.85,6.85,0,0,1-1.45,3.15c-.29.38-.69.88-1.17.7s-.67-1.48-.24-2.78.54-2.22,1.7-2.95S120.91,219.77,120.83,220.31Z"/><path class="cls-1" d="M144.87,272.48A6.92,6.92,0,0,1,145,276c-.09.46-.21,1.1-.73,1.15s-1.26-1-1.47-2.37-.53-2.22.18-3.4S144.68,272,144.87,272.48Z"/><path class="cls-1" d="M128.94,232.44c-.17-1.41-1.51-1.58-2-.28s0,3.18.2,4.44a1.58,1.58,0,0,0,.39.87.73.73,0,0,0,.93.06.81.81,0,0,0,.22-.38,5.81,5.81,0,0,0,.34-1.47A14.06,14.06,0,0,0,128.94,232.44Z"/><path class="cls-1" d="M125.17,109.81c-.62,0-.62,2.1-.62,2.1,0,.44.29,1,.74,1s.63-.57.71-1a2.89,2.89,0,0,0,0-1.24C125.93,110.2,125.8,109.78,125.17,109.81Z"/><path class="cls-1" d="M139.44,220c-1,0-.63,6.11.26,6.11s.89-1.74.89-3S140.47,220,139.44,220Z"/><path class="cls-1" d="M82.32,229.92c-1-.34-2.62,5.55-1.78,5.85s1.42-1.36,1.83-2.52S83.29,230.25,82.32,229.92Z"/><path class="cls-1" d="M146.59,233.82c-1,0-1,3.45-1,3.45.08.72.48,1.6,1.21,1.56s1-.94,1.17-1.66a4.73,4.73,0,0,0,.05-2C147.82,234.46,147.61,233.78,146.59,233.82Z"/><path class="cls-1" d="M169,272.37c-1,.38.17,3.6.17,3.6.32.65,1,1.34,1.67,1.07s.68-1.24.55-2a4.87,4.87,0,0,0-.63-1.95C170.32,272.57,169.9,272,169,272.37Z"/><path class="cls-1" d="M104,256.8c-1.2,0-1.2,4-1.2,4,.1.84.57,1.85,1.41,1.81s1.21-1.09,1.35-1.93a5.54,5.54,0,0,0,.07-2.36C105.46,257.54,105.23,256.75,104,256.8Z"/><path class="cls-1" d="M122,254.61c-.93,0-.93,3-.93,3,.08.63.44,1.39,1.1,1.36s.95-.82,1.06-1.45a4.12,4.12,0,0,0,.05-1.78C123.13,255.17,122.94,254.58,122,254.61Z"/><path class="cls-1" d="M90.94,219.39c-.76-.09-1.15,2.4-1.15,2.4,0,.54.16,1.22.7,1.28s.88-.56,1.05-1.08a3.64,3.64,0,0,0,.28-1.48C91.77,220,91.7,219.48,90.94,219.39Z"/><path class="cls-1" d="M55.42,220.67c-.71-.27-1.71,2-1.71,2-.15.52-.13,1.23.37,1.42s1-.33,1.28-.79A3.65,3.65,0,0,0,56,222C56.07,221.47,56.13,220.94,55.42,220.67Z"/><path class="cls-1" d="M150.22,88.16c-.29-.3-.59-.61-1.14-.3s.44,2.15.44,2.15c.25.37.71.72,1.09.5s.3-.81.16-1.23A3,3,0,0,0,150.22,88.16Z"/><path class="cls-1" d="M110.36,68.06a3,3,0,0,0,.4-1.18c0-.42,0-.85-.58-1S109,67.69,109,67.69c-.08.44,0,1,.42,1.13S110.16,68.46,110.36,68.06Z"/><path class="cls-1" d="M135,99.25a2.72,2.72,0,0,0-.14,2c.08.32.34,1.5,1.36,1.26S136.13,97.85,135,99.25Z"/><path class="cls-1" d="M141.7,104.34c-.76.64.48,3.59,1.05,4.11.21.2.59.34.76.1a.52.52,0,0,0,.07-.22C143.69,107.71,143.1,103.17,141.7,104.34Z"/><path class="cls-1" d="M139.94,115.55c-.78.55.14,2.77.49,3.31a1.51,1.51,0,0,0,.66.62.65.65,0,0,0,.81-.22,1,1,0,0,0,.09-.34,4,4,0,0,0,0-.6C142,117.64,141,114.82,139.94,115.55Z"/><path class="cls-1" d="M138.9,181.66a3,3,0,0,0-.47,2.11c0,.36.11,1.69,1.27,1.6S140.38,180.33,138.9,181.66Z"/><path class="cls-1" d="M120.73,194.46c-.41.2-.67,1-.74,1.37s-.25,1.2.57,1.36S122,193.83,120.73,194.46Z"/><path class="cls-1" d="M145.37,188.34c-1,.58-.08,4,.44,4.66.2.25.59.47.82.24a.63.63,0,0,0,.12-.23C147,192.36,147.09,187.3,145.37,188.34Z"/><path class="cls-1" d="M141.56,200.27c-.95.47-.32,3,0,3.7a1.69,1.69,0,0,0,.61.78.71.71,0,0,0,.92-.1.91.91,0,0,0,.15-.35,3.76,3.76,0,0,0,.12-.67C143.4,202.89,142.83,199.65,141.56,200.27Z"/><path class="cls-1" d="M165.42,109.65a.52.52,0,0,0,.68-.1.63.63,0,0,0,.09-.38c0-.74-.71-4-2-3.46-1,.41.46,2.88.74,3.37A1.44,1.44,0,0,0,165.42,109.65Z"/><path class="cls-1" d="M115.55,132.49a3.7,3.7,0,0,0,.53-1.2c.34-1.09,1.58-5.51-1-4-1.17.67-1.87,3.41-1.69,4.62a1.33,1.33,0,0,0,1.08,1.17A1.27,1.27,0,0,0,115.55,132.49Z"/><path class="cls-1" d="M70.05,204.72a3.86,3.86,0,0,0,.68-1.12c.48-1,2.31-5.25-.5-4.11-1.25.5-2.31,3.12-2.28,4.35a1.34,1.34,0,0,0,.9,1.31A1.32,1.32,0,0,0,70.05,204.72Z"/><path class="cls-1" d="M115.68,143.78c-.64-.09-1.4.5-1.94,1.48-1.37,2.47.46,3.25.78,3.21.85-.09,1.42-.9,1.8-1.66a3.38,3.38,0,0,0,.43-1.74A1.4,1.4,0,0,0,115.68,143.78Z"/><path class="cls-1" d="M127,174.67a.73.73,0,0,0-.45-.14,1.47,1.47,0,0,0-1.53.95,4.11,4.11,0,0,0-.26.91,4.4,4.4,0,0,0-.1,1.94c.15.64.69,1.2,1.25,1.08s.85-.73,1-1.31a8.24,8.24,0,0,0,.33-2.62A1.09,1.09,0,0,0,127,174.67Z"/><path class="cls-1" d="M94,150.14c-1.31.84-3,3.4-1.59,4.19s2.62-4.54,2.38-3.59S95.34,149.31,94,150.14Z"/><path class="cls-1" d="M85.67,159.35c-.51-.15-.79.37-1.24,1.4s-.41,2.31-.18,2.41c.7.33,1.12-.25,1.58-1.18S86.48,159.59,85.67,159.35Z"/><path class="cls-1" d="M66.3,171.82c-.63-.49-1.3.07-2.52,1.27s-1.86,3-1.6,3.28c.8.86,1.72.27,2.87-.78S67.31,172.61,66.3,171.82Z"/><path class="cls-1" d="M76.42,139.76a5.07,5.07,0,0,0-3,3c-.58,2.07,1.78.82,2.34.37A5.21,5.21,0,0,0,77,141.4C77.22,141.05,77.37,139.52,76.42,139.76Z"/><path class="cls-1" d="M70.31,154.92c-.52.57-1.84,2.05-.38,2.81,1.17.63,3.25-3.32,2.4-3.8C71.85,153.66,70.83,154.35,70.31,154.92Z"/><path class="cls-1" d="M136,129.9a1.76,1.76,0,0,0-.5-1,1.15,1.15,0,0,0-1.63.19c-.61.91,0,3,.25,4.1.14.51.42,1.12,1,1.13s.87-.65,1-1.2A8.55,8.55,0,0,0,136,129.9Z"/><path class="cls-1" d="M45.43,201.76a1.84,1.84,0,0,0,.23-1.11,1.17,1.17,0,0,0-1.42-.84c-1,.36-1.84,2.37-2.27,3.42-.2.49-.34,1.15.07,1.48s1.09,0,1.5-.38A8.27,8.27,0,0,0,45.43,201.76Z"/><path class="cls-1" d="M131.55,142.32c.26-.35.7-.54,1-.3a1.35,1.35,0,0,1,.29.86s0,.07,0,.11C133.42,150.3,129.73,144.75,131.55,142.32Z"/><path class="cls-1" d="M107.9,155.56c-1.06,0-2,2.22-2.12,3-.06.55,0,1.27.58,1.39s.84-.35,1.07-.76h0C107.8,158.54,109.24,155.58,107.9,155.56Z"/><path class="cls-1" d="M115.89,187.66a4.09,4.09,0,0,0,.53-1.21c.34-1.08,1.58-5.51-1-4-1.17.67-1.87,3.41-1.68,4.62a1.34,1.34,0,0,0,1.08,1.18A1.32,1.32,0,0,0,115.89,187.66Z"/><path class="cls-1" d="M113.31,206.47c-.64.07-1.23.83-1.51,1.92-.7,2.72,1.26,3,1.57,2.91a2.56,2.56,0,0,0,1.31-2.06,3.3,3.3,0,0,0,0-1.79A1.38,1.38,0,0,0,113.31,206.47Z"/><path class="cls-1" d="M105,194.59c-1.19,0-2.3,2.5-2.4,3.4-.06.62.06,1.43.66,1.56s.95-.39,1.2-.85h0C104.91,198,106.53,194.61,105,194.59Z"/><path class="cls-1" d="M151.56,153.28c-.58,1.12.1,3.58.83,4.48.3.36.85.66,1.21.35a1,1,0,0,0,.25-.83c0-.72,0-1.44,0-2.16C153.84,153.91,152.72,151.07,151.56,153.28Z"/><path class="cls-1" d="M167.85,152.4c-.42-.2-1-.23-1.24.19a1,1,0,0,0,.13.86c.31.66.61,1.31.92,2,.51,1.09,2.73,3.19,2.84.7C170.56,154.84,168.9,152.9,167.85,152.4Z"/><path class="cls-1" d="M149.54,167.22c-.69-.53-1.6-.66-2.07.15-.65,1.12.87,5.42,2.42,4.89.57-.2.69-.93.7-1.53C150.62,169.54,150.6,168,149.54,167.22Z"/><path class="cls-1" d="M90.79,193.78c-.07-.66-.45-1.29-1.1-1.27-.91,0-2.38,2.74-1.33,3.52a1,1,0,0,0,1.14-.17A2.33,2.33,0,0,0,90.79,193.78Z"/><path class="cls-1" d="M155.19,123.06c-.95,1.11.48,5.34,2,4.2a.52.52,0,0,0,.18-.31C157.72,125.88,156.68,121.33,155.19,123.06Z"/><path class="cls-1" d="M26.36,244.17a5.85,5.85,0,0,0-1.52,3.17.7.7,0,0,0,.4.63c.42.16.83-.24,1.09-.61l.24-.37a12.27,12.27,0,0,0,.71-1.28,3.59,3.59,0,0,0,.42-1.42C27.76,243,26.88,243.56,26.36,244.17Z"/><path class="cls-1" d="M16.87,243.81c-.44-.25-1,.15-1.26.54a9.77,9.77,0,0,0-1.81,2.79c-.19.63.08,1.94.95,1.15A9.29,9.29,0,0,0,17,245.21C17.21,244.74,17.32,244.06,16.87,243.81Z"/><path class="cls-1" d="M16.44,256.84a.82.82,0,0,0-.85,0,3.75,3.75,0,0,0-1.84,2.58c-.13,1.11.63,1.54,1.32.52.44-.64.86-1.3,1.27-2C16.57,257.65,16.77,257.11,16.44,256.84Z"/><path class="cls-1" d="M52,242.11a.77.77,0,0,1-.31-.78,3.74,3.74,0,0,1,1.6-2.73c1-.57,1.67,0,1,1-.41.66-.84,1.32-1.28,2C52.8,241.91,52.39,242.31,52,242.11Z"/><path class="cls-1" d="M38.3,226A6.34,6.34,0,0,0,36,230.26a1.5,1.5,0,0,0,.3,1.31c.47.36,1-.25,1.36-.8.62-1,1.23-2,1.82-3C40.4,226.12,39.57,225.2,38.3,226Z"/><path class="cls-1" d="M69,230.24a1.18,1.18,0,0,0-1.69.15,8.47,8.47,0,0,0-2,3.5,2.25,2.25,0,0,0,0,1.12,1,1,0,0,0,.75.76,1.45,1.45,0,0,0,1.17-.64,9.73,9.73,0,0,0,2-3.67A1.22,1.22,0,0,0,69,230.24Z"/><path class="cls-1" d="M96,285.43a2.61,2.61,0,0,0,.66-1.25c.19-.68.59-3.4-.87-3.32-1,.06-2.06,3.71-1.1,4.71C95,285.92,95.64,285.74,96,285.43Z"/><path class="cls-1" d="M38.39,258.07c-1.11-.62-3.24,4.21-2.28,4.75s1.69-.78,2.21-1.71S39.5,258.68,38.39,258.07Z"/><path class="cls-1" d="M39.35,268.89c-.62-.32-1.75,1.69-1.75,1.69-.19.45-.24,1.1.2,1.32s.93-.2,1.24-.59a3.42,3.42,0,0,0,.71-1.18C39.86,269.68,40,269.21,39.35,268.89Z"/><path class="cls-1" d="M71.83,254.56c-.14-.77-.3-1.55-1.33-1.29s-1.24,4.36-1.24,4.36c0,.86.38,1.83,1.11,1.64s1.1-1.34,1.27-2.24A7.27,7.27,0,0,0,71.83,254.56Z"/><path class="cls-1" d="M56.74,249.17c-.62.1-1.28,1-1.55,1.53-.16.32-.82,1.49.21,2S58.71,248.86,56.74,249.17Z"/><path class="cls-1" d="M75.14,270.88c-1.11,0-2.28,3.31-2.2,4.16,0,.32.23.72.55.64a.68.68,0,0,0,.22-.12C74.27,275.14,77.16,271,75.14,270.88Z"/><path class="cls-1" d="M103.23,272.88c-1.06,0-1.57,2.64-1.56,3.36a1.73,1.73,0,0,0,.22,1,.75.75,0,0,0,.89.29,1,1,0,0,0,.28-.26,3.45,3.45,0,0,0,.38-.56C103.82,276,104.64,272.84,103.23,272.88Z"/><path class="cls-1" d="M126.89,272.16c-1.26,1-.6,5.9,1.34,5a.62.62,0,0,0,.26-.31C129.05,275.76,128.88,270.59,126.89,272.16Z"/><path class="cls-1" d="M176.06,131.53a1.41,1.41,0,0,0-1.43.18,1.23,1.23,0,0,0-.27,1.33,5,5,0,0,0,4,3.06.39.39,0,0,0,.28-.09.55.55,0,0,0,.1-.25,4.27,4.27,0,0,0-1.53-3.32A3.78,3.78,0,0,0,176.06,131.53Z"/><path class="cls-1" d="M183.45,148a2.83,2.83,0,0,0-.95-.4.91.91,0,0,0-.92.36c-.25.39-.05.84.26,1.23l-.21-.23a7.4,7.4,0,0,0,2.47,2.73,1.25,1.25,0,0,0,1.16.14,1.06,1.06,0,0,0,.49-.78,2.3,2.3,0,0,0-.66-1.86A6.69,6.69,0,0,0,183.45,148Z"/><path class="cls-1" d="M165.71,176.82c0,1.06,1.58,3.79,2.35,3.5s.19-2.19-.2-3C167.37,176.24,165.76,175.1,165.71,176.82Z"/><path class="cls-1" d="M166.85,195.41c-.44-.66-1.51-1.4-2-.92s.83,3.09,1.46,3.93a.82.82,0,0,0,.46.36.59.59,0,0,0,.6-.35,1.56,1.56,0,0,0,.11-.74A4.27,4.27,0,0,0,166.85,195.41Z"/><path class="cls-1" d="M182,192.49c-.89.82,1.1,3.39,1.59,3.21a1.17,1.17,0,0,0,.56-1.26C184.06,193.56,182.91,191.66,182,192.49Z"/><path class="cls-1" d="M73.34,179c-1.16-.37-2.4,2.65-2,3a1.14,1.14,0,0,0,1.37-.14C73.42,181.29,74.5,179.35,73.34,179Z"/><path class="cls-1" d="M199.12,204.78c-.89.82,1.1,3.39,1.59,3.21a1.17,1.17,0,0,0,.56-1.26C201.16,205.85,200,204,199.12,204.78Z"/><path class="cls-1" d="M189.08,213.79a.54.54,0,0,0,.14-.27,3.66,3.66,0,0,0,.16-1c0-1-1-4.22-2.32-2.93s.34,3.47,1.31,4.1C188.59,213.84,188.89,214,189.08,213.79Z"/><path class="cls-1" d="M189.73,225.78c-.95-.95-1.4-.36-1.2.86s2,4,2.81,3.21S190.69,226.73,189.73,225.78Z"/><path class="cls-1" d="M211.36,241.9c-2,1.33,1.46,4.72,2.17,5.38a.76.76,0,0,0,.91.12.48.48,0,0,0,.18-.41C214.62,246.12,212.65,241,211.36,241.9Z"/><path class="cls-1" d="M221.79,241.63a12.17,12.17,0,0,0,3.06,4.35.94.94,0,0,0,.75.36c.48-.06.6-.67.52-1.12a8.81,8.81,0,0,0-2.26-3.86C223,240.33,221.16,239.8,221.79,241.63Z"/><path class="cls-1" d="M228.32,260.92a1,1,0,0,0,0-.89,6.54,6.54,0,0,0-1.68-2.28.71.71,0,0,0-1.18.8,5.88,5.88,0,0,0,1.56,2.26,1.62,1.62,0,0,0,.67.36A.67.67,0,0,0,228.32,260.92Z"/><path class="cls-1" d="M191.35,259.17a.66.66,0,0,0-.17.29,4.07,4.07,0,0,0-.23,1.1c-.07,1.09.91,4.75,2.43,3.38s-.2-3.88-1.24-4.63C191.9,259.14,191.57,259,191.35,259.17Z"/><path class="cls-1" d="M180.9,284.88a.34.34,0,0,0,.15-.14,1.8,1.8,0,0,0,.31-.58c.2-.6,0-2.85-1.23-2.34s-.38,2.23.24,2.84C180.51,284.8,180.72,284.94,180.9,284.88Z"/><path class="cls-1" d="M168.4,247.53a.45.45,0,0,0-.14.23,3.28,3.28,0,0,0-.18.88c-.06.87.72,3.81,1.95,2.71s-.16-3.11-1-3.72C168.84,247.5,168.57,247.38,168.4,247.53Z"/><path class="cls-1" d="M204.52,266.78c-.65-1.36-1.34-.9-1.58.45s.67,4.91,1.77,4.42S205.17,268.13,204.52,266.78Z"/></g></g></svg>